<?plantuml 1.2026.2beta2?><svg xmlns="http://www.w3.org/2000/svg" xmlns:xlink="http://www.w3.org/1999/xlink" contentStyleType="text/css" data-diagram-type="DESCRIPTION" height="897px" preserveAspectRatio="none" style="width:872px;height:897px;background:#FFFFFF;" version="1.1" viewBox="0 0 872 897" width="872px" zoomAndPan="magnify"><title>Deployment-Diagramm Teil 1 - High-Level &#220;bersicht</title><defs/><g><g class="title" data-source-line="1"><text fill="#000000" font-family="sans-serif" font-size="14" font-weight="bold" lengthAdjust="spacing" textLength="411.2432" x="223.4123" y="22.9951">Deployment-Diagramm Teil 1 - High-Level &#220;bersicht</text></g><!--cluster Client Schicht--><g class="cluster" data-qualified-name="Client Schicht" data-source-line="3" id="ent0002"><path d="M66.5,43.2969 L176.5059,43.2969 A3.75,3.75 0 0 1 179.0059,45.7969 L186.0059,65.5938 L401.5,65.5938 A2.5,2.5 0 0 1 404,68.0938 L404,242.0969 A2.5,2.5 0 0 1 401.5,244.5969 L66.5,244.5969 A2.5,2.5 0 0 1 64,242.0969 L64,45.7969 A2.5,2.5 0 0 1 66.5,43.2969" fill="none" style="stroke:#000000;stroke-width:1.5;"/><line style="stroke:#000000;stroke-width:1.5;" x1="64" x2="186.0059" y1="65.5938" y2="65.5938"/><text fill="#000000" font-family="sans-serif" font-size="14" font-weight="bold" lengthAdjust="spacing" textLength="109.0059" x="68" y="58.292">Client Schicht</text></g><!--cluster CLIENT--><g class="cluster" data-qualified-name="Client Schicht.CLIENT" data-source-line="4" id="ent0003"><polygon fill="none" points="96,104.2969,106,94.2969,372,94.2969,372,202.5969,362,212.5969,96,212.5969,96,104.2969" style="stroke:#181818;stroke-width:1;"/><line style="stroke:#181818;stroke-width:1;" x1="362" x2="372" y1="104.2969" y2="94.2969"/><line style="stroke:#181818;stroke-width:1;" x1="96" x2="362" y1="104.2969" y2="104.2969"/><line style="stroke:#181818;stroke-width:1;" x1="362" x2="362" y1="104.2969" y2="212.5969"/><text fill="#000000" font-family="sans-serif" font-size="14" font-weight="bold" lengthAdjust="spacing" textLength="200.7715" x="129.6143" y="120.292">Browser (Student/Admin)</text></g><!--cluster Webserver Schicht--><g class="cluster" data-qualified-name="Webserver Schicht" data-source-line="9" id="ent0005"><path d="M140.5,308.5969 L289.6963,308.5969 A3.75,3.75 0 0 1 292.1963,311.0969 L299.1963,330.8938 L401.5,330.8938 A2.5,2.5 0 0 1 404,333.3938 L404,500.3969 A2.5,2.5 0 0 1 401.5,502.8969 L140.5,502.8969 A2.5,2.5 0 0 1 138,500.3969 L138,311.0969 A2.5,2.5 0 0 1 140.5,308.5969" fill="none" style="stroke:#000000;stroke-width:1.5;"/><line style="stroke:#000000;stroke-width:1.5;" x1="138" x2="299.1963" y1="330.8938" y2="330.8938"/><text fill="#000000" font-family="sans-serif" font-size="14" font-weight="bold" lengthAdjust="spacing" textLength="148.1963" x="142" y="323.592">Webserver Schicht</text></g><!--cluster TOMCAT--><g class="cluster" data-qualified-name="Webserver Schicht.TOMCAT" data-source-line="10" id="ent0006"><polygon fill="none" points="170,369.5969,180,359.5969,372,359.5969,372,460.8969,362,470.8969,170,470.8969,170,369.5969" style="stroke:#181818;stroke-width:1;"/><line style="stroke:#181818;stroke-width:1;" x1="362" x2="372" y1="369.5969" y2="359.5969"/><line style="stroke:#181818;stroke-width:1;" x1="170" x2="362" y1="369.5969" y2="369.5969"/><line style="stroke:#181818;stroke-width:1;" x1="362" x2="362" y1="369.5969" y2="470.8969"/><text fill="#000000" font-family="sans-serif" font-size="14" font-weight="bold" lengthAdjust="spacing" textLength="122.2129" x="205.8936" y="385.592">Tomcat 8.5 / 11</text></g><!--cluster Datenbankserver Schicht--><g class="cluster" data-qualified-name="Datenbankserver Schicht" data-source-line="15" id="ent0008"><path d="M8.5,566.8969 L208.7061,566.8969 A3.75,3.75 0 0 1 211.2061,569.3969 L218.2061,589.1938 L259.5,589.1938 A2.5,2.5 0 0 1 262,591.6938 L262,764.6869 A2.5,2.5 0 0 1 259.5,767.1869 L8.5,767.1869 A2.5,2.5 0 0 1 6,764.6869 L6,569.3969 A2.5,2.5 0 0 1 8.5,566.8969" fill="none" style="stroke:#000000;stroke-width:1.5;"/><line style="stroke:#000000;stroke-width:1.5;" x1="6" x2="218.2061" y1="589.1938" y2="589.1938"/><text fill="#000000" font-family="sans-serif" font-size="14" font-weight="bold" lengthAdjust="spacing" textLength="199.2061" x="10" y="581.892">Datenbankserver Schicht</text></g><!--cluster DB--><g class="cluster" data-qualified-name="Datenbankserver Schicht.DB" data-source-line="16" id="ent0009"><polygon fill="none" points="38,627.8969,48,617.8969,230,617.8969,230,725.1869,220,735.1869,38,735.1869,38,627.8969" style="stroke:#181818;stroke-width:1;"/><line style="stroke:#181818;stroke-width:1;" x1="220" x2="230" y1="627.8969" y2="617.8969"/><line style="stroke:#181818;stroke-width:1;" x1="38" x2="220" y1="627.8969" y2="627.8969"/><line style="stroke:#181818;stroke-width:1;" x1="220" x2="220" y1="627.8969" y2="735.1869"/><text fill="#000000" font-family="sans-serif" font-size="14" font-weight="bold" lengthAdjust="spacing" textLength="116.5869" x="71.7065" y="643.892">PostgreSQL 15</text></g><!--cluster Konfiguration--><g class="cluster" data-qualified-name="Konfiguration" data-source-line="21" id="ent0011"><path d="M214.5,800.1869 L324.2393,800.1869 A3.75,3.75 0 0 1 326.7393,802.6869 L333.7393,822.4838 L616.5,822.4838 A2.5,2.5 0 0 1 619,824.9838 L619,887.9869 A2.5,2.5 0 0 1 616.5,890.4869 L214.5,890.4869 A2.5,2.5 0 0 1 212,887.9869 L212,802.6869 A2.5,2.5 0 0 1 214.5,800.1869" fill="none" style="stroke:#000000;stroke-width:1.5;"/><line style="stroke:#000000;stroke-width:1.5;" x1="212" x2="333.7393" y1="822.4838" y2="822.4838"/><text fill="#000000" font-family="sans-serif" font-size="14" font-weight="bold" lengthAdjust="spacing" textLength="108.7393" x="216" y="815.182">Konfiguration</text></g><!--entity FRONTEND--><g class="entity" data-qualified-name="Client Schicht.CLIENT.FRONTEND" data-source-line="5" id="ent0004"><rect fill="#F1F1F1" height="46.2969" rx="2.5" ry="2.5" style="stroke:#181818;stroke-width:0.5;" width="203.9326" x="123.03" y="142.2969"/><rect fill="#F1F1F1" height="10" style="stroke:#181818;stroke-width:0.5;" width="15" x="306.9626" y="147.2969"/><rect fill="#F1F1F1" height="2" style="stroke:#181818;stroke-width:0.5;" width="4" x="304.9626" y="149.2969"/><rect fill="#F1F1F1" height="2" style="stroke:#181818;stroke-width:0.5;" width="4" x="304.9626" y="153.2969"/><text fill="#000000" font-family="sans-serif" font-size="14" lengthAdjust="spacing" textLength="163.9326" x="138.03" y="175.292">HTML5/CSS3/JavaScript</text></g><!--entity WAR--><g class="entity" data-qualified-name="Webserver Schicht.TOMCAT.WAR" data-source-line="11" id="ent0007"><rect fill="#F1F1F1" height="39.2969" rx="2.5" ry="2.5" style="stroke:#181818;stroke-width:0.5;" width="134.5352" x="193.73" y="407.5969"/><polygon fill="#F1F1F1" points="311.2652,412.5969,311.2652,426.5969,323.2652,426.5969,323.2652,418.5969,317.2652,412.5969,311.2652,412.5969" style="stroke:#181818;stroke-width:0.5;"/><line style="stroke:#181818;stroke-width:0.5;" x1="317.2652" x2="317.2652" y1="412.5969" y2="418.5969"/><line style="stroke:#181818;stroke-width:0.5;" x1="323.2652" x2="317.2652" y1="418.5969" y2="418.5969"/><text fill="#000000" font-family="sans-serif" font-size="14" lengthAdjust="spacing" textLength="104.5352" x="203.73" y="433.592">wissentest.war</text></g><!--entity WISSENTEST_DB--><g class="entity" data-qualified-name="Datenbankserver Schicht.DB.WISSENTEST_DB" data-source-line="17" id="ent0010"><path d="M76.85,675.8969 C76.85,665.8969 123.9999,665.8969 123.9999,665.8969 C123.9999,665.8969 171.1498,665.8969 171.1498,675.8969 L171.1498,701.1938 C171.1498,711.1938 123.9999,711.1938 123.9999,711.1938 C123.9999,711.1938 76.85,711.1938 76.85,701.1938 L76.85,675.8969" fill="#F1F1F1" style="stroke:#181818;stroke-width:0.5;"/><path d="M76.85,675.8969 C76.85,685.8969 123.9999,685.8969 123.9999,685.8969 C123.9999,685.8969 171.1498,685.8969 171.1498,675.8969" fill="none" style="stroke:#181818;stroke-width:0.5;"/><text fill="#000000" font-family="sans-serif" font-size="14" lengthAdjust="spacing" textLength="74.2998" x="86.85" y="702.892">wissentest</text></g><!--entity DB_PROPS--><g class="entity" data-qualified-name="Konfiguration.DB_PROPS" data-source-line="22" id="ent0012"><rect fill="#F1F1F1" height="39.2969" rx="2.5" ry="2.5" style="stroke:#181818;stroke-width:0.5;" width="123.9736" x="228.01" y="835.1869"/><polygon fill="#F1F1F1" points="334.9836,840.1869,334.9836,854.1869,346.9836,854.1869,346.9836,846.1869,340.9836,840.1869,334.9836,840.1869" style="stroke:#181818;stroke-width:0.5;"/><line style="stroke:#181818;stroke-width:0.5;" x1="340.9836" x2="340.9836" y1="840.1869" y2="846.1869"/><line style="stroke:#181818;stroke-width:0.5;" x1="346.9836" x2="340.9836" y1="846.1869" y2="846.1869"/><text fill="#000000" font-family="sans-serif" font-size="14" lengthAdjust="spacing" textLength="93.9736" x="238.01" y="861.182">db.properties</text></g><!--entity WEB_XML--><g class="entity" data-qualified-name="Konfiguration.WEB_XML" data-source-line="23" id="ent0013"><rect fill="#F1F1F1" height="39.2969" rx="2.5" ry="2.5" style="stroke:#181818;stroke-width:0.5;" width="89.2129" x="387.39" y="835.1869"/><polygon fill="#F1F1F1" points="459.6029,840.1869,459.6029,854.1869,471.6029,854.1869,471.6029,846.1869,465.6029,840.1869,459.6029,840.1869" style="stroke:#181818;stroke-width:0.5;"/><line style="stroke:#181818;stroke-width:0.5;" x1="465.6029" x2="465.6029" y1="840.1869" y2="846.1869"/><line style="stroke:#181818;stroke-width:0.5;" x1="471.6029" x2="465.6029" y1="846.1869" y2="846.1869"/><text fill="#000000" font-family="sans-serif" font-size="14" lengthAdjust="spacing" textLength="59.2129" x="397.39" y="861.182">web.xml</text></g><!--entity POM--><g class="entity" data-qualified-name="Konfiguration.POM" data-source-line="24" id="ent0014"><rect fill="#F1F1F1" height="39.2969" rx="2.5" ry="2.5" style="stroke:#181818;stroke-width:0.5;" width="91.3525" x="511.32" y="835.1869"/><polygon fill="#F1F1F1" points="585.6725,840.1869,585.6725,854.1869,597.6725,854.1869,597.6725,846.1869,591.6725,840.1869,585.6725,840.1869" style="stroke:#181818;stroke-width:0.5;"/><line style="stroke:#181818;stroke-width:0.5;" x1="591.6725" x2="591.6725" y1="840.1869" y2="846.1869"/><line style="stroke:#181818;stroke-width:0.5;" x1="597.6725" x2="591.6725" y1="846.1869" y2="846.1869"/><text fill="#000000" font-family="sans-serif" font-size="14" lengthAdjust="spacing" textLength="61.3525" x="521.32" y="861.182">pom.xml</text></g><g class="entity" data-qualified-name="GMN20" data-source-line="36" id="ent0021"><path d="M419.81,115.0469 L419.81,215.8438 L592.1953,215.8438 L592.1953,125.0469 L582.1953,115.0469 L419.81,115.0469" fill="#FEFFDD" style="stroke:#181818;stroke-width:0.5;"/><path d="M582.1953,115.0469 L582.1953,125.0469 L592.1953,125.0469 L582.1953,115.0469" fill="#FEFFDD" style="stroke:#181818;stroke-width:1;"/><text fill="#000000" font-family="sans-serif" font-size="13" font-weight="bold" lengthAdjust="spacing" textLength="151.3853" x="425.81" y="132.1138">Client-Technologien:</text><text fill="#000000" font-family="sans-serif" font-size="13" lengthAdjust="spacing" textLength="88.8608" x="425.81" y="147.2466">- HTML5 DOM</text><text fill="#000000" font-family="sans-serif" font-size="13" lengthAdjust="spacing" textLength="143.1777" x="425.81" y="162.3794">- CSS3 (Flexbox, Grid)</text><text fill="#000000" font-family="sans-serif" font-size="13" lengthAdjust="spacing" textLength="122.021" x="425.81" y="177.5122">- Vanilla JavaScript</text><text fill="#000000" font-family="sans-serif" font-size="13" lengthAdjust="spacing" textLength="112.6519" x="425.81" y="192.645">- Fetch API / AJAX</text><text fill="#000000" font-family="sans-serif" font-size="13" lengthAdjust="spacing" textLength="113.4517" x="425.81" y="207.7778">- Session Cookies</text></g><g class="entity" data-qualified-name="GMN23" data-source-line="45" id="ent0024"><path d="M419.57,376.8469 L419.57,477.6438 L582.4338,477.6438 L582.4338,386.8469 L572.4338,376.8469 L419.57,376.8469" fill="#FEFFDD" style="stroke:#181818;stroke-width:0.5;"/><path d="M572.4338,376.8469 L572.4338,386.8469 L582.4338,386.8469 L572.4338,376.8469" fill="#FEFFDD" style="stroke:#181818;stroke-width:1;"/><text fill="#000000" font-family="sans-serif" font-size="13" font-weight="bold" lengthAdjust="spacing" textLength="112.0552" x="425.57" y="393.9138">Tomcat Server:</text><text fill="#000000" font-family="sans-serif" font-size="13" lengthAdjust="spacing" textLength="85.0332" x="425.57" y="409.0466">- Java 17 JVM</text><text fill="#000000" font-family="sans-serif" font-size="13" lengthAdjust="spacing" textLength="123.811" x="425.57" y="424.1794">- WAR-Deployment</text><text fill="#000000" font-family="sans-serif" font-size="13" lengthAdjust="spacing" textLength="120.0469" x="425.57" y="439.3122">- Port 8080 (HTTP)</text><text fill="#000000" font-family="sans-serif" font-size="13" lengthAdjust="spacing" textLength="128.2988" x="425.57" y="454.445">- Port 8443 (HTTPS)</text><text fill="#000000" font-family="sans-serif" font-size="13" lengthAdjust="spacing" textLength="141.8638" x="425.57" y="469.5778">- Context: /wissentest</text></g><g class="entity" data-qualified-name="GMN26" data-source-line="54" id="ent0027"><path d="M666.93,630.5769 L666.93,746.5066 L865.0677,746.5066 L865.0677,640.5769 L855.0677,630.5769 L666.93,630.5769" fill="#FEFFDD" style="stroke:#181818;stroke-width:0.5;"/><path d="M855.0677,630.5769 L855.0677,640.5769 L865.0677,640.5769 L855.0677,630.5769" fill="#FEFFDD" style="stroke:#181818;stroke-width:1;"/><text fill="#000000" font-family="sans-serif" font-size="13" font-weight="bold" lengthAdjust="spacing" textLength="175.1953" x="672.93" y="647.6438">PostgreSQL Datenbank:</text><text fill="#000000" font-family="sans-serif" font-size="13" lengthAdjust="spacing" textLength="142.7524" x="672.93" y="662.7766">- Host: localhost:5432</text><text fill="#000000" font-family="sans-serif" font-size="13" lengthAdjust="spacing" textLength="148.3574" x="672.93" y="677.9094">- Database: wissentest</text><text fill="#000000" font-family="sans-serif" font-size="13" lengthAdjust="spacing" textLength="96.6621" x="672.93" y="693.0422">- User: student</text><text fill="#000000" font-family="sans-serif" font-size="13" lengthAdjust="spacing" textLength="177.1377" x="672.93" y="708.175">- Connection Pool: HikariCP</text><text fill="#000000" font-family="sans-serif" font-size="13" lengthAdjust="spacing" textLength="76.8447" x="672.93" y="723.3078">- 8 Tabellen</text><text fill="#000000" font-family="sans-serif" font-size="13" lengthAdjust="spacing" textLength="152.1851" x="672.93" y="738.4406">- Indexes &amp; Constraints</text></g><!--link CLIENT to TOMCAT--><g class="link" data-entity-1="ent0003" data-entity-2="ent0006" data-link-type="dependency" data-source-line="28" id="lnk15"><path d="M364,212.8241 C364,214.3968 364,215.9979 364,217.6254 C364,220.8805 364,224.2415 364,227.6932 C364,234.5966 364,241.8631 364,249.3716 C364,264.3885 364,280.3734 364,296.3581 C364,312.3428 364,328.3273 364,343.3433 C364,347.0973 364,350.7907 364,354.4085 C364,355.313 364,356.2127 364,357.1075 C364,357.5549 364,358.001 364,358.4459 C364,358.6683 364,352.8904 364,353.1122" fill="none" id="CLIENT-to-TOMCAT" style="stroke:#181818;stroke-width:1;"/><polygon fill="#181818" points="364,359.1122,368,350.1122,364,354.1122,360,350.1122,364,359.1122" style="stroke:#181818;stroke-width:1;"/><text fill="#000000" font-family="sans-serif" font-size="13" lengthAdjust="spacing" textLength="51.8921" x="389.5115" y="273.6638">HTTP(S)</text><text fill="#000000" font-family="sans-serif" font-size="13" lengthAdjust="spacing" textLength="100.915" x="365" y="288.7966">Port 8080/8443</text></g><!--link TOMCAT to DB--><g class="link" data-entity-1="ent0006" data-entity-2="ent0009" data-link-type="dependency" data-source-line="29" id="lnk16"><path d="M363.5551,471.1692 C363.5091,471.4473 363.4619,471.7255 363.4137,472.004 C363.2206,473.1176 363.0097,474.2334 362.7798,475.3488 C361.8598,479.8104 360.6341,484.2652 359.0194,488.5495 C355.79,497.1181 351.005,505.0044 344,510.8969 C323.21,528.3869 240.57,499.0669 222,518.8969 C209.39,532.3594 202.9862,549.4094 200.4978,567.4658 C199.2536,576.494 198.9882,585.7738 199.4153,594.9826 C199.6288,599.5869 200.0155,604.1736 200.5394,608.7021 C200.8014,610.9664 201.0977,613.2161 201.4239,615.4463 C201.5054,616.0039 200.6784,610.6297 200.7636,611.1847" fill="none" id="TOMCAT-to-DB" style="stroke:#181818;stroke-width:1;"/><polygon fill="#181818" points="201.6741,617.1152,204.2621,607.6125,200.9154,612.1731,196.3547,608.8264,201.6741,617.1152" style="stroke:#181818;stroke-width:1;"/><text fill="#000000" font-family="sans-serif" font-size="13" lengthAdjust="spacing" textLength="61.0771" x="224.187" y="531.9638">JDBC/TCP</text><text fill="#000000" font-family="sans-serif" font-size="13" lengthAdjust="spacing" textLength="63.4512" x="223" y="547.0966">Port 5432</text></g><!--link TOMCAT to DB_PROPS--><g class="link" data-entity-1="ent0006" data-entity-2="ent0012" data-link-type="dependency" data-source-line="31" id="lnk17"><path d="M356.5243,471.2406 C355.8922,474.8756 355.2273,478.6988 354.5327,482.6934 C348.9753,514.6506 341.5106,557.5806 333.6312,602.8969 C317.8725,693.5294 301.483,787.7956 294.348,828.8256" fill="none" id="TOMCAT-to-DB_PROPS" style="stroke:#181818;stroke-width:1;stroke-dasharray:7,7;"/><polygon fill="#181818" points="293.32,834.7369,298.8028,826.5552,294.1766,829.8108,290.9211,825.1846,293.32,834.7369" style="stroke:#181818;stroke-width:1;"/><text fill="#000000" font-family="sans-serif" font-size="13" lengthAdjust="spacing" textLength="30.7227" x="343" y="693.1038">Liest</text></g><!--link TOMCAT to WEB_XML--><g class="link" data-entity-1="ent0006" data-entity-2="ent0013" data-link-type="dependency" data-source-line="32" id="lnk18"><path d="M370.8671,471.2406 C371.4479,474.8756 372.0589,478.6988 372.6972,482.6934 C377.8038,514.6506 384.6638,557.5806 391.905,602.8969 C406.3875,693.5294 421.4484,787.782 428.0034,828.812" fill="none" id="TOMCAT-to-WEB_XML" style="stroke:#181818;stroke-width:1;stroke-dasharray:7,7;"/><polygon fill="#181818" points="428.95,834.7369,431.4801,825.2185,428.1612,829.7995,423.5802,826.4806,428.95,834.7369" style="stroke:#181818;stroke-width:1;"/><text fill="#000000" font-family="sans-serif" font-size="13" lengthAdjust="spacing" textLength="70.4526" x="421" y="693.1038">Verwendet</text></g><!--link TOMCAT to POM--><g class="link" data-entity-1="ent0006" data-entity-2="ent0014" data-link-type="dependency" data-source-line="33" id="lnk19"><path d="M372.0294,457.6102 C372.0735,457.738 372.1177,457.866 372.1621,457.9942 C372.251,458.2506 372.3407,458.5079 372.4311,458.766 C372.6121,459.2823 372.7963,459.8018 372.9838,460.3244 C378.9825,477.0469 388.325,496.8769 402,510.8969 C435.87,545.6069 470.53,520.3769 500,558.8969 C565.6,644.6269 562.812,778.5724 559.172,828.9924" fill="none" id="TOMCAT-to-POM" style="stroke:#181818;stroke-width:1;stroke-dasharray:7,7;"/><polygon fill="#181818" points="558.74,834.9769,563.3777,826.2883,559.1,829.9899,555.3984,825.7122,558.74,834.9769" style="stroke:#181818;stroke-width:1;"/><text fill="#000000" font-family="sans-serif" font-size="13" lengthAdjust="spacing" textLength="73.1313" x="561" y="693.1038">Gebaut mit</text></g><!--link CLIENT to GMN20--><g class="link" data-entity-1="ent0003" data-entity-2="ent0021" data-link-type="association" data-source-line="36" id="lnk22"><path d="M372.0815,165.4469 C372.2237,165.4469 372.3659,165.4469 372.5081,165.4469 C372.7925,165.4469 373.0768,165.4469 373.3612,165.4469 C373.93,165.4469 374.4987,165.4469 375.0674,165.4469 C376.2049,165.4469 377.3424,165.4469 378.4798,165.4469 C383.0297,165.4469 387.5794,165.4469 392.1287,165.4469 C401.2275,165.4469 410.325,165.4469 419.42,165.4469" fill="none" id="CLIENT-GMN20" style="stroke:#181818;stroke-width:1;stroke-dasharray:7,7;"/></g><!--link TOMCAT to GMN23--><g class="link" data-entity-1="ent0006" data-entity-2="ent0024" data-link-type="association" data-source-line="45" id="lnk25"><path d="M372.0077,427.2469 C372.1491,427.2469 372.2904,427.2469 372.4317,427.2469 C372.7144,427.2469 372.997,427.2469 373.2797,427.2469 C373.845,427.2469 374.4103,427.2469 374.9756,427.2469 C376.1063,427.2469 377.2369,427.2469 378.3675,427.2469 C382.89,427.2469 387.4125,427.2469 391.935,427.2469 C400.98,427.2469 410.025,427.2469 419.07,427.2469" fill="none" id="TOMCAT-GMN23" style="stroke:#181818;stroke-width:1;stroke-dasharray:7,7;"/></g><!--link DB to GMN26--><g class="link" data-entity-1="ent0009" data-entity-2="ent0027" data-link-type="association" data-source-line="54" id="lnk28"><path d="M230.1705,623.3401 C230.232,623.0848 230.294,622.8293 230.3565,622.5736 C230.6064,621.5507 230.8637,620.5245 231.1288,619.4956 C239.61,586.5719 255.965,550.9269 287.5,534.8969 C353.86,501.1569 554.22,505.2369 622.5,534.8969 C667.36,554.3769 704.57,595.5669 729.86,630.3869" fill="none" id="DB-GMN26" style="stroke:#181818;stroke-width:1;stroke-dasharray:7,7;"/></g><?plantuml-src VLHTRzem57tFhxZYOGCqe8oY8HucGK9R69IioTe-JAgSv1Oi4XivfZ1D_IVxD_jZktR2nr2tF2Nt7FiSttiSpNMAuE4wbJyo5BhXSRPGBCiWH9v26nfmmnVBnXHVC8NVlo9KEO-Nsd7MB5wn1KB5JJajX21U6g02FnsWHyY4iA6IsnmLL0EzIOZL6YGP5xKAi1pSwNXq6vPqyyGoMqjXzghSXBDfj-K6GQSrOIyiY1LVQxlgwcv-6uvkFRlgrNazCVA04MczaDoRNaAPnKn3hzc55hJRThTmFdC7fnwOqloPnMHXo_ESl62kcrkcBFjXSFU6hCSqYeY9rV_4VPdhXSBWwnJQNRkPDpoHJPXc4SlnLBQG70S1TMaKX4_Uy0tnBr8yyyL6CSsbs4iU3v54pRMIQwG2vgNiatytzuCpuXQZvYvB2ytHyEbnDZrZh6LsOFZpcN7n7kvHHLma6x50uPG3RJG-x_lQDvCC_MfG-ovygQZv5xsBLk_oibDnIefXKok8EV66RYjq_PBQlUnyh3W7MjFo2k-6FUMcHN_1fM-3agyjYWJF6EJReDSOiOs6Z1Fi2AaH56LSWtmkGqb7hzUBN3T2Z9T2fd91N_rwdI2w4YQUu54Np9U9ALIlKjn5SlS1hXLFQXQuPuAdAODZX6tv2dMyX84_fXmE9eD7Mmmmpsc4u4gvegCvv1wCjNE3nN6imJBGWOtTtfhHWlOdcDmNvYYpZUFrjgN39A1gfbCxAT9aYc9GL5r9KTpfFhIEkVodDHlGUlqaweUhSMWSONr8PSpIfNarGxQ0Lrw0Ffm86U0RtQe-vCNlO-z9O6poJgPbsgSVr8efxleMxK788anJogFv75C8TfZ3ExCirufneO_D_GC0?></g></svg>