<?plantuml 1.2026.2beta2?><svg xmlns="http://www.w3.org/2000/svg" xmlns:xlink="http://www.w3.org/1999/xlink" contentStyleType="text/css" data-diagram-type="DESCRIPTION" height="808px" preserveAspectRatio="none" style="width:1247px;height:808px;background:#FFFFFF;" version="1.1" viewBox="0 0 1247 808" width="1247px" zoomAndPan="magnify"><title>Deployment-Diagramm Teil 2 - Backend Application Layers</title><defs/><g><g class="title" data-source-line="1"><text fill="#000000" font-family="sans-serif" font-size="14" font-weight="bold" lengthAdjust="spacing" textLength="464.8232" x="384.534" y="22.9951">Deployment-Diagramm Teil 2 - Backend Application Layers</text></g><!--cluster Web Layer (JSP & Servlets)--><g class="cluster" data-qualified-name="Web Layer .JSP . Servlets." data-source-line="3" id="ent0002"><path d="M8.5,175.9669 L223.335,175.9669 A3.75,3.75 0 0 1 225.835,178.4669 L232.835,198.2637 L689.5,198.2637 A2.5,2.5 0 0 1 692,200.7637 L692,270.7669 A2.5,2.5 0 0 1 689.5,273.2669 L8.5,273.2669 A2.5,2.5 0 0 1 6,270.7669 L6,178.4669 A2.5,2.5 0 0 1 8.5,175.9669" fill="none" style="stroke:#000000;stroke-width:1.5;"/><line style="stroke:#000000;stroke-width:1.5;" x1="6" x2="232.835" y1="198.2637" y2="198.2637"/><text fill="#000000" font-family="sans-serif" font-size="14" font-weight="bold" lengthAdjust="spacing" textLength="213.835" x="10" y="190.962">Web Layer (JSP &amp; Servlets)</text></g><!--cluster Service Layer (Business Logic)--><g class="cluster" data-qualified-name="Service Layer .Business Logic." data-source-line="10" id="ent0007"><path d="M209.5,347.3769 L451.5693,347.3769 A3.75,3.75 0 0 1 454.0693,349.8769 L461.0693,369.6738 L897.5,369.6738 A2.5,2.5 0 0 1 900,372.1738 L900,442.1769 A2.5,2.5 0 0 1 897.5,444.6769 L209.5,444.6769 A2.5,2.5 0 0 1 207,442.1769 L207,349.8769 A2.5,2.5 0 0 1 209.5,347.3769" fill="none" style="stroke:#000000;stroke-width:1.5;"/><line style="stroke:#000000;stroke-width:1.5;" x1="207" x2="461.0693" y1="369.6738" y2="369.6738"/><text fill="#000000" font-family="sans-serif" font-size="14" font-weight="bold" lengthAdjust="spacing" textLength="241.0693" x="211" y="362.372">Service Layer (Business Logic)</text></g><!--cluster DAO Layer (Data Access)--><g class="cluster" data-qualified-name="DAO Layer .Data Access." data-source-line="17" id="ent0012"><path d="M96.5,525.1769 L293.9717,525.1769 A3.75,3.75 0 0 1 296.4717,527.6769 L303.4717,547.4737 L887.5,547.4737 A2.5,2.5 0 0 1 890,549.9737 L890,619.9769 A2.5,2.5 0 0 1 887.5,622.4769 L96.5,622.4769 A2.5,2.5 0 0 1 94,619.9769 L94,527.6769 A2.5,2.5 0 0 1 96.5,525.1769" fill="none" style="stroke:#000000;stroke-width:1.5;"/><line style="stroke:#000000;stroke-width:1.5;" x1="94" x2="303.4717" y1="547.4737" y2="547.4737"/><text fill="#000000" font-family="sans-serif" font-size="14" font-weight="bold" lengthAdjust="spacing" textLength="196.4717" x="98" y="540.172">DAO Layer (Data Access)</text></g><!--cluster Model Layer (Data Objects)--><g class="cluster" data-qualified-name="Model Layer .Data Objects." data-source-line="25" id="ent0018"><path d="M138.5,704.2869 L355.4268,704.2869 A3.75,3.75 0 0 1 357.9268,706.7869 L364.9268,726.5838 L817.5,726.5838 A2.5,2.5 0 0 1 820,729.0838 L820,799.0869 A2.5,2.5 0 0 1 817.5,801.5869 L138.5,801.5869 A2.5,2.5 0 0 1 136,799.0869 L136,706.7869 A2.5,2.5 0 0 1 138.5,704.2869" fill="none" style="stroke:#000000;stroke-width:1.5;"/><line style="stroke:#000000;stroke-width:1.5;" x1="136" x2="364.9268" y1="726.5838" y2="726.5838"/><text fill="#000000" font-family="sans-serif" font-size="14" font-weight="bold" lengthAdjust="spacing" textLength="215.9268" x="140" y="719.282">Model Layer (Data Objects)</text></g><!--entity LOGIN--><g class="entity" data-qualified-name="Web Layer .JSP . Servlets..LOGIN" data-source-line="4" id="ent0003"><rect fill="#F1F1F1" height="46.2969" rx="2.5" ry="2.5" style="stroke:#181818;stroke-width:0.5;" width="127.5479" x="379.23" y="210.9669"/><rect fill="#F1F1F1" height="10" style="stroke:#181818;stroke-width:0.5;" width="15" x="486.7779" y="215.9669"/><rect fill="#F1F1F1" height="2" style="stroke:#181818;stroke-width:0.5;" width="4" x="484.7779" y="217.9669"/><rect fill="#F1F1F1" height="2" style="stroke:#181818;stroke-width:0.5;" width="4" x="484.7779" y="221.9669"/><text fill="#000000" font-family="sans-serif" font-size="14" lengthAdjust="spacing" textLength="87.5479" x="394.23" y="243.962">LoginServlet</text></g><!--entity TEST--><g class="entity" data-qualified-name="Web Layer .JSP . Servlets..TEST" data-source-line="5" id="ent0004"><rect fill="#F1F1F1" height="46.2969" rx="2.5" ry="2.5" style="stroke:#181818;stroke-width:0.5;" width="119.4814" x="224.26" y="210.9669"/><rect fill="#F1F1F1" height="10" style="stroke:#181818;stroke-width:0.5;" width="15" x="323.7414" y="215.9669"/><rect fill="#F1F1F1" height="2" style="stroke:#181818;stroke-width:0.5;" width="4" x="321.7414" y="217.9669"/><rect fill="#F1F1F1" height="2" style="stroke:#181818;stroke-width:0.5;" width="4" x="321.7414" y="221.9669"/><text fill="#000000" font-family="sans-serif" font-size="14" lengthAdjust="spacing" textLength="79.4814" x="239.26" y="243.962">TestServlet</text></g><!--entity ADMIN--><g class="entity" data-qualified-name="Web Layer .JSP . Servlets..ADMIN" data-source-line="6" id="ent0005"><rect fill="#F1F1F1" height="46.2969" rx="2.5" ry="2.5" style="stroke:#181818;stroke-width:0.5;" width="134.3975" x="541.8" y="210.9669"/><rect fill="#F1F1F1" height="10" style="stroke:#181818;stroke-width:0.5;" width="15" x="656.1975" y="215.9669"/><rect fill="#F1F1F1" height="2" style="stroke:#181818;stroke-width:0.5;" width="4" x="654.1975" y="217.9669"/><rect fill="#F1F1F1" height="2" style="stroke:#181818;stroke-width:0.5;" width="4" x="654.1975" y="221.9669"/><text fill="#000000" font-family="sans-serif" font-size="14" lengthAdjust="spacing" textLength="94.3975" x="556.8" y="243.962">AdminServlet</text></g><!--entity LEARN--><g class="entity" data-qualified-name="Web Layer .JSP . Servlets..LEARN" data-source-line="7" id="ent0006"><rect fill="#F1F1F1" height="46.2969" rx="2.5" ry="2.5" style="stroke:#181818;stroke-width:0.5;" width="167.2988" x="22.35" y="210.9669"/><rect fill="#F1F1F1" height="10" style="stroke:#181818;stroke-width:0.5;" width="15" x="169.6488" y="215.9669"/><rect fill="#F1F1F1" height="2" style="stroke:#181818;stroke-width:0.5;" width="4" x="167.6488" y="217.9669"/><rect fill="#F1F1F1" height="2" style="stroke:#181818;stroke-width:0.5;" width="4" x="167.6488" y="221.9669"/><text fill="#000000" font-family="sans-serif" font-size="14" lengthAdjust="spacing" textLength="127.2988" x="37.35" y="243.962">LearnModeServlet</text></g><!--entity AUTH--><g class="entity" data-qualified-name="Service Layer .Business Logic..AUTH" data-source-line="11" id="ent0008"><rect fill="#F1F1F1" height="46.2969" rx="2.5" ry="2.5" style="stroke:#181818;stroke-width:0.5;" width="124.5537" x="379.72" y="382.3769"/><rect fill="#F1F1F1" height="10" style="stroke:#181818;stroke-width:0.5;" width="15" x="484.2737" y="387.3769"/><rect fill="#F1F1F1" height="2" style="stroke:#181818;stroke-width:0.5;" width="4" x="482.2737" y="389.3769"/><rect fill="#F1F1F1" height="2" style="stroke:#181818;stroke-width:0.5;" width="4" x="482.2737" y="393.3769"/><text fill="#000000" font-family="sans-serif" font-size="14" lengthAdjust="spacing" textLength="84.5537" x="394.72" y="415.372">AuthService</text></g><!--entity TEST_SVC--><g class="entity" data-qualified-name="Service Layer .Business Logic..TEST_SVC" data-source-line="12" id="ent0009"><rect fill="#F1F1F1" height="46.2969" rx="2.5" ry="2.5" style="stroke:#181818;stroke-width:0.5;" width="121.6895" x="223.16" y="382.3769"/><rect fill="#F1F1F1" height="10" style="stroke:#181818;stroke-width:0.5;" width="15" x="324.8495" y="387.3769"/><rect fill="#F1F1F1" height="2" style="stroke:#181818;stroke-width:0.5;" width="4" x="322.8495" y="389.3769"/><rect fill="#F1F1F1" height="2" style="stroke:#181818;stroke-width:0.5;" width="4" x="322.8495" y="393.3769"/><text fill="#000000" font-family="sans-serif" font-size="14" lengthAdjust="spacing" textLength="81.6895" x="238.16" y="415.372">TestService</text></g><!--entity PROG--><g class="entity" data-qualified-name="Service Layer .Business Logic..PROG" data-source-line="13" id="ent0010"><rect fill="#F1F1F1" height="46.2969" rx="2.5" ry="2.5" style="stroke:#181818;stroke-width:0.5;" width="173.6768" x="539.16" y="382.3769"/><rect fill="#F1F1F1" height="10" style="stroke:#181818;stroke-width:0.5;" width="15" x="692.8368" y="387.3769"/><rect fill="#F1F1F1" height="2" style="stroke:#181818;stroke-width:0.5;" width="4" x="690.8368" y="389.3769"/><rect fill="#F1F1F1" height="2" style="stroke:#181818;stroke-width:0.5;" width="4" x="690.8368" y="393.3769"/><text fill="#000000" font-family="sans-serif" font-size="14" lengthAdjust="spacing" textLength="133.6768" x="554.16" y="415.372">ProgressionService</text></g><!--entity ADMIN_SVC--><g class="entity" data-qualified-name="Service Layer .Business Logic..ADMIN_SVC" data-source-line="14" id="ent0011"><rect fill="#F1F1F1" height="46.2969" rx="2.5" ry="2.5" style="stroke:#181818;stroke-width:0.5;" width="136.6055" x="747.7" y="382.3769"/><rect fill="#F1F1F1" height="10" style="stroke:#181818;stroke-width:0.5;" width="15" x="864.3055" y="387.3769"/><rect fill="#F1F1F1" height="2" style="stroke:#181818;stroke-width:0.5;" width="4" x="862.3055" y="389.3769"/><rect fill="#F1F1F1" height="2" style="stroke:#181818;stroke-width:0.5;" width="4" x="862.3055" y="393.3769"/><text fill="#000000" font-family="sans-serif" font-size="14" lengthAdjust="spacing" textLength="96.6055" x="762.7" y="415.372">AdminService</text></g><!--entity USER_DAO--><g class="entity" data-qualified-name="DAO Layer .Data Access..USER_DAO" data-source-line="18" id="ent0013"><rect fill="#F1F1F1" height="46.2969" rx="2.5" ry="2.5" style="stroke:#181818;stroke-width:0.5;" width="99.835" x="619.08" y="560.1769"/><rect fill="#F1F1F1" height="10" style="stroke:#181818;stroke-width:0.5;" width="15" x="698.915" y="565.1769"/><rect fill="#F1F1F1" height="2" style="stroke:#181818;stroke-width:0.5;" width="4" x="696.915" y="567.1769"/><rect fill="#F1F1F1" height="2" style="stroke:#181818;stroke-width:0.5;" width="4" x="696.915" y="571.1769"/><text fill="#000000" font-family="sans-serif" font-size="14" lengthAdjust="spacing" textLength="59.835" x="634.08" y="593.172">UserDao</text></g><!--entity QUESTION_DAO--><g class="entity" data-qualified-name="DAO Layer .Data Access..QUESTION_DAO" data-source-line="19" id="ent0014"><rect fill="#F1F1F1" height="46.2969" rx="2.5" ry="2.5" style="stroke:#181818;stroke-width:0.5;" width="130.542" x="109.73" y="560.1769"/><rect fill="#F1F1F1" height="10" style="stroke:#181818;stroke-width:0.5;" width="15" x="220.272" y="565.1769"/><rect fill="#F1F1F1" height="2" style="stroke:#181818;stroke-width:0.5;" width="4" x="218.272" y="567.1769"/><rect fill="#F1F1F1" height="2" style="stroke:#181818;stroke-width:0.5;" width="4" x="218.272" y="571.1769"/><text fill="#000000" font-family="sans-serif" font-size="14" lengthAdjust="spacing" textLength="90.542" x="124.73" y="593.172">QuestionDao</text></g><!--entity ATTEMPT_DAO--><g class="entity" data-qualified-name="DAO Layer .Data Access..ATTEMPT_DAO" data-source-line="20" id="ent0015"><rect fill="#F1F1F1" height="46.2969" rx="2.5" ry="2.5" style="stroke:#181818;stroke-width:0.5;" width="125.1074" x="275.45" y="560.1769"/><rect fill="#F1F1F1" height="10" style="stroke:#181818;stroke-width:0.5;" width="15" x="380.5574" y="565.1769"/><rect fill="#F1F1F1" height="2" style="stroke:#181818;stroke-width:0.5;" width="4" x="378.5574" y="567.1769"/><rect fill="#F1F1F1" height="2" style="stroke:#181818;stroke-width:0.5;" width="4" x="378.5574" y="571.1769"/><text fill="#000000" font-family="sans-serif" font-size="14" lengthAdjust="spacing" textLength="85.1074" x="290.45" y="593.172">AttemptDao</text></g><!--entity ANSWER_DAO--><g class="entity" data-qualified-name="DAO Layer .Data Access..ANSWER_DAO" data-source-line="21" id="ent0016"><rect fill="#F1F1F1" height="46.2969" rx="2.5" ry="2.5" style="stroke:#181818;stroke-width:0.5;" width="119.4883" x="754.26" y="560.1769"/><rect fill="#F1F1F1" height="10" style="stroke:#181818;stroke-width:0.5;" width="15" x="853.7483" y="565.1769"/><rect fill="#F1F1F1" height="2" style="stroke:#181818;stroke-width:0.5;" width="4" x="851.7483" y="567.1769"/><rect fill="#F1F1F1" height="2" style="stroke:#181818;stroke-width:0.5;" width="4" x="851.7483" y="571.1769"/><text fill="#000000" font-family="sans-serif" font-size="14" lengthAdjust="spacing" textLength="79.4883" x="769.26" y="593.172">AnswerDao</text></g><!--entity CLOZE_DAO--><g class="entity" data-qualified-name="DAO Layer .Data Access..CLOZE_DAO" data-source-line="22" id="ent0017"><rect fill="#F1F1F1" height="46.2969" rx="2.5" ry="2.5" style="stroke:#181818;stroke-width:0.5;" width="148.8281" x="435.59" y="560.1769"/><rect fill="#F1F1F1" height="10" style="stroke:#181818;stroke-width:0.5;" width="15" x="564.4181" y="565.1769"/><rect fill="#F1F1F1" height="2" style="stroke:#181818;stroke-width:0.5;" width="4" x="562.4181" y="567.1769"/><rect fill="#F1F1F1" height="2" style="stroke:#181818;stroke-width:0.5;" width="4" x="562.4181" y="571.1769"/><text fill="#000000" font-family="sans-serif" font-size="14" lengthAdjust="spacing" textLength="108.8281" x="450.59" y="593.172">ClozeTokenDao</text></g><!--entity USER_MODEL--><g class="entity" data-qualified-name="Model Layer .Data Objects..USER_MODEL" data-source-line="26" id="ent0019"><rect fill="#F1F1F1" height="46.2969" rx="2.5" ry="2.5" style="stroke:#181818;stroke-width:0.5;" width="71.9102" x="422.04" y="739.2869"/><rect fill="#F1F1F1" height="10" style="stroke:#181818;stroke-width:0.5;" width="15" x="473.9502" y="744.2869"/><rect fill="#F1F1F1" height="2" style="stroke:#181818;stroke-width:0.5;" width="4" x="471.9502" y="746.2869"/><rect fill="#F1F1F1" height="2" style="stroke:#181818;stroke-width:0.5;" width="4" x="471.9502" y="750.2869"/><text fill="#000000" font-family="sans-serif" font-size="14" lengthAdjust="spacing" textLength="31.9102" x="437.04" y="772.282">User</text></g><!--entity QUESTION_MODEL--><g class="entity" data-qualified-name="Model Layer .Data Objects..QUESTION_MODEL" data-source-line="27" id="ent0020"><rect fill="#F1F1F1" height="46.2969" rx="2.5" ry="2.5" style="stroke:#181818;stroke-width:0.5;" width="102.6172" x="151.69" y="739.2869"/><rect fill="#F1F1F1" height="10" style="stroke:#181818;stroke-width:0.5;" width="15" x="234.3072" y="744.2869"/><rect fill="#F1F1F1" height="2" style="stroke:#181818;stroke-width:0.5;" width="4" x="232.3072" y="746.2869"/><rect fill="#F1F1F1" height="2" style="stroke:#181818;stroke-width:0.5;" width="4" x="232.3072" y="750.2869"/><text fill="#000000" font-family="sans-serif" font-size="14" lengthAdjust="spacing" textLength="62.6172" x="166.69" y="772.282">Question</text></g><!--entity ATTEMPT_MODEL--><g class="entity" data-qualified-name="Model Layer .Data Objects..ATTEMPT_MODEL" data-source-line="28" id="ent0021"><rect fill="#F1F1F1" height="46.2969" rx="2.5" ry="2.5" style="stroke:#181818;stroke-width:0.5;" width="97.1826" x="289.41" y="739.2869"/><rect fill="#F1F1F1" height="10" style="stroke:#181818;stroke-width:0.5;" width="15" x="366.5926" y="744.2869"/><rect fill="#F1F1F1" height="2" style="stroke:#181818;stroke-width:0.5;" width="4" x="364.5926" y="746.2869"/><rect fill="#F1F1F1" height="2" style="stroke:#181818;stroke-width:0.5;" width="4" x="364.5926" y="750.2869"/><text fill="#000000" font-family="sans-serif" font-size="14" lengthAdjust="spacing" textLength="57.1826" x="304.41" y="772.282">Attempt</text></g><!--entity ANSWER_MODEL--><g class="entity" data-qualified-name="Model Layer .Data Objects..ANSWER_MODEL" data-source-line="29" id="ent0022"><rect fill="#F1F1F1" height="46.2969" rx="2.5" ry="2.5" style="stroke:#181818;stroke-width:0.5;" width="91.5635" x="529.22" y="739.2869"/><rect fill="#F1F1F1" height="10" style="stroke:#181818;stroke-width:0.5;" width="15" x="600.7835" y="744.2869"/><rect fill="#F1F1F1" height="2" style="stroke:#181818;stroke-width:0.5;" width="4" x="598.7835" y="746.2869"/><rect fill="#F1F1F1" height="2" style="stroke:#181818;stroke-width:0.5;" width="4" x="598.7835" y="750.2869"/><text fill="#000000" font-family="sans-serif" font-size="14" lengthAdjust="spacing" textLength="51.5635" x="544.22" y="772.282">Answer</text></g><!--entity ATTEMPT_ANSWER_MODEL--><g class="entity" data-qualified-name="Model Layer .Data Objects..ATTEMPT_ANSWER_MODEL" data-source-line="30" id="ent0023"><rect fill="#F1F1F1" height="46.2969" rx="2.5" ry="2.5" style="stroke:#181818;stroke-width:0.5;" width="148.7461" x="655.63" y="739.2869"/><rect fill="#F1F1F1" height="10" style="stroke:#181818;stroke-width:0.5;" width="15" x="784.3761" y="744.2869"/><rect fill="#F1F1F1" height="2" style="stroke:#181818;stroke-width:0.5;" width="4" x="782.3761" y="746.2869"/><rect fill="#F1F1F1" height="2" style="stroke:#181818;stroke-width:0.5;" width="4" x="782.3761" y="750.2869"/><text fill="#000000" font-family="sans-serif" font-size="14" lengthAdjust="spacing" textLength="108.7461" x="670.63" y="772.282">AttemptAnswer</text></g><g class="entity" data-qualified-name="GMN36" data-source-line="50" id="ent0037"><path d="M342.74,43.2969 L342.74,128.9609 A0,0 0 0 0 342.74,128.9609 L439,128.9609 L443,210.8369 L447,128.9609 L543.2581,128.9609 A0,0 0 0 0 543.2581,128.9609 L543.2581,53.2969 L533.2581,43.2969 L342.74,43.2969 A0,0 0 0 0 342.74,43.2969" fill="#FEFFDD" style="stroke:#181818;stroke-width:0.5;"/><path d="M533.2581,43.2969 L533.2581,53.2969 L543.2581,53.2969 L533.2581,43.2969" fill="#FEFFDD" style="stroke:#181818;stroke-width:0.5;"/><text fill="#000000" font-family="sans-serif" font-size="13" font-weight="bold" lengthAdjust="spacing" textLength="120.1738" x="348.74" y="60.3638">Servlet Handler:</text><text fill="#000000" font-family="sans-serif" font-size="13" lengthAdjust="spacing" textLength="179.5181" x="348.74" y="75.4966">- HTTP Request verarbeiten</text><text fill="#000000" font-family="sans-serif" font-size="13" lengthAdjust="spacing" textLength="145.501" x="348.74" y="90.6294">- Parameter validieren</text><text fill="#000000" font-family="sans-serif" font-size="13" lengthAdjust="spacing" textLength="116.1812" x="348.74" y="105.7622">- Service aufrufen</text><text fill="#000000" font-family="sans-serif" font-size="13" lengthAdjust="spacing" textLength="161.5923" x="348.74" y="120.895">- Response rendern (JSP)</text></g><g class="entity" data-qualified-name="GMN39" data-source-line="58" id="ent0040"><path d="M711.67,198.8469 L711.67,269.3781 L868.3321,269.3781 L868.3321,208.8469 L858.3321,198.8469 L711.67,198.8469" fill="#FEFFDD" style="stroke:#181818;stroke-width:0.5;"/><path d="M858.3321,198.8469 L858.3321,208.8469 L868.3321,208.8469 L858.3321,198.8469" fill="#FEFFDD" style="stroke:#181818;stroke-width:1;"/><text fill="#000000" font-family="sans-serif" font-size="13" font-weight="bold" lengthAdjust="spacing" textLength="98.5537" x="717.67" y="215.9138">Auth Service:</text><text fill="#000000" font-family="sans-serif" font-size="13" lengthAdjust="spacing" textLength="135.6621" x="717.67" y="231.0466">- Passwort validieren</text><text fill="#000000" font-family="sans-serif" font-size="13" lengthAdjust="spacing" textLength="119.228" x="717.67" y="246.1794">- Session erstellen</text><text fill="#000000" font-family="sans-serif" font-size="13" lengthAdjust="spacing" textLength="96.0527" x="717.67" y="261.3122">- Rollen pr&#252;fen</text></g><g class="entity" data-qualified-name="GMN42" data-source-line="65" id="ent0043"><path d="M945.5,362.6969 L945.5,448.3609 L1152.4927,448.3609 L1152.4927,372.6969 L1142.4927,362.6969 L945.5,362.6969" fill="#FEFFDD" style="stroke:#181818;stroke-width:0.5;"/><path d="M1142.4927,362.6969 L1142.4927,372.6969 L1152.4927,372.6969 L1142.4927,362.6969" fill="#FEFFDD" style="stroke:#181818;stroke-width:1;"/><text fill="#000000" font-family="sans-serif" font-size="13" font-weight="bold" lengthAdjust="spacing" textLength="185.9927" x="951.5" y="379.7638">DAO Implementierungen:</text><text fill="#000000" font-family="sans-serif" font-size="13" lengthAdjust="spacing" textLength="88.8608" x="951.5" y="394.8966">- JDBC-Zugriff</text><text fill="#000000" font-family="sans-serif" font-size="13" lengthAdjust="spacing" textLength="114.2769" x="951.5" y="410.0294">- SQL-Ausf&#252;hrung</text><text fill="#000000" font-family="sans-serif" font-size="13" lengthAdjust="spacing" textLength="153.207" x="951.5" y="425.1622">- ResultSet zu Objekten</text><text fill="#000000" font-family="sans-serif" font-size="13" lengthAdjust="spacing" textLength="172.1484" x="951.5" y="440.295">- Connection Management</text></g><g class="entity" data-qualified-name="GMN45" data-source-line="73" id="ent0046"><path d="M909.11,525.3569 L909.11,641.2866 L1240.8913,641.2866 L1240.8913,535.3569 L1230.8913,525.3569 L909.11,525.3569" fill="#FEFFDD" style="stroke:#181818;stroke-width:0.5;"/><path d="M1230.8913,525.3569 L1230.8913,535.3569 L1240.8913,535.3569 L1230.8913,525.3569" fill="#FEFFDD" style="stroke:#181818;stroke-width:1;"/><text fill="#000000" font-family="sans-serif" font-size="13" font-weight="bold" lengthAdjust="spacing" textLength="219.667" x="915.11" y="542.4238">Layered Architecture Pattern:</text><text fill="#000000" font-family="sans-serif" font-size="13" lengthAdjust="spacing" textLength="4.1323" x="915.11" y="557.5566">&#160;</text><text fill="#000000" font-family="sans-serif" font-size="13" lengthAdjust="spacing" textLength="255.1631" x="915.11" y="572.6894">Requests flie&#223;en von oben nach unten:</text><text fill="#000000" font-family="sans-serif" font-size="13" lengthAdjust="spacing" textLength="199.5767" x="915.11" y="587.8222">Servlet &#8594; Service &#8594; DAO &#8594; DB</text><text fill="#000000" font-family="sans-serif" font-size="13" lengthAdjust="spacing" textLength="4.1323" x="915.11" y="602.955">&#160;</text><text fill="#000000" font-family="sans-serif" font-size="13" lengthAdjust="spacing" textLength="264.7925" x="915.11" y="618.0878">Responses flie&#223;en von unten nach oben:</text><text fill="#000000" font-family="sans-serif" font-size="13" lengthAdjust="spacing" textLength="310.7813" x="915.11" y="633.2206">DB &#8594; DAO &#8594; Service &#8594; Servlet &#8594; JSP &#8594; Browser</text></g><!--link LOGIN to AUTH--><g class="link" data-entity-1="ent0003" data-entity-2="ent0008" data-link-type="dependency" data-source-line="34" id="lnk24"><path d="M442.87,257.6069 C442.68,290.0169 442.3551,343.487 442.1651,375.937" fill="none" id="LOGIN-to-AUTH" style="stroke:#181818;stroke-width:1;"/><polygon fill="#181818" points="442.13,381.9369,446.1826,372.9604,442.1593,376.937,438.1828,372.9136,442.13,381.9369" style="stroke:#181818;stroke-width:1;"/><text fill="#000000" font-family="sans-serif" font-size="13" lengthAdjust="spacing" textLength="92.8408" x="443" y="319.9438">authenticate()</text></g><!--link TEST to TEST_SVC--><g class="link" data-entity-1="ent0004" data-entity-2="ent0009" data-link-type="dependency" data-source-line="35" id="lnk25"><path d="M284,257.6069 C284,290.0169 284,343.4869 284,375.9369" fill="none" id="TEST-to-TEST_SVC" style="stroke:#181818;stroke-width:1;"/><polygon fill="#181818" points="284,381.9369,288,372.9369,284,376.9369,280,372.9369,284,381.9369" style="stroke:#181818;stroke-width:1;"/><text fill="#000000" font-family="sans-serif" font-size="13" lengthAdjust="spacing" textLength="68.231" x="302.2148" y="312.4438">startTest()</text><text fill="#000000" font-family="sans-serif" font-size="13" lengthAdjust="spacing" textLength="102.6606" x="285" y="327.5766">submitAnswer()</text></g><!--link ADMIN to ADMIN_SVC--><g class="link" data-entity-1="ent0005" data-entity-2="ent0011" data-link-type="dependency" data-source-line="36" id="lnk26"><path d="M636.49,257.6069 C676.08,290.0169 744.0963,345.6874 783.7563,378.1374" fill="none" id="ADMIN-to-ADMIN_SVC" style="stroke:#181818;stroke-width:1;"/><polygon fill="#181818" points="788.4,381.9369,783.9675,373.1418,784.5303,378.7706,778.9015,379.3334,788.4,381.9369" style="stroke:#181818;stroke-width:1;"/><text fill="#000000" font-family="sans-serif" font-size="13" lengthAdjust="spacing" textLength="109.8398" x="725" y="312.4438">createQuestion()</text><text fill="#000000" font-family="sans-serif" font-size="13" lengthAdjust="spacing" textLength="93.2471" x="733.2964" y="327.5766">editQuestion()</text></g><!--link LEARN to TEST_SVC--><g class="link" data-entity-1="ent0006" data-entity-2="ent0009" data-link-type="dependency" data-source-line="37" id="lnk27"><path d="M119.64,257.3669 C132.94,277.9969 154.54,308.7969 178,331.3769 C198.14,350.7669 218.7991,365.4656 239.8791,378.7056" fill="none" id="LEARN-to-TEST_SVC" style="stroke:#181818;stroke-width:1;"/><polygon fill="#181818" points="244.96,381.8969,239.4661,373.7227,240.7259,379.2375,235.2111,380.4973,244.96,381.8969" style="stroke:#181818;stroke-width:1;"/><text fill="#000000" font-family="sans-serif" font-size="13" lengthAdjust="spacing" textLength="96.4082" x="179" y="319.9438">getQuestions()</text></g><!--link AUTH to USER_DAO--><g class="link" data-entity-1="ent0008" data-entity-2="ent0013" data-link-type="dependency" data-source-line="39" id="lnk28"><path d="M475.94,429.0269 C489.78,437.4069 506.21,446.3969 522,452.6769 C567.85,470.8969 592.99,445.7269 630,478.3569 C653.71,499.2669 662.1382,530.1266 665.7882,553.8666" fill="none" id="AUTH-to-USER_DAO" style="stroke:#181818;stroke-width:1;"/><polygon fill="#181818" points="666.7,559.7969,669.2859,550.2935,665.9402,554.8549,661.3788,551.5093,666.7,559.7969" style="stroke:#181818;stroke-width:1;"/><text fill="#000000" font-family="sans-serif" font-size="13" lengthAdjust="spacing" textLength="64.4541" x="644" y="491.4238">findUser()</text></g><!--link TEST_SVC to QUESTION_DAO--><g class="link" data-entity-1="ent0009" data-entity-2="ent0014" data-link-type="dependency" data-source-line="40" id="lnk29"><path d="M222.73,424.3969 C196.42,435.4469 168.26,452.5869 153,478.3569 C138.05,503.5969 147.4276,532.2552 158.7476,554.3852" fill="none" id="TEST_SVC-to-QUESTION_DAO" style="stroke:#181818;stroke-width:1;"/><polygon fill="#181818" points="161.48,559.7269,160.9425,549.8927,159.203,555.2754,153.8202,553.5359,161.48,559.7269" style="stroke:#181818;stroke-width:1;"/><text fill="#000000" font-family="sans-serif" font-size="13" lengthAdjust="spacing" textLength="150.5156" x="154" y="491.4238">getRandomQuestions()</text></g><!--link TEST_SVC to ATTEMPT_DAO--><g class="link" data-entity-1="ent0009" data-entity-2="ent0015" data-link-type="dependency" data-source-line="41" id="lnk30"><path d="M294.01,428.8569 C300.05,442.8869 307.59,461.4569 313,478.3569 C321.83,505.9369 327.9629,532.6416 332.3629,553.8816" fill="none" id="TEST_SVC-to-ATTEMPT_DAO" style="stroke:#181818;stroke-width:1;"/><polygon fill="#181818" points="333.58,559.7569,335.6712,550.1326,332.5658,554.8608,327.8375,551.7554,333.58,559.7569" style="stroke:#181818;stroke-width:1;"/><text fill="#000000" font-family="sans-serif" font-size="13" lengthAdjust="spacing" textLength="93.6724" x="319" y="491.4238">saveAttempt()</text></g><!--link ADMIN_SVC to ANSWER_DAO--><g class="link" data-entity-1="ent0011" data-entity-2="ent0016" data-link-type="dependency" data-source-line="42" id="lnk31"><path d="M815.74,429.1469 C815.36,462.9069 814.7077,520.0873 814.3277,553.7873" fill="none" id="ADMIN_SVC-to-ANSWER_DAO" style="stroke:#181818;stroke-width:1;"/><polygon fill="#181818" points="814.26,559.7869,818.3612,550.8325,814.3164,554.7872,810.3617,550.7423,814.26,559.7869" style="stroke:#181818;stroke-width:1;"/><text fill="#000000" font-family="sans-serif" font-size="13" lengthAdjust="spacing" textLength="95.2275" x="816" y="491.4238">saveAnswers()</text></g><!--link ADMIN_SVC to CLOZE_DAO--><g class="link" data-entity-1="ent0011" data-entity-2="ent0017" data-link-type="dependency" data-source-line="43" id="lnk32"><path d="M781.36,429.0369 C766.18,437.8469 747.8,447.1469 730,452.6769 C680.47,468.0769 532.6,439.7169 498,478.3569 C478.24,500.4269 486.1322,531.0281 496.2022,554.3581" fill="none" id="ADMIN_SVC-to-CLOZE_DAO" style="stroke:#181818;stroke-width:1;"/><polygon fill="#181818" points="498.58,559.8669,498.6859,550.0186,496.5985,555.2763,491.3409,553.1889,498.58,559.8669" style="stroke:#181818;stroke-width:1;"/><text fill="#000000" font-family="sans-serif" font-size="13" lengthAdjust="spacing" textLength="122.4717" x="499" y="491.4238">saveClozeTokens()</text></g><!--link USER_DAO to USER_MODEL--><g class="link" data-entity-1="ent0013" data-entity-2="ent0019" data-link-type="dependency" data-source-line="45" id="lnk33"><path d="M644.3,606.9269 C631.97,617.7969 616.59,630.7269 602,641.2869 C564.03,668.7769 547.44,665.6069 512,696.2869 C497.45,708.8869 487.246,720.8439 477.236,734.2139" fill="none" id="USER_DAO-to-USER_MODEL" style="stroke:#181818;stroke-width:1;"/><polygon fill="#181818" points="473.64,739.0169,482.236,734.2097,476.6366,735.0144,475.832,729.415,473.64,739.0169" style="stroke:#181818;stroke-width:1;"/><text fill="#000000" font-family="sans-serif" font-size="13" lengthAdjust="spacing" textLength="47.0361" x="549" y="684.3538">returns</text></g><!--link QUESTION_DAO to QUESTION_MODEL--><g class="link" data-entity-1="ent0014" data-entity-2="ent0020" data-link-type="dependency" data-source-line="46" id="lnk34"><path d="M178.55,606.7569 C183.92,640.7369 193.1231,698.9505 198.5031,732.9805" fill="none" id="QUESTION_DAO-to-QUESTION_MODEL" style="stroke:#181818;stroke-width:1;"/><polygon fill="#181818" points="199.44,738.9069,201.9855,729.3927,198.6592,733.9682,194.0837,730.6419,199.44,738.9069" style="stroke:#181818;stroke-width:1;"/><text fill="#000000" font-family="sans-serif" font-size="13" lengthAdjust="spacing" textLength="47.0361" x="191" y="684.3538">returns</text></g><!--link ATTEMPT_DAO to ATTEMPT_MODEL--><g class="link" data-entity-1="ent0015" data-entity-2="ent0021" data-link-type="dependency" data-source-line="47" id="lnk35"><path d="M338,606.7569 C338,640.7369 338,698.8769 338,732.9069" fill="none" id="ATTEMPT_DAO-to-ATTEMPT_MODEL" style="stroke:#181818;stroke-width:1;"/><polygon fill="#181818" points="338,738.9069,342,729.9069,338,733.9069,334,729.9069,338,738.9069" style="stroke:#181818;stroke-width:1;"/><text fill="#000000" font-family="sans-serif" font-size="13" lengthAdjust="spacing" textLength="47.0361" x="339" y="684.3538">returns</text></g><!--link GMN39 to AUTH--><g class="link" data-entity-1="ent0040" data-entity-2="ent0008" data-link-type="association" data-source-line="58" id="lnk41"><path d="M718.69,269.8169 C709.76,273.8269 700.72,277.7369 692,281.2669 C687.37,283.1369 526.36,336.9569 522,339.3769 C501.01,351.0169 480.08,368.3269 464.89,382.1769" fill="none" id="GMN39-AUTH" style="stroke:#181818;stroke-width:1;stroke-dasharray:7,7;"/></g><!--link GMN42 to USER_DAO--><g class="link" data-entity-1="ent0043" data-entity-2="ent0013" data-link-type="association" data-source-line="65" id="lnk44"><path d="M945.32,439.0869 C930.14,443.7269 914.68,448.3769 900,452.6769 C858.85,464.7269 846.7,462.1369 807,478.3569 C774.07,491.8169 765.64,496.0669 737,517.1769 C719.89,529.7869 702.62,546.3869 689.77,559.6769" fill="none" id="GMN42-USER_DAO" style="stroke:#181818;stroke-width:1;stroke-dasharray:7,7;"/></g><!--link GMN42 to GMN45--><g class="link" data-entity-1="ent0043" data-entity-2="ent0046" data-link-type="association" data-source-line="73" id="lnk47"><path d="M1055.23,448.6369 C1058.61,471.4869 1062.84,500.0769 1066.51,524.9469" fill="none" id="GMN42-GMN45" style="stroke:#181818;stroke-width:1;stroke-dasharray:7,7;"/></g><?plantuml-src VPNFRjf04CRlVeeHXpP1uj9Z3fKCHlaZ20ISHAegLOiPmAszw-wkYTggrpv0Nw0lablUf4_IcSLhR22D8c7mjz_CRtPsrgOsGuYmoDIt7ANjHQbOQv7d46EQmJleGLyaNr0k8IoAB4s4JPM4aVY6sWH1GU_46g7pY8lTZt1sCv_26vYZtcPepNa7VWH0VudA2oKf17H6QftAIj01OM0qkRo-FLJ5Q6nJ50_dyQ4cNEPjfp0Q7pkDK6WvLajinHo6izlWPuE1twO9Uev-QLA9XfIKRdAA8opjfbgq2tuVNxr6uJLCyMd-C3ZKJRLQQuf6rMtAfxF9vQlGTLo6TgPDd2YSU9H8M05Xaf3_AOvxWpeIoddTpuUpJxJqK7DN4WWbvtLtzmHoFRazfGsjnRomNXh6yN0yZKygfNdQnmvlvu-demyozHrZHNtejOFHvCFGIPlClCbPYtgo-8o9VHLxppoUHCFHQzHjv9FI2hf5V5hec9l0__DhgYlNrYgYVmiFg1UfN9PoZJ9mXmbwlVUk7-42EeBwb3pvyEBPUIVW7dG2tumiCbPeozrwTlvHcdAHfrLiNk4wREVfUutN91h9qXU95-8ojVlldS2TigDOQwn5XbM1ovHLllrOjI8atYEViblDecRlLNOp8PSgRvcsbZHwqC6ABLO5hl7ssheDQwahX3cMrbtebVj6tO7LF3MSspQMQxIbbgOJj71QVCVQ9aUJwrWPI6KHh2f0hUe1s-rM8n2kg60PwejkbtxkmLKSJs66Nxc0i4Kjz09JIzt4BwU2RWIqTAQs8akNAUhgXP-OebpfSbNzE4D3FMmGIBL4BTsDS1xm5S8fjHEhHcQtoxFK-_cafiAO9wNjSLWt9u6sn6AM-RYA7w7GBy-SokbuZV7MxN8Hh_CYGxxvoDwT7n_y9keFUX_AjKvNgrtKkr4lBCtgvNd3IizQPZJVBNmltQZvucisK5BIuE4qnqBISE8OXqajbBKgTxcucOLqo-faGuLFQ1UH2a0zggkKwB_Q80EhBCMNFqIx9N-re0SfaWsKai9VaD3lyjzVl-jDucScTfzzRxZRgmD7vxEpP7DsZFejWwPfCnXV_lpPr-g9ZcuD_0y0?></g></svg>