<?plantuml 1.2026.2beta2?><svg xmlns="http://www.w3.org/2000/svg" xmlns:xlink="http://www.w3.org/1999/xlink" contentStyleType="text/css" data-diagram-type="CLASS" height="798px" preserveAspectRatio="none" style="width:1467px;height:798px;background:#FFFFFF;" version="1.1" viewBox="0 0 1467 798" width="1467px" zoomAndPan="magnify"><title>Deployment-Diagramm Teil 3 - Datenbank-Struktur</title><defs/><g><g class="title" data-source-line="1"><text fill="#000000" font-family="sans-serif" font-size="14" font-weight="bold" lengthAdjust="spacing" textLength="404.6396" x="524.2376" y="22.9951">Deployment-Diagramm Teil 3 - Datenbank-Struktur</text></g><!--cluster PostgreSQL Database: wissentest--><g class="cluster" data-qualified-name="PostgreSQL Database. wissentest" data-source-line="3" id="ent0002"><path d="M8.5,83.5269 L276.6553,83.5269 A3.75,3.75 0 0 1 279.1553,86.0269 L286.1553,105.8238 L758.5,105.8238 A2.5,2.5 0 0 1 761,108.3238 L761,788.5569 A2.5,2.5 0 0 1 758.5,791.0569 L8.5,791.0569 A2.5,2.5 0 0 1 6,788.5569 L6,86.0269 A2.5,2.5 0 0 1 8.5,83.5269" fill="none" style="stroke:#000000;stroke-width:1.5;"/><line style="stroke:#000000;stroke-width:1.5;" x1="6" x2="286.1553" y1="105.8238" y2="105.8238"/><text fill="#000000" font-family="sans-serif" font-size="14" font-weight="bold" lengthAdjust="spacing" textLength="267.1553" x="10" y="98.522">PostgreSQL Database: wissentest</text></g><!--class USERS--><g class="entity" data-qualified-name="PostgreSQL Database. wissentest.USERS" data-source-line="4" id="ent0003"><rect fill="#F1F1F1" height="178.375" rx="2.5" ry="2.5" style="stroke:#181818;stroke-width:0.5;" width="239.083" x="22.46" y="118.5269"/><ellipse cx="118.8365" cy="134.5269" fill="#ADD1B2" rx="11" ry="11" style="stroke:#181818;stroke-width:1;"/><path d="M122.9458,140.5269 L115.2271,140.5269 L115.2271,128.1363 L122.9458,128.1363 L122.9458,130.2925 L117.6802,130.2925 L117.6802,132.9644 L122.4458,132.9644 L122.4458,135.1206 L117.6802,135.1206 L117.6802,138.3706 L122.9458,138.3706 L122.9458,140.5269 Z " fill="#000000"/><text fill="#000000" font-family="sans-serif" font-size="14" lengthAdjust="spacing" textLength="37.8301" x="139.3365" y="139.3736">users</text><line style="stroke:#181818;stroke-width:0.5;" x1="23.46" x2="260.543" y1="150.5269" y2="150.5269"/><text fill="#000000" font-family="sans-serif" font-size="14" lengthAdjust="spacing" textLength="108.3564" x="28.46" y="167.522">id : SERIAL [PK]</text><text fill="#000000" font-family="sans-serif" font-size="14" lengthAdjust="spacing" textLength="195.7471" x="28.46" y="183.8189">reset_requested : BOOLEAN</text><text fill="#000000" font-family="sans-serif" font-size="14" lengthAdjust="spacing" textLength="169.4629" x="28.46" y="200.1157">created_at : TIMESTAMP</text><line style="stroke:#181818;stroke-width:0.5;" x1="23.46" x2="260.543" y1="207.4175" y2="207.4175"/><text fill="#000000" font-family="sans-serif" font-size="14" lengthAdjust="spacing" textLength="189.9912" x="28.46" y="224.4126">username : VARCHAR(100)</text><text fill="#000000" font-family="sans-serif" font-size="14" lengthAdjust="spacing" textLength="158.3613" x="28.46" y="240.7095">email : VARCHAR(255)</text><text fill="#000000" font-family="sans-serif" font-size="14" lengthAdjust="spacing" textLength="227.083" x="28.46" y="257.0064">password_hash : VARCHAR(256)</text><text fill="#000000" font-family="sans-serif" font-size="14" lengthAdjust="spacing" textLength="218.7158" x="28.46" y="273.3032">password_salt : VARCHAR(128)</text><text fill="#000000" font-family="sans-serif" font-size="14" lengthAdjust="spacing" textLength="137.6689" x="28.46" y="289.6001">role : VARCHAR(32)</text></g><!--class QUESTIONS--><g class="entity" data-qualified-name="PostgreSQL Database. wissentest.QUESTIONS" data-source-line="15" id="ent0004"><rect fill="#F1F1F1" height="194.6719" rx="2.5" ry="2.5" style="stroke:#181818;stroke-width:0.5;" width="200.877" x="296.56" y="373.8969"/><ellipse cx="358.8593" cy="389.8969" fill="#ADD1B2" rx="11" ry="11" style="stroke:#181818;stroke-width:1;"/><path d="M362.9687,395.8969 L355.2499,395.8969 L355.2499,383.5062 L362.9687,383.5062 L362.9687,385.6625 L357.7031,385.6625 L357.7031,388.3344 L362.4687,388.3344 L362.4687,390.4906 L357.7031,390.4906 L357.7031,393.7406 L362.9687,393.7406 L362.9687,395.8969 Z " fill="#000000"/><text fill="#000000" font-family="sans-serif" font-size="14" lengthAdjust="spacing" textLength="67.7783" x="379.3593" y="394.7436">questions</text><line style="stroke:#181818;stroke-width:0.5;" x1="297.56" x2="496.437" y1="405.8969" y2="405.8969"/><text fill="#000000" font-family="sans-serif" font-size="14" lengthAdjust="spacing" textLength="108.3564" x="302.56" y="422.892">id : SERIAL [PK]</text><text fill="#000000" font-family="sans-serif" font-size="14" lengthAdjust="spacing" textLength="100.3789" x="302.56" y="439.1889">prompt : TEXT</text><text fill="#000000" font-family="sans-serif" font-size="14" lengthAdjust="spacing" textLength="143.6709" x="302.56" y="455.4857">difficulty : SMALLINT</text><text fill="#000000" font-family="sans-serif" font-size="14" lengthAdjust="spacing" textLength="118.0361" x="302.56" y="471.7826">points : INTEGER</text><text fill="#000000" font-family="sans-serif" font-size="14" lengthAdjust="spacing" textLength="185.4521" x="302.56" y="488.0795">created_by : INTEGER [FK]</text><text fill="#000000" font-family="sans-serif" font-size="14" lengthAdjust="spacing" textLength="169.4629" x="302.56" y="504.3764">created_at : TIMESTAMP</text><line style="stroke:#181818;stroke-width:0.5;" x1="297.56" x2="496.437" y1="511.6781" y2="511.6781"/><text fill="#000000" font-family="sans-serif" font-size="14" lengthAdjust="spacing" textLength="142.1191" x="302.56" y="528.6732">type : VARCHAR(16)</text><text fill="#000000" font-family="sans-serif" font-size="14" lengthAdjust="spacing" textLength="172.7168" x="302.56" y="544.9701">category : VARCHAR(64)</text><text fill="#000000" font-family="sans-serif" font-size="14" lengthAdjust="spacing" textLength="188.877" x="302.56" y="561.267">image_url : VARCHAR(255)</text></g><!--class ANSWERS--><g class="entity" data-qualified-name="PostgreSQL Database. wissentest.ANSWERS" data-source-line="27" id="ent0005"><rect fill="#F1F1F1" height="129.4844" rx="2.5" ry="2.5" style="stroke:#181818;stroke-width:0.5;" width="199.9063" x="70.05" y="645.5769"/><ellipse cx="136.8234" cy="661.5769" fill="#ADD1B2" rx="11" ry="11" style="stroke:#181818;stroke-width:1;"/><path d="M140.9328,667.5769 L133.2141,667.5769 L133.2141,655.1863 L140.9328,655.1863 L140.9328,657.3425 L135.6672,657.3425 L135.6672,660.0144 L140.4328,660.0144 L140.4328,662.1706 L135.6672,662.1706 L135.6672,665.4206 L140.9328,665.4206 L140.9328,667.5769 Z " fill="#000000"/><text fill="#000000" font-family="sans-serif" font-size="14" lengthAdjust="spacing" textLength="57.8594" x="157.3234" y="666.4236">answers</text><line style="stroke:#181818;stroke-width:0.5;" x1="71.05" x2="268.9563" y1="677.5769" y2="677.5769"/><text fill="#000000" font-family="sans-serif" font-size="14" lengthAdjust="spacing" textLength="108.3564" x="76.05" y="694.572">id : SERIAL [PK]</text><text fill="#000000" font-family="sans-serif" font-size="14" lengthAdjust="spacing" textLength="187.9063" x="76.05" y="710.8689">question_id : INTEGER [FK]</text><text fill="#000000" font-family="sans-serif" font-size="14" lengthAdjust="spacing" textLength="134.5996" x="76.05" y="727.1657">answer_text : TEXT</text><text fill="#000000" font-family="sans-serif" font-size="14" lengthAdjust="spacing" textLength="149.7139" x="76.05" y="743.4626">is_correct : BOOLEAN</text><text fill="#000000" font-family="sans-serif" font-size="14" lengthAdjust="spacing" textLength="169.2031" x="76.05" y="759.7595">partial_value : NUMERIC</text><line style="stroke:#181818;stroke-width:0.5;" x1="71.05" x2="268.9563" y1="767.0613" y2="767.0613"/></g><!--class CLOZE--><g class="entity" data-qualified-name="PostgreSQL Database. wissentest.CLOZE" data-source-line="35" id="ent0006"><rect fill="#F1F1F1" height="129.4844" rx="2.5" ry="2.5" style="stroke:#181818;stroke-width:0.5;" width="199.9063" x="305.05" y="645.5769"/><ellipse cx="350.2663" cy="661.5769" fill="#ADD1B2" rx="11" ry="11" style="stroke:#181818;stroke-width:1;"/><path d="M354.3757,667.5769 L346.6569,667.5769 L346.6569,655.1863 L354.3757,655.1863 L354.3757,657.3425 L349.1101,657.3425 L349.1101,660.0144 L353.8757,660.0144 L353.8757,662.1706 L349.1101,662.1706 L349.1101,665.4206 L354.3757,665.4206 L354.3757,667.5769 Z " fill="#000000"/><text fill="#000000" font-family="sans-serif" font-size="14" lengthAdjust="spacing" textLength="100.9736" x="370.7663" y="666.4236">cloze_answers</text><line style="stroke:#181818;stroke-width:0.5;" x1="306.05" x2="503.9563" y1="677.5769" y2="677.5769"/><text fill="#000000" font-family="sans-serif" font-size="14" lengthAdjust="spacing" textLength="108.3564" x="311.05" y="694.572">id : SERIAL [PK]</text><text fill="#000000" font-family="sans-serif" font-size="14" lengthAdjust="spacing" textLength="187.9063" x="311.05" y="710.8689">question_id : INTEGER [FK]</text><text fill="#000000" font-family="sans-serif" font-size="14" lengthAdjust="spacing" textLength="168.1094" x="311.05" y="727.1657">token_index : SMALLINT</text><text fill="#000000" font-family="sans-serif" font-size="14" lengthAdjust="spacing" textLength="149.1191" x="311.05" y="743.4626">expected_text : TEXT</text><text fill="#000000" font-family="sans-serif" font-size="14" lengthAdjust="spacing" textLength="169.2031" x="311.05" y="759.7595">partial_value : NUMERIC</text><line style="stroke:#181818;stroke-width:0.5;" x1="306.05" x2="503.9563" y1="767.0613" y2="767.0613"/></g><!--class ATTEMPTS--><g class="entity" data-qualified-name="PostgreSQL Database. wissentest.ATTEMPTS" data-source-line="43" id="ent0007"><rect fill="#F1F1F1" height="178.375" rx="2.5" ry="2.5" style="stroke:#181818;stroke-width:0.5;" width="210.1738" x="532.91" y="382.0469"/><ellipse cx="602.0077" cy="398.0469" fill="#ADD1B2" rx="11" ry="11" style="stroke:#181818;stroke-width:1;"/><path d="M606.117,404.0469 L598.3983,404.0469 L598.3983,391.6563 L606.117,391.6563 L606.117,393.8125 L600.8514,393.8125 L600.8514,396.4844 L605.617,396.4844 L605.617,398.6406 L600.8514,398.6406 L600.8514,401.8906 L606.117,401.8906 L606.117,404.0469 Z " fill="#000000"/><text fill="#000000" font-family="sans-serif" font-size="14" lengthAdjust="spacing" textLength="63.4785" x="622.5077" y="402.8936">attempts</text><line style="stroke:#181818;stroke-width:0.5;" x1="533.91" x2="742.0838" y1="414.0469" y2="414.0469"/><text fill="#000000" font-family="sans-serif" font-size="14" lengthAdjust="spacing" textLength="108.3564" x="538.91" y="431.042">id : SERIAL [PK]</text><text fill="#000000" font-family="sans-serif" font-size="14" lengthAdjust="spacing" textLength="157.958" x="538.91" y="447.3389">user_id : INTEGER [FK]</text><text fill="#000000" font-family="sans-serif" font-size="14" lengthAdjust="spacing" textLength="160.9043" x="538.91" y="463.6357">total_points : NUMERIC</text><text fill="#000000" font-family="sans-serif" font-size="14" lengthAdjust="spacing" textLength="159.3936" x="538.91" y="479.9326">max_points : NUMERIC</text><text fill="#000000" font-family="sans-serif" font-size="14" lengthAdjust="spacing" textLength="143.6709" x="538.91" y="496.2295">difficulty : SMALLINT</text><text fill="#000000" font-family="sans-serif" font-size="14" lengthAdjust="spacing" textLength="198.1738" x="538.91" y="512.5264">duration_seconds : INTEGER</text><text fill="#000000" font-family="sans-serif" font-size="14" lengthAdjust="spacing" textLength="169.4629" x="538.91" y="528.8232">created_at : TIMESTAMP</text><line style="stroke:#181818;stroke-width:0.5;" x1="533.91" x2="742.0838" y1="536.125" y2="536.125"/><text fill="#000000" font-family="sans-serif" font-size="14" lengthAdjust="spacing" textLength="151.5664" x="538.91" y="553.1201">grade : VARCHAR(10)</text></g><!--class ATTEMPT_ANSWERS--><g class="entity" data-qualified-name="PostgreSQL Database. wissentest.ATTEMPT_ANSWERS" data-source-line="54" id="ent0008"><rect fill="#F1F1F1" height="129.4844" rx="2.5" ry="2.5" style="stroke:#181818;stroke-width:0.5;" width="201.6426" x="540.18" y="645.5769"/><ellipse cx="577.0494" cy="661.5769" fill="#ADD1B2" rx="11" ry="11" style="stroke:#181818;stroke-width:1;"/><path d="M581.1588,667.5769 L573.44,667.5769 L573.44,655.1863 L581.1588,655.1863 L581.1588,657.3425 L575.8931,657.3425 L575.8931,660.0144 L580.6588,660.0144 L580.6588,662.1706 L575.8931,662.1706 L575.8931,665.4206 L581.1588,665.4206 L581.1588,667.5769 Z " fill="#000000"/><text fill="#000000" font-family="sans-serif" font-size="14" lengthAdjust="spacing" textLength="121.0439" x="595.9092" y="666.4236">attempt_answers</text><line style="stroke:#181818;stroke-width:0.5;" x1="541.18" x2="740.8226" y1="677.5769" y2="677.5769"/><text fill="#000000" font-family="sans-serif" font-size="14" lengthAdjust="spacing" textLength="108.3564" x="546.18" y="694.572">id : SERIAL [PK]</text><text fill="#000000" font-family="sans-serif" font-size="14" lengthAdjust="spacing" textLength="183.6064" x="546.18" y="710.8689">attempt_id : INTEGER [FK]</text><text fill="#000000" font-family="sans-serif" font-size="14" lengthAdjust="spacing" textLength="187.9063" x="546.18" y="727.1657">question_id : INTEGER [FK]</text><text fill="#000000" font-family="sans-serif" font-size="14" lengthAdjust="spacing" textLength="145.2705" x="546.18" y="743.4626">given_answer : TEXT</text><text fill="#000000" font-family="sans-serif" font-size="14" lengthAdjust="spacing" textLength="189.6426" x="546.18" y="759.7595">points_awarded : NUMERIC</text><line style="stroke:#181818;stroke-width:0.5;" x1="541.18" x2="740.8226" y1="767.0613" y2="767.0613"/></g><!--class IMAGES--><g class="entity" data-qualified-name="PostgreSQL Database. wissentest.IMAGES" data-source-line="62" id="ent0009"><rect fill="#F1F1F1" height="113.1875" rx="2.5" ry="2.5" style="stroke:#181818;stroke-width:0.5;" width="223.627" x="296.19" y="151.1169"/><ellipse cx="344.5611" cy="167.1169" fill="#ADD1B2" rx="11" ry="11" style="stroke:#181818;stroke-width:1;"/><path d="M348.6705,173.1169 L340.9517,173.1169 L340.9517,160.7262 L348.6705,160.7262 L348.6705,162.8825 L343.4048,162.8825 L343.4048,165.5544 L348.1705,165.5544 L348.1705,167.7106 L343.4048,167.7106 L343.4048,170.9606 L348.6705,170.9606 L348.6705,173.1169 Z " fill="#000000"/><text fill="#000000" font-family="sans-serif" font-size="14" lengthAdjust="spacing" textLength="118.3848" x="365.0611" y="171.9636">question_images</text><line style="stroke:#181818;stroke-width:0.5;" x1="297.19" x2="518.817" y1="183.1169" y2="183.1169"/><text fill="#000000" font-family="sans-serif" font-size="14" lengthAdjust="spacing" textLength="108.3564" x="302.19" y="200.112">id : SERIAL [PK]</text><text fill="#000000" font-family="sans-serif" font-size="14" lengthAdjust="spacing" textLength="90.2822" x="302.19" y="216.4089">data : BYTEA</text><text fill="#000000" font-family="sans-serif" font-size="14" lengthAdjust="spacing" textLength="169.4629" x="302.19" y="232.7057">created_at : TIMESTAMP</text><line style="stroke:#181818;stroke-width:0.5;" x1="297.19" x2="518.817" y1="240.0075" y2="240.0075"/><text fill="#000000" font-family="sans-serif" font-size="14" lengthAdjust="spacing" textLength="211.627" x="302.19" y="257.0026">content_type : VARCHAR(128)</text></g><!--class CONFIG--><g class="entity" data-qualified-name="PostgreSQL Database. wissentest.CONFIG" data-source-line="69" id="ent0010"><rect fill="#F1F1F1" height="96.8906" rx="2.5" ry="2.5" style="stroke:#181818;stroke-width:0.5;" width="189.7549" x="555.12" y="159.2669"/><ellipse cx="624.327" cy="175.2669" fill="#ADD1B2" rx="11" ry="11" style="stroke:#181818;stroke-width:1;"/><path d="M628.4364,181.2669 L620.7177,181.2669 L620.7177,168.8763 L628.4364,168.8763 L628.4364,171.0325 L623.1708,171.0325 L623.1708,173.7044 L627.9364,173.7044 L627.9364,175.8606 L623.1708,175.8606 L623.1708,179.1106 L628.4364,179.1106 L628.4364,181.2669 Z " fill="#000000"/><text fill="#000000" font-family="sans-serif" font-size="14" lengthAdjust="spacing" textLength="42.8408" x="644.827" y="180.1136">config</text><line style="stroke:#181818;stroke-width:0.5;" x1="556.12" x2="743.8749" y1="191.2669" y2="191.2669"/><text fill="#000000" font-family="sans-serif" font-size="14" lengthAdjust="spacing" textLength="126.998" x="561.12" y="208.262">description : TEXT</text><line style="stroke:#181818;stroke-width:0.5;" x1="556.12" x2="743.8749" y1="215.5638" y2="215.5638"/><text fill="#000000" font-family="sans-serif" font-size="14" lengthAdjust="spacing" textLength="177.7549" x="561.12" y="232.5589">key : VARCHAR(128) [PK]</text><text fill="#000000" font-family="sans-serif" font-size="14" lengthAdjust="spacing" textLength="157.9922" x="561.12" y="248.8557">value : VARCHAR(255)</text></g><g class="entity" data-qualified-name="GMN17" data-source-line="85" id="ent0018"><path d="M779.62,164.8769 L779.62,250.5409 L970.3881,250.5409 L970.3881,174.8769 L960.3881,164.8769 L779.62,164.8769" fill="#FEFFDD" style="stroke:#181818;stroke-width:0.5;"/><path d="M960.3881,164.8769 L960.3881,174.8769 L970.3881,174.8769 L960.3881,164.8769" fill="#FEFFDD" style="stroke:#181818;stroke-width:1;"/><text fill="#000000" font-family="sans-serif" font-size="13" font-weight="bold" lengthAdjust="spacing" textLength="104.4761" x="785.62" y="181.9438">Users Tabelle:</text><text fill="#000000" font-family="sans-serif" font-size="13" lengthAdjust="spacing" textLength="169.7681" x="785.62" y="197.0766">- Speichert Sch&#252;ler/Admin</text><text fill="#000000" font-family="sans-serif" font-size="13" lengthAdjust="spacing" textLength="135.0527" x="785.62" y="212.2094">- Passwort gehashed</text><text fill="#000000" font-family="sans-serif" font-size="13" lengthAdjust="spacing" textLength="128.2354" x="785.62" y="227.3422">- Rollen-Verwaltung</text><text fill="#000000" font-family="sans-serif" font-size="13" lengthAdjust="spacing" textLength="141.9209" x="785.62" y="242.475">- Reset-Anfragen-Flag</text></g><g class="entity" data-qualified-name="GMN20" data-source-line="93" id="ent0021"><path d="M778.55,428.4069 L778.55,514.0709 L985.4411,514.0709 L985.4411,438.4069 L975.4411,428.4069 L778.55,428.4069" fill="#FEFFDD" style="stroke:#181818;stroke-width:0.5;"/><path d="M975.4411,428.4069 L975.4411,438.4069 L985.4411,438.4069 L975.4411,428.4069" fill="#FEFFDD" style="stroke:#181818;stroke-width:1;"/><text fill="#000000" font-family="sans-serif" font-size="13" font-weight="bold" lengthAdjust="spacing" textLength="136.6714" x="784.55" y="445.4738">Questions Tabelle:</text><text fill="#000000" font-family="sans-serif" font-size="13" lengthAdjust="spacing" textLength="107.2563" x="784.55" y="460.6066">- Alle Testfragen</text><text fill="#000000" font-family="sans-serif" font-size="13" lengthAdjust="spacing" textLength="185.8911" x="784.55" y="475.7394">- MC / CLOZE / FREE / IMAGE</text><text fill="#000000" font-family="sans-serif" font-size="13" lengthAdjust="spacing" textLength="121.5132" x="784.55" y="490.8722">- Schwierigkeit 1-3</text><text fill="#000000" font-family="sans-serif" font-size="13" lengthAdjust="spacing" textLength="127.6514" x="784.55" y="506.005">- Kategorie-Support</text></g><g class="entity" data-qualified-name="GMN23" data-source-line="101" id="ent0024"><path d="M777.2,675.0469 L777.2,745.5781 L984.8021,745.5781 L984.8021,685.0469 L974.8021,675.0469 L777.2,675.0469" fill="#FEFFDD" style="stroke:#181818;stroke-width:0.5;"/><path d="M974.8021,675.0469 L974.8021,685.0469 L984.8021,685.0469 L974.8021,675.0469" fill="#FEFFDD" style="stroke:#181818;stroke-width:1;"/><text fill="#000000" font-family="sans-serif" font-size="13" font-weight="bold" lengthAdjust="spacing" textLength="177.9248" x="783.2" y="692.1138">Answers (MC Optionen):</text><text fill="#000000" font-family="sans-serif" font-size="13" lengthAdjust="spacing" textLength="117.4253" x="783.2" y="707.2466">- Antwortoptionen</text><text fill="#000000" font-family="sans-serif" font-size="13" lengthAdjust="spacing" textLength="103.1812" x="783.2" y="722.3794">- is_correct Flag</text><text fill="#000000" font-family="sans-serif" font-size="13" lengthAdjust="spacing" textLength="186.6021" x="783.2" y="737.5122">- Partial-Value f&#252;r Teilpunkte</text></g><g class="entity" data-qualified-name="GMN26" data-source-line="108" id="ent0027"><path d="M1019.44,675.0469 L1019.44,745.5781 L1208.564,745.5781 L1208.564,685.0469 L1198.564,675.0469 L1019.44,675.0469" fill="#FEFFDD" style="stroke:#181818;stroke-width:0.5;"/><path d="M1198.564,675.0469 L1198.564,685.0469 L1208.564,685.0469 L1198.564,675.0469" fill="#FEFFDD" style="stroke:#181818;stroke-width:1;"/><text fill="#000000" font-family="sans-serif" font-size="13" font-weight="bold" lengthAdjust="spacing" textLength="101.2896" x="1025.44" y="692.1138">Cloze Tokens:</text><text fill="#000000" font-family="sans-serif" font-size="13" lengthAdjust="spacing" textLength="148.7319" x="1025.44" y="707.2466">- L&#252;ckentext-L&#246;sungen</text><text fill="#000000" font-family="sans-serif" font-size="13" lengthAdjust="spacing" textLength="166.6958" x="1025.44" y="722.3794">- Token-Index f&#252;r Position</text><text fill="#000000" font-family="sans-serif" font-size="13" lengthAdjust="spacing" textLength="168.124" x="1025.44" y="737.5122">- Expected-Text Vergleich</text></g><g class="entity" data-qualified-name="GMN29" data-source-line="115" id="ent0030"><path d="M1020.67,428.4069 L1020.67,514.0709 L1241.3292,514.0709 L1241.3292,438.4069 L1231.3292,428.4069 L1020.67,428.4069" fill="#FEFFDD" style="stroke:#181818;stroke-width:0.5;"/><path d="M1231.3292,428.4069 L1231.3292,438.4069 L1241.3292,438.4069 L1231.3292,428.4069" fill="#FEFFDD" style="stroke:#181818;stroke-width:1;"/><text fill="#000000" font-family="sans-serif" font-size="13" font-weight="bold" lengthAdjust="spacing" textLength="187.8271" x="1026.67" y="445.4738">Attempts (Testversuche):</text><text fill="#000000" font-family="sans-serif" font-size="13" lengthAdjust="spacing" textLength="194.3716" x="1026.67" y="460.6066">- Speichert jeden Testversuch</text><text fill="#000000" font-family="sans-serif" font-size="13" lengthAdjust="spacing" textLength="199.6592" x="1026.67" y="475.7394">- Gesamtpunkte &amp; Max-Punkte</text><text fill="#000000" font-family="sans-serif" font-size="13" lengthAdjust="spacing" textLength="118.7075" x="1026.67" y="490.8722">- Berechnete Note</text><text fill="#000000" font-family="sans-serif" font-size="13" lengthAdjust="spacing" textLength="114.2515" x="1026.67" y="506.005">- Dauer des Tests</text></g><g class="entity" data-qualified-name="GMN32" data-source-line="123" id="ent0033"><path d="M1243.88,675.0469 L1243.88,745.5781 L1460.1149,745.5781 L1460.1149,685.0469 L1450.1149,675.0469 L1243.88,675.0469" fill="#FEFFDD" style="stroke:#181818;stroke-width:0.5;"/><path d="M1450.1149,675.0469 L1450.1149,685.0469 L1460.1149,685.0469 L1450.1149,675.0469" fill="#FEFFDD" style="stroke:#181818;stroke-width:1;"/><text fill="#000000" font-family="sans-serif" font-size="13" font-weight="bold" lengthAdjust="spacing" textLength="132.9961" x="1249.88" y="692.1138">Attempt-Answers:</text><text fill="#000000" font-family="sans-serif" font-size="13" lengthAdjust="spacing" textLength="159.0405" x="1249.88" y="707.2466">- Detail zu jeder Antwort</text><text fill="#000000" font-family="sans-serif" font-size="13" lengthAdjust="spacing" textLength="195.2349" x="1249.88" y="722.3794">- Benutzer-Antwort vs. Punkte</text><text fill="#000000" font-family="sans-serif" font-size="13" lengthAdjust="spacing" textLength="166.2134" x="1249.88" y="737.5122">- F&#252;r Feedback &amp; Analyse</text></g><!--link USERS to QUESTIONS--><g class="link" data-entity-1="ent0003" data-entity-2="ent0004" data-link-type="crowfoot" data-source-line="77" id="lnk11"><path codeLine="77" d="M233.9166,302.9832 C257.9066,327.5732 265.9127,335.8004 290.3227,360.8304" fill="none" id="USERS-QUESTIONS" style="stroke:#181818;stroke-width:1;"/><line style="stroke:#181818;stroke-width:1;" x1="228.2601" x2="233.9864" y1="302.9133" y2="297.3267"/><line style="stroke:#181818;stroke-width:1;" x1="230.3551" x2="236.0814" y1="305.0607" y2="299.4741"/><line style="stroke:#181818;stroke-width:1;" x1="233.9166" x2="228.33" y1="302.9832" y2="297.2569"/><line style="stroke:#181818;stroke-width:1;" x1="297.3045" x2="307.1855" y1="367.9895" y2="369.5278"/><line style="stroke:#181818;stroke-width:1;" x1="297.3045" x2="298.5945" y1="367.9895" y2="377.906"/><line style="stroke:#181818;stroke-width:1;" x1="297.3045" x2="302.89" y1="367.9895" y2="373.7169"/><ellipse cx="293.1154" cy="363.694" fill="none" rx="4" ry="4" style="stroke:#181818;stroke-width:1;"/><text fill="#000000" font-family="sans-serif" font-size="13" lengthAdjust="spacing" textLength="48.3247" x="270" y="339.9638">creates</text></g><!--link USERS to ATTEMPTS--><g class="link" data-entity-1="ent0003" data-entity-2="ent0007" data-link-type="crowfoot" data-source-line="78" id="lnk12"><path codeLine="78" d="M268.7256,291.9089 C274.5256,294.9889 273.25,294.1669 279,296.8969 C378.65,344.2569 417.65,321.9869 515,373.8969 C520.86,377.0269 511.4336,370.9489 517.2536,374.5589" fill="none" id="USERS-ATTEMPTS" style="stroke:#181818;stroke-width:1;"/><line style="stroke:#181818;stroke-width:1;" x1="263.3168" x2="267.0688" y1="293.5657" y2="286.5001"/><line style="stroke:#181818;stroke-width:1;" x1="265.9663" x2="269.7184" y1="294.9727" y2="287.9071"/><line style="stroke:#181818;stroke-width:1;" x1="268.7256" x2="261.66" y1="291.9089" y2="288.1569"/><line style="stroke:#181818;stroke-width:1;" x1="525.7516" x2="535.7127" y1="379.83" y2="378.9481"/><line style="stroke:#181818;stroke-width:1;" x1="525.7516" x2="529.3873" y1="379.83" y2="389.1457"/><line style="stroke:#181818;stroke-width:1;" x1="525.7516" x2="532.55" y1="379.83" y2="384.0469"/><ellipse cx="520.6528" cy="376.6674" fill="none" rx="4" ry="4" style="stroke:#181818;stroke-width:1;"/><text fill="#000000" font-family="sans-serif" font-size="13" lengthAdjust="spacing" textLength="58.9063" x="440" y="339.9638">performs</text></g><!--link QUESTIONS to ANSWERS--><g class="link" data-entity-1="ent0004" data-entity-2="ent0005" data-link-type="crowfoot" data-source-line="79" id="lnk13"><path codeLine="79" d="M298.808,574.7859 C274.168,600.5259 266.1482,608.8952 243.6582,632.3852" fill="none" id="QUESTIONS-ANSWERS" style="stroke:#181818;stroke-width:1;"/><line style="stroke:#181818;stroke-width:1;" x1="298.6845" x2="304.4635" y1="569.1304" y2="574.6624"/><line style="stroke:#181818;stroke-width:1;" x1="296.61" x2="302.389" y1="571.2975" y2="576.8295"/><line style="stroke:#181818;stroke-width:1;" x1="298.808" x2="304.34" y1="574.7859" y2="569.0069"/><line style="stroke:#181818;stroke-width:1;" x1="236.7425" x2="235.5439" y1="639.6084" y2="649.5363"/><line style="stroke:#181818;stroke-width:1;" x1="236.7425" x2="226.8761" y1="639.6084" y2="641.2375"/><line style="stroke:#181818;stroke-width:1;" x1="236.7425" x2="231.21" y1="639.6084" y2="645.3869"/><ellipse cx="240.8919" cy="635.2745" fill="none" rx="4" ry="4" style="stroke:#181818;stroke-width:1;"/><text fill="#000000" font-family="sans-serif" font-size="13" lengthAdjust="spacing" textLength="22.9785" x="270" y="611.6438">has</text></g><!--link QUESTIONS to CLOZE--><g class="link" data-entity-1="ent0004" data-entity-2="ent0006" data-link-type="crowfoot" data-source-line="80" id="lnk14"><path codeLine="80" d="M400.5371,577.0024 C401.3971,602.7424 401.445,603.907 402.235,627.397" fill="none" id="QUESTIONS-CLOZE" style="stroke:#181818;stroke-width:1;"/><line style="stroke:#181818;stroke-width:1;" x1="396.4058" x2="404.4013" y1="573.1382" y2="572.8711"/><line style="stroke:#181818;stroke-width:1;" x1="396.506" x2="404.5015" y1="576.1365" y2="575.8694"/><line style="stroke:#181818;stroke-width:1;" x1="400.5371" x2="400.27" y1="577.0024" y2="569.0069"/><line style="stroke:#181818;stroke-width:1;" x1="402.5711" x2="408.8366" y1="637.3914" y2="645.1852"/><line style="stroke:#181818;stroke-width:1;" x1="402.5711" x2="396.8434" y1="637.3914" y2="645.5885"/><line style="stroke:#181818;stroke-width:1;" x1="402.5711" x2="402.84" y1="637.3914" y2="645.3869"/><ellipse cx="402.3694" cy="631.3948" fill="none" rx="4" ry="4" style="stroke:#181818;stroke-width:1;"/><text fill="#000000" font-family="sans-serif" font-size="13" lengthAdjust="spacing" textLength="22.9785" x="402" y="611.6438">has</text></g><!--link QUESTIONS to ATTEMPT_ANSWERS--><g class="link" data-entity-1="ent0004" data-entity-2="ent0008" data-link-type="crowfoot" data-source-line="81" id="lnk15"><path codeLine="81" d="M497.9312,574.3794 C513.7712,590.1394 524.44,600.5669 540,615.5769 C549.99,625.2069 547.4897,622.9851 557.9897,632.8151" fill="none" id="QUESTIONS-ATTEMPT_ANSWERS" style="stroke:#181818;stroke-width:1;"/><line style="stroke:#181818;stroke-width:1;" x1="492.2743" x2="497.9168" y1="574.3937" y2="568.7226"/><line style="stroke:#181818;stroke-width:1;" x1="494.401" x2="500.0435" y1="576.5097" y2="570.8385"/><line style="stroke:#181818;stroke-width:1;" x1="497.9312" x2="492.26" y1="574.3794" y2="568.7369"/><line style="stroke:#181818;stroke-width:1;" x1="565.2899" x2="575.2306" y1="639.6494" y2="640.7368"/><line style="stroke:#181818;stroke-width:1;" x1="565.2899" x2="567.0294" y1="639.6494" y2="649.497"/><line style="stroke:#181818;stroke-width:1;" x1="565.2899" x2="571.13" y1="639.6494" y2="645.1169"/><ellipse cx="560.9098" cy="635.5488" fill="none" rx="4" ry="4" style="stroke:#181818;stroke-width:1;"/><text fill="#000000" font-family="sans-serif" font-size="13" lengthAdjust="spacing" textLength="89.248" x="541" y="611.6438">referenced_in</text></g><!--link ATTEMPTS to ATTEMPT_ANSWERS--><g class="link" data-entity-1="ent0007" data-entity-2="ent0008" data-link-type="crowfoot" data-source-line="82" id="lnk16"><path codeLine="82" d="M639.2228,568.8562 C639.5828,596.8662 639.6311,601.2683 639.9611,627.2183" fill="none" id="ATTEMPTS-ATTEMPT_ANSWERS" style="stroke:#181818;stroke-width:1;"/><line style="stroke:#181818;stroke-width:1;" x1="635.1717" x2="643.1711" y1="564.908" y2="564.8051"/><line style="stroke:#181818;stroke-width:1;" x1="635.2103" x2="643.2096" y1="567.9077" y2="567.8049"/><line style="stroke:#181818;stroke-width:1;" x1="639.2228" x2="639.12" y1="568.8562" y2="560.8569"/><line style="stroke:#181818;stroke-width:1;" x1="640.0883" x2="646.1895" y1="637.2175" y2="645.1406"/><line style="stroke:#181818;stroke-width:1;" x1="640.0883" x2="634.1905" y1="637.2175" y2="645.2932"/><line style="stroke:#181818;stroke-width:1;" x1="640.0883" x2="640.19" y1="637.2175" y2="645.2169"/><ellipse cx="640.012" cy="631.218" fill="none" rx="4" ry="4" style="stroke:#181818;stroke-width:1;"/><text fill="#000000" font-family="sans-serif" font-size="13" lengthAdjust="spacing" textLength="55.0278" x="640" y="611.6438">contains</text></g><!--link USERS to GMN17--><g class="link" data-entity-1="ent0003" data-entity-2="ent0018" data-link-type="association" data-source-line="85" id="lnk19"><path d="M212.02,118.0669 C235.9,94.4469 264.71,72.2869 296.5,60.5269 C343.08,43.2969 696.92,43.2969 743.5,60.5269 C792.83,78.7769 830.28,128.0569 852.36,164.5969" fill="none" id="USERS-GMN17" style="stroke:#181818;stroke-width:1;stroke-dasharray:7,7;"/></g><!--link QUESTIONS to GMN20--><g class="link" data-entity-1="ent0004" data-entity-2="ent0021" data-link-type="association" data-source-line="93" id="lnk22"><path d="M474.67,373.4469 C491.93,357.9369 511.43,344.1469 532.5,335.3969 C619.12,299.4569 656.69,299.9369 743.5,335.3969 C789.18,354.0569 827.93,395.8469 852.73,428.1869" fill="none" id="QUESTIONS-GMN20" style="stroke:#181818;stroke-width:1;stroke-dasharray:7,7;"/></g><!--link ANSWERS to GMN23--><g class="link" data-entity-1="ent0005" data-entity-2="ent0024" data-link-type="association" data-source-line="101" id="lnk25"><path d="M237.67,645.2269 C257.93,629.6969 281.26,615.2569 305.5,607.0769 C397.72,575.9469 651.17,576.2669 743.5,607.0769 C783.43,620.3969 821.08,650.3569 846.86,674.5969" fill="none" id="ANSWERS-GMN23" style="stroke:#181818;stroke-width:1;stroke-dasharray:7,7;"/></g><!--link CLOZE to GMN26--><g class="link" data-entity-1="ent0006" data-entity-2="ent0027" data-link-type="association" data-source-line="108" id="lnk28"><path d="M472.67,645.2269 C492.93,629.6969 516.26,615.2569 540.5,607.0769 C633.98,575.5169 891.37,574.4869 984.5,607.0769 C1022.77,620.4569 1058.17,650.4169 1082.25,674.6369" fill="none" id="CLOZE-GMN26" style="stroke:#181818;stroke-width:1;stroke-dasharray:7,7;"/></g><!--link ATTEMPTS to GMN29--><g class="link" data-entity-1="ent0007" data-entity-2="ent0030" data-link-type="association" data-source-line="115" id="lnk31"><path d="M709.86,381.6869 C729.89,362.8669 753.18,345.6369 778.5,335.3969 C863.79,300.9169 899.91,301.6569 985.5,335.3969 C1032.6,353.9669 1073.44,395.7669 1099.76,428.1369" fill="none" id="ATTEMPTS-GMN29" style="stroke:#181818;stroke-width:1;stroke-dasharray:7,7;"/></g><!--link ATTEMPT_ANSWERS to GMN32--><g class="link" data-entity-1="ent0008" data-entity-2="ent0033" data-link-type="association" data-source-line="123" id="lnk34"><path d="M709.23,645.2269 C729.65,629.6869 753.13,615.2469 777.5,607.0769 C868.3,576.5969 1117.34,577.6869 1208.5,607.0769 C1249.69,620.3469 1289.04,650.3169 1316.08,674.5669" fill="none" id="ATTEMPT_ANSWERS-GMN32" style="stroke:#181818;stroke-width:1;stroke-dasharray:7,7;"/></g><?plantuml-src hLRRSjis47tdLs3qqDgUOPtOJQRZDqQYN4rqiqIxbqo70v4h2XK9CW1eIKxyMttoct-i2v0IALbAv4xveClk4dlsx04MYgaOI0koE5qbm9NTOZGID4c81omcbyGcBQg0JoYVssCbyhdAXMLbD9ZJ24XZc4eL2HZVT7KSdL09LsJ1fCIrGAe6-M8HVF0VKolIo2K8sI1KajknEngNNlsma5mHj7MSBlaq_FZNng5VuJG1TDyve-QlpkZaxPitfni_91I1LiwBT-ygPqQbNAGYz6TKphQ2tky9aZHMzJGNlrH18eth42ulQYwGe7m1dtEi67GT7mQ3hklqDn6102GnzAbUtklqtB7dz8R6_MW-jqWowx2K5qJTt69qPz0_YYorohQ8gbSfqYGp-TtVlOqrPDCf2_8Oy-AAFQVRxVGhRvOohYHwqEXUkwEg82mdIiMgbklzprKkbg0u_5mSxCkQaCcgMfnyQjSgUHrbbCl5MbbEV_pRaTfQC-sRYBquYfLz1SiNt37f1waG4AWzBS-eK8p6_ZsDSzsI_cqF0JGF5H34wGFuzJAQtS6VxlzKX4hdW7uUmd9Vcs6POH58zhugNra8LGfGPsKhFC_j3RsZz_atIr08OYF8EWhz97HvsFbjaUDn5swVBfLEmrnGmws48ENXtgtmEg4Mz6nrkcJ9VuLmryiSvki8LKJi7bLH87dHTSEbJnTKXEP8-qxRgtHwwnTrTNhEjNjKESWjpXZbxnvVzGCunF6YzzaVdklyH_8npPH5nUuQzDkTwngsEQnsCcz3NCj_xt4MWWm4opG1TI8VhKVB-f6C83OYaZEMIQiOV5-_sdRwfNQuNo4yKuniR8TizX16P22cgKWmf7fn7LQA1wDmrkq9ACwJW-vT4MAWW2a8u07ootZ3sW0v_8Rk8sKuk2oBfmg8OD5CaNHQJ7lavEpiLjy0Y4Sd4CTmTNQ6HfkCCs3138GYus3s_1I3E7V2X77Z71RZMP48z1I7q5X7ARxFxJiG2vpQEOyAgnx5jiEd0bN8xNPC8mjuI3IQNKmR2Wokc_NGtSNcu6-y34bLh6bilIOvBmaz9-sHgx-CsejgWjc20UQP0rFahNrfh1-BaSd07kTPXlKS15OIQc0vnJb1JZ3bm0WC-Ea66bUQcBIq6rjjA9dg2mRD4MxV6GrFdv-4kTrbEPzZzaCmJ7q6H5CF9-Bf8IBNkRlFJy5SN_AMoku-_oEn0oK24sTtpB0nkV2Eo3H2utNBMMDxUjPW-w9Oz_um6QNg2ZRAuK9ET4FkaPWSPNFwKaP_GmYSr8AC_neaJLHHDlc1zEZI7XOSQEy757imuu2-VbhQMZJ7in6tjrbBVW-blzMw0gnTjd0DiWLANrWVSWDIh9jOGk2vUW1XbqPoBtyYDOXjJMSR89pW_HihS3YDLx9guRy0?></g></svg>