<?plantuml 1.2026.2beta2?><svg xmlns="http://www.w3.org/2000/svg" xmlns:xlink="http://www.w3.org/1999/xlink" contentStyleType="text/css" data-diagram-type="DESCRIPTION" height="2323px" preserveAspectRatio="none" style="width:1285px;height:2323px;background:#FFFFFF;" version="1.1" viewBox="0 0 1285 2323" width="1285px" zoomAndPan="magnify"><title>Deployment-Diagramm Teil 4 - Build &amp; Deployment Pipeline</title><defs/><g><g class="title" data-source-line="1"><text fill="#000000" font-family="sans-serif" font-size="14" font-weight="bold" lengthAdjust="spacing" textLength="472.4863" x="399.5538" y="22.9951">Deployment-Diagramm Teil 4 - Build &amp; Deployment Pipeline</text></g><!--cluster Entwicklung--><g class="cluster" data-qualified-name="Entwicklung" data-source-line="3" id="ent0002"><path d="M8.5,44.6469 L105.8184,44.6469 A3.75,3.75 0 0 1 108.3184,47.1469 L115.3184,66.9438 L806.5,66.9438 A2.5,2.5 0 0 1 809,69.4438 L809,494.0869 A2.5,2.5 0 0 1 806.5,496.5869 L8.5,496.5869 A2.5,2.5 0 0 1 6,494.0869 L6,47.1469 A2.5,2.5 0 0 1 8.5,44.6469" fill="none" style="stroke:#000000;stroke-width:1.5;"/><line style="stroke:#000000;stroke-width:1.5;" x1="6" x2="115.3184" y1="66.9438" y2="66.9438"/><text fill="#000000" font-family="sans-serif" font-size="14" font-weight="bold" lengthAdjust="spacing" textLength="96.3184" x="10" y="59.642">Entwicklung</text></g><!--cluster SRC--><g class="cluster" data-qualified-name="Entwicklung.SRC" data-source-line="4" id="ent0003"><rect fill="none" height="368.94" rx="2.5" ry="2.5" style="stroke:#181818;stroke-width:1;" width="306" x="38" y="95.6469"/><polygon fill="none" points="327,100.6469,327,114.6469,339,114.6469,339,106.6469,333,100.6469,327,100.6469" style="stroke:#181818;stroke-width:1;"/><line style="stroke:#181818;stroke-width:1;" x1="333" x2="333" y1="100.6469" y2="106.6469"/><line style="stroke:#181818;stroke-width:1;" x1="339" x2="333" y1="106.6469" y2="106.6469"/><text fill="#000000" font-family="sans-serif" font-size="14" font-weight="bold" lengthAdjust="spacing" textLength="98.6494" x="141.6753" y="110.642">Source Code</text></g><!--cluster GIT--><g class="cluster" data-qualified-name="Entwicklung.GIT" data-source-line="10" id="ent0007"><rect fill="none" height="113.3" rx="2.5" ry="2.5" style="stroke:#181818;stroke-width:1;" width="393" x="384" y="351.2869"/><polygon fill="none" points="760,356.2869,760,370.2869,772,370.2869,772,362.2869,766,356.2869,760,356.2869" style="stroke:#181818;stroke-width:1;"/><line style="stroke:#181818;stroke-width:1;" x1="766" x2="766" y1="356.2869" y2="362.2869"/><line style="stroke:#181818;stroke-width:1;" x1="772" x2="766" y1="362.2869" y2="362.2869"/><text fill="#000000" font-family="sans-serif" font-size="14" font-weight="bold" lengthAdjust="spacing" textLength="113.2441" x="523.8779" y="366.282">Git Repository</text></g><!--cluster Build Prozess--><g class="cluster" data-qualified-name="Build Prozess" data-source-line="16" id="ent0010"><path d="M463.5,599.7269 L570.7236,599.7269 A3.75,3.75 0 0 1 573.2236,602.2269 L580.2236,622.0238 L850.5,622.0238 A2.5,2.5 0 0 1 853,624.5238 L853,1219.9669 A2.5,2.5 0 0 1 850.5,1222.4669 L463.5,1222.4669 A2.5,2.5 0 0 1 461,1219.9669 L461,602.2269 A2.5,2.5 0 0 1 463.5,599.7269" fill="none" style="stroke:#000000;stroke-width:1.5;"/><line style="stroke:#000000;stroke-width:1.5;" x1="461" x2="580.2236" y1="622.0238" y2="622.0238"/><text fill="#000000" font-family="sans-serif" font-size="14" font-weight="bold" lengthAdjust="spacing" textLength="106.2236" x="465" y="614.722">Build Prozess</text></g><!--cluster MAVEN--><g class="cluster" data-qualified-name="Build Prozess.MAVEN" data-source-line="17" id="ent0011"><rect fill="none" height="539.74" rx="2.5" ry="2.5" style="stroke:#181818;stroke-width:1;" width="328" x="493" y="650.7269"/><polygon fill="none" points="804,655.7269,804,669.7269,816,669.7269,816,661.7269,810,655.7269,804,655.7269" style="stroke:#181818;stroke-width:1;"/><line style="stroke:#181818;stroke-width:1;" x1="810" x2="810" y1="655.7269" y2="661.7269"/><line style="stroke:#181818;stroke-width:1;" x1="816" x2="810" y1="661.7269" y2="661.7269"/><text fill="#000000" font-family="sans-serif" font-size="14" font-weight="bold" lengthAdjust="spacing" textLength="51.9668" x="631.0166" y="665.722">Maven</text></g><!--cluster Build Artifacts--><g class="cluster" data-qualified-name="Build Artifacts" data-source-line="25" id="ent0016"><path d="M318.5,1271.4669 L432.7236,1271.4669 A3.75,3.75 0 0 1 435.2236,1273.9669 L442.2236,1293.7638 L743.5,1293.7638 A2.5,2.5 0 0 1 746,1296.2638 L746,1465.2669 A2.5,2.5 0 0 1 743.5,1467.7669 L318.5,1467.7669 A2.5,2.5 0 0 1 316,1465.2669 L316,1273.9669 A2.5,2.5 0 0 1 318.5,1271.4669" fill="none" style="stroke:#000000;stroke-width:1.5;"/><line style="stroke:#000000;stroke-width:1.5;" x1="316" x2="442.2236" y1="1293.7638" y2="1293.7638"/><text fill="#000000" font-family="sans-serif" font-size="14" font-weight="bold" lengthAdjust="spacing" textLength="113.2236" x="320" y="1286.462">Build Artifacts</text></g><!--cluster TARGET--><g class="cluster" data-qualified-name="Build Artifacts.TARGET" data-source-line="26" id="ent0017"><rect fill="none" height="113.3" rx="2.5" ry="2.5" style="stroke:#181818;stroke-width:1;" width="366" x="348" y="1322.4669"/><polygon fill="none" points="697,1327.4669,697,1341.4669,709,1341.4669,709,1333.4669,703,1327.4669,697,1327.4669" style="stroke:#181818;stroke-width:1;"/><line style="stroke:#181818;stroke-width:1;" x1="703" x2="703" y1="1327.4669" y2="1333.4669"/><line style="stroke:#181818;stroke-width:1;" x1="709" x2="703" y1="1333.4669" y2="1333.4669"/><text fill="#000000" font-family="sans-serif" font-size="14" font-weight="bold" lengthAdjust="spacing" textLength="130.4434" x="465.7783" y="1337.462">Target Directory</text></g><!--cluster Deployment--><g class="cluster" data-qualified-name="Deployment" data-source-line="32" id="ent0020"><path d="M460.5,1547.2869 L556.9229,1547.2869 A3.75,3.75 0 0 1 559.4229,1549.7869 L566.4229,1569.5838 L743.5,1569.5838 A2.5,2.5 0 0 1 746,1572.0838 L746,1813.0769 A2.5,2.5 0 0 1 743.5,1815.5769 L460.5,1815.5769 A2.5,2.5 0 0 1 458,1813.0769 L458,1549.7869 A2.5,2.5 0 0 1 460.5,1547.2869" fill="none" style="stroke:#000000;stroke-width:1.5;"/><line style="stroke:#000000;stroke-width:1.5;" x1="458" x2="566.4229" y1="1569.5838" y2="1569.5838"/><text fill="#000000" font-family="sans-serif" font-size="14" font-weight="bold" lengthAdjust="spacing" textLength="95.4229" x="462" y="1562.282">Deployment</text></g><!--cluster TOMCAT_DEPLOY--><g class="cluster" data-qualified-name="Deployment.TOMCAT_DEPLOY" data-source-line="33" id="ent0021"><polygon fill="none" points="490,1608.2869,500,1598.2869,714,1598.2869,714,1773.5769,704,1783.5769,490,1783.5769,490,1608.2869" style="stroke:#181818;stroke-width:1;"/><line style="stroke:#181818;stroke-width:1;" x1="704" x2="714" y1="1608.2869" y2="1598.2869"/><line style="stroke:#181818;stroke-width:1;" x1="490" x2="704" y1="1608.2869" y2="1608.2869"/><line style="stroke:#181818;stroke-width:1;" x1="704" x2="704" y1="1608.2869" y2="1783.5769"/><text fill="#000000" font-family="sans-serif" font-size="14" font-weight="bold" lengthAdjust="spacing" textLength="115.0762" x="540.4619" y="1624.282">Tomcat Server</text></g><!--cluster WEBAPPS--><g class="cluster" data-qualified-name="Deployment.TOMCAT_DEPLOY.WEBAPPS" data-source-line="34" id="ent0022"><rect fill="none" height="97.29" rx="2.5" ry="2.5" style="stroke:#181818;stroke-width:1;" width="152" x="522" y="1654.2869"/><polygon fill="none" points="657,1659.2869,657,1673.2869,669,1673.2869,669,1665.2869,663,1659.2869,657,1659.2869" style="stroke:#181818;stroke-width:1;"/><line style="stroke:#181818;stroke-width:1;" x1="663" x2="663" y1="1659.2869" y2="1665.2869"/><line style="stroke:#181818;stroke-width:1;" x1="669" x2="663" y1="1665.2869" y2="1665.2869"/><text fill="#000000" font-family="sans-serif" font-size="14" font-weight="bold" lengthAdjust="spacing" textLength="75.3867" x="560.3066" y="1669.282">webapps/</text></g><!--cluster Runtime--><g class="cluster" data-qualified-name="Runtime" data-source-line="40" id="ent0024"><path d="M333.5,1864.5769 L400.7881,1864.5769 A3.75,3.75 0 0 1 403.2881,1867.0769 L410.2881,1886.8738 L743.5,1886.8738 A2.5,2.5 0 0 1 746,1889.3738 L746,2313.5569 A2.5,2.5 0 0 1 743.5,2316.0569 L333.5,2316.0569 A2.5,2.5 0 0 1 331,2313.5569 L331,1867.0769 A2.5,2.5 0 0 1 333.5,1864.5769" fill="none" style="stroke:#000000;stroke-width:1.5;"/><line style="stroke:#000000;stroke-width:1.5;" x1="331" x2="410.2881" y1="1886.8738" y2="1886.8738"/><text fill="#000000" font-family="sans-serif" font-size="14" font-weight="bold" lengthAdjust="spacing" textLength="66.2881" x="335" y="1879.572">Runtime</text></g><!--cluster JVM--><g class="cluster" data-qualified-name="Runtime.JVM" data-source-line="41" id="ent0025"><polygon fill="none" points="363,1925.5769,373,1915.5769,714,1915.5769,714,2274.0569,704,2284.0569,363,2284.0569,363,1925.5769" style="stroke:#181818;stroke-width:1;"/><line style="stroke:#181818;stroke-width:1;" x1="704" x2="714" y1="1925.5769" y2="1915.5769"/><line style="stroke:#181818;stroke-width:1;" x1="363" x2="704" y1="1925.5769" y2="1925.5769"/><line style="stroke:#181818;stroke-width:1;" x1="704" x2="704" y1="1925.5769" y2="2284.0569"/><text fill="#000000" font-family="sans-serif" font-size="14" font-weight="bold" lengthAdjust="spacing" textLength="102.2588" x="483.3706" y="1941.572">JVM Instance</text></g><!--cluster Datenbank--><g class="cluster" data-qualified-name="Datenbank" data-source-line="48" id="ent0029"><path d="M772.5,2115.2569 L859.4688,2115.2569 A3.75,3.75 0 0 1 861.9688,2117.7569 L868.9688,2137.5538 L1018.5,2137.5538 A2.5,2.5 0 0 1 1021,2140.0538 L1021,2313.0569 A2.5,2.5 0 0 1 1018.5,2315.5569 L772.5,2315.5569 A2.5,2.5 0 0 1 770,2313.0569 L770,2117.7569 A2.5,2.5 0 0 1 772.5,2115.2569" fill="none" style="stroke:#000000;stroke-width:1.5;"/><line style="stroke:#000000;stroke-width:1.5;" x1="770" x2="868.9688" y1="2137.5538" y2="2137.5538"/><text fill="#000000" font-family="sans-serif" font-size="14" font-weight="bold" lengthAdjust="spacing" textLength="85.9688" x="774" y="2130.252">Datenbank</text></g><!--cluster PG--><g class="cluster" data-qualified-name="Datenbank.PG" data-source-line="49" id="ent0030"><polygon fill="none" points="802,2176.2569,812,2166.2569,989,2166.2569,989,2273.5569,979,2283.5569,802,2283.5569,802,2176.2569" style="stroke:#181818;stroke-width:1;"/><line style="stroke:#181818;stroke-width:1;" x1="979" x2="989" y1="2176.2569" y2="2166.2569"/><line style="stroke:#181818;stroke-width:1;" x1="802" x2="979" y1="2176.2569" y2="2176.2569"/><line style="stroke:#181818;stroke-width:1;" x1="979" x2="979" y1="2176.2569" y2="2283.5569"/><text fill="#000000" font-family="sans-serif" font-size="14" font-weight="bold" lengthAdjust="spacing" textLength="92.2305" x="845.3848" y="2192.252">PostgreSQL</text></g><!--entity JAVA--><g class="entity" data-qualified-name="Entwicklung.SRC.JAVA" data-source-line="5" id="ent0004"><rect fill="#F1F1F1" height="46.2969" rx="2.5" ry="2.5" style="stroke:#181818;stroke-width:0.5;" width="105.7617" x="62.12" y="138.6469"/><rect fill="#F1F1F1" height="10" style="stroke:#181818;stroke-width:0.5;" width="15" x="147.8817" y="143.6469"/><rect fill="#F1F1F1" height="2" style="stroke:#181818;stroke-width:0.5;" width="4" x="145.8817" y="145.6469"/><rect fill="#F1F1F1" height="2" style="stroke:#181818;stroke-width:0.5;" width="4" x="145.8817" y="149.6469"/><text fill="#000000" font-family="sans-serif" font-size="14" lengthAdjust="spacing" textLength="65.7617" x="77.12" y="171.642">Java Files</text></g><!--entity JSP_FILES--><g class="entity" data-qualified-name="Entwicklung.SRC.JSP_FILES" data-source-line="6" id="ent0005"><rect fill="#F1F1F1" height="46.2969" rx="2.5" ry="2.5" style="stroke:#181818;stroke-width:0.5;" width="97.6475" x="203.18" y="138.6469"/><rect fill="#F1F1F1" height="10" style="stroke:#181818;stroke-width:0.5;" width="15" x="280.8275" y="143.6469"/><rect fill="#F1F1F1" height="2" style="stroke:#181818;stroke-width:0.5;" width="4" x="278.8275" y="145.6469"/><rect fill="#F1F1F1" height="2" style="stroke:#181818;stroke-width:0.5;" width="4" x="278.8275" y="149.6469"/><text fill="#000000" font-family="sans-serif" font-size="14" lengthAdjust="spacing" textLength="57.6475" x="218.18" y="171.642">JSP Files</text></g><!--entity ASSETS--><g class="entity" data-qualified-name="Entwicklung.SRC.ASSETS" data-source-line="7" id="ent0006"><rect fill="#F1F1F1" height="46.2969" rx="2.5" ry="2.5" style="stroke:#181818;stroke-width:0.5;" width="121.4707" x="62.26" y="394.2869"/><rect fill="#F1F1F1" height="10" style="stroke:#181818;stroke-width:0.5;" width="15" x="163.7307" y="399.2869"/><rect fill="#F1F1F1" height="2" style="stroke:#181818;stroke-width:0.5;" width="4" x="161.7307" y="401.2869"/><rect fill="#F1F1F1" height="2" style="stroke:#181818;stroke-width:0.5;" width="4" x="161.7307" y="405.2869"/><text fill="#000000" font-family="sans-serif" font-size="14" lengthAdjust="spacing" textLength="81.4707" x="77.26" y="427.282">CSS/JS Files</text></g><!--entity MAIN--><g class="entity" data-qualified-name="Entwicklung.GIT.MAIN" data-source-line="11" id="ent0008"><rect fill="#F1F1F1" height="46.2969" rx="2.5" ry="2.5" style="stroke:#181818;stroke-width:0.5;" width="127.2539" x="408.37" y="394.2869"/><rect fill="#F1F1F1" height="10" style="stroke:#181818;stroke-width:0.5;" width="15" x="515.6239" y="399.2869"/><rect fill="#F1F1F1" height="2" style="stroke:#181818;stroke-width:0.5;" width="4" x="513.6239" y="401.2869"/><rect fill="#F1F1F1" height="2" style="stroke:#181818;stroke-width:0.5;" width="4" x="513.6239" y="405.2869"/><text fill="#000000" font-family="sans-serif" font-size="14" lengthAdjust="spacing" textLength="87.2539" x="423.37" y="427.282">Main Branch</text></g><!--entity FEATURES--><g class="entity" data-qualified-name="Entwicklung.GIT.FEATURES" data-source-line="12" id="ent0009"><rect fill="#F1F1F1" height="46.2969" rx="2.5" ry="2.5" style="stroke:#181818;stroke-width:0.5;" width="163.7168" x="570.14" y="394.2869"/><rect fill="#F1F1F1" height="10" style="stroke:#181818;stroke-width:0.5;" width="15" x="713.8568" y="399.2869"/><rect fill="#F1F1F1" height="2" style="stroke:#181818;stroke-width:0.5;" width="4" x="711.8568" y="401.2869"/><rect fill="#F1F1F1" height="2" style="stroke:#181818;stroke-width:0.5;" width="4" x="711.8568" y="405.2869"/><text fill="#000000" font-family="sans-serif" font-size="14" lengthAdjust="spacing" textLength="123.7168" x="585.14" y="427.282">Feature Branches</text></g><!--entity POM--><g class="entity" data-qualified-name="Build Prozess.MAVEN.POM" data-source-line="18" id="ent0012"><rect fill="#F1F1F1" height="46.2969" rx="2.5" ry="2.5" style="stroke:#181818;stroke-width:0.5;" width="101.3525" x="517.32" y="873.5769"/><rect fill="#F1F1F1" height="10" style="stroke:#181818;stroke-width:0.5;" width="15" x="598.6725" y="878.5769"/><rect fill="#F1F1F1" height="2" style="stroke:#181818;stroke-width:0.5;" width="4" x="596.6725" y="880.5769"/><rect fill="#F1F1F1" height="2" style="stroke:#181818;stroke-width:0.5;" width="4" x="596.6725" y="884.5769"/><text fill="#000000" font-family="sans-serif" font-size="14" lengthAdjust="spacing" textLength="61.3525" x="532.32" y="906.572">pom.xml</text></g><!--entity COMPILE--><g class="entity" data-qualified-name="Build Prozess.MAVEN.COMPILE" data-source-line="19" id="ent0013"><rect fill="#F1F1F1" height="46.2969" rx="2.5" ry="2.5" style="stroke:#181818;stroke-width:0.5;" width="143.5098" x="653.25" y="873.5769"/><rect fill="#F1F1F1" height="10" style="stroke:#181818;stroke-width:0.5;" width="15" x="776.7598" y="878.5769"/><rect fill="#F1F1F1" height="2" style="stroke:#181818;stroke-width:0.5;" width="4" x="774.7598" y="880.5769"/><rect fill="#F1F1F1" height="2" style="stroke:#181818;stroke-width:0.5;" width="4" x="774.7598" y="884.5769"/><text fill="#000000" font-family="sans-serif" font-size="14" lengthAdjust="spacing" textLength="103.5098" x="668.25" y="906.572">Compile Phase</text></g><!--entity TEST--><g class="entity" data-qualified-name="Build Prozess.MAVEN.TEST" data-source-line="20" id="ent0014"><rect fill="#F1F1F1" height="46.2969" rx="2.5" ry="2.5" style="stroke:#181818;stroke-width:0.5;" width="116.2002" x="656.9" y="996.8769"/><rect fill="#F1F1F1" height="10" style="stroke:#181818;stroke-width:0.5;" width="15" x="753.1002" y="1001.8769"/><rect fill="#F1F1F1" height="2" style="stroke:#181818;stroke-width:0.5;" width="4" x="751.1002" y="1003.8769"/><rect fill="#F1F1F1" height="2" style="stroke:#181818;stroke-width:0.5;" width="4" x="751.1002" y="1007.8769"/><text fill="#000000" font-family="sans-serif" font-size="14" lengthAdjust="spacing" textLength="76.2002" x="671.9" y="1029.872">Test Phase</text></g><!--entity PACKAGE--><g class="entity" data-qualified-name="Build Prozess.MAVEN.PACKAGE" data-source-line="21" id="ent0015"><rect fill="#F1F1F1" height="46.2969" rx="2.5" ry="2.5" style="stroke:#181818;stroke-width:0.5;" width="145.1572" x="633.42" y="1120.1769"/><rect fill="#F1F1F1" height="10" style="stroke:#181818;stroke-width:0.5;" width="15" x="758.5772" y="1125.1769"/><rect fill="#F1F1F1" height="2" style="stroke:#181818;stroke-width:0.5;" width="4" x="756.5772" y="1127.1769"/><rect fill="#F1F1F1" height="2" style="stroke:#181818;stroke-width:0.5;" width="4" x="756.5772" y="1131.1769"/><text fill="#000000" font-family="sans-serif" font-size="14" lengthAdjust="spacing" textLength="105.1572" x="648.42" y="1153.172">Package Phase</text></g><!--entity WAR_FILE--><g class="entity" data-qualified-name="Build Artifacts.TARGET.WAR_FILE" data-source-line="27" id="ent0018"><rect fill="#F1F1F1" height="46.2969" rx="2.5" ry="2.5" style="stroke:#181818;stroke-width:0.5;" width="144.5352" x="371.73" y="1365.4669"/><rect fill="#F1F1F1" height="10" style="stroke:#181818;stroke-width:0.5;" width="15" x="496.2652" y="1370.4669"/><rect fill="#F1F1F1" height="2" style="stroke:#181818;stroke-width:0.5;" width="4" x="494.2652" y="1372.4669"/><rect fill="#F1F1F1" height="2" style="stroke:#181818;stroke-width:0.5;" width="4" x="494.2652" y="1376.4669"/><text fill="#000000" font-family="sans-serif" font-size="14" lengthAdjust="spacing" textLength="104.5352" x="386.73" y="1398.462">wissentest.war</text></g><!--entity TEST_RESULTS--><g class="entity" data-qualified-name="Build Artifacts.TARGET.TEST_RESULTS" data-source-line="28" id="ent0019"><rect fill="#F1F1F1" height="46.2969" rx="2.5" ry="2.5" style="stroke:#181818;stroke-width:0.5;" width="119.1465" x="551.43" y="1365.4669"/><rect fill="#F1F1F1" height="10" style="stroke:#181818;stroke-width:0.5;" width="15" x="650.5765" y="1370.4669"/><rect fill="#F1F1F1" height="2" style="stroke:#181818;stroke-width:0.5;" width="4" x="648.5765" y="1372.4669"/><rect fill="#F1F1F1" height="2" style="stroke:#181818;stroke-width:0.5;" width="4" x="648.5765" y="1376.4669"/><text fill="#000000" font-family="sans-serif" font-size="14" lengthAdjust="spacing" textLength="79.1465" x="566.43" y="1398.462">test-results</text></g><!--entity CONTEXT--><g class="entity" data-qualified-name="Deployment.TOMCAT_DEPLOY.WEBAPPS.CONTEXT" data-source-line="35" id="ent0023"><rect fill="#F1F1F1" height="46.2969" rx="2.5" ry="2.5" style="stroke:#181818;stroke-width:0.5;" width="119.8301" x="538.08" y="1689.2869"/><rect fill="#F1F1F1" height="10" style="stroke:#181818;stroke-width:0.5;" width="15" x="637.9101" y="1694.2869"/><rect fill="#F1F1F1" height="2" style="stroke:#181818;stroke-width:0.5;" width="4" x="635.9101" y="1696.2869"/><rect fill="#F1F1F1" height="2" style="stroke:#181818;stroke-width:0.5;" width="4" x="635.9101" y="1700.2869"/><text fill="#000000" font-family="sans-serif" font-size="14" lengthAdjust="spacing" textLength="79.8301" x="553.08" y="1722.282">wiskentest/</text></g><!--entity LOADER--><g class="entity" data-qualified-name="Runtime.JVM.LOADER" data-source-line="42" id="ent0026"><rect fill="#F1F1F1" height="46.2969" rx="2.5" ry="2.5" style="stroke:#181818;stroke-width:0.5;" width="125.0322" x="387.48" y="1963.5769"/><rect fill="#F1F1F1" height="10" style="stroke:#181818;stroke-width:0.5;" width="15" x="492.5122" y="1968.5769"/><rect fill="#F1F1F1" height="2" style="stroke:#181818;stroke-width:0.5;" width="4" x="490.5122" y="1970.5769"/><rect fill="#F1F1F1" height="2" style="stroke:#181818;stroke-width:0.5;" width="4" x="490.5122" y="1974.5769"/><text fill="#000000" font-family="sans-serif" font-size="14" lengthAdjust="spacing" textLength="85.0322" x="402.48" y="1996.572">ClassLoader</text></g><!--entity THREADS--><g class="entity" data-qualified-name="Runtime.JVM.THREADS" data-source-line="43" id="ent0027"><rect fill="#F1F1F1" height="46.2969" rx="2.5" ry="2.5" style="stroke:#181818;stroke-width:0.5;" width="123.1729" x="547.41" y="1963.5769"/><rect fill="#F1F1F1" height="10" style="stroke:#181818;stroke-width:0.5;" width="15" x="650.5829" y="1968.5769"/><rect fill="#F1F1F1" height="2" style="stroke:#181818;stroke-width:0.5;" width="4" x="648.5829" y="1970.5769"/><rect fill="#F1F1F1" height="2" style="stroke:#181818;stroke-width:0.5;" width="4" x="648.5829" y="1974.5769"/><text fill="#000000" font-family="sans-serif" font-size="14" lengthAdjust="spacing" textLength="83.1729" x="562.41" y="1996.572">Thread Pool</text></g><!--entity HEAP--><g class="entity" data-qualified-name="Runtime.JVM.HEAP" data-source-line="44" id="ent0028"><rect fill="#F1F1F1" height="46.2969" rx="2.5" ry="2.5" style="stroke:#181818;stroke-width:0.5;" width="137.9932" x="387" y="2213.7569"/><rect fill="#F1F1F1" height="10" style="stroke:#181818;stroke-width:0.5;" width="15" x="504.9932" y="2218.7569"/><rect fill="#F1F1F1" height="2" style="stroke:#181818;stroke-width:0.5;" width="4" x="502.9932" y="2220.7569"/><rect fill="#F1F1F1" height="2" style="stroke:#181818;stroke-width:0.5;" width="4" x="502.9932" y="2224.7569"/><text fill="#000000" font-family="sans-serif" font-size="14" lengthAdjust="spacing" textLength="97.9932" x="402" y="2246.752">Memory Heap</text></g><!--entity PG_DB--><g class="entity" data-qualified-name="Datenbank.PG.PG_DB" data-source-line="50" id="ent0031"><path d="M826.43,2224.2569 C826.43,2214.2569 885.9974,2214.2569 885.9974,2214.2569 C885.9974,2214.2569 945.5648,2214.2569 945.5648,2224.2569 L945.5648,2249.5538 C945.5648,2259.5538 885.9974,2259.5538 885.9974,2259.5538 C885.9974,2259.5538 826.43,2259.5538 826.43,2249.5538 L826.43,2224.2569" fill="#F1F1F1" style="stroke:#181818;stroke-width:0.5;"/><path d="M826.43,2224.2569 C826.43,2234.2569 885.9974,2234.2569 885.9974,2234.2569 C885.9974,2234.2569 945.5648,2234.2569 945.5648,2224.2569" fill="none" style="stroke:#181818;stroke-width:0.5;"/><text fill="#000000" font-family="sans-serif" font-size="14" lengthAdjust="spacing" textLength="99.1348" x="836.43" y="2251.252">wissentest DB</text></g><g class="entity" data-qualified-name="GMN41" data-source-line="68" id="ent0042"><path d="M824.95,43.2969 L824.95,280.2891 L1009.0467,280.2891 L1009.0467,53.2969 L999.0467,43.2969 L824.95,43.2969" fill="#FEFFDD" style="stroke:#181818;stroke-width:0.5;"/><path d="M999.0467,43.2969 L999.0467,53.2969 L1009.0467,53.2969 L999.0467,43.2969" fill="#FEFFDD" style="stroke:#181818;stroke-width:1;"/><text fill="#000000" font-family="sans-serif" font-size="13" font-weight="bold" lengthAdjust="spacing" textLength="163.0967" x="830.95" y="60.3638">Source Code Struktur:</text><text fill="#000000" font-family="sans-serif" font-size="13" lengthAdjust="spacing" textLength="4.1323" x="830.95" y="75.4966">&#160;</text><text fill="#000000" font-family="sans-serif" font-size="13" lengthAdjust="spacing" textLength="92.1235" x="830.95" y="90.6294">src/main/java/</text><text fill="#000000" font-family="sans-serif" font-size="13" lengthAdjust="spacing" textLength="61.5913" x="839.2146" y="105.7622">- Servlets</text><text fill="#000000" font-family="sans-serif" font-size="13" lengthAdjust="spacing" textLength="63.6416" x="839.2146" y="120.895">- Services</text><text fill="#000000" font-family="sans-serif" font-size="13" lengthAdjust="spacing" textLength="44.7319" x="839.2146" y="136.0278">- DAOs</text><text fill="#000000" font-family="sans-serif" font-size="13" lengthAdjust="spacing" textLength="54.6279" x="839.2146" y="151.1606">- Models</text><text fill="#000000" font-family="sans-serif" font-size="13" lengthAdjust="spacing" textLength="4.1323" x="830.95" y="166.2935">&#160;</text><text fill="#000000" font-family="sans-serif" font-size="13" lengthAdjust="spacing" textLength="116.2383" x="830.95" y="181.4263">src/main/webapp/</text><text fill="#000000" font-family="sans-serif" font-size="13" lengthAdjust="spacing" textLength="62.353" x="839.2146" y="196.5591">- JSP Files</text><text fill="#000000" font-family="sans-serif" font-size="13" lengthAdjust="spacing" textLength="50.8701" x="839.2146" y="211.6919">- CSS/JS</text><text fill="#000000" font-family="sans-serif" font-size="13" lengthAdjust="spacing" textLength="123.8999" x="839.2146" y="226.8247">- WEB-INF/web.xml</text><text fill="#000000" font-family="sans-serif" font-size="13" lengthAdjust="spacing" textLength="4.1323" x="830.95" y="241.9575">&#160;</text><text fill="#000000" font-family="sans-serif" font-size="13" lengthAdjust="spacing" textLength="84.6079" x="830.95" y="257.0903">src/test/java/</text><text fill="#000000" font-family="sans-serif" font-size="13" lengthAdjust="spacing" textLength="77.835" x="839.2146" y="272.2231">- JUnit Tests</text></g><g class="entity" data-qualified-name="GMN44" data-source-line="86" id="ent0045"><path d="M869.37,559.5869 L869.37,796.5791 L1054.6283,796.5791 L1054.6283,569.5869 L1044.6283,559.5869 L869.37,559.5869" fill="#FEFFDD" style="stroke:#181818;stroke-width:0.5;"/><path d="M1044.6283,559.5869 L1044.6283,569.5869 L1054.6283,569.5869 L1044.6283,559.5869" fill="#FEFFDD" style="stroke:#181818;stroke-width:1;"/><text fill="#000000" font-family="sans-serif" font-size="13" font-weight="bold" lengthAdjust="spacing" textLength="164.2583" x="875.37" y="576.6538">Maven Build Lifecycle:</text><text fill="#000000" font-family="sans-serif" font-size="13" lengthAdjust="spacing" textLength="4.1323" x="875.37" y="591.7866">&#160;</text><text fill="#000000" font-family="sans-serif" font-size="13" lengthAdjust="spacing" textLength="69.9321" x="875.37" y="606.9194">1. Validate</text><text fill="#000000" font-family="sans-serif" font-size="13" lengthAdjust="spacing" textLength="69.7036" x="875.37" y="622.0522">2. Compile</text><text fill="#000000" font-family="sans-serif" font-size="13" lengthAdjust="spacing" textLength="88.918" x="875.37" y="637.185">3. Test (JUnit)</text><text fill="#000000" font-family="sans-serif" font-size="13" lengthAdjust="spacing" textLength="116.2891" x="875.37" y="652.3178">4. Package (WAR)</text><text fill="#000000" font-family="sans-serif" font-size="13" lengthAdjust="spacing" textLength="54.6533" x="875.37" y="667.4506">5. Verify</text><text fill="#000000" font-family="sans-serif" font-size="13" lengthAdjust="spacing" textLength="55.6689" x="875.37" y="682.5835">6. Install</text><text fill="#000000" font-family="sans-serif" font-size="13" lengthAdjust="spacing" textLength="62.0547" x="875.37" y="697.7163">7. Deploy</text><text fill="#000000" font-family="sans-serif" font-size="13" lengthAdjust="spacing" textLength="4.1323" x="875.37" y="712.8491">&#160;</text><text fill="#000000" font-family="sans-serif" font-size="13" font-weight="bold" lengthAdjust="spacing" textLength="121.1196" x="875.37" y="727.9819">Abh&#228;ngigkeiten:</text><text fill="#000000" font-family="sans-serif" font-size="13" lengthAdjust="spacing" textLength="79.5171" x="875.37" y="743.1147">- Servlet API</text><text fill="#000000" font-family="sans-serif" font-size="13" lengthAdjust="spacing" textLength="127.9434" x="875.37" y="758.2475">- PostgreSQL Driver</text><text fill="#000000" font-family="sans-serif" font-size="13" lengthAdjust="spacing" textLength="51.5239" x="875.37" y="773.3803">- JUnit 5</text><text fill="#000000" font-family="sans-serif" font-size="13" lengthAdjust="spacing" textLength="63.5781" x="875.37" y="788.5131">- HikariCP</text></g><g class="entity" data-qualified-name="GMN47" data-source-line="104" id="ent0048"><path d="M761.94,1307.9569 L761.94,1469.285 L1002.0611,1469.285 L1002.0611,1317.9569 L992.0611,1307.9569 L761.94,1307.9569" fill="#FEFFDD" style="stroke:#181818;stroke-width:0.5;"/><path d="M992.0611,1307.9569 L992.0611,1317.9569 L1002.0611,1317.9569 L992.0611,1307.9569" fill="#FEFFDD" style="stroke:#181818;stroke-width:1;"/><text fill="#000000" font-family="sans-serif" font-size="13" font-weight="bold" lengthAdjust="spacing" textLength="98.4014" x="767.94" y="1325.0238">Build Output:</text><text fill="#000000" font-family="sans-serif" font-size="13" lengthAdjust="spacing" textLength="4.1323" x="767.94" y="1340.1566">&#160;</text><text fill="#000000" font-family="sans-serif" font-size="13" lengthAdjust="spacing" textLength="97.0684" x="767.94" y="1355.2894">wissentest.war</text><text fill="#000000" font-family="sans-serif" font-size="13" lengthAdjust="spacing" textLength="172.085" x="767.94" y="1370.4222">- Alle kompilierten Classes</text><text fill="#000000" font-family="sans-serif" font-size="13" lengthAdjust="spacing" textLength="136.8936" x="767.94" y="1385.555">- JAR Abh&#228;ngigkeiten</text><text fill="#000000" font-family="sans-serif" font-size="13" lengthAdjust="spacing" textLength="62.353" x="767.94" y="1400.6878">- JSP Files</text><text fill="#000000" font-family="sans-serif" font-size="13" lengthAdjust="spacing" textLength="92.4346" x="767.94" y="1415.8206">- Static Assets</text><text fill="#000000" font-family="sans-serif" font-size="13" lengthAdjust="spacing" textLength="219.1211" x="767.94" y="1430.9535">- web.xml Deployment Descriptor</text><text fill="#000000" font-family="sans-serif" font-size="13" lengthAdjust="spacing" textLength="4.1323" x="767.94" y="1446.0863">&#160;</text><text fill="#000000" font-family="sans-serif" font-size="13" lengthAdjust="spacing" textLength="129.2764" x="767.94" y="1461.2191">Gr&#246;&#223;e: ~50-100 MB</text></g><g class="entity" data-qualified-name="GMN50" data-source-line="117" id="ent0051"><path d="M761.63,1646.8969 L761.63,1777.9594 L1006.3658,1777.9594 L1006.3658,1656.8969 L996.3658,1646.8969 L761.63,1646.8969" fill="#FEFFDD" style="stroke:#181818;stroke-width:0.5;"/><path d="M996.3658,1646.8969 L996.3658,1656.8969 L1006.3658,1656.8969 L996.3658,1646.8969" fill="#FEFFDD" style="stroke:#181818;stroke-width:1;"/><text fill="#000000" font-family="sans-serif" font-size="13" font-weight="bold" lengthAdjust="spacing" textLength="154.394" x="767.63" y="1663.9638">Tomcat Auto-Deploy:</text><text fill="#000000" font-family="sans-serif" font-size="13" lengthAdjust="spacing" textLength="4.1323" x="767.63" y="1679.0966">&#160;</text><text fill="#000000" font-family="sans-serif" font-size="13" lengthAdjust="spacing" textLength="190.9946" x="767.63" y="1694.2294">1. WAR in webapps/ kopieren</text><text fill="#000000" font-family="sans-serif" font-size="13" lengthAdjust="spacing" textLength="158.6978" x="767.63" y="1709.3622">2. Tomcat erkennt Datei</text><text fill="#000000" font-family="sans-serif" font-size="13" lengthAdjust="spacing" textLength="173.1577" x="767.63" y="1724.495">3. Unpacks wissentest.war</text><text fill="#000000" font-family="sans-serif" font-size="13" lengthAdjust="spacing" textLength="223.7358" x="767.63" y="1739.6278">4. Erstellt /wiskentest/ Verzeichnis</text><text fill="#000000" font-family="sans-serif" font-size="13" lengthAdjust="spacing" textLength="216.1694" x="767.63" y="1754.7606">5. L&#228;dt Klassen &#252;ber ClassLoader</text><text fill="#000000" font-family="sans-serif" font-size="13" lengthAdjust="spacing" textLength="176.5854" x="767.63" y="1769.8935">6. Application ist verf&#252;gbar</text></g><g class="entity" data-qualified-name="GMN53" data-source-line="128" id="ent0054"><path d="M895.4,1921.1969 L895.4,2052.2594 L1156.6017,2052.2594 L1156.6017,1931.1969 L1146.6017,1921.1969 L895.4,1921.1969" fill="#FEFFDD" style="stroke:#181818;stroke-width:0.5;"/><path d="M1146.6017,1921.1969 L1146.6017,1931.1969 L1156.6017,1931.1969 L1146.6017,1921.1969" fill="#FEFFDD" style="stroke:#181818;stroke-width:1;"/><text fill="#000000" font-family="sans-serif" font-size="13" font-weight="bold" lengthAdjust="spacing" textLength="138.5313" x="901.4" y="1938.2638">JVM Konfiguration:</text><text fill="#000000" font-family="sans-serif" font-size="13" lengthAdjust="spacing" textLength="4.1323" x="901.4" y="1953.3966">&#160;</text><text fill="#000000" font-family="sans-serif" font-size="13" lengthAdjust="spacing" textLength="240.2017" x="901.4" y="1968.5294">JAVA_OPTS="-Xms256m -Xmx512m"</text><text fill="#000000" font-family="sans-serif" font-size="13" lengthAdjust="spacing" textLength="4.1323" x="901.4" y="1983.6622">&#160;</text><text fill="#000000" font-family="sans-serif" font-size="13" lengthAdjust="spacing" textLength="127.6069" x="901.4" y="1998.795">- Min Heap: 256 MB</text><text fill="#000000" font-family="sans-serif" font-size="13" lengthAdjust="spacing" textLength="131.4155" x="901.4" y="2013.9278">- Max Heap: 512 MB</text><text fill="#000000" font-family="sans-serif" font-size="13" lengthAdjust="spacing" textLength="135.7573" x="901.4" y="2029.0606">- GC: Default (G1GC)</text><text fill="#000000" font-family="sans-serif" font-size="13" lengthAdjust="spacing" textLength="183.7964" x="901.4" y="2044.1935">- Threads: Pool f&#252;r Requests</text></g><g class="entity" data-qualified-name="GMN56" data-source-line="139" id="ent0057"><path d="M1037.4,2186.5069 L1037.4,2287.3038 L1278.5938,2287.3038 L1278.5938,2196.5069 L1268.5938,2186.5069 L1037.4,2186.5069" fill="#FEFFDD" style="stroke:#181818;stroke-width:0.5;"/><path d="M1268.5938,2186.5069 L1268.5938,2196.5069 L1278.5938,2196.5069 L1268.5938,2186.5069" fill="#FEFFDD" style="stroke:#181818;stroke-width:1;"/><text fill="#000000" font-family="sans-serif" font-size="13" font-weight="bold" lengthAdjust="spacing" textLength="208.9902" x="1043.4" y="2203.5738">Gesamter Deployment-Flow:</text><text fill="#000000" font-family="sans-serif" font-size="13" lengthAdjust="spacing" textLength="4.1323" x="1043.4" y="2218.7066">&#160;</text><text fill="#000000" font-family="sans-serif" font-size="13" lengthAdjust="spacing" textLength="220.1938" x="1043.4" y="2233.8394">Code &#8594; Git &#8594; Maven Build &#8594; WAR</text><text fill="#000000" font-family="sans-serif" font-size="13" lengthAdjust="spacing" textLength="191.4199" x="1043.4" y="2248.9722">&#8594; Tomcat Auto-Deploy &#8594; JVM</text><text fill="#000000" font-family="sans-serif" font-size="13" lengthAdjust="spacing" textLength="165.7754" x="1043.4" y="2264.105">&#8594; Datenbank Verbindung</text><text fill="#000000" font-family="sans-serif" font-size="13" lengthAdjust="spacing" textLength="123.5508" x="1043.4" y="2279.2378">&#8594; Application Live!</text></g><!--link SRC to GIT--><g class="link" data-entity-1="ent0003" data-entity-2="ent0007" data-link-type="dependency" data-source-line="55" id="lnk32"><path d="M344.2436,163.5316 C345.8875,163.6945 347.7626,163.8878 349.8559,164.1149 C358.2292,165.023 370.0931,166.4707 384.6056,168.6702 C413.6306,173.0691 453.25,180.475 496.7275,192.5856 C583.6825,216.8069 686.07,259.8469 750,335.2869 C752.9,338.7094 755.3763,342.493 757.4888,346.5 C758.017,347.5018 758.5224,348.5175 759.0061,349.5451 C759.2479,350.0588 757.0457,345.0934 757.2768,345.6128" fill="none" id="SRC-to-GIT" style="stroke:#181818;stroke-width:1;"/><polygon fill="#181818" points="759.7153,351.095,759.7123,341.2461,757.6832,346.5265,752.4028,344.4974,759.7153,351.095" style="stroke:#181818;stroke-width:1;"/><text fill="#000000" font-family="sans-serif" font-size="13" lengthAdjust="spacing" textLength="31.0908" x="744" y="323.3538">Push</text></g><!--link GIT to MAVEN--><g class="link" data-entity-1="ent0007" data-entity-2="ent0011" data-link-type="dependency" data-source-line="56" id="lnk33"><path d="M769,464.6111 C769,466.1768 769,467.7707 769,469.391 C769,472.6317 769,475.9777 769,479.4141 C769,486.2868 769,493.5209 769,500.996 C769,515.946 769,531.8597 769,547.7731 C769,579.6 769,611.4259 769,635.5402 C769,638.5544 769,641.4482 769,644.2064 C769,645.5856 769,646.9308 769,648.2402 C769,648.895 769,649.5407 769,650.1773 C769,650.3365 769,644.4951 769,644.6531" fill="none" id="GIT-to-MAVEN" style="stroke:#181818;stroke-width:1;"/><polygon fill="#181818" points="769,650.6531,773,641.6531,769,645.6531,765,641.6531,769,650.6531" style="stroke:#181818;stroke-width:1;"/><text fill="#000000" font-family="sans-serif" font-size="13" lengthAdjust="spacing" textLength="79.8789" x="770" y="525.6538">Maven Build</text></g><!--link MAVEN to COMPILE--><g class="link" data-entity-1="ent0011" data-entity-2="ent0013" data-link-type="dependency" data-source-line="58" id="lnk34"><path d="M768.97,679.2369 C767.91,684.4669 741.815,812.9571 730.765,867.3271" fill="none" id="MAVEN-to-COMPILE" style="stroke:#181818;stroke-width:1;"/><polygon fill="#181818" points="729.57,873.2069,735.2824,865.1838,730.5658,868.307,727.4426,863.5905,729.57,873.2069" style="stroke:#181818;stroke-width:1;"/><text fill="#000000" font-family="sans-serif" font-size="13" lengthAdjust="spacing" textLength="86.3027" x="740" y="839.6438">Kompilierung</text></g><!--link COMPILE to TEST--><g class="link" data-entity-1="ent0013" data-entity-2="ent0014" data-link-type="dependency" data-source-line="59" id="lnk35"><path d="M723.14,920.2569 C721.35,942.0469 719.1321,968.8871 717.3421,990.6371" fill="none" id="COMPILE-to-TEST" style="stroke:#181818;stroke-width:1;"/><polygon fill="#181818" points="716.85,996.6169,721.5747,987.9753,717.2601,991.6337,713.6017,987.3191,716.85,996.6169" style="stroke:#181818;stroke-width:1;"/><text fill="#000000" font-family="sans-serif" font-size="13" lengthAdjust="spacing" textLength="65.1777" x="722" y="962.9438">Unit Tests</text></g><!--link TEST to PACKAGE--><g class="link" data-entity-1="ent0014" data-entity-2="ent0015" data-link-type="dependency" data-source-line="60" id="lnk36"><path d="M713.33,1043.5569 C711.71,1065.3469 709.7257,1092.1834 708.1057,1113.9334" fill="none" id="TEST-to-PACKAGE" style="stroke:#181818;stroke-width:1;"/><polygon fill="#181818" points="707.66,1119.9169,712.3174,1111.2388,708.0314,1114.9307,704.3395,1110.6446,707.66,1119.9169" style="stroke:#181818;stroke-width:1;"/><text fill="#000000" font-family="sans-serif" font-size="13" lengthAdjust="spacing" textLength="89.6099" x="713" y="1086.2438">Package WAR</text></g><!--link PACKAGE to TARGET--><g class="link" data-entity-1="ent0015" data-entity-2="ent0017" data-link-type="dependency" data-source-line="61" id="lnk37"><path d="M706,1166.7769 C706,1196.4219 706,1250.3844 706,1297.5456 C706,1303.4408 706,1309.2297 706,1314.8515 C706,1316.257 706,1317.652 706,1319.0356 C706,1319.7274 706,1320.4164 706,1321.1024 C706,1321.4454 706,1315.7877 706,1316.1292" fill="none" id="PACKAGE-to-TARGET" style="stroke:#181818;stroke-width:1;"/><polygon fill="#181818" points="706,1322.1292,710,1313.1292,706,1317.1292,702,1313.1292,706,1322.1292" style="stroke:#181818;stroke-width:1;"/><text fill="#000000" font-family="sans-serif" font-size="13" lengthAdjust="spacing" textLength="80.6597" x="707" y="1251.5338">Erstellt WAR</text></g><!--link TARGET to TOMCAT_DEPLOY--><g class="link" data-entity-1="ent0017" data-entity-2="ent0021" data-link-type="dependency" data-source-line="63" id="lnk38"><path d="M706,1435.8159 C706,1437.6141 706,1439.4521 706,1441.3277 C706,1471.3359 706,1510.9375 706,1550.5381 C706,1560.4383 706,1570.3384 706,1580.0885 C706,1584.9636 706,1589.8011 706,1594.5825 C706,1595.7778 706,1590.9696 706,1592.1577" fill="none" id="TARGET-to-TOMCAT_DEPLOY" style="stroke:#181818;stroke-width:1;"/><polygon fill="#181818" points="706,1598.1577,710,1589.1577,706,1593.1577,702,1589.1577,706,1598.1577" style="stroke:#181818;stroke-width:1;"/><text fill="#000000" font-family="sans-serif" font-size="13" lengthAdjust="spacing" textLength="80.3931" x="758.3462" y="1512.3538">Auto-Deploy</text><text fill="#000000" font-family="sans-serif" font-size="13" lengthAdjust="spacing" textLength="183.0854" x="707" y="1527.4866">(CATALINA_HOME/webapps)</text></g><!--link TOMCAT_DEPLOY to JVM--><g class="link" data-entity-1="ent0021" data-entity-2="ent0025" data-link-type="dependency" data-source-line="64" id="lnk39"><path d="M706,1784.5138 C706,1784.9801 706,1785.4478 706,1785.9167 C706,1786.8546 706,1787.7978 706,1788.7458 C706,1792.5381 706,1796.4096 706,1800.3445 C706,1816.0841 706,1832.8381 706,1849.5919 C706,1866.3456 706,1883.0991 706,1898.8374 C706,1902.772 706,1906.6432 706,1910.435 C706,1911.383 706,1912.326 706,1913.2638 C706,1913.7327 706,1914.2003 706,1914.6665 C706,1914.8997 706,1909.1325 706,1909.3649" fill="none" id="TOMCAT_DEPLOY-to-JVM" style="stroke:#181818;stroke-width:1;"/><polygon fill="#181818" points="706,1915.3649,710,1906.3649,706,1910.3649,702,1906.3649,706,1915.3649" style="stroke:#181818;stroke-width:1;"/><text fill="#000000" font-family="sans-serif" font-size="13" lengthAdjust="spacing" textLength="71.4492" x="707" y="1844.6438">JVM startet</text></g><!--link JVM to PG--><g class="link" data-entity-1="ent0025" data-entity-2="ent0030" data-link-type="dependency" data-source-line="65" id="lnk40"><path d="M714.1004,1991.2532 C714.4713,1991.4149 714.854,1991.5816 715.248,1991.7534 C716.0362,1992.097 716.87,1992.4606 717.7479,1992.8435 C724.7704,1995.907 734.6052,2000.2072 746.3291,2005.36 C769.7769,2015.6656 800.7813,2029.3819 831.9575,2043.4369 C894.31,2071.5469 957.35,2101.0119 962,2107.2569 C970.4975,2118.6644 975.9631,2132.2488 979.3745,2146.2477 C980.2274,2149.7474 980.9518,2153.273 981.5632,2156.797 C981.8689,2158.559 982.1463,2160.3206 982.3973,2162.0784 C982.5228,2162.9572 982.6417,2163.8352 982.7543,2164.7117 C982.8106,2165.1499 982.1419,2159.6316 982.195,2160.0691" fill="none" id="JVM-to-PG" style="stroke:#181818;stroke-width:1;"/><polygon fill="#181818" points="982.9184,2166.0254,985.8041,2156.6087,982.3156,2161.0618,977.8625,2157.5733,982.9184,2166.0254" style="stroke:#181818;stroke-width:1;"/><text fill="#000000" font-family="sans-serif" font-size="13" lengthAdjust="spacing" textLength="116.3018" x="950" y="2095.3238">JDBC Connections</text></g><!--link SRC to GMN41--><g class="link" data-entity-1="ent0003" data-entity-2="ent0042" data-link-type="association" data-source-line="68" id="lnk43"><path d="M344.4719,161.7969 C347.0125,161.7969 349.5531,161.7969 352.0938,161.7969 C357.175,161.7969 362.2563,161.7969 367.3375,161.7969 C377.5,161.7969 387.6625,161.7969 397.825,161.7969 C418.15,161.7969 438.475,161.7969 458.8,161.7969 C499.45,161.7969 540.1,161.7969 580.75,161.7969 C662.05,161.7969 743.35,161.7969 824.65,161.7969" fill="none" id="SRC-GMN41" style="stroke:#181818;stroke-width:1;stroke-dasharray:7,7;"/></g><!--link MAVEN to GMN44--><g class="link" data-entity-1="ent0011" data-entity-2="ent0045" data-link-type="association" data-source-line="86" id="lnk46"><path d="M821.2548,678.0869 C821.3839,678.0869 821.513,678.0869 821.642,678.0869 C821.9002,678.0869 822.1583,678.0869 822.4165,678.0869 C823.449,678.0869 824.4816,678.0869 825.5142,678.0869 C827.5793,678.0869 829.6444,678.0869 831.7095,678.0869 C835.8396,678.0869 839.9698,678.0869 844.0998,678.0869 C852.36,678.0869 860.62,678.0869 868.88,678.0869" fill="none" id="MAVEN-GMN44" style="stroke:#181818;stroke-width:1;stroke-dasharray:7,7;"/></g><!--link TARGET to GMN47--><g class="link" data-entity-1="ent0017" data-entity-2="ent0048" data-link-type="association" data-source-line="104" id="lnk49"><path d="M714.1795,1388.6169 C714.2508,1388.6169 714.3221,1388.6169 714.3934,1388.6169 C714.6788,1388.6169 714.9641,1388.6169 715.2494,1388.6169 C715.82,1388.6169 716.3906,1388.6169 716.9613,1388.6169 C718.1025,1388.6169 719.2438,1388.6169 720.385,1388.6169 C724.95,1388.6169 729.515,1388.6169 734.08,1388.6169 C743.21,1388.6169 752.34,1388.6169 761.47,1388.6169" fill="none" id="TARGET-GMN47" style="stroke:#181818;stroke-width:1;stroke-dasharray:7,7;"/></g><!--link TOMCAT_DEPLOY to GMN50--><g class="link" data-entity-1="ent0021" data-entity-2="ent0051" data-link-type="association" data-source-line="117" id="lnk52"><path d="M714.1777,1712.4369 C714.2489,1712.4369 714.3201,1712.4369 714.3913,1712.4369 C714.6762,1712.4369 714.9611,1712.4369 715.246,1712.4369 C715.8158,1712.4369 716.3856,1712.4369 716.9554,1712.4369 C718.095,1712.4369 719.2346,1712.4369 720.3742,1712.4369 C724.9328,1712.4369 729.4919,1712.4369 734.0513,1712.4369 C743.17,1712.4369 752.29,1712.4369 761.41,1712.4369" fill="none" id="TOMCAT_DEPLOY-GMN50" style="stroke:#181818;stroke-width:1;stroke-dasharray:7,7;"/></g><!--link JVM to GMN53--><g class="link" data-entity-1="ent0025" data-entity-2="ent0054" data-link-type="association" data-source-line="128" id="lnk55"><path d="M714.7153,1986.7269 C714.9606,1986.7269 715.2059,1986.7269 715.4512,1986.7269 C716.4324,1986.7269 717.4137,1986.7269 718.3949,1986.7269 C722.3198,1986.7269 726.2447,1986.7269 730.1696,1986.7269 C738.0193,1986.7269 745.8689,1986.7269 753.7184,1986.7269 C769.4175,1986.7269 785.1163,1986.7269 800.815,1986.7269 C832.2125,1986.7269 863.61,1986.7269 895.01,1986.7269" fill="none" id="JVM-GMN53" style="stroke:#181818;stroke-width:1;stroke-dasharray:7,7;"/></g><!--link GMN53 to GMN56--><g class="link" data-entity-1="ent0054" data-entity-2="ent0057" data-link-type="association" data-source-line="139" id="lnk58"><path d="M1060.51,2052.6069 C1082.74,2094.4069 1111.19,2147.8969 1131.61,2186.2969" fill="none" id="GMN53-GMN56" style="stroke:#181818;stroke-width:1;stroke-dasharray:7,7;"/></g><?plantuml-src TLPDRkCs5Dxh5AzUj8a1sybqCWKCj01jAuuJErOj9JC52WIqJDki9KebgVnCaIvxW5wWcpb3LxFBJNgIFfAohIIA5mb9VIA_zzxtFKfpdJ0Oi3p97b8cT6l0wKhID8M8yGJUGmjw1KyMy6q5107FMS85yxoSnXkwOj3mXRxZyIOfnAe1VtY0FoerNz9OGoFC2Xapw6SBrW2g89prIupvnLcQPyBispYdjnHEUSAKnPsJQr8B2uCgAWnkJaTZFwo3ziEmSnvMq2GC_SX17-tV5ro7NCECvPdYEfCFzfNXAAgdEw5SG4zI4QyjS496btMuKqPr8La9BOcS-YIwclbRAe-LPBgK1pBxp9HwdSu9lMMYFF3QlwpdbcTf-pvDB2oOJcfpWqFC2mHhgbnX-jD9W9ci0qTCwGeoyiEe3XQKCUoH0UbVaA7_PfYaZAicq8ZA5TCmu9B5ksf4P3RqtoZ87LSA1qYrVKUbXNyaCwkEEhW1jYHJHQBLBgeRhCdLEAghozu2Mwu29OqyipIc6a8cRvaxDPfE-YIw6VZ1UFfBXUi-jZisftckEewatoD145Q0hmFRkC0wPQ4k8__JlWAFDMndXT0yPS-fdbzFO2IKHY6wyfY5sbps4whKEAEBCgJnb0pyMQqqrf9Hr6kMERb5PpEV36hjE64frX7E6CqjzCmdGLsYgMPYJiNcEVaWKtebMVZps2bhM66-e9hEKNDL4S2WLm9l1htzCT_1nqnkbabsvvbEr6hzP2tUnGCAjMvuPc8MdRkwfU5S8snudbisWD8k1d9XlSIPD0tGspum8ACfWxWIs5cCYrJ3islcOMaEUtOPF0gsuMtNxGPEy0ZnfT8iIRJ3UEK3YtccDuIIGcSjfzTVnG4-8-FH9RavcqxyJYczG-Jnx3MpaP53rya4HI8rqmtFJ2pPeNqqwFMnbGk1dkIPm6WyaMa6ag_M6hAbwUwOwsQpqlKXrBBOO0_iDfkURRbAnfqKssVdDspv7LkRbZLGmhIgJ7dCjjC1cMw74zmpKIzsSc5jzzhT4UNSNGJb1FtM6bsUcbTCaznlP1rMfNI-Bvl7n09Cg2y3jeAm8LU40cE-PF53dB1TpCTjkAO9HwKodBrhGzc0SV9zsvu11_QyGrnvtuQj8Wwmt6Rf1DzdaYyVSFoXxMoS6F8_jClRsPtJR9Bv-kcBMF7LXd5qacEmoo-GO6JdUp_1G7BiNTu-v1CxFkCRAda_U3Dsfq5xg0jxMkYyqBkOdtTakoT9yCxPRFs2zC2s6bifF9tCu0LzxsKzCH9DDO-1u6lQhPIbh7wc39YA9S_nvd1SXlBftwT_M1V-F3bg7HyTmQJtTbnLPzZmoYPVCLQri5WYm8-1RLV7-78CpdB7GfVlCebDt1131N1NzIjXcfvwdIUi_yxkdKhxDnBup7Yy5bmvJOoVlYmqNDWS2dZwEcSIAitRYONaUSAH0peME0eDYxry-hgQurblfG1jRmCtzh_8n9Al2catsCLjlizkfa4K_jXeVKhLkvCFAU3W_kJuNTfm4FGgfiNq-oxWSvDokqZloqN4RXU7_IxMR4dnEeQ3uV6mVsYNtVMYklQ20MGjyGFjzwBEalDCwoorh8TCqLHZAYeVjwVOydVaRL_wxw-_mNpncVzLyvevbXHXPlIwz7RP9SYCTlULgSwSYmNU0kMZQkB7wB5lTfp_1m00?></g></svg>