<svg xmlns="http://www.w3.org/2000/svg" xmlns:xlink="http://www.w3.org/1999/xlink" contentStyleType="text/css" height="2160px" preserveAspectRatio="none" style="width:1189px;height:2160px;background:#FFFFFF;" version="1.1" viewBox="0 0 1189 2160" width="1189px" zoomAndPan="magnify"><title>Deployment-Diagramm Teil 5 - Runtime Kommunikation (API)</title><defs/><g><text fill="#000000" font-family="sans-serif" font-size="14" font-weight="bold" lengthAdjust="spacing" textLength="407.5996" x="386.9526" y="29.5332">Deployment-Diagramm Teil 5 - Runtime Kommunikation (API)</text><rect fill="#FFFFFF" height="314.5156" style="stroke:#181818;stroke-width:1.0;" width="10" x="618.7383" y="186.8828"/><rect fill="#FFFFFF" height="595.3828" style="stroke:#181818;stroke-width:1.0;" width="10" x="618.7383" y="673.1563"/><rect fill="#FFFFFF" height="626.8672" style="stroke:#181818;stroke-width:1.0;" width="10" x="618.7383" y="1359.5938"/><rect fill="#FFFFFF" height="91.0547" style="stroke:#181818;stroke-width:1.0;" width="10" x="946.916" y="363.6406"/><rect fill="#FFFFFF" height="91.0547" style="stroke:#181818;stroke-width:1.0;" width="10" x="946.916" y="806.5625"/><rect fill="#FFFFFF" height="91.0547" style="stroke:#181818;stroke-width:1.0;" width="10" x="946.916" y="944.3203"/><rect fill="#FFFFFF" height="91.0547" style="stroke:#181818;stroke-width:1.0;" width="10" x="946.916" y="1107.4297"/><rect fill="#FFFFFF" height="91.0547" style="stroke:#181818;stroke-width:1.0;" width="10" x="946.916" y="1493"/><rect fill="#FFFFFF" height="91.0547" style="stroke:#181818;stroke-width:1.0;" width="10" x="946.916" y="1665.1094"/><rect fill="#FFFFFF" height="91.0547" style="stroke:#181818;stroke-width:1.0;" width="10" x="946.916" y="1834.7031"/><rect fill="#FFFFFF" height="30.3516" style="stroke:#181818;stroke-width:1.0;" width="10" x="1102.374" y="393.9922"/><rect fill="#FFFFFF" height="30.3516" style="stroke:#181818;stroke-width:1.0;" width="10" x="1102.374" y="836.9141"/><rect fill="#FFFFFF" height="30.3516" style="stroke:#181818;stroke-width:1.0;" width="10" x="1102.374" y="974.6719"/><rect fill="#FFFFFF" height="30.3516" style="stroke:#181818;stroke-width:1.0;" width="10" x="1102.374" y="1137.7813"/><rect fill="#FFFFFF" height="30.3516" style="stroke:#181818;stroke-width:1.0;" width="10" x="1102.374" y="1523.3516"/><rect fill="#FFFFFF" height="30.3516" style="stroke:#181818;stroke-width:1.0;" width="10" x="1102.374" y="1695.4609"/><rect fill="#FFFFFF" height="30.3516" style="stroke:#181818;stroke-width:1.0;" width="10" x="1102.374" y="1865.0547"/><rect fill="none" height="156.1094" style="stroke:#000000;stroke-width:1.5;" width="581.0459" x="581.459" y="1050.375"/><rect fill="none" height="341.7031" style="stroke:#000000;stroke-width:1.5;" width="601.0459" x="571.459" y="1599.0547"/><rect fill="none" height="139.7578" style="stroke:#000000;stroke-width:1.5;" width="581.0459" x="581.459" y="1624.4063"/><rect fill="none" height="139.7578" style="stroke:#000000;stroke-width:1.5;" width="581.0459" x="581.459" y="1794"/><line style="stroke:#181818;stroke-width:0.5;stroke-dasharray:5.0,5.0;" x1="271" x2="271" y1="93.8281" y2="2106.2188"/><line style="stroke:#181818;stroke-width:0.5;stroke-dasharray:5.0,5.0;" x1="623.459" x2="623.459" y1="93.8281" y2="2106.2188"/><line style="stroke:#181818;stroke-width:0.5;stroke-dasharray:5.0,5.0;" x1="951.0264" x2="951.0264" y1="93.8281" y2="2106.2188"/><line style="stroke:#181818;stroke-width:0.5;stroke-dasharray:5.0,5.0;" x1="1107.2432" x2="1107.2432" y1="93.8281" y2="2106.2188"/><rect fill="#E2E2F0" height="49.2188" rx="2.5" ry="2.5" style="stroke:#181818;stroke-width:0.5;" width="65.3447" x="239" y="43.6094"/><text fill="#000000" font-family="sans-serif" font-size="14" lengthAdjust="spacing" textLength="51.3447" x="246" y="65.1426">Browser</text><text fill="#000000" font-family="sans-serif" font-size="14" lengthAdjust="spacing" textLength="45.1172" x="249.1138" y="82.752">(Client)</text><rect fill="#E2E2F0" height="49.2188" rx="2.5" ry="2.5" style="stroke:#181818;stroke-width:0.5;" width="65.3447" x="239" y="2105.2188"/><text fill="#000000" font-family="sans-serif" font-size="14" lengthAdjust="spacing" textLength="51.3447" x="246" y="2126.752">Browser</text><text fill="#000000" font-family="sans-serif" font-size="14" lengthAdjust="spacing" textLength="45.1172" x="249.1138" y="2144.3613">(Client)</text><rect fill="#E2E2F0" height="49.2188" rx="2.5" ry="2.5" style="stroke:#181818;stroke-width:0.5;" width="64.5586" x="591.459" y="43.6094"/><text fill="#000000" font-family="sans-serif" font-size="14" lengthAdjust="spacing" textLength="46.6758" x="600.4004" y="65.1426">Tomcat</text><text fill="#000000" font-family="sans-serif" font-size="14" lengthAdjust="spacing" textLength="50.5586" x="598.459" y="82.752">(Server)</text><rect fill="#E2E2F0" height="49.2188" rx="2.5" ry="2.5" style="stroke:#181818;stroke-width:0.5;" width="64.5586" x="591.459" y="2105.2188"/><text fill="#000000" font-family="sans-serif" font-size="14" lengthAdjust="spacing" textLength="46.6758" x="600.4004" y="2126.752">Tomcat</text><text fill="#000000" font-family="sans-serif" font-size="14" lengthAdjust="spacing" textLength="50.5586" x="598.459" y="2144.3613">(Server)</text><rect fill="#E2E2F0" height="31.6094" rx="2.5" ry="2.5" style="stroke:#181818;stroke-width:0.5;" width="91.7793" x="906.0264" y="61.2188"/><text fill="#000000" font-family="sans-serif" font-size="14" lengthAdjust="spacing" textLength="77.7793" x="913.0264" y="82.752">JDBC Driver</text><rect fill="#E2E2F0" height="31.6094" rx="2.5" ry="2.5" style="stroke:#181818;stroke-width:0.5;" width="91.7793" x="906.0264" y="2105.2188"/><text fill="#000000" font-family="sans-serif" font-size="14" lengthAdjust="spacing" textLength="77.7793" x="913.0264" y="2126.752">JDBC Driver</text><rect fill="#E2E2F0" height="49.2188" rx="2.5" ry="2.5" style="stroke:#181818;stroke-width:0.5;" width="90.2617" x="1062.2432" y="43.6094"/><text fill="#000000" font-family="sans-serif" font-size="14" lengthAdjust="spacing" textLength="76.2617" x="1069.2432" y="65.1426">PostgreSQL</text><text fill="#000000" font-family="sans-serif" font-size="14" lengthAdjust="spacing" textLength="69.2549" x="1072.7466" y="82.752">(Database)</text><rect fill="#E2E2F0" height="49.2188" rx="2.5" ry="2.5" style="stroke:#181818;stroke-width:0.5;" width="90.2617" x="1062.2432" y="2105.2188"/><text fill="#000000" font-family="sans-serif" font-size="14" lengthAdjust="spacing" textLength="76.2617" x="1069.2432" y="2126.752">PostgreSQL</text><text fill="#000000" font-family="sans-serif" font-size="14" lengthAdjust="spacing" textLength="69.2549" x="1072.7466" y="2144.3613">(Database)</text><rect fill="#FFFFFF" height="314.5156" style="stroke:#181818;stroke-width:1.0;" width="10" x="618.7383" y="186.8828"/><rect fill="#FFFFFF" height="595.3828" style="stroke:#181818;stroke-width:1.0;" width="10" x="618.7383" y="673.1563"/><rect fill="#FFFFFF" height="626.8672" style="stroke:#181818;stroke-width:1.0;" width="10" x="618.7383" y="1359.5938"/><rect fill="#FFFFFF" height="91.0547" style="stroke:#181818;stroke-width:1.0;" width="10" x="946.916" y="363.6406"/><rect fill="#FFFFFF" height="91.0547" style="stroke:#181818;stroke-width:1.0;" width="10" x="946.916" y="806.5625"/><rect fill="#FFFFFF" height="91.0547" style="stroke:#181818;stroke-width:1.0;" width="10" x="946.916" y="944.3203"/><rect fill="#FFFFFF" height="91.0547" style="stroke:#181818;stroke-width:1.0;" width="10" x="946.916" y="1107.4297"/><rect fill="#FFFFFF" height="91.0547" style="stroke:#181818;stroke-width:1.0;" width="10" x="946.916" y="1493"/><rect fill="#FFFFFF" height="91.0547" style="stroke:#181818;stroke-width:1.0;" width="10" x="946.916" y="1665.1094"/><rect fill="#FFFFFF" height="91.0547" style="stroke:#181818;stroke-width:1.0;" width="10" x="946.916" y="1834.7031"/><rect fill="#FFFFFF" height="30.3516" style="stroke:#181818;stroke-width:1.0;" width="10" x="1102.374" y="393.9922"/><rect fill="#FFFFFF" height="30.3516" style="stroke:#181818;stroke-width:1.0;" width="10" x="1102.374" y="836.9141"/><rect fill="#FFFFFF" height="30.3516" style="stroke:#181818;stroke-width:1.0;" width="10" x="1102.374" y="974.6719"/><rect fill="#FFFFFF" height="30.3516" style="stroke:#181818;stroke-width:1.0;" width="10" x="1102.374" y="1137.7813"/><rect fill="#FFFFFF" height="30.3516" style="stroke:#181818;stroke-width:1.0;" width="10" x="1102.374" y="1523.3516"/><rect fill="#FFFFFF" height="30.3516" style="stroke:#181818;stroke-width:1.0;" width="10" x="1102.374" y="1695.4609"/><rect fill="#FFFFFF" height="30.3516" style="stroke:#181818;stroke-width:1.0;" width="10" x="1102.374" y="1865.0547"/><rect fill="#EEEEEE" height="3" style="stroke:#EEEEEE;stroke-width:1.0;" width="1182.5049" x="0" y="125.0039"/><line style="stroke:#000000;stroke-width:1.0;" x1="0" x2="1182.5049" y1="125.0039" y2="125.0039"/><line style="stroke:#000000;stroke-width:1.0;" x1="0" x2="1182.5049" y1="128.0039" y2="128.0039"/><rect fill="#EEEEEE" height="24.3516" style="stroke:#000000;stroke-width:2.0;" width="185.1899" x="498.6575" y="113.8281"/><text fill="#000000" font-family="sans-serif" font-size="13" font-weight="bold" lengthAdjust="spacing" textLength="167.5781" x="504.6575" y="131.3232">Test starten (Fragen holen)</text><line style="stroke:#181818;stroke-width:1.0;" x1="616.7383" x2="606.7383" y1="186.8828" y2="182.8828"/><line style="stroke:#181818;stroke-width:1.0;" x1="616.7383" x2="606.7383" y1="186.8828" y2="190.8828"/><line style="stroke:#181818;stroke-width:1.0;" x1="271.6724" x2="617.7383" y1="186.8828" y2="186.8828"/><text fill="#000000" font-family="sans-serif" font-size="13" lengthAdjust="spacing" textLength="113.4263" x="278.6724" y="165.6748">POST /api/test/start</text><text fill="#000000" font-family="sans-serif" font-size="13" lengthAdjust="spacing" textLength="264.4434" x="278.6724" y="182.0264">JSON {difficulty, limit, category, autoMode, ...}</text><line style="stroke:#181818;stroke-width:1.0;" x1="628.7383" x2="670.7383" y1="217.2344" y2="217.2344"/><line style="stroke:#181818;stroke-width:1.0;" x1="670.7383" x2="670.7383" y1="217.2344" y2="230.2344"/><line style="stroke:#181818;stroke-width:1.0;" x1="628.7383" x2="670.7383" y1="230.2344" y2="230.2344"/><line style="stroke:#181818;stroke-width:1.0;" x1="629.7383" x2="639.7383" y1="230.2344" y2="226.2344"/><line style="stroke:#181818;stroke-width:1.0;" x1="629.7383" x2="639.7383" y1="230.2344" y2="234.2344"/><text fill="#000000" font-family="sans-serif" font-size="13" lengthAdjust="spacing" textLength="191.1089" x="635.7383" y="212.3779">TestServlet.doPost() [path=/start]</text><line style="stroke:#181818;stroke-width:1.0;" x1="628.7383" x2="670.7383" y1="260.5859" y2="260.5859"/><line style="stroke:#181818;stroke-width:1.0;" x1="670.7383" x2="670.7383" y1="260.5859" y2="273.5859"/><line style="stroke:#181818;stroke-width:1.0;" x1="628.7383" x2="670.7383" y1="273.5859" y2="273.5859"/><line style="stroke:#181818;stroke-width:1.0;" x1="629.7383" x2="639.7383" y1="273.5859" y2="269.5859"/><line style="stroke:#181818;stroke-width:1.0;" x1="629.7383" x2="639.7383" y1="273.5859" y2="277.5859"/><text fill="#000000" font-family="sans-serif" font-size="13" lengthAdjust="spacing" textLength="142.3018" x="635.7383" y="255.7295">TestService.startTest(...)</text><line style="stroke:#181818;stroke-width:1.0;" x1="628.7383" x2="670.7383" y1="303.9375" y2="303.9375"/><line style="stroke:#181818;stroke-width:1.0;" x1="670.7383" x2="670.7383" y1="303.9375" y2="316.9375"/><line style="stroke:#181818;stroke-width:1.0;" x1="628.7383" x2="670.7383" y1="316.9375" y2="316.9375"/><line style="stroke:#181818;stroke-width:1.0;" x1="629.7383" x2="639.7383" y1="316.9375" y2="312.9375"/><line style="stroke:#181818;stroke-width:1.0;" x1="629.7383" x2="639.7383" y1="316.9375" y2="320.9375"/><text fill="#000000" font-family="sans-serif" font-size="13" lengthAdjust="spacing" textLength="222.5234" x="635.7383" y="299.0811">QuestionRepository.findByDifficulty(...)</text><line style="stroke:#181818;stroke-width:1.0;" x1="944.916" x2="934.916" y1="363.6406" y2="359.6406"/><line style="stroke:#181818;stroke-width:1.0;" x1="944.916" x2="934.916" y1="363.6406" y2="367.6406"/><line style="stroke:#181818;stroke-width:1.0;" x1="628.7383" x2="945.916" y1="363.6406" y2="363.6406"/><text fill="#000000" font-family="sans-serif" font-size="13" lengthAdjust="spacing" textLength="166.1626" x="635.7383" y="342.4326">SELECT ... FROM questions</text><text fill="#000000" font-family="sans-serif" font-size="13" lengthAdjust="spacing" textLength="289.3198" x="635.7383" y="358.7842">WHERE difficulty=? ORDER BY random() LIMIT ?</text><line style="stroke:#181818;stroke-width:1.0;" x1="1100.374" x2="1090.374" y1="393.9922" y2="389.9922"/><line style="stroke:#181818;stroke-width:1.0;" x1="1100.374" x2="1090.374" y1="393.9922" y2="397.9922"/><line style="stroke:#181818;stroke-width:1.0;" x1="956.916" x2="1101.374" y1="393.9922" y2="393.9922"/><text fill="#000000" font-family="sans-serif" font-size="13" lengthAdjust="spacing" textLength="126.458" x="963.916" y="389.1357">SQL Query ausf&#252;hren</text><line style="stroke:#181818;stroke-width:1.0;" x1="957.916" x2="967.916" y1="424.3438" y2="420.3438"/><line style="stroke:#181818;stroke-width:1.0;" x1="957.916" x2="967.916" y1="424.3438" y2="428.3438"/><line style="stroke:#181818;stroke-width:1.0;stroke-dasharray:2.0,2.0;" x1="956.916" x2="1106.374" y1="424.3438" y2="424.3438"/><text fill="#000000" font-family="sans-serif" font-size="13" lengthAdjust="spacing" textLength="56.3608" x="973.916" y="419.4873">ResultSet</text><line style="stroke:#181818;stroke-width:1.0;" x1="629.7383" x2="639.7383" y1="454.6953" y2="450.6953"/><line style="stroke:#181818;stroke-width:1.0;" x1="629.7383" x2="639.7383" y1="454.6953" y2="458.6953"/><line style="stroke:#181818;stroke-width:1.0;stroke-dasharray:2.0,2.0;" x1="628.7383" x2="950.916" y1="454.6953" y2="454.6953"/><text fill="#000000" font-family="sans-serif" font-size="13" lengthAdjust="spacing" textLength="87.4453" x="645.7383" y="449.8389">List&lt;Question&gt;</text><line style="stroke:#181818;stroke-width:1.0;" x1="272.6724" x2="282.6724" y1="501.3984" y2="497.3984"/><line style="stroke:#181818;stroke-width:1.0;" x1="272.6724" x2="282.6724" y1="501.3984" y2="505.3984"/><line style="stroke:#181818;stroke-width:1.0;stroke-dasharray:2.0,2.0;" x1="271.6724" x2="622.7383" y1="501.3984" y2="501.3984"/><text fill="#000000" font-family="sans-serif" font-size="13" lengthAdjust="spacing" textLength="44.0845" x="288.6724" y="480.1904">200 OK</text><text fill="#000000" font-family="sans-serif" font-size="13" lengthAdjust="spacing" textLength="125.7153" x="288.6724" y="496.542">JSON QuestionView[]</text><rect fill="#EEEEEE" height="3" style="stroke:#EEEEEE;stroke-width:1.0;" width="1182.5049" x="0" y="530.5742"/><line style="stroke:#000000;stroke-width:1.0;" x1="0" x2="1182.5049" y1="530.5742" y2="530.5742"/><line style="stroke:#000000;stroke-width:1.0;" x1="0" x2="1182.5049" y1="533.5742" y2="533.5742"/><rect fill="#EEEEEE" height="24.3516" style="stroke:#000000;stroke-width:2.0;" width="235.7427" x="473.3811" y="519.3984"/><text fill="#000000" font-family="sans-serif" font-size="13" font-weight="bold" lengthAdjust="spacing" textLength="218.1309" x="479.3811" y="536.8936">Antworten bearbeiten (client-seitig)</text><path d="M5,558.75 L5,584.75 L539,584.75 L539,568.75 L529,558.75 L5,558.75 " fill="#FEFFDD" style="stroke:#181818;stroke-width:0.5;"/><path d="M529,558.75 L529,568.75 L539,568.75 L529,558.75 " fill="#FEFFDD" style="stroke:#181818;stroke-width:0.5;"/><text fill="#000000" font-family="sans-serif" font-size="13" lengthAdjust="spacing" textLength="513.0176" x="11" y="577.2451">Antworten werden w&#228;hrend des Tests client-seitig gesammelt\n(kein Request pro Frage).</text><rect fill="#EEEEEE" height="3" style="stroke:#EEEEEE;stroke-width:1.0;" width="1182.5049" x="0" y="611.2773"/><line style="stroke:#000000;stroke-width:1.0;" x1="0" x2="1182.5049" y1="611.2773" y2="611.2773"/><line style="stroke:#000000;stroke-width:1.0;" x1="0" x2="1182.5049" y1="614.2773" y2="614.2773"/><rect fill="#EEEEEE" height="24.3516" style="stroke:#000000;stroke-width:2.0;" width="260.6953" x="460.9048" y="600.1016"/><text fill="#000000" font-family="sans-serif" font-size="13" font-weight="bold" lengthAdjust="spacing" textLength="243.0835" x="466.9048" y="617.5967">Test abgeben (Bewertung + Persistenz)</text><line style="stroke:#181818;stroke-width:1.0;" x1="616.7383" x2="606.7383" y1="673.1563" y2="669.1563"/><line style="stroke:#181818;stroke-width:1.0;" x1="616.7383" x2="606.7383" y1="673.1563" y2="677.1563"/><line style="stroke:#181818;stroke-width:1.0;" x1="271.6724" x2="617.7383" y1="673.1563" y2="673.1563"/><text fill="#000000" font-family="sans-serif" font-size="13" lengthAdjust="spacing" textLength="126.4326" x="278.6724" y="651.9482">POST /api/test/submit</text><text fill="#000000" font-family="sans-serif" font-size="13" lengthAdjust="spacing" textLength="328.0659" x="278.6724" y="668.2998">JSON {difficulty, questionIds, answers, durationSeconds}</text><line style="stroke:#181818;stroke-width:1.0;" x1="628.7383" x2="670.7383" y1="703.5078" y2="703.5078"/><line style="stroke:#181818;stroke-width:1.0;" x1="670.7383" x2="670.7383" y1="703.5078" y2="716.5078"/><line style="stroke:#181818;stroke-width:1.0;" x1="628.7383" x2="670.7383" y1="716.5078" y2="716.5078"/><line style="stroke:#181818;stroke-width:1.0;" x1="629.7383" x2="639.7383" y1="716.5078" y2="712.5078"/><line style="stroke:#181818;stroke-width:1.0;" x1="629.7383" x2="639.7383" y1="716.5078" y2="720.5078"/><text fill="#000000" font-family="sans-serif" font-size="13" lengthAdjust="spacing" textLength="204.1152" x="635.7383" y="698.6514">TestServlet.doPost() [path=/submit]</text><line style="stroke:#181818;stroke-width:1.0;" x1="628.7383" x2="670.7383" y1="746.8594" y2="746.8594"/><line style="stroke:#181818;stroke-width:1.0;" x1="670.7383" x2="670.7383" y1="746.8594" y2="759.8594"/><line style="stroke:#181818;stroke-width:1.0;" x1="628.7383" x2="670.7383" y1="759.8594" y2="759.8594"/><line style="stroke:#181818;stroke-width:1.0;" x1="629.7383" x2="639.7383" y1="759.8594" y2="755.8594"/><line style="stroke:#181818;stroke-width:1.0;" x1="629.7383" x2="639.7383" y1="759.8594" y2="763.8594"/><text fill="#000000" font-family="sans-serif" font-size="13" lengthAdjust="spacing" textLength="174.8208" x="635.7383" y="742.0029">TestService.submitAttempt(...)</text><line style="stroke:#181818;stroke-width:1.0;" x1="944.916" x2="934.916" y1="806.5625" y2="802.5625"/><line style="stroke:#181818;stroke-width:1.0;" x1="944.916" x2="934.916" y1="806.5625" y2="810.5625"/><line style="stroke:#181818;stroke-width:1.0;" x1="628.7383" x2="945.916" y1="806.5625" y2="806.5625"/><text fill="#000000" font-family="sans-serif" font-size="13" lengthAdjust="spacing" textLength="192.188" x="635.7383" y="785.3545">SELECT answers/cloze_answers</text><text fill="#000000" font-family="sans-serif" font-size="13" lengthAdjust="spacing" textLength="238.126" x="635.7383" y="801.7061">f&#252;r questionIds (L&#246;sungen + partialValue)</text><line style="stroke:#181818;stroke-width:1.0;" x1="1100.374" x2="1090.374" y1="836.9141" y2="832.9141"/><line style="stroke:#181818;stroke-width:1.0;" x1="1100.374" x2="1090.374" y1="836.9141" y2="840.9141"/><line style="stroke:#181818;stroke-width:1.0;" x1="956.916" x2="1101.374" y1="836.9141" y2="836.9141"/><text fill="#000000" font-family="sans-serif" font-size="13" lengthAdjust="spacing" textLength="80.1963" x="963.916" y="832.0576">SQL SELECT</text><line style="stroke:#181818;stroke-width:1.0;" x1="957.916" x2="967.916" y1="867.2656" y2="863.2656"/><line style="stroke:#181818;stroke-width:1.0;" x1="957.916" x2="967.916" y1="867.2656" y2="871.2656"/><line style="stroke:#181818;stroke-width:1.0;stroke-dasharray:2.0,2.0;" x1="956.916" x2="1106.374" y1="867.2656" y2="867.2656"/><text fill="#000000" font-family="sans-serif" font-size="13" lengthAdjust="spacing" textLength="62.8608" x="973.916" y="862.4092">ResultSets</text><line style="stroke:#181818;stroke-width:1.0;" x1="629.7383" x2="639.7383" y1="897.6172" y2="893.6172"/><line style="stroke:#181818;stroke-width:1.0;" x1="629.7383" x2="639.7383" y1="897.6172" y2="901.6172"/><line style="stroke:#181818;stroke-width:1.0;stroke-dasharray:2.0,2.0;" x1="628.7383" x2="950.916" y1="897.6172" y2="897.6172"/><text fill="#000000" font-family="sans-serif" font-size="13" lengthAdjust="spacing" textLength="80.2217" x="645.7383" y="892.7607">L&#246;sungss&#228;tze</text><line style="stroke:#181818;stroke-width:1.0;" x1="944.916" x2="934.916" y1="944.3203" y2="940.3203"/><line style="stroke:#181818;stroke-width:1.0;" x1="944.916" x2="934.916" y1="944.3203" y2="948.3203"/><line style="stroke:#181818;stroke-width:1.0;" x1="628.7383" x2="945.916" y1="944.3203" y2="944.3203"/><text fill="#000000" font-family="sans-serif" font-size="13" lengthAdjust="spacing" textLength="158.9072" x="635.7383" y="923.1123">INSERT INTO attempts (...)</text><text fill="#000000" font-family="sans-serif" font-size="13" lengthAdjust="spacing" textLength="299.1777" x="635.7383" y="939.4639">(total_points, max_points, grade, duration_seconds)</text><line style="stroke:#181818;stroke-width:1.0;" x1="1100.374" x2="1090.374" y1="974.6719" y2="970.6719"/><line style="stroke:#181818;stroke-width:1.0;" x1="1100.374" x2="1090.374" y1="974.6719" y2="978.6719"/><line style="stroke:#181818;stroke-width:1.0;" x1="956.916" x2="1101.374" y1="974.6719" y2="974.6719"/><text fill="#000000" font-family="sans-serif" font-size="13" lengthAdjust="spacing" textLength="77.2954" x="963.916" y="969.8154">SQL INSERT</text><line style="stroke:#181818;stroke-width:1.0;" x1="957.916" x2="967.916" y1="1005.0234" y2="1001.0234"/><line style="stroke:#181818;stroke-width:1.0;" x1="957.916" x2="967.916" y1="1005.0234" y2="1009.0234"/><line style="stroke:#181818;stroke-width:1.0;stroke-dasharray:2.0,2.0;" x1="956.916" x2="1106.374" y1="1005.0234" y2="1005.0234"/><text fill="#000000" font-family="sans-serif" font-size="13" lengthAdjust="spacing" textLength="60.7026" x="973.916" y="1000.167">attempt_id</text><line style="stroke:#181818;stroke-width:1.0;" x1="629.7383" x2="639.7383" y1="1035.375" y2="1031.375"/><line style="stroke:#181818;stroke-width:1.0;" x1="629.7383" x2="639.7383" y1="1035.375" y2="1039.375"/><line style="stroke:#181818;stroke-width:1.0;stroke-dasharray:2.0,2.0;" x1="628.7383" x2="950.916" y1="1035.375" y2="1035.375"/><text fill="#000000" font-family="sans-serif" font-size="13" lengthAdjust="spacing" textLength="60.7026" x="645.7383" y="1030.5186">attempt_id</text><path d="M581.459,1050.375 L653.8936,1050.375 L653.8936,1058.7266 L643.8936,1068.7266 L581.459,1068.7266 L581.459,1050.375 " fill="#EEEEEE" style="stroke:#000000;stroke-width:1.5;"/><rect fill="none" height="156.1094" style="stroke:#000000;stroke-width:1.5;" width="581.0459" x="581.459" y="1050.375"/><text fill="#000000" font-family="sans-serif" font-size="13" font-weight="bold" lengthAdjust="spacing" textLength="27.4346" x="596.459" y="1064.8701">loop</text><text fill="#000000" font-family="sans-serif" font-size="11" font-weight="bold" lengthAdjust="spacing" textLength="58.0562" x="668.8936" y="1063.7939">[pro Frage]</text><line style="stroke:#181818;stroke-width:1.0;" x1="944.916" x2="934.916" y1="1107.4297" y2="1103.4297"/><line style="stroke:#181818;stroke-width:1.0;" x1="944.916" x2="934.916" y1="1107.4297" y2="1111.4297"/><line style="stroke:#181818;stroke-width:1.0;" x1="628.7383" x2="945.916" y1="1107.4297" y2="1107.4297"/><text fill="#000000" font-family="sans-serif" font-size="13" lengthAdjust="spacing" textLength="208.0444" x="635.7383" y="1086.2217">INSERT INTO attempt_answers (...)</text><text fill="#000000" font-family="sans-serif" font-size="13" lengthAdjust="spacing" textLength="261.606" x="635.7383" y="1102.5732">(question_id, given_answer, points_awarded)</text><line style="stroke:#181818;stroke-width:1.0;" x1="1100.374" x2="1090.374" y1="1137.7813" y2="1133.7813"/><line style="stroke:#181818;stroke-width:1.0;" x1="1100.374" x2="1090.374" y1="1137.7813" y2="1141.7813"/><line style="stroke:#181818;stroke-width:1.0;" x1="956.916" x2="1101.374" y1="1137.7813" y2="1137.7813"/><text fill="#000000" font-family="sans-serif" font-size="13" lengthAdjust="spacing" textLength="77.2954" x="963.916" y="1132.9248">SQL INSERT</text><line style="stroke:#181818;stroke-width:1.0;" x1="957.916" x2="967.916" y1="1168.1328" y2="1164.1328"/><line style="stroke:#181818;stroke-width:1.0;" x1="957.916" x2="967.916" y1="1168.1328" y2="1172.1328"/><line style="stroke:#181818;stroke-width:1.0;stroke-dasharray:2.0,2.0;" x1="956.916" x2="1106.374" y1="1168.1328" y2="1168.1328"/><text fill="#000000" font-family="sans-serif" font-size="13" lengthAdjust="spacing" textLength="18.7827" x="973.916" y="1163.2764">OK</text><line style="stroke:#181818;stroke-width:1.0;" x1="629.7383" x2="639.7383" y1="1198.4844" y2="1194.4844"/><line style="stroke:#181818;stroke-width:1.0;" x1="629.7383" x2="639.7383" y1="1198.4844" y2="1202.4844"/><line style="stroke:#181818;stroke-width:1.0;stroke-dasharray:2.0,2.0;" x1="628.7383" x2="950.916" y1="1198.4844" y2="1198.4844"/><text fill="#000000" font-family="sans-serif" font-size="13" lengthAdjust="spacing" textLength="18.7827" x="645.7383" y="1193.6279">OK</text><line style="stroke:#181818;stroke-width:1.0;" x1="272.6724" x2="282.6724" y1="1268.5391" y2="1264.5391"/><line style="stroke:#181818;stroke-width:1.0;" x1="272.6724" x2="282.6724" y1="1268.5391" y2="1272.5391"/><line style="stroke:#181818;stroke-width:1.0;stroke-dasharray:2.0,2.0;" x1="271.6724" x2="622.7383" y1="1268.5391" y2="1268.5391"/><text fill="#000000" font-family="sans-serif" font-size="13" lengthAdjust="spacing" textLength="44.0845" x="288.6724" y="1230.9795">200 OK</text><text fill="#000000" font-family="sans-serif" font-size="13" lengthAdjust="spacing" textLength="119.9263" x="288.6724" y="1247.3311">JSON AttemptResult</text><text fill="#000000" font-family="sans-serif" font-size="13" lengthAdjust="spacing" textLength="152.0771" x="288.6724" y="1263.6826">(+ recommendedDifficulty)</text><rect fill="#EEEEEE" height="3" style="stroke:#EEEEEE;stroke-width:1.0;" width="1182.5049" x="0" y="1297.7148"/><line style="stroke:#000000;stroke-width:1.0;" x1="0" x2="1182.5049" y1="1297.7148" y2="1297.7148"/><line style="stroke:#000000;stroke-width:1.0;" x1="0" x2="1182.5049" y1="1300.7148" y2="1300.7148"/><rect fill="#EEEEEE" height="24.3516" style="stroke:#000000;stroke-width:2.0;" width="143.3081" x="519.5984" y="1286.5391"/><text fill="#000000" font-family="sans-serif" font-size="13" font-weight="bold" lengthAdjust="spacing" textLength="125.6963" x="525.5984" y="1304.0342">Admin erstellt Frage</text><line style="stroke:#181818;stroke-width:1.0;" x1="616.7383" x2="606.7383" y1="1359.5938" y2="1355.5938"/><line style="stroke:#181818;stroke-width:1.0;" x1="616.7383" x2="606.7383" y1="1359.5938" y2="1363.5938"/><line style="stroke:#181818;stroke-width:1.0;" x1="271.6724" x2="617.7383" y1="1359.5938" y2="1359.5938"/><text fill="#000000" font-family="sans-serif" font-size="13" lengthAdjust="spacing" textLength="158.2471" x="278.6724" y="1338.3857">POST /api/admin/questions</text><text fill="#000000" font-family="sans-serif" font-size="13" lengthAdjust="spacing" textLength="251.0879" x="278.6724" y="1354.7373">JSON QuestionPayload (+ answers/tokens)</text><line style="stroke:#181818;stroke-width:1.0;" x1="628.7383" x2="670.7383" y1="1406.2969" y2="1406.2969"/><line style="stroke:#181818;stroke-width:1.0;" x1="670.7383" x2="670.7383" y1="1406.2969" y2="1419.2969"/><line style="stroke:#181818;stroke-width:1.0;" x1="628.7383" x2="670.7383" y1="1419.2969" y2="1419.2969"/><line style="stroke:#181818;stroke-width:1.0;" x1="629.7383" x2="639.7383" y1="1419.2969" y2="1415.2969"/><line style="stroke:#181818;stroke-width:1.0;" x1="629.7383" x2="639.7383" y1="1419.2969" y2="1423.2969"/><text fill="#000000" font-family="sans-serif" font-size="13" lengthAdjust="spacing" textLength="233.0415" x="635.7383" y="1385.0889">AdminServlet.doPost() [path=/questions]</text><text fill="#000000" font-family="sans-serif" font-size="13" lengthAdjust="spacing" textLength="117.4126" x="635.7383" y="1401.4404">(require role=admin)</text><line style="stroke:#181818;stroke-width:1.0;" x1="628.7383" x2="670.7383" y1="1449.6484" y2="1449.6484"/><line style="stroke:#181818;stroke-width:1.0;" x1="670.7383" x2="670.7383" y1="1449.6484" y2="1462.6484"/><line style="stroke:#181818;stroke-width:1.0;" x1="628.7383" x2="670.7383" y1="1462.6484" y2="1462.6484"/><line style="stroke:#181818;stroke-width:1.0;" x1="629.7383" x2="639.7383" y1="1462.6484" y2="1458.6484"/><line style="stroke:#181818;stroke-width:1.0;" x1="629.7383" x2="639.7383" y1="1462.6484" y2="1466.6484"/><text fill="#000000" font-family="sans-serif" font-size="13" lengthAdjust="spacing" textLength="202.2998" x="635.7383" y="1444.792">AdminService.create...Question(...)</text><line style="stroke:#181818;stroke-width:1.0;" x1="944.916" x2="934.916" y1="1493" y2="1489"/><line style="stroke:#181818;stroke-width:1.0;" x1="944.916" x2="934.916" y1="1493" y2="1497"/><line style="stroke:#181818;stroke-width:1.0;" x1="628.7383" x2="945.916" y1="1493" y2="1493"/><text fill="#000000" font-family="sans-serif" font-size="13" lengthAdjust="spacing" textLength="164.7026" x="635.7383" y="1488.1436">INSERT INTO questions (...)</text><line style="stroke:#181818;stroke-width:1.0;" x1="1100.374" x2="1090.374" y1="1523.3516" y2="1519.3516"/><line style="stroke:#181818;stroke-width:1.0;" x1="1100.374" x2="1090.374" y1="1523.3516" y2="1527.3516"/><line style="stroke:#181818;stroke-width:1.0;" x1="956.916" x2="1101.374" y1="1523.3516" y2="1523.3516"/><text fill="#000000" font-family="sans-serif" font-size="13" lengthAdjust="spacing" textLength="77.2954" x="963.916" y="1518.4951">SQL INSERT</text><line style="stroke:#181818;stroke-width:1.0;" x1="957.916" x2="967.916" y1="1553.7031" y2="1549.7031"/><line style="stroke:#181818;stroke-width:1.0;" x1="957.916" x2="967.916" y1="1553.7031" y2="1557.7031"/><line style="stroke:#181818;stroke-width:1.0;stroke-dasharray:2.0,2.0;" x1="956.916" x2="1106.374" y1="1553.7031" y2="1553.7031"/><text fill="#000000" font-family="sans-serif" font-size="13" lengthAdjust="spacing" textLength="66.498" x="973.916" y="1548.8467">question_id</text><line style="stroke:#181818;stroke-width:1.0;" x1="629.7383" x2="639.7383" y1="1584.0547" y2="1580.0547"/><line style="stroke:#181818;stroke-width:1.0;" x1="629.7383" x2="639.7383" y1="1584.0547" y2="1588.0547"/><line style="stroke:#181818;stroke-width:1.0;stroke-dasharray:2.0,2.0;" x1="628.7383" x2="950.916" y1="1584.0547" y2="1584.0547"/><text fill="#000000" font-family="sans-serif" font-size="13" lengthAdjust="spacing" textLength="66.498" x="645.7383" y="1579.1982">question_id</text><path d="M571.459,1599.0547 L631.6299,1599.0547 L631.6299,1607.4063 L621.6299,1617.4063 L571.459,1617.4063 L571.459,1599.0547 " fill="#EEEEEE" style="stroke:#000000;stroke-width:1.5;"/><rect fill="none" height="341.7031" style="stroke:#000000;stroke-width:1.5;" width="601.0459" x="571.459" y="1599.0547"/><text fill="#000000" font-family="sans-serif" font-size="13" font-weight="bold" lengthAdjust="spacing" textLength="15.1709" x="586.459" y="1613.5498">alt</text><text fill="#000000" font-family="sans-serif" font-size="11" font-weight="bold" lengthAdjust="spacing" textLength="95.9385" x="646.6299" y="1612.4736">[MC/FREE/IMAGE]</text><path d="M581.459,1624.4063 L653.8936,1624.4063 L653.8936,1632.7578 L643.8936,1642.7578 L581.459,1642.7578 L581.459,1624.4063 " fill="#EEEEEE" style="stroke:#000000;stroke-width:1.5;"/><rect fill="none" height="139.7578" style="stroke:#000000;stroke-width:1.5;" width="581.0459" x="581.459" y="1624.4063"/><text fill="#000000" font-family="sans-serif" font-size="13" font-weight="bold" lengthAdjust="spacing" textLength="27.4346" x="596.459" y="1638.9014">loop</text><text fill="#000000" font-family="sans-serif" font-size="11" font-weight="bold" lengthAdjust="spacing" textLength="103.27" x="668.8936" y="1637.8252">[pro AnswerOption]</text><line style="stroke:#181818;stroke-width:1.0;" x1="944.916" x2="934.916" y1="1665.1094" y2="1661.1094"/><line style="stroke:#181818;stroke-width:1.0;" x1="944.916" x2="934.916" y1="1665.1094" y2="1669.1094"/><line style="stroke:#181818;stroke-width:1.0;" x1="628.7383" x2="945.916" y1="1665.1094" y2="1665.1094"/><text fill="#000000" font-family="sans-serif" font-size="13" lengthAdjust="spacing" textLength="157.46" x="635.7383" y="1660.2529">INSERT INTO answers (...)</text><line style="stroke:#181818;stroke-width:1.0;" x1="1100.374" x2="1090.374" y1="1695.4609" y2="1691.4609"/><line style="stroke:#181818;stroke-width:1.0;" x1="1100.374" x2="1090.374" y1="1695.4609" y2="1699.4609"/><line style="stroke:#181818;stroke-width:1.0;" x1="956.916" x2="1101.374" y1="1695.4609" y2="1695.4609"/><text fill="#000000" font-family="sans-serif" font-size="13" lengthAdjust="spacing" textLength="77.2954" x="963.916" y="1690.6045">SQL INSERT</text><line style="stroke:#181818;stroke-width:1.0;" x1="957.916" x2="967.916" y1="1725.8125" y2="1721.8125"/><line style="stroke:#181818;stroke-width:1.0;" x1="957.916" x2="967.916" y1="1725.8125" y2="1729.8125"/><line style="stroke:#181818;stroke-width:1.0;stroke-dasharray:2.0,2.0;" x1="956.916" x2="1106.374" y1="1725.8125" y2="1725.8125"/><text fill="#000000" font-family="sans-serif" font-size="13" lengthAdjust="spacing" textLength="18.7827" x="973.916" y="1720.9561">OK</text><line style="stroke:#181818;stroke-width:1.0;" x1="629.7383" x2="639.7383" y1="1756.1641" y2="1752.1641"/><line style="stroke:#181818;stroke-width:1.0;" x1="629.7383" x2="639.7383" y1="1756.1641" y2="1760.1641"/><line style="stroke:#181818;stroke-width:1.0;stroke-dasharray:2.0,2.0;" x1="628.7383" x2="950.916" y1="1756.1641" y2="1756.1641"/><text fill="#000000" font-family="sans-serif" font-size="13" lengthAdjust="spacing" textLength="18.7827" x="645.7383" y="1751.3076">OK</text><line style="stroke:#000000;stroke-width:1.0;stroke-dasharray:2.0,2.0;" x1="571.459" x2="1172.5049" y1="1772.1641" y2="1772.1641"/><text fill="#000000" font-family="sans-serif" font-size="11" font-weight="bold" lengthAdjust="spacing" textLength="44.6016" x="576.459" y="1783.583">[CLOZE]</text><path d="M581.459,1794 L653.8936,1794 L653.8936,1802.3516 L643.8936,1812.3516 L581.459,1812.3516 L581.459,1794 " fill="#EEEEEE" style="stroke:#000000;stroke-width:1.5;"/><rect fill="none" height="139.7578" style="stroke:#000000;stroke-width:1.5;" width="581.0459" x="581.459" y="1794"/><text fill="#000000" font-family="sans-serif" font-size="13" font-weight="bold" lengthAdjust="spacing" textLength="27.4346" x="596.459" y="1808.4951">loop</text><text fill="#000000" font-family="sans-serif" font-size="11" font-weight="bold" lengthAdjust="spacing" textLength="89.8315" x="668.8936" y="1807.4189">[pro ClozeToken]</text><line style="stroke:#181818;stroke-width:1.0;" x1="944.916" x2="934.916" y1="1834.7031" y2="1830.7031"/><line style="stroke:#181818;stroke-width:1.0;" x1="944.916" x2="934.916" y1="1834.7031" y2="1838.7031"/><line style="stroke:#181818;stroke-width:1.0;" x1="628.7383" x2="945.916" y1="1834.7031" y2="1834.7031"/><text fill="#000000" font-family="sans-serif" font-size="13" lengthAdjust="spacing" textLength="195.0381" x="635.7383" y="1829.8467">INSERT INTO cloze_answers (...)</text><line style="stroke:#181818;stroke-width:1.0;" x1="1100.374" x2="1090.374" y1="1865.0547" y2="1861.0547"/><line style="stroke:#181818;stroke-width:1.0;" x1="1100.374" x2="1090.374" y1="1865.0547" y2="1869.0547"/><line style="stroke:#181818;stroke-width:1.0;" x1="956.916" x2="1101.374" y1="1865.0547" y2="1865.0547"/><text fill="#000000" font-family="sans-serif" font-size="13" lengthAdjust="spacing" textLength="77.2954" x="963.916" y="1860.1982">SQL INSERT</text><line style="stroke:#181818;stroke-width:1.0;" x1="957.916" x2="967.916" y1="1895.4063" y2="1891.4063"/><line style="stroke:#181818;stroke-width:1.0;" x1="957.916" x2="967.916" y1="1895.4063" y2="1899.4063"/><line style="stroke:#181818;stroke-width:1.0;stroke-dasharray:2.0,2.0;" x1="956.916" x2="1106.374" y1="1895.4063" y2="1895.4063"/><text fill="#000000" font-family="sans-serif" font-size="13" lengthAdjust="spacing" textLength="18.7827" x="973.916" y="1890.5498">OK</text><line style="stroke:#181818;stroke-width:1.0;" x1="629.7383" x2="639.7383" y1="1925.7578" y2="1921.7578"/><line style="stroke:#181818;stroke-width:1.0;" x1="629.7383" x2="639.7383" y1="1925.7578" y2="1929.7578"/><line style="stroke:#181818;stroke-width:1.0;stroke-dasharray:2.0,2.0;" x1="628.7383" x2="950.916" y1="1925.7578" y2="1925.7578"/><text fill="#000000" font-family="sans-serif" font-size="13" lengthAdjust="spacing" textLength="18.7827" x="645.7383" y="1920.9014">OK</text><line style="stroke:#181818;stroke-width:1.0;" x1="272.6724" x2="282.6724" y1="1986.4609" y2="1982.4609"/><line style="stroke:#181818;stroke-width:1.0;" x1="272.6724" x2="282.6724" y1="1986.4609" y2="1990.4609"/><line style="stroke:#181818;stroke-width:1.0;stroke-dasharray:2.0,2.0;" x1="271.6724" x2="622.7383" y1="1986.4609" y2="1986.4609"/><text fill="#000000" font-family="sans-serif" font-size="13" lengthAdjust="spacing" textLength="44.0845" x="288.6724" y="1965.2529">200 OK</text><text fill="#000000" font-family="sans-serif" font-size="13" lengthAdjust="spacing" textLength="57.0845" x="288.6724" y="1981.6045">JSON {id}</text><path d="M235,1999.4609 L235,2090.4609 L1143,2090.4609 L1143,2009.4609 L1133,1999.4609 L235,1999.4609 " fill="#FEFFDD" style="stroke:#181818;stroke-width:0.5;"/><path d="M1133,1999.4609 L1133,2009.4609 L1143,2009.4609 L1133,1999.4609 " fill="#FEFFDD" style="stroke:#181818;stroke-width:0.5;"/><text fill="#000000" font-family="sans-serif" font-size="13" font-weight="bold" lengthAdjust="spacing" textLength="60.6836" x="485.3154" y="2017.9561">Hinweise:</text><text fill="#000000" font-family="sans-serif" font-size="13" lengthAdjust="spacing" textLength="3.6118" x="485.3154" y="2034.3076">&#160;</text><text fill="#000000" font-family="sans-serif" font-size="13" lengthAdjust="spacing" textLength="301.3296" x="485.3154" y="2050.6592">1. API-Endpunkte liegen unter /api/* (siehe web.xml)</text><text fill="#000000" font-family="sans-serif" font-size="13" lengthAdjust="spacing" textLength="398.874" x="485.3154" y="2067.0107">2. Bewertung/Notenberechnung erfolgt beim Submit (/api/test/submit)</text><text fill="#000000" font-family="sans-serif" font-size="13" lengthAdjust="spacing" textLength="269.5024" x="485.3154" y="2083.3623">3. SQL erfolgt via PreparedStatements (JDBC)</text><!--SRC=[rLVDSk964Bxp55rxGhOHcqtbuWhUuizPrc1Xe7OhMRjS0shZAKipoinWrjxQjzbdo2atlrXwHX98DXYgaaku20tTqzrVVr_FOBY943gOHF8XHc5g7SxcYiKnJ917y0lKOBGGXiS8PpAE5uBVCSEbW6fpsFCgbOGfmsSyOSB0cvQIIutgKbJR4QVDl3V0DBH6mUTnTrGsdSXunWnPZb7Teqej9y6WtPoK3JzsMcteA4v6piQ-bos6Kfkvml55dxRhCCEcJ6EwOQTLgJGQL8ese0qv8IL-gjYSdhSoGk51er6fP1b2xUGao-4OXi5u0dMMyBeXxxhplXGVny4vV0lvpGsVBIBpS0GHZxav0Ye6vrBH0biOEP0X7e7l-zyhR6RuFVsO5rT9dwLODZ-BGuJ63wMjf-h1buIPsqOQ-EerBpv3trdPXIe5zJPPNopeLshS21EfkQ5K_HikmjP3PrLCwbjqjc0VmxZRxxOdjXmu7GK3-3FRIb-Apn-weowiyMYyXs3K8IXRluDY8fGnLTBl3NeJUB-6mlMmuZfhetHQ5EEYRrDK3uIVlddw-rQXM3jG7pijgArJ6g6cS6CqbH2BLjccnSBxN9jVy-fFYlPf6dcvrYSZmZ6yU_iMWhEitxdp9uxBBrV57VAU4iUQmYob8zWKcPeYTroREHtKDBtoUKes8SbH4frNmW3whDsNg4BxUFfXCGWXHErQhQ6q6SnHaqmniYAwGou84zSOI9G4nt7FhzWDRC2r3DXqZbERMWifabc8EHp249Kcc50yxY-8nPI8lqaHEJrweIOr24rXw4kuK6vmZ74cHQZ_0s6u17OhmvarZS4uCJiOdYLRdqNo4Q-pjqj1T5J5gg3QV_fB4t84uo6uMSIYJonQeFUCuoyedWRQXzZw6RCt43jDGkkd7-OHjnDxjNVld7eweSSa09O2GhLOI8X2HXeMNIUI2qFTYjdNrNSw3kmqonjuhTCExgmr3VTAhLaErppSMUjcqxJEICfaJNgdfdrAp_kxGY3lC0MXekd04Pd94QHGNBCb8ss6dejHpiAkR4EWP4tbsVSo4i6PMooZiDwoYCHBKnUVXBxFACjqaBACQZu4HTsaCIAehlL9u6qRSc5CWuP0CnX59WLyZu71h5kzS6oKnkgGFKIIXK39v08qyWv5aM5P3XkqxbBQDYDM8Q-eLaNpaIi4HGT_mwNalRgXdHupXHIU298dkss250csYffIwr_hf43CdKBPOfigXL7F1ktwwQZRhVS6pT-wZaeh_JGT-a5Y_TqlkwLKbD3AvQKoTgbZaqAsgcIpKbvLooR5s3Mh6emqGhiV_F4CZROz12QMYFjXKJeq_j-8x3TBll7m-wOvyUA2SvGbT73mWOibSet71mUquXP_ye7-ITIw8amMueuywP9Z3rRwqq4xkF5n05NDyHRfQZJrlyPHYkix7rPNcFevnHHJf65sA-oL1jMDZEQ6xc8yXh6x0a3r-UKbtUTdts6VUznp1aE5TAfZE3PKb_rNHFsq27dh-zG_]--></g></svg>