<svg xmlns="http://www.w3.org/2000/svg" xmlns:xlink="http://www.w3.org/1999/xlink" contentStyleType="text/css" height="790px" preserveAspectRatio="none" style="width:1358px;height:790px;background:#FFFFFF;" version="1.1" viewBox="0 0 1358 790" width="1358px" zoomAndPan="magnify"><title>Deployment-Diagramm Teil 3 - Datenbank-Struktur</title><defs/><g><text fill="#000000" font-family="sans-serif" font-size="14" font-weight="bold" lengthAdjust="spacing" textLength="336.0615" x="504.3101" y="24.5332">Deployment-Diagramm Teil 3 - Datenbank-Struktur</text><!--cluster PostgreSQL Database: wissentest--><g id="cluster_PostgreSQL Database: wissentest"><path d="M8.5,44.6094 L236.6855,44.6094 A3.75,3.75 0 0 1 239.1855,47.1094 L246.1855,68.2188 L711.5,68.2188 A2.5,2.5 0 0 1 714,70.7188 L714,781.1094 A2.5,2.5 0 0 1 711.5,783.6094 L8.5,783.6094 A2.5,2.5 0 0 1 6,781.1094 L6,47.1094 A2.5,2.5 0 0 1 8.5,44.6094 " fill="none" style="stroke:#000000;stroke-width:1.5;"/><line style="stroke:#000000;stroke-width:1.5;" x1="6" x2="246.1855" y1="68.2188" y2="68.2188"/><text fill="#000000" font-family="sans-serif" font-size="14" font-weight="bold" lengthAdjust="spacing" textLength="227.1855" x="10" y="61.1426">PostgreSQL Database: wissentest</text></g><!--class USERS--><g id="elem_USERS"><rect codeLine="5" fill="#F1F1F1" height="188.875" id="USERS" rx="2.5" ry="2.5" style="stroke:#181818;stroke-width:0.5;" width="222.8682" x="474.5" y="80.6094"/><ellipse cx="564.5669" cy="96.6094" fill="#ADD1B2" rx="11" ry="11" style="stroke:#181818;stroke-width:1.0;"/><path d="M563.4263,97.4063 L563.4263,99.9063 L567.7544,99.9063 L567.7544,98.9844 Q567.7544,98.375 567.9966,98.1094 Q568.2388,97.8438 568.6138,97.8438 Q568.9888,97.8438 569.2231,98.1094 Q569.4575,98.375 569.4575,98.9844 L569.4575,101.6094 L561.4575,101.6094 Q560.8325,101.6094 560.5747,101.375 Q560.3169,101.1406 560.3169,100.75 Q560.3169,100.375 560.5825,100.1406 Q560.8481,99.9063 561.4575,99.9063 L561.7231,99.9063 L561.7231,93.25 L561.4575,93.25 Q560.8325,93.25 560.5747,93.0156 Q560.3169,92.7813 560.3169,92.3906 Q560.3169,92.0156 560.5747,91.7813 Q560.8325,91.5469 561.4575,91.5469 L569.0825,91.5469 L569.0825,94.1406 Q569.0825,94.75 568.856,95.0078 Q568.6294,95.2656 568.2388,95.2656 Q567.8638,95.2656 567.6294,95.0078 Q567.395,94.75 567.395,94.1406 L567.395,93.25 L563.4263,93.25 L563.4263,95.7031 L564.9106,95.7031 Q564.9106,95.0469 565.0356,94.8594 Q565.3013,94.4531 565.77,94.4531 Q566.145,94.4531 566.3794,94.7109 Q566.6138,94.9688 566.6138,95.5781 L566.6138,97.5469 Q566.6138,98.0938 566.4888,98.2813 Q566.2231,98.6719 565.77,98.6719 Q565.3013,98.6719 565.0356,98.2656 Q564.9106,98.0781 564.9106,97.4063 L563.4263,97.4063 Z " fill="#000000"/><text fill="#000000" font-family="sans-serif" font-size="14" lengthAdjust="spacing" textLength="34.2344" x="585.0669" y="102.3379">users</text><line style="stroke:#181818;stroke-width:0.5;" x1="475.5" x2="696.3682" y1="112.6094" y2="112.6094"/><text fill="#000000" font-family="sans-serif" font-size="14" lengthAdjust="spacing" textLength="102.71" x="480.5" y="131.1426">id : SERIAL [PK]</text><text fill="#000000" font-family="sans-serif" font-size="14" lengthAdjust="spacing" textLength="180.5371" x="480.5" y="148.752">reset_requested : BOOLEAN</text><text fill="#000000" font-family="sans-serif" font-size="14" lengthAdjust="spacing" textLength="159.4961" x="480.5" y="166.3613">created_at : TIMESTAMP</text><line style="stroke:#181818;stroke-width:0.5;" x1="475.5" x2="696.3682" y1="173.4375" y2="173.4375"/><text fill="#000000" font-family="sans-serif" font-size="14" lengthAdjust="spacing" textLength="175.0615" x="480.5" y="191.9707">username : VARCHAR(100)</text><text fill="#000000" font-family="sans-serif" font-size="14" lengthAdjust="spacing" textLength="146.2617" x="480.5" y="209.5801">email : VARCHAR(255)</text><text fill="#000000" font-family="sans-serif" font-size="14" lengthAdjust="spacing" textLength="210.8682" x="480.5" y="227.1895">password_hash : VARCHAR(256)</text><text fill="#000000" font-family="sans-serif" font-size="14" lengthAdjust="spacing" textLength="202.2959" x="480.5" y="244.7988">password_salt : VARCHAR(128)</text><text fill="#000000" font-family="sans-serif" font-size="14" lengthAdjust="spacing" textLength="128.3652" x="480.5" y="262.4082">role : VARCHAR(32)</text></g><!--class QUESTIONS--><g id="elem_QUESTIONS"><rect codeLine="16" fill="#F1F1F1" height="206.4844" id="QUESTIONS" rx="2.5" ry="2.5" style="stroke:#181818;stroke-width:0.5;" width="186.2822" x="281" y="347.6094"/><ellipse cx="339.9258" cy="363.6094" fill="#ADD1B2" rx="11" ry="11" style="stroke:#181818;stroke-width:1.0;"/><path d="M338.7852,364.4063 L338.7852,366.9063 L343.1133,366.9063 L343.1133,365.9844 Q343.1133,365.375 343.3555,365.1094 Q343.5977,364.8438 343.9727,364.8438 Q344.3477,364.8438 344.582,365.1094 Q344.8164,365.375 344.8164,365.9844 L344.8164,368.6094 L336.8164,368.6094 Q336.1914,368.6094 335.9336,368.375 Q335.6758,368.1406 335.6758,367.75 Q335.6758,367.375 335.9414,367.1406 Q336.207,366.9063 336.8164,366.9063 L337.082,366.9063 L337.082,360.25 L336.8164,360.25 Q336.1914,360.25 335.9336,360.0156 Q335.6758,359.7813 335.6758,359.3906 Q335.6758,359.0156 335.9336,358.7813 Q336.1914,358.5469 336.8164,358.5469 L344.4414,358.5469 L344.4414,361.1406 Q344.4414,361.75 344.2148,362.0078 Q343.9883,362.2656 343.5977,362.2656 Q343.2227,362.2656 342.9883,362.0078 Q342.7539,361.75 342.7539,361.1406 L342.7539,360.25 L338.7852,360.25 L338.7852,362.7031 L340.2695,362.7031 Q340.2695,362.0469 340.3945,361.8594 Q340.6602,361.4531 341.1289,361.4531 Q341.5039,361.4531 341.7383,361.7109 Q341.9727,361.9688 341.9727,362.5781 L341.9727,364.5469 Q341.9727,365.0938 341.8477,365.2813 Q341.582,365.6719 341.1289,365.6719 Q340.6602,365.6719 340.3945,365.2656 Q340.2695,365.0781 340.2695,364.4063 L338.7852,364.4063 Z " fill="#000000"/><text fill="#000000" font-family="sans-serif" font-size="14" lengthAdjust="spacing" textLength="59.9307" x="360.4258" y="369.3379">questions</text><line style="stroke:#181818;stroke-width:0.5;" x1="282" x2="466.2822" y1="379.6094" y2="379.6094"/><text fill="#000000" font-family="sans-serif" font-size="14" lengthAdjust="spacing" textLength="102.71" x="287" y="398.1426">id : SERIAL [PK]</text><text fill="#000000" font-family="sans-serif" font-size="14" lengthAdjust="spacing" textLength="91.0205" x="287" y="415.752">prompt : TEXT</text><text fill="#000000" font-family="sans-serif" font-size="14" lengthAdjust="spacing" textLength="130.7031" x="287" y="433.3613">difficulty : SMALLINT</text><text fill="#000000" font-family="sans-serif" font-size="14" lengthAdjust="spacing" textLength="111.2549" x="287" y="450.9707">points : INTEGER</text><text fill="#000000" font-family="sans-serif" font-size="14" lengthAdjust="spacing" textLength="172.7236" x="287" y="468.5801">created_by : INTEGER [FK]</text><text fill="#000000" font-family="sans-serif" font-size="14" lengthAdjust="spacing" textLength="159.4961" x="287" y="486.1895">created_at : TIMESTAMP</text><line style="stroke:#181818;stroke-width:0.5;" x1="282" x2="466.2822" y1="493.2656" y2="493.2656"/><text fill="#000000" font-family="sans-serif" font-size="14" lengthAdjust="spacing" textLength="131.4824" x="287" y="511.7988">type : VARCHAR(16)</text><text fill="#000000" font-family="sans-serif" font-size="14" lengthAdjust="spacing" textLength="158.7168" x="287" y="529.4082">category : VARCHAR(64)</text><text fill="#000000" font-family="sans-serif" font-size="14" lengthAdjust="spacing" textLength="174.2822" x="287" y="547.0176">image_url : VARCHAR(255)</text></g><!--class ANSWERS--><g id="elem_ANSWERS"><rect codeLine="28" fill="#F1F1F1" height="136.0469" id="ANSWERS" rx="2.5" ry="2.5" style="stroke:#181818;stroke-width:0.5;" width="187.0684" x="62.5" y="631.6094"/><ellipse cx="125.7188" cy="647.6094" fill="#ADD1B2" rx="11" ry="11" style="stroke:#181818;stroke-width:1.0;"/><path d="M124.5781,648.4063 L124.5781,650.9063 L128.9063,650.9063 L128.9063,649.9844 Q128.9063,649.375 129.1484,649.1094 Q129.3906,648.8438 129.7656,648.8438 Q130.1406,648.8438 130.375,649.1094 Q130.6094,649.375 130.6094,649.9844 L130.6094,652.6094 L122.6094,652.6094 Q121.9844,652.6094 121.7266,652.375 Q121.4688,652.1406 121.4688,651.75 Q121.4688,651.375 121.7344,651.1406 Q122,650.9063 122.6094,650.9063 L122.875,650.9063 L122.875,644.25 L122.6094,644.25 Q121.9844,644.25 121.7266,644.0156 Q121.4688,643.7813 121.4688,643.3906 Q121.4688,643.0156 121.7266,642.7813 Q121.9844,642.5469 122.6094,642.5469 L130.2344,642.5469 L130.2344,645.1406 Q130.2344,645.75 130.0078,646.0078 Q129.7813,646.2656 129.3906,646.2656 Q129.0156,646.2656 128.7813,646.0078 Q128.5469,645.75 128.5469,645.1406 L128.5469,644.25 L124.5781,644.25 L124.5781,646.7031 L126.0625,646.7031 Q126.0625,646.0469 126.1875,645.8594 Q126.4531,645.4531 126.9219,645.4531 Q127.2969,645.4531 127.5313,645.7109 Q127.7656,645.9688 127.7656,646.5781 L127.7656,648.5469 Q127.7656,649.0938 127.6406,649.2813 Q127.375,649.6719 126.9219,649.6719 Q126.4531,649.6719 126.1875,649.2656 Q126.0625,649.0781 126.0625,648.4063 L124.5781,648.4063 Z " fill="#000000"/><text fill="#000000" font-family="sans-serif" font-size="14" lengthAdjust="spacing" textLength="52.1309" x="146.2188" y="653.3379">answers</text><line style="stroke:#181818;stroke-width:0.5;" x1="63.5" x2="248.5684" y1="663.6094" y2="663.6094"/><text fill="#000000" font-family="sans-serif" font-size="14" lengthAdjust="spacing" textLength="102.71" x="68.5" y="682.1426">id : SERIAL [PK]</text><text fill="#000000" font-family="sans-serif" font-size="14" lengthAdjust="spacing" textLength="175.0684" x="68.5" y="699.752">question_id : INTEGER [FK]</text><text fill="#000000" font-family="sans-serif" font-size="14" lengthAdjust="spacing" textLength="122.9307" x="68.5" y="717.3613">answer_text : TEXT</text><text fill="#000000" font-family="sans-serif" font-size="14" lengthAdjust="spacing" textLength="140.041" x="68.5" y="734.9707">is_correct : BOOLEAN</text><text fill="#000000" font-family="sans-serif" font-size="14" lengthAdjust="spacing" textLength="156.3857" x="68.5" y="752.5801">partial_value : NUMERIC</text><line style="stroke:#181818;stroke-width:0.5;" x1="63.5" x2="248.5684" y1="759.6563" y2="759.6563"/></g><!--class CLOZE--><g id="elem_CLOZE"><rect codeLine="36" fill="#F1F1F1" height="136.0469" id="CLOZE" rx="2.5" ry="2.5" style="stroke:#181818;stroke-width:0.5;" width="187.0684" x="284.5" y="631.6094"/><ellipse cx="327.6109" cy="647.6094" fill="#ADD1B2" rx="11" ry="11" style="stroke:#181818;stroke-width:1.0;"/><path d="M326.4703,648.4063 L326.4703,650.9063 L330.7984,650.9063 L330.7984,649.9844 Q330.7984,649.375 331.0406,649.1094 Q331.2828,648.8438 331.6578,648.8438 Q332.0328,648.8438 332.2672,649.1094 Q332.5016,649.375 332.5016,649.9844 L332.5016,652.6094 L324.5016,652.6094 Q323.8766,652.6094 323.6188,652.375 Q323.3609,652.1406 323.3609,651.75 Q323.3609,651.375 323.6266,651.1406 Q323.8922,650.9063 324.5016,650.9063 L324.7672,650.9063 L324.7672,644.25 L324.5016,644.25 Q323.8766,644.25 323.6188,644.0156 Q323.3609,643.7813 323.3609,643.3906 Q323.3609,643.0156 323.6188,642.7813 Q323.8766,642.5469 324.5016,642.5469 L332.1266,642.5469 L332.1266,645.1406 Q332.1266,645.75 331.9,646.0078 Q331.6734,646.2656 331.2828,646.2656 Q330.9078,646.2656 330.6734,646.0078 Q330.4391,645.75 330.4391,645.1406 L330.4391,644.25 L326.4703,644.25 L326.4703,646.7031 L327.9547,646.7031 Q327.9547,646.0469 328.0797,645.8594 Q328.3453,645.4531 328.8141,645.4531 Q329.1891,645.4531 329.4234,645.7109 Q329.6578,645.9688 329.6578,646.5781 L329.6578,648.5469 Q329.6578,649.0938 329.5328,649.2813 Q329.2672,649.6719 328.8141,649.6719 Q328.3453,649.6719 328.0797,649.2656 Q327.9547,649.0781 327.9547,648.4063 L326.4703,648.4063 Z " fill="#000000"/><text fill="#000000" font-family="sans-serif" font-size="14" lengthAdjust="spacing" textLength="92.5996" x="347.8578" y="653.3379">cloze_answers</text><line style="stroke:#181818;stroke-width:0.5;" x1="285.5" x2="470.5684" y1="663.6094" y2="663.6094"/><text fill="#000000" font-family="sans-serif" font-size="14" lengthAdjust="spacing" textLength="102.71" x="290.5" y="682.1426">id : SERIAL [PK]</text><text fill="#000000" font-family="sans-serif" font-size="14" lengthAdjust="spacing" textLength="175.0684" x="290.5" y="699.752">question_id : INTEGER [FK]</text><text fill="#000000" font-family="sans-serif" font-size="14" lengthAdjust="spacing" textLength="155.6338" x="290.5" y="717.3613">token_index : SMALLINT</text><text fill="#000000" font-family="sans-serif" font-size="14" lengthAdjust="spacing" textLength="134.6201" x="290.5" y="734.9707">expected_text : TEXT</text><text fill="#000000" font-family="sans-serif" font-size="14" lengthAdjust="spacing" textLength="156.3857" x="290.5" y="752.5801">partial_value : NUMERIC</text><line style="stroke:#181818;stroke-width:0.5;" x1="285.5" x2="470.5684" y1="759.6563" y2="759.6563"/></g><!--class ATTEMPTS--><g id="elem_ATTEMPTS"><rect codeLine="44" fill="#F1F1F1" height="188.875" id="ATTEMPTS" rx="2.5" ry="2.5" style="stroke:#181818;stroke-width:0.5;" width="196.4199" x="502" y="356.1094"/><ellipse cx="569.1152" cy="372.1094" fill="#ADD1B2" rx="11" ry="11" style="stroke:#181818;stroke-width:1.0;"/><path d="M567.9746,372.9063 L567.9746,375.4063 L572.3027,375.4063 L572.3027,374.4844 Q572.3027,373.875 572.5449,373.6094 Q572.7871,373.3438 573.1621,373.3438 Q573.5371,373.3438 573.7715,373.6094 Q574.0059,373.875 574.0059,374.4844 L574.0059,377.1094 L566.0059,377.1094 Q565.3809,377.1094 565.123,376.875 Q564.8652,376.6406 564.8652,376.25 Q564.8652,375.875 565.1309,375.6406 Q565.3965,375.4063 566.0059,375.4063 L566.2715,375.4063 L566.2715,368.75 L566.0059,368.75 Q565.3809,368.75 565.123,368.5156 Q564.8652,368.2813 564.8652,367.8906 Q564.8652,367.5156 565.123,367.2813 Q565.3809,367.0469 566.0059,367.0469 L573.6309,367.0469 L573.6309,369.6406 Q573.6309,370.25 573.4043,370.5078 Q573.1777,370.7656 572.7871,370.7656 Q572.4121,370.7656 572.1777,370.5078 Q571.9434,370.25 571.9434,369.6406 L571.9434,368.75 L567.9746,368.75 L567.9746,371.2031 L569.459,371.2031 Q569.459,370.5469 569.584,370.3594 Q569.8496,369.9531 570.3184,369.9531 Q570.6934,369.9531 570.9277,370.2109 Q571.1621,370.4688 571.1621,371.0781 L571.1621,373.0469 Q571.1621,373.5938 571.0371,373.7813 Q570.7715,374.1719 570.3184,374.1719 Q569.8496,374.1719 569.584,373.7656 Q569.459,373.5781 569.459,372.9063 L567.9746,372.9063 Z " fill="#000000"/><text fill="#000000" font-family="sans-serif" font-size="14" lengthAdjust="spacing" textLength="53.6895" x="589.6152" y="377.8379">attempts</text><line style="stroke:#181818;stroke-width:0.5;" x1="503" x2="697.4199" y1="388.1094" y2="388.1094"/><text fill="#000000" font-family="sans-serif" font-size="14" lengthAdjust="spacing" textLength="102.71" x="508" y="406.6426">id : SERIAL [PK]</text><text fill="#000000" font-family="sans-serif" font-size="14" lengthAdjust="spacing" textLength="149.3721" x="508" y="424.252">user_id : INTEGER [FK]</text><text fill="#000000" font-family="sans-serif" font-size="14" lengthAdjust="spacing" textLength="148.6064" x="508" y="441.8613">total_points : NUMERIC</text><text fill="#000000" font-family="sans-serif" font-size="14" lengthAdjust="spacing" textLength="148.5928" x="508" y="459.4707">max_points : NUMERIC</text><text fill="#000000" font-family="sans-serif" font-size="14" lengthAdjust="spacing" textLength="130.7031" x="508" y="477.0801">difficulty : SMALLINT</text><text fill="#000000" font-family="sans-serif" font-size="14" lengthAdjust="spacing" textLength="184.4199" x="508" y="494.6895">duration_seconds : INTEGER</text><text fill="#000000" font-family="sans-serif" font-size="14" lengthAdjust="spacing" textLength="159.4961" x="508" y="512.2988">created_at : TIMESTAMP</text><line style="stroke:#181818;stroke-width:0.5;" x1="503" x2="697.4199" y1="519.375" y2="519.375"/><text fill="#000000" font-family="sans-serif" font-size="14" lengthAdjust="spacing" textLength="140.8271" x="508" y="537.9082">grade : VARCHAR(10)</text></g><!--class ATTEMPT_ANSWERS--><g id="elem_ATTEMPT_ANSWERS"><rect codeLine="55" fill="#F1F1F1" height="136.0469" id="ATTEMPT_ANSWERS" rx="2.5" ry="2.5" style="stroke:#181818;stroke-width:0.5;" width="187.8477" x="507" y="631.6094"/><ellipse cx="544.1585" cy="647.6094" fill="#ADD1B2" rx="11" ry="11" style="stroke:#181818;stroke-width:1.0;"/><path d="M543.0179,648.4063 L543.0179,650.9063 L547.346,650.9063 L547.346,649.9844 Q547.346,649.375 547.5882,649.1094 Q547.8304,648.8438 548.2054,648.8438 Q548.5804,648.8438 548.8148,649.1094 Q549.0492,649.375 549.0492,649.9844 L549.0492,652.6094 L541.0492,652.6094 Q540.4242,652.6094 540.1664,652.375 Q539.9085,652.1406 539.9085,651.75 Q539.9085,651.375 540.1742,651.1406 Q540.4398,650.9063 541.0492,650.9063 L541.3148,650.9063 L541.3148,644.25 L541.0492,644.25 Q540.4242,644.25 540.1664,644.0156 Q539.9085,643.7813 539.9085,643.3906 Q539.9085,643.0156 540.1664,642.7813 Q540.4242,642.5469 541.0492,642.5469 L548.6742,642.5469 L548.6742,645.1406 Q548.6742,645.75 548.4476,646.0078 Q548.221,646.2656 547.8304,646.2656 Q547.4554,646.2656 547.221,646.0078 Q546.9867,645.75 546.9867,645.1406 L546.9867,644.25 L543.0179,644.25 L543.0179,646.7031 L544.5023,646.7031 Q544.5023,646.0469 544.6273,645.8594 Q544.8929,645.4531 545.3617,645.4531 Q545.7367,645.4531 545.971,645.7109 Q546.2054,645.9688 546.2054,646.5781 L546.2054,648.5469 Q546.2054,649.0938 546.0804,649.2813 Q545.8148,649.6719 545.3617,649.6719 Q544.8929,649.6719 544.6273,649.2656 Q544.5023,649.0781 544.5023,648.4063 L543.0179,648.4063 Z " fill="#000000"/><text fill="#000000" font-family="sans-serif" font-size="14" lengthAdjust="spacing" textLength="106.6064" x="563.0827" y="653.3379">attempt_answers</text><line style="stroke:#181818;stroke-width:0.5;" x1="508" x2="693.8477" y1="663.6094" y2="663.6094"/><text fill="#000000" font-family="sans-serif" font-size="14" lengthAdjust="spacing" textLength="102.71" x="513" y="682.1426">id : SERIAL [PK]</text><text fill="#000000" font-family="sans-serif" font-size="14" lengthAdjust="spacing" textLength="168.8271" x="513" y="699.752">attempt_id : INTEGER [FK]</text><text fill="#000000" font-family="sans-serif" font-size="14" lengthAdjust="spacing" textLength="175.0684" x="513" y="717.3613">question_id : INTEGER [FK]</text><text fill="#000000" font-family="sans-serif" font-size="14" lengthAdjust="spacing" textLength="133.834" x="513" y="734.9707">given_answer : TEXT</text><text fill="#000000" font-family="sans-serif" font-size="14" lengthAdjust="spacing" textLength="175.8477" x="513" y="752.5801">points_awarded : NUMERIC</text><line style="stroke:#181818;stroke-width:0.5;" x1="508" x2="693.8477" y1="759.6563" y2="759.6563"/></g><!--class IMAGES--><g id="elem_IMAGES"><rect codeLine="63" fill="#F1F1F1" height="118.4375" id="IMAGES" rx="2.5" ry="2.5" style="stroke:#181818;stroke-width:0.5;" width="204.9785" x="234.5" y="116.1094"/><ellipse cx="279.8154" cy="132.1094" fill="#ADD1B2" rx="11" ry="11" style="stroke:#181818;stroke-width:1.0;"/><path d="M278.6748,132.9063 L278.6748,135.4063 L283.0029,135.4063 L283.0029,134.4844 Q283.0029,133.875 283.2451,133.6094 Q283.4873,133.3438 283.8623,133.3438 Q284.2373,133.3438 284.4717,133.6094 Q284.7061,133.875 284.7061,134.4844 L284.7061,137.1094 L276.7061,137.1094 Q276.0811,137.1094 275.8232,136.875 Q275.5654,136.6406 275.5654,136.25 Q275.5654,135.875 275.8311,135.6406 Q276.0967,135.4063 276.7061,135.4063 L276.9717,135.4063 L276.9717,128.75 L276.7061,128.75 Q276.0811,128.75 275.8232,128.5156 Q275.5654,128.2813 275.5654,127.8906 Q275.5654,127.5156 275.8232,127.2813 Q276.0811,127.0469 276.7061,127.0469 L284.3311,127.0469 L284.3311,129.6406 Q284.3311,130.25 284.1045,130.5078 Q283.8779,130.7656 283.4873,130.7656 Q283.1123,130.7656 282.8779,130.5078 Q282.6436,130.25 282.6436,129.6406 L282.6436,128.75 L278.6748,128.75 L278.6748,131.2031 L280.1592,131.2031 Q280.1592,130.5469 280.2842,130.3594 Q280.5498,129.9531 281.0186,129.9531 Q281.3936,129.9531 281.6279,130.2109 Q281.8623,130.4688 281.8623,131.0781 L281.8623,133.0469 Q281.8623,133.5938 281.7373,133.7813 Q281.4717,134.1719 281.0186,134.1719 Q280.5498,134.1719 280.2842,133.7656 Q280.1592,133.5781 280.1592,132.9063 L278.6748,132.9063 Z " fill="#000000"/><text fill="#000000" font-family="sans-serif" font-size="14" lengthAdjust="spacing" textLength="105.8477" x="300.3154" y="137.8379">question_images</text><line style="stroke:#181818;stroke-width:0.5;" x1="235.5" x2="438.4785" y1="148.1094" y2="148.1094"/><text fill="#000000" font-family="sans-serif" font-size="14" lengthAdjust="spacing" textLength="102.71" x="240.5" y="166.6426">id : SERIAL [PK]</text><text fill="#000000" font-family="sans-serif" font-size="14" lengthAdjust="spacing" textLength="84.8203" x="240.5" y="184.252">data : BYTEA</text><text fill="#000000" font-family="sans-serif" font-size="14" lengthAdjust="spacing" textLength="159.4961" x="240.5" y="201.8613">created_at : TIMESTAMP</text><line style="stroke:#181818;stroke-width:0.5;" x1="235.5" x2="438.4785" y1="208.9375" y2="208.9375"/><text fill="#000000" font-family="sans-serif" font-size="14" lengthAdjust="spacing" textLength="192.9785" x="240.5" y="227.4707">content_type : VARCHAR(128)</text></g><!--class CONFIG--><g id="elem_CONFIG"><rect codeLine="70" fill="#F1F1F1" height="100.8281" id="CONFIG" rx="2.5" ry="2.5" style="stroke:#181818;stroke-width:0.5;" width="176.9375" x="22.5" y="124.6094"/><ellipse cx="88.0396" cy="140.6094" fill="#ADD1B2" rx="11" ry="11" style="stroke:#181818;stroke-width:1.0;"/><path d="M86.8989,141.4063 L86.8989,143.9063 L91.2271,143.9063 L91.2271,142.9844 Q91.2271,142.375 91.4692,142.1094 Q91.7114,141.8438 92.0864,141.8438 Q92.4614,141.8438 92.6958,142.1094 Q92.9302,142.375 92.9302,142.9844 L92.9302,145.6094 L84.9302,145.6094 Q84.3052,145.6094 84.0474,145.375 Q83.7896,145.1406 83.7896,144.75 Q83.7896,144.375 84.0552,144.1406 Q84.3208,143.9063 84.9302,143.9063 L85.1958,143.9063 L85.1958,137.25 L84.9302,137.25 Q84.3052,137.25 84.0474,137.0156 Q83.7896,136.7813 83.7896,136.3906 Q83.7896,136.0156 84.0474,135.7813 Q84.3052,135.5469 84.9302,135.5469 L92.5552,135.5469 L92.5552,138.1406 Q92.5552,138.75 92.3286,139.0078 Q92.1021,139.2656 91.7114,139.2656 Q91.3364,139.2656 91.1021,139.0078 Q90.8677,138.75 90.8677,138.1406 L90.8677,137.25 L86.8989,137.25 L86.8989,139.7031 L88.3833,139.7031 Q88.3833,139.0469 88.5083,138.8594 Q88.7739,138.4531 89.2427,138.4531 Q89.6177,138.4531 89.8521,138.7109 Q90.0864,138.9688 90.0864,139.5781 L90.0864,141.5469 Q90.0864,142.0938 89.9614,142.2813 Q89.6958,142.6719 89.2427,142.6719 Q88.7739,142.6719 88.5083,142.2656 Q88.3833,142.0781 88.3833,141.4063 L86.8989,141.4063 Z " fill="#000000"/><text fill="#000000" font-family="sans-serif" font-size="14" lengthAdjust="spacing" textLength="37.3584" x="108.5396" y="146.3379">config</text><line style="stroke:#181818;stroke-width:0.5;" x1="23.5" x2="198.4375" y1="156.6094" y2="156.6094"/><text fill="#000000" font-family="sans-serif" font-size="14" lengthAdjust="spacing" textLength="115.1514" x="28.5" y="175.1426">description : TEXT</text><line style="stroke:#181818;stroke-width:0.5;" x1="23.5" x2="198.4375" y1="182.2188" y2="182.2188"/><text fill="#000000" font-family="sans-serif" font-size="14" lengthAdjust="spacing" textLength="164.9375" x="28.5" y="200.752">key : VARCHAR(128) [PK]</text><text fill="#000000" font-family="sans-serif" font-size="14" lengthAdjust="spacing" textLength="146.2754" x="28.5" y="218.3613">value : VARCHAR(255)</text></g><g id="elem_GMN17"><path d="M733,129.1094 L733,171.1094 L697.95,175.1094 L733,179.1094 L733,220.8672 A0,0 0 0 0 733,220.8672 L905.0107,220.8672 A0,0 0 0 0 905.0107,220.8672 L905.0107,139.1094 L895.0107,129.1094 L733,129.1094 A0,0 0 0 0 733,129.1094 " fill="#FEFFDD" style="stroke:#181818;stroke-width:0.5;"/><path d="M895.0107,129.1094 L895.0107,139.1094 L905.0107,139.1094 L895.0107,129.1094 " fill="#FEFFDD" style="stroke:#181818;stroke-width:0.5;"/><text fill="#000000" font-family="sans-serif" font-size="13" font-weight="bold" lengthAdjust="spacing" textLength="88.8735" x="739" y="147.6045">Users Tabelle:</text><text fill="#000000" font-family="sans-serif" font-size="13" lengthAdjust="spacing" textLength="151.0107" x="739" y="163.9561">- Speichert Sch&#252;ler/Admin</text><text fill="#000000" font-family="sans-serif" font-size="13" lengthAdjust="spacing" textLength="122.1226" x="739" y="180.3076">- Passwort gehashed</text><text fill="#000000" font-family="sans-serif" font-size="13" lengthAdjust="spacing" textLength="114.1626" x="739" y="196.6592">- Rollen-Verwaltung</text><text fill="#000000" font-family="sans-serif" font-size="13" lengthAdjust="spacing" textLength="128.6099" x="739" y="213.0107">- Reset-Anfragen-Flag</text></g><g id="elem_GMN20"><path d="M733,404.6094 L733,496.3672 L934.5718,496.3672 L934.5718,414.6094 L924.5718,404.6094 L733,404.6094 " fill="#FEFFDD" style="stroke:#181818;stroke-width:0.5;"/><path d="M924.5718,404.6094 L924.5718,414.6094 L934.5718,414.6094 L924.5718,404.6094 " fill="#FEFFDD" style="stroke:#181818;stroke-width:1.0;"/><text fill="#000000" font-family="sans-serif" font-size="13" font-weight="bold" lengthAdjust="spacing" textLength="116.3018" x="739" y="423.1045">Questions Tabelle:</text><text fill="#000000" font-family="sans-serif" font-size="13" lengthAdjust="spacing" textLength="95.3735" x="739" y="439.4561">- Alle Testfragen</text><text fill="#000000" font-family="sans-serif" font-size="13" lengthAdjust="spacing" textLength="180.5718" x="739" y="455.8076">- MC / CLOZE / FREE / IMAGE</text><text fill="#000000" font-family="sans-serif" font-size="13" lengthAdjust="spacing" textLength="106.9263" x="739" y="472.1592">- Schwierigkeit 1-3</text><text fill="#000000" font-family="sans-serif" font-size="13" lengthAdjust="spacing" textLength="113.4517" x="739" y="488.5107">- Kategorie-Support</text></g><g id="elem_GMN23"><path d="M730,662.1094 L730,737.5156 L915.7407,737.5156 L915.7407,672.1094 L905.7407,662.1094 L730,662.1094 " fill="#FEFFDD" style="stroke:#181818;stroke-width:0.5;"/><path d="M905.7407,662.1094 L905.7407,672.1094 L915.7407,672.1094 L905.7407,662.1094 " fill="#FEFFDD" style="stroke:#181818;stroke-width:1.0;"/><text fill="#000000" font-family="sans-serif" font-size="13" font-weight="bold" lengthAdjust="spacing" textLength="151.6646" x="736" y="680.6045">Answers (MC Optionen):</text><text fill="#000000" font-family="sans-serif" font-size="13" lengthAdjust="spacing" textLength="101.8926" x="736" y="696.9561">- Antwortoptionen</text><text fill="#000000" font-family="sans-serif" font-size="13" lengthAdjust="spacing" textLength="93.1899" x="736" y="713.3076">- is_correct Flag</text><text fill="#000000" font-family="sans-serif" font-size="13" lengthAdjust="spacing" textLength="164.7407" x="736" y="729.6592">- Partial-Value f&#252;r Teilpunkte</text></g><g id="elem_GMN26"><path d="M951.5,662.1094 L951.5,737.5156 L1122.0635,737.5156 L1122.0635,672.1094 L1112.0635,662.1094 L951.5,662.1094 " fill="#FEFFDD" style="stroke:#181818;stroke-width:0.5;"/><path d="M1112.0635,662.1094 L1112.0635,672.1094 L1122.0635,672.1094 L1112.0635,662.1094 " fill="#FEFFDD" style="stroke:#181818;stroke-width:1.0;"/><text fill="#000000" font-family="sans-serif" font-size="13" font-weight="bold" lengthAdjust="spacing" textLength="88.1245" x="957.5" y="680.6045">Cloze Tokens:</text><text fill="#000000" font-family="sans-serif" font-size="13" lengthAdjust="spacing" textLength="132.2534" x="957.5" y="696.9561">- L&#252;ckentext-L&#246;sungen</text><text fill="#000000" font-family="sans-serif" font-size="13" lengthAdjust="spacing" textLength="148.8462" x="957.5" y="713.3076">- Token-Index f&#252;r Position</text><text fill="#000000" font-family="sans-serif" font-size="13" lengthAdjust="spacing" textLength="149.5635" x="957.5" y="729.6592">- Expected-Text Vergleich</text></g><g id="elem_GMN29"><path d="M970.5,404.6094 L970.5,496.3672 L1169.2407,496.3672 L1169.2407,414.6094 L1159.2407,404.6094 L970.5,404.6094 " fill="#FEFFDD" style="stroke:#181818;stroke-width:0.5;"/><path d="M1159.2407,404.6094 L1159.2407,414.6094 L1169.2407,414.6094 L1159.2407,404.6094 " fill="#FEFFDD" style="stroke:#181818;stroke-width:1.0;"/><text fill="#000000" font-family="sans-serif" font-size="13" font-weight="bold" lengthAdjust="spacing" textLength="156.7554" x="976.5" y="423.1045">Attempts (Testversuche):</text><text fill="#000000" font-family="sans-serif" font-size="13" lengthAdjust="spacing" textLength="172.6943" x="976.5" y="439.4561">- Speichert jeden Testversuch</text><text fill="#000000" font-family="sans-serif" font-size="13" lengthAdjust="spacing" textLength="177.7407" x="976.5" y="455.8076">- Gesamtpunkte &amp; Max-Punkte</text><text fill="#000000" font-family="sans-serif" font-size="13" lengthAdjust="spacing" textLength="105.5044" x="976.5" y="472.1592">- Berechnete Note</text><text fill="#000000" font-family="sans-serif" font-size="13" lengthAdjust="spacing" textLength="103.3145" x="976.5" y="488.5107">- Dauer des Tests</text></g><g id="elem_GMN32"><path d="M1158,662.1094 L1158,737.5156 L1351.6816,737.5156 L1351.6816,672.1094 L1341.6816,662.1094 L1158,662.1094 " fill="#FEFFDD" style="stroke:#181818;stroke-width:0.5;"/><path d="M1341.6816,662.1094 L1341.6816,672.1094 L1351.6816,672.1094 L1341.6816,662.1094 " fill="#FEFFDD" style="stroke:#181818;stroke-width:1.0;"/><text fill="#000000" font-family="sans-serif" font-size="13" font-weight="bold" lengthAdjust="spacing" textLength="111.9536" x="1164" y="680.6045">Attempt-Answers:</text><text fill="#000000" font-family="sans-serif" font-size="13" lengthAdjust="spacing" textLength="138.7217" x="1164" y="696.9561">- Detail zu jeder Antwort</text><text fill="#000000" font-family="sans-serif" font-size="13" lengthAdjust="spacing" textLength="172.6816" x="1164" y="713.3076">- Benutzer-Antwort vs. Punkte</text><text fill="#000000" font-family="sans-serif" font-size="13" lengthAdjust="spacing" textLength="150.2871" x="1164" y="729.6592">- F&#252;r Feedback &amp; Analyse</text></g><!--link USERS to QUESTIONS--><g id="link_USERS_QUESTIONS"><path codeLine="78" d="M508.4384,276.1719 C489.0184,301.2219 483.8666,307.8721 464.1266,333.3421 " fill="none" id="USERS-QUESTIONS" style="stroke:#181818;stroke-width:1.0;"/><line style="stroke:#181818;stroke-width:1.0;" x1="507.7279" x2="514.0505" y1="270.5599" y2="275.4614"/><line style="stroke:#181818;stroke-width:1.0;" x1="505.8899" x2="512.2124" y1="272.9308" y2="277.8324"/><line style="stroke:#181818;stroke-width:1.0;" x1="508.4384" x2="513.34" y1="276.1719" y2="269.8494"/><line style="stroke:#181818;stroke-width:1.0;" x1="458.0007" x2="457.8424" y1="341.2461" y2="351.2449"/><line style="stroke:#181818;stroke-width:1.0;" x1="458.0007" x2="448.3576" y1="341.2461" y2="343.8939"/><line style="stroke:#181818;stroke-width:1.0;" x1="458.0007" x2="453.1" y1="341.2461" y2="347.5694"/><ellipse cx="461.6762" cy="336.5037" fill="none" rx="4" ry="4" style="stroke:#181818;stroke-width:1.0;"/><text fill="#000000" font-family="sans-serif" font-size="13" lengthAdjust="spacing" textLength="42.6309" x="487" y="314.1045">creates</text></g><!--link USERS to ATTEMPTS--><g id="link_USERS_ATTEMPTS"><path codeLine="79" d="M591.2077,277.839 C592.6277,305.669 592.856,310.1931 594.286,338.0131 " fill="none" id="USERS-ATTEMPTS" style="stroke:#181818;stroke-width:1.0;"/><line style="stroke:#181818;stroke-width:1.0;" x1="587.009" x2="594.9986" y1="274.048" y2="273.6403"/><line style="stroke:#181818;stroke-width:1.0;" x1="587.1619" x2="595.1515" y1="277.0441" y2="276.6364"/><line style="stroke:#181818;stroke-width:1.0;" x1="591.2077" x2="590.8" y1="277.839" y2="269.8494"/><line style="stroke:#181818;stroke-width:1.0;" x1="594.7993" x2="601.2021" y1="347.9999" y2="355.6814"/><line style="stroke:#181818;stroke-width:1.0;" x1="594.7993" x2="589.2179" y1="347.9999" y2="356.2974"/><line style="stroke:#181818;stroke-width:1.0;" x1="594.7993" x2="595.21" y1="347.9999" y2="355.9894"/><ellipse cx="594.4913" cy="342.0078" fill="none" rx="4" ry="4" style="stroke:#181818;stroke-width:1.0;"/><text fill="#000000" font-family="sans-serif" font-size="13" lengthAdjust="spacing" textLength="51.2891" x="594" y="314.1045">performs</text></g><!--link QUESTIONS to ANSWERS--><g id="link_QUESTIONS_ANSWERS"><path codeLine="80" d="M278.4651,559.8563 C255.3851,585.9963 248.3622,593.9649 227.2822,617.8449 " fill="none" id="QUESTIONS-ANSWERS" style="stroke:#181818;stroke-width:1.0;"/><line style="stroke:#181818;stroke-width:1.0;" x1="278.114" x2="284.111" y1="554.2104" y2="559.5053"/><line style="stroke:#181818;stroke-width:1.0;" x1="276.1284" x2="282.1254" y1="556.4592" y2="561.7542"/><line style="stroke:#181818;stroke-width:1.0;" x1="278.4651" x2="283.76" y1="559.8563" y2="553.8594"/><line style="stroke:#181818;stroke-width:1.0;" x1="220.6643" x2="219.8681" y1="625.3418" y2="635.3101"/><line style="stroke:#181818;stroke-width:1.0;" x1="220.6643" x2="210.8719" y1="625.3418" y2="627.3686"/><line style="stroke:#181818;stroke-width:1.0;" x1="220.6643" x2="215.37" y1="625.3418" y2="631.3394"/><ellipse cx="224.635" cy="620.8437" fill="none" rx="4" ry="4" style="stroke:#181818;stroke-width:1.0;"/><text fill="#000000" font-family="sans-serif" font-size="13" lengthAdjust="spacing" textLength="20.96" x="252" y="598.1045">has</text></g><!--link QUESTIONS to CLOZE--><g id="link_QUESTIONS_CLOZE"><path codeLine="81" d="M375.7885,561.8583 C376.2085,587.9983 376.2261,589.4618 376.6161,613.3418 " fill="none" id="QUESTIONS-CLOZE" style="stroke:#181818;stroke-width:1.0;"/><line style="stroke:#181818;stroke-width:1.0;" x1="371.7248" x2="379.7237" y1="557.9231" y2="557.7946"/><line style="stroke:#181818;stroke-width:1.0;" x1="371.773" x2="379.7719" y1="560.9227" y2="560.7942"/><line style="stroke:#181818;stroke-width:1.0;" x1="375.7885" x2="375.66" y1="561.8583" y2="553.8594"/><line style="stroke:#181818;stroke-width:1.0;" x1="376.7794" x2="382.9092" y1="623.3404" y2="631.2414"/><line style="stroke:#181818;stroke-width:1.0;" x1="376.7794" x2="370.9108" y1="623.3404" y2="631.4374"/><line style="stroke:#181818;stroke-width:1.0;" x1="376.7794" x2="376.91" y1="623.3404" y2="631.3394"/><ellipse cx="376.6814" cy="617.3412" fill="none" rx="4" ry="4" style="stroke:#181818;stroke-width:1.0;"/><text fill="#000000" font-family="sans-serif" font-size="13" lengthAdjust="spacing" textLength="20.96" x="377" y="598.1045">has</text></g><!--link QUESTIONS to ATTEMPT_ANSWERS--><g id="link_QUESTIONS_ATTEMPT_ANSWERS"><path codeLine="82" d="M472.519,559.6829 C487.179,575.7129 496.79,586.1694 511,601.6094 C519.87,611.2394 517.0151,608.1968 526.2451,618.1568 " fill="none" id="QUESTIONS-ATTEMPT_ANSWERS" style="stroke:#181818;stroke-width:1.0;"/><line style="stroke:#181818;stroke-width:1.0;" x1="466.8677" x2="472.7712" y1="559.4306" y2="554.0316"/><line style="stroke:#181818;stroke-width:1.0;" x1="468.8923" x2="474.7958" y1="561.6444" y2="556.2455"/><line style="stroke:#181818;stroke-width:1.0;" x1="472.519" x2="467.12" y1="559.6829" y2="553.7794"/><line style="stroke:#181818;stroke-width:1.0;" x1="533.0423" x2="542.8809" y1="625.4916" y2="627.2811"/><line style="stroke:#181818;stroke-width:1.0;" x1="533.0423" x2="534.0791" y1="625.4916" y2="635.4377"/><line style="stroke:#181818;stroke-width:1.0;" x1="533.0423" x2="538.48" y1="625.4916" y2="631.3594"/><ellipse cx="528.964" cy="621.0907" fill="none" rx="4" ry="4" style="stroke:#181818;stroke-width:1.0;"/><text fill="#000000" font-family="sans-serif" font-size="13" lengthAdjust="spacing" textLength="79.498" x="512" y="598.1045">referenced_in</text></g><!--link ATTEMPTS to ATTEMPT_ANSWERS--><g id="link_ATTEMPTS_ATTEMPT_ANSWERS"><path codeLine="83" d="M600.4135,553.3393 C600.5335,581.9993 600.5453,586.9395 600.6553,613.4595 " fill="none" id="ATTEMPTS-ATTEMPT_ANSWERS" style="stroke:#181818;stroke-width:1.0;"/><line style="stroke:#181818;stroke-width:1.0;" x1="596.3968" x2="604.3967" y1="549.3561" y2="549.3226"/><line style="stroke:#181818;stroke-width:1.0;" x1="596.4093" x2="604.4093" y1="552.3561" y2="552.3226"/><line style="stroke:#181818;stroke-width:1.0;" x1="600.4135" x2="600.38" y1="553.3393" y2="545.3394"/><line style="stroke:#181818;stroke-width:1.0;" x1="600.6968" x2="606.7299" y1="623.4594" y2="631.4345"/><line style="stroke:#181818;stroke-width:1.0;" x1="600.6968" x2="594.7301" y1="623.4594" y2="631.4843"/><line style="stroke:#181818;stroke-width:1.0;" x1="600.6968" x2="600.73" y1="623.4594" y2="631.4594"/><ellipse cx="600.6719" cy="617.4595" fill="none" rx="4" ry="4" style="stroke:#181818;stroke-width:1.0;"/><text fill="#000000" font-family="sans-serif" font-size="13" lengthAdjust="spacing" textLength="48.4199" x="601" y="598.1045">contains</text></g><!--link QUESTIONS to GMN20--><g id="link_QUESTIONS_GMN20"><path d="M447.41,347.4694 C463.63,331.6794 482.14,317.6494 502.5,308.6094 C581.31,273.6394 617.11,274.9694 696.5,308.6094 C742.16,327.9494 780.08,370.6994 804.45,404.2694 " fill="none" id="QUESTIONS-GMN20" style="stroke:#181818;stroke-width:1.0;stroke-dasharray:7.0,7.0;"/></g><!--link ANSWERS to GMN23--><g id="link_ANSWERS_GMN23"><path d="M220.35,631.3994 C239.33,615.6194 261.3,601.0094 284.5,592.6094 C370.59,561.4594 610.53,561.1294 696.5,592.6094 C734.18,606.4094 768.36,636.9394 791.66,661.8694 " fill="none" id="ANSWERS-GMN23" style="stroke:#181818;stroke-width:1.0;stroke-dasharray:7.0,7.0;"/></g><!--link CLOZE to GMN26--><g id="link_CLOZE_GMN26"><path d="M442.93,631.3994 C462.06,615.6094 484.17,600.9994 507.5,592.6094 C593.02,561.8494 831.54,560.3294 916.5,592.6094 C952.98,606.4694 985.49,636.9994 1007.52,661.9094 " fill="none" id="CLOZE-GMN26" style="stroke:#181818;stroke-width:1.0;stroke-dasharray:7.0,7.0;"/></g><!--link ATTEMPTS to GMN29--><g id="link_ATTEMPTS_GMN29"><path d="M668.02,356.0494 C686.86,336.7994 708.96,319.2194 733.5,308.6094 C815.9,272.9794 853.03,273.1294 935.5,308.6094 C980.57,327.9994 1017.62,370.7394 1041.33,404.2994 " fill="none" id="ATTEMPTS-GMN29" style="stroke:#181818;stroke-width:1.0;stroke-dasharray:7.0,7.0;"/></g><!--link ATTEMPT_ANSWERS to GMN32--><g id="link_ATTEMPT_ANSWERS_GMN32"><path d="M665.93,631.3994 C685.06,615.6094 707.17,600.9994 730.5,592.6094 C812.47,563.1294 1040.37,563.5894 1122.5,592.6094 C1161.53,606.3994 1197.5,637.1094 1222.08,662.1094 " fill="none" id="ATTEMPT_ANSWERS-GMN32" style="stroke:#181818;stroke-width:1.0;stroke-dasharray:7.0,7.0;"/></g><!--SRC=[hLRRSjis47tdLs3qqDgUOPtOJQRZDqQYN4rqiqIxbqo70v4h2XK9CW1eIKxyMttoct-i2v2KA5bAv4xveClk4dlsx04MYgaOI0koE5qbm9NTOZGID4c81omcbyGcBQg0JoYVssCbyhdAXMLbD9ZJ24XZc4eL2HZVT7KSdL09LsJ1fCIrGAe6-M8HVF0VKolIo2K8sI1KajknEngNNlsma5mHj7MSBlaq_FZNsg5VuJG1TDyve-QlpkZaxPitfsi_91I1RfmNxzvjd1cLSf6Aq9zHETiAUhydID9OrTDS_B894cbSXt1vKNE11EKB-9nZnQ3h-30OT5sdluu81229eK_rybwdvuuzfpSqxaVpkKMIMOUbl23gvXQZEuF-KMIfLRP5LBrAaIQPoU_-xgsj8PjEMP37c1TNx3dTRgU_yMOfuqgY1utkjJlQ58JbHAbOrNAz_tcJYoKe3ZyN1_jI4J9PRHOddzgrIbv76ULoKIdBwOz_Er9R5TE-YTYBerZPLx1ymHsJVf0A0O7Qq_AC2iLexD_JEDSjwT_s443pK051d3w0No-ZsHtywVvFHQXq3kZd8IptjHcM6HQ1PE-hyfM5KAK0TLQsmlFStj0xUfz_imI58DQ2hAFGJqANXvtV5ZaUT-7swRBHQPWBQhYL4AGytBiLNYVKWfwjJfSi-QyGRhNCORwEK4N4xb4L1P8NNJTS-dH1HMYEjE-qVPDER_sYhaxFkNQFAWUvnHcZ_DtZgtu0XpXUz3xxmtET_qW-ffcogDXTWtwxSrt3DeVLJkPjY9Nyznvd8SX0i4mJK2VoqNgqh1_9268Z8ZbZcRIAmVVrgssdNsg7-nN2CyN8ndR8UWzXH0PYcee4GpOlLc6bU30APzsUWE8yEUZU5I462fY201uWlumth3MGms_eFbA6WykoUAg021RD54cdnRH7JixERlKDW7Xq0d4CLsTdQBJ9E0CMp40eCWvcpqynY7CdJ1Wtpc4ndXM9G4zn28rrbEBxtBu3iS2fdVEeiEfHR3jyAb25t6x7DBA0XqIZsSMqfi3Wkgc6xYus1t_ZPKYgOarZwpN9UKdeEMcFNFrbr5vK4ymM333F79WYR-rBO_rOZ4m6zZZFCgpd8B2IK0FBASu9Se8f1qPWm4_NqBZInAIbtTXgGybKNp1eZd3xpcXu-lmapEqko_aSin-2OUep89fwE15F3n5PvUu-FmLpVSbRAhlx_8_43fG8J9pTCSF6vC8x8jC8ZTSjPutjwLc3xOjYtVl3P9IgAzWeXmivqGsvHs9obCtfIndz3I5mKWio_ckGD555sUG7qgDBUrXmeBqVKEp1Z0Fw-cbfQz4SpqRStcOj-JsK_bRh2h1ssS8AP0kKlh0-v0Qag9fOGk2vUW1XbqPoBtyYDOXjJMSR89pW_HihS3YDLxBMmdy1]--></g></svg>