<svg xmlns="http://www.w3.org/2000/svg" xmlns:xlink="http://www.w3.org/1999/xlink" contentStyleType="text/css" height="898px" preserveAspectRatio="none" style="width:1680px;height:898px;background:#FFFFFF;" version="1.1" viewBox="0 0 1680 898" width="1680px" zoomAndPan="magnify"><title>Deployment-Diagramm Teil 2 - Backend Application Layers</title><defs/><g><text fill="#000000" font-family="sans-serif" font-size="14" font-weight="bold" lengthAdjust="spacing" textLength="392.8818" x="636.7981" y="24.5332">Deployment-Diagramm Teil 2 - Backend Application Layers</text><!--cluster Web Layer (JSP & Servlets)--><g id="cluster_Web Layer (JSP &amp; Servlets)"><path d="M182.5,183.6094 L366.3477,183.6094 A3.75,3.75 0 0 1 368.8477,186.1094 L375.8477,207.2188 L942.5,207.2188 A2.5,2.5 0 0 1 945,209.7188 L945,298.1094 A2.5,2.5 0 0 1 942.5,300.6094 L182.5,300.6094 A2.5,2.5 0 0 1 180,298.1094 L180,186.1094 A2.5,2.5 0 0 1 182.5,183.6094 " fill="none" style="stroke:#000000;stroke-width:1.5;"/><line style="stroke:#000000;stroke-width:1.5;" x1="180" x2="375.8477" y1="207.2188" y2="207.2188"/><text fill="#000000" font-family="sans-serif" font-size="14" font-weight="bold" lengthAdjust="spacing" textLength="182.8477" x="184" y="200.1426">Web Layer (JSP &amp; Servlets)</text></g><!--cluster Service Layer (Business Logic)--><g id="cluster_Service Layer (Business Logic)"><path d="M487.5,386.6094 L696.251,386.6094 A3.75,3.75 0 0 1 698.751,389.1094 L705.751,410.2188 L1137.5,410.2188 A2.5,2.5 0 0 1 1140,412.7188 L1140,484.1094 A2.5,2.5 0 0 1 1137.5,486.6094 L487.5,486.6094 A2.5,2.5 0 0 1 485,484.1094 L485,389.1094 A2.5,2.5 0 0 1 487.5,386.6094 " fill="none" style="stroke:#000000;stroke-width:1.5;"/><line style="stroke:#000000;stroke-width:1.5;" x1="485" x2="705.751" y1="410.2188" y2="410.2188"/><text fill="#000000" font-family="sans-serif" font-size="14" font-weight="bold" lengthAdjust="spacing" textLength="207.751" x="489" y="403.1426">Service Layer (Business Logic)</text></g><!--cluster DAO Layer (Data Access)--><g id="cluster_DAO Layer (Data Access)"><path d="M8.5,605.6094 L178.3477,605.6094 A3.75,3.75 0 0 1 180.8477,608.1094 L187.8477,629.2188 L1139.5,629.2188 A2.5,2.5 0 0 1 1142,631.7188 L1142,703.1094 A2.5,2.5 0 0 1 1139.5,705.6094 L8.5,705.6094 A2.5,2.5 0 0 1 6,703.1094 L6,608.1094 A2.5,2.5 0 0 1 8.5,605.6094 " fill="none" style="stroke:#000000;stroke-width:1.5;"/><line style="stroke:#000000;stroke-width:1.5;" x1="6" x2="187.8477" y1="629.2188" y2="629.2188"/><text fill="#000000" font-family="sans-serif" font-size="14" font-weight="bold" lengthAdjust="spacing" textLength="168.8477" x="10" y="622.1426">DAO Layer (Data Access)</text></g><!--cluster Model Layer (Data Objects)--><g id="cluster_Model Layer (Data Objects)"><path d="M17.5,791.6094 L198.9893,791.6094 A3.75,3.75 0 0 1 201.4893,794.1094 L208.4893,815.2188 L1016.5,815.2188 A2.5,2.5 0 0 1 1019,817.7188 L1019,889.1094 A2.5,2.5 0 0 1 1016.5,891.6094 L17.5,891.6094 A2.5,2.5 0 0 1 15,889.1094 L15,794.1094 A2.5,2.5 0 0 1 17.5,791.6094 " fill="none" style="stroke:#000000;stroke-width:1.5;"/><line style="stroke:#000000;stroke-width:1.5;" x1="15" x2="208.4893" y1="815.2188" y2="815.2188"/><text fill="#000000" font-family="sans-serif" font-size="14" font-weight="bold" lengthAdjust="spacing" textLength="180.4893" x="19" y="808.1426">Model Layer (Data Objects)</text></g><!--entity AUTH_SRVLT--><g id="elem_AUTH_SRVLT"><rect fill="#F1F1F1" height="65.2188" rx="2.5" ry="2.5" style="stroke:#181818;stroke-width:0.5;" width="112.3721" x="817" y="219.6094"/><rect fill="#F1F1F1" height="10" style="stroke:#181818;stroke-width:0.5;" width="15" x="909.3721" y="224.6094"/><rect fill="#F1F1F1" height="2" style="stroke:#181818;stroke-width:0.5;" width="4" x="907.3721" y="226.6094"/><rect fill="#F1F1F1" height="2" style="stroke:#181818;stroke-width:0.5;" width="4" x="907.3721" y="230.6094"/><text fill="#000000" font-family="sans-serif" font-size="14" lengthAdjust="spacing" textLength="72.3721" x="832" y="254.1426">AuthServlet</text><text fill="#000000" font-family="sans-serif" font-size="14" lengthAdjust="spacing" textLength="63.0479" x="832" y="271.752">/api/auth/*</text></g><!--entity TEST--><g id="elem_TEST"><rect fill="#F1F1F1" height="65.2188" rx="2.5" ry="2.5" style="stroke:#181818;stroke-width:0.5;" width="110.7998" x="512.5" y="219.6094"/><rect fill="#F1F1F1" height="10" style="stroke:#181818;stroke-width:0.5;" width="15" x="603.2998" y="224.6094"/><rect fill="#F1F1F1" height="2" style="stroke:#181818;stroke-width:0.5;" width="4" x="601.2998" y="226.6094"/><rect fill="#F1F1F1" height="2" style="stroke:#181818;stroke-width:0.5;" width="4" x="601.2998" y="230.6094"/><text fill="#000000" font-family="sans-serif" font-size="14" lengthAdjust="spacing" textLength="70.7998" x="527.5" y="254.1426">TestServlet</text><text fill="#000000" font-family="sans-serif" font-size="14" lengthAdjust="spacing" textLength="58.3652" x="527.5" y="271.752">/api/test/*</text></g><!--entity ADMIN--><g id="elem_ADMIN"><rect fill="#F1F1F1" height="65.2188" rx="2.5" ry="2.5" style="stroke:#181818;stroke-width:0.5;" width="123.2549" x="658.5" y="219.6094"/><rect fill="#F1F1F1" height="10" style="stroke:#181818;stroke-width:0.5;" width="15" x="761.7549" y="224.6094"/><rect fill="#F1F1F1" height="2" style="stroke:#181818;stroke-width:0.5;" width="4" x="759.7549" y="226.6094"/><rect fill="#F1F1F1" height="2" style="stroke:#181818;stroke-width:0.5;" width="4" x="759.7549" y="230.6094"/><text fill="#000000" font-family="sans-serif" font-size="14" lengthAdjust="spacing" textLength="83.2549" x="673.5" y="254.1426">AdminServlet</text><text fill="#000000" font-family="sans-serif" font-size="14" lengthAdjust="spacing" textLength="73.9307" x="673.5" y="271.752">/api/admin/*</text></g><!--entity IMAGES--><g id="elem_IMAGES"><rect fill="#F1F1F1" height="65.2188" rx="2.5" ry="2.5" style="stroke:#181818;stroke-width:0.5;" width="122.4824" x="355" y="219.6094"/><rect fill="#F1F1F1" height="10" style="stroke:#181818;stroke-width:0.5;" width="15" x="457.4824" y="224.6094"/><rect fill="#F1F1F1" height="2" style="stroke:#181818;stroke-width:0.5;" width="4" x="455.4824" y="226.6094"/><rect fill="#F1F1F1" height="2" style="stroke:#181818;stroke-width:0.5;" width="4" x="455.4824" y="230.6094"/><text fill="#000000" font-family="sans-serif" font-size="14" lengthAdjust="spacing" textLength="82.4824" x="370" y="254.1426">ImageServlet</text><text fill="#000000" font-family="sans-serif" font-size="14" lengthAdjust="spacing" textLength="80.9307" x="370" y="271.752">/api/images/*</text></g><!--entity HEALTH--><g id="elem_HEALTH"><rect fill="#F1F1F1" height="65.2188" rx="2.5" ry="2.5" style="stroke:#181818;stroke-width:0.5;" width="124.041" x="196" y="219.6094"/><rect fill="#F1F1F1" height="10" style="stroke:#181818;stroke-width:0.5;" width="15" x="300.041" y="224.6094"/><rect fill="#F1F1F1" height="2" style="stroke:#181818;stroke-width:0.5;" width="4" x="298.041" y="226.6094"/><rect fill="#F1F1F1" height="2" style="stroke:#181818;stroke-width:0.5;" width="4" x="298.041" y="230.6094"/><text fill="#000000" font-family="sans-serif" font-size="14" lengthAdjust="spacing" textLength="84.041" x="211" y="254.1426">HealthServlet</text><text fill="#000000" font-family="sans-serif" font-size="14" lengthAdjust="spacing" textLength="42.0342" x="211" y="271.752">/health</text></g><!--entity AUTH--><g id="elem_AUTH"><rect fill="#F1F1F1" height="47.6094" rx="2.5" ry="2.5" style="stroke:#181818;stroke-width:0.5;" width="115.4824" x="1008.5" y="422.6094"/><rect fill="#F1F1F1" height="10" style="stroke:#181818;stroke-width:0.5;" width="15" x="1103.9824" y="427.6094"/><rect fill="#F1F1F1" height="2" style="stroke:#181818;stroke-width:0.5;" width="4" x="1101.9824" y="429.6094"/><rect fill="#F1F1F1" height="2" style="stroke:#181818;stroke-width:0.5;" width="4" x="1101.9824" y="433.6094"/><text fill="#000000" font-family="sans-serif" font-size="14" lengthAdjust="spacing" textLength="75.4824" x="1023.5" y="457.1426">AuthService</text></g><!--entity TEST_SVC--><g id="elem_TEST_SVC"><rect fill="#F1F1F1" height="47.6094" rx="2.5" ry="2.5" style="stroke:#181818;stroke-width:0.5;" width="113.9102" x="501" y="422.6094"/><rect fill="#F1F1F1" height="10" style="stroke:#181818;stroke-width:0.5;" width="15" x="594.9102" y="427.6094"/><rect fill="#F1F1F1" height="2" style="stroke:#181818;stroke-width:0.5;" width="4" x="592.9102" y="429.6094"/><rect fill="#F1F1F1" height="2" style="stroke:#181818;stroke-width:0.5;" width="4" x="592.9102" y="433.6094"/><text fill="#000000" font-family="sans-serif" font-size="14" lengthAdjust="spacing" textLength="73.9102" x="516" y="457.1426">TestService</text></g><!--entity PROG--><g id="elem_PROG"><rect fill="#F1F1F1" height="47.6094" rx="2.5" ry="2.5" style="stroke:#181818;stroke-width:0.5;" width="161.3857" x="650.5" y="422.6094"/><rect fill="#F1F1F1" height="10" style="stroke:#181818;stroke-width:0.5;" width="15" x="791.8857" y="427.6094"/><rect fill="#F1F1F1" height="2" style="stroke:#181818;stroke-width:0.5;" width="4" x="789.8857" y="429.6094"/><rect fill="#F1F1F1" height="2" style="stroke:#181818;stroke-width:0.5;" width="4" x="789.8857" y="433.6094"/><text fill="#000000" font-family="sans-serif" font-size="14" lengthAdjust="spacing" textLength="121.3857" x="665.5" y="457.1426">ProgressionService</text></g><!--entity ADMIN_SVC--><g id="elem_ADMIN_SVC"><rect fill="#F1F1F1" height="47.6094" rx="2.5" ry="2.5" style="stroke:#181818;stroke-width:0.5;" width="126.3652" x="847" y="422.6094"/><rect fill="#F1F1F1" height="10" style="stroke:#181818;stroke-width:0.5;" width="15" x="953.3652" y="427.6094"/><rect fill="#F1F1F1" height="2" style="stroke:#181818;stroke-width:0.5;" width="4" x="951.3652" y="429.6094"/><rect fill="#F1F1F1" height="2" style="stroke:#181818;stroke-width:0.5;" width="4" x="951.3652" y="433.6094"/><text fill="#000000" font-family="sans-serif" font-size="14" lengthAdjust="spacing" textLength="86.3652" x="862" y="457.1426">AdminService</text></g><!--entity USER_DAO--><g id="elem_USER_DAO"><rect fill="#F1F1F1" height="47.6094" rx="2.5" ry="2.5" style="stroke:#181818;stroke-width:0.5;" width="95.2412" x="1030.5" y="641.6094"/><rect fill="#F1F1F1" height="10" style="stroke:#181818;stroke-width:0.5;" width="15" x="1105.7412" y="646.6094"/><rect fill="#F1F1F1" height="2" style="stroke:#181818;stroke-width:0.5;" width="4" x="1103.7412" y="648.6094"/><rect fill="#F1F1F1" height="2" style="stroke:#181818;stroke-width:0.5;" width="4" x="1103.7412" y="652.6094"/><text fill="#000000" font-family="sans-serif" font-size="14" lengthAdjust="spacing" textLength="55.2412" x="1045.5" y="676.1426">UserDao</text></g><!--entity QUESTION_REPO--><g id="elem_QUESTION_REPO"><rect fill="#F1F1F1" height="47.6094" rx="2.5" ry="2.5" style="stroke:#181818;stroke-width:0.5;" width="162.9512" x="509.5" y="641.6094"/><rect fill="#F1F1F1" height="10" style="stroke:#181818;stroke-width:0.5;" width="15" x="652.4512" y="646.6094"/><rect fill="#F1F1F1" height="2" style="stroke:#181818;stroke-width:0.5;" width="4" x="650.4512" y="648.6094"/><rect fill="#F1F1F1" height="2" style="stroke:#181818;stroke-width:0.5;" width="4" x="650.4512" y="652.6094"/><text fill="#000000" font-family="sans-serif" font-size="14" lengthAdjust="spacing" textLength="122.9512" x="524.5" y="676.1426">QuestionRepository</text></g><!--entity ATTEMPT_DAO--><g id="elem_ATTEMPT_DAO"><rect fill="#F1F1F1" height="47.6094" rx="2.5" ry="2.5" style="stroke:#181818;stroke-width:0.5;" width="113.9238" x="219" y="641.6094"/><rect fill="#F1F1F1" height="10" style="stroke:#181818;stroke-width:0.5;" width="15" x="312.9238" y="646.6094"/><rect fill="#F1F1F1" height="2" style="stroke:#181818;stroke-width:0.5;" width="4" x="310.9238" y="648.6094"/><rect fill="#F1F1F1" height="2" style="stroke:#181818;stroke-width:0.5;" width="4" x="310.9238" y="652.6094"/><text fill="#000000" font-family="sans-serif" font-size="14" lengthAdjust="spacing" textLength="73.9238" x="234" y="676.1426">AttemptDao</text></g><!--entity ANSWER_DAO--><g id="elem_ANSWER_DAO"><rect fill="#F1F1F1" height="47.6094" rx="2.5" ry="2.5" style="stroke:#181818;stroke-width:0.5;" width="112.3652" x="883" y="641.6094"/><rect fill="#F1F1F1" height="10" style="stroke:#181818;stroke-width:0.5;" width="15" x="975.3652" y="646.6094"/><rect fill="#F1F1F1" height="2" style="stroke:#181818;stroke-width:0.5;" width="4" x="973.3652" y="648.6094"/><rect fill="#F1F1F1" height="2" style="stroke:#181818;stroke-width:0.5;" width="4" x="973.3652" y="652.6094"/><text fill="#000000" font-family="sans-serif" font-size="14" lengthAdjust="spacing" textLength="72.3652" x="898" y="676.1426">AnswerDao</text></g><!--entity CLOZE_DAO--><g id="elem_CLOZE_DAO"><rect fill="#F1F1F1" height="47.6094" rx="2.5" ry="2.5" style="stroke:#181818;stroke-width:0.5;" width="140.3857" x="708" y="641.6094"/><rect fill="#F1F1F1" height="10" style="stroke:#181818;stroke-width:0.5;" width="15" x="828.3857" y="646.6094"/><rect fill="#F1F1F1" height="2" style="stroke:#181818;stroke-width:0.5;" width="4" x="826.3857" y="648.6094"/><rect fill="#F1F1F1" height="2" style="stroke:#181818;stroke-width:0.5;" width="4" x="826.3857" y="652.6094"/><text fill="#000000" font-family="sans-serif" font-size="14" lengthAdjust="spacing" textLength="100.3857" x="723" y="676.1426">ClozeTokenDao</text></g><!--entity CONFIG_DAO--><g id="elem_CONFIG_DAO"><rect fill="#F1F1F1" height="47.6094" rx="2.5" ry="2.5" style="stroke:#181818;stroke-width:0.5;" width="106.1514" x="368" y="641.6094"/><rect fill="#F1F1F1" height="10" style="stroke:#181818;stroke-width:0.5;" width="15" x="454.1514" y="646.6094"/><rect fill="#F1F1F1" height="2" style="stroke:#181818;stroke-width:0.5;" width="4" x="452.1514" y="648.6094"/><rect fill="#F1F1F1" height="2" style="stroke:#181818;stroke-width:0.5;" width="4" x="452.1514" y="652.6094"/><text fill="#000000" font-family="sans-serif" font-size="14" lengthAdjust="spacing" textLength="66.1514" x="383" y="676.1426">ConfigDao</text></g><!--entity IMAGE_DAO--><g id="elem_IMAGE_DAO"><rect fill="#F1F1F1" height="47.6094" rx="2.5" ry="2.5" style="stroke:#181818;stroke-width:0.5;" width="160.627" x="22.5" y="641.6094"/><rect fill="#F1F1F1" height="10" style="stroke:#181818;stroke-width:0.5;" width="15" x="163.127" y="646.6094"/><rect fill="#F1F1F1" height="2" style="stroke:#181818;stroke-width:0.5;" width="4" x="161.127" y="648.6094"/><rect fill="#F1F1F1" height="2" style="stroke:#181818;stroke-width:0.5;" width="4" x="161.127" y="652.6094"/><text fill="#000000" font-family="sans-serif" font-size="14" lengthAdjust="spacing" textLength="120.627" x="37.5" y="676.1426">QuestionImageDao</text></g><!--entity USER_MODEL--><g id="elem_USER_MODEL"><rect fill="#F1F1F1" height="47.6094" rx="2.5" ry="2.5" style="stroke:#181818;stroke-width:0.5;" width="69.5586" x="31" y="827.6094"/><rect fill="#F1F1F1" height="10" style="stroke:#181818;stroke-width:0.5;" width="15" x="80.5586" y="832.6094"/><rect fill="#F1F1F1" height="2" style="stroke:#181818;stroke-width:0.5;" width="4" x="78.5586" y="834.6094"/><rect fill="#F1F1F1" height="2" style="stroke:#181818;stroke-width:0.5;" width="4" x="78.5586" y="838.6094"/><text fill="#000000" font-family="sans-serif" font-size="14" lengthAdjust="spacing" textLength="29.5586" x="46" y="862.1426">User</text></g><!--entity QUESTION_MODEL--><g id="elem_QUESTION_MODEL"><rect fill="#F1F1F1" height="47.6094" rx="2.5" ry="2.5" style="stroke:#181818;stroke-width:0.5;" width="96.0342" x="307" y="827.6094"/><rect fill="#F1F1F1" height="10" style="stroke:#181818;stroke-width:0.5;" width="15" x="383.0342" y="832.6094"/><rect fill="#F1F1F1" height="2" style="stroke:#181818;stroke-width:0.5;" width="4" x="381.0342" y="834.6094"/><rect fill="#F1F1F1" height="2" style="stroke:#181818;stroke-width:0.5;" width="4" x="381.0342" y="838.6094"/><text fill="#000000" font-family="sans-serif" font-size="14" lengthAdjust="spacing" textLength="56.0342" x="322" y="862.1426">Question</text></g><!--entity ATTEMPT_MODEL--><g id="elem_ATTEMPT_MODEL"><rect fill="#F1F1F1" height="47.6094" rx="2.5" ry="2.5" style="stroke:#181818;stroke-width:0.5;" width="88.2412" x="601" y="827.6094"/><rect fill="#F1F1F1" height="10" style="stroke:#181818;stroke-width:0.5;" width="15" x="669.2412" y="832.6094"/><rect fill="#F1F1F1" height="2" style="stroke:#181818;stroke-width:0.5;" width="4" x="667.2412" y="834.6094"/><rect fill="#F1F1F1" height="2" style="stroke:#181818;stroke-width:0.5;" width="4" x="667.2412" y="838.6094"/><text fill="#000000" font-family="sans-serif" font-size="14" lengthAdjust="spacing" textLength="48.2412" x="616" y="862.1426">Attempt</text></g><!--entity ATTEMPT_RESULT_MODEL--><g id="elem_ATTEMPT_RESULT_MODEL"><rect fill="#F1F1F1" height="47.6094" rx="2.5" ry="2.5" style="stroke:#181818;stroke-width:0.5;" width="127.9238" x="438" y="827.6094"/><rect fill="#F1F1F1" height="10" style="stroke:#181818;stroke-width:0.5;" width="15" x="545.9238" y="832.6094"/><rect fill="#F1F1F1" height="2" style="stroke:#181818;stroke-width:0.5;" width="4" x="543.9238" y="834.6094"/><rect fill="#F1F1F1" height="2" style="stroke:#181818;stroke-width:0.5;" width="4" x="543.9238" y="838.6094"/><text fill="#000000" font-family="sans-serif" font-size="14" lengthAdjust="spacing" textLength="87.9238" x="453" y="862.1426">AttemptResult</text></g><!--entity ANSWER_MODEL--><g id="elem_ANSWER_MODEL"><rect fill="#F1F1F1" height="47.6094" rx="2.5" ry="2.5" style="stroke:#181818;stroke-width:0.5;" width="127.9307" x="875" y="827.6094"/><rect fill="#F1F1F1" height="10" style="stroke:#181818;stroke-width:0.5;" width="15" x="982.9307" y="832.6094"/><rect fill="#F1F1F1" height="2" style="stroke:#181818;stroke-width:0.5;" width="4" x="980.9307" y="834.6094"/><rect fill="#F1F1F1" height="2" style="stroke:#181818;stroke-width:0.5;" width="4" x="980.9307" y="838.6094"/><text fill="#000000" font-family="sans-serif" font-size="14" lengthAdjust="spacing" textLength="87.9307" x="890" y="862.1426">AnswerOption</text></g><!--entity ATTEMPT_ANSWER_MODEL--><g id="elem_ATTEMPT_ANSWER_MODEL"><rect fill="#F1F1F1" height="47.6094" rx="2.5" ry="2.5" style="stroke:#181818;stroke-width:0.5;" width="134.9238" x="136.5" y="827.6094"/><rect fill="#F1F1F1" height="10" style="stroke:#181818;stroke-width:0.5;" width="15" x="251.4238" y="832.6094"/><rect fill="#F1F1F1" height="2" style="stroke:#181818;stroke-width:0.5;" width="4" x="249.4238" y="834.6094"/><rect fill="#F1F1F1" height="2" style="stroke:#181818;stroke-width:0.5;" width="4" x="249.4238" y="838.6094"/><text fill="#000000" font-family="sans-serif" font-size="14" lengthAdjust="spacing" textLength="94.9238" x="151.5" y="862.1426">AttemptAnswer</text></g><!--entity CLOZE_MODEL--><g id="elem_CLOZE_MODEL"><rect fill="#F1F1F1" height="47.6094" rx="2.5" ry="2.5" style="stroke:#181818;stroke-width:0.5;" width="114.7031" x="724.5" y="827.6094"/><rect fill="#F1F1F1" height="10" style="stroke:#181818;stroke-width:0.5;" width="15" x="819.2031" y="832.6094"/><rect fill="#F1F1F1" height="2" style="stroke:#181818;stroke-width:0.5;" width="4" x="817.2031" y="834.6094"/><rect fill="#F1F1F1" height="2" style="stroke:#181818;stroke-width:0.5;" width="4" x="817.2031" y="838.6094"/><text fill="#000000" font-family="sans-serif" font-size="14" lengthAdjust="spacing" textLength="74.7031" x="739.5" y="862.1426">ClozeToken</text></g><g id="elem_GMN47"><path d="M777.5,44.6094 L777.5,136.3672 A0,0 0 0 0 777.5,136.3672 L869,136.3672 L873,219.3894 L877,136.3672 L968.2998,136.3672 A0,0 0 0 0 968.2998,136.3672 L968.2998,54.6094 L958.2998,44.6094 L777.5,44.6094 A0,0 0 0 0 777.5,44.6094 " fill="#FEFFDD" style="stroke:#181818;stroke-width:0.5;"/><path d="M958.2998,44.6094 L958.2998,54.6094 L968.2998,54.6094 L958.2998,44.6094 " fill="#FEFFDD" style="stroke:#181818;stroke-width:0.5;"/><text fill="#000000" font-family="sans-serif" font-size="13" font-weight="bold" lengthAdjust="spacing" textLength="99.7026" x="783.5" y="63.1045">Servlet Handler:</text><text fill="#000000" font-family="sans-serif" font-size="13" lengthAdjust="spacing" textLength="162.5635" x="783.5" y="79.4561">- HTTP Request verarbeiten</text><text fill="#000000" font-family="sans-serif" font-size="13" lengthAdjust="spacing" textLength="169.7998" x="783.5" y="95.8076">- JSON Body lesen/validieren</text><text fill="#000000" font-family="sans-serif" font-size="13" lengthAdjust="spacing" textLength="102.6035" x="783.5" y="112.1592">- Service aufrufen</text><text fill="#000000" font-family="sans-serif" font-size="13" lengthAdjust="spacing" textLength="164.7407" x="783.5" y="128.5107">- JSON Response schreiben</text></g><g id="elem_GMN50"><path d="M995,214.6094 L995,290.0156 A0,0 0 0 0 995,290.0156 L1062,290.0156 L1066,422.3894 L1070,290.0156 L1136.6563,290.0156 A0,0 0 0 0 1136.6563,290.0156 L1136.6563,224.6094 L1126.6563,214.6094 L995,214.6094 A0,0 0 0 0 995,214.6094 " fill="#FEFFDD" style="stroke:#181818;stroke-width:0.5;"/><path d="M1126.6563,214.6094 L1126.6563,224.6094 L1136.6563,224.6094 L1126.6563,214.6094 " fill="#FEFFDD" style="stroke:#181818;stroke-width:0.5;"/><text fill="#000000" font-family="sans-serif" font-size="13" font-weight="bold" lengthAdjust="spacing" textLength="83.8018" x="1001" y="233.1045">Auth Service:</text><text fill="#000000" font-family="sans-serif" font-size="13" lengthAdjust="spacing" textLength="120.6563" x="1001" y="249.4561">- Passwort validieren</text><text fill="#000000" font-family="sans-serif" font-size="13" lengthAdjust="spacing" textLength="106.939" x="1001" y="265.8076">- Session erstellen</text><text fill="#000000" font-family="sans-serif" font-size="13" lengthAdjust="spacing" textLength="85.2681" x="1001" y="282.1592">- Rollen pr&#252;fen</text></g><g id="elem_GMN53"><path d="M1404,400.6094 L1404,492.3672 L1581.7363,492.3672 L1581.7363,410.6094 L1571.7363,400.6094 L1404,400.6094 " fill="#FEFFDD" style="stroke:#181818;stroke-width:0.5;"/><path d="M1571.7363,400.6094 L1571.7363,410.6094 L1581.7363,410.6094 L1571.7363,400.6094 " fill="#FEFFDD" style="stroke:#181818;stroke-width:1.0;"/><text fill="#000000" font-family="sans-serif" font-size="13" font-weight="bold" lengthAdjust="spacing" textLength="156.7363" x="1410" y="419.1045">DAO Implementierungen:</text><text fill="#000000" font-family="sans-serif" font-size="13" lengthAdjust="spacing" textLength="83.0591" x="1410" y="435.4561">- JDBC-Zugriff</text><text fill="#000000" font-family="sans-serif" font-size="13" lengthAdjust="spacing" textLength="104.7744" x="1410" y="451.8076">- SQL-Ausf&#252;hrung</text><text fill="#000000" font-family="sans-serif" font-size="13" lengthAdjust="spacing" textLength="137.2871" x="1410" y="468.1592">- ResultSet zu Objekten</text><text fill="#000000" font-family="sans-serif" font-size="13" lengthAdjust="spacing" textLength="153.2007" x="1410" y="484.5107">- Connection Management</text></g><g id="elem_GMN56"><path d="M1354.5,603.6094 L1354.5,728.0703 L1673.478,728.0703 L1673.478,613.6094 L1663.478,603.6094 L1354.5,603.6094 " fill="#FEFFDD" style="stroke:#181818;stroke-width:0.5;"/><path d="M1663.478,603.6094 L1663.478,613.6094 L1673.478,613.6094 L1663.478,603.6094 " fill="#FEFFDD" style="stroke:#181818;stroke-width:1.0;"/><text fill="#000000" font-family="sans-serif" font-size="13" font-weight="bold" lengthAdjust="spacing" textLength="182.7808" x="1360.5" y="622.1045">Layered Architecture Pattern:</text><text fill="#000000" font-family="sans-serif" font-size="13" lengthAdjust="spacing" textLength="3.6118" x="1360.5" y="638.4561">&#160;</text><text fill="#000000" font-family="sans-serif" font-size="13" lengthAdjust="spacing" textLength="226.2114" x="1360.5" y="654.8076">Requests flie&#223;en von oben nach unten:</text><text fill="#000000" font-family="sans-serif" font-size="13" lengthAdjust="spacing" textLength="187.8906" x="1360.5" y="671.1592">Servlet &#8594; Service &#8594; DAO &#8594; DB</text><text fill="#000000" font-family="sans-serif" font-size="13" lengthAdjust="spacing" textLength="3.6118" x="1360.5" y="687.5107">&#160;</text><text fill="#000000" font-family="sans-serif" font-size="13" lengthAdjust="spacing" textLength="236.3296" x="1360.5" y="703.8623">Responses flie&#223;en von unten nach oben:</text><text fill="#000000" font-family="sans-serif" font-size="13" lengthAdjust="spacing" textLength="297.978" x="1360.5" y="720.2139">DB &#8594; DAO &#8594; Service &#8594; Servlet &#8594; JSP &#8594; Browser</text></g><!--link AUTH_SRVLT to AUTH--><g id="link_AUTH_SRVLT_AUTH"><path d="M892.91,284.8194 C910.65,310.8794 938.76,347.1994 971,370.6094 C978.75,376.2394 982.86,373.5694 991,378.6094 C1010.74,390.8394 1025.9569,404.2173 1040.1169,418.3073 " fill="none" id="AUTH_SRVLT-to-AUTH" style="stroke:#181818;stroke-width:1.0;"/><polygon fill="#181818" points="1044.37,422.5394,1040.8117,413.3558,1040.8257,419.0126,1035.1689,419.0266,1044.37,422.5394" style="stroke:#181818;stroke-width:1.0;"/><text fill="#000000" font-family="sans-serif" font-size="13" lengthAdjust="spacing" textLength="36.1245" x="996.9272" y="334.1045">login()</text><text fill="#000000" font-family="sans-serif" font-size="13" lengthAdjust="spacing" textLength="52.0063" x="988.9863" y="350.4561">register()</text><text fill="#000000" font-family="sans-serif" font-size="13" lengthAdjust="spacing" textLength="85.979" x="972" y="366.8076">resetRequest()</text></g><!--link TEST to TEST_SVC--><g id="link_TEST_TEST_SVC"><path d="M566.35,284.8994 C564.33,323.6594 561.2909,382.2474 559.5109,416.5574 " fill="none" id="TEST-to-TEST_SVC" style="stroke:#181818;stroke-width:1.0;"/><polygon fill="#181818" points="559.2,422.5494,563.6609,413.7687,559.4591,417.5561,555.6717,413.3542,559.2,422.5494" style="stroke:#181818;stroke-width:1.0;"/><text fill="#000000" font-family="sans-serif" font-size="13" lengthAdjust="spacing" textLength="59.2236" x="585.2427" y="334.1045">startTest()</text><text fill="#000000" font-family="sans-serif" font-size="13" lengthAdjust="spacing" textLength="91.7427" x="568.9832" y="350.4561">submitAttempt()</text><text fill="#000000" font-family="sans-serif" font-size="13" lengthAdjust="spacing" textLength="99.709" x="565" y="366.8076">getAllQuestions()</text></g><!--link ADMIN to ADMIN_SVC--><g id="link_ADMIN_ADMIN_SVC"><path d="M710.76,284.6994 C705.13,311.2394 702.6,348.2894 724,370.6094 C740.2,387.4994 807.3,369.8494 829,378.6094 C852.52,388.0994 870.1738,402.7606 885.2438,418.0906 " fill="none" id="ADMIN-to-ADMIN_SVC" style="stroke:#181818;stroke-width:1.0;"/><polygon fill="#181818" points="889.45,422.3694,885.9932,413.1471,885.9448,418.8037,880.2882,418.7554,889.45,422.3694" style="stroke:#181818;stroke-width:1.0;"/><text fill="#000000" font-family="sans-serif" font-size="13" lengthAdjust="spacing" textLength="171.2979" x="725" y="350.6045">create/update/delete question</text></g><!--link IMAGES to IMAGE_DAO--><g id="link_IMAGES_IMAGE_DAO"><path d="M385.71,284.7694 C339.73,333.6394 250.84,431.3494 186,522.6094 C157.64,562.5294 132.8242,607.3797 117.6842,636.1497 " fill="none" id="IMAGES-to-IMAGE_DAO" style="stroke:#181818;stroke-width:1.0;"/><polygon fill="#181818" points="114.89,641.4594,122.621,635.3577,117.2185,637.0347,115.5415,631.6321,114.89,641.4594" style="stroke:#181818;stroke-width:1.0;"/><text fill="#000000" font-family="sans-serif" font-size="13" lengthAdjust="spacing" textLength="97.5508" x="300" y="452.1045">find/save images</text></g><!--link AUTH to USER_DAO--><g id="link_AUTH_USER_DAO"><path d="M1123.72,447.6494 C1180.23,451.1494 1263.69,466.3494 1305,522.6094 C1357.34,593.8994 1212.3802,636.3619 1131.4502,654.1419 " fill="none" id="AUTH-to-USER_DAO" style="stroke:#181818;stroke-width:1.0;"/><polygon fill="#181818" points="1125.59,655.4294,1135.2387,657.405,1130.4735,654.3565,1133.522,649.5913,1125.59,655.4294" style="stroke:#181818;stroke-width:1.0;"/><text fill="#000000" font-family="sans-serif" font-size="13" lengthAdjust="spacing" textLength="104.7554" x="1316" y="537.1045">findByUsername()</text><text fill="#000000" font-family="sans-serif" font-size="13" lengthAdjust="spacing" textLength="44.7891" x="1345.9832" y="553.4561">create()</text><text fill="#000000" font-family="sans-serif" font-size="13" lengthAdjust="spacing" textLength="48.4199" x="1344.1677" y="569.8076">update()</text></g><!--link TEST_SVC to QUESTION_REPO--><g id="link_TEST_SVC_QUESTION_REPO"><path d="M512.21,470.6394 C492.64,483.1194 471.83,500.5394 461,522.6094 C451.01,542.9594 450.53,553.5094 461,573.6094 C463.67,578.7394 513.8377,612.9862 551.4377,638.2162 " fill="none" id="TEST_SVC-to-QUESTION_REPO" style="stroke:#181818;stroke-width:1.0;"/><polygon fill="#181818" points="556.42,641.5594,551.1753,633.2231,552.2681,638.7734,546.7178,639.8661,556.42,641.5594" style="stroke:#181818;stroke-width:1.0;"/><text fill="#000000" font-family="sans-serif" font-size="13" lengthAdjust="spacing" textLength="104.7427" x="462" y="545.6045">findByDifficulty(...)</text><text fill="#000000" font-family="sans-serif" font-size="13" lengthAdjust="spacing" textLength="44.0654" x="492.3386" y="561.9561">findAll()</text></g><!--link TEST_SVC to ANSWER_DAO--><g id="link_TEST_SVC_ANSWER_DAO"><path d="M590.97,470.7494 C603.71,479.0194 618.65,487.9294 633,494.6094 C669.83,511.7494 687.93,497.6794 720,522.6094 C741.12,539.0394 730.05,558.2994 752,573.6094 C794.47,603.2294 819.96,573.9294 866,597.6094 C886.8,608.3094 902.0558,622.1263 915.5758,636.8763 " fill="none" id="TEST_SVC-to-ANSWER_DAO" style="stroke:#181818;stroke-width:1.0;"/><polygon fill="#181818" points="919.63,641.2994,916.4974,631.962,916.2515,637.6135,910.6,637.3676,919.63,641.2994" style="stroke:#181818;stroke-width:1.0;"/><text fill="#000000" font-family="sans-serif" font-size="13" lengthAdjust="spacing" textLength="107.6563" x="753" y="553.6045">findByQuestion(...)</text></g><!--link TEST_SVC to CLOZE_DAO--><g id="link_TEST_SVC_CLOZE_DAO"><path d="M560.82,471.0994 C565.47,499.4094 577.38,546.5294 607,573.6094 C635.34,599.5194 655.7,580.3494 690,597.6094 C712.99,609.1694 731.4658,623.0831 748.1958,637.4331 " fill="none" id="TEST_SVC-to-CLOZE_DAO" style="stroke:#181818;stroke-width:1.0;"/><polygon fill="#181818" points="752.75,641.3394,748.5229,632.4438,748.9548,638.0841,743.3145,638.516,752.75,641.3394" style="stroke:#181818;stroke-width:1.0;"/><text fill="#000000" font-family="sans-serif" font-size="13" lengthAdjust="spacing" textLength="107.6563" x="608" y="553.6045">findByQuestion(...)</text></g><!--link TEST_SVC to ATTEMPT_DAO--><g id="link_TEST_SVC_ATTEMPT_DAO"><path d="M500.75,451.2694 C410.49,458.3594 241.57,477.4494 205,522.6094 C174.9,559.7694 213.872,607.6443 244.912,637.3043 " fill="none" id="TEST_SVC-to-ATTEMPT_DAO" style="stroke:#181818;stroke-width:1.0;"/><polygon fill="#181818" points="249.25,641.4494,245.5064,632.3397,245.635,637.9951,239.9796,638.1237,249.25,641.4494" style="stroke:#181818;stroke-width:1.0;"/><text fill="#000000" font-family="sans-serif" font-size="13" lengthAdjust="spacing" textLength="89.5845" x="226.5886" y="545.6045">createAttempt()</text><text fill="#000000" font-family="sans-serif" font-size="13" lengthAdjust="spacing" textLength="130.7617" x="206" y="561.9561">saveAttemptAnswers()</text></g><!--link TEST_SVC to CONFIG_DAO--><g id="link_TEST_SVC_CONFIG_DAO"><path d="M500.6,451.3994 C452.59,457.9494 386.82,475.5694 354,522.6094 C327.09,561.1694 362.6567,607.9676 391.4667,637.1776 " fill="none" id="TEST_SVC-to-CONFIG_DAO" style="stroke:#181818;stroke-width:1.0;"/><polygon fill="#181818" points="395.68,641.4494,392.2079,632.2328,392.1689,637.8896,386.5122,637.8506,395.68,641.4494" style="stroke:#181818;stroke-width:1.0;"/><text fill="#000000" font-family="sans-serif" font-size="13" lengthAdjust="spacing" textLength="89.6099" x="355" y="553.6045">read thresholds</text></g><!--link ADMIN_SVC to QUESTION_REPO--><g id="link_ADMIN_SVC_QUESTION_REPO"><path d="M909.5,470.7194 C907.54,499.5394 899.56,548.1194 869,573.6094 C807.69,624.7394 765.65,569.3294 691,597.6094 C664.03,607.8294 641.7959,622.7898 622.6759,637.8298 " fill="none" id="ADMIN_SVC-to-QUESTION_REPO" style="stroke:#181818;stroke-width:1.0;"/><polygon fill="#181818" points="617.96,641.5394,627.5068,639.119,621.8899,638.4481,622.5608,632.8312,617.96,641.5394" style="stroke:#181818;stroke-width:1.0;"/><text fill="#000000" font-family="sans-serif" font-size="13" lengthAdjust="spacing" textLength="118.5361" x="901" y="553.6045">create/update/delete</text></g><!--link ADMIN_SVC to ANSWER_DAO--><g id="link_ADMIN_SVC_ANSWER_DAO"><path d="M943.29,470.7894 C957.41,479.5694 974.42,488.8394 991,494.6094 C1031.93,508.8494 1155.64,489.8394 1184,522.6094 C1198.83,539.7494 1198.87,556.4994 1184,573.6094 C1158.82,602.5694 1047.76,581.3494 1013,597.6094 C991.34,607.7494 975.5596,621.9739 961.8996,637.0439 " fill="none" id="ADMIN_SVC-to-ANSWER_DAO" style="stroke:#181818;stroke-width:1.0;"/><polygon fill="#181818" points="957.87,641.4894,966.878,637.5075,961.228,637.7848,960.9507,632.1347,957.87,641.4894" style="stroke:#181818;stroke-width:1.0;"/><text fill="#000000" font-family="sans-serif" font-size="13" lengthAdjust="spacing" textLength="79.479" x="1196" y="553.6045">save answers</text></g><!--link ADMIN_SVC to CLOZE_DAO--><g id="link_ADMIN_SVC_CLOZE_DAO"><path d="M950.74,470.6594 C983.41,489.5694 1024.52,514.4894 1029,522.6094 C1039.95,542.4594 1043.81,556.4494 1029,573.6094 C1005.07,601.3194 899.74,583.3994 866,597.6094 C841.58,607.8894 822.3615,622.5364 805.7415,637.5564 " fill="none" id="ADMIN_SVC-to-CLOZE_DAO" style="stroke:#181818;stroke-width:1.0;"/><polygon fill="#181818" points="801.29,641.5794,810.6492,638.5126,804.9996,638.2269,805.2853,632.5773,801.29,641.5794" style="stroke:#181818;stroke-width:1.0;"/><text fill="#000000" font-family="sans-serif" font-size="13" lengthAdjust="spacing" textLength="113.439" x="1039" y="553.6045">save cloze answers</text></g><!--link USER_DAO to USER_MODEL--><g id="link_USER_DAO_USER_MODEL"><path d="M1060.5,689.6994 C1048.72,703.3394 1031.91,719.4894 1013,727.6094 C906.23,773.4494 604.51,732.7994 491,757.6094 C469.55,762.2994 466.52,771.2794 445,775.6094 C409.48,782.7594 151.42,767.4294 119,783.6094 C100.42,792.8794 89.3197,806.8588 80.3497,822.3288 " fill="none" id="USER_DAO-to-USER_MODEL" style="stroke:#181818;stroke-width:1.0;"/><polygon fill="#181818" points="77.34,827.5194,85.3149,821.74,79.848,823.1939,78.3941,817.7271,77.34,827.5194" style="stroke:#181818;stroke-width:1.0;"/><text fill="#000000" font-family="sans-serif" font-size="13" lengthAdjust="spacing" textLength="40.46" x="492" y="772.1045">returns</text></g><!--link QUESTION_REPO to QUESTION_MODEL--><g id="link_QUESTION_REPO_QUESTION_MODEL"><path d="M557.76,689.8794 C539.06,702.2494 514.92,717.0394 492,727.6094 C452.56,745.7994 431.64,728.9594 399,757.6094 C378.06,775.9894 367.9436,800.7389 361.9536,821.7689 " fill="none" id="QUESTION_REPO-to-QUESTION_MODEL" style="stroke:#181818;stroke-width:1.0;"/><polygon fill="#181818" points="360.31,827.5394,366.6224,819.9794,361.6797,822.7306,358.9284,817.7879,360.31,827.5394" style="stroke:#181818;stroke-width:1.0;"/><text fill="#000000" font-family="sans-serif" font-size="13" lengthAdjust="spacing" textLength="40.46" x="400" y="772.1045">returns</text></g><!--link ATTEMPT_DAO to ATTEMPT_MODEL--><g id="link_ATTEMPT_DAO_ATTEMPT_MODEL"><path d="M298.16,689.8894 C312.07,703.0694 331.1,718.6594 351,727.6094 C448.13,771.2994 499.59,718.6594 584,783.6094 C600.46,796.2694 612.3651,809.0419 623.7151,822.9419 " fill="none" id="ATTEMPT_DAO-to-ATTEMPT_MODEL" style="stroke:#181818;stroke-width:1.0;"/><polygon fill="#181818" points="627.51,827.5894,624.916,818.0883,624.3476,823.7165,618.7194,823.1481,627.51,827.5894" style="stroke:#181818;stroke-width:1.0;"/><text fill="#000000" font-family="sans-serif" font-size="13" lengthAdjust="spacing" textLength="40.46" x="570" y="772.1045">returns</text></g><!--link ANSWER_DAO to ANSWER_MODEL--><g id="link_ANSWER_DAO_ANSWER_MODEL"><path d="M939,689.9094 C939,725.3094 939,786.2094 939,821.4994 " fill="none" id="ANSWER_DAO-to-ANSWER_MODEL" style="stroke:#181818;stroke-width:1.0;"/><polygon fill="#181818" points="939,827.4994,943,818.4994,939,822.4994,935,818.4994,939,827.4994" style="stroke:#181818;stroke-width:1.0;"/><text fill="#000000" font-family="sans-serif" font-size="13" lengthAdjust="spacing" textLength="40.46" x="940" y="772.1045">returns</text></g><!--link CLOZE_DAO to CLOZE_MODEL--><g id="link_CLOZE_DAO_CLOZE_MODEL"><path d="M778.51,689.9094 C779.28,725.3094 780.5991,786.2108 781.3691,821.5008 " fill="none" id="CLOZE_DAO-to-CLOZE_MODEL" style="stroke:#181818;stroke-width:1.0;"/><polygon fill="#181818" points="781.5,827.4994,785.3027,818.4143,781.3909,822.5006,777.3046,818.5888,781.5,827.4994" style="stroke:#181818;stroke-width:1.0;"/><text fill="#000000" font-family="sans-serif" font-size="13" lengthAdjust="spacing" textLength="40.46" x="781" y="772.1045">returns</text></g><!--link GMN53 to USER_DAO--><g id="link_GMN53_USER_DAO"><path d="M1480.49,492.7594 C1470.71,519.9494 1454.43,553.1594 1429,573.6094 C1428.62,573.9094 1221.5,627.4994 1125.64,652.2894 " fill="none" id="GMN53-USER_DAO" style="stroke:#181818;stroke-width:1.0;stroke-dasharray:7.0,7.0;"/></g><!--link GMN53 to GMN56--><g id="link_GMN53_GMN56"><path d="M1497.38,492.8394 C1500.48,524.8794 1504.67,568.2494 1508.08,603.3894 " fill="none" id="GMN53-GMN56" style="stroke:#181818;stroke-width:1.0;stroke-dasharray:7.0,7.0;"/></g><!--SRC=[ZLRRRkCs47ttLn1-Q1C3Ze4-vg60V6dimBTOSXPO10XeUMopAv5QadBWNVIr7z0Vw8_iM_waNz8X9LgYx1G50bYXpfavSuP3IZET01b2beXJ2bntXupk9KrJ4W5Bo2-aI_eq_W9yIu8iIrXCDHESJEa9f6grCdn7zq3Qds1JB9ARnt19VY8Xo6C2MjssoVSM8R58Cy4n0Ma7kJwKRrzuZsQiHt6brsaJgaYmZiQluUfv6lca29JsIHfNIb8q2XlmO9iotaXYbboMuMmozncJ5Elm6SmigP8ocGKFez3dZ84czLeEzdyB7u-2QJHk_L6poE1O3CwcVguO1wN8LEnPNDfqrIWadRrfOfml3cEiU0sV1qtSKegzn6pOl3fykLeyNAHrtftp6hTiq7evms3XIXbIJKaGnnZ_MXrh1N98XOsr3aUhLwJwHZxbM0PAMq4c5DD2dYpuQOtLJ1RprzLekRYGgJMacNQ1WoWQpPPH6Tj7SlLMAGZcuQUp1WytICGtY0HkTeSTJ1UVHvTo1uBlsFuCMin_cpnyN9JTMGvijv75rhsSYIqadfkBpUyGwm_jhBoSBOQZQHFYKlikNeMMDdeUEk0bR0KgJtpmQXIkfzSvrlT5TbPIMlzVEWgEbw31kjgmMhSA7BhxCta6kM5yc_Czy5Prif1kzrSxJEIUj1ESFdvp-y8bx9dI88jd1LZhLsFZpMsxPQRAijnu6QRILEh88bwuoZSfqsKHPc4FEaWIrmXbejWvAfAxYJ9nOWbKGo_FjkO7Dm9e85zT1rl5mMDfvyrZQ3kihAVe4KXnJhLRjaGBT5FcSFsJsJISfc2a5GdDKv7JLMW56RetTrMC8TljM8pzFztStTqXtInZaHVyQiGgidF2KXluyvZzFtXjr2l_QjORKxpjf2uKLZDh8c20BT47xFf195jLTkfZEwvrh4doFR1zeeMO9jAhtW9ZiwyhUElSpdDlxIOlfEjSSWJv8ZtPb-2wWtL7ho2hCcfLNUAg8ggIBb4jBd1lQv4HiVEl-awdl4R9cF9j0lA-qy7bBXb7qPAKeqYE8AdS0DCup-RbOxYOaxxOdaY24yjxHvgmBGDPldOtBirtCj_LENYEuI6YWAWOsyus-CvyuXXvboAjF7CPku1Esv8gzIOawchcjHSjmUvfI99oTINC8yda-u_TX_bgzsEdO-oSf5a2viiCmzk3p2L_7FO7tS_vNk9K5bcVfjqWLxlt7mU3B7BQypf4Mx_bzaxvugp3EupZ3MDapYZ70yJaQ8hQ2Ar5QhNOomdmAr361_G_neu26e1Z9aj9-5VsIP5Tmk3zRwpsYF45saiuZGyavvZ-7e6ksV_y-TUvI-RPL6n_-ovWqQT6H1kd26c2cuZ3lXUW7hIUp7oScj- -56zu95O5_mi0]--></g></svg>