<svg xmlns="http://www.w3.org/2000/svg" xmlns:xlink="http://www.w3.org/1999/xlink" contentStyleType="text/css" height="954px" preserveAspectRatio="none" style="width:820px;height:954px;background:#FFFFFF;" version="1.1" viewBox="0 0 820 954" width="820px" zoomAndPan="magnify"><title>Deployment-Diagramm Teil 1 - High-Level &#220;bersicht</title><defs/><g><text fill="#000000" font-family="sans-serif" font-size="14" font-weight="bold" lengthAdjust="spacing" textLength="345.4063" x="230.47" y="24.5332">Deployment-Diagramm Teil 1 - High-Level &#220;bersicht</text><!--cluster Client Schicht--><g id="cluster_Client Schicht"><path d="M261.5,82.4894 L355.8447,82.4894 A3.75,3.75 0 0 1 358.3447,84.9894 L365.3447,106.0988 L583.5,106.0988 A2.5,2.5 0 0 1 586,108.5988 L586,284.9894 A2.5,2.5 0 0 1 583.5,287.4894 L261.5,287.4894 A2.5,2.5 0 0 1 259,284.9894 L259,84.9894 A2.5,2.5 0 0 1 261.5,82.4894 " fill="none" style="stroke:#000000;stroke-width:1.5;"/><line style="stroke:#000000;stroke-width:1.5;" x1="259" x2="365.3447" y1="106.0988" y2="106.0988"/><text fill="#000000" font-family="sans-serif" font-size="14" font-weight="bold" lengthAdjust="spacing" textLength="93.3447" x="263" y="99.0226">Client Schicht</text></g><!--cluster CLIENT--><g id="cluster_CLIENT"><polygon fill="none" points="291,144.4894,301,134.4894,554,134.4894,554,245.4894,544,255.4894,291,255.4894,291,144.4894" style="stroke:#181818;stroke-width:1.0;"/><line style="stroke:#181818;stroke-width:1.0;" x1="544" x2="554" y1="144.4894" y2="134.4894"/><line style="stroke:#181818;stroke-width:1.0;" x1="291" x2="544" y1="144.4894" y2="144.4894"/><line style="stroke:#181818;stroke-width:1.0;" x1="544" x2="544" y1="144.4894" y2="255.4894"/><text fill="#000000" font-family="sans-serif" font-size="14" font-weight="bold" lengthAdjust="spacing" textLength="168.7793" x="334.1104" y="162.0226">Browser (Student/Admin)</text></g><!--cluster Webserver Schicht--><g id="cluster_Webserver Schicht"><path d="M261.5,353.4894 L388.5479,353.4894 A3.75,3.75 0 0 1 391.0479,355.9894 L398.0479,377.0988 L509.5,377.0988 A2.5,2.5 0 0 1 512,379.5988 L512,548.9894 A2.5,2.5 0 0 1 509.5,551.4894 L261.5,551.4894 A2.5,2.5 0 0 1 259,548.9894 L259,355.9894 A2.5,2.5 0 0 1 261.5,353.4894 " fill="none" style="stroke:#000000;stroke-width:1.5;"/><line style="stroke:#000000;stroke-width:1.5;" x1="259" x2="398.0479" y1="377.0988" y2="377.0988"/><text fill="#000000" font-family="sans-serif" font-size="14" font-weight="bold" lengthAdjust="spacing" textLength="126.0479" x="263" y="370.0226">Webserver Schicht</text></g><!--cluster TOMCAT--><g id="cluster_TOMCAT"><polygon fill="none" points="291,415.4894,301,405.4894,480,405.4894,480,509.4894,470,519.4894,291,519.4894,291,415.4894" style="stroke:#181818;stroke-width:1.0;"/><line style="stroke:#181818;stroke-width:1.0;" x1="470" x2="480" y1="415.4894" y2="405.4894"/><line style="stroke:#181818;stroke-width:1.0;" x1="291" x2="470" y1="415.4894" y2="415.4894"/><line style="stroke:#181818;stroke-width:1.0;" x1="470" x2="470" y1="415.4894" y2="519.4894"/><text fill="#000000" font-family="sans-serif" font-size="14" font-weight="bold" lengthAdjust="spacing" textLength="100.3789" x="331.3105" y="433.0226">Tomcat 8.5 / 11</text></g><!--cluster Datenbankserver Schicht--><g id="cluster_Datenbankserver Schicht"><path d="M8.5,617.4894 L177.5684,617.4894 A3.75,3.75 0 0 1 180.0684,619.9894 L187.0684,641.0988 L243.5,641.0988 A2.5,2.5 0 0 1 246,643.5988 L246,818.9894 A2.5,2.5 0 0 1 243.5,821.4894 L8.5,821.4894 A2.5,2.5 0 0 1 6,818.9894 L6,619.9894 A2.5,2.5 0 0 1 8.5,617.4894 " fill="none" style="stroke:#000000;stroke-width:1.5;"/><line style="stroke:#000000;stroke-width:1.5;" x1="6" x2="187.0684" y1="641.0988" y2="641.0988"/><text fill="#000000" font-family="sans-serif" font-size="14" font-weight="bold" lengthAdjust="spacing" textLength="168.0684" x="10" y="634.0226">Datenbankserver Schicht</text></g><!--cluster DB--><g id="cluster_DB"><polygon fill="none" points="38,679.4894,48,669.4894,214,669.4894,214,779.4894,204,789.4894,38,789.4894,38,679.4894" style="stroke:#181818;stroke-width:1.0;"/><line style="stroke:#181818;stroke-width:1.0;" x1="204" x2="214" y1="679.4894" y2="669.4894"/><line style="stroke:#181818;stroke-width:1.0;" x1="38" x2="204" y1="679.4894" y2="679.4894"/><line style="stroke:#181818;stroke-width:1.0;" x1="204" x2="204" y1="679.4894" y2="789.4894"/><text fill="#000000" font-family="sans-serif" font-size="14" font-weight="bold" lengthAdjust="spacing" textLength="100.3652" x="71.8174" y="697.0226">PostgreSQL 15</text></g><!--cluster Konfiguration--><g id="cluster_Konfiguration"><path d="M211.5,854.4894 L304.2588,854.4894 A3.75,3.75 0 0 1 306.7588,856.9894 L313.7588,878.0988 L585.5,878.0988 A2.5,2.5 0 0 1 588,880.5988 L588,944.9894 A2.5,2.5 0 0 1 585.5,947.4894 L211.5,947.4894 A2.5,2.5 0 0 1 209,944.9894 L209,856.9894 A2.5,2.5 0 0 1 211.5,854.4894 " fill="none" style="stroke:#000000;stroke-width:1.5;"/><line style="stroke:#000000;stroke-width:1.5;" x1="209" x2="313.7588" y1="878.0988" y2="878.0988"/><text fill="#000000" font-family="sans-serif" font-size="14" font-weight="bold" lengthAdjust="spacing" textLength="91.7588" x="213" y="871.0226">Konfiguration</text></g><!--entity FRONTEND--><g id="elem_FRONTEND"><rect fill="#F1F1F1" height="47.6094" rx="2.5" ry="2.5" style="stroke:#181818;stroke-width:0.5;" width="195.6064" x="334" y="183.4894"/><rect fill="#F1F1F1" height="10" style="stroke:#181818;stroke-width:0.5;" width="15" x="509.6064" y="188.4894"/><rect fill="#F1F1F1" height="2" style="stroke:#181818;stroke-width:0.5;" width="4" x="507.6064" y="190.4894"/><rect fill="#F1F1F1" height="2" style="stroke:#181818;stroke-width:0.5;" width="4" x="507.6064" y="194.4894"/><text fill="#000000" font-family="sans-serif" font-size="14" lengthAdjust="spacing" textLength="155.6064" x="349" y="218.0226">HTML5/CSS3/JavaScript</text></g><!--entity WAR--><g id="elem_WAR"><rect fill="#F1F1F1" height="40.6094" rx="2.5" ry="2.5" style="stroke:#181818;stroke-width:0.5;" width="121.8066" x="334" y="454.4894"/><polygon fill="#F1F1F1" points="438.8066,459.4894,438.8066,473.4894,450.8066,473.4894,450.8066,465.4894,444.8066,459.4894,438.8066,459.4894" style="stroke:#181818;stroke-width:0.5;"/><line style="stroke:#181818;stroke-width:0.5;" x1="444.8066" x2="444.8066" y1="459.4894" y2="465.4894"/><line style="stroke:#181818;stroke-width:0.5;" x1="450.8066" x2="444.8066" y1="465.4894" y2="465.4894"/><text fill="#000000" font-family="sans-serif" font-size="14" lengthAdjust="spacing" textLength="91.8066" x="344" y="482.0226">wissentest.war</text></g><!--entity WISSENTEST_DB--><g id="elem_WISSENTEST_DB"><path d="M104.5,728.4894 C104.5,718.4894 147.1792,718.4894 147.1792,718.4894 C147.1792,718.4894 189.8584,718.4894 189.8584,728.4894 L189.8584,755.0988 C189.8584,765.0988 147.1792,765.0988 147.1792,765.0988 C147.1792,765.0988 104.5,765.0988 104.5,755.0988 L104.5,728.4894 " fill="#F1F1F1" style="stroke:#181818;stroke-width:0.5;"/><path d="M104.5,728.4894 C104.5,738.4894 147.1792,738.4894 147.1792,738.4894 C147.1792,738.4894 189.8584,738.4894 189.8584,728.4894 " fill="none" style="stroke:#181818;stroke-width:0.5;"/><text fill="#000000" font-family="sans-serif" font-size="14" lengthAdjust="spacing" textLength="65.3584" x="114.5" y="757.0226">wissentest</text></g><!--entity DB_PROPS--><g id="elem_DB_PROPS"><rect fill="#F1F1F1" height="40.6094" rx="2.5" ry="2.5" style="stroke:#181818;stroke-width:0.5;" width="111.7168" x="225" y="890.4894"/><polygon fill="#F1F1F1" points="319.7168,895.4894,319.7168,909.4894,331.7168,909.4894,331.7168,901.4894,325.7168,895.4894,319.7168,895.4894" style="stroke:#181818;stroke-width:0.5;"/><line style="stroke:#181818;stroke-width:0.5;" x1="325.7168" x2="325.7168" y1="895.4894" y2="901.4894"/><line style="stroke:#181818;stroke-width:0.5;" x1="331.7168" x2="325.7168" y1="901.4894" y2="901.4894"/><text fill="#000000" font-family="sans-serif" font-size="14" lengthAdjust="spacing" textLength="81.7168" x="235" y="918.0226">db.properties</text></g><!--entity WEB_XML--><g id="elem_WEB_XML"><rect fill="#F1F1F1" height="40.6094" rx="2.5" ry="2.5" style="stroke:#181818;stroke-width:0.5;" width="81.3447" x="372.5" y="890.4894"/><polygon fill="#F1F1F1" points="436.8447,895.4894,436.8447,909.4894,448.8447,909.4894,448.8447,901.4894,442.8447,895.4894,436.8447,895.4894" style="stroke:#181818;stroke-width:0.5;"/><line style="stroke:#181818;stroke-width:0.5;" x1="442.8447" x2="442.8447" y1="895.4894" y2="901.4894"/><line style="stroke:#181818;stroke-width:0.5;" x1="448.8447" x2="442.8447" y1="901.4894" y2="901.4894"/><text fill="#000000" font-family="sans-serif" font-size="14" lengthAdjust="spacing" textLength="51.3447" x="382.5" y="918.0226">web.xml</text></g><!--entity POM--><g id="elem_POM"><rect fill="#F1F1F1" height="40.6094" rx="2.5" ry="2.5" style="stroke:#181818;stroke-width:0.5;" width="82.8965" x="488.5" y="890.4894"/><polygon fill="#F1F1F1" points="554.3965,895.4894,554.3965,909.4894,566.3965,909.4894,566.3965,901.4894,560.3965,895.4894,554.3965,895.4894" style="stroke:#181818;stroke-width:0.5;"/><line style="stroke:#181818;stroke-width:0.5;" x1="560.3965" x2="560.3965" y1="895.4894" y2="901.4894"/><line style="stroke:#181818;stroke-width:0.5;" x1="566.3965" x2="560.3965" y1="901.4894" y2="901.4894"/><text fill="#000000" font-family="sans-serif" font-size="14" lengthAdjust="spacing" textLength="52.8965" x="498.5" y="918.0226">pom.xml</text></g><g id="elem_GMN20"><path d="M602,153.4894 L602,261.5988 L754.4727,261.5988 L754.4727,163.4894 L744.4727,153.4894 L602,153.4894 " fill="#FEFFDD" style="stroke:#181818;stroke-width:0.5;"/><path d="M744.4727,153.4894 L744.4727,163.4894 L754.4727,163.4894 L744.4727,153.4894 " fill="#FEFFDD" style="stroke:#181818;stroke-width:1.0;"/><text fill="#000000" font-family="sans-serif" font-size="13" font-weight="bold" lengthAdjust="spacing" textLength="129.27" x="608" y="171.9845">Client-Technologien:</text><text fill="#000000" font-family="sans-serif" font-size="13" lengthAdjust="spacing" textLength="84.5" x="608" y="188.3361">- HTML5 DOM</text><text fill="#000000" font-family="sans-serif" font-size="13" lengthAdjust="spacing" textLength="131.4727" x="608" y="204.6876">- CSS3 (Flexbox, Grid)</text><text fill="#000000" font-family="sans-serif" font-size="13" lengthAdjust="spacing" textLength="111.2681" x="608" y="221.0392">- Vanilla JavaScript</text><text fill="#000000" font-family="sans-serif" font-size="13" lengthAdjust="spacing" textLength="108.3672" x="608" y="237.3907">- Fetch API / AJAX</text><text fill="#000000" font-family="sans-serif" font-size="13" lengthAdjust="spacing" textLength="104.7681" x="608" y="253.7423">- Session Cookies</text></g><g id="elem_GMN23"><path d="M528.5,420.9894 L528.5,529.0988 L673.7681,529.0988 L673.7681,430.9894 L663.7681,420.9894 L528.5,420.9894 " fill="#FEFFDD" style="stroke:#181818;stroke-width:0.5;"/><path d="M663.7681,420.9894 L663.7681,430.9894 L673.7681,430.9894 L663.7681,420.9894 " fill="#FEFFDD" style="stroke:#181818;stroke-width:1.0;"/><text fill="#000000" font-family="sans-serif" font-size="13" font-weight="bold" lengthAdjust="spacing" textLength="94.6499" x="534.5" y="439.4845">Tomcat Server:</text><text fill="#000000" font-family="sans-serif" font-size="13" lengthAdjust="spacing" textLength="83.0845" x="534.5" y="455.8361">- Java 17 JVM</text><text fill="#000000" font-family="sans-serif" font-size="13" lengthAdjust="spacing" textLength="111.9663" x="534.5" y="472.1876">- WAR-Deployment</text><text fill="#000000" font-family="sans-serif" font-size="13" lengthAdjust="spacing" textLength="110.5254" x="534.5" y="488.5392">- Port 8080 (HTTP)</text><text fill="#000000" font-family="sans-serif" font-size="13" lengthAdjust="spacing" textLength="119.1963" x="534.5" y="504.8907">- Port 8443 (HTTPS)</text><text fill="#000000" font-family="sans-serif" font-size="13" lengthAdjust="spacing" textLength="124.2681" x="534.5" y="521.2423">- Context: /wissentest</text></g><g id="elem_GMN26"><path d="M630.5,679.9894 L630.5,804.4503 L813.3462,804.4503 L813.3462,689.9894 L803.3462,679.9894 L630.5,679.9894 " fill="#FEFFDD" style="stroke:#181818;stroke-width:0.5;"/><path d="M803.3462,679.9894 L803.3462,689.9894 L813.3462,689.9894 L803.3462,679.9894 " fill="#FEFFDD" style="stroke:#181818;stroke-width:1.0;"/><text fill="#000000" font-family="sans-serif" font-size="13" font-weight="bold" lengthAdjust="spacing" textLength="149.5254" x="636.5" y="698.4845">PostgreSQL Datenbank:</text><text fill="#000000" font-family="sans-serif" font-size="13" lengthAdjust="spacing" textLength="125.7344" x="636.5" y="714.8361">- Host: localhost:5432</text><text fill="#000000" font-family="sans-serif" font-size="13" lengthAdjust="spacing" textLength="131.5044" x="636.5" y="731.1876">- Database: wissentest</text><text fill="#000000" font-family="sans-serif" font-size="13" lengthAdjust="spacing" textLength="85.2554" x="636.5" y="747.5392">- User: student</text><text fill="#000000" font-family="sans-serif" font-size="13" lengthAdjust="spacing" textLength="161.8462" x="636.5" y="763.8907">- Connection Pool: HikariCP</text><text fill="#000000" font-family="sans-serif" font-size="13" lengthAdjust="spacing" textLength="68.6499" x="636.5" y="780.2423">- 8 Tabellen</text><text fill="#000000" font-family="sans-serif" font-size="13" lengthAdjust="spacing" textLength="135.1162" x="636.5" y="796.5939">- Indexes &amp; Constraints</text></g><!--link CLIENT to TOMCAT--><g id="link_CLIENT_TOMCAT"><path d="M299,255.8842 C299,257.4914 299,259.1276 299,260.7908 C299,264.1173 299,267.552 299,271.0795 C299,278.1344 299,285.5602 299,293.2334 C299,308.5798 299,324.9153 299,341.2506 C299,357.5859 299,373.921 299,389.2664 C299,393.1028 299,396.8773 299,400.5745 C299,401.4988 299,402.4182 299,403.3326 C299,403.7898 299,404.2457 299,404.7004 C299,404.9277 299,399.1547 299,399.3813 " fill="none" id="CLIENT-to-TOMCAT" style="stroke:#181818;stroke-width:1.0;"/><polygon fill="#181818" points="299,405.3813,303,396.3813,299,400.3813,295,396.3813,299,405.3813" style="stroke:#181818;stroke-width:1.0;"/><text fill="#000000" font-family="sans-serif" font-size="13" lengthAdjust="spacing" textLength="51.27" x="318.8176" y="317.9845">HTTP(S)</text><text fill="#000000" font-family="sans-serif" font-size="13" lengthAdjust="spacing" textLength="88.9053" x="300" y="334.3361">Port 8080/8443</text></g><!--link TOMCAT to DB--><g id="link_TOMCAT_DB"><path d="M290.9505,478.3505 C286.3796,479.7573 280.0339,481.8015 272.3622,484.5061 C257.0188,489.9153 236.3713,497.9662 214.01,508.8431 C169.2875,530.5969 117.71,563.6544 88,609.4894 C80.095,621.6844 74.93,635.8413 71.6352,650.2558 C70.8114,653.8594 70.1046,657.4792 69.5011,661.0884 C69.1993,662.893 68.9234,664.6949 68.6716,666.491 C68.5456,667.389 69.1846,662.3337 69.0705,663.2283 " fill="none" id="TOMCAT-to-DB" style="stroke:#181818;stroke-width:1.0;"/><polygon fill="#181818" points="68.3117,669.1801,73.4178,660.7583,68.9441,664.2202,65.4821,659.7465,68.3117,669.1801" style="stroke:#181818;stroke-width:1.0;"/><text fill="#000000" font-family="sans-serif" font-size="13" lengthAdjust="spacing" textLength="63.5591" x="124" y="581.9845">JDBC/TCP</text><text fill="#000000" font-family="sans-serif" font-size="13" lengthAdjust="spacing" textLength="56.3735" x="127.5928" y="598.3361">Port 5432</text></g><!--link TOMCAT to DB_PROPS--><g id="link_TOMCAT_DB_PROPS"><path d="M297.1887,519.7453 C297.0352,523.445 296.8738,527.3363 296.7052,531.4022 C295.3559,563.9294 293.5431,607.6306 291.6287,653.7794 C287.8,746.0769 283.8137,842.1695 282.0687,884.2345 " fill="none" id="TOMCAT-to-DB_PROPS" style="stroke:#181818;stroke-width:1.0;stroke-dasharray:7.0,7.0;"/><polygon fill="#181818" points="281.82,890.2294,286.1896,881.4029,282.0272,885.2337,278.1965,881.0713,281.82,890.2294" style="stroke:#181818;stroke-width:1.0;"/><text fill="#000000" font-family="sans-serif" font-size="13" lengthAdjust="spacing" textLength="27.46" x="295" y="747.4845">Liest</text></g><!--link TOMCAT to WEB_XML--><g id="link_TOMCAT_WEB_XML"><path d="M307.7499,519.5764 C307.7812,519.7155 307.8125,519.8548 307.844,519.9942 C307.9697,520.5519 308.0965,521.1117 308.2244,521.6735 C308.4801,522.7972 308.74,523.9287 309.004,525.0665 C309.532,527.3421 310.0763,529.6429 310.6356,531.9561 C312.8731,541.2088 315.3525,550.6594 318,559.4894 C319.09,563.1294 319.84,563.8694 321,567.4894 C359.95,688.8394 394.6835,832.0394 407.0835,884.6494 " fill="none" id="TOMCAT-to-WEB_XML" style="stroke:#181818;stroke-width:1.0;stroke-dasharray:7.0,7.0;"/><polygon fill="#181818" points="408.46,890.4894,410.2886,880.8118,407.3129,885.6227,402.502,882.647,408.46,890.4894" style="stroke:#181818;stroke-width:1.0;"/><text fill="#000000" font-family="sans-serif" font-size="13" lengthAdjust="spacing" textLength="62.1499" x="395" y="747.4845">Verwendet</text></g><!--link TOMCAT to POM--><g id="link_TOMCAT_POM"><path d="M299.8774,519.6003 C299.9011,519.74 299.925,519.8799 299.9492,520.0198 C299.9977,520.2996 300.0471,520.5796 300.0976,520.8597 C300.1987,521.42 300.304,521.9811 300.4138,522.5424 C301.2918,527.0336 302.4527,531.5491 303.9722,535.9361 C307.0113,544.71 311.485,552.9694 318,559.4894 C329.28,570.7794 337.71,562.9194 353,567.4894 C404.34,582.8294 430.98,568.9394 466,609.4894 C538.17,693.0494 535.8891,831.964 532.2191,884.374 " fill="none" id="TOMCAT-to-POM" style="stroke:#181818;stroke-width:1.0;stroke-dasharray:7.0,7.0;"/><polygon fill="#181818" points="531.8,890.3594,536.4189,881.6608,532.1493,885.3716,528.4385,881.1019,531.8,890.3594" style="stroke:#181818;stroke-width:1.0;"/><text fill="#000000" font-family="sans-serif" font-size="13" lengthAdjust="spacing" textLength="63.5845" x="533" y="747.4845">Gebaut mit</text></g><!--link CLIENT to GMN20--><g id="link_CLIENT_GMN20"><path d="M293.8429,134.4315 C293.8805,133.9116 293.9203,133.3915 293.9621,132.8714 C294.1296,130.7907 294.3311,128.7088 294.5699,126.6319 C295.0475,122.478 295.6744,118.344 296.4767,114.2799 C298.0814,106.1517 300.3876,98.3032 303.6042,91.1348 C310.0375,76.7981 320.1125,65.1819 335.5,59.4894 C375.72,44.6094 488.28,44.6094 528.5,59.4894 C575.77,76.9794 615.52,118.6194 642.12,153.2894 " fill="none" id="CLIENT-GMN20" style="stroke:#181818;stroke-width:1.0;stroke-dasharray:7.0,7.0;"/></g><!--link TOMCAT to GMN23--><g id="link_TOMCAT_GMN23"><path d="M294.0175,405.0781 C295.9875,371.8369 305.675,336.0194 335.5,320.4894 C382.41,296.0694 405.91,299.5994 454.5,320.4894 C501.87,340.8494 541.12,384.8994 567.03,420.7694 " fill="none" id="TOMCAT-GMN23" style="stroke:#181818;stroke-width:1.0;stroke-dasharray:7.0,7.0;"/></g><!--link DB to GMN26--><g id="link_DB_GMN26"><path d="M63.6591,669.1418 C63.7255,668.0631 63.8001,666.982 63.8832,665.8994 C64.0495,663.7341 64.2499,661.5628 64.4877,659.3912 C64.9635,655.0482 65.589,650.7044 66.3906,646.4078 C67.9938,637.8146 70.3012,629.4099 73.5227,621.5764 C79.9656,605.9094 90.065,592.5269 105.5,584.4894 C152.81,559.8594 536.99,562.3394 585.5,584.4894 C628.45,604.0994 663.09,644.6494 686.72,679.6894 " fill="none" id="DB-GMN26" style="stroke:#181818;stroke-width:1.0;stroke-dasharray:7.0,7.0;"/></g><!--SRC=[VLHTRzem57tFhxZYOGCqeAn5GpnCWeH-C2XPaxLzc5GvoIrO93PoJ66Q-a_sR_R7Tkq4o52tF2Nt7FiSttiSpNMAuE4wbJyo5BhbSRPGBCiWH9v25rfmpHVBrXHVC8NVlo9KEO-Nsd7MB5wn1KBDJJajX21U6g06FnsWHyY4i96IsnmLr0EzIOZL6IOP5uqQi1pSwStuDYpfvebbjfR2x5Mx3cVJNiSDWlFEXBsm85PyhUsgoxlvRJY-zUogL-UrOkG18z9w8RatlOGoYvc6Vhi77UXsxMxXVEOEgnwOqloPnMHXo_ESl62ksrkcBFjXUFU6hCSqYeY9rV_4VPdhXSBWwnIwFRkPDwh89aopYELObIqaRuA0kZGEmYTlz8Ru5ocU-MAZcEPIx2MFXqYYzbh9DL81yrBsoR-R-y49SOjHUvUbXUPuzFGucvumrZ8xCFpvpBXu3_Ue8YwIZLYWSCg1jbgVztqTc4c6VZreV1U-LDJyi_vPftznSLvpIefXKok8EV56RYTq_PBQkpZ_M7CEjBRb5TuDUyfDY_w2Izy69LzR50cUCCYtGQymOXiD6IVO4L8ZACgu1lbSXfAEtcmMkMw562-5JEM2lWRD9a5q9KmymQCkc2yJKwXVfhYBvEu3N2cUD2nmpmHFKmR72Dlo9Ufu2KF_Xd8ud0mVRJ70FASHWYlbYexca7imrauD5iUn1ij01pPsUsj62xgVO79VcAFCjexNsvOEau2wcKwZKgJ95CMWgBgIehZJ0-WSS_bFQpQWpMObweUhSMWSOGD8PSpIfNarGxQ0Lrw00LI43F2DRjK0ykBtiVSaC3Pv9zCo7T0FQiKKTtsBzY5a4QOfvT5ytb08TfZ3ExCirufneIlD_GC0]--></g></svg>