<svg xmlns="http://www.w3.org/2000/svg" xmlns:xlink="http://www.w3.org/1999/xlink" contentStyleType="text/css" height="2403px" preserveAspectRatio="none" style="width:975px;height:2403px;background:#FFFFFF;" version="1.1" viewBox="0 0 975 2403" width="975px" zoomAndPan="magnify"><title>Deployment-Diagramm Teil 4 - Build &amp; Deployment Pipeline</title><defs/><g><text fill="#000000" font-family="sans-serif" font-size="14" font-weight="bold" lengthAdjust="spacing" textLength="395.958" x="282.7437" y="24.5332">Deployment-Diagramm Teil 4 - Build &amp; Deployment Pipeline</text><!--cluster Entwicklung--><g id="cluster_Entwicklung"><path d="M8.5,52.1094 L91.9482,52.1094 A3.75,3.75 0 0 1 94.4482,54.6094 L101.4482,75.7188 L785.5,75.7188 A2.5,2.5 0 0 1 788,78.2188 L788,517.1094 A2.5,2.5 0 0 1 785.5,519.6094 L8.5,519.6094 A2.5,2.5 0 0 1 6,517.1094 L6,54.6094 A2.5,2.5 0 0 1 8.5,52.1094 " fill="none" style="stroke:#000000;stroke-width:1.5;"/><line style="stroke:#000000;stroke-width:1.5;" x1="6" x2="101.4482" y1="75.7188" y2="75.7188"/><text fill="#000000" font-family="sans-serif" font-size="14" font-weight="bold" lengthAdjust="spacing" textLength="82.4482" x="10" y="68.6426">Entwicklung</text></g><!--cluster SRC--><g id="cluster_SRC"><rect fill="none" height="383.5" rx="2.5" ry="2.5" style="stroke:#181818;stroke-width:1.0;" width="305" x="38" y="104.1094"/><polygon fill="none" points="326,109.1094,326,123.1094,338,123.1094,338,115.1094,332,109.1094,326,109.1094" style="stroke:#181818;stroke-width:1.0;"/><line style="stroke:#181818;stroke-width:1.0;" x1="332" x2="332" y1="109.1094" y2="115.1094"/><line style="stroke:#181818;stroke-width:1.0;" x1="338" x2="332" y1="115.1094" y2="115.1094"/><text fill="#000000" font-family="sans-serif" font-size="14" font-weight="bold" lengthAdjust="spacing" textLength="86.3516" x="147.3242" y="120.6426">Source Code</text></g><!--cluster GIT--><g id="cluster_GIT"><rect fill="none" height="116" rx="2.5" ry="2.5" style="stroke:#181818;stroke-width:1.0;" width="373" x="383" y="371.6094"/><polygon fill="none" points="739,376.6094,739,390.6094,751,390.6094,751,382.6094,745,376.6094,739,376.6094" style="stroke:#181818;stroke-width:1.0;"/><line style="stroke:#181818;stroke-width:1.0;" x1="745" x2="745" y1="376.6094" y2="382.6094"/><line style="stroke:#181818;stroke-width:1.0;" x1="751" x2="745" y1="382.6094" y2="382.6094"/><text fill="#000000" font-family="sans-serif" font-size="14" font-weight="bold" lengthAdjust="spacing" textLength="96.4551" x="521.2725" y="388.1426">Git Repository</text></g><!--cluster Build Prozess--><g id="cluster_Build Prozess"><path d="M251.5,630.7494 L345.0791,630.7494 A3.75,3.75 0 0 1 347.5791,633.2494 L354.5791,654.3588 L622.5,654.3588 A2.5,2.5 0 0 1 625,656.8588 L625,1270.1094 A2.5,2.5 0 0 1 622.5,1272.6094 L251.5,1272.6094 A2.5,2.5 0 0 1 249,1270.1094 L249,633.2494 A2.5,2.5 0 0 1 251.5,630.7494 " fill="none" style="stroke:#000000;stroke-width:1.5;"/><line style="stroke:#000000;stroke-width:1.5;" x1="249" x2="354.5791" y1="654.3588" y2="654.3588"/><text fill="#000000" font-family="sans-serif" font-size="14" font-weight="bold" lengthAdjust="spacing" textLength="92.5791" x="253" y="647.2826">Build Prozess</text></g><!--cluster MAVEN--><g id="cluster_MAVEN"><rect fill="none" height="557.86" rx="2.5" ry="2.5" style="stroke:#181818;stroke-width:1.0;" width="312" x="281" y="682.7494"/><polygon fill="none" points="576,687.7494,576,701.7494,588,701.7494,588,693.7494,582,687.7494,576,687.7494" style="stroke:#181818;stroke-width:1.0;"/><line style="stroke:#181818;stroke-width:1.0;" x1="582" x2="582" y1="687.7494" y2="693.7494"/><line style="stroke:#181818;stroke-width:1.0;" x1="588" x2="582" y1="693.7494" y2="693.7494"/><text fill="#000000" font-family="sans-serif" font-size="14" font-weight="bold" lengthAdjust="spacing" textLength="43.5723" x="415.2139" y="699.2826">Maven</text></g><!--cluster Build Artifacts--><g id="cluster_Build Artifacts"><path d="M336.5,1322.6094 L433.1758,1322.6094 A3.75,3.75 0 0 1 435.6758,1325.1094 L442.6758,1346.2188 L737.5,1346.2188 A2.5,2.5 0 0 1 740,1348.7188 L740,1520.1094 A2.5,2.5 0 0 1 737.5,1522.6094 L336.5,1522.6094 A2.5,2.5 0 0 1 334,1520.1094 L334,1325.1094 A2.5,2.5 0 0 1 336.5,1322.6094 " fill="none" style="stroke:#000000;stroke-width:1.5;"/><line style="stroke:#000000;stroke-width:1.5;" x1="334" x2="442.6758" y1="1346.2188" y2="1346.2188"/><text fill="#000000" font-family="sans-serif" font-size="14" font-weight="bold" lengthAdjust="spacing" textLength="95.6758" x="338" y="1339.1426">Build Artifacts</text></g><!--cluster TARGET--><g id="cluster_TARGET"><rect fill="none" height="116" rx="2.5" ry="2.5" style="stroke:#181818;stroke-width:1.0;" width="342" x="366" y="1374.6094"/><polygon fill="none" points="691,1379.6094,691,1393.6094,703,1393.6094,703,1385.6094,697,1379.6094,691,1379.6094" style="stroke:#181818;stroke-width:1.0;"/><line style="stroke:#181818;stroke-width:1.0;" x1="697" x2="697" y1="1379.6094" y2="1385.6094"/><line style="stroke:#181818;stroke-width:1.0;" x1="703" x2="697" y1="1385.6094" y2="1385.6094"/><text fill="#000000" font-family="sans-serif" font-size="14" font-weight="bold" lengthAdjust="spacing" textLength="108.1445" x="482.9277" y="1391.1426">Target Directory</text></g><!--cluster Deployment--><g id="cluster_Deployment"><path d="M336.5,1609.6094 L417.624,1609.6094 A3.75,3.75 0 0 1 420.124,1612.1094 L427.124,1633.2188 L609.5,1633.2188 A2.5,2.5 0 0 1 612,1635.7188 L612,1880.1094 A2.5,2.5 0 0 1 609.5,1882.6094 L336.5,1882.6094 A2.5,2.5 0 0 1 334,1880.1094 L334,1612.1094 A2.5,2.5 0 0 1 336.5,1609.6094 " fill="none" style="stroke:#000000;stroke-width:1.5;"/><line style="stroke:#000000;stroke-width:1.5;" x1="334" x2="427.124" y1="1633.2188" y2="1633.2188"/><text fill="#000000" font-family="sans-serif" font-size="14" font-weight="bold" lengthAdjust="spacing" textLength="80.124" x="338" y="1626.1426">Deployment</text></g><!--cluster TOMCAT_DEPLOY--><g id="cluster_TOMCAT_DEPLOY"><polygon fill="none" points="366,1671.6094,376,1661.6094,580,1661.6094,580,1840.6094,570,1850.6094,366,1850.6094,366,1671.6094" style="stroke:#181818;stroke-width:1.0;"/><line style="stroke:#181818;stroke-width:1.0;" x1="570" x2="580" y1="1671.6094" y2="1661.6094"/><line style="stroke:#181818;stroke-width:1.0;" x1="366" x2="570" y1="1671.6094" y2="1671.6094"/><line style="stroke:#181818;stroke-width:1.0;" x1="570" x2="570" y1="1671.6094" y2="1850.6094"/><text fill="#000000" font-family="sans-serif" font-size="14" font-weight="bold" lengthAdjust="spacing" textLength="97.2686" x="420.3657" y="1689.1426">Tomcat Server</text></g><!--cluster WEBAPPS--><g id="cluster_WEBAPPS"><rect fill="none" height="100" rx="2.5" ry="2.5" style="stroke:#181818;stroke-width:1.0;" width="142" x="406" y="1718.6094"/><polygon fill="none" points="531,1723.6094,531,1737.6094,543,1737.6094,543,1729.6094,537,1723.6094,531,1723.6094" style="stroke:#181818;stroke-width:1.0;"/><line style="stroke:#181818;stroke-width:1.0;" x1="537" x2="537" y1="1723.6094" y2="1729.6094"/><line style="stroke:#181818;stroke-width:1.0;" x1="543" x2="537" y1="1729.6094" y2="1729.6094"/><text fill="#000000" font-family="sans-serif" font-size="14" font-weight="bold" lengthAdjust="spacing" textLength="63.793" x="445.1035" y="1735.1426">webapps/</text></g><!--cluster Runtime--><g id="cluster_Runtime"><path d="M14.5,1932.6094 L71.5,1932.6094 A3.75,3.75 0 0 1 74,1935.1094 L81,1956.2188 L411.5,1956.2188 A2.5,2.5 0 0 1 414,1958.7188 L414,2394.1094 A2.5,2.5 0 0 1 411.5,2396.6094 L14.5,2396.6094 A2.5,2.5 0 0 1 12,2394.1094 L12,1935.1094 A2.5,2.5 0 0 1 14.5,1932.6094 " fill="none" style="stroke:#000000;stroke-width:1.5;"/><line style="stroke:#000000;stroke-width:1.5;" x1="12" x2="81" y1="1956.2188" y2="1956.2188"/><text fill="#000000" font-family="sans-serif" font-size="14" font-weight="bold" lengthAdjust="spacing" textLength="56" x="16" y="1949.1426">Runtime</text></g><!--cluster JVM--><g id="cluster_JVM"><polygon fill="none" points="44,1994.6094,54,1984.6094,382,1984.6094,382,2354.6094,372,2364.6094,44,2364.6094,44,1994.6094" style="stroke:#181818;stroke-width:1.0;"/><line style="stroke:#181818;stroke-width:1.0;" x1="372" x2="382" y1="1994.6094" y2="1984.6094"/><line style="stroke:#181818;stroke-width:1.0;" x1="44" x2="372" y1="1994.6094" y2="1994.6094"/><line style="stroke:#181818;stroke-width:1.0;" x1="372" x2="372" y1="1994.6094" y2="2364.6094"/><text fill="#000000" font-family="sans-serif" font-size="14" font-weight="bold" lengthAdjust="spacing" textLength="89.4756" x="164.2622" y="2012.1426">JVM Instance</text></g><!--cluster Datenbank--><g id="cluster_Datenbank"><path d="M440.5,2192.1094 L513.0723,2192.1094 A3.75,3.75 0 0 1 515.5723,2194.6094 L522.5723,2215.7188 L676.5,2215.7188 A2.5,2.5 0 0 1 679,2218.2188 L679,2393.6094 A2.5,2.5 0 0 1 676.5,2396.1094 L440.5,2396.1094 A2.5,2.5 0 0 1 438,2393.6094 L438,2194.6094 A2.5,2.5 0 0 1 440.5,2192.1094 " fill="none" style="stroke:#000000;stroke-width:1.5;"/><line style="stroke:#000000;stroke-width:1.5;" x1="438" x2="522.5723" y1="2215.7188" y2="2215.7188"/><text fill="#000000" font-family="sans-serif" font-size="14" font-weight="bold" lengthAdjust="spacing" textLength="71.5723" x="442" y="2208.6426">Datenbank</text></g><!--cluster PG--><g id="cluster_PG"><polygon fill="none" points="470,2254.1094,480,2244.1094,647,2244.1094,647,2354.1094,637,2364.1094,470,2364.1094,470,2254.1094" style="stroke:#181818;stroke-width:1.0;"/><line style="stroke:#181818;stroke-width:1.0;" x1="637" x2="647" y1="2254.1094" y2="2244.1094"/><line style="stroke:#181818;stroke-width:1.0;" x1="470" x2="637" y1="2254.1094" y2="2254.1094"/><line style="stroke:#181818;stroke-width:1.0;" x1="637" x2="637" y1="2254.1094" y2="2364.1094"/><text fill="#000000" font-family="sans-serif" font-size="14" font-weight="bold" lengthAdjust="spacing" textLength="80.9033" x="514.0483" y="2271.6426">PostgreSQL</text></g><!--entity JAVA--><g id="elem_JAVA"><rect fill="#F1F1F1" height="47.6094" rx="2.5" ry="2.5" style="stroke:#181818;stroke-width:0.5;" width="103.0205" x="62.5" y="148.1094"/><rect fill="#F1F1F1" height="10" style="stroke:#181818;stroke-width:0.5;" width="15" x="145.5205" y="153.1094"/><rect fill="#F1F1F1" height="2" style="stroke:#181818;stroke-width:0.5;" width="4" x="143.5205" y="155.1094"/><rect fill="#F1F1F1" height="2" style="stroke:#181818;stroke-width:0.5;" width="4" x="143.5205" y="159.1094"/><text fill="#000000" font-family="sans-serif" font-size="14" lengthAdjust="spacing" textLength="63.0205" x="77.5" y="182.6426">Java Files</text></g><!--entity JSP_FILES--><g id="elem_JSP_FILES"><rect fill="#F1F1F1" height="47.6094" rx="2.5" ry="2.5" style="stroke:#181818;stroke-width:0.5;" width="99.124" x="200.5" y="148.1094"/><rect fill="#F1F1F1" height="10" style="stroke:#181818;stroke-width:0.5;" width="15" x="279.624" y="153.1094"/><rect fill="#F1F1F1" height="2" style="stroke:#181818;stroke-width:0.5;" width="4" x="277.624" y="155.1094"/><rect fill="#F1F1F1" height="2" style="stroke:#181818;stroke-width:0.5;" width="4" x="277.624" y="159.1094"/><text fill="#000000" font-family="sans-serif" font-size="14" lengthAdjust="spacing" textLength="59.124" x="215.5" y="182.6426">JSP Files</text></g><!--entity ASSETS--><g id="elem_ASSETS"><rect fill="#F1F1F1" height="47.6094" rx="2.5" ry="2.5" style="stroke:#181818;stroke-width:0.5;" width="122.4619" x="62" y="415.6094"/><rect fill="#F1F1F1" height="10" style="stroke:#181818;stroke-width:0.5;" width="15" x="164.4619" y="420.6094"/><rect fill="#F1F1F1" height="2" style="stroke:#181818;stroke-width:0.5;" width="4" x="162.4619" y="422.6094"/><rect fill="#F1F1F1" height="2" style="stroke:#181818;stroke-width:0.5;" width="4" x="162.4619" y="426.6094"/><text fill="#000000" font-family="sans-serif" font-size="14" lengthAdjust="spacing" textLength="82.4619" x="77" y="450.1426">CSS/JS Files</text></g><!--entity MAIN--><g id="elem_MAIN"><rect fill="#F1F1F1" height="47.6094" rx="2.5" ry="2.5" style="stroke:#181818;stroke-width:0.5;" width="118.5928" x="612.5" y="415.6094"/><rect fill="#F1F1F1" height="10" style="stroke:#181818;stroke-width:0.5;" width="15" x="711.0928" y="420.6094"/><rect fill="#F1F1F1" height="2" style="stroke:#181818;stroke-width:0.5;" width="4" x="709.0928" y="422.6094"/><rect fill="#F1F1F1" height="2" style="stroke:#181818;stroke-width:0.5;" width="4" x="709.0928" y="426.6094"/><text fill="#000000" font-family="sans-serif" font-size="14" lengthAdjust="spacing" textLength="78.5928" x="627.5" y="450.1426">Main Branch</text></g><!--entity FEATURES--><g id="elem_FEATURES"><rect fill="#F1F1F1" height="47.6094" rx="2.5" ry="2.5" style="stroke:#181818;stroke-width:0.5;" width="151.2822" x="426.5" y="415.6094"/><rect fill="#F1F1F1" height="10" style="stroke:#181818;stroke-width:0.5;" width="15" x="557.7822" y="420.6094"/><rect fill="#F1F1F1" height="2" style="stroke:#181818;stroke-width:0.5;" width="4" x="555.7822" y="422.6094"/><rect fill="#F1F1F1" height="2" style="stroke:#181818;stroke-width:0.5;" width="4" x="555.7822" y="426.6094"/><text fill="#000000" font-family="sans-serif" font-size="14" lengthAdjust="spacing" textLength="111.2822" x="441.5" y="450.1426">Feature Branches</text></g><!--entity POM--><g id="elem_POM"><rect fill="#F1F1F1" height="47.6094" rx="2.5" ry="2.5" style="stroke:#181818;stroke-width:0.5;" width="92.8965" x="475.5" y="916.6094"/><rect fill="#F1F1F1" height="10" style="stroke:#181818;stroke-width:0.5;" width="15" x="548.3965" y="921.6094"/><rect fill="#F1F1F1" height="2" style="stroke:#181818;stroke-width:0.5;" width="4" x="546.3965" y="923.6094"/><rect fill="#F1F1F1" height="2" style="stroke:#181818;stroke-width:0.5;" width="4" x="546.3965" y="927.6094"/><text fill="#000000" font-family="sans-serif" font-size="14" lengthAdjust="spacing" textLength="52.8965" x="490.5" y="951.1426">pom.xml</text></g><!--entity COMPILE--><g id="elem_COMPILE"><rect fill="#F1F1F1" height="47.6094" rx="2.5" ry="2.5" style="stroke:#181818;stroke-width:0.5;" width="134.9375" x="305.5" y="916.6094"/><rect fill="#F1F1F1" height="10" style="stroke:#181818;stroke-width:0.5;" width="15" x="420.4375" y="921.6094"/><rect fill="#F1F1F1" height="2" style="stroke:#181818;stroke-width:0.5;" width="4" x="418.4375" y="923.6094"/><rect fill="#F1F1F1" height="2" style="stroke:#181818;stroke-width:0.5;" width="4" x="418.4375" y="927.6094"/><text fill="#000000" font-family="sans-serif" font-size="14" lengthAdjust="spacing" textLength="94.9375" x="320.5" y="951.1426">Compile Phase</text></g><!--entity TEST--><g id="elem_TEST"><rect fill="#F1F1F1" height="47.6094" rx="2.5" ry="2.5" style="stroke:#181818;stroke-width:0.5;" width="110.8135" x="317.5" y="1042.6094"/><rect fill="#F1F1F1" height="10" style="stroke:#181818;stroke-width:0.5;" width="15" x="408.3135" y="1047.6094"/><rect fill="#F1F1F1" height="2" style="stroke:#181818;stroke-width:0.5;" width="4" x="406.3135" y="1049.6094"/><rect fill="#F1F1F1" height="2" style="stroke:#181818;stroke-width:0.5;" width="4" x="406.3135" y="1053.6094"/><text fill="#000000" font-family="sans-serif" font-size="14" lengthAdjust="spacing" textLength="70.8135" x="332.5" y="1077.1426">Test Phase</text></g><!--entity PACKAGE--><g id="elem_PACKAGE"><rect fill="#F1F1F1" height="47.6094" rx="2.5" ry="2.5" style="stroke:#181818;stroke-width:0.5;" width="138.0684" x="305" y="1168.6094"/><rect fill="#F1F1F1" height="10" style="stroke:#181818;stroke-width:0.5;" width="15" x="423.0684" y="1173.6094"/><rect fill="#F1F1F1" height="2" style="stroke:#181818;stroke-width:0.5;" width="4" x="421.0684" y="1175.6094"/><rect fill="#F1F1F1" height="2" style="stroke:#181818;stroke-width:0.5;" width="4" x="421.0684" y="1179.6094"/><text fill="#000000" font-family="sans-serif" font-size="14" lengthAdjust="spacing" textLength="98.0684" x="320" y="1203.1426">Package Phase</text></g><!--entity WAR_FILE--><g id="elem_WAR_FILE"><rect fill="#F1F1F1" height="47.6094" rx="2.5" ry="2.5" style="stroke:#181818;stroke-width:0.5;" width="131.8066" x="552" y="1418.6094"/><rect fill="#F1F1F1" height="10" style="stroke:#181818;stroke-width:0.5;" width="15" x="663.8066" y="1423.6094"/><rect fill="#F1F1F1" height="2" style="stroke:#181818;stroke-width:0.5;" width="4" x="661.8066" y="1425.6094"/><rect fill="#F1F1F1" height="2" style="stroke:#181818;stroke-width:0.5;" width="4" x="661.8066" y="1429.6094"/><text fill="#000000" font-family="sans-serif" font-size="14" lengthAdjust="spacing" textLength="91.8066" x="567" y="1453.1426">wissentest.war</text></g><!--entity TEST_RESULTS--><g id="elem_TEST_RESULTS"><rect fill="#F1F1F1" height="47.6094" rx="2.5" ry="2.5" style="stroke:#181818;stroke-width:0.5;" width="108.4619" x="409" y="1418.6094"/><rect fill="#F1F1F1" height="10" style="stroke:#181818;stroke-width:0.5;" width="15" x="497.4619" y="1423.6094"/><rect fill="#F1F1F1" height="2" style="stroke:#181818;stroke-width:0.5;" width="4" x="495.4619" y="1425.6094"/><rect fill="#F1F1F1" height="2" style="stroke:#181818;stroke-width:0.5;" width="4" x="495.4619" y="1429.6094"/><text fill="#000000" font-family="sans-serif" font-size="14" lengthAdjust="spacing" textLength="68.4619" x="424" y="1453.1426">test-results</text></g><!--entity CONTEXT--><g id="elem_CONTEXT"><rect fill="#F1F1F1" height="47.6094" rx="2.5" ry="2.5" style="stroke:#181818;stroke-width:0.5;" width="109.248" x="422.5" y="1754.6094"/><rect fill="#F1F1F1" height="10" style="stroke:#181818;stroke-width:0.5;" width="15" x="511.748" y="1759.6094"/><rect fill="#F1F1F1" height="2" style="stroke:#181818;stroke-width:0.5;" width="4" x="509.748" y="1761.6094"/><rect fill="#F1F1F1" height="2" style="stroke:#181818;stroke-width:0.5;" width="4" x="509.748" y="1765.6094"/><text fill="#000000" font-family="sans-serif" font-size="14" lengthAdjust="spacing" textLength="69.248" x="437.5" y="1789.1426">wiskentest/</text></g><!--entity LOADER--><g id="elem_LOADER"><rect fill="#F1F1F1" height="47.6094" rx="2.5" ry="2.5" style="stroke:#181818;stroke-width:0.5;" width="118.5996" x="68.5" y="2033.6094"/><rect fill="#F1F1F1" height="10" style="stroke:#181818;stroke-width:0.5;" width="15" x="167.0996" y="2038.6094"/><rect fill="#F1F1F1" height="2" style="stroke:#181818;stroke-width:0.5;" width="4" x="165.0996" y="2040.6094"/><rect fill="#F1F1F1" height="2" style="stroke:#181818;stroke-width:0.5;" width="4" x="165.0996" y="2044.6094"/><text fill="#000000" font-family="sans-serif" font-size="14" lengthAdjust="spacing" textLength="78.5996" x="83.5" y="2068.1426">ClassLoader</text></g><!--entity THREADS--><g id="elem_THREADS"><rect fill="#F1F1F1" height="47.6094" rx="2.5" ry="2.5" style="stroke:#181818;stroke-width:0.5;" width="116.2686" x="223" y="2033.6094"/><rect fill="#F1F1F1" height="10" style="stroke:#181818;stroke-width:0.5;" width="15" x="319.2686" y="2038.6094"/><rect fill="#F1F1F1" height="2" style="stroke:#181818;stroke-width:0.5;" width="4" x="317.2686" y="2040.6094"/><rect fill="#F1F1F1" height="2" style="stroke:#181818;stroke-width:0.5;" width="4" x="317.2686" y="2044.6094"/><text fill="#000000" font-family="sans-serif" font-size="14" lengthAdjust="spacing" textLength="76.2686" x="238" y="2068.1426">Thread Pool</text></g><!--entity HEAP--><g id="elem_HEAP"><rect fill="#F1F1F1" height="47.6094" rx="2.5" ry="2.5" style="stroke:#181818;stroke-width:0.5;" width="127.917" x="68" y="2292.6094"/><rect fill="#F1F1F1" height="10" style="stroke:#181818;stroke-width:0.5;" width="15" x="175.917" y="2297.6094"/><rect fill="#F1F1F1" height="2" style="stroke:#181818;stroke-width:0.5;" width="4" x="173.917" y="2299.6094"/><rect fill="#F1F1F1" height="2" style="stroke:#181818;stroke-width:0.5;" width="4" x="173.917" y="2303.6094"/><text fill="#000000" font-family="sans-serif" font-size="14" lengthAdjust="spacing" textLength="87.917" x="83" y="2327.1426">Memory Heap</text></g><!--entity PG_DB--><g id="elem_PG_DB"><path d="M513.5,2303.1094 C513.5,2293.1094 567.8481,2293.1094 567.8481,2293.1094 C567.8481,2293.1094 622.1963,2293.1094 622.1963,2303.1094 L622.1963,2329.7188 C622.1963,2339.7188 567.8481,2339.7188 567.8481,2339.7188 C567.8481,2339.7188 513.5,2339.7188 513.5,2329.7188 L513.5,2303.1094 " fill="#F1F1F1" style="stroke:#181818;stroke-width:0.5;"/><path d="M513.5,2303.1094 C513.5,2313.1094 567.8481,2313.1094 567.8481,2313.1094 C567.8481,2313.1094 622.1963,2313.1094 622.1963,2303.1094 " fill="none" style="stroke:#181818;stroke-width:0.5;"/><text fill="#000000" font-family="sans-serif" font-size="14" lengthAdjust="spacing" textLength="88.6963" x="523.5" y="2331.6426">wissentest DB</text></g><g id="elem_GMN41"><path d="M804,44.6094 L804,299.8828 L963.6836,299.8828 L963.6836,54.6094 L953.6836,44.6094 L804,44.6094 " fill="#FEFFDD" style="stroke:#181818;stroke-width:0.5;"/><path d="M953.6836,44.6094 L953.6836,54.6094 L963.6836,54.6094 L953.6836,44.6094 " fill="#FEFFDD" style="stroke:#181818;stroke-width:1.0;"/><text fill="#000000" font-family="sans-serif" font-size="13" font-weight="bold" lengthAdjust="spacing" textLength="138.6836" x="810" y="63.1045">Source Code Struktur:</text><text fill="#000000" font-family="sans-serif" font-size="13" lengthAdjust="spacing" textLength="3.6118" x="810" y="79.4561">&#160;</text><text fill="#000000" font-family="sans-serif" font-size="13" lengthAdjust="spacing" textLength="80.1899" x="810" y="95.8076">src/main/java/</text><text fill="#000000" font-family="sans-serif" font-size="13" lengthAdjust="spacing" textLength="54.9009" x="817.2236" y="112.1592">- Servlets</text><text fill="#000000" font-family="sans-serif" font-size="13" lengthAdjust="spacing" textLength="57.7891" x="817.2236" y="128.5107">- Services</text><text fill="#000000" font-family="sans-serif" font-size="13" lengthAdjust="spacing" textLength="42.6118" x="817.2236" y="144.8623">- DAOs</text><text fill="#000000" font-family="sans-serif" font-size="13" lengthAdjust="spacing" textLength="49.8481" x="817.2236" y="161.2139">- Models</text><text fill="#000000" font-family="sans-serif" font-size="13" lengthAdjust="spacing" textLength="3.6118" x="810" y="177.5654">&#160;</text><text fill="#000000" font-family="sans-serif" font-size="13" lengthAdjust="spacing" textLength="101.8799" x="810" y="193.917">src/main/webapp/</text><text fill="#000000" font-family="sans-serif" font-size="13" lengthAdjust="spacing" textLength="62.8418" x="817.2236" y="210.2686">- JSP Files</text><text fill="#000000" font-family="sans-serif" font-size="13" lengthAdjust="spacing" textLength="53.4536" x="817.2236" y="226.6201">- CSS/JS</text><text fill="#000000" font-family="sans-serif" font-size="13" lengthAdjust="spacing" textLength="114.1118" x="817.2236" y="242.9717">- WEB-INF/web.xml</text><text fill="#000000" font-family="sans-serif" font-size="13" lengthAdjust="spacing" textLength="3.6118" x="810" y="259.3232">&#160;</text><text fill="#000000" font-family="sans-serif" font-size="13" lengthAdjust="spacing" textLength="72.9663" x="810" y="275.6748">src/test/java/</text><text fill="#000000" font-family="sans-serif" font-size="13" lengthAdjust="spacing" textLength="72.9536" x="817.2236" y="292.0264">- JUnit Tests</text></g><g id="elem_GMN44"><path d="M641.5,583.6094 L641.5,838.8828 L802.6499,838.8828 L802.6499,593.6094 L792.6499,583.6094 L641.5,583.6094 " fill="#FEFFDD" style="stroke:#181818;stroke-width:0.5;"/><path d="M792.6499,583.6094 L792.6499,593.6094 L802.6499,593.6094 L792.6499,583.6094 " fill="#FEFFDD" style="stroke:#181818;stroke-width:1.0;"/><text fill="#000000" font-family="sans-serif" font-size="13" font-weight="bold" lengthAdjust="spacing" textLength="140.1499" x="647.5" y="602.1045">Maven Build Lifecycle:</text><text fill="#000000" font-family="sans-serif" font-size="13" lengthAdjust="spacing" textLength="3.6118" x="647.5" y="618.4561">&#160;</text><text fill="#000000" font-family="sans-serif" font-size="13" lengthAdjust="spacing" textLength="61.4326" x="647.5" y="634.8076">1. Validate</text><text fill="#000000" font-family="sans-serif" font-size="13" lengthAdjust="spacing" textLength="62.1372" x="647.5" y="651.1592">2. Compile</text><text fill="#000000" font-family="sans-serif" font-size="13" lengthAdjust="spacing" textLength="81.6245" x="647.5" y="667.5107">3. Test (JUnit)</text><text fill="#000000" font-family="sans-serif" font-size="13" lengthAdjust="spacing" textLength="107.6436" x="647.5" y="683.8623">4. Package (WAR)</text><text fill="#000000" font-family="sans-serif" font-size="13" lengthAdjust="spacing" textLength="47.6836" x="647.5" y="700.2139">5. Verify</text><text fill="#000000" font-family="sans-serif" font-size="13" lengthAdjust="spacing" textLength="48.4136" x="647.5" y="716.5654">6. Install</text><text fill="#000000" font-family="sans-serif" font-size="13" lengthAdjust="spacing" textLength="54.9199" x="647.5" y="732.917">7. Deploy</text><text fill="#000000" font-family="sans-serif" font-size="13" lengthAdjust="spacing" textLength="3.6118" x="647.5" y="749.2686">&#160;</text><text fill="#000000" font-family="sans-serif" font-size="13" font-weight="bold" lengthAdjust="spacing" textLength="101.8354" x="647.5" y="765.6201">Abh&#228;ngigkeiten:</text><text fill="#000000" font-family="sans-serif" font-size="13" lengthAdjust="spacing" textLength="72.9663" x="647.5" y="781.9717">- Servlet API</text><text fill="#000000" font-family="sans-serif" font-size="13" lengthAdjust="spacing" textLength="117.0317" x="647.5" y="798.3232">- PostgreSQL Driver</text><text fill="#000000" font-family="sans-serif" font-size="13" lengthAdjust="spacing" textLength="48.4009" x="647.5" y="814.6748">- JUnit 5</text><text fill="#000000" font-family="sans-serif" font-size="13" lengthAdjust="spacing" textLength="59.2236" x="647.5" y="831.0264">- HikariCP</text></g><g id="elem_GMN47"><path d="M756,1355.6094 L756,1529.125 L968.4453,1529.125 L968.4453,1365.6094 L958.4453,1355.6094 L756,1355.6094 " fill="#FEFFDD" style="stroke:#181818;stroke-width:0.5;"/><path d="M958.4453,1355.6094 L958.4453,1365.6094 L968.4453,1365.6094 L958.4453,1355.6094 " fill="#FEFFDD" style="stroke:#181818;stroke-width:1.0;"/><text fill="#000000" font-family="sans-serif" font-size="13" font-weight="bold" lengthAdjust="spacing" textLength="83.0273" x="762" y="1374.1045">Build Output:</text><text fill="#000000" font-family="sans-serif" font-size="13" lengthAdjust="spacing" textLength="3.6118" x="762" y="1390.4561">&#160;</text><text fill="#000000" font-family="sans-serif" font-size="13" lengthAdjust="spacing" textLength="85.249" x="762" y="1406.8076">wissentest.war</text><text fill="#000000" font-family="sans-serif" font-size="13" lengthAdjust="spacing" textLength="153.1626" x="762" y="1423.1592">- Alle kompilierten Classes</text><text fill="#000000" font-family="sans-serif" font-size="13" lengthAdjust="spacing" textLength="125.7407" x="762" y="1439.5107">- JAR Abh&#228;ngigkeiten</text><text fill="#000000" font-family="sans-serif" font-size="13" lengthAdjust="spacing" textLength="62.8418" x="762" y="1455.8623">- JSP Files</text><text fill="#000000" font-family="sans-serif" font-size="13" lengthAdjust="spacing" textLength="83.0781" x="762" y="1472.2139">- Static Assets</text><text fill="#000000" font-family="sans-serif" font-size="13" lengthAdjust="spacing" textLength="191.4453" x="762" y="1488.5654">- web.xml Deployment Descriptor</text><text fill="#000000" font-family="sans-serif" font-size="13" lengthAdjust="spacing" textLength="3.6118" x="762" y="1504.917">&#160;</text><text fill="#000000" font-family="sans-serif" font-size="13" lengthAdjust="spacing" textLength="115.248" x="762" y="1521.2686">Gr&#246;&#223;e: ~50-100 MB</text></g><g id="elem_GMN50"><path d="M628,1708.1094 L628,1848.9219 L845.5171,1848.9219 L845.5171,1718.1094 L835.5171,1708.1094 L628,1708.1094 " fill="#FEFFDD" style="stroke:#181818;stroke-width:0.5;"/><path d="M835.5171,1708.1094 L835.5171,1718.1094 L845.5171,1718.1094 L835.5171,1708.1094 " fill="#FEFFDD" style="stroke:#181818;stroke-width:1.0;"/><text fill="#000000" font-family="sans-serif" font-size="13" font-weight="bold" lengthAdjust="spacing" textLength="131.4409" x="634" y="1726.6045">Tomcat Auto-Deploy:</text><text fill="#000000" font-family="sans-serif" font-size="13" lengthAdjust="spacing" textLength="3.6118" x="634" y="1742.9561">&#160;</text><text fill="#000000" font-family="sans-serif" font-size="13" lengthAdjust="spacing" textLength="171.2534" x="634" y="1759.3076">1. WAR in webapps/ kopieren</text><text fill="#000000" font-family="sans-serif" font-size="13" lengthAdjust="spacing" textLength="138.728" x="634" y="1775.6592">2. Tomcat erkennt Datei</text><text fill="#000000" font-family="sans-serif" font-size="13" lengthAdjust="spacing" textLength="153.8926" x="634" y="1792.0107">3. Unpacks wissentest.war</text><text fill="#000000" font-family="sans-serif" font-size="13" lengthAdjust="spacing" textLength="196.5171" x="634" y="1808.3623">4. Erstellt /wiskentest/ Verzeichnis</text><text fill="#000000" font-family="sans-serif" font-size="13" lengthAdjust="spacing" textLength="195.8442" x="634" y="1824.7139">5. L&#228;dt Klassen &#252;ber ClassLoader</text><text fill="#000000" font-family="sans-serif" font-size="13" lengthAdjust="spacing" textLength="153.1943" x="634" y="1841.0654">6. Application ist verf&#252;gbar</text></g><g id="elem_GMN53"><path d="M559,1987.1094 L559,2127.9219 L801.2666,2127.9219 L801.2666,1997.1094 L791.2666,1987.1094 L559,1987.1094 " fill="#FEFFDD" style="stroke:#181818;stroke-width:0.5;"/><path d="M791.2666,1987.1094 L791.2666,1997.1094 L801.2666,1997.1094 L791.2666,1987.1094 " fill="#FEFFDD" style="stroke:#181818;stroke-width:1.0;"/><text fill="#000000" font-family="sans-serif" font-size="13" font-weight="bold" lengthAdjust="spacing" textLength="119.8755" x="565" y="2005.6045">JVM Konfiguration:</text><text fill="#000000" font-family="sans-serif" font-size="13" lengthAdjust="spacing" textLength="3.6118" x="565" y="2021.9561">&#160;</text><text fill="#000000" font-family="sans-serif" font-size="13" lengthAdjust="spacing" textLength="221.2666" x="565" y="2038.3076">JAVA_OPTS="-Xms256m -Xmx512m"</text><text fill="#000000" font-family="sans-serif" font-size="13" lengthAdjust="spacing" textLength="3.6118" x="565" y="2054.6592">&#160;</text><text fill="#000000" font-family="sans-serif" font-size="13" lengthAdjust="spacing" textLength="115.6035" x="565" y="2071.0107">- Min Heap: 256 MB</text><text fill="#000000" font-family="sans-serif" font-size="13" lengthAdjust="spacing" textLength="119.2153" x="565" y="2087.3623">- Max Heap: 512 MB</text><text fill="#000000" font-family="sans-serif" font-size="13" lengthAdjust="spacing" textLength="124.9663" x="565" y="2103.7139">- GC: Default (G1GC)</text><text fill="#000000" font-family="sans-serif" font-size="13" lengthAdjust="spacing" textLength="166.188" x="565" y="2120.0654">- Threads: Pool f&#252;r Requests</text></g><g id="elem_GMN56"><path d="M695,2262.6094 L695,2370.7188 L923.4097,2370.7188 L923.4097,2272.6094 L913.4097,2262.6094 L695,2262.6094 " fill="#FEFFDD" style="stroke:#181818;stroke-width:0.5;"/><path d="M913.4097,2262.6094 L913.4097,2272.6094 L923.4097,2272.6094 L913.4097,2262.6094 " fill="#FEFFDD" style="stroke:#181818;stroke-width:1.0;"/><text fill="#000000" font-family="sans-serif" font-size="13" font-weight="bold" lengthAdjust="spacing" textLength="176.2554" x="701" y="2281.1045">Gesamter Deployment-Flow:</text><text fill="#000000" font-family="sans-serif" font-size="13" lengthAdjust="spacing" textLength="3.6118" x="701" y="2297.4561">&#160;</text><text fill="#000000" font-family="sans-serif" font-size="13" lengthAdjust="spacing" textLength="207.4097" x="701" y="2313.8076">Code &#8594; Git &#8594; Maven Build &#8594; WAR</text><text fill="#000000" font-family="sans-serif" font-size="13" lengthAdjust="spacing" textLength="179.4482" x="701" y="2330.1592">&#8594; Tomcat Auto-Deploy &#8594; JVM</text><text fill="#000000" font-family="sans-serif" font-size="13" lengthAdjust="spacing" textLength="148.6621" x="701" y="2346.5107">&#8594; Datenbank Verbindung</text><text fill="#000000" font-family="sans-serif" font-size="13" lengthAdjust="spacing" textLength="110.3413" x="701" y="2362.8623">&#8594; Application Live!</text></g><!--link SRC to GIT--><g id="link_SRC_GIT"><path d="M343.0369,211.2241 C343.3498,212.7077 343.6696,214.2241 343.9959,215.7714 C349.2175,240.5284 356.1088,273.2 363,305.8706 C369.8913,338.5413 376.7825,371.2109 382.0041,395.9642 C382.3304,397.5113 381.4118,393.1567 381.7247,394.64 " fill="none" id="SRC-to-GIT" style="stroke:#181818;stroke-width:1.0;"/><polygon fill="#181818" points="382.9631,400.5108,385.0194,390.8789,381.9311,395.6184,377.1916,392.5302,382.9631,400.5108" style="stroke:#181818;stroke-width:1.0;"/><text fill="#000000" font-family="sans-serif" font-size="13" lengthAdjust="spacing" textLength="29.6309" x="373" y="344.1045">Push</text></g><!--link GIT to MAVEN--><g id="link_GIT_MAVEN"><path d="M391,488.7174 C391,490.3488 391,492.0097 391,493.698 C391,497.0746 391,500.5611 391,504.1417 C391,511.3029 391,518.8408 391,526.6296 C391,542.2073 391,558.7891 391,575.3706 C391,608.5338 391,641.6959 391,666.8223 C391,669.9631 391,672.9784 391,675.8524 C391,677.2894 391,678.6911 391,680.0555 C391,680.7377 391,681.4105 391,682.0739 C391,682.2397 391,676.4049 391,676.5696 " fill="none" id="GIT-to-MAVEN" style="stroke:#181818;stroke-width:1.0;"/><polygon fill="#181818" points="391,682.5696,395,673.5696,391,677.5696,387,673.5696,391,682.5696" style="stroke:#181818;stroke-width:1.0;"/><text fill="#000000" font-family="sans-serif" font-size="13" lengthAdjust="spacing" textLength="71.5381" x="392" y="550.1045">Maven Build</text></g><!--link MAVEN to COMPILE--><g id="link_MAVEN_COMPILE"><path d="M390.99,712.2694 C390.55,717.7794 379.8027,853.578 375.3127,910.398 " fill="none" id="MAVEN-to-COMPILE" style="stroke:#181818;stroke-width:1.0;"/><polygon fill="#181818" points="374.84,916.3794,379.5366,907.7224,375.2339,911.3949,371.5614,907.0922,374.84,916.3794" style="stroke:#181818;stroke-width:1.0;"/><text fill="#000000" font-family="sans-serif" font-size="13" lengthAdjust="spacing" textLength="75.8735" x="380" y="883.1045">Kompilierung</text></g><!--link COMPILE to TEST--><g id="link_COMPILE_TEST"><path d="M373,964.6394 C373,986.7794 373,1014.0494 373,1036.2794 " fill="none" id="COMPILE-to-TEST" style="stroke:#181818;stroke-width:1.0;"/><polygon fill="#181818" points="373,1042.2794,377,1033.2794,373,1037.2794,369,1033.2794,373,1042.2794" style="stroke:#181818;stroke-width:1.0;"/><text fill="#000000" font-family="sans-serif" font-size="13" lengthAdjust="spacing" textLength="58.5127" x="374" y="1009.1045">Unit Tests</text></g><!--link TEST to PACKAGE--><g id="link_TEST_PACKAGE"><path d="M373.19,1090.6394 C373.36,1112.7794 373.5814,1140.0496 373.7614,1162.2796 " fill="none" id="TEST-to-PACKAGE" style="stroke:#181818;stroke-width:1.0;"/><polygon fill="#181818" points="373.81,1168.2794,377.737,1159.2473,373.7695,1163.2795,369.7373,1159.3121,373.81,1168.2794" style="stroke:#181818;stroke-width:1.0;"/><text fill="#000000" font-family="sans-serif" font-size="13" lengthAdjust="spacing" textLength="84.5317" x="375" y="1135.1045">Package WAR</text></g><!--link PACKAGE to TARGET--><g id="link_PACKAGE_TARGET"><path d="M374,1216.9394 C374,1247.3244 374,1302.2244 374,1350.1469 C374,1356.1372 374,1362.0185 374,1367.7292 C374,1369.1569 374,1370.574 374,1371.9794 C374,1372.6821 374,1367.3819 374,1368.0786 " fill="none" id="PACKAGE-to-TARGET" style="stroke:#181818;stroke-width:1.0;"/><polygon fill="#181818" points="374,1374.0786,378,1365.0786,374,1369.0786,370,1365.0786,374,1374.0786" style="stroke:#181818;stroke-width:1.0;"/><text fill="#000000" font-family="sans-serif" font-size="13" lengthAdjust="spacing" textLength="73.6709" x="375" y="1303.1045">Erstellt WAR</text></g><!--link TARGET to TOMCAT_DEPLOY--><g id="link_TARGET_TOMCAT_DEPLOY"><path d="M374,1491.5575 C374,1493.4239 374,1495.3316 374,1497.2781 C374,1528.4231 374,1569.5244 374,1610.6244 C374,1620.8994 374,1631.1743 374,1641.2936 C374,1646.3532 374,1651.3739 374,1656.3362 C374,1657.5768 374,1658.8138 374,1660.0468 C374,1660.355 374,1654.663 374,1654.9708 " fill="none" id="TARGET-to-TOMCAT_DEPLOY" style="stroke:#181818;stroke-width:1.0;"/><polygon fill="#181818" points="374,1660.9708,378,1651.9708,374,1655.9708,370,1651.9708,374,1660.9708" style="stroke:#181818;stroke-width:1.0;"/><text fill="#000000" font-family="sans-serif" font-size="13" lengthAdjust="spacing" textLength="71.5381" x="426.2859" y="1574.1045">Auto-Deploy</text><text fill="#000000" font-family="sans-serif" font-size="13" lengthAdjust="spacing" textLength="174.1099" x="375" y="1590.4561">(CATALINA_HOME/webapps)</text></g><!--link TOMCAT_DEPLOY to JVM--><g id="link_TOMCAT_DEPLOY_JVM"><path d="M374,1851.9223 C374,1852.3967 374,1852.8724 374,1853.3495 C374,1854.3036 374,1855.263 374,1856.2274 C374,1860.0851 374,1864.0235 374,1868.0264 C374,1884.0378 374,1901.0813 374,1918.1244 C374,1935.1675 374,1952.2103 374,1968.2205 C374,1972.2231 374,1976.1611 374,1980.0184 C374,1980.9827 374,1981.942 374,1982.896 C374,1983.373 374,1977.8487 374,1978.323 " fill="none" id="TOMCAT_DEPLOY-to-JVM" style="stroke:#181818;stroke-width:1.0;"/><polygon fill="#181818" points="374,1984.323,378,1975.323,374,1979.323,370,1975.323,374,1984.323" style="stroke:#181818;stroke-width:1.0;"/><text fill="#000000" font-family="sans-serif" font-size="13" lengthAdjust="spacing" textLength="65.7363" x="375" y="1913.1045">JVM startet</text></g><!--link JVM to PG--><g id="link_JVM_PG"><path d="M382.278,2079.0621 C382.3925,2079.3451 382.5081,2079.6306 382.6246,2079.9186 C383.0907,2081.0703 383.5727,2082.2613 384.0699,2083.4897 C386.0584,2088.4034 388.2892,2093.9157 390.7138,2099.9067 C400.4119,2123.8709 413.21,2155.4963 426.0075,2187.1206 C438.805,2218.745 451.6019,2250.3684 461.2975,2274.3289 C463.7214,2280.319 465.9515,2285.8302 467.9393,2290.7427 C468.4362,2291.9709 468.918,2293.1616 469.384,2294.313 C469.5004,2294.6009 469.6159,2294.8863 469.7304,2295.1692 C469.7876,2295.3106 467.5941,2289.8896 467.6508,2290.0298 " fill="none" id="JVM-to-PG" style="stroke:#181818;stroke-width:1.0;"/><polygon fill="#181818" points="469.9014,2295.5917,470.2335,2285.7484,468.0259,2290.9568,462.8176,2288.7492,469.9014,2295.5917" style="stroke:#181818;stroke-width:1.0;"/><text fill="#000000" font-family="sans-serif" font-size="13" lengthAdjust="spacing" textLength="109.8271" x="421" y="2172.6045">JDBC Connections</text></g><!--link SRC to GMN41--><g id="link_SRC_GMN41"><path d="M344.6882,172.1094 C345.2981,172.1094 345.908,172.1094 346.5179,172.1094 C347.7377,172.1094 348.9574,172.1094 350.1772,172.1094 C355.0563,172.1094 359.9353,172.1094 364.8144,172.1094 C374.5725,172.1094 384.3306,172.1094 394.0888,172.1094 C413.605,172.1094 433.1213,172.1094 452.6375,172.1094 C491.67,172.1094 530.7025,172.1094 569.735,172.1094 C647.8,172.1094 725.865,172.1094 803.93,172.1094 " fill="none" id="SRC-GMN41" style="stroke:#181818;stroke-width:1.0;stroke-dasharray:7.0,7.0;"/></g><!--link MAVEN to GMN44--><g id="link_MAVEN_GMN44"><path d="M593.5531,711.1094 C593.8782,711.1094 594.2033,711.1094 594.5285,711.1094 C599.7308,711.1094 604.9331,711.1094 610.1354,711.1094 C620.5402,711.1094 630.945,711.1094 641.35,711.1094 " fill="none" id="MAVEN-GMN44" style="stroke:#181818;stroke-width:1.0;stroke-dasharray:7.0,7.0;"/></g><!--link TARGET to GMN47--><g id="link_TARGET_GMN47"><path d="M369.4626,1374.0563 C369.4797,1373.8077 369.4974,1373.559 369.5155,1373.3102 C369.5517,1372.8126 369.5898,1372.3147 369.6299,1371.8166 C369.71,1370.8203 369.7979,1369.8231 369.8939,1368.8257 C370.086,1366.8308 370.3106,1364.835 370.5708,1362.8439 C371.0913,1358.8618 371.7538,1354.8987 372.5822,1351.0001 C374.239,1343.2029 376.5589,1335.6636 379.7309,1328.7459 C386.075,1314.9106 395.8275,1303.5619 410.5,1297.6094 C466.51,1274.8794 625.51,1277.4694 682.5,1297.6094 C717.25,1309.8894 750.2,1332.0694 778.17,1355.4494 " fill="none" id="TARGET-GMN47" style="stroke:#181818;stroke-width:1.0;stroke-dasharray:7.0,7.0;"/></g><!--link TOMCAT_DEPLOY to GMN50--><g id="link_TOMCAT_DEPLOY_GMN50"><path d="M370.7793,1661.1803 C371.2215,1658.2793 371.7158,1655.3813 372.2664,1652.4939 C374.469,1640.9442 377.572,1629.5631 381.8384,1618.8325 C390.3713,1597.3713 403.5575,1578.5119 423.5,1566.1094 C520.37,1505.8594 629.94,1624.8794 690.49,1707.8594 " fill="none" id="TOMCAT_DEPLOY-GMN50" style="stroke:#181818;stroke-width:1.0;stroke-dasharray:7.0,7.0;"/></g><!--link JVM to GMN53--><g id="link_JVM_GMN53"><path d="M382.5199,2057.6094 C382.7599,2057.6094 382.9999,2057.6094 383.2399,2057.6094 C384.1999,2057.6094 385.1599,2057.6094 386.1199,2057.6094 C389.9598,2057.6094 393.7997,2057.6094 397.6396,2057.6094 C405.3193,2057.6094 412.9989,2057.6094 420.6784,2057.6094 C436.0375,2057.6094 451.3963,2057.6094 466.755,2057.6094 C497.4725,2057.6094 528.19,2057.6094 558.91,2057.6094 " fill="none" id="JVM-GMN53" style="stroke:#181818;stroke-width:1.0;stroke-dasharray:7.0,7.0;"/></g><!--link GMN53 to GMN56--><g id="link_GMN53_GMN56"><path d="M714.91,2128.1594 C736.1,2170.3794 762.73,2223.4294 782.25,2262.3194 " fill="none" id="GMN53-GMN56" style="stroke:#181818;stroke-width:1.0;stroke-dasharray:7.0,7.0;"/></g><!--SRC=[TLPDRkCs5Dxh5AzUj8a1sybqCWKCj01jAuuJErOj9JC52WIqJDki9KebgVnCaIvxW5wWcpb3LxFBJNgIFfAohIIA5mb9VIA_zzxtFKfpdJ0Oi3p97b8cT6l0wKhID8M8yGJUGmjw1KyMy6q5107FMS85yxoSnXkwOj3mXRxZyIOfnAe1VtY0FoerNz9OGoFC2Xapw6SBrW2g89prIupvnLcQPyBispYdjnHEUSAKnPsJQr8B2uCgAWnkJaTZFwo3ziEmSnvMq2GC_SX17-tV5ro7NCECvPdYEfCFzfNXAAgdEw5SG4zI4QyjS496btMuKqPr8La9BOcS-YIwclbRAe-LPBgK1pBxp9HwdSu9lMMYFF3QlwpdbcTf-pvDB2oOJcfpWqFC2mHhgbnX-jD9W9ci0qTCwGeoyiEe3XQKCUoH0UbVaA7_PfYaZAicq8ZA5TCmu9B5ksf4P3RqtoZ87LSA1qYrVKUbXNyaCwkEEhW1jYHJHQBLBgeRhCdLEAghozu2Mwu29OqyipIc6a8cRvaxDPfE-YIw6VZ1UFfBXUi-jZisftckEewatoD145Q0hmFRkC0wPQ4k8__JlWAFDMndXT0yPS-fdbzFO2IKHY6wyfY5sbps4whKEAEBCgJnb0pyMQqqrf9Hr6kMERb5PpEV36hjE64frX7E6CqjzCmdGLsYgMPYJiNcEVaWKtebMVZps2bhM66-e9hEKNDL4S2WLm9l1htzCT_1nqnkbabsvvbEr6hzP2tUnGCAjMvuPc8MdRkwfU5S8snudbisWD8k1d9XlSIPD0tGspum8ACfWxWIs5cCYrJ3islcOMaEUtOPF0gsuMtNxGPEy0ZnfT8iIRJ3UEK3YtccDuIIGcSjfzTVnG4-8-FH9RavcqxyJYczG-Jnx3MpaP53rya4HI8rqmtFJ2pPeNqqwFMnbGk1dkIPm6WyaMa6ag_M6hAbwUwOwsQpqlKXrBBOO0_iDfkURRbAnfqKssVdDspv7LkRbZLGmhIgJ7dCjjC1cMw74zmpKIzsSc5jzzhT4UNSNGJb1FtM6bsUcbTCaznlP1rMfNI-Bvl7n09Cg2y3jeAm8LU40cE-PF53dB1TpCTjkAO9HwKodBrhGzc0SV9zsvu11_QyGrnvtuQj8Wwmt6Rf1DzdaYyVSFoXxMoS6F8_jClRsPtJR9Bv-kcBMF7LXd5qacEmoo-GO6JdUp_1G7BiNTu-v1CxFkCRAda_U3Dsfq5xg0jxMkYyqBkOdtTakoT9yCxPRFs2zC2s6bifF9tCu0LzxsKzCH9DDO-1u6lQhPIbh7wc39YA9S_nvd1SXlBftwT_M1V-F3bg7HyTmQJtTbnLPzZmoYPVCLQri5WYm8-1RLV7-78CpdB7GfVlCebDt1131N1NzIjXcfvwdIUi_yxkdKhxDnBup7Yy5bmvJOoVlYmqNDWS2dZwEcSIAitRYONaUSAH0peME0eDYxry-hgQurblfG1jRmCtzh_8n9Al2catsCLjlizkfa4K_jXeVKhLkvCFAU3W_kJuNTfm4FGgfiNq-oxWSvDokqZloqN4RXU7_IxMR4dnEeQ3uV6mVsYNtVMYklQ20MGjyGFjzwBEalDCwoorh8TCqLHZAYeVjwVOydVaRL_wxw-_mNpncVzLyvevbXHXPlIwz7RP9SYCTlULgSwSYmNU0kMZQkB7wB5lzfp_1m00]--></g></svg>