<svg xmlns="http://www.w3.org/2000/svg" xmlns:xlink="http://www.w3.org/1999/xlink" contentStyleType="text/css" height="1168px" preserveAspectRatio="none" style="width:1175px;height:1168px;background:#FFFFFF;" version="1.1" viewBox="0 0 1175 1168" width="1175px" zoomAndPan="magnify"><title>Wissenstest - Klassendiagramm Teil 1: Model-Klassen</title><defs/><g><text fill="#000000" font-family="Verdana" font-size="22" font-weight="bold" lengthAdjust="spacing" textLength="667.1006" x="249.49" y="37.1182">Wissenstest - Klassendiagramm Teil 1: Model-Klassen</text><!--class QuestionType--><g id="elem_QuestionType"><rect codeLine="11" fill="#E8F4F8" height="112.0586" id="QuestionType" rx="2.5" ry="2.5" style="stroke:#0066CC;stroke-width:1.0;" width="124.2021" x="462.5" y="673.7373"/><ellipse cx="475.5" cy="687.7373" fill="#FFFFFF" rx="9" ry="9" style="stroke:#000000;stroke-width:1.0;"/><path d="M474.3594,688.5342 L474.3594,691.0342 L478.6875,691.0342 L478.6875,690.1123 Q478.6875,689.5029 478.9297,689.2373 Q479.1719,688.9717 479.5469,688.9717 Q479.9219,688.9717 480.1563,689.2373 Q480.3906,689.5029 480.3906,690.1123 L480.3906,692.7373 L472.3906,692.7373 Q471.7656,692.7373 471.5078,692.5029 Q471.25,692.2686 471.25,691.8779 Q471.25,691.5029 471.5156,691.2686 Q471.7813,691.0342 472.3906,691.0342 L472.6563,691.0342 L472.6563,684.3779 L472.3906,684.3779 Q471.7656,684.3779 471.5078,684.1436 Q471.25,683.9092 471.25,683.5186 Q471.25,683.1436 471.5078,682.9092 Q471.7656,682.6748 472.3906,682.6748 L480.0156,682.6748 L480.0156,685.2686 Q480.0156,685.8779 479.7891,686.1357 Q479.5625,686.3936 479.1719,686.3936 Q478.7969,686.3936 478.5625,686.1357 Q478.3281,685.8779 478.3281,685.2686 L478.3281,684.3779 L474.3594,684.3779 L474.3594,686.8311 L475.8438,686.8311 Q475.8438,686.1748 475.9688,685.9873 Q476.2344,685.5811 476.7031,685.5811 Q477.0781,685.5811 477.3125,685.8389 Q477.5469,686.0967 477.5469,686.7061 L477.5469,688.6748 Q477.5469,689.2217 477.4219,689.4092 Q477.1563,689.7998 476.7031,689.7998 Q476.2344,689.7998 475.9688,689.3936 Q475.8438,689.2061 475.8438,688.5342 L474.3594,688.5342 Z " fill="#000000"/><text fill="#000000" font-family="Verdana" font-size="14" lengthAdjust="spacing" textLength="96.2021" x="487.5" y="693.3052">QuestionType</text><line style="stroke:#0066CC;stroke-width:1.0;" x1="463.5" x2="585.7021" y1="701.7373" y2="701.7373"/><text fill="#000000" font-family="Verdana" font-size="14" lengthAdjust="spacing" textLength="21.5742" x="468.5" y="719.8125">MC</text><text fill="#000000" font-family="Verdana" font-size="14" lengthAdjust="spacing" textLength="47.0313" x="468.5" y="736.8271">CLOZE</text><text fill="#000000" font-family="Verdana" font-size="14" lengthAdjust="spacing" textLength="35.4854" x="468.5" y="753.8418">FREE</text><text fill="#000000" font-family="Verdana" font-size="14" lengthAdjust="spacing" textLength="46.9697" x="468.5" y="770.8564">IMAGE</text><line style="stroke:#0066CC;stroke-width:1.0;" x1="463.5" x2="585.7021" y1="777.7959" y2="777.7959"/></g><!--class User--><g id="elem_User"><rect codeLine="19" fill="#E8F4F8" height="401.3076" id="User" rx="2.5" ry="2.5" style="stroke:#0066CC;stroke-width:1.0;" width="266.751" x="12" y="85.2373"/><ellipse cx="125.6978" cy="99.2373" fill="#FFFFFF" rx="9" ry="9" style="stroke:#000000;stroke-width:1.0;"/><path d="M128.4634,95.1123 Q128.6196,94.8936 128.8071,94.7842 Q128.9946,94.6748 129.2134,94.6748 Q129.5884,94.6748 129.8228,94.9326 Q130.0571,95.1904 130.0571,95.7998 L130.0571,97.2529 Q130.0571,97.8623 129.8228,98.1279 Q129.5884,98.3936 129.2134,98.3936 Q128.8696,98.3936 128.6665,98.1904 Q128.4634,98.0029 128.354,97.4873 Q128.3071,97.1279 128.1196,96.9404 Q127.7915,96.5654 127.1821,96.3467 Q126.5728,96.1279 125.9478,96.1279 Q125.1821,96.1279 124.5493,96.4561 Q123.9165,96.7842 123.4243,97.5342 Q122.9321,98.2842 122.9321,99.3154 L122.9321,100.4092 Q122.9321,101.6436 123.8228,102.4639 Q124.7134,103.2842 126.3071,103.2842 Q127.2446,103.2842 127.9009,103.0342 Q128.2915,102.8779 128.7134,102.4404 Q128.979,102.1748 129.1274,102.0967 Q129.2759,102.0186 129.479,102.0186 Q129.8071,102.0186 130.0649,102.2764 Q130.3228,102.5342 130.3228,102.8779 Q130.3228,103.2217 129.979,103.6279 Q129.479,104.2061 128.6821,104.5342 Q127.604,104.9873 126.3071,104.9873 Q124.7915,104.9873 123.5884,104.3623 Q122.604,103.8623 121.9165,102.792 Q121.229,101.7217 121.229,100.4404 L121.229,99.2842 Q121.229,97.9561 121.8462,96.8076 Q122.4634,95.6592 123.5571,95.042 Q124.6509,94.4248 125.8853,94.4248 Q126.6196,94.4248 127.2681,94.5889 Q127.9165,94.7529 128.4634,95.1123 Z " fill="#000000"/><text fill="#000000" font-family="Verdana" font-size="14" lengthAdjust="spacing" textLength="31.8555" x="143.1978" y="104.8052">User</text><line style="stroke:#0066CC;stroke-width:1.0;" x1="13" x2="277.751" y1="113.2373" y2="113.2373"/><rect fill="none" height="6" style="stroke:#000000;stroke-width:1.0;" width="6" x="20" y="124.2446"/><text fill="#000000" font-family="Verdana" font-size="14" lengthAdjust="spacing" textLength="42.0615" x="30" y="131.3125">id: int</text><rect fill="none" height="6" style="stroke:#000000;stroke-width:1.0;" width="6" x="20" y="141.2593"/><text fill="#000000" font-family="Verdana" font-size="14" lengthAdjust="spacing" textLength="123.457" x="30" y="148.3271">username: String</text><rect fill="none" height="6" style="stroke:#000000;stroke-width:1.0;" width="6" x="20" y="158.2739"/><text fill="#000000" font-family="Verdana" font-size="14" lengthAdjust="spacing" textLength="91.8135" x="30" y="165.3418">email: String</text><rect fill="none" height="6" style="stroke:#000000;stroke-width:1.0;" width="6" x="20" y="175.2886"/><text fill="#000000" font-family="Verdana" font-size="14" lengthAdjust="spacing" textLength="155.2168" x="30" y="182.3564">passwordHash: String</text><rect fill="none" height="6" style="stroke:#000000;stroke-width:1.0;" width="6" x="20" y="192.3032"/><text fill="#000000" font-family="Verdana" font-size="14" lengthAdjust="spacing" textLength="147.4717" x="30" y="199.3711">passwordSalt: String</text><rect fill="none" height="6" style="stroke:#000000;stroke-width:1.0;" width="6" x="20" y="209.3179"/><text fill="#000000" font-family="Verdana" font-size="14" lengthAdjust="spacing" textLength="80.418" x="30" y="216.3857">role: String</text><rect fill="none" height="6" style="stroke:#000000;stroke-width:1.0;" width="6" x="20" y="226.3325"/><text fill="#000000" font-family="Verdana" font-size="14" lengthAdjust="spacing" textLength="175.7793" x="30" y="233.4004">resetRequested: boolean</text><line style="stroke:#0066CC;stroke-width:1.0;" x1="13" x2="277.751" y1="240.3398" y2="240.3398"/><ellipse cx="23" cy="254.3472" fill="#FFFFFF" rx="3" ry="3" style="stroke:#000000;stroke-width:1.0;"/><text fill="#000000" font-family="Verdana" font-size="14" lengthAdjust="spacing" textLength="79.4063" x="30" y="258.415">getId(): int</text><ellipse cx="23" cy="271.3618" fill="#FFFFFF" rx="3" ry="3" style="stroke:#000000;stroke-width:1.0;"/><text fill="#000000" font-family="Verdana" font-size="14" lengthAdjust="spacing" textLength="107.3242" x="30" y="275.4297">setId(int): void</text><ellipse cx="23" cy="288.3765" fill="#FFFFFF" rx="3" ry="3" style="stroke:#000000;stroke-width:1.0;"/><text fill="#000000" font-family="Verdana" font-size="14" lengthAdjust="spacing" textLength="160.1387" x="30" y="292.4443">getUsername(): String</text><ellipse cx="23" cy="305.3911" fill="#FFFFFF" rx="3" ry="3" style="stroke:#000000;stroke-width:1.0;"/><text fill="#000000" font-family="Verdana" font-size="14" lengthAdjust="spacing" textLength="188.0566" x="30" y="309.459">setUsername(String): void</text><ellipse cx="23" cy="322.4058" fill="#FFFFFF" rx="3" ry="3" style="stroke:#000000;stroke-width:1.0;"/><text fill="#000000" font-family="Verdana" font-size="14" lengthAdjust="spacing" textLength="127.6201" x="30" y="326.4736">getEmail(): String</text><ellipse cx="23" cy="339.4204" fill="#FFFFFF" rx="3" ry="3" style="stroke:#000000;stroke-width:1.0;"/><text fill="#000000" font-family="Verdana" font-size="14" lengthAdjust="spacing" textLength="155.5381" x="30" y="343.4883">setEmail(String): void</text><ellipse cx="23" cy="356.4351" fill="#FFFFFF" rx="3" ry="3" style="stroke:#000000;stroke-width:1.0;"/><text fill="#000000" font-family="Verdana" font-size="14" lengthAdjust="spacing" textLength="190.2305" x="30" y="360.5029">getPasswordHash(): String</text><ellipse cx="23" cy="373.4497" fill="#FFFFFF" rx="3" ry="3" style="stroke:#000000;stroke-width:1.0;"/><text fill="#000000" font-family="Verdana" font-size="14" lengthAdjust="spacing" textLength="218.1484" x="30" y="377.5176">setPasswordHash(String): void</text><ellipse cx="23" cy="390.4644" fill="#FFFFFF" rx="3" ry="3" style="stroke:#000000;stroke-width:1.0;"/><text fill="#000000" font-family="Verdana" font-size="14" lengthAdjust="spacing" textLength="182.4854" x="30" y="394.5322">getPasswordSalt(): String</text><ellipse cx="23" cy="407.479" fill="#FFFFFF" rx="3" ry="3" style="stroke:#000000;stroke-width:1.0;"/><text fill="#000000" font-family="Verdana" font-size="14" lengthAdjust="spacing" textLength="210.4033" x="30" y="411.5469">setPasswordSalt(String): void</text><ellipse cx="23" cy="424.4937" fill="#FFFFFF" rx="3" ry="3" style="stroke:#000000;stroke-width:1.0;"/><text fill="#000000" font-family="Verdana" font-size="14" lengthAdjust="spacing" textLength="119.4717" x="30" y="428.5615">getRole(): String</text><ellipse cx="23" cy="441.5083" fill="#FFFFFF" rx="3" ry="3" style="stroke:#000000;stroke-width:1.0;"/><text fill="#000000" font-family="Verdana" font-size="14" lengthAdjust="spacing" textLength="147.3896" x="30" y="445.5762">setRole(String): void</text><ellipse cx="23" cy="458.5229" fill="#FFFFFF" rx="3" ry="3" style="stroke:#000000;stroke-width:1.0;"/><text fill="#000000" font-family="Verdana" font-size="14" lengthAdjust="spacing" textLength="203.3896" x="30" y="462.5908">isResetRequested(): boolean</text><ellipse cx="23" cy="475.5376" fill="#FFFFFF" rx="3" ry="3" style="stroke:#000000;stroke-width:1.0;"/><text fill="#000000" font-family="Verdana" font-size="14" lengthAdjust="spacing" textLength="242.751" x="30" y="479.6055">setResetRequested(boolean): void</text></g><!--class Question--><g id="elem_Question"><rect codeLine="44" fill="#E8F4F8" height="452.3516" id="Question" rx="2.5" ry="2.5" style="stroke:#0066CC;stroke-width:1.0;" width="228.668" x="608" y="59.7373"/><ellipse cx="687.4702" cy="73.7373" fill="#FFFFFF" rx="9" ry="9" style="stroke:#000000;stroke-width:1.0;"/><path d="M690.2358,69.6123 Q690.3921,69.3936 690.5796,69.2842 Q690.7671,69.1748 690.9858,69.1748 Q691.3608,69.1748 691.5952,69.4326 Q691.8296,69.6904 691.8296,70.2998 L691.8296,71.7529 Q691.8296,72.3623 691.5952,72.6279 Q691.3608,72.8936 690.9858,72.8936 Q690.6421,72.8936 690.439,72.6904 Q690.2358,72.5029 690.1265,71.9873 Q690.0796,71.6279 689.8921,71.4404 Q689.564,71.0654 688.9546,70.8467 Q688.3452,70.6279 687.7202,70.6279 Q686.9546,70.6279 686.3218,70.9561 Q685.689,71.2842 685.1968,72.0342 Q684.7046,72.7842 684.7046,73.8154 L684.7046,74.9092 Q684.7046,76.1436 685.5952,76.9639 Q686.4858,77.7842 688.0796,77.7842 Q689.0171,77.7842 689.6733,77.5342 Q690.064,77.3779 690.4858,76.9404 Q690.7515,76.6748 690.8999,76.5967 Q691.0483,76.5186 691.2515,76.5186 Q691.5796,76.5186 691.8374,76.7764 Q692.0952,77.0342 692.0952,77.3779 Q692.0952,77.7217 691.7515,78.1279 Q691.2515,78.7061 690.4546,79.0342 Q689.3765,79.4873 688.0796,79.4873 Q686.564,79.4873 685.3608,78.8623 Q684.3765,78.3623 683.689,77.292 Q683.0015,76.2217 683.0015,74.9404 L683.0015,73.7842 Q683.0015,72.4561 683.6187,71.3076 Q684.2358,70.1592 685.3296,69.542 Q686.4233,68.9248 687.6577,68.9248 Q688.3921,68.9248 689.0405,69.0889 Q689.689,69.2529 690.2358,69.6123 Z " fill="#000000"/><text fill="#000000" font-family="Verdana" font-size="14" lengthAdjust="spacing" textLength="62.2275" x="704.9702" y="79.3052">Question</text><line style="stroke:#0066CC;stroke-width:1.0;" x1="609" x2="835.668" y1="87.7373" y2="87.7373"/><rect fill="none" height="6" style="stroke:#000000;stroke-width:1.0;" width="6" x="616" y="98.7446"/><text fill="#000000" font-family="Verdana" font-size="14" lengthAdjust="spacing" textLength="42.0615" x="626" y="105.8125">id: int</text><rect fill="none" height="6" style="stroke:#000000;stroke-width:1.0;" width="6" x="616" y="115.7593"/><text fill="#000000" font-family="Verdana" font-size="14" lengthAdjust="spacing" textLength="138.3457" x="626" y="122.8271">type: QuestionType</text><rect fill="none" height="6" style="stroke:#000000;stroke-width:1.0;" width="6" x="616" y="132.7739"/><text fill="#000000" font-family="Verdana" font-size="14" lengthAdjust="spacing" textLength="104.8154" x="626" y="139.8418">prompt: String</text><rect fill="none" height="6" style="stroke:#000000;stroke-width:1.0;" width="6" x="616" y="149.7886"/><text fill="#000000" font-family="Verdana" font-size="14" lengthAdjust="spacing" textLength="89.5439" x="626" y="156.8564">difficulty: int</text><rect fill="none" height="6" style="stroke:#000000;stroke-width:1.0;" width="6" x="616" y="166.8032"/><text fill="#000000" font-family="Verdana" font-size="14" lengthAdjust="spacing" textLength="72.2285" x="626" y="173.8711">points: int</text><rect fill="none" height="6" style="stroke:#000000;stroke-width:1.0;" width="6" x="616" y="183.8179"/><text fill="#000000" font-family="Verdana" font-size="14" lengthAdjust="spacing" textLength="120.6611" x="626" y="190.8857">metaJson: String</text><rect fill="none" height="6" style="stroke:#000000;stroke-width:1.0;" width="6" x="616" y="200.8325"/><text fill="#000000" font-family="Verdana" font-size="14" lengthAdjust="spacing" textLength="116.7578" x="626" y="207.9004">imageUrl: String</text><rect fill="none" height="6" style="stroke:#000000;stroke-width:1.0;" width="6" x="616" y="217.8472"/><text fill="#000000" font-family="Verdana" font-size="14" lengthAdjust="spacing" textLength="114.8027" x="626" y="224.915">category: String</text><line style="stroke:#0066CC;stroke-width:1.0;" x1="609" x2="835.668" y1="231.8545" y2="231.8545"/><ellipse cx="619" cy="245.8618" fill="#FFFFFF" rx="3" ry="3" style="stroke:#000000;stroke-width:1.0;"/><text fill="#000000" font-family="Verdana" font-size="14" lengthAdjust="spacing" textLength="79.4063" x="626" y="249.9297">getId(): int</text><ellipse cx="619" cy="262.8765" fill="#FFFFFF" rx="3" ry="3" style="stroke:#000000;stroke-width:1.0;"/><text fill="#000000" font-family="Verdana" font-size="14" lengthAdjust="spacing" textLength="107.3242" x="626" y="266.9443">setId(int): void</text><ellipse cx="619" cy="279.8911" fill="#FFFFFF" rx="3" ry="3" style="stroke:#000000;stroke-width:1.0;"/><text fill="#000000" font-family="Verdana" font-size="14" lengthAdjust="spacing" textLength="176.75" x="626" y="283.959">getType(): QuestionType</text><ellipse cx="619" cy="296.9058" fill="#FFFFFF" rx="3" ry="3" style="stroke:#000000;stroke-width:1.0;"/><text fill="#000000" font-family="Verdana" font-size="14" lengthAdjust="spacing" textLength="204.668" x="626" y="300.9736">setType(QuestionType): void</text><ellipse cx="619" cy="313.9204" fill="#FFFFFF" rx="3" ry="3" style="stroke:#000000;stroke-width:1.0;"/><text fill="#000000" font-family="Verdana" font-size="14" lengthAdjust="spacing" textLength="139.8291" x="626" y="317.9883">getPrompt(): String</text><ellipse cx="619" cy="330.9351" fill="#FFFFFF" rx="3" ry="3" style="stroke:#000000;stroke-width:1.0;"/><text fill="#000000" font-family="Verdana" font-size="14" lengthAdjust="spacing" textLength="167.7471" x="626" y="335.0029">setPrompt(String): void</text><ellipse cx="619" cy="347.9497" fill="#FFFFFF" rx="3" ry="3" style="stroke:#000000;stroke-width:1.0;"/><text fill="#000000" font-family="Verdana" font-size="14" lengthAdjust="spacing" textLength="126.9023" x="626" y="352.0176">getDifficulty(): int</text><ellipse cx="619" cy="364.9644" fill="#FFFFFF" rx="3" ry="3" style="stroke:#000000;stroke-width:1.0;"/><text fill="#000000" font-family="Verdana" font-size="14" lengthAdjust="spacing" textLength="154.8203" x="626" y="369.0322">setDifficulty(int): void</text><ellipse cx="619" cy="381.979" fill="#FFFFFF" rx="3" ry="3" style="stroke:#000000;stroke-width:1.0;"/><text fill="#000000" font-family="Verdana" font-size="14" lengthAdjust="spacing" textLength="107.2422" x="626" y="386.0469">getPoints(): int</text><ellipse cx="619" cy="398.9937" fill="#FFFFFF" rx="3" ry="3" style="stroke:#000000;stroke-width:1.0;"/><text fill="#000000" font-family="Verdana" font-size="14" lengthAdjust="spacing" textLength="135.1602" x="626" y="403.0615">setPoints(int): void</text><ellipse cx="619" cy="416.0083" fill="#FFFFFF" rx="3" ry="3" style="stroke:#000000;stroke-width:1.0;"/><text fill="#000000" font-family="Verdana" font-size="14" lengthAdjust="spacing" textLength="154.1367" x="626" y="420.0762">getMetaJson(): String</text><ellipse cx="619" cy="433.0229" fill="#FFFFFF" rx="3" ry="3" style="stroke:#000000;stroke-width:1.0;"/><text fill="#000000" font-family="Verdana" font-size="14" lengthAdjust="spacing" textLength="182.0547" x="626" y="437.0908">setMetaJson(String): void</text><ellipse cx="619" cy="450.0376" fill="#FFFFFF" rx="3" ry="3" style="stroke:#000000;stroke-width:1.0;"/><text fill="#000000" font-family="Verdana" font-size="14" lengthAdjust="spacing" textLength="154.1025" x="626" y="454.1055">getImageUrl(): String</text><ellipse cx="619" cy="467.0522" fill="#FFFFFF" rx="3" ry="3" style="stroke:#000000;stroke-width:1.0;"/><text fill="#000000" font-family="Verdana" font-size="14" lengthAdjust="spacing" textLength="182.0205" x="626" y="471.1201">setImageUrl(String): void</text><ellipse cx="619" cy="484.0669" fill="#FFFFFF" rx="3" ry="3" style="stroke:#000000;stroke-width:1.0;"/><text fill="#000000" font-family="Verdana" font-size="14" lengthAdjust="spacing" textLength="152.5781" x="626" y="488.1348">getCategory(): String</text><ellipse cx="619" cy="501.0815" fill="#FFFFFF" rx="3" ry="3" style="stroke:#000000;stroke-width:1.0;"/><text fill="#000000" font-family="Verdana" font-size="14" lengthAdjust="spacing" textLength="180.4961" x="626" y="505.1494">setCategory(String): void</text></g><!--class AnswerOption--><g id="elem_AnswerOption"><rect codeLine="72" fill="#E8F4F8" height="214.1465" id="AnswerOption" rx="2.5" ry="2.5" style="stroke:#0066CC;stroke-width:1.0;" width="201.0098" x="622" y="622.7373"/><ellipse cx="669.7788" cy="636.7373" fill="#FFFFFF" rx="9" ry="9" style="stroke:#000000;stroke-width:1.0;"/><path d="M672.5444,632.6123 Q672.7007,632.3936 672.8882,632.2842 Q673.0757,632.1748 673.2944,632.1748 Q673.6694,632.1748 673.9038,632.4326 Q674.1382,632.6904 674.1382,633.2998 L674.1382,634.7529 Q674.1382,635.3623 673.9038,635.6279 Q673.6694,635.8936 673.2944,635.8936 Q672.9507,635.8936 672.7476,635.6904 Q672.5444,635.5029 672.4351,634.9873 Q672.3882,634.6279 672.2007,634.4404 Q671.8726,634.0654 671.2632,633.8467 Q670.6538,633.6279 670.0288,633.6279 Q669.2632,633.6279 668.6304,633.9561 Q667.9976,634.2842 667.5054,635.0342 Q667.0132,635.7842 667.0132,636.8154 L667.0132,637.9092 Q667.0132,639.1436 667.9038,639.9639 Q668.7944,640.7842 670.3882,640.7842 Q671.3257,640.7842 671.9819,640.5342 Q672.3726,640.3779 672.7944,639.9404 Q673.0601,639.6748 673.2085,639.5967 Q673.3569,639.5186 673.5601,639.5186 Q673.8882,639.5186 674.146,639.7764 Q674.4038,640.0342 674.4038,640.3779 Q674.4038,640.7217 674.0601,641.1279 Q673.5601,641.7061 672.7632,642.0342 Q671.6851,642.4873 670.3882,642.4873 Q668.8726,642.4873 667.6694,641.8623 Q666.6851,641.3623 665.9976,640.292 Q665.3101,639.2217 665.3101,637.9404 L665.3101,636.7842 Q665.3101,635.4561 665.9272,634.3076 Q666.5444,633.1592 667.6382,632.542 Q668.7319,631.9248 669.9663,631.9248 Q670.7007,631.9248 671.3491,632.0889 Q671.9976,632.2529 672.5444,632.6123 Z " fill="#000000"/><text fill="#000000" font-family="Verdana" font-size="14" lengthAdjust="spacing" textLength="97.9521" x="687.2788" y="642.3052">AnswerOption</text><line style="stroke:#0066CC;stroke-width:1.0;" x1="623" x2="822.0098" y1="650.7373" y2="650.7373"/><rect fill="none" height="6" style="stroke:#000000;stroke-width:1.0;" width="6" x="630" y="661.7446"/><text fill="#000000" font-family="Verdana" font-size="14" lengthAdjust="spacing" textLength="42.0615" x="640" y="668.8125">id: int</text><rect fill="none" height="6" style="stroke:#000000;stroke-width:1.0;" width="6" x="630" y="678.7593"/><text fill="#000000" font-family="Verdana" font-size="14" lengthAdjust="spacing" textLength="104.043" x="640" y="685.8271">questionId: int</text><rect fill="none" height="6" style="stroke:#000000;stroke-width:1.0;" width="6" x="630" y="695.7739"/><text fill="#000000" font-family="Verdana" font-size="14" lengthAdjust="spacing" textLength="134.8662" x="640" y="702.8418">answerText: String</text><rect fill="none" height="6" style="stroke:#000000;stroke-width:1.0;" width="6" x="630" y="712.7886"/><text fill="#000000" font-family="Verdana" font-size="14" lengthAdjust="spacing" textLength="115.3359" x="640" y="719.8564">correct: boolean</text><rect fill="none" height="6" style="stroke:#000000;stroke-width:1.0;" width="6" x="630" y="729.8032"/><text fill="#000000" font-family="Verdana" font-size="14" lengthAdjust="spacing" textLength="141.9961" x="640" y="736.8711">partialValue: double</text><line style="stroke:#0066CC;stroke-width:1.0;" x1="623" x2="822.0098" y1="743.8105" y2="743.8105"/><ellipse cx="633" cy="757.8179" fill="#FFFFFF" rx="3" ry="3" style="stroke:#000000;stroke-width:1.0;"/><text fill="#000000" font-family="Verdana" font-size="14" lengthAdjust="spacing" textLength="79.4063" x="640" y="761.8857">getId(): int</text><ellipse cx="633" cy="774.8325" fill="#FFFFFF" rx="3" ry="3" style="stroke:#000000;stroke-width:1.0;"/><text fill="#000000" font-family="Verdana" font-size="14" lengthAdjust="spacing" textLength="141.6338" x="640" y="778.9004">getQuestionId(): int</text><ellipse cx="633" cy="791.8472" fill="#FFFFFF" rx="3" ry="3" style="stroke:#000000;stroke-width:1.0;"/><text fill="#000000" font-family="Verdana" font-size="14" lengthAdjust="spacing" textLength="171.3223" x="640" y="795.915">getAnswerText(): String</text><ellipse cx="633" cy="808.8618" fill="#FFFFFF" rx="3" ry="3" style="stroke:#000000;stroke-width:1.0;"/><text fill="#000000" font-family="Verdana" font-size="14" lengthAdjust="spacing" textLength="141.668" x="640" y="812.9297">isCorrect(): boolean</text><ellipse cx="633" cy="825.8765" fill="#FFFFFF" rx="3" ry="3" style="stroke:#000000;stroke-width:1.0;"/><text fill="#000000" font-family="Verdana" font-size="14" lengthAdjust="spacing" textLength="177.0098" x="640" y="829.9443">getPartialValue(): double</text></g><!--class ClozeToken--><g id="elem_ClozeToken"><rect codeLine="86" fill="#E8F4F8" height="214.1465" id="ClozeToken" rx="2.5" ry="2.5" style="stroke:#0066CC;stroke-width:1.0;" width="207.9004" x="858.5" y="622.7373"/><ellipse cx="918.4912" cy="636.7373" fill="#FFFFFF" rx="9" ry="9" style="stroke:#000000;stroke-width:1.0;"/><path d="M921.2568,632.6123 Q921.4131,632.3936 921.6006,632.2842 Q921.7881,632.1748 922.0068,632.1748 Q922.3818,632.1748 922.6162,632.4326 Q922.8506,632.6904 922.8506,633.2998 L922.8506,634.7529 Q922.8506,635.3623 922.6162,635.6279 Q922.3818,635.8936 922.0068,635.8936 Q921.6631,635.8936 921.46,635.6904 Q921.2568,635.5029 921.1475,634.9873 Q921.1006,634.6279 920.9131,634.4404 Q920.585,634.0654 919.9756,633.8467 Q919.3662,633.6279 918.7412,633.6279 Q917.9756,633.6279 917.3428,633.9561 Q916.71,634.2842 916.2178,635.0342 Q915.7256,635.7842 915.7256,636.8154 L915.7256,637.9092 Q915.7256,639.1436 916.6162,639.9639 Q917.5068,640.7842 919.1006,640.7842 Q920.0381,640.7842 920.6943,640.5342 Q921.085,640.3779 921.5068,639.9404 Q921.7725,639.6748 921.9209,639.5967 Q922.0693,639.5186 922.2725,639.5186 Q922.6006,639.5186 922.8584,639.7764 Q923.1162,640.0342 923.1162,640.3779 Q923.1162,640.7217 922.7725,641.1279 Q922.2725,641.7061 921.4756,642.0342 Q920.3975,642.4873 919.1006,642.4873 Q917.585,642.4873 916.3818,641.8623 Q915.3975,641.3623 914.71,640.292 Q914.0225,639.2217 914.0225,637.9404 L914.0225,636.7842 Q914.0225,635.4561 914.6396,634.3076 Q915.2568,633.1592 916.3506,632.542 Q917.4443,631.9248 918.6787,631.9248 Q919.4131,631.9248 920.0615,632.0889 Q920.71,632.2529 921.2568,632.6123 Z " fill="#000000"/><text fill="#000000" font-family="Verdana" font-size="14" lengthAdjust="spacing" textLength="80.418" x="935.9912" y="642.3052">ClozeToken</text><line style="stroke:#0066CC;stroke-width:1.0;" x1="859.5" x2="1065.4004" y1="650.7373" y2="650.7373"/><rect fill="none" height="6" style="stroke:#000000;stroke-width:1.0;" width="6" x="866.5" y="661.7446"/><text fill="#000000" font-family="Verdana" font-size="14" lengthAdjust="spacing" textLength="42.0615" x="876.5" y="668.8125">id: int</text><rect fill="none" height="6" style="stroke:#000000;stroke-width:1.0;" width="6" x="866.5" y="678.7593"/><text fill="#000000" font-family="Verdana" font-size="14" lengthAdjust="spacing" textLength="104.043" x="876.5" y="685.8271">questionId: int</text><rect fill="none" height="6" style="stroke:#000000;stroke-width:1.0;" width="6" x="866.5" y="695.7739"/><text fill="#000000" font-family="Verdana" font-size="14" lengthAdjust="spacing" textLength="109.0947" x="876.5" y="702.8418">tokenIndex: int</text><rect fill="none" height="6" style="stroke:#000000;stroke-width:1.0;" width="6" x="866.5" y="712.7886"/><text fill="#000000" font-family="Verdana" font-size="14" lengthAdjust="spacing" textLength="148.0938" x="876.5" y="719.8564">expectedText: String</text><rect fill="none" height="6" style="stroke:#000000;stroke-width:1.0;" width="6" x="866.5" y="729.8032"/><text fill="#000000" font-family="Verdana" font-size="14" lengthAdjust="spacing" textLength="141.9961" x="876.5" y="736.8711">partialValue: double</text><line style="stroke:#0066CC;stroke-width:1.0;" x1="859.5" x2="1065.4004" y1="743.8105" y2="743.8105"/><ellipse cx="869.5" cy="757.8179" fill="#FFFFFF" rx="3" ry="3" style="stroke:#000000;stroke-width:1.0;"/><text fill="#000000" font-family="Verdana" font-size="14" lengthAdjust="spacing" textLength="79.4063" x="876.5" y="761.8857">getId(): int</text><ellipse cx="869.5" cy="774.8325" fill="#FFFFFF" rx="3" ry="3" style="stroke:#000000;stroke-width:1.0;"/><text fill="#000000" font-family="Verdana" font-size="14" lengthAdjust="spacing" textLength="141.6338" x="876.5" y="778.9004">getQuestionId(): int</text><ellipse cx="869.5" cy="791.8472" fill="#FFFFFF" rx="3" ry="3" style="stroke:#000000;stroke-width:1.0;"/><text fill="#000000" font-family="Verdana" font-size="14" lengthAdjust="spacing" textLength="147.499" x="876.5" y="795.915">getTokenIndex(): int</text><ellipse cx="869.5" cy="808.8618" fill="#FFFFFF" rx="3" ry="3" style="stroke:#000000;stroke-width:1.0;"/><text fill="#000000" font-family="Verdana" font-size="14" lengthAdjust="spacing" textLength="183.9004" x="876.5" y="812.9297">getExpectedText(): String</text><ellipse cx="869.5" cy="825.8765" fill="#FFFFFF" rx="3" ry="3" style="stroke:#000000;stroke-width:1.0;"/><text fill="#000000" font-family="Verdana" font-size="14" lengthAdjust="spacing" textLength="177.0098" x="876.5" y="829.9443">getPartialValue(): double</text></g><!--class Attempt--><g id="elem_Attempt"><rect codeLine="100" fill="#E8F4F8" height="316.2344" id="Attempt" rx="2.5" ry="2.5" style="stroke:#0066CC;stroke-width:1.0;" width="250.2285" x="20.5" y="571.7373"/><ellipse cx="113.4644" cy="585.7373" fill="#FFFFFF" rx="9" ry="9" style="stroke:#000000;stroke-width:1.0;"/><path d="M116.23,581.6123 Q116.3862,581.3936 116.5737,581.2842 Q116.7612,581.1748 116.98,581.1748 Q117.355,581.1748 117.5894,581.4326 Q117.8237,581.6904 117.8237,582.2998 L117.8237,583.7529 Q117.8237,584.3623 117.5894,584.6279 Q117.355,584.8936 116.98,584.8936 Q116.6362,584.8936 116.4331,584.6904 Q116.23,584.5029 116.1206,583.9873 Q116.0737,583.6279 115.8862,583.4404 Q115.5581,583.0654 114.9487,582.8467 Q114.3394,582.6279 113.7144,582.6279 Q112.9487,582.6279 112.3159,582.9561 Q111.6831,583.2842 111.1909,584.0342 Q110.6987,584.7842 110.6987,585.8154 L110.6987,586.9092 Q110.6987,588.1436 111.5894,588.9639 Q112.48,589.7842 114.0737,589.7842 Q115.0112,589.7842 115.6675,589.5342 Q116.0581,589.3779 116.48,588.9404 Q116.7456,588.6748 116.894,588.5967 Q117.0425,588.5186 117.2456,588.5186 Q117.5737,588.5186 117.8315,588.7764 Q118.0894,589.0342 118.0894,589.3779 Q118.0894,589.7217 117.7456,590.1279 Q117.2456,590.7061 116.4487,591.0342 Q115.3706,591.4873 114.0737,591.4873 Q112.5581,591.4873 111.355,590.8623 Q110.3706,590.3623 109.6831,589.292 Q108.9956,588.2217 108.9956,586.9404 L108.9956,585.7842 Q108.9956,584.4561 109.6128,583.3076 Q110.23,582.1592 111.3237,581.542 Q112.4175,580.9248 113.6519,580.9248 Q114.3862,580.9248 115.0347,581.0889 Q115.6831,581.2529 116.23,581.6123 Z " fill="#000000"/><text fill="#000000" font-family="Verdana" font-size="14" lengthAdjust="spacing" textLength="56.7998" x="130.9644" y="591.3052">Attempt</text><line style="stroke:#0066CC;stroke-width:1.0;" x1="21.5" x2="269.7285" y1="599.7373" y2="599.7373"/><rect fill="none" height="6" style="stroke:#000000;stroke-width:1.0;" width="6" x="28.5" y="610.7446"/><text fill="#000000" font-family="Verdana" font-size="14" lengthAdjust="spacing" textLength="42.0615" x="38.5" y="617.8125">id: int</text><rect fill="none" height="6" style="stroke:#000000;stroke-width:1.0;" width="6" x="28.5" y="627.7593"/><text fill="#000000" font-family="Verdana" font-size="14" lengthAdjust="spacing" textLength="74.5801" x="38.5" y="634.8271">userId: int</text><rect fill="none" height="6" style="stroke:#000000;stroke-width:1.0;" width="6" x="28.5" y="644.7739"/><text fill="#000000" font-family="Verdana" font-size="14" lengthAdjust="spacing" textLength="132.4941" x="38.5" y="651.8418">totalPoints: double</text><rect fill="none" height="6" style="stroke:#000000;stroke-width:1.0;" width="6" x="28.5" y="661.7886"/><text fill="#000000" font-family="Verdana" font-size="14" lengthAdjust="spacing" textLength="131.0244" x="38.5" y="668.8564">maxPoints: double</text><rect fill="none" height="6" style="stroke:#000000;stroke-width:1.0;" width="6" x="28.5" y="678.8032"/><text fill="#000000" font-family="Verdana" font-size="14" lengthAdjust="spacing" textLength="89.5439" x="38.5" y="685.8711">difficulty: int</text><rect fill="none" height="6" style="stroke:#000000;stroke-width:1.0;" width="6" x="28.5" y="695.8179"/><text fill="#000000" font-family="Verdana" font-size="14" lengthAdjust="spacing" textLength="188.4531" x="38.5" y="702.8857">createdAt: OffsetDateTime</text><rect fill="none" height="6" style="stroke:#000000;stroke-width:1.0;" width="6" x="28.5" y="712.8325"/><text fill="#000000" font-family="Verdana" font-size="14" lengthAdjust="spacing" textLength="93.9326" x="38.5" y="719.9004">grade: String</text><rect fill="none" height="6" style="stroke:#000000;stroke-width:1.0;" width="6" x="28.5" y="729.8472"/><text fill="#000000" font-family="Verdana" font-size="14" lengthAdjust="spacing" textLength="146.7539" x="38.5" y="736.915">durationSeconds: int</text><line style="stroke:#0066CC;stroke-width:1.0;" x1="21.5" x2="269.7285" y1="743.8545" y2="743.8545"/><ellipse cx="31.5" cy="757.8618" fill="#FFFFFF" rx="3" ry="3" style="stroke:#000000;stroke-width:1.0;"/><text fill="#000000" font-family="Verdana" font-size="14" lengthAdjust="spacing" textLength="79.4063" x="38.5" y="761.9297">getId(): int</text><ellipse cx="31.5" cy="774.8765" fill="#FFFFFF" rx="3" ry="3" style="stroke:#000000;stroke-width:1.0;"/><text fill="#000000" font-family="Verdana" font-size="14" lengthAdjust="spacing" textLength="111.2617" x="38.5" y="778.9443">getUserId(): int</text><ellipse cx="31.5" cy="791.8911" fill="#FFFFFF" rx="3" ry="3" style="stroke:#000000;stroke-width:1.0;"/><text fill="#000000" font-family="Verdana" font-size="14" lengthAdjust="spacing" textLength="170.8984" x="38.5" y="795.959">getTotalPoints(): double</text><ellipse cx="31.5" cy="808.9058" fill="#FFFFFF" rx="3" ry="3" style="stroke:#000000;stroke-width:1.0;"/><text fill="#000000" font-family="Verdana" font-size="14" lengthAdjust="spacing" textLength="164.5" x="38.5" y="812.9736">getMaxPoints(): double</text><ellipse cx="31.5" cy="825.9204" fill="#FFFFFF" rx="3" ry="3" style="stroke:#000000;stroke-width:1.0;"/><text fill="#000000" font-family="Verdana" font-size="14" lengthAdjust="spacing" textLength="126.9023" x="38.5" y="829.9883">getDifficulty(): int</text><ellipse cx="31.5" cy="842.9351" fill="#FFFFFF" rx="3" ry="3" style="stroke:#000000;stroke-width:1.0;"/><text fill="#000000" font-family="Verdana" font-size="14" lengthAdjust="spacing" textLength="226.2285" x="38.5" y="847.0029">getCreatedAt(): OffsetDateTime</text><ellipse cx="31.5" cy="859.9497" fill="#FFFFFF" rx="3" ry="3" style="stroke:#000000;stroke-width:1.0;"/><text fill="#000000" font-family="Verdana" font-size="14" lengthAdjust="spacing" textLength="131.3594" x="38.5" y="864.0176">getGrade(): String</text><ellipse cx="31.5" cy="876.9644" fill="#FFFFFF" rx="3" ry="3" style="stroke:#000000;stroke-width:1.0;"/><text fill="#000000" font-family="Verdana" font-size="14" lengthAdjust="spacing" textLength="184.1123" x="38.5" y="881.0322">getDurationSeconds(): int</text></g><!--class AttemptAnswer--><g id="elem_AttemptAnswer"><rect codeLine="120" fill="#E8F4F8" height="214.1465" id="AttemptAnswer" rx="2.5" ry="2.5" style="stroke:#0066CC;stroke-width:1.0;" width="221.2031" x="35" y="947.7373"/><ellipse cx="87.7041" cy="961.7373" fill="#FFFFFF" rx="9" ry="9" style="stroke:#000000;stroke-width:1.0;"/><path d="M90.4697,957.6123 Q90.626,957.3936 90.8135,957.2842 Q91.001,957.1748 91.2197,957.1748 Q91.5947,957.1748 91.8291,957.4326 Q92.0635,957.6904 92.0635,958.2998 L92.0635,959.7529 Q92.0635,960.3623 91.8291,960.6279 Q91.5947,960.8936 91.2197,960.8936 Q90.876,960.8936 90.6729,960.6904 Q90.4697,960.5029 90.3604,959.9873 Q90.3135,959.6279 90.126,959.4404 Q89.7979,959.0654 89.1885,958.8467 Q88.5791,958.6279 87.9541,958.6279 Q87.1885,958.6279 86.5557,958.9561 Q85.9229,959.2842 85.4307,960.0342 Q84.9385,960.7842 84.9385,961.8154 L84.9385,962.9092 Q84.9385,964.1436 85.8291,964.9639 Q86.7197,965.7842 88.3135,965.7842 Q89.251,965.7842 89.9072,965.5342 Q90.2979,965.3779 90.7197,964.9404 Q90.9854,964.6748 91.1338,964.5967 Q91.2822,964.5186 91.4854,964.5186 Q91.8135,964.5186 92.0713,964.7764 Q92.3291,965.0342 92.3291,965.3779 Q92.3291,965.7217 91.9854,966.1279 Q91.4854,966.7061 90.6885,967.0342 Q89.6104,967.4873 88.3135,967.4873 Q86.7979,967.4873 85.5947,966.8623 Q84.6104,966.3623 83.9229,965.292 Q83.2354,964.2217 83.2354,962.9404 L83.2354,961.7842 Q83.2354,960.4561 83.8525,959.3076 Q84.4697,958.1592 85.5635,957.542 Q86.6572,956.9248 87.8916,956.9248 Q88.626,956.9248 89.2744,957.0889 Q89.9229,957.2529 90.4697,957.6123 Z " fill="#000000"/><text fill="#000000" font-family="Verdana" font-size="14" lengthAdjust="spacing" textLength="108.2949" x="105.2041" y="967.3052">AttemptAnswer</text><line style="stroke:#0066CC;stroke-width:1.0;" x1="36" x2="255.2031" y1="975.7373" y2="975.7373"/><rect fill="none" height="6" style="stroke:#000000;stroke-width:1.0;" width="6" x="43" y="986.7446"/><text fill="#000000" font-family="Verdana" font-size="14" lengthAdjust="spacing" textLength="42.0615" x="53" y="993.8125">id: int</text><rect fill="none" height="6" style="stroke:#000000;stroke-width:1.0;" width="6" x="43" y="1003.7593"/><text fill="#000000" font-family="Verdana" font-size="14" lengthAdjust="spacing" textLength="99.75" x="53" y="1010.8271">attemptId: int</text><rect fill="none" height="6" style="stroke:#000000;stroke-width:1.0;" width="6" x="43" y="1020.7739"/><text fill="#000000" font-family="Verdana" font-size="14" lengthAdjust="spacing" textLength="104.043" x="53" y="1027.8418">questionId: int</text><rect fill="none" height="6" style="stroke:#000000;stroke-width:1.0;" width="6" x="43" y="1037.7886"/><text fill="#000000" font-family="Verdana" font-size="14" lengthAdjust="spacing" textLength="143.3086" x="53" y="1044.8564">givenAnswer: String</text><rect fill="none" height="6" style="stroke:#000000;stroke-width:1.0;" width="6" x="43" y="1054.8032"/><text fill="#000000" font-family="Verdana" font-size="14" lengthAdjust="spacing" textLength="162.1895" x="53" y="1061.8711">pointsAwarded: double</text><line style="stroke:#0066CC;stroke-width:1.0;" x1="36" x2="255.2031" y1="1068.8105" y2="1068.8105"/><ellipse cx="46" cy="1082.8179" fill="#FFFFFF" rx="3" ry="3" style="stroke:#000000;stroke-width:1.0;"/><text fill="#000000" font-family="Verdana" font-size="14" lengthAdjust="spacing" textLength="79.4063" x="53" y="1086.8857">getId(): int</text><ellipse cx="46" cy="1099.8325" fill="#FFFFFF" rx="3" ry="3" style="stroke:#000000;stroke-width:1.0;"/><text fill="#000000" font-family="Verdana" font-size="14" lengthAdjust="spacing" textLength="136.2061" x="53" y="1103.9004">getAttemptId(): int</text><ellipse cx="46" cy="1116.8472" fill="#FFFFFF" rx="3" ry="3" style="stroke:#000000;stroke-width:1.0;"/><text fill="#000000" font-family="Verdana" font-size="14" lengthAdjust="spacing" textLength="141.6338" x="53" y="1120.915">getQuestionId(): int</text><ellipse cx="46" cy="1133.8618" fill="#FFFFFF" rx="3" ry="3" style="stroke:#000000;stroke-width:1.0;"/><text fill="#000000" font-family="Verdana" font-size="14" lengthAdjust="spacing" textLength="180.7354" x="53" y="1137.9297">getGivenAnswer(): String</text><ellipse cx="46" cy="1150.8765" fill="#FFFFFF" rx="3" ry="3" style="stroke:#000000;stroke-width:1.0;"/><text fill="#000000" font-family="Verdana" font-size="14" lengthAdjust="spacing" textLength="197.2031" x="53" y="1154.9443">getPointsAwarded(): double</text></g><g id="elem_GMN14"><path d="M314,249.2373 L314,281.7373 L279.25,285.7373 L314,289.7373 L314,322.4346 A0,0 0 0 0 314,322.4346 L573.3228,322.4346 A0,0 0 0 0 573.3228,322.4346 L573.3228,259.2373 L563.3228,249.2373 L314,249.2373 A0,0 0 0 0 314,249.2373 " fill="#FFFFFF" style="stroke:#000000;stroke-width:1.0;"/><path d="M563.3228,249.2373 L563.3228,259.2373 L573.3228,259.2373 L563.3228,249.2373 " fill="#FFFFFF" style="stroke:#000000;stroke-width:1.0;"/><text fill="#000000" font-family="Verdana" font-size="13" font-weight="bold" lengthAdjust="spacing" textLength="63.3433" x="320" y="267.3071">Hinweis:</text><text fill="#000000" font-family="Verdana" font-size="13" lengthAdjust="spacing" textLength="238.3228" x="320" y="283.1064">- role ist String: "student" | "admin"</text><text fill="#000000" font-family="Verdana" font-size="13" lengthAdjust="spacing" textLength="189.084" x="320" y="298.9058">- Kein Role-Enum vorhanden</text><text fill="#000000" font-family="Verdana" font-size="13" lengthAdjust="spacing" textLength="222.2822" x="320" y="314.7051">- SHA-256 mit 10.000 Iterationen</text></g><g id="elem_GMN17"><path d="M872.5,241.2373 L872.5,281.7373 L837.29,285.7373 L872.5,289.7373 L872.5,330.2339 A0,0 0 0 0 872.5,330.2339 L1168.0806,330.2339 A0,0 0 0 0 1168.0806,330.2339 L1168.0806,251.2373 L1158.0806,241.2373 L872.5,241.2373 A0,0 0 0 0 872.5,241.2373 " fill="#FFFFFF" style="stroke:#000000;stroke-width:1.0;"/><path d="M1158.0806,241.2373 L1158.0806,251.2373 L1168.0806,251.2373 L1158.0806,241.2373 " fill="#FFFFFF" style="stroke:#000000;stroke-width:1.0;"/><text fill="#000000" font-family="Verdana" font-size="13" font-weight="bold" lengthAdjust="spacing" textLength="63.3433" x="878.5" y="259.3071">Hinweis:</text><text fill="#000000" font-family="Verdana" font-size="13" lengthAdjust="spacing" textLength="274.5806" x="878.5" y="275.1064">- difficulty: 1=Leicht, 2=Mittel, 3=Schwer</text><text fill="#000000" font-family="Verdana" font-size="13" lengthAdjust="spacing" textLength="222.6123" x="878.5" y="290.9058">- metaJson: clozeAlternatives etc.</text><text fill="#000000" font-family="Verdana" font-size="13" lengthAdjust="spacing" textLength="5.9033" x="878.5" y="306.7051">-</text><text fill="#000000" font-family="Verdana" font-size="13" font-weight="bold" lengthAdjust="spacing" textLength="135.8208" x="888.9736" y="306.7051">KEINE Test-Entity!</text><text fill="#000000" font-family="Verdana" font-size="13" lengthAdjust="spacing" textLength="225.291" x="887.6406" y="322.5044">Tests werden dynamisch generiert</text></g><!--link Question to QuestionType--><g id="link_Question_QuestionType"><path codeLine="135" d="M607.95,499.7373 C591.36,499.7373 579.75,499.7373 579.75,499.7373 C579.75,499.7373 579.75,599.3773 579.75,667.4773 " fill="none" id="Question-to-QuestionType" style="stroke:#0066CC;stroke-width:1.0;"/><polygon fill="#0066CC" points="579.75,673.4773,583.75,664.4773,579.75,668.4773,575.75,664.4773,579.75,673.4773" style="stroke:#0066CC;stroke-width:1.0;"/><text fill="#000000" font-family="Verdana" font-size="13" lengthAdjust="spacing" textLength="28.6597" x="550.75" y="569.5771">type</text></g><!--link Question to AnswerOption--><g id="link_Question_AnswerOption"><path codeLine="136" d="M722.5,511.9673 C722.5,550.5973 722.5,577.0473 722.5,610.6573 " fill="none" id="Question-to-AnswerOption" style="stroke:#0066CC;stroke-width:1.0;"/><polygon fill="none" points="722.5,622.6573,726.5,616.6573,722.5,610.6573,718.5,616.6573,722.5,622.6573" style="stroke:#0066CC;stroke-width:1.0;"/><text fill="#000000" font-family="Verdana" font-size="13" lengthAdjust="spacing" textLength="107.085" x="614.5" y="564.3771">hat (MC/IMAGE)</text><text fill="#000000" font-family="Verdana" font-size="13" lengthAdjust="spacing" textLength="8.2646" x="714.367" y="533.4448">1</text><text fill="#000000" font-family="Verdana" font-size="13" lengthAdjust="spacing" textLength="8.2646" x="714.2035" y="611.9796">*</text></g><!--link Question to ClozeToken--><g id="link_Question_ClozeToken"><path codeLine="137" d="M837.25,421.7373 C853.87,421.7373 865.5,421.7373 865.5,421.7373 C865.5,421.7373 865.5,521.5573 865.5,610.4473 " fill="none" id="Question-to-ClozeToken" style="stroke:#0066CC;stroke-width:1.0;"/><polygon fill="none" points="865.5,622.4473,869.5,616.4473,865.5,610.4473,861.5,616.4473,865.5,622.4473" style="stroke:#0066CC;stroke-width:1.0;"/><text fill="#000000" font-family="Verdana" font-size="13" lengthAdjust="spacing" textLength="81.2056" x="866.5" y="505.0371">hat (CLOZE)</text><text fill="#000000" font-family="Verdana" font-size="13" lengthAdjust="spacing" textLength="8.2646" x="844.5045" y="427.6512">1</text><text fill="#000000" font-family="Verdana" font-size="13" lengthAdjust="spacing" textLength="8.2646" x="850.0962" y="612.1112">*</text></g><!--link User to Attempt--><g id="link_User_Attempt"><path codeLine="138" d="M145.5,486.3073 C145.5,514.9173 145.5,532.0073 145.5,559.6473 " fill="none" id="User-to-Attempt" style="stroke:#0066CC;stroke-width:1.0;"/><polygon fill="none" points="145.5,571.6473,149.5,565.6473,145.5,559.6473,141.5,565.6473,145.5,571.6473" style="stroke:#0066CC;stroke-width:1.0;"/><text fill="#000000" font-family="Verdana" font-size="13" lengthAdjust="spacing" textLength="40.5742" x="104.5" y="526.0471">macht</text><text fill="#000000" font-family="Verdana" font-size="13" lengthAdjust="spacing" textLength="8.2646" x="137.3538" y="507.5145">1</text><text fill="#000000" font-family="Verdana" font-size="13" lengthAdjust="spacing" textLength="8.2646" x="137.2947" y="561.1935">*</text></g><!--link Attempt to AttemptAnswer--><g id="link_Attempt_AttemptAnswer"><path codeLine="139" d="M145.5,887.9573 C145.5,908.1273 145.5,916.3973 145.5,935.5073 " fill="none" id="Attempt-to-AttemptAnswer" style="stroke:#0066CC;stroke-width:1.0;"/><polygon fill="none" points="145.5,947.5073,149.5,941.5073,145.5,935.5073,141.5,941.5073,145.5,947.5073" style="stroke:#0066CC;stroke-width:1.0;"/><text fill="#000000" font-family="Verdana" font-size="13" lengthAdjust="spacing" textLength="45.8174" x="146.5" y="914.7971">enth&#228;lt</text><text fill="#000000" font-family="Verdana" font-size="13" lengthAdjust="spacing" textLength="8.2646" x="137.3071" y="909.0679">1</text><text fill="#000000" font-family="Verdana" font-size="13" lengthAdjust="spacing" textLength="8.2646" x="137.2085" y="937.1756">*</text></g><!--SRC=[hLPVS-8s47_tfzYZ3xrmnnMkRUQ6cNJ69Kv24qAEF-rCttJs0fhO4YU94Axjj-atwHVhIZR6mkOcdIaFW7P_gztzQLVQLsQ56S8wPLm4-f6BDLCiWpXbMl_CuiUbaXkH36Gg5NmJVRZwuUf33IPLWgg0TBldvuF1CIHKIcvF8HPIc2d_Wj3hLQGf5sXsQmIfp4e6WU4cHVYDQur26zG6Ed1hzqQHSBOaamnco5FezM4a4qmxXJO8leMBXWz4z_DHeoP0iSdWuuQSS2bcDeW_0e3HWBu6T-FV8_gzcaJsPpWAhwFWhvC-HkFBw8wCmkaqcZOxSmJ1NADoNZeywGCNnlxTa52m3FimDOgBfPLXndXQ5Qp9V4j7SCFqgaa-PQcfofLClGqLQZGJ_6pJHVBzIHA02QlgqDUR9PfXylfi7zGRxTQq8D6Jv4c1cHUnMcIvkGMNYbpgMqKscvf9Bct2FrIIhPbvogzPMqfEMZjba_M4UAbPEM4DpVN4OzMQ7NXrThw-KEwte8BAos9VXBNIiAtHzshKdRcIsTexxOGl5ZpUf6PNcgub_T7bCaF3Vj5ILArunfOuLrwTnSpWKgfTLVPV2iJ6Q557CLkuKrNbHyVcigeVM2vkEghBCci_hegy5j-3eyN75x8QTbHmLekfL3H5DInOhLcLYYQhGS5xpQfK-5PbxOH2Rr6DrutryxbWUtWGCOUVuRDNGB5K2cFZtGjqGnlEqbzPkg4YJEJcKuedou7M7qjdlZmiFVh9SJt8lHxrZMlXWskhBPoNIGzI-GLdyX5VbBAnmA58yBaKuVEQ76DopCF_bVEiTEdBeufVduqNP1qQWzGBZG-8bwvXwKFH_eSKClPS5pPS7B52Ahaa95x6YuLj9rhEUERmz08dthkIR1Ip14mnbY8vt3Ud29kxM8_9AWEkf5tqu3xgcgQn-sqdxUEtube65d5jawYnV-bdij_qcFsyccjdm7BjyAk5kEHFAF8DlA9p2OPRHXDMyfAg2_VENbQCrmUtzPgh-lQBxiImCudkmjbmV3-z6JwS67RAzwpJ-ScViFfWdxG3eDLh4KX2gztoRx8-h9Y1rwF1TsxuEcisgTm3XO6RtCu2DsXvcnUzquUCnIiJxDSDcEA4-u32hFxvEpL18AH1K7ovCY0NReeZ-jhj6owso7M_tRQd1NRc0aupQyvm7rhQR1BQfGL_Geib6HSj1xn5Bi3E59t8pg1FKgqOtHNkreNfJTXv_-CvPDn0h_kks-t2q61UcmIXGHXiECT1xVbf2gpQvRsBE-J4m5juVp7Yb77w5hw_cCQhhKkg0uT98RRiXgcnavsX6jA09dxdGEtsRJIyZsWMruQIeB5zzyev0oVIGBjHGf3iQ2ZaEbx14WKgZieSClWN]--></g></svg>