<svg xmlns="http://www.w3.org/2000/svg" xmlns:xlink="http://www.w3.org/1999/xlink" contentStyleType="text/css" height="696px" preserveAspectRatio="none" style="width:2413px;height:696px;background:#FFFFFF;" version="1.1" viewBox="0 0 2413 696" width="2413px" zoomAndPan="magnify"><defs/><g><!--class QuestionType--><g id="elem_QuestionType"><rect codeLine="13" fill="#F0F0F0" height="28" id="QuestionType" rx="2.5" ry="2.5" style="stroke:#333333;stroke-width:1.0;" width="124.2021" x="29.5" y="309.2295"/><ellipse cx="42.5" cy="323.2295" fill="#FFFFFF" rx="9" ry="9" style="stroke:#000000;stroke-width:1.0;"/><path d="M41.3594,324.0264 L41.3594,326.5264 L45.6875,326.5264 L45.6875,325.6045 Q45.6875,324.9951 45.9297,324.7295 Q46.1719,324.4639 46.5469,324.4639 Q46.9219,324.4639 47.1563,324.7295 Q47.3906,324.9951 47.3906,325.6045 L47.3906,328.2295 L39.3906,328.2295 Q38.7656,328.2295 38.5078,327.9951 Q38.25,327.7607 38.25,327.3701 Q38.25,326.9951 38.5156,326.7607 Q38.7813,326.5264 39.3906,326.5264 L39.6563,326.5264 L39.6563,319.8701 L39.3906,319.8701 Q38.7656,319.8701 38.5078,319.6357 Q38.25,319.4014 38.25,319.0107 Q38.25,318.6357 38.5078,318.4014 Q38.7656,318.167 39.3906,318.167 L47.0156,318.167 L47.0156,320.7607 Q47.0156,321.3701 46.7891,321.6279 Q46.5625,321.8857 46.1719,321.8857 Q45.7969,321.8857 45.5625,321.6279 Q45.3281,321.3701 45.3281,320.7607 L45.3281,319.8701 L41.3594,319.8701 L41.3594,322.3232 L42.8438,322.3232 Q42.8438,321.667 42.9688,321.4795 Q43.2344,321.0732 43.7031,321.0732 Q44.0781,321.0732 44.3125,321.3311 Q44.5469,321.5889 44.5469,322.1982 L44.5469,324.167 Q44.5469,324.7139 44.4219,324.9014 Q44.1563,325.292 43.7031,325.292 Q43.2344,325.292 42.9688,324.8857 Q42.8438,324.6982 42.8438,324.0264 L41.3594,324.0264 Z " fill="#000000"/><text fill="#000000" font-family="Verdana" font-size="14" lengthAdjust="spacing" textLength="96.2021" x="54.5" y="328.7974">QuestionType</text></g><g id="elem_GMN3"><path d="M11,467.2295 L11,556.2261 A0,0 0 0 0 11,556.2261 L171.6802,556.2261 A0,0 0 0 0 171.6802,556.2261 L171.6802,477.2295 L161.6802,467.2295 L74.83,467.2295 L70.83,337.3995 L66.83,467.2295 L11,467.2295 A0,0 0 0 0 11,467.2295 " fill="#FFFFFF" style="stroke:#000000;stroke-width:1.0;"/><path d="M161.6802,467.2295 L161.6802,477.2295 L171.6802,477.2295 L161.6802,467.2295 " fill="#FFFFFF" style="stroke:#000000;stroke-width:1.0;"/><text fill="#000000" font-family="Verdana" font-size="13" lengthAdjust="spacing" textLength="92.2949" x="17" y="485.2993">4 Fragetypen:</text><text fill="#000000" font-family="Verdana" font-size="13" lengthAdjust="spacing" textLength="139.6802" x="17" y="501.0986">- MC: Multiple Choice</text><text fill="#000000" font-family="Verdana" font-size="13" lengthAdjust="spacing" textLength="136.2017" x="17" y="516.8979">- CLOZE: L&#252;ckentext</text><text fill="#000000" font-family="Verdana" font-size="13" lengthAdjust="spacing" textLength="103.9111" x="17" y="532.6973">- FREE: Freitext</text><text fill="#000000" font-family="Verdana" font-size="13" lengthAdjust="spacing" textLength="139.2739" x="17" y="548.4966">- IMAGE: Bild-basiert</text></g><!--class User--><g id="elem_User"><rect codeLine="29" fill="#F0F0F0" height="28" id="User" rx="2.5" ry="2.5" style="stroke:#333333;stroke-width:1.0;" width="59.8555" x="690.5" y="497.7295"/><ellipse cx="703.5" cy="511.7295" fill="#FFFFFF" rx="9" ry="9" style="stroke:#000000;stroke-width:1.0;"/><path d="M706.2656,507.6045 Q706.4219,507.3857 706.6094,507.2764 Q706.7969,507.167 707.0156,507.167 Q707.3906,507.167 707.625,507.4248 Q707.8594,507.6826 707.8594,508.292 L707.8594,509.7451 Q707.8594,510.3545 707.625,510.6201 Q707.3906,510.8857 707.0156,510.8857 Q706.6719,510.8857 706.4688,510.6826 Q706.2656,510.4951 706.1563,509.9795 Q706.1094,509.6201 705.9219,509.4326 Q705.5938,509.0576 704.9844,508.8389 Q704.375,508.6201 703.75,508.6201 Q702.9844,508.6201 702.3516,508.9482 Q701.7188,509.2764 701.2266,510.0264 Q700.7344,510.7764 700.7344,511.8076 L700.7344,512.9014 Q700.7344,514.1357 701.625,514.9561 Q702.5156,515.7764 704.1094,515.7764 Q705.0469,515.7764 705.7031,515.5264 Q706.0938,515.3701 706.5156,514.9326 Q706.7813,514.667 706.9297,514.5889 Q707.0781,514.5107 707.2813,514.5107 Q707.6094,514.5107 707.8672,514.7686 Q708.125,515.0264 708.125,515.3701 Q708.125,515.7139 707.7813,516.1201 Q707.2813,516.6982 706.4844,517.0264 Q705.4063,517.4795 704.1094,517.4795 Q702.5938,517.4795 701.3906,516.8545 Q700.4063,516.3545 699.7188,515.2842 Q699.0313,514.2139 699.0313,512.9326 L699.0313,511.7764 Q699.0313,510.4482 699.6484,509.2998 Q700.2656,508.1514 701.3594,507.5342 Q702.4531,506.917 703.6875,506.917 Q704.4219,506.917 705.0703,507.0811 Q705.7188,507.2451 706.2656,507.6045 Z " fill="#000000"/><text fill="#000000" font-family="Verdana" font-size="14" lengthAdjust="spacing" textLength="31.8555" x="715.5" y="517.2974">User</text></g><!--class Question--><g id="elem_Question"><rect codeLine="54" fill="#F0F0F0" height="28" id="Question" rx="2.5" ry="2.5" style="stroke:#333333;stroke-width:1.0;" width="90.2275" x="1092.5" y="497.7295"/><ellipse cx="1105.5" cy="511.7295" fill="#FFFFFF" rx="9" ry="9" style="stroke:#000000;stroke-width:1.0;"/><path d="M1108.2656,507.6045 Q1108.4219,507.3857 1108.6094,507.2764 Q1108.7969,507.167 1109.0156,507.167 Q1109.3906,507.167 1109.625,507.4248 Q1109.8594,507.6826 1109.8594,508.292 L1109.8594,509.7451 Q1109.8594,510.3545 1109.625,510.6201 Q1109.3906,510.8857 1109.0156,510.8857 Q1108.6719,510.8857 1108.4688,510.6826 Q1108.2656,510.4951 1108.1563,509.9795 Q1108.1094,509.6201 1107.9219,509.4326 Q1107.5938,509.0576 1106.9844,508.8389 Q1106.375,508.6201 1105.75,508.6201 Q1104.9844,508.6201 1104.3516,508.9482 Q1103.7188,509.2764 1103.2266,510.0264 Q1102.7344,510.7764 1102.7344,511.8076 L1102.7344,512.9014 Q1102.7344,514.1357 1103.625,514.9561 Q1104.5156,515.7764 1106.1094,515.7764 Q1107.0469,515.7764 1107.7031,515.5264 Q1108.0938,515.3701 1108.5156,514.9326 Q1108.7813,514.667 1108.9297,514.5889 Q1109.0781,514.5107 1109.2813,514.5107 Q1109.6094,514.5107 1109.8672,514.7686 Q1110.125,515.0264 1110.125,515.3701 Q1110.125,515.7139 1109.7813,516.1201 Q1109.2813,516.6982 1108.4844,517.0264 Q1107.4063,517.4795 1106.1094,517.4795 Q1104.5938,517.4795 1103.3906,516.8545 Q1102.4063,516.3545 1101.7188,515.2842 Q1101.0313,514.2139 1101.0313,512.9326 L1101.0313,511.7764 Q1101.0313,510.4482 1101.6484,509.2998 Q1102.2656,508.1514 1103.3594,507.5342 Q1104.4531,506.917 1105.6875,506.917 Q1106.4219,506.917 1107.0703,507.0811 Q1107.7188,507.2451 1108.2656,507.6045 Z " fill="#000000"/><text fill="#000000" font-family="Verdana" font-size="14" lengthAdjust="spacing" textLength="62.2275" x="1117.5" y="517.2974">Question</text></g><!--class AnswerOption--><g id="elem_AnswerOption"><rect codeLine="82" fill="#F0F0F0" height="28" id="AnswerOption" rx="2.5" ry="2.5" style="stroke:#333333;stroke-width:1.0;" width="125.9521" x="922.5" y="638.7295"/><ellipse cx="935.5" cy="652.7295" fill="#FFFFFF" rx="9" ry="9" style="stroke:#000000;stroke-width:1.0;"/><path d="M938.2656,648.6045 Q938.4219,648.3857 938.6094,648.2764 Q938.7969,648.167 939.0156,648.167 Q939.3906,648.167 939.625,648.4248 Q939.8594,648.6826 939.8594,649.292 L939.8594,650.7451 Q939.8594,651.3545 939.625,651.6201 Q939.3906,651.8857 939.0156,651.8857 Q938.6719,651.8857 938.4688,651.6826 Q938.2656,651.4951 938.1563,650.9795 Q938.1094,650.6201 937.9219,650.4326 Q937.5938,650.0576 936.9844,649.8389 Q936.375,649.6201 935.75,649.6201 Q934.9844,649.6201 934.3516,649.9482 Q933.7188,650.2764 933.2266,651.0264 Q932.7344,651.7764 932.7344,652.8076 L932.7344,653.9014 Q932.7344,655.1357 933.625,655.9561 Q934.5156,656.7764 936.1094,656.7764 Q937.0469,656.7764 937.7031,656.5264 Q938.0938,656.3701 938.5156,655.9326 Q938.7813,655.667 938.9297,655.5889 Q939.0781,655.5107 939.2813,655.5107 Q939.6094,655.5107 939.8672,655.7686 Q940.125,656.0264 940.125,656.3701 Q940.125,656.7139 939.7813,657.1201 Q939.2813,657.6982 938.4844,658.0264 Q937.4063,658.4795 936.1094,658.4795 Q934.5938,658.4795 933.3906,657.8545 Q932.4063,657.3545 931.7188,656.2842 Q931.0313,655.2139 931.0313,653.9326 L931.0313,652.7764 Q931.0313,651.4482 931.6484,650.2998 Q932.2656,649.1514 933.3594,648.5342 Q934.4531,647.917 935.6875,647.917 Q936.4219,647.917 937.0703,648.0811 Q937.7188,648.2451 938.2656,648.6045 Z " fill="#000000"/><text fill="#000000" font-family="Verdana" font-size="14" lengthAdjust="spacing" textLength="97.9521" x="947.5" y="658.2974">AnswerOption</text></g><!--class ClozeToken--><g id="elem_ClozeToken"><rect codeLine="101" fill="#F0F0F0" height="28" id="ClozeToken" rx="2.5" ry="2.5" style="stroke:#333333;stroke-width:1.0;" width="108.418" x="1083.5" y="638.7295"/><ellipse cx="1096.5" cy="652.7295" fill="#FFFFFF" rx="9" ry="9" style="stroke:#000000;stroke-width:1.0;"/><path d="M1099.2656,648.6045 Q1099.4219,648.3857 1099.6094,648.2764 Q1099.7969,648.167 1100.0156,648.167 Q1100.3906,648.167 1100.625,648.4248 Q1100.8594,648.6826 1100.8594,649.292 L1100.8594,650.7451 Q1100.8594,651.3545 1100.625,651.6201 Q1100.3906,651.8857 1100.0156,651.8857 Q1099.6719,651.8857 1099.4688,651.6826 Q1099.2656,651.4951 1099.1563,650.9795 Q1099.1094,650.6201 1098.9219,650.4326 Q1098.5938,650.0576 1097.9844,649.8389 Q1097.375,649.6201 1096.75,649.6201 Q1095.9844,649.6201 1095.3516,649.9482 Q1094.7188,650.2764 1094.2266,651.0264 Q1093.7344,651.7764 1093.7344,652.8076 L1093.7344,653.9014 Q1093.7344,655.1357 1094.625,655.9561 Q1095.5156,656.7764 1097.1094,656.7764 Q1098.0469,656.7764 1098.7031,656.5264 Q1099.0938,656.3701 1099.5156,655.9326 Q1099.7813,655.667 1099.9297,655.5889 Q1100.0781,655.5107 1100.2813,655.5107 Q1100.6094,655.5107 1100.8672,655.7686 Q1101.125,656.0264 1101.125,656.3701 Q1101.125,656.7139 1100.7813,657.1201 Q1100.2813,657.6982 1099.4844,658.0264 Q1098.4063,658.4795 1097.1094,658.4795 Q1095.5938,658.4795 1094.3906,657.8545 Q1093.4063,657.3545 1092.7188,656.2842 Q1092.0313,655.2139 1092.0313,653.9326 L1092.0313,652.7764 Q1092.0313,651.4482 1092.6484,650.2998 Q1093.2656,649.1514 1094.3594,648.5342 Q1095.4531,647.917 1096.6875,647.917 Q1097.4219,647.917 1098.0703,648.0811 Q1098.7188,648.2451 1099.2656,648.6045 Z " fill="#000000"/><text fill="#000000" font-family="Verdana" font-size="14" lengthAdjust="spacing" textLength="80.418" x="1108.5" y="658.2974">ClozeToken</text></g><!--class Attempt--><g id="elem_Attempt"><rect codeLine="120" fill="#F0F0F0" height="28" id="Attempt" rx="2.5" ry="2.5" style="stroke:#333333;stroke-width:1.0;" width="84.7998" x="1659" y="497.7295"/><ellipse cx="1672" cy="511.7295" fill="#FFFFFF" rx="9" ry="9" style="stroke:#000000;stroke-width:1.0;"/><path d="M1674.7656,507.6045 Q1674.9219,507.3857 1675.1094,507.2764 Q1675.2969,507.167 1675.5156,507.167 Q1675.8906,507.167 1676.125,507.4248 Q1676.3594,507.6826 1676.3594,508.292 L1676.3594,509.7451 Q1676.3594,510.3545 1676.125,510.6201 Q1675.8906,510.8857 1675.5156,510.8857 Q1675.1719,510.8857 1674.9688,510.6826 Q1674.7656,510.4951 1674.6563,509.9795 Q1674.6094,509.6201 1674.4219,509.4326 Q1674.0938,509.0576 1673.4844,508.8389 Q1672.875,508.6201 1672.25,508.6201 Q1671.4844,508.6201 1670.8516,508.9482 Q1670.2188,509.2764 1669.7266,510.0264 Q1669.2344,510.7764 1669.2344,511.8076 L1669.2344,512.9014 Q1669.2344,514.1357 1670.125,514.9561 Q1671.0156,515.7764 1672.6094,515.7764 Q1673.5469,515.7764 1674.2031,515.5264 Q1674.5938,515.3701 1675.0156,514.9326 Q1675.2813,514.667 1675.4297,514.5889 Q1675.5781,514.5107 1675.7813,514.5107 Q1676.1094,514.5107 1676.3672,514.7686 Q1676.625,515.0264 1676.625,515.3701 Q1676.625,515.7139 1676.2813,516.1201 Q1675.7813,516.6982 1674.9844,517.0264 Q1673.9063,517.4795 1672.6094,517.4795 Q1671.0938,517.4795 1669.8906,516.8545 Q1668.9063,516.3545 1668.2188,515.2842 Q1667.5313,514.2139 1667.5313,512.9326 L1667.5313,511.7764 Q1667.5313,510.4482 1668.1484,509.2998 Q1668.7656,508.1514 1669.8594,507.5342 Q1670.9531,506.917 1672.1875,506.917 Q1672.9219,506.917 1673.5703,507.0811 Q1674.2188,507.2451 1674.7656,507.6045 Z " fill="#000000"/><text fill="#000000" font-family="Verdana" font-size="14" lengthAdjust="spacing" textLength="56.7998" x="1684" y="517.2974">Attempt</text></g><!--class AttemptAnswer--><g id="elem_AttemptAnswer"><rect codeLine="148" fill="#F0F0F0" height="28" id="AttemptAnswer" rx="2.5" ry="2.5" style="stroke:#333333;stroke-width:1.0;" width="136.2949" x="1608.5" y="638.7295"/><ellipse cx="1621.5" cy="652.7295" fill="#FFFFFF" rx="9" ry="9" style="stroke:#000000;stroke-width:1.0;"/><path d="M1624.2656,648.6045 Q1624.4219,648.3857 1624.6094,648.2764 Q1624.7969,648.167 1625.0156,648.167 Q1625.3906,648.167 1625.625,648.4248 Q1625.8594,648.6826 1625.8594,649.292 L1625.8594,650.7451 Q1625.8594,651.3545 1625.625,651.6201 Q1625.3906,651.8857 1625.0156,651.8857 Q1624.6719,651.8857 1624.4688,651.6826 Q1624.2656,651.4951 1624.1563,650.9795 Q1624.1094,650.6201 1623.9219,650.4326 Q1623.5938,650.0576 1622.9844,649.8389 Q1622.375,649.6201 1621.75,649.6201 Q1620.9844,649.6201 1620.3516,649.9482 Q1619.7188,650.2764 1619.2266,651.0264 Q1618.7344,651.7764 1618.7344,652.8076 L1618.7344,653.9014 Q1618.7344,655.1357 1619.625,655.9561 Q1620.5156,656.7764 1622.1094,656.7764 Q1623.0469,656.7764 1623.7031,656.5264 Q1624.0938,656.3701 1624.5156,655.9326 Q1624.7813,655.667 1624.9297,655.5889 Q1625.0781,655.5107 1625.2813,655.5107 Q1625.6094,655.5107 1625.8672,655.7686 Q1626.125,656.0264 1626.125,656.3701 Q1626.125,656.7139 1625.7813,657.1201 Q1625.2813,657.6982 1624.4844,658.0264 Q1623.4063,658.4795 1622.1094,658.4795 Q1620.5938,658.4795 1619.3906,657.8545 Q1618.4063,657.3545 1617.7188,656.2842 Q1617.0313,655.2139 1617.0313,653.9326 L1617.0313,652.7764 Q1617.0313,651.4482 1617.6484,650.2998 Q1618.2656,649.1514 1619.3594,648.5342 Q1620.4531,647.917 1621.6875,647.917 Q1622.4219,647.917 1623.0703,648.0811 Q1623.7188,648.2451 1624.2656,648.6045 Z " fill="#000000"/><text fill="#000000" font-family="Verdana" font-size="14" lengthAdjust="spacing" textLength="108.2949" x="1633.5" y="658.2974">AttemptAnswer</text></g><!--class QuestionImage--><g id="elem_QuestionImage"><rect codeLine="167" fill="#F0F0F0" height="28" id="QuestionImage" rx="2.5" ry="2.5" style="stroke:#333333;stroke-width:1.0;" width="135.208" x="1837" y="18.2295"/><ellipse cx="1850" cy="32.2295" fill="#FFFFFF" rx="9" ry="9" style="stroke:#000000;stroke-width:1.0;"/><path d="M1852.7656,28.1045 Q1852.9219,27.8857 1853.1094,27.7764 Q1853.2969,27.667 1853.5156,27.667 Q1853.8906,27.667 1854.125,27.9248 Q1854.3594,28.1826 1854.3594,28.792 L1854.3594,30.2451 Q1854.3594,30.8545 1854.125,31.1201 Q1853.8906,31.3857 1853.5156,31.3857 Q1853.1719,31.3857 1852.9688,31.1826 Q1852.7656,30.9951 1852.6563,30.4795 Q1852.6094,30.1201 1852.4219,29.9326 Q1852.0938,29.5576 1851.4844,29.3389 Q1850.875,29.1201 1850.25,29.1201 Q1849.4844,29.1201 1848.8516,29.4482 Q1848.2188,29.7764 1847.7266,30.5264 Q1847.2344,31.2764 1847.2344,32.3076 L1847.2344,33.4014 Q1847.2344,34.6357 1848.125,35.4561 Q1849.0156,36.2764 1850.6094,36.2764 Q1851.5469,36.2764 1852.2031,36.0264 Q1852.5938,35.8701 1853.0156,35.4326 Q1853.2813,35.167 1853.4297,35.0889 Q1853.5781,35.0107 1853.7813,35.0107 Q1854.1094,35.0107 1854.3672,35.2686 Q1854.625,35.5264 1854.625,35.8701 Q1854.625,36.2139 1854.2813,36.6201 Q1853.7813,37.1982 1852.9844,37.5264 Q1851.9063,37.9795 1850.6094,37.9795 Q1849.0938,37.9795 1847.8906,37.3545 Q1846.9063,36.8545 1846.2188,35.7842 Q1845.5313,34.7139 1845.5313,33.4326 L1845.5313,32.2764 Q1845.5313,30.9482 1846.1484,29.7998 Q1846.7656,28.6514 1847.8594,28.0342 Q1848.9531,27.417 1850.1875,27.417 Q1850.9219,27.417 1851.5703,27.5811 Q1852.2188,27.7451 1852.7656,28.1045 Z " fill="#000000"/><text fill="#000000" font-family="Verdana" font-size="14" lengthAdjust="spacing" textLength="107.208" x="1862" y="37.7974">QuestionImage</text></g><!--class UserDao--><g id="elem_UserDao"><rect codeLine="181" fill="#F0F0F0" height="28" id="UserDao" rx="2.5" ry="2.5" style="stroke:#333333;stroke-width:1.0;" width="87.4795" x="677" y="309.2295"/><ellipse cx="690" cy="323.2295" fill="#FFFFFF" rx="9" ry="9" style="stroke:#000000;stroke-width:1.0;"/><path d="M690.9531,319.8701 L690.9531,326.5264 L692.6719,326.5264 Q693.2813,326.5264 693.5469,326.7607 Q693.8125,326.9951 693.8125,327.3857 Q693.8125,327.7607 693.5469,327.9951 Q693.2813,328.2295 692.6719,328.2295 L687.5313,328.2295 Q686.9219,328.2295 686.6563,327.9951 Q686.3906,327.7607 686.3906,327.3701 Q686.3906,326.9951 686.6563,326.7607 Q686.9219,326.5264 687.5313,326.5264 L689.25,326.5264 L689.25,319.8701 L687.5313,319.8701 Q686.9219,319.8701 686.6563,319.6357 Q686.3906,319.4014 686.3906,319.0107 Q686.3906,318.6357 686.6563,318.4014 Q686.9219,318.167 687.5313,318.167 L692.6719,318.167 Q693.2813,318.167 693.5469,318.4014 Q693.8125,318.6357 693.8125,319.0107 Q693.8125,319.4014 693.5469,319.6357 Q693.2813,319.8701 692.6719,319.8701 L690.9531,319.8701 Z " fill="#000000"/><text fill="#000000" font-family="Verdana" font-size="14" font-style="italic" lengthAdjust="spacing" textLength="59.4795" x="702" y="328.7974">UserDao</text></g><!--class AnswerDao--><g id="elem_AnswerDao"><rect codeLine="192" fill="#F0F0F0" height="28" id="AnswerDao" rx="2.5" ry="2.5" style="stroke:#333333;stroke-width:1.0;" width="107.1055" x="1303" y="309.2295"/><ellipse cx="1316" cy="323.2295" fill="#FFFFFF" rx="9" ry="9" style="stroke:#000000;stroke-width:1.0;"/><path d="M1316.9531,319.8701 L1316.9531,326.5264 L1318.6719,326.5264 Q1319.2813,326.5264 1319.5469,326.7607 Q1319.8125,326.9951 1319.8125,327.3857 Q1319.8125,327.7607 1319.5469,327.9951 Q1319.2813,328.2295 1318.6719,328.2295 L1313.5313,328.2295 Q1312.9219,328.2295 1312.6563,327.9951 Q1312.3906,327.7607 1312.3906,327.3701 Q1312.3906,326.9951 1312.6563,326.7607 Q1312.9219,326.5264 1313.5313,326.5264 L1315.25,326.5264 L1315.25,319.8701 L1313.5313,319.8701 Q1312.9219,319.8701 1312.6563,319.6357 Q1312.3906,319.4014 1312.3906,319.0107 Q1312.3906,318.6357 1312.6563,318.4014 Q1312.9219,318.167 1313.5313,318.167 L1318.6719,318.167 Q1319.2813,318.167 1319.5469,318.4014 Q1319.8125,318.6357 1319.8125,319.0107 Q1319.8125,319.4014 1319.5469,319.6357 Q1319.2813,319.8701 1318.6719,319.8701 L1316.9531,319.8701 Z " fill="#000000"/><text fill="#000000" font-family="Verdana" font-size="14" font-style="italic" lengthAdjust="spacing" textLength="79.1055" x="1328" y="328.7974">AnswerDao</text></g><!--class ClozeTokenDao--><g id="elem_ClozeTokenDao"><rect codeLine="198" fill="#F0F0F0" height="28" id="ClozeTokenDao" rx="2.5" ry="2.5" style="stroke:#333333;stroke-width:1.0;" width="135.9736" x="1131.5" y="309.2295"/><ellipse cx="1144.5" cy="323.2295" fill="#FFFFFF" rx="9" ry="9" style="stroke:#000000;stroke-width:1.0;"/><path d="M1145.4531,319.8701 L1145.4531,326.5264 L1147.1719,326.5264 Q1147.7813,326.5264 1148.0469,326.7607 Q1148.3125,326.9951 1148.3125,327.3857 Q1148.3125,327.7607 1148.0469,327.9951 Q1147.7813,328.2295 1147.1719,328.2295 L1142.0313,328.2295 Q1141.4219,328.2295 1141.1563,327.9951 Q1140.8906,327.7607 1140.8906,327.3701 Q1140.8906,326.9951 1141.1563,326.7607 Q1141.4219,326.5264 1142.0313,326.5264 L1143.75,326.5264 L1143.75,319.8701 L1142.0313,319.8701 Q1141.4219,319.8701 1141.1563,319.6357 Q1140.8906,319.4014 1140.8906,319.0107 Q1140.8906,318.6357 1141.1563,318.4014 Q1141.4219,318.167 1142.0313,318.167 L1147.1719,318.167 Q1147.7813,318.167 1148.0469,318.4014 Q1148.3125,318.6357 1148.3125,319.0107 Q1148.3125,319.4014 1148.0469,319.6357 Q1147.7813,319.8701 1147.1719,319.8701 L1145.4531,319.8701 Z " fill="#000000"/><text fill="#000000" font-family="Verdana" font-size="14" font-style="italic" lengthAdjust="spacing" textLength="107.9736" x="1156.5" y="328.7974">ClozeTokenDao</text></g><!--class AttemptDao--><g id="elem_AttemptDao"><rect codeLine="204" fill="#F0F0F0" height="28" id="AttemptDao" rx="2.5" ry="2.5" style="stroke:#333333;stroke-width:1.0;" width="112.417" x="1645.5" y="309.2295"/><ellipse cx="1658.5" cy="323.2295" fill="#FFFFFF" rx="9" ry="9" style="stroke:#000000;stroke-width:1.0;"/><path d="M1659.4531,319.8701 L1659.4531,326.5264 L1661.1719,326.5264 Q1661.7813,326.5264 1662.0469,326.7607 Q1662.3125,326.9951 1662.3125,327.3857 Q1662.3125,327.7607 1662.0469,327.9951 Q1661.7813,328.2295 1661.1719,328.2295 L1656.0313,328.2295 Q1655.4219,328.2295 1655.1563,327.9951 Q1654.8906,327.7607 1654.8906,327.3701 Q1654.8906,326.9951 1655.1563,326.7607 Q1655.4219,326.5264 1656.0313,326.5264 L1657.75,326.5264 L1657.75,319.8701 L1656.0313,319.8701 Q1655.4219,319.8701 1655.1563,319.6357 Q1654.8906,319.4014 1654.8906,319.0107 Q1654.8906,318.6357 1655.1563,318.4014 Q1655.4219,318.167 1656.0313,318.167 L1661.1719,318.167 Q1661.7813,318.167 1662.0469,318.4014 Q1662.3125,318.6357 1662.3125,319.0107 Q1662.3125,319.4014 1662.0469,319.6357 Q1661.7813,319.8701 1661.1719,319.8701 L1659.4531,319.8701 Z " fill="#000000"/><text fill="#000000" font-family="Verdana" font-size="14" font-style="italic" lengthAdjust="spacing" textLength="84.417" x="1670.5" y="328.7974">AttemptDao</text></g><!--class QuestionRepository--><g id="elem_QuestionRepository"><rect codeLine="212" fill="#F0F0F0" height="28" id="QuestionRepository" rx="2.5" ry="2.5" style="stroke:#333333;stroke-width:1.0;" width="164.917" x="1445" y="309.2295"/><ellipse cx="1458" cy="323.2295" fill="#FFFFFF" rx="9" ry="9" style="stroke:#000000;stroke-width:1.0;"/><path d="M1458.9531,319.8701 L1458.9531,326.5264 L1460.6719,326.5264 Q1461.2813,326.5264 1461.5469,326.7607 Q1461.8125,326.9951 1461.8125,327.3857 Q1461.8125,327.7607 1461.5469,327.9951 Q1461.2813,328.2295 1460.6719,328.2295 L1455.5313,328.2295 Q1454.9219,328.2295 1454.6563,327.9951 Q1454.3906,327.7607 1454.3906,327.3701 Q1454.3906,326.9951 1454.6563,326.7607 Q1454.9219,326.5264 1455.5313,326.5264 L1457.25,326.5264 L1457.25,319.8701 L1455.5313,319.8701 Q1454.9219,319.8701 1454.6563,319.6357 Q1454.3906,319.4014 1454.3906,319.0107 Q1454.3906,318.6357 1454.6563,318.4014 Q1454.9219,318.167 1455.5313,318.167 L1460.6719,318.167 Q1461.2813,318.167 1461.5469,318.4014 Q1461.8125,318.6357 1461.8125,319.0107 Q1461.8125,319.4014 1461.5469,319.6357 Q1461.2813,319.8701 1460.6719,319.8701 L1458.9531,319.8701 Z " fill="#000000"/><text fill="#000000" font-family="Verdana" font-size="14" font-style="italic" lengthAdjust="spacing" textLength="136.917" x="1470" y="328.7974">QuestionRepository</text></g><!--class QuestionImageDao--><g id="elem_QuestionImageDao"><rect codeLine="223" fill="#F0F0F0" height="28" id="QuestionImageDao" rx="2.5" ry="2.5" style="stroke:#333333;stroke-width:1.0;" width="162.8184" x="1659" y="128.7295"/><ellipse cx="1672" cy="142.7295" fill="#FFFFFF" rx="9" ry="9" style="stroke:#000000;stroke-width:1.0;"/><path d="M1672.9531,139.3701 L1672.9531,146.0264 L1674.6719,146.0264 Q1675.2813,146.0264 1675.5469,146.2607 Q1675.8125,146.4951 1675.8125,146.8857 Q1675.8125,147.2607 1675.5469,147.4951 Q1675.2813,147.7295 1674.6719,147.7295 L1669.5313,147.7295 Q1668.9219,147.7295 1668.6563,147.4951 Q1668.3906,147.2607 1668.3906,146.8701 Q1668.3906,146.4951 1668.6563,146.2607 Q1668.9219,146.0264 1669.5313,146.0264 L1671.25,146.0264 L1671.25,139.3701 L1669.5313,139.3701 Q1668.9219,139.3701 1668.6563,139.1357 Q1668.3906,138.9014 1668.3906,138.5107 Q1668.3906,138.1357 1668.6563,137.9014 Q1668.9219,137.667 1669.5313,137.667 L1674.6719,137.667 Q1675.2813,137.667 1675.5469,137.9014 Q1675.8125,138.1357 1675.8125,138.5107 Q1675.8125,138.9014 1675.5469,139.1357 Q1675.2813,139.3701 1674.6719,139.3701 L1672.9531,139.3701 Z " fill="#000000"/><text fill="#000000" font-family="Verdana" font-size="14" font-style="italic" lengthAdjust="spacing" textLength="134.8184" x="1684" y="148.2974">QuestionImageDao</text></g><!--class ConfigDao--><g id="elem_ConfigDao"><rect codeLine="229" fill="#F0F0F0" height="28" id="ConfigDao" rx="2.5" ry="2.5" style="stroke:#333333;stroke-width:1.0;" width="100.2217" x="799.5" y="309.2295"/><ellipse cx="812.5" cy="323.2295" fill="#FFFFFF" rx="9" ry="9" style="stroke:#000000;stroke-width:1.0;"/><path d="M813.4531,319.8701 L813.4531,326.5264 L815.1719,326.5264 Q815.7813,326.5264 816.0469,326.7607 Q816.3125,326.9951 816.3125,327.3857 Q816.3125,327.7607 816.0469,327.9951 Q815.7813,328.2295 815.1719,328.2295 L810.0313,328.2295 Q809.4219,328.2295 809.1563,327.9951 Q808.8906,327.7607 808.8906,327.3701 Q808.8906,326.9951 809.1563,326.7607 Q809.4219,326.5264 810.0313,326.5264 L811.75,326.5264 L811.75,319.8701 L810.0313,319.8701 Q809.4219,319.8701 809.1563,319.6357 Q808.8906,319.4014 808.8906,319.0107 Q808.8906,318.6357 809.1563,318.4014 Q809.4219,318.167 810.0313,318.167 L815.1719,318.167 Q815.7813,318.167 816.0469,318.4014 Q816.3125,318.6357 816.3125,319.0107 Q816.3125,319.4014 816.0469,319.6357 Q815.7813,319.8701 815.1719,319.8701 L813.4531,319.8701 Z " fill="#000000"/><text fill="#000000" font-family="Verdana" font-size="14" font-style="italic" lengthAdjust="spacing" textLength="72.2217" x="824.5" y="328.7974">ConfigDao</text></g><!--class AuthService--><g id="elem_AuthService"><rect codeLine="237" fill="#F0F0F0" height="28" id="AuthService" rx="2.5" ry="2.5" style="stroke:#333333;stroke-width:1.0;" width="112.4512" x="439.5" y="128.7295"/><ellipse cx="452.5" cy="142.7295" fill="#FFFFFF" rx="9" ry="9" style="stroke:#000000;stroke-width:1.0;"/><path d="M455.2656,138.6045 Q455.4219,138.3857 455.6094,138.2764 Q455.7969,138.167 456.0156,138.167 Q456.3906,138.167 456.625,138.4248 Q456.8594,138.6826 456.8594,139.292 L456.8594,140.7451 Q456.8594,141.3545 456.625,141.6201 Q456.3906,141.8857 456.0156,141.8857 Q455.6719,141.8857 455.4688,141.6826 Q455.2656,141.4951 455.1563,140.9795 Q455.1094,140.6201 454.9219,140.4326 Q454.5938,140.0576 453.9844,139.8389 Q453.375,139.6201 452.75,139.6201 Q451.9844,139.6201 451.3516,139.9482 Q450.7188,140.2764 450.2266,141.0264 Q449.7344,141.7764 449.7344,142.8076 L449.7344,143.9014 Q449.7344,145.1357 450.625,145.9561 Q451.5156,146.7764 453.1094,146.7764 Q454.0469,146.7764 454.7031,146.5264 Q455.0938,146.3701 455.5156,145.9326 Q455.7813,145.667 455.9297,145.5889 Q456.0781,145.5107 456.2813,145.5107 Q456.6094,145.5107 456.8672,145.7686 Q457.125,146.0264 457.125,146.3701 Q457.125,146.7139 456.7813,147.1201 Q456.2813,147.6982 455.4844,148.0264 Q454.4063,148.4795 453.1094,148.4795 Q451.5938,148.4795 450.3906,147.8545 Q449.4063,147.3545 448.7188,146.2842 Q448.0313,145.2139 448.0313,143.9326 L448.0313,142.7764 Q448.0313,141.4482 448.6484,140.2998 Q449.2656,139.1514 450.3594,138.5342 Q451.4531,137.917 452.6875,137.917 Q453.4219,137.917 454.0703,138.0811 Q454.7188,138.2451 455.2656,138.6045 Z " fill="#000000"/><text fill="#000000" font-family="Verdana" font-size="14" lengthAdjust="spacing" textLength="84.4512" x="464.5" y="148.2974">AuthService</text></g><!--class TestService--><g id="elem_TestService"><rect codeLine="247" fill="#F0F0F0" height="28" id="TestService" rx="2.5" ry="2.5" style="stroke:#333333;stroke-width:1.0;" width="109.4229" x="1000" y="128.7295"/><ellipse cx="1013" cy="142.7295" fill="#FFFFFF" rx="9" ry="9" style="stroke:#000000;stroke-width:1.0;"/><path d="M1015.7656,138.6045 Q1015.9219,138.3857 1016.1094,138.2764 Q1016.2969,138.167 1016.5156,138.167 Q1016.8906,138.167 1017.125,138.4248 Q1017.3594,138.6826 1017.3594,139.292 L1017.3594,140.7451 Q1017.3594,141.3545 1017.125,141.6201 Q1016.8906,141.8857 1016.5156,141.8857 Q1016.1719,141.8857 1015.9688,141.6826 Q1015.7656,141.4951 1015.6563,140.9795 Q1015.6094,140.6201 1015.4219,140.4326 Q1015.0938,140.0576 1014.4844,139.8389 Q1013.875,139.6201 1013.25,139.6201 Q1012.4844,139.6201 1011.8516,139.9482 Q1011.2188,140.2764 1010.7266,141.0264 Q1010.2344,141.7764 1010.2344,142.8076 L1010.2344,143.9014 Q1010.2344,145.1357 1011.125,145.9561 Q1012.0156,146.7764 1013.6094,146.7764 Q1014.5469,146.7764 1015.2031,146.5264 Q1015.5938,146.3701 1016.0156,145.9326 Q1016.2813,145.667 1016.4297,145.5889 Q1016.5781,145.5107 1016.7813,145.5107 Q1017.1094,145.5107 1017.3672,145.7686 Q1017.625,146.0264 1017.625,146.3701 Q1017.625,146.7139 1017.2813,147.1201 Q1016.7813,147.6982 1015.9844,148.0264 Q1014.9063,148.4795 1013.6094,148.4795 Q1012.0938,148.4795 1010.8906,147.8545 Q1009.9063,147.3545 1009.2188,146.2842 Q1008.5313,145.2139 1008.5313,143.9326 L1008.5313,142.7764 Q1008.5313,141.4482 1009.1484,140.2998 Q1009.7656,139.1514 1010.8594,138.5342 Q1011.9531,137.917 1013.1875,137.917 Q1013.9219,137.917 1014.5703,138.0811 Q1015.2188,138.2451 1015.7656,138.6045 Z " fill="#000000"/><text fill="#000000" font-family="Verdana" font-size="14" lengthAdjust="spacing" textLength="81.4229" x="1025" y="148.2974">TestService</text></g><!--class ProgressionService--><g id="elem_ProgressionService"><rect codeLine="268" fill="#F0F0F0" height="28" id="ProgressionService" rx="2.5" ry="2.5" style="stroke:#333333;stroke-width:1.0;" width="161.3828" x="935" y="309.2295"/><ellipse cx="948" cy="323.2295" fill="#FFFFFF" rx="9" ry="9" style="stroke:#000000;stroke-width:1.0;"/><path d="M950.7656,319.1045 Q950.9219,318.8857 951.1094,318.7764 Q951.2969,318.667 951.5156,318.667 Q951.8906,318.667 952.125,318.9248 Q952.3594,319.1826 952.3594,319.792 L952.3594,321.2451 Q952.3594,321.8545 952.125,322.1201 Q951.8906,322.3857 951.5156,322.3857 Q951.1719,322.3857 950.9688,322.1826 Q950.7656,321.9951 950.6563,321.4795 Q950.6094,321.1201 950.4219,320.9326 Q950.0938,320.5576 949.4844,320.3389 Q948.875,320.1201 948.25,320.1201 Q947.4844,320.1201 946.8516,320.4482 Q946.2188,320.7764 945.7266,321.5264 Q945.2344,322.2764 945.2344,323.3076 L945.2344,324.4014 Q945.2344,325.6357 946.125,326.4561 Q947.0156,327.2764 948.6094,327.2764 Q949.5469,327.2764 950.2031,327.0264 Q950.5938,326.8701 951.0156,326.4326 Q951.2813,326.167 951.4297,326.0889 Q951.5781,326.0107 951.7813,326.0107 Q952.1094,326.0107 952.3672,326.2686 Q952.625,326.5264 952.625,326.8701 Q952.625,327.2139 952.2813,327.6201 Q951.7813,328.1982 950.9844,328.5264 Q949.9063,328.9795 948.6094,328.9795 Q947.0938,328.9795 945.8906,328.3545 Q944.9063,327.8545 944.2188,326.7842 Q943.5313,325.7139 943.5313,324.4326 L943.5313,323.2764 Q943.5313,321.9482 944.1484,320.7998 Q944.7656,319.6514 945.8594,319.0342 Q946.9531,318.417 948.1875,318.417 Q948.9219,318.417 949.5703,318.5811 Q950.2188,318.7451 950.7656,319.1045 Z " fill="#000000"/><text fill="#000000" font-family="Verdana" font-size="14" lengthAdjust="spacing" textLength="133.3828" x="960" y="328.7974">ProgressionService</text></g><!--class AdminService--><g id="elem_AdminService"><rect codeLine="280" fill="#F0F0F0" height="28" id="AdminService" rx="2.5" ry="2.5" style="stroke:#333333;stroke-width:1.0;" width="124.2568" x="1286.5" y="128.7295"/><ellipse cx="1299.5" cy="142.7295" fill="#FFFFFF" rx="9" ry="9" style="stroke:#000000;stroke-width:1.0;"/><path d="M1302.2656,138.6045 Q1302.4219,138.3857 1302.6094,138.2764 Q1302.7969,138.167 1303.0156,138.167 Q1303.3906,138.167 1303.625,138.4248 Q1303.8594,138.6826 1303.8594,139.292 L1303.8594,140.7451 Q1303.8594,141.3545 1303.625,141.6201 Q1303.3906,141.8857 1303.0156,141.8857 Q1302.6719,141.8857 1302.4688,141.6826 Q1302.2656,141.4951 1302.1563,140.9795 Q1302.1094,140.6201 1301.9219,140.4326 Q1301.5938,140.0576 1300.9844,139.8389 Q1300.375,139.6201 1299.75,139.6201 Q1298.9844,139.6201 1298.3516,139.9482 Q1297.7188,140.2764 1297.2266,141.0264 Q1296.7344,141.7764 1296.7344,142.8076 L1296.7344,143.9014 Q1296.7344,145.1357 1297.625,145.9561 Q1298.5156,146.7764 1300.1094,146.7764 Q1301.0469,146.7764 1301.7031,146.5264 Q1302.0938,146.3701 1302.5156,145.9326 Q1302.7813,145.667 1302.9297,145.5889 Q1303.0781,145.5107 1303.2813,145.5107 Q1303.6094,145.5107 1303.8672,145.7686 Q1304.125,146.0264 1304.125,146.3701 Q1304.125,146.7139 1303.7813,147.1201 Q1303.2813,147.6982 1302.4844,148.0264 Q1301.4063,148.4795 1300.1094,148.4795 Q1298.5938,148.4795 1297.3906,147.8545 Q1296.4063,147.3545 1295.7188,146.2842 Q1295.0313,145.2139 1295.0313,143.9326 L1295.0313,142.7764 Q1295.0313,141.4482 1295.6484,140.2998 Q1296.2656,139.1514 1297.3594,138.5342 Q1298.4531,137.917 1299.6875,137.917 Q1300.4219,137.917 1301.0703,138.0811 Q1301.7188,138.2451 1302.2656,138.6045 Z " fill="#000000"/><text fill="#000000" font-family="Verdana" font-size="14" lengthAdjust="spacing" textLength="96.2568" x="1311.5" y="148.2974">AdminService</text></g><!--class AuthServlet--><g id="elem_AuthServlet"><rect codeLine="293" fill="#F0F0F0" height="28" id="AuthServlet" rx="2.5" ry="2.5" style="stroke:#333333;stroke-width:1.0;" width="110.6738" x="440" y="18.2295"/><ellipse cx="453" cy="32.2295" fill="#FFFFFF" rx="9" ry="9" style="stroke:#000000;stroke-width:1.0;"/><path d="M455.7656,28.1045 Q455.9219,27.8857 456.1094,27.7764 Q456.2969,27.667 456.5156,27.667 Q456.8906,27.667 457.125,27.9248 Q457.3594,28.1826 457.3594,28.792 L457.3594,30.2451 Q457.3594,30.8545 457.125,31.1201 Q456.8906,31.3857 456.5156,31.3857 Q456.1719,31.3857 455.9688,31.1826 Q455.7656,30.9951 455.6563,30.4795 Q455.6094,30.1201 455.4219,29.9326 Q455.0938,29.5576 454.4844,29.3389 Q453.875,29.1201 453.25,29.1201 Q452.4844,29.1201 451.8516,29.4482 Q451.2188,29.7764 450.7266,30.5264 Q450.2344,31.2764 450.2344,32.3076 L450.2344,33.4014 Q450.2344,34.6357 451.125,35.4561 Q452.0156,36.2764 453.6094,36.2764 Q454.5469,36.2764 455.2031,36.0264 Q455.5938,35.8701 456.0156,35.4326 Q456.2813,35.167 456.4297,35.0889 Q456.5781,35.0107 456.7813,35.0107 Q457.1094,35.0107 457.3672,35.2686 Q457.625,35.5264 457.625,35.8701 Q457.625,36.2139 457.2813,36.6201 Q456.7813,37.1982 455.9844,37.5264 Q454.9063,37.9795 453.6094,37.9795 Q452.0938,37.9795 450.8906,37.3545 Q449.9063,36.8545 449.2188,35.7842 Q448.5313,34.7139 448.5313,33.4326 L448.5313,32.2764 Q448.5313,30.9482 449.1484,29.7998 Q449.7656,28.6514 450.8594,28.0342 Q451.9531,27.417 453.1875,27.417 Q453.9219,27.417 454.5703,27.5811 Q455.2188,27.7451 455.7656,28.1045 Z " fill="#000000"/><text fill="#000000" font-family="Verdana" font-size="14" lengthAdjust="spacing" textLength="82.6738" x="465" y="37.7974">AuthServlet</text></g><!--class TestServlet--><g id="elem_TestServlet"><rect codeLine="300" fill="#F0F0F0" height="28" id="TestServlet" rx="2.5" ry="2.5" style="stroke:#333333;stroke-width:1.0;" width="107.6455" x="910.5" y="18.2295"/><ellipse cx="923.5" cy="32.2295" fill="#FFFFFF" rx="9" ry="9" style="stroke:#000000;stroke-width:1.0;"/><path d="M926.2656,28.1045 Q926.4219,27.8857 926.6094,27.7764 Q926.7969,27.667 927.0156,27.667 Q927.3906,27.667 927.625,27.9248 Q927.8594,28.1826 927.8594,28.792 L927.8594,30.2451 Q927.8594,30.8545 927.625,31.1201 Q927.3906,31.3857 927.0156,31.3857 Q926.6719,31.3857 926.4688,31.1826 Q926.2656,30.9951 926.1563,30.4795 Q926.1094,30.1201 925.9219,29.9326 Q925.5938,29.5576 924.9844,29.3389 Q924.375,29.1201 923.75,29.1201 Q922.9844,29.1201 922.3516,29.4482 Q921.7188,29.7764 921.2266,30.5264 Q920.7344,31.2764 920.7344,32.3076 L920.7344,33.4014 Q920.7344,34.6357 921.625,35.4561 Q922.5156,36.2764 924.1094,36.2764 Q925.0469,36.2764 925.7031,36.0264 Q926.0938,35.8701 926.5156,35.4326 Q926.7813,35.167 926.9297,35.0889 Q927.0781,35.0107 927.2813,35.0107 Q927.6094,35.0107 927.8672,35.2686 Q928.125,35.5264 928.125,35.8701 Q928.125,36.2139 927.7813,36.6201 Q927.2813,37.1982 926.4844,37.5264 Q925.4063,37.9795 924.1094,37.9795 Q922.5938,37.9795 921.3906,37.3545 Q920.4063,36.8545 919.7188,35.7842 Q919.0313,34.7139 919.0313,33.4326 L919.0313,32.2764 Q919.0313,30.9482 919.6484,29.7998 Q920.2656,28.6514 921.3594,28.0342 Q922.4531,27.417 923.6875,27.417 Q924.4219,27.417 925.0703,27.5811 Q925.7188,27.7451 926.2656,28.1045 Z " fill="#000000"/><text fill="#000000" font-family="Verdana" font-size="14" lengthAdjust="spacing" textLength="79.6455" x="935.5" y="37.7974">TestServlet</text></g><!--class AdminServlet--><g id="elem_AdminServlet"><rect codeLine="312" fill="#F0F0F0" height="28" id="AdminServlet" rx="2.5" ry="2.5" style="stroke:#333333;stroke-width:1.0;" width="122.4795" x="1402.5" y="18.2295"/><ellipse cx="1415.5" cy="32.2295" fill="#FFFFFF" rx="9" ry="9" style="stroke:#000000;stroke-width:1.0;"/><path d="M1418.2656,28.1045 Q1418.4219,27.8857 1418.6094,27.7764 Q1418.7969,27.667 1419.0156,27.667 Q1419.3906,27.667 1419.625,27.9248 Q1419.8594,28.1826 1419.8594,28.792 L1419.8594,30.2451 Q1419.8594,30.8545 1419.625,31.1201 Q1419.3906,31.3857 1419.0156,31.3857 Q1418.6719,31.3857 1418.4688,31.1826 Q1418.2656,30.9951 1418.1563,30.4795 Q1418.1094,30.1201 1417.9219,29.9326 Q1417.5938,29.5576 1416.9844,29.3389 Q1416.375,29.1201 1415.75,29.1201 Q1414.9844,29.1201 1414.3516,29.4482 Q1413.7188,29.7764 1413.2266,30.5264 Q1412.7344,31.2764 1412.7344,32.3076 L1412.7344,33.4014 Q1412.7344,34.6357 1413.625,35.4561 Q1414.5156,36.2764 1416.1094,36.2764 Q1417.0469,36.2764 1417.7031,36.0264 Q1418.0938,35.8701 1418.5156,35.4326 Q1418.7813,35.167 1418.9297,35.0889 Q1419.0781,35.0107 1419.2813,35.0107 Q1419.6094,35.0107 1419.8672,35.2686 Q1420.125,35.5264 1420.125,35.8701 Q1420.125,36.2139 1419.7813,36.6201 Q1419.2813,37.1982 1418.4844,37.5264 Q1417.4063,37.9795 1416.1094,37.9795 Q1414.5938,37.9795 1413.3906,37.3545 Q1412.4063,36.8545 1411.7188,35.7842 Q1411.0313,34.7139 1411.0313,33.4326 L1411.0313,32.2764 Q1411.0313,30.9482 1411.6484,29.7998 Q1412.2656,28.6514 1413.3594,28.0342 Q1414.4531,27.417 1415.6875,27.417 Q1416.4219,27.417 1417.0703,27.5811 Q1417.7188,27.7451 1418.2656,28.1045 Z " fill="#000000"/><text fill="#000000" font-family="Verdana" font-size="14" lengthAdjust="spacing" textLength="94.4795" x="1427.5" y="37.7974">AdminServlet</text></g><!--class ImageServlet--><g id="elem_ImageServlet"><rect codeLine="328" fill="#F0F0F0" height="28" id="ImageServlet" rx="2.5" ry="2.5" style="stroke:#333333;stroke-width:1.0;" width="122.8486" x="1679" y="18.2295"/><ellipse cx="1692" cy="32.2295" fill="#FFFFFF" rx="9" ry="9" style="stroke:#000000;stroke-width:1.0;"/><path d="M1694.7656,28.1045 Q1694.9219,27.8857 1695.1094,27.7764 Q1695.2969,27.667 1695.5156,27.667 Q1695.8906,27.667 1696.125,27.9248 Q1696.3594,28.1826 1696.3594,28.792 L1696.3594,30.2451 Q1696.3594,30.8545 1696.125,31.1201 Q1695.8906,31.3857 1695.5156,31.3857 Q1695.1719,31.3857 1694.9688,31.1826 Q1694.7656,30.9951 1694.6563,30.4795 Q1694.6094,30.1201 1694.4219,29.9326 Q1694.0938,29.5576 1693.4844,29.3389 Q1692.875,29.1201 1692.25,29.1201 Q1691.4844,29.1201 1690.8516,29.4482 Q1690.2188,29.7764 1689.7266,30.5264 Q1689.2344,31.2764 1689.2344,32.3076 L1689.2344,33.4014 Q1689.2344,34.6357 1690.125,35.4561 Q1691.0156,36.2764 1692.6094,36.2764 Q1693.5469,36.2764 1694.2031,36.0264 Q1694.5938,35.8701 1695.0156,35.4326 Q1695.2813,35.167 1695.4297,35.0889 Q1695.5781,35.0107 1695.7813,35.0107 Q1696.1094,35.0107 1696.3672,35.2686 Q1696.625,35.5264 1696.625,35.8701 Q1696.625,36.2139 1696.2813,36.6201 Q1695.7813,37.1982 1694.9844,37.5264 Q1693.9063,37.9795 1692.6094,37.9795 Q1691.0938,37.9795 1689.8906,37.3545 Q1688.9063,36.8545 1688.2188,35.7842 Q1687.5313,34.7139 1687.5313,33.4326 L1687.5313,32.2764 Q1687.5313,30.9482 1688.1484,29.7998 Q1688.7656,28.6514 1689.8594,28.0342 Q1690.9531,27.417 1692.1875,27.417 Q1692.9219,27.417 1693.5703,27.5811 Q1694.2188,27.7451 1694.7656,28.1045 Z " fill="#000000"/><text fill="#000000" font-family="Verdana" font-size="14" lengthAdjust="spacing" textLength="94.8486" x="1704" y="37.7974">ImageServlet</text></g><!--class HealthServlet--><g id="elem_HealthServlet"><rect codeLine="334" fill="#F0F0F0" height="28" id="HealthServlet" rx="2.5" ry="2.5" style="stroke:#333333;stroke-width:1.0;" width="123.3545" x="2007" y="18.2295"/><ellipse cx="2020" cy="32.2295" fill="#FFFFFF" rx="9" ry="9" style="stroke:#000000;stroke-width:1.0;"/><path d="M2022.7656,28.1045 Q2022.9219,27.8857 2023.1094,27.7764 Q2023.2969,27.667 2023.5156,27.667 Q2023.8906,27.667 2024.125,27.9248 Q2024.3594,28.1826 2024.3594,28.792 L2024.3594,30.2451 Q2024.3594,30.8545 2024.125,31.1201 Q2023.8906,31.3857 2023.5156,31.3857 Q2023.1719,31.3857 2022.9688,31.1826 Q2022.7656,30.9951 2022.6563,30.4795 Q2022.6094,30.1201 2022.4219,29.9326 Q2022.0938,29.5576 2021.4844,29.3389 Q2020.875,29.1201 2020.25,29.1201 Q2019.4844,29.1201 2018.8516,29.4482 Q2018.2188,29.7764 2017.7266,30.5264 Q2017.2344,31.2764 2017.2344,32.3076 L2017.2344,33.4014 Q2017.2344,34.6357 2018.125,35.4561 Q2019.0156,36.2764 2020.6094,36.2764 Q2021.5469,36.2764 2022.2031,36.0264 Q2022.5938,35.8701 2023.0156,35.4326 Q2023.2813,35.167 2023.4297,35.0889 Q2023.5781,35.0107 2023.7813,35.0107 Q2024.1094,35.0107 2024.3672,35.2686 Q2024.625,35.5264 2024.625,35.8701 Q2024.625,36.2139 2024.2813,36.6201 Q2023.7813,37.1982 2022.9844,37.5264 Q2021.9063,37.9795 2020.6094,37.9795 Q2019.0938,37.9795 2017.8906,37.3545 Q2016.9063,36.8545 2016.2188,35.7842 Q2015.5313,34.7139 2015.5313,33.4326 L2015.5313,32.2764 Q2015.5313,30.9482 2016.1484,29.7998 Q2016.7656,28.6514 2017.8594,28.0342 Q2018.9531,27.417 2020.1875,27.417 Q2020.9219,27.417 2021.5703,27.5811 Q2022.2188,27.7451 2022.7656,28.1045 Z " fill="#000000"/><text fill="#000000" font-family="Verdana" font-size="14" lengthAdjust="spacing" textLength="95.3545" x="2032" y="37.7974">HealthServlet</text></g><!--class DbConnectionManager--><g id="elem_DbConnectionManager"><rect codeLine="340" fill="#F0F0F0" height="28" id="DbConnectionManager" rx="2.5" ry="2.5" style="stroke:#333333;stroke-width:1.0;" width="186.3613" x="2165.5" y="18.2295"/><ellipse cx="2178.5" cy="32.2295" fill="#FFFFFF" rx="9" ry="9" style="stroke:#000000;stroke-width:1.0;"/><path d="M2181.2656,28.1045 Q2181.4219,27.8857 2181.6094,27.7764 Q2181.7969,27.667 2182.0156,27.667 Q2182.3906,27.667 2182.625,27.9248 Q2182.8594,28.1826 2182.8594,28.792 L2182.8594,30.2451 Q2182.8594,30.8545 2182.625,31.1201 Q2182.3906,31.3857 2182.0156,31.3857 Q2181.6719,31.3857 2181.4688,31.1826 Q2181.2656,30.9951 2181.1563,30.4795 Q2181.1094,30.1201 2180.9219,29.9326 Q2180.5938,29.5576 2179.9844,29.3389 Q2179.375,29.1201 2178.75,29.1201 Q2177.9844,29.1201 2177.3516,29.4482 Q2176.7188,29.7764 2176.2266,30.5264 Q2175.7344,31.2764 2175.7344,32.3076 L2175.7344,33.4014 Q2175.7344,34.6357 2176.625,35.4561 Q2177.5156,36.2764 2179.1094,36.2764 Q2180.0469,36.2764 2180.7031,36.0264 Q2181.0938,35.8701 2181.5156,35.4326 Q2181.7813,35.167 2181.9297,35.0889 Q2182.0781,35.0107 2182.2813,35.0107 Q2182.6094,35.0107 2182.8672,35.2686 Q2183.125,35.5264 2183.125,35.8701 Q2183.125,36.2139 2182.7813,36.6201 Q2182.2813,37.1982 2181.4844,37.5264 Q2180.4063,37.9795 2179.1094,37.9795 Q2177.5938,37.9795 2176.3906,37.3545 Q2175.4063,36.8545 2174.7188,35.7842 Q2174.0313,34.7139 2174.0313,33.4326 L2174.0313,32.2764 Q2174.0313,30.9482 2174.6484,29.7998 Q2175.2656,28.6514 2176.3594,28.0342 Q2177.4531,27.417 2178.6875,27.417 Q2179.4219,27.417 2180.0703,27.5811 Q2180.7188,27.7451 2181.2656,28.1045 Z " fill="#000000"/><text fill="#000000" font-family="Verdana" font-size="14" lengthAdjust="spacing" textLength="158.3613" x="2190.5" y="37.7974">DbConnectionManager</text></g><!--class PasswordUtils--><g id="elem_PasswordUtils"><rect codeLine="349" fill="#F0F0F0" height="28" id="PasswordUtils" rx="2.5" ry="2.5" style="stroke:#333333;stroke-width:1.0;" width="124.8311" x="189" y="309.2295"/><ellipse cx="202" cy="323.2295" fill="#FFFFFF" rx="9" ry="9" style="stroke:#000000;stroke-width:1.0;"/><path d="M204.7656,319.1045 Q204.9219,318.8857 205.1094,318.7764 Q205.2969,318.667 205.5156,318.667 Q205.8906,318.667 206.125,318.9248 Q206.3594,319.1826 206.3594,319.792 L206.3594,321.2451 Q206.3594,321.8545 206.125,322.1201 Q205.8906,322.3857 205.5156,322.3857 Q205.1719,322.3857 204.9688,322.1826 Q204.7656,321.9951 204.6563,321.4795 Q204.6094,321.1201 204.4219,320.9326 Q204.0938,320.5576 203.4844,320.3389 Q202.875,320.1201 202.25,320.1201 Q201.4844,320.1201 200.8516,320.4482 Q200.2188,320.7764 199.7266,321.5264 Q199.2344,322.2764 199.2344,323.3076 L199.2344,324.4014 Q199.2344,325.6357 200.125,326.4561 Q201.0156,327.2764 202.6094,327.2764 Q203.5469,327.2764 204.2031,327.0264 Q204.5938,326.8701 205.0156,326.4326 Q205.2813,326.167 205.4297,326.0889 Q205.5781,326.0107 205.7813,326.0107 Q206.1094,326.0107 206.3672,326.2686 Q206.625,326.5264 206.625,326.8701 Q206.625,327.2139 206.2813,327.6201 Q205.7813,328.1982 204.9844,328.5264 Q203.9063,328.9795 202.6094,328.9795 Q201.0938,328.9795 199.8906,328.3545 Q198.9063,327.8545 198.2188,326.7842 Q197.5313,325.7139 197.5313,324.4326 L197.5313,323.2764 Q197.5313,321.9482 198.1484,320.7998 Q198.7656,319.6514 199.8594,319.0342 Q200.9531,318.417 202.1875,318.417 Q202.9219,318.417 203.5703,318.5811 Q204.2188,318.7451 204.7656,319.1045 Z " fill="#000000"/><text fill="#000000" font-family="Verdana" font-size="14" lengthAdjust="spacing" textLength="96.8311" x="214" y="328.7974">PasswordUtils</text></g><g id="elem_GMN63"><path d="M578.5,616.2295 L578.5,689.4268 A0,0 0 0 0 578.5,689.4268 L862.0898,689.4268 A0,0 0 0 0 862.0898,689.4268 L862.0898,626.2295 L852.0898,616.2295 L724.5,616.2295 L720.5,525.7695 L716.5,616.2295 L578.5,616.2295 A0,0 0 0 0 578.5,616.2295 " fill="#FFFFFF" style="stroke:#000000;stroke-width:1.0;"/><path d="M852.0898,616.2295 L852.0898,626.2295 L862.0898,626.2295 L852.0898,616.2295 " fill="#FFFFFF" style="stroke:#000000;stroke-width:1.0;"/><text fill="#000000" font-family="Verdana" font-size="13" font-weight="bold" lengthAdjust="spacing" textLength="92.041" x="584.5" y="634.2993">User-Klasse:</text><text fill="#000000" font-family="Verdana" font-size="13" lengthAdjust="spacing" textLength="262.5898" x="584.5" y="650.0986">- role ist ein String ("student", "admin")</text><text fill="#000000" font-family="Verdana" font-size="13" lengthAdjust="spacing" textLength="140.5117" x="584.5" y="665.8979">- KEIN Enum f&#252;r Role</text><text fill="#000000" font-family="Verdana" font-size="13" lengthAdjust="spacing" textLength="240.2017" x="584.5" y="681.6973">- resetRequested f&#252;r Passwort-Reset</text></g><g id="elem_GMN66"><path d="M1227,616.2295 L1227,689.4268 L1523.5073,689.4268 L1523.5073,626.2295 L1513.5073,616.2295 L1227,616.2295 " fill="#FFFFFF" style="stroke:#000000;stroke-width:1.0;"/><path d="M1513.5073,616.2295 L1513.5073,626.2295 L1523.5073,626.2295 L1513.5073,616.2295 " fill="#FFFFFF" style="stroke:#000000;stroke-width:1.0;"/><text fill="#000000" font-family="Verdana" font-size="13" font-weight="bold" lengthAdjust="spacing" textLength="123.8872" x="1233" y="634.2993">Question-Klasse:</text><text fill="#000000" font-family="Verdana" font-size="13" lengthAdjust="spacing" textLength="151.6772" x="1233" y="650.0986">- prompt (NICHT text!)</text><text fill="#000000" font-family="Verdana" font-size="13" lengthAdjust="spacing" textLength="167.521" x="1233" y="665.8979">- difficulty ist int (1, 2, 3)</text><text fill="#000000" font-family="Verdana" font-size="13" lengthAdjust="spacing" textLength="275.5073" x="1233" y="681.6973">- 4 Fragetypen: MC, CLOZE, FREE, IMAGE</text></g><g id="elem_GMN69"><path d="M1779.5,616.2295 L1779.5,689.4268 L2085.167,689.4268 L2085.167,626.2295 L2075.167,616.2295 L1779.5,616.2295 " fill="#FFFFFF" style="stroke:#000000;stroke-width:1.0;"/><path d="M2075.167,616.2295 L2075.167,626.2295 L2085.167,626.2295 L2075.167,616.2295 " fill="#FFFFFF" style="stroke:#000000;stroke-width:1.0;"/><text fill="#000000" font-family="Verdana" font-size="13" font-weight="bold" lengthAdjust="spacing" textLength="118.0156" x="1785.5" y="634.2993">Attempt-Klasse:</text><text fill="#000000" font-family="Verdana" font-size="13" lengthAdjust="spacing" textLength="284.667" x="1785.5" y="650.0986">- KEINE Referenz zu Test (kein Test-Entity)</text><text fill="#000000" font-family="Verdana" font-size="13" lengthAdjust="spacing" textLength="235.7646" x="1785.5" y="665.8979">- Tests werden dynamisch generiert</text><text fill="#000000" font-family="Verdana" font-size="13" lengthAdjust="spacing" textLength="170.2759" x="1785.5" y="681.6973">- userId statt User-Objekt</text></g><g id="elem_GMN72"><path d="M349,294.7295 L349,352.1274 A0,0 0 0 0 349,352.1274 L641.9399,352.1274 A0,0 0 0 0 641.9399,352.1274 L641.9399,304.7295 L631.9399,294.7295 L499.5,294.7295 L495.5,156.8895 L491.5,294.7295 L349,294.7295 A0,0 0 0 0 349,294.7295 " fill="#FFFFFF" style="stroke:#000000;stroke-width:1.0;"/><path d="M631.9399,294.7295 L631.9399,304.7295 L641.9399,304.7295 L631.9399,294.7295 " fill="#FFFFFF" style="stroke:#000000;stroke-width:1.0;"/><text fill="#000000" font-family="Verdana" font-size="13" font-weight="bold" lengthAdjust="spacing" textLength="93.2725" x="355" y="312.7993">AuthService:</text><text fill="#000000" font-family="Verdana" font-size="13" lengthAdjust="spacing" textLength="255.9121" x="355" y="328.5986">- Passwort-Hashing &#252;ber PasswordUtils</text><text fill="#000000" font-family="Verdana" font-size="13" lengthAdjust="spacing" textLength="271.9399" x="355" y="344.3979">- PasswordUtils ist separate Utility-Klasse</text></g><g id="elem_GMN75"><path d="M2110,106.2295 L2110,179.4268 L2406.8755,179.4268 L2406.8755,116.2295 L2396.8755,106.2295 L2110,106.2295 " fill="#FFFFFF" style="stroke:#000000;stroke-width:1.0;"/><path d="M2396.8755,106.2295 L2396.8755,116.2295 L2406.8755,116.2295 L2396.8755,106.2295 " fill="#FFFFFF" style="stroke:#000000;stroke-width:1.0;"/><text fill="#000000" font-family="Verdana" font-size="13" font-weight="bold" lengthAdjust="spacing" textLength="169.9331" x="2116" y="124.2993">DbConnectionManager:</text><text fill="#000000" font-family="Verdana" font-size="13" lengthAdjust="spacing" textLength="259.0288" x="2116" y="140.0986">- Utility-Klasse (kein Singleton-Pattern)</text><text fill="#000000" font-family="Verdana" font-size="13" lengthAdjust="spacing" textLength="275.8755" x="2116" y="155.8979">- Nur statische Methode: getDataSource()</text><text fill="#000000" font-family="Verdana" font-size="13" lengthAdjust="spacing" textLength="174.4146" x="2116" y="171.6973">- HikariCP Connection Pool</text></g><g id="elem_GMN78"><path d="M2134,239.2295 L2134,407.2227 L2382.5508,407.2227 L2382.5508,249.2295 L2372.5508,239.2295 L2134,239.2295 " fill="#FFFFFF" style="stroke:#000000;stroke-width:1.0;"/><path d="M2372.5508,239.2295 L2372.5508,249.2295 L2382.5508,249.2295 L2372.5508,239.2295 " fill="#FFFFFF" style="stroke:#000000;stroke-width:1.0;"/><text fill="#000000" font-family="Verdana" font-size="13" font-weight="bold" lengthAdjust="spacing" textLength="227.5508" x="2140" y="257.2993">NICHT EXISTIERENDE Klassen:</text><text fill="#000000" font-family="Verdana" font-size="13" lengthAdjust="spacing" textLength="203.8232" x="2140" y="273.0986">- Test / TestDao / JdbcTestDao</text><text fill="#000000" font-family="Verdana" font-size="13" lengthAdjust="spacing" textLength="114.5625" x="2140" y="288.8979">- QuestionServlet</text><text fill="#000000" font-family="Verdana" font-size="13" lengthAdjust="spacing" textLength="132.6787" x="2140" y="304.6973">- ProgressionServlet</text><text fill="#000000" font-family="Verdana" font-size="13" lengthAdjust="spacing" textLength="131.7583" x="2140" y="320.4966">- FilterAuthenticator</text><text fill="#000000" font-family="Verdana" font-size="13" lengthAdjust="spacing" textLength="160.8369" x="2140" y="336.2959">- Logger (eigene Klasse)</text><text fill="#000000" font-family="Verdana" font-size="13" lengthAdjust="spacing" textLength="108.0942" x="2140" y="352.0952">- ConfigManager</text><text fill="#000000" font-family="Verdana" font-size="13" lengthAdjust="spacing" textLength="103.562" x="2140" y="367.8945">- ValidationUtils</text><text fill="#000000" font-family="Verdana" font-size="13" lengthAdjust="spacing" textLength="124.5728" x="2140" y="383.6938">- ExceptionHandler</text><text fill="#000000" font-family="Verdana" font-size="13" lengthAdjust="spacing" textLength="92.4092" x="2140" y="399.4932">- Role (Enum)</text></g><!--link QuestionType to Question--><g id="link_QuestionType_Question"><path codeLine="364" d="M112.17,337.3195 C112.17,354.1995 112.17,380.2295 112.17,380.2295 C112.17,380.2295 1098.6,380.2295 1098.6,380.2295 C1098.6,380.2295 1098.6,451.7295 1098.6,485.6595 " fill="none" id="QuestionType-to-Question" style="stroke:#333333;stroke-width:1.0;"/><polygon fill="#333333" points="1098.6,497.6595,1102.6,491.6595,1098.6,485.6595,1094.6,491.6595,1098.6,497.6595" style="stroke:#333333;stroke-width:1.0;"/><text fill="#000000" font-family="Verdana" font-size="13" lengthAdjust="spacing" textLength="28.6597" x="613.64" y="377.2993">type</text></g><!--link Question to AnswerOption--><g id="link_Question_AnswerOption"><path codeLine="367" d="M1092.18,512.2295 C1049.4,512.2295 991.75,512.2295 991.75,512.2295 C991.75,512.2295 991.75,590.7695 991.75,626.4795 " fill="none" id="Question-to-AnswerOption" style="stroke:#333333;stroke-width:1.0;"/><polygon fill="none" points="991.75,638.4795,995.75,632.4795,991.75,626.4795,987.75,632.4795,991.75,638.4795" style="stroke:#333333;stroke-width:1.0;"/><text fill="#000000" font-family="Verdana" font-size="13" lengthAdjust="spacing" textLength="81.7959" x="909.75" y="522.2093">has (for MC)</text><text fill="#000000" font-family="Verdana" font-size="13" lengthAdjust="spacing" textLength="8.2646" x="984.7426" y="627.7423">*</text></g><!--link Question to ClozeToken--><g id="link_Question_ClozeToken"><path codeLine="368" d="M1137.5,525.7695 C1137.5,552.6495 1137.5,599.1595 1137.5,626.3295 " fill="none" id="Question-to-ClozeToken" style="stroke:#333333;stroke-width:1.0;"/><polygon fill="none" points="1137.5,638.3295,1141.5,632.3295,1137.5,626.3295,1133.5,632.3295,1137.5,638.3295" style="stroke:#333333;stroke-width:1.0;"/><text fill="#000000" font-family="Verdana" font-size="13" lengthAdjust="spacing" textLength="105.4346" x="1031.5" y="579.1193">has (for CLOZE)</text><text fill="#000000" font-family="Verdana" font-size="13" lengthAdjust="spacing" textLength="8.2646" x="1127.8948" y="627.9336">*</text></g><!--link Attempt to AttemptAnswer--><g id="link_Attempt_AttemptAnswer"><path codeLine="371" d="M1701.5,525.7695 C1701.5,552.6495 1701.5,599.1595 1701.5,626.3295 " fill="none" id="Attempt-to-AttemptAnswer" style="stroke:#333333;stroke-width:1.0;"/><polygon fill="none" points="1701.5,638.3295,1705.5,632.3295,1701.5,626.3295,1697.5,632.3295,1701.5,638.3295" style="stroke:#333333;stroke-width:1.0;"/><text fill="#000000" font-family="Verdana" font-size="13" lengthAdjust="spacing" textLength="48.3755" x="1652.5" y="579.1193">records</text><text fill="#000000" font-family="Verdana" font-size="13" lengthAdjust="spacing" textLength="8.2646" x="1701.7628" y="627.9336">*</text></g><!--link UserDao to User--><g id="link_UserDao_User"><path codeLine="374" d="M720.5,337.3995 C720.5,372.4195 720.5,456.7295 720.5,491.6495 " fill="none" id="UserDao-to-User" style="stroke:#333333;stroke-width:1.0;stroke-dasharray:7.0,7.0;"/><polygon fill="#333333" points="720.5,497.6495,724.5,488.6495,720.5,492.6495,716.5,488.6495,720.5,497.6495" style="stroke:#333333;stroke-width:1.0;"/><text fill="#000000" font-family="Verdana" font-size="13" lengthAdjust="spacing" textLength="29.5166" x="690.5" y="414.5993">uses</text></g><!--link QuestionRepository to Question--><g id="link_QuestionRepository_Question"><path codeLine="375" d="M1484.5,337.3595 C1484.5,380.4495 1484.5,507.2295 1484.5,507.2295 C1484.5,507.2295 1282.4,507.2295 1188.51,507.2295 " fill="none" id="QuestionRepository-to-Question" style="stroke:#333333;stroke-width:1.0;stroke-dasharray:7.0,7.0;"/><polygon fill="#333333" points="1182.51,507.2295,1191.51,511.2295,1187.51,507.2295,1191.51,503.2295,1182.51,507.2295" style="stroke:#333333;stroke-width:1.0;"/><text fill="#000000" font-family="Verdana" font-size="13" lengthAdjust="spacing" textLength="47.1885" x="1370.44" y="504.2993">returns</text></g><!--link AttemptDao to Attempt--><g id="link_AttemptDao_Attempt"><path codeLine="376" d="M1701.5,337.3995 C1701.5,372.4195 1701.5,456.7295 1701.5,491.6495 " fill="none" id="AttemptDao-to-Attempt" style="stroke:#333333;stroke-width:1.0;stroke-dasharray:7.0,7.0;"/><polygon fill="#333333" points="1701.5,497.6495,1705.5,488.6495,1701.5,492.6495,1697.5,488.6495,1701.5,497.6495" style="stroke:#333333;stroke-width:1.0;"/><text fill="#000000" font-family="Verdana" font-size="13" lengthAdjust="spacing" textLength="47.1885" x="1653.5" y="414.5993">returns</text></g><!--link AuthService to UserDao--><g id="link_AuthService_UserDao"><path codeLine="379" d="M551.7,143.2295 C610.52,143.2295 694.4,143.2295 694.4,143.2295 C694.4,143.2295 694.4,260.6695 694.4,303.1095 " fill="none" id="AuthService-to-UserDao" style="stroke:#333333;stroke-width:1.0;"/><polygon fill="#333333" points="694.4,309.1095,698.4,300.1095,694.4,304.1095,690.4,300.1095,694.4,309.1095" style="stroke:#333333;stroke-width:1.0;"/><text fill="#000000" font-family="Verdana" font-size="13" lengthAdjust="spacing" textLength="29.5166" x="664.4" y="151.8893">uses</text></g><!--link AuthService to PasswordUtils--><g id="link_AuthService_PasswordUtils"><path codeLine="380" d="M439.22,143.2295 C367.16,143.2295 251.5,143.2295 251.5,143.2295 C251.5,143.2295 251.5,260.6695 251.5,303.1095 " fill="none" id="AuthService-to-PasswordUtils" style="stroke:#333333;stroke-width:1.0;"/><polygon fill="#333333" points="251.5,309.1095,255.5,300.1095,251.5,304.1095,247.5,300.1095,251.5,309.1095" style="stroke:#333333;stroke-width:1.0;"/><text fill="#000000" font-family="Verdana" font-size="13" lengthAdjust="spacing" textLength="29.5166" x="232.42" y="140.2993">uses</text></g><!--link TestService to QuestionRepository--><g id="link_TestService_QuestionRepository"><path codeLine="381" d="M1103.8,156.7595 C1103.8,178.8495 1103.8,219.2295 1103.8,219.2295 C1103.8,219.2295 1464.88,219.2295 1464.88,219.2295 C1464.88,219.2295 1464.88,274.8195 1464.88,303.1995 " fill="none" id="TestService-to-QuestionRepository" style="stroke:#333333;stroke-width:1.0;"/><polygon fill="#333333" points="1464.88,309.1995,1468.88,300.1995,1464.88,304.1995,1460.88,300.1995,1464.88,309.1995" style="stroke:#333333;stroke-width:1.0;"/><text fill="#000000" font-family="Verdana" font-size="13" lengthAdjust="spacing" textLength="29.5166" x="1268.09" y="216.2993">uses</text></g><!--link TestService to AnswerDao--><g id="link_TestService_AnswerDao"><path codeLine="382" d="M1109.28,143.2295 C1174.25,143.2295 1273.83,143.2295 1273.83,143.2295 C1273.83,143.2295 1273.83,323.2295 1273.83,323.2295 C1273.83,323.2295 1280.96,323.2295 1296.75,323.2295 " fill="none" id="TestService-to-AnswerDao" style="stroke:#333333;stroke-width:1.0;"/><polygon fill="#333333" points="1302.75,323.2295,1293.75,319.2295,1297.75,323.2295,1293.75,327.2295,1302.75,323.2295" style="stroke:#333333;stroke-width:1.0;"/><text fill="#000000" font-family="Verdana" font-size="13" lengthAdjust="spacing" textLength="29.5166" x="1243.83" y="162.4793">uses</text></g><!--link TestService to ClozeTokenDao--><g id="link_TestService_ClozeTokenDao"><path codeLine="383" d="M1101.2,156.8895 C1101.2,199.4395 1101.2,323.2295 1101.2,323.2295 C1101.2,323.2295 1108.59,323.2295 1125.5,323.2295 " fill="none" id="TestService-to-ClozeTokenDao" style="stroke:#333333;stroke-width:1.0;"/><polygon fill="#333333" points="1131.5,323.2295,1122.5,319.2295,1126.5,323.2295,1122.5,327.2295,1131.5,323.2295" style="stroke:#333333;stroke-width:1.0;"/><text fill="#000000" font-family="Verdana" font-size="13" lengthAdjust="spacing" textLength="29.5166" x="1071.2" y="252.2793">uses</text></g><!--link TestService to AttemptDao--><g id="link_TestService_AttemptDao"><path codeLine="384" d="M1106.4,156.9895 C1106.4,173.7195 1106.4,199.2295 1106.4,199.2295 C1106.4,199.2295 1650,199.2295 1650,199.2295 C1650,199.2295 1650,270.4295 1650,303.0095 " fill="none" id="TestService-to-AttemptDao" style="stroke:#333333;stroke-width:1.0;"/><polygon fill="#333333" points="1650,309.0095,1654,300.0095,1650,304.0095,1646,300.0095,1650,309.0095" style="stroke:#333333;stroke-width:1.0;"/><text fill="#000000" font-family="Verdana" font-size="13" lengthAdjust="spacing" textLength="29.5166" x="1381.97" y="196.2993">uses</text></g><!--link TestService to UserDao--><g id="link_TestService_UserDao"><path codeLine="385" d="M999.81,136.2295 C911.33,136.2295 746.6,136.2295 746.6,136.2295 C746.6,136.2295 746.6,259.6895 746.6,303.1695 " fill="none" id="TestService-to-UserDao" style="stroke:#333333;stroke-width:1.0;"/><polygon fill="#333333" points="746.6,309.1695,750.6,300.1695,746.6,304.1695,742.6,300.1695,746.6,309.1695" style="stroke:#333333;stroke-width:1.0;"/><text fill="#000000" font-family="Verdana" font-size="13" lengthAdjust="spacing" textLength="29.5166" x="756.73" y="133.2993">uses</text></g><!--link TestService to ConfigDao--><g id="link_TestService_ConfigDao"><path codeLine="386" d="M999.83,150.2295 C939.1,150.2295 849.5,150.2295 849.5,150.2295 C849.5,150.2295 849.5,261.7595 849.5,303.0695 " fill="none" id="TestService-to-ConfigDao" style="stroke:#333333;stroke-width:1.0;"/><polygon fill="#333333" points="849.5,309.0695,853.5,300.0695,849.5,304.0695,845.5,300.0695,849.5,309.0695" style="stroke:#333333;stroke-width:1.0;"/><text fill="#000000" font-family="Verdana" font-size="13" lengthAdjust="spacing" textLength="29.5166" x="819.5" y="151.5493">uses</text></g><!--link TestService to ProgressionService--><g id="link_TestService_ProgressionService"><path codeLine="387" d="M1048,156.8895 C1048,190.6395 1048,269.4595 1048,303.1295 " fill="none" id="TestService-to-ProgressionService" style="stroke:#333333;stroke-width:1.0;stroke-dasharray:7.0,7.0;"/><polygon fill="#333333" points="1048,309.1295,1052,300.1295,1048,304.1295,1044,300.1295,1048,309.1295" style="stroke:#333333;stroke-width:1.0;"/><text fill="#000000" font-family="Verdana" font-size="13" lengthAdjust="spacing" textLength="47.5122" x="1000" y="230.0793">creates</text></g><!--link AdminService to QuestionRepository--><g id="link_AdminService_QuestionRepository"><path codeLine="388" d="M1410.64,143.2295 C1446.58,143.2295 1484.75,143.2295 1484.75,143.2295 C1484.75,143.2295 1484.75,260.6695 1484.75,303.1095 " fill="none" id="AdminService-to-QuestionRepository" style="stroke:#333333;stroke-width:1.0;"/><polygon fill="#333333" points="1484.75,309.1095,1488.75,300.1095,1484.75,304.1095,1480.75,300.1095,1484.75,309.1095" style="stroke:#333333;stroke-width:1.0;"/><text fill="#000000" font-family="Verdana" font-size="13" lengthAdjust="spacing" textLength="29.5166" x="1454.75" y="186.1893">uses</text></g><!--link AdminService to AnswerDao--><g id="link_AdminService_AnswerDao"><path codeLine="389" d="M1356.5,156.8895 C1356.5,190.6395 1356.5,269.4595 1356.5,303.1295 " fill="none" id="AdminService-to-AnswerDao" style="stroke:#333333;stroke-width:1.0;"/><polygon fill="#333333" points="1356.5,309.1295,1360.5,300.1295,1356.5,304.1295,1352.5,300.1295,1356.5,309.1295" style="stroke:#333333;stroke-width:1.0;"/><text fill="#000000" font-family="Verdana" font-size="13" lengthAdjust="spacing" textLength="29.5166" x="1326.5" y="230.0793">uses</text></g><!--link AdminService to ClozeTokenDao--><g id="link_AdminService_ClozeTokenDao"><path codeLine="390" d="M1294.75,156.8195 C1294.75,200.4295 1294.75,330.2295 1294.75,330.2295 C1294.75,330.2295 1288.98,330.2295 1273.71,330.2295 " fill="none" id="AdminService-to-ClozeTokenDao" style="stroke:#333333;stroke-width:1.0;"/><polygon fill="#333333" points="1267.71,330.2295,1276.71,334.2295,1272.71,330.2295,1276.71,326.2295,1267.71,330.2295" style="stroke:#333333;stroke-width:1.0;"/><text fill="#000000" font-family="Verdana" font-size="13" lengthAdjust="spacing" textLength="29.5166" x="1264.75" y="254.1193">uses</text></g><!--link AuthServlet to AuthService--><g id="link_AuthServlet_AuthService"><path codeLine="393" d="M495.5,46.6795 C495.5,67.9695 495.5,101.5395 495.5,122.6295 " fill="none" id="AuthServlet-to-AuthService" style="stroke:#333333;stroke-width:1.0;"/><polygon fill="#333333" points="495.5,128.6295,499.5,119.6295,495.5,123.6295,491.5,119.6295,495.5,128.6295" style="stroke:#333333;stroke-width:1.0;"/><text fill="#000000" font-family="Verdana" font-size="13" lengthAdjust="spacing" textLength="29.5166" x="465.5" y="84.7193">uses</text></g><!--link TestServlet to TestService--><g id="link_TestServlet_TestService"><path codeLine="394" d="M1009.25,46.6795 C1009.25,67.9695 1009.25,101.5395 1009.25,122.6295 " fill="none" id="TestServlet-to-TestService" style="stroke:#333333;stroke-width:1.0;"/><polygon fill="#333333" points="1009.25,128.6295,1013.25,119.6295,1009.25,123.6295,1005.25,119.6295,1009.25,128.6295" style="stroke:#333333;stroke-width:1.0;"/><text fill="#000000" font-family="Verdana" font-size="13" lengthAdjust="spacing" textLength="29.5166" x="979.25" y="84.7193">uses</text></g><!--link TestServlet to AnswerDao--><g id="link_TestServlet_AnswerDao"><path codeLine="395" d="M1018.77,25.2295 C1109.02,25.2295 1280.17,25.2295 1280.17,25.2295 C1280.17,25.2295 1280.17,316.2295 1280.17,316.2295 C1280.17,316.2295 1284.03,316.2295 1296.66,316.2295 " fill="none" id="TestServlet-to-AnswerDao" style="stroke:#333333;stroke-width:1.0;"/><polygon fill="#333333" points="1302.66,316.2295,1293.66,312.2295,1297.66,316.2295,1293.66,320.2295,1302.66,316.2295" style="stroke:#333333;stroke-width:1.0;"/><text fill="#000000" font-family="Verdana" font-size="13" lengthAdjust="spacing" textLength="29.5166" x="1250.17" y="48.3393">uses</text></g><!--link TestServlet to ClozeTokenDao--><g id="link_TestServlet_ClozeTokenDao"><path codeLine="396" d="M1018.63,39.2295 C1081.54,39.2295 1176.83,39.2295 1176.83,39.2295 C1176.83,39.2295 1176.83,245.8395 1176.83,303.1495 " fill="none" id="TestServlet-to-ClozeTokenDao" style="stroke:#333333;stroke-width:1.0;"/><polygon fill="#333333" points="1176.83,309.1495,1180.83,300.1495,1176.83,304.1495,1172.83,300.1495,1176.83,309.1495" style="stroke:#333333;stroke-width:1.0;"/><text fill="#000000" font-family="Verdana" font-size="13" lengthAdjust="spacing" textLength="29.5166" x="1146.83" y="92.1593">uses</text></g><!--link TestServlet to UserDao--><g id="link_TestServlet_UserDao"><path codeLine="397" d="M910.29,32.2295 C836.04,32.2295 711.8,32.2295 711.8,32.2295 C711.8,32.2295 711.8,245.0695 711.8,303.1895 " fill="none" id="TestServlet-to-UserDao" style="stroke:#333333;stroke-width:1.0;"/><polygon fill="#333333" points="711.8,309.1895,715.8,300.1895,711.8,304.1895,707.8,300.1895,711.8,309.1895" style="stroke:#333333;stroke-width:1.0;"/><text fill="#000000" font-family="Verdana" font-size="13" lengthAdjust="spacing" textLength="29.5166" x="681.8" y="68.5393">uses</text></g><!--link AdminServlet to AdminService--><g id="link_AdminServlet_AdminService"><path codeLine="398" d="M1407.83,46.6795 C1407.83,67.9695 1407.83,101.5395 1407.83,122.6295 " fill="none" id="AdminServlet-to-AdminService" style="stroke:#333333;stroke-width:1.0;"/><polygon fill="#333333" points="1407.83,128.6295,1411.83,119.6295,1407.83,123.6295,1403.83,119.6295,1407.83,128.6295" style="stroke:#333333;stroke-width:1.0;"/><text fill="#000000" font-family="Verdana" font-size="13" lengthAdjust="spacing" textLength="29.5166" x="1377.83" y="84.7193">uses</text></g><!--link AdminServlet to UserDao--><g id="link_AdminServlet_UserDao"><path codeLine="399" d="M1405.17,46.6395 C1405.17,59.4695 1405.17,76.2295 1405.17,76.2295 C1405.17,76.2295 729.2,76.2295 729.2,76.2295 C729.2,76.2295 729.2,250.1695 729.2,302.8795 " fill="none" id="AdminServlet-to-UserDao" style="stroke:#333333;stroke-width:1.0;"/><polygon fill="#333333" points="729.2,308.8795,733.2,299.8795,729.2,303.8795,725.2,299.8795,729.2,308.8795" style="stroke:#333333;stroke-width:1.0;"/><text fill="#000000" font-family="Verdana" font-size="13" lengthAdjust="spacing" textLength="29.5166" x="935.65" y="73.2993">uses</text></g><!--link AdminServlet to QuestionRepository--><g id="link_AdminServlet_QuestionRepository"><path codeLine="400" d="M1504.62,46.2695 C1504.62,95.4195 1504.62,253.5195 1504.62,302.9895 " fill="none" id="AdminServlet-to-QuestionRepository" style="stroke:#333333;stroke-width:1.0;"/><polygon fill="#333333" points="1504.62,308.9895,1508.62,299.9895,1504.62,303.9895,1500.62,299.9895,1504.62,308.9895" style="stroke:#333333;stroke-width:1.0;"/><text fill="#000000" font-family="Verdana" font-size="13" lengthAdjust="spacing" textLength="29.5166" x="1505.62" y="174.6993">uses</text></g><!--link AdminServlet to AnswerDao--><g id="link_AdminServlet_AnswerDao"><path codeLine="401" d="M1427.75,46.2695 C1427.75,104.3895 1427.75,323.2295 1427.75,323.2295 C1427.75,323.2295 1426.26,323.2295 1416.14,323.2295 " fill="none" id="AdminServlet-to-AnswerDao" style="stroke:#333333;stroke-width:1.0;"/><polygon fill="#333333" points="1410.14,323.2295,1419.14,327.2295,1415.14,323.2295,1419.14,319.2295,1410.14,323.2295" style="stroke:#333333;stroke-width:1.0;"/><text fill="#000000" font-family="Verdana" font-size="13" lengthAdjust="spacing" textLength="29.5166" x="1428.75" y="207.6193">uses</text></g><!--link AdminServlet to ClozeTokenDao--><g id="link_AdminServlet_ClozeTokenDao"><path codeLine="402" d="M1402.29,32.2295 C1330.79,32.2295 1222.17,32.2295 1222.17,32.2295 C1222.17,32.2295 1222.17,245.0695 1222.17,303.1895 " fill="none" id="AdminServlet-to-ClozeTokenDao" style="stroke:#333333;stroke-width:1.0;"/><polygon fill="#333333" points="1222.17,309.1895,1226.17,300.1895,1222.17,304.1895,1218.17,300.1895,1222.17,309.1895" style="stroke:#333333;stroke-width:1.0;"/><text fill="#000000" font-family="Verdana" font-size="13" lengthAdjust="spacing" textLength="29.5166" x="1192.17" y="77.7193">uses</text></g><!--link AdminServlet to AttemptDao--><g id="link_AdminServlet_AttemptDao"><path codeLine="403" d="M1524.72,37.2295 C1580.59,37.2295 1654.5,37.2295 1654.5,37.2295 C1654.5,37.2295 1654.5,245.3395 1654.5,303.0495 " fill="none" id="AdminServlet-to-AttemptDao" style="stroke:#333333;stroke-width:1.0;"/><polygon fill="#333333" points="1654.5,309.0495,1658.5,300.0495,1654.5,304.0495,1650.5,300.0495,1654.5,309.0495" style="stroke:#333333;stroke-width:1.0;"/><text fill="#000000" font-family="Verdana" font-size="13" lengthAdjust="spacing" textLength="29.5166" x="1624.5" y="105.3193">uses</text></g><!--link AdminServlet to QuestionImageDao--><g id="link_AdminServlet_QuestionImageDao"><path codeLine="404" d="M1524.6,28.2295 C1585.18,28.2295 1669,28.2295 1669,28.2295 C1669,28.2295 1669,92.1195 1669,122.6895 " fill="none" id="AdminServlet-to-QuestionImageDao" style="stroke:#333333;stroke-width:1.0;"/><polygon fill="#333333" points="1669,128.6895,1673,119.6895,1669,123.6895,1665,119.6895,1669,128.6895" style="stroke:#333333;stroke-width:1.0;"/><text fill="#000000" font-family="Verdana" font-size="13" lengthAdjust="spacing" textLength="29.5166" x="1617.03" y="25.2993">uses</text></g><!--link ImageServlet to QuestionImageDao--><g id="link_ImageServlet_QuestionImageDao"><path codeLine="405" d="M1740.5,46.6795 C1740.5,67.9695 1740.5,101.5395 1740.5,122.6295 " fill="none" id="ImageServlet-to-QuestionImageDao" style="stroke:#333333;stroke-width:1.0;"/><polygon fill="#333333" points="1740.5,128.6295,1744.5,119.6295,1740.5,123.6295,1736.5,119.6295,1740.5,128.6295" style="stroke:#333333;stroke-width:1.0;"/><text fill="#000000" font-family="Verdana" font-size="13" lengthAdjust="spacing" textLength="29.5166" x="1710.5" y="84.7193">uses</text></g><!--link Question to GMN66--><g id="link_Question_GMN66"><path d="M1182.77,517.2295 C1213.01,517.2295 1247.25,517.2295 1247.25,517.2295 C1247.25,517.2295 1247.25,575.9295 1247.25,616.0595 " fill="none" id="Question-GMN66" style="stroke:#333333;stroke-width:1.0;stroke-dasharray:7.0,7.0;"/></g><!--link Attempt to GMN69--><g id="link_Attempt_GMN69"><path d="M1744.17,512.2295 C1771.07,512.2295 1800.75,512.2295 1800.75,512.2295 C1800.75,512.2295 1800.75,574.5495 1800.75,616.1795 " fill="none" id="Attempt-GMN69" style="stroke:#333333;stroke-width:1.0;stroke-dasharray:7.0,7.0;"/></g><!--link DbConnectionManager to GMN75--><g id="link_DbConnectionManager_GMN75"><path d="M2258.5,46.6795 C2258.5,61.6495 2258.5,85.6695 2258.5,105.9395 " fill="none" id="DbConnectionManager-GMN75" style="stroke:#333333;stroke-width:1.0;stroke-dasharray:7.0,7.0;"/></g><!--link GMN75 to GMN78--><g id="link_GMN75_GMN78"><path d="M2258.5,179.2595 C2258.5,196.5595 2258.5,218.0095 2258.5,239.0195 " fill="none" id="GMN75-GMN78" style="stroke:#333333;stroke-width:1.0;stroke-dasharray:7.0,7.0;"/></g><!--SRC=[nHhPSXitybrVWIWFeMJIZfDzOdbLHLCZYmafCIJblMhB1N904glXW9d1w70gVxAVuZV_s3PkO32ZI79gBLUPPAFlRdGtCFCDtv8TGViCq_oWlARv7XTuXrOPBiktU7MzALYLfqEMiG9zU_Qz-1UXiI8bXKRvKVxLKGP5mMxRCDOivtFwaQ3NhpreHdF2x_S4iO9lcRTGRd7ARcc-GMkSbIGInNb1bnKdenNB9Tll3mwsD2LeHtPBKfG71z-XlpRyeUJYQZ9lN3eWURL3lrIav9Jb2w7LRmS8JORmtt1y-Sy4FizcYVWOJGRlaeFV3mvonWbQCixP3h5rG0neVq5d1Tv80_C-_Eu1ipwQL1cd-uoWuPRH5P5moR-Fnfy_hQv9piaTbs0XhWzC2BKWARgFtj8ixIrnIKd1GV4K2KrQZPvSdYPZ43AOpvCMuwLRqLL92cbrZwPzH7Cfim9WZdUaZ-RWzNmZO6I7QUO3za1-2pboZijj4toEC-x32vO530jI4ZuZlmeF4f2zP820Sx7KW_zUW1j7QUV8AFMYbB_X1u1k64qrpfNMLM1QvWBPBYXeI9K8Qo8I1Mt2dth6HcJ1uaFKmYMjr7AnYNe6Vece9332fkKiyAeWStwLTE6wNZGi8C5LMfYyZb93f7Q_dlQzVS5s-o3QALslwGeI_zwIxXbyAUtF7U7ufvBbFXNTmUwvAe8yMs5EDgouzs5FIH2Xey2gwIpGvP8FhuLDMXK7J86RGdLghGxryk2HVbFfbX1VmoBSYVPPf9DTQD9gfBqQKTc59ggXzdj4PHT2AfixWxoy9SNblZ5_VjNU7ZaGblWBg7T1s5bHa1KFwWBq0qvnzXvd5IHXogfbHfwQ3hzO1K9S3nxH3Ao6aJEyfORTE5H6nDlGBDJsdoaNpan1QWrLvS9RL2jH18OP-qWM31hBO_pF1U8eJycT1P6xFMX7qdfGlbO05bR5aCQ3HpI9PqDSwVt5vfBzXJ60WOL0cMZihO7pESwckZ8wX-xmNGnigAchWi1kJ0SGfSlrMbGQ-BcWEuc_AN0QjDoqAh1myPp049MwKlpKVbl7qx26i5dZ8X_wQw4BTQap7eWetKeJtNDAyD1uKP14VfJxrMA4oo6VTyBXKQufQ6Ex2EDHKxYsw6bTJp9LXA9KmsfrzE3ktz0RaYi6mKwN7XxSOZW4fC_TwWEZG8Zgm7zASNZdB8XzxwqrRdFVp7YV1wij6zsg9fff50E87OVvVY779cydOewX9znpygz_FzMhGySoxitUMcF6WLpPZOpa5wK6AeXdNSl9udHmYKONYsHsDXYs7Ir0PLAiyOh8uyKfPj8jBrInwWYOCt9Dy_JjVJoig_a1Ps_4qed3j1vfHXXaSimPqvAxXPHa10GhEgyHL_lKKyYuoPl9QzCoCEYYk6KBkKqKPKqJSAhpZ4hAkc_ysQdk8vDesWx9sCVtJ8sGZT612cvCgAlXLXwZXCD-iWgw5DJaQsX7Vtex0j-GeEQLAYRA5_x2IIq-AiK2robqcpapieATu_2wg0LvnQgSwpmJUWK66QDdPCzAoc5C3Xnhbfr9EWUz1Iz1snAtRIiOBjv-2VjUODI3s8CyjOE-8UmYkpsR6VYxhsbHSwJ4RGt5yQJPYxAcrfDJLIfFbo11svqYcRNNWt1hi7nDDrQoOAscFIKKNPDxNuHdn4DbSp8T9vFaOZ5OZ2ulMchdTwXpzlbJWJx_LzngqTMMlpejgjKrMfBRgYmvmbMv8QBpm7JVGwTmyADPYKfAjWGTJZESywl9-CFtFtm0aH_6-9uKB_VLBZiyQjLjdipUZuR9OwwB1XNVpabnGrUwrLMgmFTDfRVDpCFiwBKZ0I_81i9ksp4oTqqcdaXUDDbVvZRfI4aG73AseNahUGD1eSfnKABhzAvSz6vmHiMU70ivetnVySS82uU21SWB_6GcB-chk4YuSx14iCr1ZX1-cUw7LTiRynIX_TuMd9N9xBvBSXiqJ-rEh6JNwTKDrUXwWhj6MjS9a94lEHoRX0InyP0xpCZIWZAweysLwH5qDY3cikXFOzGDgfG1Gm5hbp0dcvsuqasbA8cKtE6T1f-qb-2oMe8Afla9dTHXKUddwojfHo1Z0vqEkQc-xA89tfkLBhfS_WUEkIT8fLQf6OK7YoERDR0nWBtQCINBeDLMd8NzGslaYYxCbEUWZEuIRZdgck8ua6N6thAvJGYa6zZ-60Rj1tg5nantD9zphEOiORTQxoBZ6RSVfmNRW56bDDlRbkBYai5HRWkBMvO59vsKj2xTGZzWj-8nH7Y6ZiLqZbhWYXcgAz3LKb1DkWgTawjsr9PLMJfLB0n7i9VFLwmWCn7bsisJ93WbFZwCLEAPXHf_6cZ0qt-pOhsPHpS46OJ_KwLJZSMJ-AGYTUHc2FD4HZsGiOEg-T9j6Axh4zlpM9YHLAaXrMiZzQRgkkmdqFt1QKwq_d6oU4hhXz591Hgx3j_t1mCJgMzJDcLG0Syvtsj2VJ3geW1Mxg4W-1qO-lDSxHPDBB-hnjBQQgrUt3Mnlj-8loJpsiOSiF4TUOQ9p_UDkuABQMsUz9OLpLAJ6EyfkUs4nRPUVGNAISEkjavjSi1NcMceFXBqeqE2fFEAGpyeJbyjOeAmUXxTgJgdF3r9Q2bDRquHxy2ZeYqT64JxOIS_turMv3d1MQsSV17Nbl9sjHYDHuj_FAQydIvXMirXMW9Z9pW7QzM5wfit5QSPvVSdOkxe_GOZ7gUhtz5qTZbDPejHClzmDXed_kMUnH6tV7DM5I8Np-arBkYfXHYJUms2rT1WsUXxEqKdEh37nKqu-YXonSLny27DJvEpmTLuyM6qI6Rg91eCCRs0KwHA3jC29-9XzRbw6kFk7otM5fTRmwLJEohP2RjKBBwSWngDA2Tgh2sRESAKGzVtZ-TfJgFwGP5ujg-qzPv7MkQS2MUeYmbvj-efqPwTisIi_7y-chRa9f0cURKh3uAtL7gzO_U4le_4Ctc1QK45oPGhjdJlI86CeSFZm_01RL_u6dNMh42JuL6Cx3rBz53bwoloHi4yvmfb6gWL6Joew0CsJAYfV6b7t8o4nERI-ENB4_L-Ib-SAvmXtjsQGF4yKH1U5RaLRvWORHm2o3L3QqrnxuAZrpkn5zXQXVfokEiqad_u5qWDUhTWkalX5eJmohQDYxE-1QDcLIJ5tdur80Y7DXod-aZDjE0Z_qZmiFqHQkI02AFH0pgSefSqXrEiIFvU_6gs6HJVrXQKrZ0PX0V3P93ggUNFN5AARteRqXynUOJlMwsAC1hDYlb4wTUgbRtVrOZ19F8GOlqzF7tLTtmillH-bjUZ_UDZ-GATUF4CmR2B2CrDMUySbhnAuS1xs4M7ScWyF9B8FoUZ2rboqLhSmehNh1IJu4cGMjIRd_VaZQBtKbxBIu9IGVEZfgHwWmfrBaR3ymKIB_zzenHorpxI1j7gEg-xw8Sk-b4X1EySGWtlgkBSbUyITlMRYwswwM19rVJtccR28mcQaJKfIFuHVQpa3a6TQ-5EyRMNv1oc3AMD09G8yWYSYzBx7EzekTggkK6-kYYGr2qH4jsJoz3rn4NLzGCk38-NeAftzjHwscY8LYrY_FdJaXHXXVOHTSqMJYs9UDCK15wfWKbxe5sTXfbDgjK0D-g5hBNxvg0df3famrISU8fSEV6YAgHpXEi8cX2-PU95ZjeSA57LM3cS8YSOJM52QTPTAgbIBFdxQ0xJwoovE4sGKYetkie0lv8VOi-zGZ-bovN-9H5C4kkjgjmQzWG3FgCP62RY1RkDhZ2K80aViuqOiJk4YjpG6YYRLFjnVksXz-fA7bYxC2PtAo97c7ESfvb65FiLTSJ-FN8U-1y0]--></g></svg>