<svg xmlns="http://www.w3.org/2000/svg" xmlns:xlink="http://www.w3.org/1999/xlink" contentStyleType="text/css" height="516px" preserveAspectRatio="none" style="width:1949px;height:516px;background:#FFFFFF;" version="1.1" viewBox="0 0 1949 516" width="1949px" zoomAndPan="magnify"><title>Wissenstest - Klassendiagramm Teil 3: Service Layer</title><defs/><g><text fill="#000000" font-family="Verdana" font-size="22" font-weight="bold" lengthAdjust="spacing" textLength="654.1563" x="643.0964" y="37.1182">Wissenstest - Klassendiagramm Teil 3: Service Layer</text><!--class AuthService--><g id="elem_AuthService"><rect codeLine="11" fill="#F8F4E8" height="28" id="AuthService" rx="2.5" ry="2.5" style="stroke:#CC6600;stroke-width:1.0;" width="112.4512" x="78" y="105.2373"/><ellipse cx="91" cy="119.2373" fill="#FFFFFF" rx="9" ry="9" style="stroke:#000000;stroke-width:1.0;"/><path d="M93.7656,115.1123 Q93.9219,114.8936 94.1094,114.7842 Q94.2969,114.6748 94.5156,114.6748 Q94.8906,114.6748 95.125,114.9326 Q95.3594,115.1904 95.3594,115.7998 L95.3594,117.2529 Q95.3594,117.8623 95.125,118.1279 Q94.8906,118.3936 94.5156,118.3936 Q94.1719,118.3936 93.9688,118.1904 Q93.7656,118.0029 93.6563,117.4873 Q93.6094,117.1279 93.4219,116.9404 Q93.0938,116.5654 92.4844,116.3467 Q91.875,116.1279 91.25,116.1279 Q90.4844,116.1279 89.8516,116.4561 Q89.2188,116.7842 88.7266,117.5342 Q88.2344,118.2842 88.2344,119.3154 L88.2344,120.4092 Q88.2344,121.6436 89.125,122.4639 Q90.0156,123.2842 91.6094,123.2842 Q92.5469,123.2842 93.2031,123.0342 Q93.5938,122.8779 94.0156,122.4404 Q94.2813,122.1748 94.4297,122.0967 Q94.5781,122.0186 94.7813,122.0186 Q95.1094,122.0186 95.3672,122.2764 Q95.625,122.5342 95.625,122.8779 Q95.625,123.2217 95.2813,123.6279 Q94.7813,124.2061 93.9844,124.5342 Q92.9063,124.9873 91.6094,124.9873 Q90.0938,124.9873 88.8906,124.3623 Q87.9063,123.8623 87.2188,122.792 Q86.5313,121.7217 86.5313,120.4404 L86.5313,119.2842 Q86.5313,117.9561 87.1484,116.8076 Q87.7656,115.6592 88.8594,115.042 Q89.9531,114.4248 91.1875,114.4248 Q91.9219,114.4248 92.5703,114.5889 Q93.2188,114.7529 93.7656,115.1123 Z " fill="#000000"/><text fill="#000000" font-family="Verdana" font-size="14" lengthAdjust="spacing" textLength="84.4512" x="103" y="124.8052">AuthService</text></g><!--class TestService--><g id="elem_TestService"><rect codeLine="20" fill="#F8F4E8" height="28" id="TestService" rx="2.5" ry="2.5" style="stroke:#CC6600;stroke-width:1.0;" width="109.4229" x="830.5" y="105.2373"/><ellipse cx="843.5" cy="119.2373" fill="#FFFFFF" rx="9" ry="9" style="stroke:#000000;stroke-width:1.0;"/><path d="M846.2656,115.1123 Q846.4219,114.8936 846.6094,114.7842 Q846.7969,114.6748 847.0156,114.6748 Q847.3906,114.6748 847.625,114.9326 Q847.8594,115.1904 847.8594,115.7998 L847.8594,117.2529 Q847.8594,117.8623 847.625,118.1279 Q847.3906,118.3936 847.0156,118.3936 Q846.6719,118.3936 846.4688,118.1904 Q846.2656,118.0029 846.1563,117.4873 Q846.1094,117.1279 845.9219,116.9404 Q845.5938,116.5654 844.9844,116.3467 Q844.375,116.1279 843.75,116.1279 Q842.9844,116.1279 842.3516,116.4561 Q841.7188,116.7842 841.2266,117.5342 Q840.7344,118.2842 840.7344,119.3154 L840.7344,120.4092 Q840.7344,121.6436 841.625,122.4639 Q842.5156,123.2842 844.1094,123.2842 Q845.0469,123.2842 845.7031,123.0342 Q846.0938,122.8779 846.5156,122.4404 Q846.7813,122.1748 846.9297,122.0967 Q847.0781,122.0186 847.2813,122.0186 Q847.6094,122.0186 847.8672,122.2764 Q848.125,122.5342 848.125,122.8779 Q848.125,123.2217 847.7813,123.6279 Q847.2813,124.2061 846.4844,124.5342 Q845.4063,124.9873 844.1094,124.9873 Q842.5938,124.9873 841.3906,124.3623 Q840.4063,123.8623 839.7188,122.792 Q839.0313,121.7217 839.0313,120.4404 L839.0313,119.2842 Q839.0313,117.9561 839.6484,116.8076 Q840.2656,115.6592 841.3594,115.042 Q842.4531,114.4248 843.6875,114.4248 Q844.4219,114.4248 845.0703,114.5889 Q845.7188,114.7529 846.2656,115.1123 Z " fill="#000000"/><text fill="#000000" font-family="Verdana" font-size="14" lengthAdjust="spacing" textLength="81.4229" x="855.5" y="124.8052">TestService</text></g><!--class ProgressionService--><g id="elem_ProgressionService"><rect codeLine="48" fill="#F8F4E8" height="28" id="ProgressionService" rx="2.5" ry="2.5" style="stroke:#CC6600;stroke-width:1.0;" width="161.3828" x="1393.5" y="278.2373"/><ellipse cx="1406.5" cy="292.2373" fill="#FFFFFF" rx="9" ry="9" style="stroke:#000000;stroke-width:1.0;"/><path d="M1409.2656,288.1123 Q1409.4219,287.8936 1409.6094,287.7842 Q1409.7969,287.6748 1410.0156,287.6748 Q1410.3906,287.6748 1410.625,287.9326 Q1410.8594,288.1904 1410.8594,288.7998 L1410.8594,290.2529 Q1410.8594,290.8623 1410.625,291.1279 Q1410.3906,291.3936 1410.0156,291.3936 Q1409.6719,291.3936 1409.4688,291.1904 Q1409.2656,291.0029 1409.1563,290.4873 Q1409.1094,290.1279 1408.9219,289.9404 Q1408.5938,289.5654 1407.9844,289.3467 Q1407.375,289.1279 1406.75,289.1279 Q1405.9844,289.1279 1405.3516,289.4561 Q1404.7188,289.7842 1404.2266,290.5342 Q1403.7344,291.2842 1403.7344,292.3154 L1403.7344,293.4092 Q1403.7344,294.6436 1404.625,295.4639 Q1405.5156,296.2842 1407.1094,296.2842 Q1408.0469,296.2842 1408.7031,296.0342 Q1409.0938,295.8779 1409.5156,295.4404 Q1409.7813,295.1748 1409.9297,295.0967 Q1410.0781,295.0186 1410.2813,295.0186 Q1410.6094,295.0186 1410.8672,295.2764 Q1411.125,295.5342 1411.125,295.8779 Q1411.125,296.2217 1410.7813,296.6279 Q1410.2813,297.2061 1409.4844,297.5342 Q1408.4063,297.9873 1407.1094,297.9873 Q1405.5938,297.9873 1404.3906,297.3623 Q1403.4063,296.8623 1402.7188,295.792 Q1402.0313,294.7217 1402.0313,293.4404 L1402.0313,292.2842 Q1402.0313,290.9561 1402.6484,289.8076 Q1403.2656,288.6592 1404.3594,288.042 Q1405.4531,287.4248 1406.6875,287.4248 Q1407.4219,287.4248 1408.0703,287.5889 Q1408.7188,287.7529 1409.2656,288.1123 Z " fill="#000000"/><text fill="#000000" font-family="Verdana" font-size="14" lengthAdjust="spacing" textLength="133.3828" x="1418.5" y="297.8052">ProgressionService</text></g><!--class AdminService--><g id="elem_AdminService"><rect codeLine="60" fill="#F8F4E8" height="28" id="AdminService" rx="2.5" ry="2.5" style="stroke:#CC6600;stroke-width:1.0;" width="124.2568" x="513" y="105.2373"/><ellipse cx="526" cy="119.2373" fill="#FFFFFF" rx="9" ry="9" style="stroke:#000000;stroke-width:1.0;"/><path d="M528.7656,115.1123 Q528.9219,114.8936 529.1094,114.7842 Q529.2969,114.6748 529.5156,114.6748 Q529.8906,114.6748 530.125,114.9326 Q530.3594,115.1904 530.3594,115.7998 L530.3594,117.2529 Q530.3594,117.8623 530.125,118.1279 Q529.8906,118.3936 529.5156,118.3936 Q529.1719,118.3936 528.9688,118.1904 Q528.7656,118.0029 528.6563,117.4873 Q528.6094,117.1279 528.4219,116.9404 Q528.0938,116.5654 527.4844,116.3467 Q526.875,116.1279 526.25,116.1279 Q525.4844,116.1279 524.8516,116.4561 Q524.2188,116.7842 523.7266,117.5342 Q523.2344,118.2842 523.2344,119.3154 L523.2344,120.4092 Q523.2344,121.6436 524.125,122.4639 Q525.0156,123.2842 526.6094,123.2842 Q527.5469,123.2842 528.2031,123.0342 Q528.5938,122.8779 529.0156,122.4404 Q529.2813,122.1748 529.4297,122.0967 Q529.5781,122.0186 529.7813,122.0186 Q530.1094,122.0186 530.3672,122.2764 Q530.625,122.5342 530.625,122.8779 Q530.625,123.2217 530.2813,123.6279 Q529.7813,124.2061 528.9844,124.5342 Q527.9063,124.9873 526.6094,124.9873 Q525.0938,124.9873 523.8906,124.3623 Q522.9063,123.8623 522.2188,122.792 Q521.5313,121.7217 521.5313,120.4404 L521.5313,119.2842 Q521.5313,117.9561 522.1484,116.8076 Q522.7656,115.6592 523.8594,115.042 Q524.9531,114.4248 526.1875,114.4248 Q526.9219,114.4248 527.5703,114.5889 Q528.2188,114.7529 528.7656,115.1123 Z " fill="#000000"/><text fill="#000000" font-family="Verdana" font-size="14" lengthAdjust="spacing" textLength="96.2568" x="538" y="124.8052">AdminService</text></g><!--class PasswordUtils--><g id="elem_PasswordUtils"><rect codeLine="72" fill="#F8F4E8" height="41.5986" id="PasswordUtils" rx="2.5" ry="2.5" style="stroke:#CC6600;stroke-width:1.0;" width="124.8311" x="38.5" y="271.2373"/><ellipse cx="51.5" cy="292.0366" fill="#FFFFFF" rx="9" ry="9" style="stroke:#000000;stroke-width:1.0;"/><path d="M54.2656,287.9116 Q54.4219,287.6929 54.6094,287.5835 Q54.7969,287.4741 55.0156,287.4741 Q55.3906,287.4741 55.625,287.7319 Q55.8594,287.9897 55.8594,288.5991 L55.8594,290.0522 Q55.8594,290.6616 55.625,290.9272 Q55.3906,291.1929 55.0156,291.1929 Q54.6719,291.1929 54.4688,290.9897 Q54.2656,290.8022 54.1563,290.2866 Q54.1094,289.9272 53.9219,289.7397 Q53.5938,289.3647 52.9844,289.146 Q52.375,288.9272 51.75,288.9272 Q50.9844,288.9272 50.3516,289.2554 Q49.7188,289.5835 49.2266,290.3335 Q48.7344,291.0835 48.7344,292.1147 L48.7344,293.2085 Q48.7344,294.4429 49.625,295.2632 Q50.5156,296.0835 52.1094,296.0835 Q53.0469,296.0835 53.7031,295.8335 Q54.0938,295.6772 54.5156,295.2397 Q54.7813,294.9741 54.9297,294.896 Q55.0781,294.8179 55.2813,294.8179 Q55.6094,294.8179 55.8672,295.0757 Q56.125,295.3335 56.125,295.6772 Q56.125,296.021 55.7813,296.4272 Q55.2813,297.0054 54.4844,297.3335 Q53.4063,297.7866 52.1094,297.7866 Q50.5938,297.7866 49.3906,297.1616 Q48.4063,296.6616 47.7188,295.5913 Q47.0313,294.521 47.0313,293.2397 L47.0313,292.0835 Q47.0313,290.7554 47.6484,289.6069 Q48.2656,288.4585 49.3594,287.8413 Q50.4531,287.2241 51.6875,287.2241 Q52.4219,287.2241 53.0703,287.3882 Q53.7188,287.5522 54.2656,287.9116 Z " fill="#000000"/><text fill="#000000" font-family="Verdana" font-size="12" font-style="italic" lengthAdjust="spacing" textLength="49.4883" x="87.1714" y="288.3018">&#171;utility&#187;</text><text fill="#000000" font-family="Verdana" font-size="14" lengthAdjust="spacing" textLength="96.8311" x="63.5" y="304.8965">PasswordUtils</text></g><!--class UserDao--><g id="elem_UserDao"><rect codeLine="82" fill="#F8F4E8" height="41.5986" id="UserDao" rx="2.5" ry="2.5" style="stroke:#CC6600;stroke-width:1.0;" width="87.4795" x="198.5" y="271.2373"/><ellipse cx="211.5" cy="292.0366" fill="#FFFFFF" rx="9" ry="9" style="stroke:#000000;stroke-width:1.0;"/><path d="M212.4531,288.6772 L212.4531,295.3335 L214.1719,295.3335 Q214.7813,295.3335 215.0469,295.5679 Q215.3125,295.8022 215.3125,296.1929 Q215.3125,296.5679 215.0469,296.8022 Q214.7813,297.0366 214.1719,297.0366 L209.0313,297.0366 Q208.4219,297.0366 208.1563,296.8022 Q207.8906,296.5679 207.8906,296.1772 Q207.8906,295.8022 208.1563,295.5679 Q208.4219,295.3335 209.0313,295.3335 L210.75,295.3335 L210.75,288.6772 L209.0313,288.6772 Q208.4219,288.6772 208.1563,288.4429 Q207.8906,288.2085 207.8906,287.8179 Q207.8906,287.4429 208.1563,287.2085 Q208.4219,286.9741 209.0313,286.9741 L214.1719,286.9741 Q214.7813,286.9741 215.0469,287.2085 Q215.3125,287.4429 215.3125,287.8179 Q215.3125,288.2085 215.0469,288.4429 Q214.7813,288.6772 214.1719,288.6772 L212.4531,288.6772 Z " fill="#000000"/><text fill="#000000" font-family="Verdana" font-size="12" font-style="italic" lengthAdjust="spacing" textLength="42.293" x="232.0933" y="288.3018">&#171;DAO&#187;</text><text fill="#000000" font-family="Verdana" font-size="14" font-style="italic" lengthAdjust="spacing" textLength="59.4795" x="223.5" y="304.8965">UserDao</text></g><!--class QuestionRepository--><g id="elem_QuestionRepository"><rect codeLine="83" fill="#F8F4E8" height="41.5986" id="QuestionRepository" rx="2.5" ry="2.5" style="stroke:#CC6600;stroke-width:1.0;" width="164.917" x="492.5" y="271.2373"/><ellipse cx="505.5" cy="292.0366" fill="#FFFFFF" rx="9" ry="9" style="stroke:#000000;stroke-width:1.0;"/><path d="M506.4531,288.6772 L506.4531,295.3335 L508.1719,295.3335 Q508.7813,295.3335 509.0469,295.5679 Q509.3125,295.8022 509.3125,296.1929 Q509.3125,296.5679 509.0469,296.8022 Q508.7813,297.0366 508.1719,297.0366 L503.0313,297.0366 Q502.4219,297.0366 502.1563,296.8022 Q501.8906,296.5679 501.8906,296.1772 Q501.8906,295.8022 502.1563,295.5679 Q502.4219,295.3335 503.0313,295.3335 L504.75,295.3335 L504.75,288.6772 L503.0313,288.6772 Q502.4219,288.6772 502.1563,288.4429 Q501.8906,288.2085 501.8906,287.8179 Q501.8906,287.4429 502.1563,287.2085 Q502.4219,286.9741 503.0313,286.9741 L508.1719,286.9741 Q508.7813,286.9741 509.0469,287.2085 Q509.3125,287.4429 509.3125,287.8179 Q509.3125,288.2085 509.0469,288.4429 Q508.7813,288.6772 508.1719,288.6772 L506.4531,288.6772 Z " fill="#000000"/><text fill="#000000" font-family="Verdana" font-size="12" font-style="italic" lengthAdjust="spacing" textLength="42.293" x="564.812" y="288.3018">&#171;DAO&#187;</text><text fill="#000000" font-family="Verdana" font-size="14" font-style="italic" lengthAdjust="spacing" textLength="136.917" x="517.5" y="304.8965">QuestionRepository</text></g><!--class AnswerDao--><g id="elem_AnswerDao"><rect codeLine="84" fill="#F8F4E8" height="41.5986" id="AnswerDao" rx="2.5" ry="2.5" style="stroke:#CC6600;stroke-width:1.0;" width="107.1055" x="692.5" y="271.2373"/><ellipse cx="705.5" cy="292.0366" fill="#FFFFFF" rx="9" ry="9" style="stroke:#000000;stroke-width:1.0;"/><path d="M706.4531,288.6772 L706.4531,295.3335 L708.1719,295.3335 Q708.7813,295.3335 709.0469,295.5679 Q709.3125,295.8022 709.3125,296.1929 Q709.3125,296.5679 709.0469,296.8022 Q708.7813,297.0366 708.1719,297.0366 L703.0313,297.0366 Q702.4219,297.0366 702.1563,296.8022 Q701.8906,296.5679 701.8906,296.1772 Q701.8906,295.8022 702.1563,295.5679 Q702.4219,295.3335 703.0313,295.3335 L704.75,295.3335 L704.75,288.6772 L703.0313,288.6772 Q702.4219,288.6772 702.1563,288.4429 Q701.8906,288.2085 701.8906,287.8179 Q701.8906,287.4429 702.1563,287.2085 Q702.4219,286.9741 703.0313,286.9741 L708.1719,286.9741 Q708.7813,286.9741 709.0469,287.2085 Q709.3125,287.4429 709.3125,287.8179 Q709.3125,288.2085 709.0469,288.4429 Q708.7813,288.6772 708.1719,288.6772 L706.4531,288.6772 Z " fill="#000000"/><text fill="#000000" font-family="Verdana" font-size="12" font-style="italic" lengthAdjust="spacing" textLength="42.293" x="735.9063" y="288.3018">&#171;DAO&#187;</text><text fill="#000000" font-family="Verdana" font-size="14" font-style="italic" lengthAdjust="spacing" textLength="79.1055" x="717.5" y="304.8965">AnswerDao</text></g><!--class ClozeTokenDao--><g id="elem_ClozeTokenDao"><rect codeLine="85" fill="#F8F4E8" height="41.5986" id="ClozeTokenDao" rx="2.5" ry="2.5" style="stroke:#CC6600;stroke-width:1.0;" width="135.9736" x="321" y="271.2373"/><ellipse cx="334" cy="292.0366" fill="#FFFFFF" rx="9" ry="9" style="stroke:#000000;stroke-width:1.0;"/><path d="M334.9531,288.6772 L334.9531,295.3335 L336.6719,295.3335 Q337.2813,295.3335 337.5469,295.5679 Q337.8125,295.8022 337.8125,296.1929 Q337.8125,296.5679 337.5469,296.8022 Q337.2813,297.0366 336.6719,297.0366 L331.5313,297.0366 Q330.9219,297.0366 330.6563,296.8022 Q330.3906,296.5679 330.3906,296.1772 Q330.3906,295.8022 330.6563,295.5679 Q330.9219,295.3335 331.5313,295.3335 L333.25,295.3335 L333.25,288.6772 L331.5313,288.6772 Q330.9219,288.6772 330.6563,288.4429 Q330.3906,288.2085 330.3906,287.8179 Q330.3906,287.4429 330.6563,287.2085 Q330.9219,286.9741 331.5313,286.9741 L336.6719,286.9741 Q337.2813,286.9741 337.5469,287.2085 Q337.8125,287.4429 337.8125,287.8179 Q337.8125,288.2085 337.5469,288.4429 Q337.2813,288.6772 336.6719,288.6772 L334.9531,288.6772 Z " fill="#000000"/><text fill="#000000" font-family="Verdana" font-size="12" font-style="italic" lengthAdjust="spacing" textLength="42.293" x="378.8403" y="288.3018">&#171;DAO&#187;</text><text fill="#000000" font-family="Verdana" font-size="14" font-style="italic" lengthAdjust="spacing" textLength="107.9736" x="346" y="304.8965">ClozeTokenDao</text></g><!--class AttemptDao--><g id="elem_AttemptDao"><rect codeLine="86" fill="#F8F4E8" height="41.5986" id="AttemptDao" rx="2.5" ry="2.5" style="stroke:#CC6600;stroke-width:1.0;" width="112.417" x="970" y="271.2373"/><ellipse cx="983" cy="292.0366" fill="#FFFFFF" rx="9" ry="9" style="stroke:#000000;stroke-width:1.0;"/><path d="M983.9531,288.6772 L983.9531,295.3335 L985.6719,295.3335 Q986.2813,295.3335 986.5469,295.5679 Q986.8125,295.8022 986.8125,296.1929 Q986.8125,296.5679 986.5469,296.8022 Q986.2813,297.0366 985.6719,297.0366 L980.5313,297.0366 Q979.9219,297.0366 979.6563,296.8022 Q979.3906,296.5679 979.3906,296.1772 Q979.3906,295.8022 979.6563,295.5679 Q979.9219,295.3335 980.5313,295.3335 L982.25,295.3335 L982.25,288.6772 L980.5313,288.6772 Q979.9219,288.6772 979.6563,288.4429 Q979.3906,288.2085 979.3906,287.8179 Q979.3906,287.4429 979.6563,287.2085 Q979.9219,286.9741 980.5313,286.9741 L985.6719,286.9741 Q986.2813,286.9741 986.5469,287.2085 Q986.8125,287.4429 986.8125,287.8179 Q986.8125,288.2085 986.5469,288.4429 Q986.2813,288.6772 985.6719,288.6772 L983.9531,288.6772 Z " fill="#000000"/><text fill="#000000" font-family="Verdana" font-size="12" font-style="italic" lengthAdjust="spacing" textLength="42.293" x="1016.062" y="288.3018">&#171;DAO&#187;</text><text fill="#000000" font-family="Verdana" font-size="14" font-style="italic" lengthAdjust="spacing" textLength="84.417" x="995" y="304.8965">AttemptDao</text></g><!--class ConfigDao--><g id="elem_ConfigDao"><rect codeLine="87" fill="#F8F4E8" height="41.5986" id="ConfigDao" rx="2.5" ry="2.5" style="stroke:#CC6600;stroke-width:1.0;" width="100.2217" x="835" y="271.2373"/><ellipse cx="848" cy="292.0366" fill="#FFFFFF" rx="9" ry="9" style="stroke:#000000;stroke-width:1.0;"/><path d="M848.9531,288.6772 L848.9531,295.3335 L850.6719,295.3335 Q851.2813,295.3335 851.5469,295.5679 Q851.8125,295.8022 851.8125,296.1929 Q851.8125,296.5679 851.5469,296.8022 Q851.2813,297.0366 850.6719,297.0366 L845.5313,297.0366 Q844.9219,297.0366 844.6563,296.8022 Q844.3906,296.5679 844.3906,296.1772 Q844.3906,295.8022 844.6563,295.5679 Q844.9219,295.3335 845.5313,295.3335 L847.25,295.3335 L847.25,288.6772 L845.5313,288.6772 Q844.9219,288.6772 844.6563,288.4429 Q844.3906,288.2085 844.3906,287.8179 Q844.3906,287.4429 844.6563,287.2085 Q844.9219,286.9741 845.5313,286.9741 L850.6719,286.9741 Q851.2813,286.9741 851.5469,287.2085 Q851.8125,287.4429 851.8125,287.8179 Q851.8125,288.2085 851.5469,288.4429 Q851.2813,288.6772 850.6719,288.6772 L848.9531,288.6772 Z " fill="#000000"/><text fill="#000000" font-family="Verdana" font-size="12" font-style="italic" lengthAdjust="spacing" textLength="42.293" x="874.9644" y="288.3018">&#171;DAO&#187;</text><text fill="#000000" font-family="Verdana" font-size="14" font-style="italic" lengthAdjust="spacing" textLength="72.2217" x="860" y="304.8965">ConfigDao</text></g><g id="elem_GMN13"><path d="M11,404.7373 L11,509.5332 A0,0 0 0 0 11,509.5332 L472.6733,509.5332 A0,0 0 0 0 472.6733,509.5332 L472.6733,414.7373 L462.6733,404.7373 L246,404.7373 L242,313.4673 L238,404.7373 L11,404.7373 A0,0 0 0 0 11,404.7373 " fill="#FFFFFF" style="stroke:#000000;stroke-width:1.0;"/><path d="M462.6733,404.7373 L462.6733,414.7373 L472.6733,414.7373 L462.6733,404.7373 " fill="#FFFFFF" style="stroke:#000000;stroke-width:1.0;"/><text fill="#000000" font-family="Verdana" font-size="13" font-weight="bold" lengthAdjust="spacing" textLength="166.6196" x="17" y="422.8071">Hinweis (Darstellung):</text><text fill="#000000" font-family="Verdana" font-size="13" lengthAdjust="spacing" textLength="435.3604" x="17" y="438.6064">Die DAO-Interfaces sind hier bewusst nur als Referenz dargestellt,</text><text fill="#000000" font-family="Verdana" font-size="13" lengthAdjust="spacing" textLength="413.4927" x="17" y="454.4058">damit das Diagramm den Fokus auf die Service-Schicht beh&#228;lt.</text><text fill="#000000" font-family="Verdana" font-size="13" lengthAdjust="spacing" textLength="4.5703" x="17" y="470.2051">&#160;</text><text fill="#000000" font-family="Verdana" font-size="13" lengthAdjust="spacing" textLength="440.6733" x="17" y="486.0044">Die vollst&#228;ndigen DAO-Methoden stehen im DAO-Layer-Diagramm:</text><text fill="#000000" font-family="Verdana" font-size="13" lengthAdjust="spacing" textLength="214.5" x="17" y="501.8037">- PlantUML_02_DAO_Layer.puml</text></g><g id="elem_GMN27"><path d="M225,58.7373 L225,110.7373 L190.26,114.7373 L225,118.7373 L225,179.3325 A0,0 0 0 0 225,179.3325 L445.4624,179.3325 A0,0 0 0 0 445.4624,179.3325 L445.4624,68.7373 L435.4624,58.7373 L225,58.7373 A0,0 0 0 0 225,58.7373 " fill="#FFFFFF" style="stroke:#000000;stroke-width:1.0;"/><path d="M435.4624,58.7373 L435.4624,68.7373 L445.4624,68.7373 L435.4624,58.7373 " fill="#FFFFFF" style="stroke:#000000;stroke-width:1.0;"/><text fill="#000000" font-family="Verdana" font-size="13" font-weight="bold" lengthAdjust="spacing" textLength="127.6387" x="231" y="76.8071">Authentifizierung</text><text fill="#000000" font-family="Verdana" font-size="13" lengthAdjust="spacing" textLength="191.2485" x="231" y="92.6064">- Login mit SHA-256 Hashing</text><text fill="#000000" font-family="Verdana" font-size="13" lengthAdjust="spacing" textLength="153.6387" x="231" y="108.4058">- Registrierung mit Salt</text><text fill="#000000" font-family="Verdana" font-size="13" lengthAdjust="spacing" textLength="176.5156" x="231" y="124.2051">- Password Reset Anfragen</text><text fill="#000000" font-family="Verdana" font-size="13" lengthAdjust="spacing" textLength="4.5703" x="231" y="140.0044">&#160;</text><text fill="#000000" font-family="Verdana" font-size="13" font-weight="bold" lengthAdjust="spacing" textLength="199.4624" x="231" y="155.8037">Keine Email-Funktionalit&#228;t!</text><text fill="#000000" font-family="Verdana" font-size="13" lengthAdjust="spacing" textLength="170.9741" x="231" y="171.603">Reset erfolgt durch Admin</text></g><g id="elem_GMN30"><path d="M1589.5,239.7373 L1589.5,288.7373 L1554.56,292.7373 L1589.5,296.7373 L1589.5,344.5332 A0,0 0 0 0 1589.5,344.5332 L1942.3491,344.5332 A0,0 0 0 0 1942.3491,344.5332 L1942.3491,249.7373 L1932.3491,239.7373 L1589.5,239.7373 A0,0 0 0 0 1589.5,239.7373 " fill="#FFFFFF" style="stroke:#000000;stroke-width:1.0;"/><path d="M1932.3491,239.7373 L1932.3491,249.7373 L1942.3491,249.7373 L1932.3491,239.7373 " fill="#FFFFFF" style="stroke:#000000;stroke-width:1.0;"/><text fill="#000000" font-family="Verdana" font-size="13" font-weight="bold" lengthAdjust="spacing" textLength="185.0977" x="1595.5" y="257.8071">Einfache Threshold-Logik</text><text fill="#000000" font-family="Verdana" font-size="13" lengthAdjust="spacing" textLength="216.3916" x="1595.5" y="273.6064">- promoteThreshold: 0.70 (70%)</text><text fill="#000000" font-family="Verdana" font-size="13" lengthAdjust="spacing" textLength="210.6978" x="1595.5" y="289.4058">- demoteThreshold: 0.40 (40%)</text><text fill="#000000" font-family="Verdana" font-size="13" lengthAdjust="spacing" textLength="211.0977" x="1595.5" y="305.2051">- windowSize: 3 (letzte N Tests)</text><text fill="#000000" font-family="Verdana" font-size="13" lengthAdjust="spacing" textLength="4.5703" x="1595.5" y="321.0044">&#160;</text><text fill="#000000" font-family="Verdana" font-size="13" lengthAdjust="spacing" textLength="331.8491" x="1595.5" y="336.8037">Wird in TestService.resolveAutoDifficulty() genutzt</text></g><g id="elem_GMN33"><path d="M1117.5,247.7373 L1117.5,336.7339 L1358.2114,336.7339 L1358.2114,257.7373 L1348.2114,247.7373 L1117.5,247.7373 " fill="#FFFFFF" style="stroke:#000000;stroke-width:1.0;"/><path d="M1348.2114,247.7373 L1348.2114,257.7373 L1358.2114,257.7373 L1348.2114,247.7373 " fill="#FFFFFF" style="stroke:#000000;stroke-width:1.0;"/><text fill="#000000" font-family="Verdana" font-size="13" font-weight="bold" lengthAdjust="spacing" textLength="142.3081" x="1123.5" y="265.8071">Zentrale Test-Logik</text><text fill="#000000" font-family="Verdana" font-size="13" lengthAdjust="spacing" textLength="219.521" x="1123.5" y="281.6064">- Keine Test-Entity! Tests werden</text><text fill="#000000" font-family="Verdana" font-size="13" lengthAdjust="spacing" textLength="210.5708" x="1132.6406" y="297.4058">dynamisch aus Fragen generiert</text><text fill="#000000" font-family="Verdana" font-size="13" lengthAdjust="spacing" textLength="166.1689" x="1123.5" y="313.2051">- Scoring mit Teilpunkten</text><text fill="#000000" font-family="Verdana" font-size="13" lengthAdjust="spacing" textLength="194.8223" x="1123.5" y="329.0044">- Auto-Modus mit Progression</text></g><!--link AuthService to UserDao--><g id="link_AuthService_UserDao"><path codeLine="100" d="M190.09,124.7373 C202.35,124.7373 211.75,124.7373 211.75,124.7373 C211.75,124.7373 211.75,219.9473 211.75,265.0273 " fill="none" id="AuthService-to-UserDao" style="stroke:#CC6600;stroke-width:1.0;"/><polygon fill="#CC6600" points="211.75,271.0273,215.75,262.0273,211.75,266.0273,207.75,262.0273,211.75,271.0273" style="stroke:#CC6600;stroke-width:1.0;"/><text fill="#000000" font-family="Verdana" font-size="13" lengthAdjust="spacing" textLength="29.5166" x="181.75" y="184.1171">uses</text></g><!--link AuthService to PasswordUtils--><g id="link_AuthService_PasswordUtils"><path codeLine="101" d="M120.75,133.3973 C120.75,163.7373 120.75,229.1773 120.75,264.9873 " fill="none" id="AuthService-to-PasswordUtils" style="stroke:#CC6600;stroke-width:1.0;"/><polygon fill="#CC6600" points="120.75,270.9873,124.75,261.9873,120.75,265.9873,116.75,261.9873,120.75,270.9873" style="stroke:#CC6600;stroke-width:1.0;"/><text fill="#000000" font-family="Verdana" font-size="13" lengthAdjust="spacing" textLength="29.5166" x="90.75" y="199.2671">uses</text></g><!--link TestService to QuestionRepository--><g id="link_TestService_QuestionRepository"><path codeLine="103" d="M830.46,112.7373 C760.26,112.7373 647.25,112.7373 647.25,112.7373 C647.25,112.7373 647.25,217.3973 647.25,264.9373 " fill="none" id="TestService-to-QuestionRepository" style="stroke:#CC6600;stroke-width:1.0;"/><polygon fill="#CC6600" points="647.25,270.9373,651.25,261.9373,647.25,265.9373,643.25,261.9373,647.25,270.9373" style="stroke:#CC6600;stroke-width:1.0;"/><text fill="#000000" font-family="Verdana" font-size="13" lengthAdjust="spacing" textLength="29.5166" x="660.75" y="109.8071">uses</text></g><!--link TestService to AnswerDao--><g id="link_TestService_AnswerDao"><path codeLine="104" d="M830.44,126.7373 C798.28,126.7373 763.83,126.7373 763.83,126.7373 C763.83,126.7373 763.83,220.2373 763.83,264.9373 " fill="none" id="TestService-to-AnswerDao" style="stroke:#CC6600;stroke-width:1.0;"/><polygon fill="#CC6600" points="763.83,270.9373,767.83,261.9373,763.83,265.9373,759.83,261.9373,763.83,270.9373" style="stroke:#CC6600;stroke-width:1.0;"/><text fill="#000000" font-family="Verdana" font-size="13" lengthAdjust="spacing" textLength="29.5166" x="733.83" y="162.6071">uses</text></g><!--link TestService to ClozeTokenDao--><g id="link_TestService_ClozeTokenDao"><path codeLine="105" d="M860,133.3273 C860,168.2073 860,255.7373 860,255.7373 C860,255.7373 453,255.7373 453,255.7373 C453,255.7373 453,256.9773 453,265.0073 " fill="none" id="TestService-to-ClozeTokenDao" style="stroke:#CC6600;stroke-width:1.0;"/><polygon fill="#CC6600" points="453,271.0073,457,262.0073,453,266.0073,449,262.0073,453,271.0073" style="stroke:#CC6600;stroke-width:1.0;"/><text fill="#000000" font-family="Verdana" font-size="13" lengthAdjust="spacing" textLength="29.5166" x="680.07" y="252.8071">uses</text></g><!--link TestService to AttemptDao--><g id="link_TestService_AttemptDao"><path codeLine="106" d="M939.51,124.7373 C979.19,124.7373 1026,124.7373 1026,124.7373 C1026,124.7373 1026,219.9473 1026,265.0273 " fill="none" id="TestService-to-AttemptDao" style="stroke:#CC6600;stroke-width:1.0;"/><polygon fill="#CC6600" points="1026,271.0273,1030,262.0273,1026,266.0273,1022,262.0273,1026,271.0273" style="stroke:#CC6600;stroke-width:1.0;"/><text fill="#000000" font-family="Verdana" font-size="13" lengthAdjust="spacing" textLength="29.5166" x="996" y="151.7071">uses</text></g><!--link TestService to ConfigDao--><g id="link_TestService_ConfigDao"><path codeLine="107" d="M885,133.3973 C885,163.7373 885,229.1773 885,264.9873 " fill="none" id="TestService-to-ConfigDao" style="stroke:#CC6600;stroke-width:1.0;"/><polygon fill="#CC6600" points="885,270.9873,889,261.9873,885,265.9873,881,261.9873,885,270.9873" style="stroke:#CC6600;stroke-width:1.0;"/><text fill="#000000" font-family="Verdana" font-size="13" lengthAdjust="spacing" textLength="29.5166" x="855" y="199.2671">uses</text></g><!--link TestService to ProgressionService--><g id="link_TestService_ProgressionService"><path codeLine="108" d="M939.62,114.7373 C1085.64,114.7373 1474,114.7373 1474,114.7373 C1474,114.7373 1474,229.8873 1474,272.0073 " fill="none" id="TestService-to-ProgressionService" style="stroke:#CC6600;stroke-width:1.0;stroke-dasharray:7.0,7.0;"/><polygon fill="#CC6600" points="1474,278.0073,1478,269.0073,1474,273.0073,1470,269.0073,1474,278.0073" style="stroke:#CC6600;stroke-width:1.0;"/><text fill="#000000" font-family="Verdana" font-size="13" lengthAdjust="spacing" textLength="47.5122" x="1240.45" y="111.8071">creates</text></g><!--link AdminService to QuestionRepository--><g id="link_AdminService_QuestionRepository"><path codeLine="110" d="M575,133.3973 C575,163.7373 575,229.1773 575,264.9873 " fill="none" id="AdminService-to-QuestionRepository" style="stroke:#CC6600;stroke-width:1.0;"/><polygon fill="#CC6600" points="575,270.9873,579,261.9873,575,265.9873,571,261.9873,575,270.9873" style="stroke:#CC6600;stroke-width:1.0;"/><text fill="#000000" font-family="Verdana" font-size="13" lengthAdjust="spacing" textLength="29.5166" x="545" y="199.2671">uses</text></g><!--link AdminService to AnswerDao--><g id="link_AdminService_AnswerDao"><path codeLine="111" d="M637.3,119.7373 C679.7,119.7373 728.17,119.7373 728.17,119.7373 C728.17,119.7373 728.17,219.0273 728.17,265.0873 " fill="none" id="AdminService-to-AnswerDao" style="stroke:#CC6600;stroke-width:1.0;"/><polygon fill="#CC6600" points="728.17,271.0873,732.17,262.0873,728.17,266.0873,724.17,262.0873,728.17,271.0873" style="stroke:#CC6600;stroke-width:1.0;"/><text fill="#000000" font-family="Verdana" font-size="13" lengthAdjust="spacing" textLength="29.5166" x="698.17" y="147.0471">uses</text></g><!--link AdminService to ClozeTokenDao--><g id="link_AdminService_ClozeTokenDao"><path codeLine="112" d="M512.74,119.7373 C480.99,119.7373 449,119.7373 449,119.7373 C449,119.7373 449,219.0273 449,265.0873 " fill="none" id="AdminService-to-ClozeTokenDao" style="stroke:#CC6600;stroke-width:1.0;"/><polygon fill="#CC6600" points="449,271.0873,453,262.0873,449,266.0873,445,262.0873,449,271.0873" style="stroke:#CC6600;stroke-width:1.0;"/><text fill="#000000" font-family="Verdana" font-size="13" lengthAdjust="spacing" textLength="29.5166" x="450" y="160.6071">uses</text></g><!--link TestService to GMN33--><g id="link_TestService_GMN33"><path d="M910,133.3573 C910,169.7173 910,263.7373 910,263.7373 C910,263.7373 1023.74,263.7373 1117.26,263.7373 " fill="none" id="TestService-GMN33" style="stroke:#CC6600;stroke-width:1.0;stroke-dasharray:7.0,7.0;"/></g><!--SRC=[lLVTRjis5BxtKx0OXYbfPBW_QuiWC-0vTcFKQRB8MR7T58nqB76XI8-ad3f5twPlqXVR8Id9SYm5woxc2ricltDuVhx3S_J4P903MN7AH4_VCh6YYkOavbJhNsbycofPY6GikLJaX-cRwSl9cpsOL0ce4Z8Ulter63o4Z9IITrs8fHGcOlT0dZrhh78cm6nMGAGocUpr33CSo0UcDGXjG1iIadTMDuY4qHH5Sh80nicBOnA1MhCOo9nkGFLwFv5VMZuacbpzFXjFo7W-Yg99r0hgEVF9g31PfVHpZv2mqA1EgJmcr_x1heNuzLH1oj0y5KH6CP4UaTtV0ozXaLocJ0ITsmh-Bj3BIpp-3WDy1HfCKAFMaYNsp3NbBA46vbRPJAmAiw_HOR_qIbSMg7J75NSCayAvyrlvvmfMKZCZrSP2gD1tfR-Zwj6knrpUmqBUWXSUD_ywEMCWNnalM3ztnI-MOibIhwbwhEEg3LN6sXumOOu8Vg5dSmprIMNoi1tM2CJtm8yyslyPTWj7aEOW32HEYmDDFj6yN1u-OcbnapDJHgLnl4FEK6CA2iNFwQhIKMAH2GKtdY9QyZKWEUKfMovPZEkRm8Fnsq9IC6Ue4FCOD0mfDGrBn8ZpoZGTj1fhGMlAEBtXC4QwfL8ns6BBA5N896SYCjGu03fmKeMqSijcLSTIGNL8K3qSaOkRlo2sbYQomDDgw5G1BE1J6IgFgYBp07gESM0hj3IJoF9_8U28-pWkfXp3Yww_LJI1m6ySaUhNmxsV3gu0iPTAffWaZOwL9MSZihzg9J1m9UkTohgC_GaxjjHGZ6UDswQzBlNzWtp5hvJCfO55XfkPv4bJTmATMtTC9FBEtjGLlNnfjddPiTuMDbSCcInuSkdj2cgNRwJaGCKMSGgT00pAXzh0u64eF2V_fslFHSKpO9UABNJtzUYqNwnSlMsBjrWb_rb5sI1ACvo9NQ9R-_VE_WwvgijqDDlhnMm-M_pXc-rZhRPgUDU6SKrEJWhyPMOp7BgqFVsCjwvXyHUIWW259aQKcpFu53JBRulAgCugZVkTiKLW3OejDnqY3T6AUTqUduukoEpzOd8r7OrnkWYkO0aAH0m7xUvdB06IGtu3IkEu8v7G6IZdDUO4r98YTSjsYN51zSFXpju-YLjXDPLRTtV8t2vVD_9s1LNhhdSnH0Ah5aDcZCo9N3QQ_k7X6HDtm3G9Jgd2mOdpmiRty10tJndOA8QpIhac6akSP0pZSWDtXSOfK1IAK6HA6Tvxab2LWjDaZb19Gh7DuhT6TUMOc80WKtbRQ4AB9KdmbF9c2ACuOt5cK7dsxIit_LvfnLfohisthpXg8k-SKUUO7caruL4P_h3SBRkHCwoEEhRN0RdaL9Zhy_d7mVEFYFdeCFrLaVCU3g_41gUJHLUJ-MWnktWVdSqkE-gcEPo6uR3co371AKllRUyMM0dgDST2YseXKmbzYDpogGEmIwakBLjMTQcfYTK2wFU7RUtkcFZx3ntSwG2FUxW7tNDn3z7gewUzOYao2bdVI8HZllsFCo9RidiaDDBUaJuaRfOdbhNHsIXy_lChSeQtM3bO8C_j2uRo4Xv5tJWOrfabxcK1hLugYdJ5FNVUEy1NAZB9SOuBfuMujSxZwmFIsZnnHtinB3N9KooPGiMPRvmDckwwr3hA71vEcC1opO3KSqHedRej7ToVFmRzrmCIl1xyUE00UqF8eFyIzrzM-yr9v0K9E9XxjEgzUxVH1zxV3mm3WN5iiAJVFZ0Vs5vIe8g7Rculh8OIv-2Vc3T5yNtKRkpuveFibYUOMxDvugqYIA34vGAlf8t0IqbZT2dUGLEN9D_FCAi-bH6EfQpChtshNTbyEV7GyaY6vp91MRlToC7MWNy0]--></g></svg>