<svg xmlns="http://www.w3.org/2000/svg" xmlns:xlink="http://www.w3.org/1999/xlink" contentStyleType="text/css" height="824px" preserveAspectRatio="none" style="width:3233px;height:824px;background:#FFFFFF;" version="1.1" viewBox="0 0 3233 824" width="3233px" zoomAndPan="magnify"><title>Wissenstest - Klassendiagramm Teil 5: Utility Classes und Architektur-&#220;bersicht</title><defs/><g><text fill="#000000" font-family="Verdana" font-size="22" font-weight="bold" lengthAdjust="spacing" textLength="992.2236" x="1116.1382" y="37.1182">Wissenstest - Klassendiagramm Teil 5: Utility Classes und Architektur-&#220;bersicht</text><!--cluster Presentation Layer--><g id="cluster_Presentation Layer"><path d="M2682,67.2373 L2831.9961,67.2373 A3.75,3.75 0 0 1 2834.4961,69.7373 L2841.4961,90.252 L3034,90.252 A2.5,2.5 0 0 1 3036.5,92.752 L3036.5,279.7373 A2.5,2.5 0 0 1 3034,282.2373 L2682,282.2373 A2.5,2.5 0 0 1 2679.5,279.7373 L2679.5,69.7373 A2.5,2.5 0 0 1 2682,67.2373 " fill="#FFFFFF" style="stroke:#000000;stroke-width:1.0;"/><line style="stroke:#000000;stroke-width:1.0;" x1="2679.5" x2="2841.4961" y1="90.252" y2="90.252"/><text fill="#000000" font-family="Verdana" font-size="14" font-weight="bold" lengthAdjust="spacing" textLength="148.9961" x="2683.5" y="83.3125">Presentation Layer</text></g><!--cluster Web/Servlet Layer--><g id="cluster_Web/Servlet Layer"><path d="M1579,118.2373 L1728.7227,118.2373 A3.75,3.75 0 0 1 1731.2227,120.7373 L1738.2227,141.252 L2114,141.252 A2.5,2.5 0 0 1 2116.5,143.752 L2116.5,445.2373 A2.5,2.5 0 0 1 2114,447.7373 L1579,447.7373 A2.5,2.5 0 0 1 1576.5,445.2373 L1576.5,120.7373 A2.5,2.5 0 0 1 1579,118.2373 " fill="#FFFFFF" style="stroke:#000000;stroke-width:1.0;"/><line style="stroke:#000000;stroke-width:1.0;" x1="1576.5" x2="1738.2227" y1="141.252" y2="141.252"/><text fill="#000000" font-family="Verdana" font-size="14" font-weight="bold" lengthAdjust="spacing" textLength="148.7227" x="1580.5" y="134.3125">Web/Servlet Layer</text></g><!--cluster Service Layer--><g id="cluster_Service Layer"><path d="M2143,101.2373 L2250.0459,101.2373 A3.75,3.75 0 0 1 2252.5459,103.7373 L2259.5459,124.252 L2653,124.252 A2.5,2.5 0 0 1 2655.5,126.752 L2655.5,462.2373 A2.5,2.5 0 0 1 2653,464.7373 L2143,464.7373 A2.5,2.5 0 0 1 2140.5,462.2373 L2140.5,103.7373 A2.5,2.5 0 0 1 2143,101.2373 " fill="#FFFFFF" style="stroke:#000000;stroke-width:1.0;"/><line style="stroke:#000000;stroke-width:1.0;" x1="2140.5" x2="2259.5459" y1="124.252" y2="124.252"/><text fill="#000000" font-family="Verdana" font-size="14" font-weight="bold" lengthAdjust="spacing" textLength="106.0459" x="2144.5" y="117.3125">Service Layer</text></g><!--cluster DAO Layer--><g id="cluster_DAO Layer"><path d="M1597,529.2373 L1680.8174,529.2373 A3.75,3.75 0 0 1 1683.3174,531.7373 L1690.3174,552.252 L2121,552.252 A2.5,2.5 0 0 1 2123.5,554.752 L2123.5,815.2373 A2.5,2.5 0 0 1 2121,817.7373 L1597,817.7373 A2.5,2.5 0 0 1 1594.5,815.2373 L1594.5,531.7373 A2.5,2.5 0 0 1 1597,529.2373 " fill="#FFFFFF" style="stroke:#000000;stroke-width:1.0;"/><line style="stroke:#000000;stroke-width:1.0;" x1="1594.5" x2="1690.3174" y1="552.252" y2="552.252"/><text fill="#000000" font-family="Verdana" font-size="14" font-weight="bold" lengthAdjust="spacing" textLength="82.8174" x="1598.5" y="545.3125">DAO Layer</text></g><!--cluster Data Layer--><g id="cluster_Data Layer"><path d="M3063,58.7373 L3149.1279,58.7373 A3.75,3.75 0 0 1 3151.6279,61.2373 L3158.6279,81.752 L3224,81.752 A2.5,2.5 0 0 1 3226.5,84.252 L3226.5,288.2373 A2.5,2.5 0 0 1 3224,290.7373 L3063,290.7373 A2.5,2.5 0 0 1 3060.5,288.2373 L3060.5,61.2373 A2.5,2.5 0 0 1 3063,58.7373 " fill="#FFFFFF" style="stroke:#000000;stroke-width:1.0;"/><line style="stroke:#000000;stroke-width:1.0;" x1="3060.5" x2="3158.6279" y1="81.752" y2="81.752"/><text fill="#000000" font-family="Verdana" font-size="14" font-weight="bold" lengthAdjust="spacing" textLength="85.1279" x="3064.5" y="74.8125">Data Layer</text></g><!--class JSP_Templates--><g id="elem_JSP_Templates"><rect codeLine="33" fill="#F8E8F8" height="163.1025" id="JSP_Templates" rx="2.5" ry="2.5" style="stroke:#AA00AA;stroke-width:1.0;" width="133.9844" x="2886.5" y="103.2373"/><ellipse cx="2899.5" cy="117.2373" fill="#FFFFFF" rx="9" ry="9" style="stroke:#000000;stroke-width:1.0;"/><path d="M2902.2656,113.1123 Q2902.4219,112.8936 2902.6094,112.7842 Q2902.7969,112.6748 2903.0156,112.6748 Q2903.3906,112.6748 2903.625,112.9326 Q2903.8594,113.1904 2903.8594,113.7998 L2903.8594,115.2529 Q2903.8594,115.8623 2903.625,116.1279 Q2903.3906,116.3936 2903.0156,116.3936 Q2902.6719,116.3936 2902.4688,116.1904 Q2902.2656,116.0029 2902.1563,115.4873 Q2902.1094,115.1279 2901.9219,114.9404 Q2901.5938,114.5654 2900.9844,114.3467 Q2900.375,114.1279 2899.75,114.1279 Q2898.9844,114.1279 2898.3516,114.4561 Q2897.7188,114.7842 2897.2266,115.5342 Q2896.7344,116.2842 2896.7344,117.3154 L2896.7344,118.4092 Q2896.7344,119.6436 2897.625,120.4639 Q2898.5156,121.2842 2900.1094,121.2842 Q2901.0469,121.2842 2901.7031,121.0342 Q2902.0938,120.8779 2902.5156,120.4404 Q2902.7813,120.1748 2902.9297,120.0967 Q2903.0781,120.0186 2903.2813,120.0186 Q2903.6094,120.0186 2903.8672,120.2764 Q2904.125,120.5342 2904.125,120.8779 Q2904.125,121.2217 2903.7813,121.6279 Q2903.2813,122.2061 2902.4844,122.5342 Q2901.4063,122.9873 2900.1094,122.9873 Q2898.5938,122.9873 2897.3906,122.3623 Q2896.4063,121.8623 2895.7188,120.792 Q2895.0313,119.7217 2895.0313,118.4404 L2895.0313,117.2842 Q2895.0313,115.9561 2895.6484,114.8076 Q2896.2656,113.6592 2897.3594,113.042 Q2898.4531,112.4248 2899.6875,112.4248 Q2900.4219,112.4248 2901.0703,112.5889 Q2901.7188,112.7529 2902.2656,113.1123 Z " fill="#000000"/><text fill="#000000" font-family="Verdana" font-size="14" lengthAdjust="spacing" textLength="105.9844" x="2911.5" y="122.8052">JSP_Templates</text><line style="stroke:#AA00AA;stroke-width:1.0;" x1="2887.5" x2="3019.4844" y1="131.2373" y2="131.2373"/><text fill="#000000" font-family="Verdana" font-size="14" lengthAdjust="spacing" textLength="63.9775" x="2892.5" y="149.3125">index.jsp</text><text fill="#000000" font-family="Verdana" font-size="14" lengthAdjust="spacing" textLength="59.6914" x="2892.5" y="166.3271">login.jsp</text><text fill="#000000" font-family="Verdana" font-size="14" lengthAdjust="spacing" textLength="79.9326" x="2892.5" y="183.3418">register.jsp</text><text fill="#000000" font-family="Verdana" font-size="14" lengthAdjust="spacing" textLength="103.2227" x="2892.5" y="200.3564">testRunner.jsp</text><text fill="#000000" font-family="Verdana" font-size="14" lengthAdjust="spacing" textLength="107.2695" x="2892.5" y="217.3711">adminPanel.jsp</text><text fill="#000000" font-family="Verdana" font-size="14" lengthAdjust="spacing" textLength="98.7109" x="2892.5" y="234.3857">learnMode.jsp</text><text fill="#000000" font-family="Verdana" font-size="14" lengthAdjust="spacing" textLength="80.1377" x="2892.5" y="251.4004">flipCard.jsp</text><line style="stroke:#AA00AA;stroke-width:1.0;" x1="2887.5" x2="3019.4844" y1="258.3398" y2="258.3398"/></g><!--class JavaScript_Assets--><g id="elem_JavaScript_Assets"><rect codeLine="43" fill="#F8E8F8" height="112.0586" id="JavaScript_Assets" rx="2.5" ry="2.5" style="stroke:#AA00AA;stroke-width:1.0;" width="154.5947" x="2696" y="128.7373"/><ellipse cx="2709" cy="142.7373" fill="#FFFFFF" rx="9" ry="9" style="stroke:#000000;stroke-width:1.0;"/><path d="M2711.7656,138.6123 Q2711.9219,138.3936 2712.1094,138.2842 Q2712.2969,138.1748 2712.5156,138.1748 Q2712.8906,138.1748 2713.125,138.4326 Q2713.3594,138.6904 2713.3594,139.2998 L2713.3594,140.7529 Q2713.3594,141.3623 2713.125,141.6279 Q2712.8906,141.8936 2712.5156,141.8936 Q2712.1719,141.8936 2711.9688,141.6904 Q2711.7656,141.5029 2711.6563,140.9873 Q2711.6094,140.6279 2711.4219,140.4404 Q2711.0938,140.0654 2710.4844,139.8467 Q2709.875,139.6279 2709.25,139.6279 Q2708.4844,139.6279 2707.8516,139.9561 Q2707.2188,140.2842 2706.7266,141.0342 Q2706.2344,141.7842 2706.2344,142.8154 L2706.2344,143.9092 Q2706.2344,145.1436 2707.125,145.9639 Q2708.0156,146.7842 2709.6094,146.7842 Q2710.5469,146.7842 2711.2031,146.5342 Q2711.5938,146.3779 2712.0156,145.9404 Q2712.2813,145.6748 2712.4297,145.5967 Q2712.5781,145.5186 2712.7813,145.5186 Q2713.1094,145.5186 2713.3672,145.7764 Q2713.625,146.0342 2713.625,146.3779 Q2713.625,146.7217 2713.2813,147.1279 Q2712.7813,147.7061 2711.9844,148.0342 Q2710.9063,148.4873 2709.6094,148.4873 Q2708.0938,148.4873 2706.8906,147.8623 Q2705.9063,147.3623 2705.2188,146.292 Q2704.5313,145.2217 2704.5313,143.9404 L2704.5313,142.7842 Q2704.5313,141.4561 2705.1484,140.3076 Q2705.7656,139.1592 2706.8594,138.542 Q2707.9531,137.9248 2709.1875,137.9248 Q2709.9219,137.9248 2710.5703,138.0889 Q2711.2188,138.2529 2711.7656,138.6123 Z " fill="#000000"/><text fill="#000000" font-family="Verdana" font-size="14" lengthAdjust="spacing" textLength="126.5947" x="2721" y="148.3052">JavaScript_Assets</text><line style="stroke:#AA00AA;stroke-width:1.0;" x1="2697" x2="2849.5947" y1="156.7373" y2="156.7373"/><text fill="#000000" font-family="Verdana" font-size="14" lengthAdjust="spacing" textLength="43.0596" x="2702" y="174.8125">app.js</text><text fill="#000000" font-family="Verdana" font-size="14" lengthAdjust="spacing" textLength="94.5" x="2702" y="191.8271">testRunner.js</text><text fill="#000000" font-family="Verdana" font-size="14" lengthAdjust="spacing" textLength="60.6553" x="2702" y="208.8418">admin.js</text><text fill="#000000" font-family="Verdana" font-size="14" lengthAdjust="spacing" textLength="68.9336" x="2702" y="225.8564">flipcard.js</text><line style="stroke:#AA00AA;stroke-width:1.0;" x1="2697" x2="2849.5947" y1="232.7959" y2="232.7959"/></g><!--class AuthServlet_Ref--><g id="elem_AuthServlet_Ref"><rect codeLine="52" fill="#F8E8F8" height="61.0146" id="AuthServlet_Ref" rx="2.5" ry="2.5" style="stroke:#AA00AA;stroke-width:1.0;" width="142.5703" x="1593" y="154.2373"/><ellipse cx="1606" cy="168.2373" fill="#FFFFFF" rx="9" ry="9" style="stroke:#000000;stroke-width:1.0;"/><path d="M1608.7656,164.1123 Q1608.9219,163.8936 1609.1094,163.7842 Q1609.2969,163.6748 1609.5156,163.6748 Q1609.8906,163.6748 1610.125,163.9326 Q1610.3594,164.1904 1610.3594,164.7998 L1610.3594,166.2529 Q1610.3594,166.8623 1610.125,167.1279 Q1609.8906,167.3936 1609.5156,167.3936 Q1609.1719,167.3936 1608.9688,167.1904 Q1608.7656,167.0029 1608.6563,166.4873 Q1608.6094,166.1279 1608.4219,165.9404 Q1608.0938,165.5654 1607.4844,165.3467 Q1606.875,165.1279 1606.25,165.1279 Q1605.4844,165.1279 1604.8516,165.4561 Q1604.2188,165.7842 1603.7266,166.5342 Q1603.2344,167.2842 1603.2344,168.3154 L1603.2344,169.4092 Q1603.2344,170.6436 1604.125,171.4639 Q1605.0156,172.2842 1606.6094,172.2842 Q1607.5469,172.2842 1608.2031,172.0342 Q1608.5938,171.8779 1609.0156,171.4404 Q1609.2813,171.1748 1609.4297,171.0967 Q1609.5781,171.0186 1609.7813,171.0186 Q1610.1094,171.0186 1610.3672,171.2764 Q1610.625,171.5342 1610.625,171.8779 Q1610.625,172.2217 1610.2813,172.6279 Q1609.7813,173.2061 1608.9844,173.5342 Q1607.9063,173.9873 1606.6094,173.9873 Q1605.0938,173.9873 1603.8906,173.3623 Q1602.9063,172.8623 1602.2188,171.792 Q1601.5313,170.7217 1601.5313,169.4404 L1601.5313,168.2842 Q1601.5313,166.9561 1602.1484,165.8076 Q1602.7656,164.6592 1603.8594,164.042 Q1604.9531,163.4248 1606.1875,163.4248 Q1606.9219,163.4248 1607.5703,163.5889 Q1608.2188,163.7529 1608.7656,164.1123 Z " fill="#000000"/><text fill="#000000" font-family="Verdana" font-size="14" lengthAdjust="spacing" textLength="114.5703" x="1618" y="173.8052">AuthServlet_Ref</text><line style="stroke:#AA00AA;stroke-width:1.0;" x1="1594" x2="1734.5703" y1="182.2373" y2="182.2373"/><text fill="#000000" font-family="Verdana" font-size="14" lengthAdjust="spacing" textLength="80.5889" x="1599" y="200.3125">/api/auth/*</text><line style="stroke:#AA00AA;stroke-width:1.0;" x1="1594" x2="1734.5703" y1="207.252" y2="207.252"/></g><!--class TestServlet_Ref--><g id="elem_TestServlet_Ref"><rect codeLine="55" fill="#F8E8F8" height="61.0146" id="TestServlet_Ref" rx="2.5" ry="2.5" style="stroke:#AA00AA;stroke-width:1.0;" width="139.542" x="1771.5" y="154.2373"/><ellipse cx="1784.5" cy="168.2373" fill="#FFFFFF" rx="9" ry="9" style="stroke:#000000;stroke-width:1.0;"/><path d="M1787.2656,164.1123 Q1787.4219,163.8936 1787.6094,163.7842 Q1787.7969,163.6748 1788.0156,163.6748 Q1788.3906,163.6748 1788.625,163.9326 Q1788.8594,164.1904 1788.8594,164.7998 L1788.8594,166.2529 Q1788.8594,166.8623 1788.625,167.1279 Q1788.3906,167.3936 1788.0156,167.3936 Q1787.6719,167.3936 1787.4688,167.1904 Q1787.2656,167.0029 1787.1563,166.4873 Q1787.1094,166.1279 1786.9219,165.9404 Q1786.5938,165.5654 1785.9844,165.3467 Q1785.375,165.1279 1784.75,165.1279 Q1783.9844,165.1279 1783.3516,165.4561 Q1782.7188,165.7842 1782.2266,166.5342 Q1781.7344,167.2842 1781.7344,168.3154 L1781.7344,169.4092 Q1781.7344,170.6436 1782.625,171.4639 Q1783.5156,172.2842 1785.1094,172.2842 Q1786.0469,172.2842 1786.7031,172.0342 Q1787.0938,171.8779 1787.5156,171.4404 Q1787.7813,171.1748 1787.9297,171.0967 Q1788.0781,171.0186 1788.2813,171.0186 Q1788.6094,171.0186 1788.8672,171.2764 Q1789.125,171.5342 1789.125,171.8779 Q1789.125,172.2217 1788.7813,172.6279 Q1788.2813,173.2061 1787.4844,173.5342 Q1786.4063,173.9873 1785.1094,173.9873 Q1783.5938,173.9873 1782.3906,173.3623 Q1781.4063,172.8623 1780.7188,171.792 Q1780.0313,170.7217 1780.0313,169.4404 L1780.0313,168.2842 Q1780.0313,166.9561 1780.6484,165.8076 Q1781.2656,164.6592 1782.3594,164.042 Q1783.4531,163.4248 1784.6875,163.4248 Q1785.4219,163.4248 1786.0703,163.5889 Q1786.7188,163.7529 1787.2656,164.1123 Z " fill="#000000"/><text fill="#000000" font-family="Verdana" font-size="14" lengthAdjust="spacing" textLength="111.542" x="1796.5" y="173.8052">TestServlet_Ref</text><line style="stroke:#AA00AA;stroke-width:1.0;" x1="1772.5" x2="1910.042" y1="182.2373" y2="182.2373"/><text fill="#000000" font-family="Verdana" font-size="14" lengthAdjust="spacing" textLength="75.6123" x="1777.5" y="200.3125">/api/test/*</text><line style="stroke:#AA00AA;stroke-width:1.0;" x1="1772.5" x2="1910.042" y1="207.252" y2="207.252"/></g><!--class AdminServlet_Ref--><g id="elem_AdminServlet_Ref"><rect codeLine="58" fill="#F8E8F8" height="61.0146" id="AdminServlet_Ref" rx="2.5" ry="2.5" style="stroke:#AA00AA;stroke-width:1.0;" width="154.376" x="1946.5" y="154.2373"/><ellipse cx="1959.5" cy="168.2373" fill="#FFFFFF" rx="9" ry="9" style="stroke:#000000;stroke-width:1.0;"/><path d="M1962.2656,164.1123 Q1962.4219,163.8936 1962.6094,163.7842 Q1962.7969,163.6748 1963.0156,163.6748 Q1963.3906,163.6748 1963.625,163.9326 Q1963.8594,164.1904 1963.8594,164.7998 L1963.8594,166.2529 Q1963.8594,166.8623 1963.625,167.1279 Q1963.3906,167.3936 1963.0156,167.3936 Q1962.6719,167.3936 1962.4688,167.1904 Q1962.2656,167.0029 1962.1563,166.4873 Q1962.1094,166.1279 1961.9219,165.9404 Q1961.5938,165.5654 1960.9844,165.3467 Q1960.375,165.1279 1959.75,165.1279 Q1958.9844,165.1279 1958.3516,165.4561 Q1957.7188,165.7842 1957.2266,166.5342 Q1956.7344,167.2842 1956.7344,168.3154 L1956.7344,169.4092 Q1956.7344,170.6436 1957.625,171.4639 Q1958.5156,172.2842 1960.1094,172.2842 Q1961.0469,172.2842 1961.7031,172.0342 Q1962.0938,171.8779 1962.5156,171.4404 Q1962.7813,171.1748 1962.9297,171.0967 Q1963.0781,171.0186 1963.2813,171.0186 Q1963.6094,171.0186 1963.8672,171.2764 Q1964.125,171.5342 1964.125,171.8779 Q1964.125,172.2217 1963.7813,172.6279 Q1963.2813,173.2061 1962.4844,173.5342 Q1961.4063,173.9873 1960.1094,173.9873 Q1958.5938,173.9873 1957.3906,173.3623 Q1956.4063,172.8623 1955.7188,171.792 Q1955.0313,170.7217 1955.0313,169.4404 L1955.0313,168.2842 Q1955.0313,166.9561 1955.6484,165.8076 Q1956.2656,164.6592 1957.3594,164.042 Q1958.4531,163.4248 1959.6875,163.4248 Q1960.4219,163.4248 1961.0703,163.5889 Q1961.7188,163.7529 1962.2656,164.1123 Z " fill="#000000"/><text fill="#000000" font-family="Verdana" font-size="14" lengthAdjust="spacing" textLength="126.376" x="1971.5" y="173.8052">AdminServlet_Ref</text><line style="stroke:#AA00AA;stroke-width:1.0;" x1="1947.5" x2="2099.876" y1="182.2373" y2="182.2373"/><text fill="#000000" font-family="Verdana" font-size="14" lengthAdjust="spacing" textLength="92.3945" x="1952.5" y="200.3125">/api/admin/*</text><line style="stroke:#AA00AA;stroke-width:1.0;" x1="1947.5" x2="2099.876" y1="207.252" y2="207.252"/></g><!--class ImageServlet_Ref--><g id="elem_ImageServlet_Ref"><rect codeLine="61" fill="#F8E8F8" height="61.0146" id="ImageServlet_Ref" rx="2.5" ry="2.5" style="stroke:#AA00AA;stroke-width:1.0;" width="154.7451" x="1593" y="370.7373"/><ellipse cx="1606" cy="384.7373" fill="#FFFFFF" rx="9" ry="9" style="stroke:#000000;stroke-width:1.0;"/><path d="M1608.7656,380.6123 Q1608.9219,380.3936 1609.1094,380.2842 Q1609.2969,380.1748 1609.5156,380.1748 Q1609.8906,380.1748 1610.125,380.4326 Q1610.3594,380.6904 1610.3594,381.2998 L1610.3594,382.7529 Q1610.3594,383.3623 1610.125,383.6279 Q1609.8906,383.8936 1609.5156,383.8936 Q1609.1719,383.8936 1608.9688,383.6904 Q1608.7656,383.5029 1608.6563,382.9873 Q1608.6094,382.6279 1608.4219,382.4404 Q1608.0938,382.0654 1607.4844,381.8467 Q1606.875,381.6279 1606.25,381.6279 Q1605.4844,381.6279 1604.8516,381.9561 Q1604.2188,382.2842 1603.7266,383.0342 Q1603.2344,383.7842 1603.2344,384.8154 L1603.2344,385.9092 Q1603.2344,387.1436 1604.125,387.9639 Q1605.0156,388.7842 1606.6094,388.7842 Q1607.5469,388.7842 1608.2031,388.5342 Q1608.5938,388.3779 1609.0156,387.9404 Q1609.2813,387.6748 1609.4297,387.5967 Q1609.5781,387.5186 1609.7813,387.5186 Q1610.1094,387.5186 1610.3672,387.7764 Q1610.625,388.0342 1610.625,388.3779 Q1610.625,388.7217 1610.2813,389.1279 Q1609.7813,389.7061 1608.9844,390.0342 Q1607.9063,390.4873 1606.6094,390.4873 Q1605.0938,390.4873 1603.8906,389.8623 Q1602.9063,389.3623 1602.2188,388.292 Q1601.5313,387.2217 1601.5313,385.9404 L1601.5313,384.7842 Q1601.5313,383.4561 1602.1484,382.3076 Q1602.7656,381.1592 1603.8594,380.542 Q1604.9531,379.9248 1606.1875,379.9248 Q1606.9219,379.9248 1607.5703,380.0889 Q1608.2188,380.2529 1608.7656,380.6123 Z " fill="#000000"/><text fill="#000000" font-family="Verdana" font-size="14" lengthAdjust="spacing" textLength="126.7451" x="1618" y="390.3052">ImageServlet_Ref</text><line style="stroke:#AA00AA;stroke-width:1.0;" x1="1594" x2="1746.7451" y1="398.7373" y2="398.7373"/><text fill="#000000" font-family="Verdana" font-size="14" lengthAdjust="spacing" textLength="99.1689" x="1599" y="416.8125">/api/images/*</text><line style="stroke:#AA00AA;stroke-width:1.0;" x1="1594" x2="1746.7451" y1="423.752" y2="423.752"/></g><!--class HealthServlet_Ref--><g id="elem_HealthServlet_Ref"><rect codeLine="64" fill="#F8E8F8" height="61.0146" id="HealthServlet_Ref" rx="2.5" ry="2.5" style="stroke:#AA00AA;stroke-width:1.0;" width="155.251" x="1783" y="370.7373"/><ellipse cx="1796" cy="384.7373" fill="#FFFFFF" rx="9" ry="9" style="stroke:#000000;stroke-width:1.0;"/><path d="M1798.7656,380.6123 Q1798.9219,380.3936 1799.1094,380.2842 Q1799.2969,380.1748 1799.5156,380.1748 Q1799.8906,380.1748 1800.125,380.4326 Q1800.3594,380.6904 1800.3594,381.2998 L1800.3594,382.7529 Q1800.3594,383.3623 1800.125,383.6279 Q1799.8906,383.8936 1799.5156,383.8936 Q1799.1719,383.8936 1798.9688,383.6904 Q1798.7656,383.5029 1798.6563,382.9873 Q1798.6094,382.6279 1798.4219,382.4404 Q1798.0938,382.0654 1797.4844,381.8467 Q1796.875,381.6279 1796.25,381.6279 Q1795.4844,381.6279 1794.8516,381.9561 Q1794.2188,382.2842 1793.7266,383.0342 Q1793.2344,383.7842 1793.2344,384.8154 L1793.2344,385.9092 Q1793.2344,387.1436 1794.125,387.9639 Q1795.0156,388.7842 1796.6094,388.7842 Q1797.5469,388.7842 1798.2031,388.5342 Q1798.5938,388.3779 1799.0156,387.9404 Q1799.2813,387.6748 1799.4297,387.5967 Q1799.5781,387.5186 1799.7813,387.5186 Q1800.1094,387.5186 1800.3672,387.7764 Q1800.625,388.0342 1800.625,388.3779 Q1800.625,388.7217 1800.2813,389.1279 Q1799.7813,389.7061 1798.9844,390.0342 Q1797.9063,390.4873 1796.6094,390.4873 Q1795.0938,390.4873 1793.8906,389.8623 Q1792.9063,389.3623 1792.2188,388.292 Q1791.5313,387.2217 1791.5313,385.9404 L1791.5313,384.7842 Q1791.5313,383.4561 1792.1484,382.3076 Q1792.7656,381.1592 1793.8594,380.542 Q1794.9531,379.9248 1796.1875,379.9248 Q1796.9219,379.9248 1797.5703,380.0889 Q1798.2188,380.2529 1798.7656,380.6123 Z " fill="#000000"/><text fill="#000000" font-family="Verdana" font-size="14" lengthAdjust="spacing" textLength="127.251" x="1808" y="390.3052">HealthServlet_Ref</text><line style="stroke:#AA00AA;stroke-width:1.0;" x1="1784" x2="1937.251" y1="398.7373" y2="398.7373"/><text fill="#000000" font-family="Verdana" font-size="14" lengthAdjust="spacing" textLength="50.1826" x="1789" y="416.8125">/health</text><line style="stroke:#AA00AA;stroke-width:1.0;" x1="1784" x2="1937.251" y1="423.752" y2="423.752"/></g><!--class AuthService_Ref--><g id="elem_AuthService_Ref"><rect codeLine="70" fill="#F8E8F8" height="78.0293" id="AuthService_Ref" rx="2.5" ry="2.5" style="stroke:#AA00AA;stroke-width:1.0;" width="173.8818" x="2156.5" y="145.7373"/><ellipse cx="2182.7904" cy="159.7373" fill="#FFFFFF" rx="9" ry="9" style="stroke:#000000;stroke-width:1.0;"/><path d="M2185.556,155.6123 Q2185.7123,155.3936 2185.8998,155.2842 Q2186.0873,155.1748 2186.306,155.1748 Q2186.681,155.1748 2186.9154,155.4326 Q2187.1498,155.6904 2187.1498,156.2998 L2187.1498,157.7529 Q2187.1498,158.3623 2186.9154,158.6279 Q2186.681,158.8936 2186.306,158.8936 Q2185.9623,158.8936 2185.7591,158.6904 Q2185.556,158.5029 2185.4466,157.9873 Q2185.3998,157.6279 2185.2123,157.4404 Q2184.8841,157.0654 2184.2748,156.8467 Q2183.6654,156.6279 2183.0404,156.6279 Q2182.2748,156.6279 2181.6419,156.9561 Q2181.0091,157.2842 2180.5169,158.0342 Q2180.0248,158.7842 2180.0248,159.8154 L2180.0248,160.9092 Q2180.0248,162.1436 2180.9154,162.9639 Q2181.806,163.7842 2183.3998,163.7842 Q2184.3373,163.7842 2184.9935,163.5342 Q2185.3841,163.3779 2185.806,162.9404 Q2186.0716,162.6748 2186.2201,162.5967 Q2186.3685,162.5186 2186.5716,162.5186 Q2186.8998,162.5186 2187.1576,162.7764 Q2187.4154,163.0342 2187.4154,163.3779 Q2187.4154,163.7217 2187.0716,164.1279 Q2186.5716,164.7061 2185.7748,165.0342 Q2184.6966,165.4873 2183.3998,165.4873 Q2181.8841,165.4873 2180.681,164.8623 Q2179.6966,164.3623 2179.0091,163.292 Q2178.3216,162.2217 2178.3216,160.9404 L2178.3216,159.7842 Q2178.3216,158.4561 2178.9388,157.3076 Q2179.556,156.1592 2180.6498,155.542 Q2181.7435,154.9248 2182.9779,154.9248 Q2183.7123,154.9248 2184.3607,155.0889 Q2185.0091,155.2529 2185.556,155.6123 Z " fill="#000000"/><text fill="#000000" font-family="Verdana" font-size="14" lengthAdjust="spacing" textLength="116.3477" x="2197.7438" y="165.3052">AuthService_Ref</text><line style="stroke:#AA00AA;stroke-width:1.0;" x1="2157.5" x2="2329.3818" y1="173.7373" y2="173.7373"/><text fill="#000000" font-family="Verdana" font-size="14" lengthAdjust="spacing" textLength="101.7803" x="2162.5" y="191.8125">Authentication</text><text fill="#000000" font-family="Verdana" font-size="14" lengthAdjust="spacing" textLength="161.8818" x="2162.5" y="208.8271">Password Management</text><line style="stroke:#AA00AA;stroke-width:1.0;" x1="2157.5" x2="2329.3818" y1="215.7666" y2="215.7666"/></g><!--class TestService_Ref--><g id="elem_TestService_Ref"><rect codeLine="74" fill="#F8E8F8" height="95.0439" id="TestService_Ref" rx="2.5" ry="2.5" style="stroke:#AA00AA;stroke-width:1.0;" width="190.2061" x="2365.5" y="137.2373"/><ellipse cx="2400.499" cy="151.2373" fill="#FFFFFF" rx="9" ry="9" style="stroke:#000000;stroke-width:1.0;"/><path d="M2403.2646,147.1123 Q2403.4209,146.8936 2403.6084,146.7842 Q2403.7959,146.6748 2404.0146,146.6748 Q2404.3896,146.6748 2404.624,146.9326 Q2404.8584,147.1904 2404.8584,147.7998 L2404.8584,149.2529 Q2404.8584,149.8623 2404.624,150.1279 Q2404.3896,150.3936 2404.0146,150.3936 Q2403.6709,150.3936 2403.4678,150.1904 Q2403.2646,150.0029 2403.1553,149.4873 Q2403.1084,149.1279 2402.9209,148.9404 Q2402.5928,148.5654 2401.9834,148.3467 Q2401.374,148.1279 2400.749,148.1279 Q2399.9834,148.1279 2399.3506,148.4561 Q2398.7178,148.7842 2398.2256,149.5342 Q2397.7334,150.2842 2397.7334,151.3154 L2397.7334,152.4092 Q2397.7334,153.6436 2398.624,154.4639 Q2399.5146,155.2842 2401.1084,155.2842 Q2402.0459,155.2842 2402.7021,155.0342 Q2403.0928,154.8779 2403.5146,154.4404 Q2403.7803,154.1748 2403.9287,154.0967 Q2404.0771,154.0186 2404.2803,154.0186 Q2404.6084,154.0186 2404.8662,154.2764 Q2405.124,154.5342 2405.124,154.8779 Q2405.124,155.2217 2404.7803,155.6279 Q2404.2803,156.2061 2403.4834,156.5342 Q2402.4053,156.9873 2401.1084,156.9873 Q2399.5928,156.9873 2398.3896,156.3623 Q2397.4053,155.8623 2396.7178,154.792 Q2396.0303,153.7217 2396.0303,152.4404 L2396.0303,151.2842 Q2396.0303,149.9561 2396.6475,148.8076 Q2397.2646,147.6592 2398.3584,147.042 Q2399.4521,146.4248 2400.6865,146.4248 Q2401.4209,146.4248 2402.0693,146.5889 Q2402.7178,146.7529 2403.2646,147.1123 Z " fill="#000000"/><text fill="#000000" font-family="Verdana" font-size="14" lengthAdjust="spacing" textLength="113.3193" x="2417.3877" y="156.8052">TestService_Ref</text><line style="stroke:#AA00AA;stroke-width:1.0;" x1="2366.5" x2="2554.7061" y1="165.2373" y2="165.2373"/><text fill="#000000" font-family="Verdana" font-size="14" lengthAdjust="spacing" textLength="178.2061" x="2371.5" y="183.3125">Dynamic Test Generation</text><text fill="#000000" font-family="Verdana" font-size="14" lengthAdjust="spacing" textLength="103.0449" x="2371.5" y="200.3271">Test Execution</text><text fill="#000000" font-family="Verdana" font-size="14" lengthAdjust="spacing" textLength="128.1602" x="2371.5" y="217.3418">Scoring &amp; Grading</text><line style="stroke:#AA00AA;stroke-width:1.0;" x1="2366.5" x2="2554.7061" y1="224.2813" y2="224.2813"/></g><!--class ProgressionService_Ref--><g id="elem_ProgressionService_Ref"><rect codeLine="79" fill="#F8E8F8" height="95.0439" id="ProgressionService_Ref" rx="2.5" ry="2.5" style="stroke:#AA00AA;stroke-width:1.0;" width="232.4932" x="2156.5" y="353.7373"/><ellipse cx="2187.1462" cy="367.7373" fill="#FFFFFF" rx="9" ry="9" style="stroke:#000000;stroke-width:1.0;"/><path d="M2189.9119,363.6123 Q2190.0681,363.3936 2190.2556,363.2842 Q2190.4431,363.1748 2190.6619,363.1748 Q2191.0369,363.1748 2191.2712,363.4326 Q2191.5056,363.6904 2191.5056,364.2998 L2191.5056,365.7529 Q2191.5056,366.3623 2191.2712,366.6279 Q2191.0369,366.8936 2190.6619,366.8936 Q2190.3181,366.8936 2190.115,366.6904 Q2189.9119,366.5029 2189.8025,365.9873 Q2189.7556,365.6279 2189.5681,365.4404 Q2189.24,365.0654 2188.6306,364.8467 Q2188.0212,364.6279 2187.3962,364.6279 Q2186.6306,364.6279 2185.9978,364.9561 Q2185.365,365.2842 2184.8728,366.0342 Q2184.3806,366.7842 2184.3806,367.8154 L2184.3806,368.9092 Q2184.3806,370.1436 2185.2712,370.9639 Q2186.1619,371.7842 2187.7556,371.7842 Q2188.6931,371.7842 2189.3494,371.5342 Q2189.74,371.3779 2190.1619,370.9404 Q2190.4275,370.6748 2190.5759,370.5967 Q2190.7244,370.5186 2190.9275,370.5186 Q2191.2556,370.5186 2191.5134,370.7764 Q2191.7712,371.0342 2191.7712,371.3779 Q2191.7712,371.7217 2191.4275,372.1279 Q2190.9275,372.7061 2190.1306,373.0342 Q2189.0525,373.4873 2187.7556,373.4873 Q2186.24,373.4873 2185.0369,372.8623 Q2184.0525,372.3623 2183.365,371.292 Q2182.6775,370.2217 2182.6775,368.9404 L2182.6775,367.7842 Q2182.6775,366.4561 2183.2947,365.3076 Q2183.9119,364.1592 2185.0056,363.542 Q2186.0994,362.9248 2187.3337,362.9248 Q2188.0681,362.9248 2188.7166,363.0889 Q2189.365,363.2529 2189.9119,363.6123 Z " fill="#000000"/><text fill="#000000" font-family="Verdana" font-size="14" lengthAdjust="spacing" textLength="165.2793" x="2203.0676" y="373.3052">ProgressionService_Ref</text><line style="stroke:#AA00AA;stroke-width:1.0;" x1="2157.5" x2="2387.9932" y1="381.7373" y2="381.7373"/><text fill="#000000" font-family="Verdana" font-size="14" lengthAdjust="spacing" textLength="220.4932" x="2162.5" y="399.8125">Auto-Mode Schwellwertpr&#252;fung</text><line style="stroke:#AA00AA;stroke-width:1.0;" x1="2157.5" x2="2387.9932" y1="406.752" y2="406.752"/><text fill="#000000" font-family="Verdana" font-size="14" lengthAdjust="spacing" textLength="149.9121" x="2162.5" y="424.8271">shouldPromote(ratio)</text><text fill="#000000" font-family="Verdana" font-size="14" lengthAdjust="spacing" textLength="146.125" x="2162.5" y="441.8418">shouldDemote(ratio)</text></g><!--class AdminService_Ref--><g id="elem_AdminService_Ref"><rect codeLine="84" fill="#F8E8F8" height="78.0293" id="AdminService_Ref" rx="2.5" ry="2.5" style="stroke:#AA00AA;stroke-width:1.0;" width="215.7588" x="2423.5" y="362.2373"/><ellipse cx="2463.5527" cy="376.2373" fill="#FFFFFF" rx="9" ry="9" style="stroke:#000000;stroke-width:1.0;"/><path d="M2466.3184,372.1123 Q2466.4746,371.8936 2466.6621,371.7842 Q2466.8496,371.6748 2467.0684,371.6748 Q2467.4434,371.6748 2467.6777,371.9326 Q2467.9121,372.1904 2467.9121,372.7998 L2467.9121,374.2529 Q2467.9121,374.8623 2467.6777,375.1279 Q2467.4434,375.3936 2467.0684,375.3936 Q2466.7246,375.3936 2466.5215,375.1904 Q2466.3184,375.0029 2466.209,374.4873 Q2466.1621,374.1279 2465.9746,373.9404 Q2465.6465,373.5654 2465.0371,373.3467 Q2464.4277,373.1279 2463.8027,373.1279 Q2463.0371,373.1279 2462.4043,373.4561 Q2461.7715,373.7842 2461.2793,374.5342 Q2460.7871,375.2842 2460.7871,376.3154 L2460.7871,377.4092 Q2460.7871,378.6436 2461.6777,379.4639 Q2462.5684,380.2842 2464.1621,380.2842 Q2465.0996,380.2842 2465.7559,380.0342 Q2466.1465,379.8779 2466.5684,379.4404 Q2466.834,379.1748 2466.9824,379.0967 Q2467.1309,379.0186 2467.334,379.0186 Q2467.6621,379.0186 2467.9199,379.2764 Q2468.1777,379.5342 2468.1777,379.8779 Q2468.1777,380.2217 2467.834,380.6279 Q2467.334,381.2061 2466.5371,381.5342 Q2465.459,381.9873 2464.1621,381.9873 Q2462.6465,381.9873 2461.4434,381.3623 Q2460.459,380.8623 2459.7715,379.792 Q2459.084,378.7217 2459.084,377.4404 L2459.084,376.2842 Q2459.084,374.9561 2459.7012,373.8076 Q2460.3184,372.6592 2461.4121,372.042 Q2462.5059,371.4248 2463.7402,371.4248 Q2464.4746,371.4248 2465.123,371.5889 Q2465.7715,371.7529 2466.3184,372.1123 Z " fill="#000000"/><text fill="#000000" font-family="Verdana" font-size="14" lengthAdjust="spacing" textLength="128.1533" x="2481.0527" y="381.8052">AdminService_Ref</text><line style="stroke:#AA00AA;stroke-width:1.0;" x1="2424.5" x2="2638.2588" y1="390.2373" y2="390.2373"/><text fill="#000000" font-family="Verdana" font-size="14" lengthAdjust="spacing" textLength="193.8604" x="2429.5" y="408.3125">Optionen/Tokens verwalten</text><line style="stroke:#AA00AA;stroke-width:1.0;" x1="2424.5" x2="2638.2588" y1="415.252" y2="415.252"/><text fill="#000000" font-family="Verdana" font-size="14" lengthAdjust="spacing" textLength="203.7588" x="2429.5" y="433.3271">Fragen-Management (CRUD)</text></g><!--class UserDao_Ref--><g id="elem_UserDao_Ref"><rect codeLine="91" fill="#F8E8F8" height="61.0146" id="UserDao_Ref" rx="2.5" ry="2.5" style="stroke:#AA00AA;stroke-width:1.0;" width="119.4443" x="1611" y="565.2373"/><ellipse cx="1624" cy="579.2373" fill="#FFFFFF" rx="9" ry="9" style="stroke:#000000;stroke-width:1.0;"/><path d="M1626.7656,575.1123 Q1626.9219,574.8936 1627.1094,574.7842 Q1627.2969,574.6748 1627.5156,574.6748 Q1627.8906,574.6748 1628.125,574.9326 Q1628.3594,575.1904 1628.3594,575.7998 L1628.3594,577.2529 Q1628.3594,577.8623 1628.125,578.1279 Q1627.8906,578.3936 1627.5156,578.3936 Q1627.1719,578.3936 1626.9688,578.1904 Q1626.7656,578.0029 1626.6563,577.4873 Q1626.6094,577.1279 1626.4219,576.9404 Q1626.0938,576.5654 1625.4844,576.3467 Q1624.875,576.1279 1624.25,576.1279 Q1623.4844,576.1279 1622.8516,576.4561 Q1622.2188,576.7842 1621.7266,577.5342 Q1621.2344,578.2842 1621.2344,579.3154 L1621.2344,580.4092 Q1621.2344,581.6436 1622.125,582.4639 Q1623.0156,583.2842 1624.6094,583.2842 Q1625.5469,583.2842 1626.2031,583.0342 Q1626.5938,582.8779 1627.0156,582.4404 Q1627.2813,582.1748 1627.4297,582.0967 Q1627.5781,582.0186 1627.7813,582.0186 Q1628.1094,582.0186 1628.3672,582.2764 Q1628.625,582.5342 1628.625,582.8779 Q1628.625,583.2217 1628.2813,583.6279 Q1627.7813,584.2061 1626.9844,584.5342 Q1625.9063,584.9873 1624.6094,584.9873 Q1623.0938,584.9873 1621.8906,584.3623 Q1620.9063,583.8623 1620.2188,582.792 Q1619.5313,581.7217 1619.5313,580.4404 L1619.5313,579.2842 Q1619.5313,577.9561 1620.1484,576.8076 Q1620.7656,575.6592 1621.8594,575.042 Q1622.9531,574.4248 1624.1875,574.4248 Q1624.9219,574.4248 1625.5703,574.5889 Q1626.2188,574.7529 1626.7656,575.1123 Z " fill="#000000"/><text fill="#000000" font-family="Verdana" font-size="14" lengthAdjust="spacing" textLength="91.4443" x="1636" y="584.8052">UserDao_Ref</text><line style="stroke:#AA00AA;stroke-width:1.0;" x1="1612" x2="1729.4443" y1="593.2373" y2="593.2373"/><text fill="#000000" font-family="Verdana" font-size="14" lengthAdjust="spacing" textLength="90.6514" x="1617" y="611.3125">JdbcUserDao</text><line style="stroke:#AA00AA;stroke-width:1.0;" x1="1612" x2="1729.4443" y1="618.252" y2="618.252"/></g><!--class AnswerDao_Ref--><g id="elem_AnswerDao_Ref"><rect codeLine="94" fill="#F8E8F8" height="61.0146" id="AnswerDao_Ref" rx="2.5" ry="2.5" style="stroke:#AA00AA;stroke-width:1.0;" width="139.084" x="1765" y="565.2373"/><ellipse cx="1778" cy="579.2373" fill="#FFFFFF" rx="9" ry="9" style="stroke:#000000;stroke-width:1.0;"/><path d="M1780.7656,575.1123 Q1780.9219,574.8936 1781.1094,574.7842 Q1781.2969,574.6748 1781.5156,574.6748 Q1781.8906,574.6748 1782.125,574.9326 Q1782.3594,575.1904 1782.3594,575.7998 L1782.3594,577.2529 Q1782.3594,577.8623 1782.125,578.1279 Q1781.8906,578.3936 1781.5156,578.3936 Q1781.1719,578.3936 1780.9688,578.1904 Q1780.7656,578.0029 1780.6563,577.4873 Q1780.6094,577.1279 1780.4219,576.9404 Q1780.0938,576.5654 1779.4844,576.3467 Q1778.875,576.1279 1778.25,576.1279 Q1777.4844,576.1279 1776.8516,576.4561 Q1776.2188,576.7842 1775.7266,577.5342 Q1775.2344,578.2842 1775.2344,579.3154 L1775.2344,580.4092 Q1775.2344,581.6436 1776.125,582.4639 Q1777.0156,583.2842 1778.6094,583.2842 Q1779.5469,583.2842 1780.2031,583.0342 Q1780.5938,582.8779 1781.0156,582.4404 Q1781.2813,582.1748 1781.4297,582.0967 Q1781.5781,582.0186 1781.7813,582.0186 Q1782.1094,582.0186 1782.3672,582.2764 Q1782.625,582.5342 1782.625,582.8779 Q1782.625,583.2217 1782.2813,583.6279 Q1781.7813,584.2061 1780.9844,584.5342 Q1779.9063,584.9873 1778.6094,584.9873 Q1777.0938,584.9873 1775.8906,584.3623 Q1774.9063,583.8623 1774.2188,582.792 Q1773.5313,581.7217 1773.5313,580.4404 L1773.5313,579.2842 Q1773.5313,577.9561 1774.1484,576.8076 Q1774.7656,575.6592 1775.8594,575.042 Q1776.9531,574.4248 1778.1875,574.4248 Q1778.9219,574.4248 1779.5703,574.5889 Q1780.2188,574.7529 1780.7656,575.1123 Z " fill="#000000"/><text fill="#000000" font-family="Verdana" font-size="14" lengthAdjust="spacing" textLength="111.084" x="1790" y="584.8052">AnswerDao_Ref</text><line style="stroke:#AA00AA;stroke-width:1.0;" x1="1766" x2="1903.084" y1="593.2373" y2="593.2373"/><text fill="#000000" font-family="Verdana" font-size="14" lengthAdjust="spacing" textLength="110.291" x="1771" y="611.3125">JdbcAnswerDao</text><line style="stroke:#AA00AA;stroke-width:1.0;" x1="1766" x2="1903.084" y1="618.252" y2="618.252"/></g><!--class ClozeTokenDao_Ref--><g id="elem_ClozeTokenDao_Ref"><rect codeLine="97" fill="#F8E8F8" height="61.0146" id="ClozeTokenDao_Ref" rx="2.5" ry="2.5" style="stroke:#AA00AA;stroke-width:1.0;" width="168.0068" x="1939.5" y="565.2373"/><ellipse cx="1952.5" cy="579.2373" fill="#FFFFFF" rx="9" ry="9" style="stroke:#000000;stroke-width:1.0;"/><path d="M1955.2656,575.1123 Q1955.4219,574.8936 1955.6094,574.7842 Q1955.7969,574.6748 1956.0156,574.6748 Q1956.3906,574.6748 1956.625,574.9326 Q1956.8594,575.1904 1956.8594,575.7998 L1956.8594,577.2529 Q1956.8594,577.8623 1956.625,578.1279 Q1956.3906,578.3936 1956.0156,578.3936 Q1955.6719,578.3936 1955.4688,578.1904 Q1955.2656,578.0029 1955.1563,577.4873 Q1955.1094,577.1279 1954.9219,576.9404 Q1954.5938,576.5654 1953.9844,576.3467 Q1953.375,576.1279 1952.75,576.1279 Q1951.9844,576.1279 1951.3516,576.4561 Q1950.7188,576.7842 1950.2266,577.5342 Q1949.7344,578.2842 1949.7344,579.3154 L1949.7344,580.4092 Q1949.7344,581.6436 1950.625,582.4639 Q1951.5156,583.2842 1953.1094,583.2842 Q1954.0469,583.2842 1954.7031,583.0342 Q1955.0938,582.8779 1955.5156,582.4404 Q1955.7813,582.1748 1955.9297,582.0967 Q1956.0781,582.0186 1956.2813,582.0186 Q1956.6094,582.0186 1956.8672,582.2764 Q1957.125,582.5342 1957.125,582.8779 Q1957.125,583.2217 1956.7813,583.6279 Q1956.2813,584.2061 1955.4844,584.5342 Q1954.4063,584.9873 1953.1094,584.9873 Q1951.5938,584.9873 1950.3906,584.3623 Q1949.4063,583.8623 1948.7188,582.792 Q1948.0313,581.7217 1948.0313,580.4404 L1948.0313,579.2842 Q1948.0313,577.9561 1948.6484,576.8076 Q1949.2656,575.6592 1950.3594,575.042 Q1951.4531,574.4248 1952.6875,574.4248 Q1953.4219,574.4248 1954.0703,574.5889 Q1954.7188,574.7529 1955.2656,575.1123 Z " fill="#000000"/><text fill="#000000" font-family="Verdana" font-size="14" lengthAdjust="spacing" textLength="140.0068" x="1964.5" y="584.8052">ClozeTokenDao_Ref</text><line style="stroke:#AA00AA;stroke-width:1.0;" x1="1940.5" x2="2106.5068" y1="593.2373" y2="593.2373"/><text fill="#000000" font-family="Verdana" font-size="14" lengthAdjust="spacing" textLength="139.2139" x="1945.5" y="611.3125">JdbcClozeTokenDao</text><line style="stroke:#AA00AA;stroke-width:1.0;" x1="1940.5" x2="2106.5068" y1="618.252" y2="618.252"/></g><!--class AttemptDao_Ref--><g id="elem_AttemptDao_Ref"><rect codeLine="100" fill="#F8E8F8" height="61.0146" id="AttemptDao_Ref" rx="2.5" ry="2.5" style="stroke:#AA00AA;stroke-width:1.0;" width="144.3887" x="1610.5" y="740.7373"/><ellipse cx="1623.5" cy="754.7373" fill="#FFFFFF" rx="9" ry="9" style="stroke:#000000;stroke-width:1.0;"/><path d="M1626.2656,750.6123 Q1626.4219,750.3936 1626.6094,750.2842 Q1626.7969,750.1748 1627.0156,750.1748 Q1627.3906,750.1748 1627.625,750.4326 Q1627.8594,750.6904 1627.8594,751.2998 L1627.8594,752.7529 Q1627.8594,753.3623 1627.625,753.6279 Q1627.3906,753.8936 1627.0156,753.8936 Q1626.6719,753.8936 1626.4688,753.6904 Q1626.2656,753.5029 1626.1563,752.9873 Q1626.1094,752.6279 1625.9219,752.4404 Q1625.5938,752.0654 1624.9844,751.8467 Q1624.375,751.6279 1623.75,751.6279 Q1622.9844,751.6279 1622.3516,751.9561 Q1621.7188,752.2842 1621.2266,753.0342 Q1620.7344,753.7842 1620.7344,754.8154 L1620.7344,755.9092 Q1620.7344,757.1436 1621.625,757.9639 Q1622.5156,758.7842 1624.1094,758.7842 Q1625.0469,758.7842 1625.7031,758.5342 Q1626.0938,758.3779 1626.5156,757.9404 Q1626.7813,757.6748 1626.9297,757.5967 Q1627.0781,757.5186 1627.2813,757.5186 Q1627.6094,757.5186 1627.8672,757.7764 Q1628.125,758.0342 1628.125,758.3779 Q1628.125,758.7217 1627.7813,759.1279 Q1627.2813,759.7061 1626.4844,760.0342 Q1625.4063,760.4873 1624.1094,760.4873 Q1622.5938,760.4873 1621.3906,759.8623 Q1620.4063,759.3623 1619.7188,758.292 Q1619.0313,757.2217 1619.0313,755.9404 L1619.0313,754.7842 Q1619.0313,753.4561 1619.6484,752.3076 Q1620.2656,751.1592 1621.3594,750.542 Q1622.4531,749.9248 1623.6875,749.9248 Q1624.4219,749.9248 1625.0703,750.0889 Q1625.7188,750.2529 1626.2656,750.6123 Z " fill="#000000"/><text fill="#000000" font-family="Verdana" font-size="14" lengthAdjust="spacing" textLength="116.3887" x="1635.5" y="760.3052">AttemptDao_Ref</text><line style="stroke:#AA00AA;stroke-width:1.0;" x1="1611.5" x2="1753.8887" y1="768.7373" y2="768.7373"/><text fill="#000000" font-family="Verdana" font-size="14" lengthAdjust="spacing" textLength="115.5957" x="1616.5" y="786.8125">JdbcAttemptDao</text><line style="stroke:#AA00AA;stroke-width:1.0;" x1="1611.5" x2="1753.8887" y1="793.752" y2="793.752"/></g><!--class QuestionRepository_Ref--><g id="elem_QuestionRepository_Ref"><rect codeLine="103" fill="#F8E8F8" height="61.0146" id="QuestionRepository_Ref" rx="2.5" ry="2.5" style="stroke:#AA00AA;stroke-width:1.0;" width="196.8271" x="1790" y="740.7373"/><ellipse cx="1803" cy="754.7373" fill="#FFFFFF" rx="9" ry="9" style="stroke:#000000;stroke-width:1.0;"/><path d="M1805.7656,750.6123 Q1805.9219,750.3936 1806.1094,750.2842 Q1806.2969,750.1748 1806.5156,750.1748 Q1806.8906,750.1748 1807.125,750.4326 Q1807.3594,750.6904 1807.3594,751.2998 L1807.3594,752.7529 Q1807.3594,753.3623 1807.125,753.6279 Q1806.8906,753.8936 1806.5156,753.8936 Q1806.1719,753.8936 1805.9688,753.6904 Q1805.7656,753.5029 1805.6563,752.9873 Q1805.6094,752.6279 1805.4219,752.4404 Q1805.0938,752.0654 1804.4844,751.8467 Q1803.875,751.6279 1803.25,751.6279 Q1802.4844,751.6279 1801.8516,751.9561 Q1801.2188,752.2842 1800.7266,753.0342 Q1800.2344,753.7842 1800.2344,754.8154 L1800.2344,755.9092 Q1800.2344,757.1436 1801.125,757.9639 Q1802.0156,758.7842 1803.6094,758.7842 Q1804.5469,758.7842 1805.2031,758.5342 Q1805.5938,758.3779 1806.0156,757.9404 Q1806.2813,757.6748 1806.4297,757.5967 Q1806.5781,757.5186 1806.7813,757.5186 Q1807.1094,757.5186 1807.3672,757.7764 Q1807.625,758.0342 1807.625,758.3779 Q1807.625,758.7217 1807.2813,759.1279 Q1806.7813,759.7061 1805.9844,760.0342 Q1804.9063,760.4873 1803.6094,760.4873 Q1802.0938,760.4873 1800.8906,759.8623 Q1799.9063,759.3623 1799.2188,758.292 Q1798.5313,757.2217 1798.5313,755.9404 L1798.5313,754.7842 Q1798.5313,753.4561 1799.1484,752.3076 Q1799.7656,751.1592 1800.8594,750.542 Q1801.9531,749.9248 1803.1875,749.9248 Q1803.9219,749.9248 1804.5703,750.0889 Q1805.2188,750.2529 1805.7656,750.6123 Z " fill="#000000"/><text fill="#000000" font-family="Verdana" font-size="14" lengthAdjust="spacing" textLength="168.8271" x="1815" y="760.3052">QuestionRepository_Ref</text><line style="stroke:#AA00AA;stroke-width:1.0;" x1="1791" x2="1985.8271" y1="768.7373" y2="768.7373"/><text fill="#000000" font-family="Verdana" font-size="14" lengthAdjust="spacing" textLength="168.0342" x="1796" y="786.8125">JdbcQuestionRepository</text><line style="stroke:#AA00AA;stroke-width:1.0;" x1="1791" x2="1985.8271" y1="793.752" y2="793.752"/></g><!--class PostgreSQL--><g id="elem_PostgreSQL"><rect codeLine="109" fill="#F8E8F8" height="180.1172" id="PostgreSQL" rx="2.5" ry="2.5" style="stroke:#AA00AA;stroke-width:1.0;" width="134.165" x="3076.5" y="94.7373"/><ellipse cx="3100.7478" cy="108.7373" fill="#FFFFFF" rx="9" ry="9" style="stroke:#000000;stroke-width:1.0;"/><path d="M3103.5134,104.6123 Q3103.6697,104.3936 3103.8572,104.2842 Q3104.0447,104.1748 3104.2634,104.1748 Q3104.6384,104.1748 3104.8728,104.4326 Q3105.1072,104.6904 3105.1072,105.2998 L3105.1072,106.7529 Q3105.1072,107.3623 3104.8728,107.6279 Q3104.6384,107.8936 3104.2634,107.8936 Q3103.9197,107.8936 3103.7166,107.6904 Q3103.5134,107.5029 3103.4041,106.9873 Q3103.3572,106.6279 3103.1697,106.4404 Q3102.8416,106.0654 3102.2322,105.8467 Q3101.6228,105.6279 3100.9978,105.6279 Q3100.2322,105.6279 3099.5994,105.9561 Q3098.9666,106.2842 3098.4744,107.0342 Q3097.9822,107.7842 3097.9822,108.8154 L3097.9822,109.9092 Q3097.9822,111.1436 3098.8728,111.9639 Q3099.7634,112.7842 3101.3572,112.7842 Q3102.2947,112.7842 3102.9509,112.5342 Q3103.3416,112.3779 3103.7634,111.9404 Q3104.0291,111.6748 3104.1775,111.5967 Q3104.3259,111.5186 3104.5291,111.5186 Q3104.8572,111.5186 3105.115,111.7764 Q3105.3728,112.0342 3105.3728,112.3779 Q3105.3728,112.7217 3105.0291,113.1279 Q3104.5291,113.7061 3103.7322,114.0342 Q3102.6541,114.4873 3101.3572,114.4873 Q3099.8416,114.4873 3098.6384,113.8623 Q3097.6541,113.3623 3096.9666,112.292 Q3096.2791,111.2217 3096.2791,109.9404 L3096.2791,108.7842 Q3096.2791,107.4561 3096.8962,106.3076 Q3097.5134,105.1592 3098.6072,104.542 Q3099.7009,103.9248 3100.9353,103.9248 Q3101.6697,103.9248 3102.3181,104.0889 Q3102.9666,104.2529 3103.5134,104.6123 Z " fill="#000000"/><text fill="#000000" font-family="Verdana" font-size="14" lengthAdjust="spacing" textLength="81.1699" x="3115.2473" y="114.3052">PostgreSQL</text><line style="stroke:#AA00AA;stroke-width:1.0;" x1="3077.5" x2="3209.665" y1="122.7373" y2="122.7373"/><text fill="#000000" font-family="Verdana" font-size="14" lengthAdjust="spacing" textLength="37.7617" x="3082.5" y="140.8125">users</text><text fill="#000000" font-family="Verdana" font-size="14" lengthAdjust="spacing" textLength="67.2246" x="3082.5" y="157.8271">questions</text><text fill="#000000" font-family="Verdana" font-size="14" lengthAdjust="spacing" textLength="57.627" x="3082.5" y="174.8418">answers</text><text fill="#000000" font-family="Verdana" font-size="14" lengthAdjust="spacing" textLength="101.8555" x="3082.5" y="191.8564">cloze_answers</text><text fill="#000000" font-family="Verdana" font-size="14" lengthAdjust="spacing" textLength="62.9316" x="3082.5" y="208.8711">attempts</text><text fill="#000000" font-family="Verdana" font-size="14" lengthAdjust="spacing" textLength="122.165" x="3082.5" y="225.8857">attempt_answers</text><text fill="#000000" font-family="Verdana" font-size="14" lengthAdjust="spacing" textLength="119.0547" x="3082.5" y="242.9004">question_images</text><text fill="#000000" font-family="Verdana" font-size="14" lengthAdjust="spacing" textLength="42.1367" x="3082.5" y="259.915">config</text><line style="stroke:#AA00AA;stroke-width:1.0;" x1="3077.5" x2="3209.665" y1="266.8545" y2="266.8545"/></g><!--class DbConnectionManager--><g id="elem_DbConnectionManager"><rect codeLine="10" fill="#F8E8F8" height="129.0732" id="DbConnectionManager" rx="2.5" ry="2.5" style="stroke:#AA00AA;stroke-width:1.0;" width="237.3975" x="12" y="120.2373"/><ellipse cx="47.9663" cy="134.2373" fill="#FFFFFF" rx="9" ry="9" style="stroke:#000000;stroke-width:1.0;"/><path d="M50.7319,130.1123 Q50.8881,129.8936 51.0756,129.7842 Q51.2631,129.6748 51.4819,129.6748 Q51.8569,129.6748 52.0913,129.9326 Q52.3256,130.1904 52.3256,130.7998 L52.3256,132.2529 Q52.3256,132.8623 52.0913,133.1279 Q51.8569,133.3936 51.4819,133.3936 Q51.1381,133.3936 50.935,133.1904 Q50.7319,133.0029 50.6225,132.4873 Q50.5756,132.1279 50.3881,131.9404 Q50.06,131.5654 49.4506,131.3467 Q48.8413,131.1279 48.2163,131.1279 Q47.4506,131.1279 46.8178,131.4561 Q46.185,131.7842 45.6928,132.5342 Q45.2006,133.2842 45.2006,134.3154 L45.2006,135.4092 Q45.2006,136.6436 46.0913,137.4639 Q46.9819,138.2842 48.5756,138.2842 Q49.5131,138.2842 50.1694,138.0342 Q50.56,137.8779 50.9819,137.4404 Q51.2475,137.1748 51.3959,137.0967 Q51.5444,137.0186 51.7475,137.0186 Q52.0756,137.0186 52.3334,137.2764 Q52.5913,137.5342 52.5913,137.8779 Q52.5913,138.2217 52.2475,138.6279 Q51.7475,139.2061 50.9506,139.5342 Q49.8725,139.9873 48.5756,139.9873 Q47.06,139.9873 45.8569,139.3623 Q44.8725,138.8623 44.185,137.792 Q43.4975,136.7217 43.4975,135.4404 L43.4975,134.2842 Q43.4975,132.9561 44.1147,131.8076 Q44.7319,130.6592 45.8256,130.042 Q46.9194,129.4248 48.1538,129.4248 Q48.8881,129.4248 49.5366,129.5889 Q50.185,129.7529 50.7319,130.1123 Z " fill="#000000"/><text fill="#000000" font-family="Verdana" font-size="14" lengthAdjust="spacing" textLength="158.3613" x="65.0699" y="139.8052">DbConnectionManager</text><line style="stroke:#AA00AA;stroke-width:1.0;" x1="13" x2="248.3975" y1="148.2373" y2="148.2373"/><text fill="#000000" font-family="Verdana" font-size="14" lengthAdjust="spacing" textLength="57.75" x="30" y="166.3125">&#171;utility&#187;</text><rect fill="none" height="6" style="stroke:#000000;stroke-width:1.0;" width="6" x="20" y="176.2593"/><text fill="#000000" font-family="Verdana" font-size="14" lengthAdjust="spacing" text-decoration="underline" textLength="182.417" x="30" y="183.3271">PROPERTIES_FILE: String</text><rect fill="none" height="6" style="stroke:#000000;stroke-width:1.0;" width="6" x="20" y="193.2739"/><text fill="#000000" font-family="Verdana" font-size="14" lengthAdjust="spacing" text-decoration="underline" textLength="213.3975" x="30" y="200.3418">dataSource: HikariDataSource</text><line style="stroke:#AA00AA;stroke-width:1.0;" x1="13" x2="248.3975" y1="207.2813" y2="207.2813"/><rect fill="#FFFFFF" height="6" style="stroke:#000000;stroke-width:1.0;" width="6" x="20" y="218.2886"/><text fill="#000000" font-family="Verdana" font-size="14" lengthAdjust="spacing" textLength="171.0762" x="30" y="225.3564">DbConnectionManager()</text><ellipse cx="23" cy="238.3032" fill="#FFFFFF" rx="3" ry="3" style="stroke:#000000;stroke-width:1.0;"/><text fill="#000000" font-family="Verdana" font-size="14" lengthAdjust="spacing" text-decoration="underline" textLength="209.8838" x="30" y="242.3711">getDataSource(): DataSource</text></g><!--class PasswordUtils--><g id="elem_PasswordUtils"><rect codeLine="19" fill="#F8E8F8" height="180.1172" id="PasswordUtils" rx="2.5" ry="2.5" style="stroke:#AA00AA;stroke-width:1.0;" width="615.5137" x="594.5" y="94.7373"/><ellipse cx="850.0913" cy="108.7373" fill="#FFFFFF" rx="9" ry="9" style="stroke:#000000;stroke-width:1.0;"/><path d="M852.8569,104.6123 Q853.0132,104.3936 853.2007,104.2842 Q853.3882,104.1748 853.6069,104.1748 Q853.9819,104.1748 854.2163,104.4326 Q854.4507,104.6904 854.4507,105.2998 L854.4507,106.7529 Q854.4507,107.3623 854.2163,107.6279 Q853.9819,107.8936 853.6069,107.8936 Q853.2632,107.8936 853.0601,107.6904 Q852.8569,107.5029 852.7476,106.9873 Q852.7007,106.6279 852.5132,106.4404 Q852.1851,106.0654 851.5757,105.8467 Q850.9663,105.6279 850.3413,105.6279 Q849.5757,105.6279 848.9429,105.9561 Q848.3101,106.2842 847.8179,107.0342 Q847.3257,107.7842 847.3257,108.8154 L847.3257,109.9092 Q847.3257,111.1436 848.2163,111.9639 Q849.1069,112.7842 850.7007,112.7842 Q851.6382,112.7842 852.2944,112.5342 Q852.6851,112.3779 853.1069,111.9404 Q853.3726,111.6748 853.521,111.5967 Q853.6694,111.5186 853.8726,111.5186 Q854.2007,111.5186 854.4585,111.7764 Q854.7163,112.0342 854.7163,112.3779 Q854.7163,112.7217 854.3726,113.1279 Q853.8726,113.7061 853.0757,114.0342 Q851.9976,114.4873 850.7007,114.4873 Q849.1851,114.4873 847.9819,113.8623 Q846.9976,113.3623 846.3101,112.292 Q845.6226,111.2217 845.6226,109.9404 L845.6226,108.7842 Q845.6226,107.4561 846.2397,106.3076 Q846.8569,105.1592 847.9507,104.542 Q849.0444,103.9248 850.2788,103.9248 Q851.0132,103.9248 851.6616,104.0889 Q852.3101,104.2529 852.8569,104.6123 Z " fill="#000000"/><text fill="#000000" font-family="Verdana" font-size="14" lengthAdjust="spacing" textLength="96.8311" x="867.5913" y="114.3052">PasswordUtils</text><line style="stroke:#AA00AA;stroke-width:1.0;" x1="595.5" x2="1209.0137" y1="122.7373" y2="122.7373"/><text fill="#000000" font-family="Verdana" font-size="14" lengthAdjust="spacing" textLength="57.75" x="612.5" y="140.8125">&#171;utility&#187;</text><rect fill="none" height="6" style="stroke:#000000;stroke-width:1.0;" width="6" x="602.5" y="150.7593"/><text fill="#000000" font-family="Verdana" font-size="14" lengthAdjust="spacing" text-decoration="underline" textLength="190.5791" x="612.5" y="157.8271">DEFAULT_ITERATIONS: int</text><line style="stroke:#AA00AA;stroke-width:1.0;" x1="595.5" x2="1209.0137" y1="164.7666" y2="164.7666"/><rect fill="#FFFFFF" height="6" style="stroke:#000000;stroke-width:1.0;" width="6" x="602.5" y="175.7739"/><text fill="#000000" font-family="Verdana" font-size="14" lengthAdjust="spacing" textLength="109.5459" x="612.5" y="182.8418">PasswordUtils()</text><ellipse cx="605.5" cy="195.7886" fill="#FFFFFF" rx="3" ry="3" style="stroke:#000000;stroke-width:1.0;"/><text fill="#000000" font-family="Verdana" font-size="14" lengthAdjust="spacing" text-decoration="underline" textLength="183.4629" x="612.5" y="199.8564">generateSaltHex(): String</text><ellipse cx="605.5" cy="212.8032" fill="#FFFFFF" rx="3" ry="3" style="stroke:#000000;stroke-width:1.0;"/><text fill="#000000" font-family="Verdana" font-size="14" lengthAdjust="spacing" text-decoration="underline" textLength="389.3955" x="612.5" y="216.8711">hashPassword(String password, String saltHex): String</text><ellipse cx="605.5" cy="229.8179" fill="#FFFFFF" rx="3" ry="3" style="stroke:#000000;stroke-width:1.0;"/><text fill="#000000" font-family="Verdana" font-size="14" lengthAdjust="spacing" text-decoration="underline" textLength="488.6396" x="612.5" y="233.8857">hashPassword(String password, String saltHex, int iterations): String</text><ellipse cx="605.5" cy="246.8325" fill="#FFFFFF" rx="3" ry="3" style="stroke:#000000;stroke-width:1.0;"/><text fill="#000000" font-family="Verdana" font-size="14" lengthAdjust="spacing" text-decoration="underline" textLength="591.5137" x="612.5" y="250.9004">verifyPassword(String password, String saltHex, String expectedHashHex): boolean</text><rect fill="#FFFFFF" height="6" style="stroke:#000000;stroke-width:1.0;" width="6" x="602.5" y="260.8472"/><text fill="#000000" font-family="Verdana" font-size="14" lengthAdjust="spacing" text-decoration="underline" textLength="194.2979" x="612.5" y="267.915">toHex(byte[] bytes): String</text></g><!--class HikariDataSource--><g id="elem_HikariDataSource"><rect fill="#F8E8F8" height="44" id="HikariDataSource" rx="2.5" ry="2.5" style="stroke:#AA00AA;stroke-width:1.0;" width="150.5273" x="13" y="379.2373"/><ellipse cx="26" cy="393.2373" fill="#FFFFFF" rx="9" ry="9" style="stroke:#000000;stroke-width:1.0;"/><path d="M28.7656,389.1123 Q28.9219,388.8936 29.1094,388.7842 Q29.2969,388.6748 29.5156,388.6748 Q29.8906,388.6748 30.125,388.9326 Q30.3594,389.1904 30.3594,389.7998 L30.3594,391.2529 Q30.3594,391.8623 30.125,392.1279 Q29.8906,392.3936 29.5156,392.3936 Q29.1719,392.3936 28.9688,392.1904 Q28.7656,392.0029 28.6563,391.4873 Q28.6094,391.1279 28.4219,390.9404 Q28.0938,390.5654 27.4844,390.3467 Q26.875,390.1279 26.25,390.1279 Q25.4844,390.1279 24.8516,390.4561 Q24.2188,390.7842 23.7266,391.5342 Q23.2344,392.2842 23.2344,393.3154 L23.2344,394.4092 Q23.2344,395.6436 24.125,396.4639 Q25.0156,397.2842 26.6094,397.2842 Q27.5469,397.2842 28.2031,397.0342 Q28.5938,396.8779 29.0156,396.4404 Q29.2813,396.1748 29.4297,396.0967 Q29.5781,396.0186 29.7813,396.0186 Q30.1094,396.0186 30.3672,396.2764 Q30.625,396.5342 30.625,396.8779 Q30.625,397.2217 30.2813,397.6279 Q29.7813,398.2061 28.9844,398.5342 Q27.9063,398.9873 26.6094,398.9873 Q25.0938,398.9873 23.8906,398.3623 Q22.9063,397.8623 22.2188,396.792 Q21.5313,395.7217 21.5313,394.4404 L21.5313,393.2842 Q21.5313,391.9561 22.1484,390.8076 Q22.7656,389.6592 23.8594,389.042 Q24.9531,388.4248 26.1875,388.4248 Q26.9219,388.4248 27.5703,388.5889 Q28.2188,388.7529 28.7656,389.1123 Z " fill="#000000"/><text fill="#000000" font-family="Verdana" font-size="14" lengthAdjust="spacing" textLength="122.5273" x="38" y="398.8052">HikariDataSource</text><line style="stroke:#AA00AA;stroke-width:1.0;" x1="14" x2="162.5273" y1="407.2373" y2="407.2373"/><line style="stroke:#AA00AA;stroke-width:1.0;" x1="14" x2="162.5273" y1="415.2373" y2="415.2373"/></g><g id="elem_GMN28"><path d="M284,116.7373 L284,180.7373 L249,184.7373 L284,188.7373 L284,253.1318 A0,0 0 0 0 284,253.1318 L559.2427,253.1318 A0,0 0 0 0 559.2427,253.1318 L559.2427,126.7373 L549.2427,116.7373 L284,116.7373 A0,0 0 0 0 284,116.7373 " fill="#FFFFFF" style="stroke:#000000;stroke-width:1.0;"/><path d="M549.2427,116.7373 L549.2427,126.7373 L559.2427,126.7373 L549.2427,116.7373 " fill="#FFFFFF" style="stroke:#000000;stroke-width:1.0;"/><text fill="#000000" font-family="Verdana" font-size="13" lengthAdjust="spacing" textLength="254.2427" x="290" y="134.8071">Utility Class (keine Singleton-Instanz):</text><text fill="#000000" font-family="Verdana" font-size="13" lengthAdjust="spacing" textLength="165.0327" x="290" y="150.6064">- Nur statische Methoden</text><text fill="#000000" font-family="Verdana" font-size="13" lengthAdjust="spacing" textLength="241.1665" x="290" y="166.4058">- Verwaltet HikariCP Connection Pool</text><text fill="#000000" font-family="Verdana" font-size="13" lengthAdjust="spacing" textLength="250.0723" x="290" y="182.2051">- L&#228;dt Konfiguration aus db.properties</text><text fill="#000000" font-family="Verdana" font-size="13" lengthAdjust="spacing" textLength="4.5703" x="290" y="198.0044">&#160;</text><text fill="#000000" font-family="Verdana" font-size="13" lengthAdjust="spacing" textLength="97.0049" x="290" y="213.8037">Eigenschaften:</text><text fill="#000000" font-family="Verdana" font-size="13" lengthAdjust="spacing" textLength="124.9536" x="290" y="229.603">- Lazy Initialization</text><text fill="#000000" font-family="Verdana" font-size="13" lengthAdjust="spacing" textLength="220.3208" x="290" y="245.4023">- Thread-safe durch synchronized</text></g><g id="elem_GMN31"><path d="M1245.5,140.2373 L1245.5,180.7373 L1210.96,184.7373 L1245.5,188.7373 L1245.5,229.2339 A0,0 0 0 0 1245.5,229.2339 L1557.083,229.2339 A0,0 0 0 0 1557.083,229.2339 L1557.083,150.2373 L1547.083,140.2373 L1245.5,140.2373 A0,0 0 0 0 1245.5,140.2373 " fill="#FFFFFF" style="stroke:#000000;stroke-width:1.0;"/><path d="M1547.083,140.2373 L1547.083,150.2373 L1557.083,150.2373 L1547.083,140.2373 " fill="#FFFFFF" style="stroke:#000000;stroke-width:1.0;"/><text fill="#000000" font-family="Verdana" font-size="13" lengthAdjust="spacing" textLength="132.5327" x="1251.5" y="158.3071">Sicherheits-Utilities:</text><text fill="#000000" font-family="Verdana" font-size="13" lengthAdjust="spacing" textLength="181.6128" x="1251.5" y="174.1064">- SHA-256 Hashing mit Salt</text><text fill="#000000" font-family="Verdana" font-size="13" lengthAdjust="spacing" textLength="200.2305" x="1251.5" y="189.9058">- Iteratives Hashing (10.000x)</text><text fill="#000000" font-family="Verdana" font-size="13" lengthAdjust="spacing" textLength="219.8257" x="1251.5" y="205.7051">- Hex-Encoding f&#252;r Salt und Hash</text><text fill="#000000" font-family="Verdana" font-size="13" lengthAdjust="spacing" textLength="290.583" x="1251.5" y="221.5044">- Sichere Salt-Generierung (SecureRandom)</text></g><g id="elem_GMN34"><path d="M199,356.7373 L199,445.7339 L437.585,445.7339 L437.585,366.7373 L427.585,356.7373 L199,356.7373 " fill="#FFFFFF" style="stroke:#000000;stroke-width:1.0;"/><path d="M427.585,356.7373 L427.585,366.7373 L437.585,366.7373 L427.585,356.7373 " fill="#FFFFFF" style="stroke:#000000;stroke-width:1.0;"/><text fill="#000000" font-family="Verdana" font-size="13" lengthAdjust="spacing" textLength="173.9385" x="205" y="374.8071">Verwendete Technologien:</text><text fill="#000000" font-family="Verdana" font-size="13" lengthAdjust="spacing" textLength="174.4146" x="205" y="390.6064">- HikariCP Connection Pool</text><text fill="#000000" font-family="Verdana" font-size="13" lengthAdjust="spacing" textLength="169.019" x="205" y="406.4058">- PostgreSQL JDBC Driver</text><text fill="#000000" font-family="Verdana" font-size="13" lengthAdjust="spacing" textLength="196.9233" x="205" y="422.2051">- Properties-File Konfiguration</text><text fill="#000000" font-family="Verdana" font-size="13" lengthAdjust="spacing" textLength="217.585" x="205" y="438.0044">- Thread-Safe Static Initialization</text></g><g id="elem_GMN37"><path d="M161.5,511.7373 L161.5,679.7305 L475.4951,679.7305 L475.4951,521.7373 L465.4951,511.7373 L161.5,511.7373 " fill="#FFFFFF" style="stroke:#000000;stroke-width:1.0;"/><path d="M465.4951,511.7373 L465.4951,521.7373 L475.4951,521.7373 L465.4951,511.7373 " fill="#FFFFFF" style="stroke:#000000;stroke-width:1.0;"/><text fill="#000000" font-family="Verdana" font-size="13" font-weight="bold" lengthAdjust="spacing" textLength="73.7915" x="167.5" y="529.8071">WICHTIG:</text><text fill="#000000" font-family="Verdana" font-size="13" lengthAdjust="spacing" textLength="292.9951" x="167.5" y="545.6064">Es gibt KEINE folgenden Klassen im System:</text><text fill="#000000" font-family="Verdana" font-size="13" lengthAdjust="spacing" textLength="160.8369" x="167.5" y="561.4058">- Logger (eigene Klasse)</text><text fill="#000000" font-family="Verdana" font-size="13" lengthAdjust="spacing" textLength="108.0942" x="167.5" y="577.2051">- ConfigManager</text><text fill="#000000" font-family="Verdana" font-size="13" lengthAdjust="spacing" textLength="103.562" x="167.5" y="593.0044">- ValidationUtils</text><text fill="#000000" font-family="Verdana" font-size="13" lengthAdjust="spacing" textLength="124.5728" x="167.5" y="608.8037">- ExceptionHandler</text><text fill="#000000" font-family="Verdana" font-size="13" lengthAdjust="spacing" textLength="105.5171" x="167.5" y="624.603">- ErrorResponse</text><text fill="#000000" font-family="Verdana" font-size="13" lengthAdjust="spacing" textLength="4.5703" x="167.5" y="640.4023">&#160;</text><text fill="#000000" font-family="Verdana" font-size="13" lengthAdjust="spacing" textLength="242.3662" x="167.5" y="656.2017">Logging erfolgt &#252;ber java.util.logging</text><text fill="#000000" font-family="Verdana" font-size="13" lengthAdjust="spacing" textLength="209.79" x="167.5" y="672.001">oder Servlet-Container Logging.</text></g><!--link DbConnectionManager to HikariDataSource--><g id="link_DbConnectionManager_HikariDataSource"><path codeLine="123" d="M118.01,249.5173 C109.4,293.4773 99.6539,343.2893 93.8039,373.1393 " fill="none" id="DbConnectionManager-to-HikariDataSource" style="stroke:#AA00AA;stroke-width:1.0;"/><polygon fill="#AA00AA" points="92.65,379.0273,98.3062,370.9646,93.6116,374.1206,90.4556,369.426,92.65,379.0273" style="stroke:#AA00AA;stroke-width:1.0;"/><text fill="#000000" font-family="Verdana" font-size="13" lengthAdjust="spacing" textLength="59.103" x="107.5" y="320.8071">manages</text></g><!--link DbConnectionManager to GMN34--><g id="link_DbConnectionManager_GMN34"><path d="M186.4,249.5173 C216.6,283.9673 253.11,325.6273 280.09,356.4073 " fill="none" id="DbConnectionManager-GMN34" style="stroke:#AA00AA;stroke-width:1.0;stroke-dasharray:7.0,7.0;"/></g><!--link GMN34 to GMN37--><g id="link_GMN34_GMN37"><path d="M318.5,445.9173 C318.5,465.3273 318.5,488.8573 318.5,511.4173 " fill="none" id="GMN34-GMN37" style="stroke:#AA00AA;stroke-width:1.0;stroke-dasharray:7.0,7.0;"/></g><!--SRC=[fLVRRjj647tNLqnJe9NTq7OAf0Y4D00ZqH4J9LP4EKPH5CAA78aRaxlCxjAs7FXF-jZFo9j_hBDBwa9TWW8rVDkPsPcpSzSF9iKSeSWO5orzpKN15CiXpfZMhrbyFLUo54bNPbB1Z-SlWXVdBtR4f4fGrIA-VtRc-ziYlbBozf34J0eJyNk4PyzQBSDDXd35jKQX3Me37hopAb0adCr9FeSnyWoUT-3Iy8oR1NGTNmC11L_5AJTuRKhbFVuzHQLvd9fMwsVuVSyNN8x3GJZ-0xe3Fug2QAzGopq1UjEk509ZmwLupmIReuAlBO2NByiAnwjNTFA-QiCCZnzWEBeO1gDn64IJyt0GT20oYejvGoPXXaMoL35seC-lcUAz5SKAUlRN7iFj8sByib8pHxE-rpxgm8QMXrQDVqY_RYbKrclwkyXxmRb_EHXFmd4myiVXnOUe0roO5Q26fXqe0XKp6B7CzF7EWbczUosLCfqkjRGhFXJr-Mbz0NIbulzhU6hH0sK50ICVwlqQRr3nsUA_wwpFU5TGQ33f4w0AxLJA39bekDH8wupfmk2VVu7zim7YuM1s-gDkduBG7L-E0hZu58m-XS7L_Xmjg5OfC-39K27LYd4lXG5Re7hYWbqbmTjeE1bZJkLE41mTo3a9tfryreKxPNBEnUgaSCwf3DMAO4joL58whaaioRaOCe7PMWao9TxB15UKMSQBBbD9JNYWdpKeTiEYMF72J7mgPBC4neg2n7VDhgqk3rPxN6btoicbAuTSuVGqGdMJeTdrXr-Qj6PEHZYh3P-oWfyoOfqUrrWhwJ6XE21j0Mv9-nRX8UMMjoKVveJtW3otFBrreO-KY_lWfuwnumahoMCyx0LYRgYnLCea7hjSSgHbTK3LXt9qNM7NGKr5lOLWEOyT5zvK3MAfqT62EupB5IcAfQkid-2DOabLfciJGoNdbEAQfFT2bfxDErAItcAMtQ8oXNhyDYkT6W2ToZ9BI4ak3ROTaACDHW-Rz3tHR5eyL-G7uQtz0UtkwB9NwRmexADGd8xbDOqpss9kAJ8eTaBJyozsmtAfKVMOtB3sDfd6DRK9JkZRVR8hUaEwcybxT91sRpHuJHl6KECmUuoi60tvZoM5bfu_ma9gRgHQRDtR5TXr2ysnNRyCfJQK0z77GQsj99TKZU1BhRFk4UxvrV-nVTXaay8gt8r3Gs2fR59LNwL6YXcVBu4UwDkZO53DpNuuFB1JjFQj4vxtQcSDW0xaZgrRBK6v2OhFKmDojcyX8LoDfGZQryW5LGDL4VK8ARoGjYecxeywTZp1XrA16r4wJX7UeqcfTjpaWazrhfeQKNS8QtCK0faviS7ZFuc1TyuhPLNNm4eDoVIaKBAWykFES_GTSAeKCiHcL06L_G6xNq0ekE4iu_VBhk31E5N84a-p6K92NaX1BqISAYbeJqnQj0k2zSMsHngB2IcAQFT3bI8tsglyGc0gor7Vztvz_XlOiMsRJSuDs9t5CSDgLRYX4Rdajv-TdPoTdTqTEG4QvbuWOccx4ymUlobtrosWza9bmHb7n_5Sr-EeIgigecwdSCH48lEZxSTCfJ4oFnnV6nUwWYGwnZWLqWxifJ-_6wgDiddRUzs5dg8Ngegr2fLtpcd_RiHpCoAHZKZabfhjkErz1zqzFhuAk_rn-APpRCTNe67EfvGoGVWXeDq_czlNYEMI3po7Q44hHrvdY9pRocYZJHwifQeWT1t8jMSePmbDuj0iCy2ZsHAZQyDzydTM2mRqUKIDK1VKAR3AJcl8xNFAOZBm-8q-FC1dMarEx9PyabLyagGIeNXNKzSZ48O-EX6bLd2oTiI_]--></g></svg>