<svg xmlns="http://www.w3.org/2000/svg" xmlns:xlink="http://www.w3.org/1999/xlink" contentStyleType="text/css" height="765px" preserveAspectRatio="none" style="width:3837px;height:765px;background:#FFFFFF;" version="1.1" viewBox="0 0 3837 765" width="3837px" zoomAndPan="magnify"><title>Wissenstest - Klassendiagramm Teil 4: Servlet Layer (Controller)</title><defs/><g><text fill="#000000" font-family="Verdana" font-size="22" font-weight="bold" lengthAdjust="spacing" textLength="806.0078" x="1511.0356" y="37.1182">Wissenstest - Klassendiagramm Teil 4: Servlet Layer (Controller)</text><!--class HttpServlet--><g id="elem_HttpServlet"><rect codeLine="11" fill="#E8F8E8" height="112.0586" id="HttpServlet" rx="2.5" ry="2.5" style="stroke:#00AA00;stroke-width:1.0;" width="433.917" x="1520.5" y="646.7373"/><ellipse cx="1693.6431" cy="660.7373" fill="#FFFFFF" rx="9" ry="9" style="stroke:#000000;stroke-width:1.0;"/><path d="M1695.8306,662.5029 L1691.6899,662.5029 L1691.2681,663.5342 L1691.6899,663.5342 Q1692.2993,663.5342 1692.5649,663.7686 Q1692.8306,664.0029 1692.8306,664.3936 Q1692.8306,664.7686 1692.5649,665.0029 Q1692.2993,665.2373 1691.6899,665.2373 L1689.3931,665.2373 Q1688.7837,665.2373 1688.5259,665.0029 Q1688.2681,664.7686 1688.2681,664.3779 Q1688.2681,664.0029 1688.5415,663.7607 Q1688.8149,663.5186 1689.4399,663.5342 L1692.1118,656.8779 L1691.0024,656.8779 Q1690.3931,656.8779 1690.1274,656.6436 Q1689.8618,656.4092 1689.8618,656.0186 Q1689.8618,655.6436 1690.1274,655.4092 Q1690.3931,655.1748 1691.0024,655.1748 L1694.6743,655.1748 L1698.0649,663.5342 Q1698.6587,663.5342 1698.8462,663.6748 Q1699.2368,663.9404 1699.2368,664.3936 Q1699.2368,664.7686 1698.979,665.0029 Q1698.7212,665.2373 1698.1118,665.2373 L1695.8149,665.2373 Q1695.2056,665.2373 1694.9399,665.0029 Q1694.6743,664.7686 1694.6743,664.3779 Q1694.6743,664.0029 1694.9399,663.7686 Q1695.2056,663.5342 1695.8149,663.5342 L1696.2368,663.5342 L1695.8306,662.5029 Z M1695.1118,660.7998 L1693.7524,657.4248 L1692.3774,660.7998 L1695.1118,660.7998 Z " fill="#000000"/><text fill="#000000" font-family="Verdana" font-size="14" font-style="italic" lengthAdjust="spacing" textLength="80.1309" x="1711.1431" y="666.3052">HttpServlet</text><line style="stroke:#00AA00;stroke-width:1.0;" x1="1521.5" x2="1953.417" y1="674.7373" y2="674.7373"/><line style="stroke:#00AA00;stroke-width:1.0;" x1="1521.5" x2="1953.417" y1="682.7373" y2="682.7373"/><polygon fill="#FFFFFF" points="1531.5,691.7446,1535.5,695.7446,1531.5,699.7446,1527.5,695.7446" style="stroke:#000000;stroke-width:1.0;"/><text fill="#000000" font-family="Verdana" font-size="14" lengthAdjust="spacing" textLength="389.4639" x="1538.5" y="700.8125">doGet(HttpServletRequest, HttpServletResponse): void</text><polygon fill="#FFFFFF" points="1531.5,708.7593,1535.5,712.7593,1531.5,716.7593,1527.5,712.7593" style="stroke:#000000;stroke-width:1.0;"/><text fill="#000000" font-family="Verdana" font-size="14" lengthAdjust="spacing" textLength="394.502" x="1538.5" y="717.8271">doPost(HttpServletRequest, HttpServletResponse): void</text><polygon fill="#FFFFFF" points="1531.5,725.7739,1535.5,729.7739,1531.5,733.7739,1527.5,729.7739" style="stroke:#000000;stroke-width:1.0;"/><text fill="#000000" font-family="Verdana" font-size="14" lengthAdjust="spacing" textLength="387.5703" x="1538.5" y="734.8418">doPut(HttpServletRequest, HttpServletResponse): void</text><polygon fill="#FFFFFF" points="1531.5,742.7886,1535.5,746.7886,1531.5,750.7886,1527.5,746.7886" style="stroke:#000000;stroke-width:1.0;"/><text fill="#000000" font-family="Verdana" font-size="14" lengthAdjust="spacing" textLength="409.917" x="1538.5" y="751.8564">doDelete(HttpServletRequest, HttpServletResponse): void</text></g><!--class AuthServlet--><g id="elem_AuthServlet"><rect codeLine="19" fill="#E8F8E8" height="192.1172" id="AuthServlet" rx="2.5" ry="2.5" style="stroke:#00AA00;stroke-width:1.0;" width="418.502" x="14" y="227.2373"/><ellipse cx="178.1641" cy="241.2373" fill="#FFFFFF" rx="9" ry="9" style="stroke:#000000;stroke-width:1.0;"/><path d="M180.9297,237.1123 Q181.0859,236.8936 181.2734,236.7842 Q181.4609,236.6748 181.6797,236.6748 Q182.0547,236.6748 182.2891,236.9326 Q182.5234,237.1904 182.5234,237.7998 L182.5234,239.2529 Q182.5234,239.8623 182.2891,240.1279 Q182.0547,240.3936 181.6797,240.3936 Q181.3359,240.3936 181.1328,240.1904 Q180.9297,240.0029 180.8203,239.4873 Q180.7734,239.1279 180.5859,238.9404 Q180.2578,238.5654 179.6484,238.3467 Q179.0391,238.1279 178.4141,238.1279 Q177.6484,238.1279 177.0156,238.4561 Q176.3828,238.7842 175.8906,239.5342 Q175.3984,240.2842 175.3984,241.3154 L175.3984,242.4092 Q175.3984,243.6436 176.2891,244.4639 Q177.1797,245.2842 178.7734,245.2842 Q179.7109,245.2842 180.3672,245.0342 Q180.7578,244.8779 181.1797,244.4404 Q181.4453,244.1748 181.5938,244.0967 Q181.7422,244.0186 181.9453,244.0186 Q182.2734,244.0186 182.5313,244.2764 Q182.7891,244.5342 182.7891,244.8779 Q182.7891,245.2217 182.4453,245.6279 Q181.9453,246.2061 181.1484,246.5342 Q180.0703,246.9873 178.7734,246.9873 Q177.2578,246.9873 176.0547,246.3623 Q175.0703,245.8623 174.3828,244.792 Q173.6953,243.7217 173.6953,242.4404 L173.6953,241.2842 Q173.6953,239.9561 174.3125,238.8076 Q174.9297,237.6592 176.0234,237.042 Q177.1172,236.4248 178.3516,236.4248 Q179.0859,236.4248 179.7344,236.5889 Q180.3828,236.7529 180.9297,237.1123 Z " fill="#000000"/><text fill="#000000" font-family="Verdana" font-size="14" lengthAdjust="spacing" textLength="82.6738" x="195.6641" y="246.8052">AuthServlet</text><line style="stroke:#00AA00;stroke-width:1.0;" x1="15" x2="431.502" y1="255.2373" y2="255.2373"/><rect fill="none" height="6" style="stroke:#000000;stroke-width:1.0;" width="6" x="22" y="266.2446"/><text fill="#000000" font-family="Verdana" font-size="14" lengthAdjust="spacing" textLength="179.0195" x="32" y="273.3125">authService: AuthService</text><line style="stroke:#00AA00;stroke-width:1.0;" x1="15" x2="431.502" y1="280.252" y2="280.252"/><polygon fill="#FFFFFF" points="25,289.2593,29,293.2593,25,297.2593,21,293.2593" style="stroke:#000000;stroke-width:1.0;"/><text fill="#000000" font-family="Verdana" font-size="14" lengthAdjust="spacing" textLength="394.502" x="32" y="298.3271">doPost(HttpServletRequest, HttpServletResponse): void</text><text fill="#000000" font-family="Verdana" font-size="14" lengthAdjust="spacing" textLength="125.6924" x="20" y="336.3564">/api/auth/register</text><text fill="#000000" font-family="Verdana" font-size="14" lengthAdjust="spacing" textLength="105.4512" x="20" y="353.3711">/api/auth/login</text><text fill="#000000" font-family="Verdana" font-size="14" lengthAdjust="spacing" textLength="115.623" x="20" y="370.3857">/api/auth/logout</text><text fill="#000000" font-family="Verdana" font-size="14" lengthAdjust="spacing" textLength="166.5576" x="20" y="387.4004">/api/auth/reset-request</text><line style="stroke:#00AA00;stroke-width:1.0;stroke-dasharray:1.0,2.0;" x1="15" x2="161.02" y1="313.7739" y2="313.7739"/><text fill="#000000" font-family="Verdana" font-size="14" lengthAdjust="spacing" textLength="124.4619" x="161.02" y="318.8418">Endpoints (POST)</text><line style="stroke:#00AA00;stroke-width:1.0;stroke-dasharray:1.0,2.0;" x1="285.4819" x2="431.502" y1="313.7739" y2="313.7739"/><line style="stroke:#00AA00;stroke-width:1.0;" x1="15" x2="431.502" y1="394.3398" y2="394.3398"/><rect fill="#FFFFFF" height="6" style="stroke:#000000;stroke-width:1.0;" width="6" x="22" y="405.3472"/><text fill="#000000" font-family="Verdana" font-size="14" lengthAdjust="spacing" textLength="254.0303" x="32" y="412.415">setSession(HttpSession, User): void</text></g><!--class TestServlet--><g id="elem_TestServlet"><rect codeLine="32" fill="#E8F8E8" height="349.249" id="TestServlet" rx="2.5" ry="2.5" style="stroke:#00AA00;stroke-width:1.0;" width="429.8018" x="729.5" y="148.7373"/><ellipse cx="900.8281" cy="162.7373" fill="#FFFFFF" rx="9" ry="9" style="stroke:#000000;stroke-width:1.0;"/><path d="M903.5938,158.6123 Q903.75,158.3936 903.9375,158.2842 Q904.125,158.1748 904.3438,158.1748 Q904.7188,158.1748 904.9531,158.4326 Q905.1875,158.6904 905.1875,159.2998 L905.1875,160.7529 Q905.1875,161.3623 904.9531,161.6279 Q904.7188,161.8936 904.3438,161.8936 Q904,161.8936 903.7969,161.6904 Q903.5938,161.5029 903.4844,160.9873 Q903.4375,160.6279 903.25,160.4404 Q902.9219,160.0654 902.3125,159.8467 Q901.7031,159.6279 901.0781,159.6279 Q900.3125,159.6279 899.6797,159.9561 Q899.0469,160.2842 898.5547,161.0342 Q898.0625,161.7842 898.0625,162.8154 L898.0625,163.9092 Q898.0625,165.1436 898.9531,165.9639 Q899.8438,166.7842 901.4375,166.7842 Q902.375,166.7842 903.0313,166.5342 Q903.4219,166.3779 903.8438,165.9404 Q904.1094,165.6748 904.2578,165.5967 Q904.4063,165.5186 904.6094,165.5186 Q904.9375,165.5186 905.1953,165.7764 Q905.4531,166.0342 905.4531,166.3779 Q905.4531,166.7217 905.1094,167.1279 Q904.6094,167.7061 903.8125,168.0342 Q902.7344,168.4873 901.4375,168.4873 Q899.9219,168.4873 898.7188,167.8623 Q897.7344,167.3623 897.0469,166.292 Q896.3594,165.2217 896.3594,163.9404 L896.3594,162.7842 Q896.3594,161.4561 896.9766,160.3076 Q897.5938,159.1592 898.6875,158.542 Q899.7813,157.9248 901.0156,157.9248 Q901.75,157.9248 902.3984,158.0889 Q903.0469,158.2529 903.5938,158.6123 Z " fill="#000000"/><text fill="#000000" font-family="Verdana" font-size="14" lengthAdjust="spacing" textLength="79.6455" x="918.3281" y="168.3052">TestServlet</text><line style="stroke:#00AA00;stroke-width:1.0;" x1="730.5" x2="1158.3018" y1="176.7373" y2="176.7373"/><rect fill="none" height="6" style="stroke:#000000;stroke-width:1.0;" width="6" x="737.5" y="187.7446"/><text fill="#000000" font-family="Verdana" font-size="14" lengthAdjust="spacing" textLength="171.0146" x="747.5" y="194.8125">testService: TestService</text><rect fill="none" height="6" style="stroke:#000000;stroke-width:1.0;" width="6" x="737.5" y="204.7593"/><text fill="#000000" font-family="Verdana" font-size="14" lengthAdjust="spacing" textLength="168.4922" x="747.5" y="211.8271">answerDao: AnswerDao</text><rect fill="none" height="6" style="stroke:#000000;stroke-width:1.0;" width="6" x="737.5" y="221.7739"/><text fill="#000000" font-family="Verdana" font-size="14" lengthAdjust="spacing" textLength="225.0186" x="747.5" y="228.8418">clozeTokenDao: ClozeTokenDao</text><rect fill="none" height="6" style="stroke:#000000;stroke-width:1.0;" width="6" x="737.5" y="238.7886"/><text fill="#000000" font-family="Verdana" font-size="14" lengthAdjust="spacing" textLength="128.9873" x="747.5" y="245.8564">userDao: UserDao</text><line style="stroke:#00AA00;stroke-width:1.0;" x1="730.5" x2="1158.3018" y1="252.7959" y2="252.7959"/><polygon fill="#FFFFFF" points="740.5,261.8032,744.5,265.8032,740.5,269.8032,736.5,265.8032" style="stroke:#000000;stroke-width:1.0;"/><text fill="#000000" font-family="Verdana" font-size="14" lengthAdjust="spacing" textLength="389.4639" x="747.5" y="270.8711">doGet(HttpServletRequest, HttpServletResponse): void</text><polygon fill="#FFFFFF" points="740.5,278.8179,744.5,282.8179,740.5,286.8179,736.5,282.8179" style="stroke:#000000;stroke-width:1.0;"/><text fill="#000000" font-family="Verdana" font-size="14" lengthAdjust="spacing" textLength="394.502" x="747.5" y="287.8857">doPost(HttpServletRequest, HttpServletResponse): void</text><text fill="#000000" font-family="Verdana" font-size="14" lengthAdjust="spacing" textLength="114.9805" x="735.5" y="325.915">/api/test/history</text><text fill="#000000" font-family="Verdana" font-size="14" lengthAdjust="spacing" textLength="138.9404" x="735.5" y="342.9297">/api/test/categories</text><text fill="#000000" font-family="Verdana" font-size="14" lengthAdjust="spacing" textLength="149.9736" x="735.5" y="359.9443">/api/test/recommend</text><text fill="#000000" font-family="Verdana" font-size="14" lengthAdjust="spacing" textLength="156.3857" x="735.5" y="376.959">/api/test/questions/all</text><text fill="#000000" font-family="Verdana" font-size="14" lengthAdjust="spacing" textLength="150.5479" x="735.5" y="393.9736">/api/test/admin/stats</text><line style="stroke:#00AA00;stroke-width:1.0;stroke-dasharray:1.0,2.0;" x1="730.5" x2="886.832" y1="303.3325" y2="303.3325"/><text fill="#000000" font-family="Verdana" font-size="14" lengthAdjust="spacing" textLength="115.1377" x="886.832" y="308.4004">Endpoints (GET)</text><line style="stroke:#00AA00;stroke-width:1.0;stroke-dasharray:1.0,2.0;" x1="1001.9697" x2="1158.3018" y1="303.3325" y2="303.3325"/><text fill="#000000" font-family="Verdana" font-size="14" lengthAdjust="spacing" textLength="99.4219" x="735.5" y="432.0029">/api/test/start</text><text fill="#000000" font-family="Verdana" font-size="14" lengthAdjust="spacing" textLength="114.5635" x="735.5" y="449.0176">/api/test/submit</text><line style="stroke:#00AA00;stroke-width:1.0;stroke-dasharray:1.0,2.0;" x1="730.5" x2="882.1699" y1="409.4204" y2="409.4204"/><text fill="#000000" font-family="Verdana" font-size="14" lengthAdjust="spacing" textLength="124.4619" x="882.1699" y="414.4883">Endpoints (POST)</text><line style="stroke:#00AA00;stroke-width:1.0;stroke-dasharray:1.0,2.0;" x1="1006.6318" x2="1158.3018" y1="409.4204" y2="409.4204"/><line style="stroke:#00AA00;stroke-width:1.0;" x1="730.5" x2="1158.3018" y1="455.957" y2="455.957"/><rect fill="#FFFFFF" height="6" style="stroke:#000000;stroke-width:1.0;" width="6" x="737.5" y="466.9644"/><text fill="#000000" font-family="Verdana" font-size="14" lengthAdjust="spacing" textLength="248.2129" x="747.5" y="474.0322">getUserId(HttpServletRequest): int</text><rect fill="#FFFFFF" height="6" style="stroke:#000000;stroke-width:1.0;" width="6" x="737.5" y="483.979"/><text fill="#000000" font-family="Verdana" font-size="14" lengthAdjust="spacing" textLength="405.8018" x="747.5" y="491.0469">buildQuestionView(List&lt;Question&gt;): List&lt;QuestionView&gt;</text></g><!--class AdminServlet--><g id="elem_AdminServlet"><rect codeLine="54" fill="#E8F8E8" height="527.3955" id="AdminServlet" rx="2.5" ry="2.5" style="stroke:#00AA00;stroke-width:1.0;" width="433.917" x="2427.5" y="59.7373"/><ellipse cx="2593.4688" cy="73.7373" fill="#FFFFFF" rx="9" ry="9" style="stroke:#000000;stroke-width:1.0;"/><path d="M2596.2344,69.6123 Q2596.3906,69.3936 2596.5781,69.2842 Q2596.7656,69.1748 2596.9844,69.1748 Q2597.3594,69.1748 2597.5938,69.4326 Q2597.8281,69.6904 2597.8281,70.2998 L2597.8281,71.7529 Q2597.8281,72.3623 2597.5938,72.6279 Q2597.3594,72.8936 2596.9844,72.8936 Q2596.6406,72.8936 2596.4375,72.6904 Q2596.2344,72.5029 2596.125,71.9873 Q2596.0781,71.6279 2595.8906,71.4404 Q2595.5625,71.0654 2594.9531,70.8467 Q2594.3438,70.6279 2593.7188,70.6279 Q2592.9531,70.6279 2592.3203,70.9561 Q2591.6875,71.2842 2591.1953,72.0342 Q2590.7031,72.7842 2590.7031,73.8154 L2590.7031,74.9092 Q2590.7031,76.1436 2591.5938,76.9639 Q2592.4844,77.7842 2594.0781,77.7842 Q2595.0156,77.7842 2595.6719,77.5342 Q2596.0625,77.3779 2596.4844,76.9404 Q2596.75,76.6748 2596.8984,76.5967 Q2597.0469,76.5186 2597.25,76.5186 Q2597.5781,76.5186 2597.8359,76.7764 Q2598.0938,77.0342 2598.0938,77.3779 Q2598.0938,77.7217 2597.75,78.1279 Q2597.25,78.7061 2596.4531,79.0342 Q2595.375,79.4873 2594.0781,79.4873 Q2592.5625,79.4873 2591.3594,78.8623 Q2590.375,78.3623 2589.6875,77.292 Q2589,76.2217 2589,74.9404 L2589,73.7842 Q2589,72.4561 2589.6172,71.3076 Q2590.2344,70.1592 2591.3281,69.542 Q2592.4219,68.9248 2593.6563,68.9248 Q2594.3906,68.9248 2595.0391,69.0889 Q2595.6875,69.2529 2596.2344,69.6123 Z " fill="#000000"/><text fill="#000000" font-family="Verdana" font-size="14" lengthAdjust="spacing" textLength="94.4795" x="2610.9688" y="79.3052">AdminServlet</text><line style="stroke:#00AA00;stroke-width:1.0;" x1="2428.5" x2="2860.417" y1="87.7373" y2="87.7373"/><rect fill="none" height="6" style="stroke:#000000;stroke-width:1.0;" width="6" x="2435.5" y="98.7446"/><text fill="#000000" font-family="Verdana" font-size="14" lengthAdjust="spacing" textLength="128.9873" x="2445.5" y="105.8125">userDao: UserDao</text><rect fill="none" height="6" style="stroke:#000000;stroke-width:1.0;" width="6" x="2435.5" y="115.7593"/><text fill="#000000" font-family="Verdana" font-size="14" lengthAdjust="spacing" textLength="235.833" x="2445.5" y="122.8271">questionDao: QuestionRepository</text><rect fill="none" height="6" style="stroke:#000000;stroke-width:1.0;" width="6" x="2435.5" y="132.7739"/><text fill="#000000" font-family="Verdana" font-size="14" lengthAdjust="spacing" textLength="168.4922" x="2445.5" y="139.8418">answerDao: AnswerDao</text><rect fill="none" height="6" style="stroke:#000000;stroke-width:1.0;" width="6" x="2435.5" y="149.7886"/><text fill="#000000" font-family="Verdana" font-size="14" lengthAdjust="spacing" textLength="225.0186" x="2445.5" y="156.8564">clozeTokenDao: ClozeTokenDao</text><rect fill="none" height="6" style="stroke:#000000;stroke-width:1.0;" width="6" x="2435.5" y="166.8032"/><text fill="#000000" font-family="Verdana" font-size="14" lengthAdjust="spacing" textLength="179.1016" x="2445.5" y="173.8711">attemptDao: AttemptDao</text><rect fill="none" height="6" style="stroke:#000000;stroke-width:1.0;" width="6" x="2435.5" y="183.8179"/><text fill="#000000" font-family="Verdana" font-size="14" lengthAdjust="spacing" textLength="216.8018" x="2445.5" y="190.8857">imageDao: QuestionImageDao</text><rect fill="none" height="6" style="stroke:#000000;stroke-width:1.0;" width="6" x="2435.5" y="200.8325"/><text fill="#000000" font-family="Verdana" font-size="14" lengthAdjust="spacing" textLength="202.6309" x="2445.5" y="207.9004">adminService: AdminService</text><line style="stroke:#00AA00;stroke-width:1.0;" x1="2428.5" x2="2860.417" y1="214.8398" y2="214.8398"/><polygon fill="#FFFFFF" points="2438.5,223.8472,2442.5,227.8472,2438.5,231.8472,2434.5,227.8472" style="stroke:#000000;stroke-width:1.0;"/><text fill="#000000" font-family="Verdana" font-size="14" lengthAdjust="spacing" textLength="389.4639" x="2445.5" y="232.915">doGet(HttpServletRequest, HttpServletResponse): void</text><polygon fill="#FFFFFF" points="2438.5,240.8618,2442.5,244.8618,2438.5,248.8618,2434.5,244.8618" style="stroke:#000000;stroke-width:1.0;"/><text fill="#000000" font-family="Verdana" font-size="14" lengthAdjust="spacing" textLength="394.502" x="2445.5" y="249.9297">doPost(HttpServletRequest, HttpServletResponse): void</text><polygon fill="#FFFFFF" points="2438.5,257.8765,2442.5,261.8765,2438.5,265.8765,2434.5,261.8765" style="stroke:#000000;stroke-width:1.0;"/><text fill="#000000" font-family="Verdana" font-size="14" lengthAdjust="spacing" textLength="387.5703" x="2445.5" y="266.9443">doPut(HttpServletRequest, HttpServletResponse): void</text><polygon fill="#FFFFFF" points="2438.5,274.8911,2442.5,278.8911,2438.5,282.8911,2434.5,278.8911" style="stroke:#000000;stroke-width:1.0;"/><text fill="#000000" font-family="Verdana" font-size="14" lengthAdjust="spacing" textLength="409.917" x="2445.5" y="283.959">doDelete(HttpServletRequest, HttpServletResponse): void</text><text fill="#000000" font-family="Verdana" font-size="14" lengthAdjust="spacing" textLength="150.7188" x="2433.5" y="321.9883">/api/admin/questions</text><text fill="#000000" font-family="Verdana" font-size="14" lengthAdjust="spacing" textLength="121.2559" x="2433.5" y="339.0029">/api/admin/users</text><text fill="#000000" font-family="Verdana" font-size="14" lengthAdjust="spacing" textLength="187.9541" x="2433.5" y="356.0176">/api/admin/users/requests</text><text fill="#000000" font-family="Verdana" font-size="14" lengthAdjust="spacing" textLength="117.5234" x="2433.5" y="373.0322">/api/admin/stats</text><line style="stroke:#00AA00;stroke-width:1.0;stroke-dasharray:1.0,2.0;" x1="2428.5" x2="2586.8896" y1="299.4058" y2="299.4058"/><text fill="#000000" font-family="Verdana" font-size="14" lengthAdjust="spacing" textLength="115.1377" x="2586.8896" y="304.4736">Endpoints (GET)</text><line style="stroke:#00AA00;stroke-width:1.0;stroke-dasharray:1.0,2.0;" x1="2702.0273" x2="2860.417" y1="299.4058" y2="299.4058"/><text fill="#000000" font-family="Verdana" font-size="14" lengthAdjust="spacing" textLength="212.2285" x="2433.5" y="411.0615">/api/admin/questions (create)</text><text fill="#000000" font-family="Verdana" font-size="14" lengthAdjust="spacing" textLength="133.7178" x="2433.5" y="428.0762">/api/admin/images</text><text fill="#000000" font-family="Verdana" font-size="14" lengthAdjust="spacing" textLength="186.2451" x="2433.5" y="445.0908">/api/admin/images/import</text><line style="stroke:#00AA00;stroke-width:1.0;stroke-dasharray:1.0,2.0;" x1="2428.5" x2="2582.2275" y1="388.479" y2="388.479"/><text fill="#000000" font-family="Verdana" font-size="14" lengthAdjust="spacing" textLength="124.4619" x="2582.2275" y="393.5469">Endpoints (POST)</text><line style="stroke:#00AA00;stroke-width:1.0;stroke-dasharray:1.0,2.0;" x1="2706.6895" x2="2860.417" y1="388.479" y2="388.479"/><text fill="#000000" font-family="Verdana" font-size="14" lengthAdjust="spacing" textLength="216.9248" x="2433.5" y="483.1201">/api/admin/questions (update)</text><text fill="#000000" font-family="Verdana" font-size="14" lengthAdjust="spacing" textLength="187.4619" x="2433.5" y="500.1348">/api/admin/users (update)</text><line style="stroke:#00AA00;stroke-width:1.0;stroke-dasharray:1.0,2.0;" x1="2428.5" x2="2587.3989" y1="460.5376" y2="460.5376"/><text fill="#000000" font-family="Verdana" font-size="14" lengthAdjust="spacing" textLength="114.1191" x="2587.3989" y="465.6055">Endpoints (PUT)</text><line style="stroke:#00AA00;stroke-width:1.0;stroke-dasharray:1.0,2.0;" x1="2701.5181" x2="2860.417" y1="460.5376" y2="460.5376"/><text fill="#000000" font-family="Verdana" font-size="14" lengthAdjust="spacing" textLength="182.376" x="2433.5" y="538.1641">/api/admin/questions?id=</text><text fill="#000000" font-family="Verdana" font-size="14" lengthAdjust="spacing" textLength="152.9131" x="2433.5" y="555.1787">/api/admin/users?id=</text><line style="stroke:#00AA00;stroke-width:1.0;stroke-dasharray:1.0,2.0;" x1="2428.5" x2="2574.1748" y1="515.5815" y2="515.5815"/><text fill="#000000" font-family="Verdana" font-size="14" lengthAdjust="spacing" textLength="140.5674" x="2574.1748" y="520.6494">Endpoints (DELETE)</text><line style="stroke:#00AA00;stroke-width:1.0;stroke-dasharray:1.0,2.0;" x1="2714.7422" x2="2860.417" y1="515.5815" y2="515.5815"/><line style="stroke:#00AA00;stroke-width:1.0;" x1="2428.5" x2="2860.417" y1="562.1182" y2="562.1182"/><rect fill="#FFFFFF" height="6" style="stroke:#000000;stroke-width:1.0;" width="6" x="2435.5" y="573.1255"/><text fill="#000000" font-family="Verdana" font-size="14" lengthAdjust="spacing" textLength="271.8584" x="2445.5" y="580.1934">isAdmin(HttpServletRequest): boolean</text></g><!--class ImageServlet--><g id="elem_ImageServlet"><rect codeLine="86" fill="#E8F8E8" height="116.0586" id="ImageServlet" rx="2.5" ry="2.5" style="stroke:#00AA00;stroke-width:1.0;" width="413.4639" x="1979" y="265.2373"/><ellipse cx="2134.5576" cy="279.2373" fill="#FFFFFF" rx="9" ry="9" style="stroke:#000000;stroke-width:1.0;"/><path d="M2137.3232,275.1123 Q2137.4795,274.8936 2137.667,274.7842 Q2137.8545,274.6748 2138.0732,274.6748 Q2138.4482,274.6748 2138.6826,274.9326 Q2138.917,275.1904 2138.917,275.7998 L2138.917,277.2529 Q2138.917,277.8623 2138.6826,278.1279 Q2138.4482,278.3936 2138.0732,278.3936 Q2137.7295,278.3936 2137.5264,278.1904 Q2137.3232,278.0029 2137.2139,277.4873 Q2137.167,277.1279 2136.9795,276.9404 Q2136.6514,276.5654 2136.042,276.3467 Q2135.4326,276.1279 2134.8076,276.1279 Q2134.042,276.1279 2133.4092,276.4561 Q2132.7764,276.7842 2132.2842,277.5342 Q2131.792,278.2842 2131.792,279.3154 L2131.792,280.4092 Q2131.792,281.6436 2132.6826,282.4639 Q2133.5732,283.2842 2135.167,283.2842 Q2136.1045,283.2842 2136.7607,283.0342 Q2137.1514,282.8779 2137.5732,282.4404 Q2137.8389,282.1748 2137.9873,282.0967 Q2138.1357,282.0186 2138.3389,282.0186 Q2138.667,282.0186 2138.9248,282.2764 Q2139.1826,282.5342 2139.1826,282.8779 Q2139.1826,283.2217 2138.8389,283.6279 Q2138.3389,284.2061 2137.542,284.5342 Q2136.4639,284.9873 2135.167,284.9873 Q2133.6514,284.9873 2132.4482,284.3623 Q2131.4639,283.8623 2130.7764,282.792 Q2130.0889,281.7217 2130.0889,280.4404 L2130.0889,279.2842 Q2130.0889,277.9561 2130.7061,276.8076 Q2131.3232,275.6592 2132.417,275.042 Q2133.5107,274.4248 2134.7451,274.4248 Q2135.4795,274.4248 2136.1279,274.5889 Q2136.7764,274.7529 2137.3232,275.1123 Z " fill="#000000"/><text fill="#000000" font-family="Verdana" font-size="14" lengthAdjust="spacing" textLength="94.8486" x="2152.0576" y="284.8052">ImageServlet</text><line style="stroke:#00AA00;stroke-width:1.0;" x1="1980" x2="2391.4639" y1="293.2373" y2="293.2373"/><rect fill="none" height="6" style="stroke:#000000;stroke-width:1.0;" width="6" x="1987" y="304.2446"/><text fill="#000000" font-family="Verdana" font-size="14" lengthAdjust="spacing" textLength="216.8018" x="1997" y="311.3125">imageDao: QuestionImageDao</text><line style="stroke:#00AA00;stroke-width:1.0;" x1="1980" x2="2391.4639" y1="318.252" y2="318.252"/><polygon fill="#FFFFFF" points="1990,327.2593,1994,331.2593,1990,335.2593,1986,331.2593" style="stroke:#000000;stroke-width:1.0;"/><text fill="#000000" font-family="Verdana" font-size="14" lengthAdjust="spacing" textLength="389.4639" x="1997" y="336.3271">doGet(HttpServletRequest, HttpServletResponse): void</text><text fill="#000000" font-family="Verdana" font-size="14" lengthAdjust="spacing" textLength="120.6064" x="1985" y="374.3564">/api/images/{id}</text><line style="stroke:#00AA00;stroke-width:1.0;stroke-dasharray:1.0,2.0;" x1="1980" x2="2128.1631" y1="351.7739" y2="351.7739"/><text fill="#000000" font-family="Verdana" font-size="14" lengthAdjust="spacing" textLength="115.1377" x="2128.1631" y="356.8418">Endpoints (GET)</text><line style="stroke:#00AA00;stroke-width:1.0;stroke-dasharray:1.0,2.0;" x1="2243.3008" x2="2391.4639" y1="351.7739" y2="351.7739"/></g><!--class HealthServlet--><g id="elem_HealthServlet"><rect codeLine="94" fill="#E8F8E8" height="91.0439" id="HealthServlet" rx="2.5" ry="2.5" style="stroke:#00AA00;stroke-width:1.0;" width="413.4639" x="1531" y="277.7373"/><ellipse cx="1686.3047" cy="291.7373" fill="#FFFFFF" rx="9" ry="9" style="stroke:#000000;stroke-width:1.0;"/><path d="M1689.0703,287.6123 Q1689.2266,287.3936 1689.4141,287.2842 Q1689.6016,287.1748 1689.8203,287.1748 Q1690.1953,287.1748 1690.4297,287.4326 Q1690.6641,287.6904 1690.6641,288.2998 L1690.6641,289.7529 Q1690.6641,290.3623 1690.4297,290.6279 Q1690.1953,290.8936 1689.8203,290.8936 Q1689.4766,290.8936 1689.2734,290.6904 Q1689.0703,290.5029 1688.9609,289.9873 Q1688.9141,289.6279 1688.7266,289.4404 Q1688.3984,289.0654 1687.7891,288.8467 Q1687.1797,288.6279 1686.5547,288.6279 Q1685.7891,288.6279 1685.1563,288.9561 Q1684.5234,289.2842 1684.0313,290.0342 Q1683.5391,290.7842 1683.5391,291.8154 L1683.5391,292.9092 Q1683.5391,294.1436 1684.4297,294.9639 Q1685.3203,295.7842 1686.9141,295.7842 Q1687.8516,295.7842 1688.5078,295.5342 Q1688.8984,295.3779 1689.3203,294.9404 Q1689.5859,294.6748 1689.7344,294.5967 Q1689.8828,294.5186 1690.0859,294.5186 Q1690.4141,294.5186 1690.6719,294.7764 Q1690.9297,295.0342 1690.9297,295.3779 Q1690.9297,295.7217 1690.5859,296.1279 Q1690.0859,296.7061 1689.2891,297.0342 Q1688.2109,297.4873 1686.9141,297.4873 Q1685.3984,297.4873 1684.1953,296.8623 Q1683.2109,296.3623 1682.5234,295.292 Q1681.8359,294.2217 1681.8359,292.9404 L1681.8359,291.7842 Q1681.8359,290.4561 1682.4531,289.3076 Q1683.0703,288.1592 1684.1641,287.542 Q1685.2578,286.9248 1686.4922,286.9248 Q1687.2266,286.9248 1687.875,287.0889 Q1688.5234,287.2529 1689.0703,287.6123 Z " fill="#000000"/><text fill="#000000" font-family="Verdana" font-size="14" lengthAdjust="spacing" textLength="95.3545" x="1703.8047" y="297.3052">HealthServlet</text><line style="stroke:#00AA00;stroke-width:1.0;" x1="1532" x2="1943.4639" y1="305.7373" y2="305.7373"/><polygon fill="#FFFFFF" points="1542,314.7446,1546,318.7446,1542,322.7446,1538,318.7446" style="stroke:#000000;stroke-width:1.0;"/><text fill="#000000" font-family="Verdana" font-size="14" lengthAdjust="spacing" textLength="389.4639" x="1549" y="323.8125">doGet(HttpServletRequest, HttpServletResponse): void</text><text fill="#000000" font-family="Verdana" font-size="14" lengthAdjust="spacing" textLength="50.1826" x="1537" y="361.8418">/health</text><line style="stroke:#00AA00;stroke-width:1.0;stroke-dasharray:1.0,2.0;" x1="1532" x2="1680.1631" y1="339.2593" y2="339.2593"/><text fill="#000000" font-family="Verdana" font-size="14" lengthAdjust="spacing" textLength="115.1377" x="1680.1631" y="344.3271">Endpoints (GET)</text><line style="stroke:#00AA00;stroke-width:1.0;stroke-dasharray:1.0,2.0;" x1="1795.3008" x2="1943.4639" y1="339.2593" y2="339.2593"/></g><!--class CorsFilter--><g id="elem_CorsFilter"><rect codeLine="101" fill="#E8F8E8" height="74.6133" id="CorsFilter" rx="2.5" ry="2.5" style="stroke:#00AA00;stroke-width:1.0;" width="449.0791" x="2897" y="285.7373"/><ellipse cx="3084.2388" cy="306.5366" fill="#FFFFFF" rx="9" ry="9" style="stroke:#000000;stroke-width:1.0;"/><path d="M3087.0044,302.4116 Q3087.1606,302.1929 3087.3481,302.0835 Q3087.5356,301.9741 3087.7544,301.9741 Q3088.1294,301.9741 3088.3638,302.2319 Q3088.5981,302.4897 3088.5981,303.0991 L3088.5981,304.5522 Q3088.5981,305.1616 3088.3638,305.4272 Q3088.1294,305.6929 3087.7544,305.6929 Q3087.4106,305.6929 3087.2075,305.4897 Q3087.0044,305.3022 3086.895,304.7866 Q3086.8481,304.4272 3086.6606,304.2397 Q3086.3325,303.8647 3085.7231,303.646 Q3085.1138,303.4272 3084.4888,303.4272 Q3083.7231,303.4272 3083.0903,303.7554 Q3082.4575,304.0835 3081.9653,304.8335 Q3081.4731,305.5835 3081.4731,306.6147 L3081.4731,307.7085 Q3081.4731,308.9429 3082.3638,309.7632 Q3083.2544,310.5835 3084.8481,310.5835 Q3085.7856,310.5835 3086.4419,310.3335 Q3086.8325,310.1772 3087.2544,309.7397 Q3087.52,309.4741 3087.6685,309.396 Q3087.8169,309.3179 3088.02,309.3179 Q3088.3481,309.3179 3088.606,309.5757 Q3088.8638,309.8335 3088.8638,310.1772 Q3088.8638,310.521 3088.52,310.9272 Q3088.02,311.5054 3087.2231,311.8335 Q3086.145,312.2866 3084.8481,312.2866 Q3083.3325,312.2866 3082.1294,311.6616 Q3081.145,311.1616 3080.4575,310.0913 Q3079.77,309.021 3079.77,307.7397 L3079.77,306.5835 Q3079.77,305.2554 3080.3872,304.1069 Q3081.0044,302.9585 3082.0981,302.3413 Q3083.1919,301.7241 3084.4263,301.7241 Q3085.1606,301.7241 3085.8091,301.8882 Q3086.4575,302.0522 3087.0044,302.4116 Z " fill="#000000"/><text fill="#000000" font-family="Verdana" font-size="12" font-style="italic" lengthAdjust="spacing" textLength="43.2715" x="3113.6538" y="302.8018">&#171;filter&#187;</text><text fill="#000000" font-family="Verdana" font-size="14" lengthAdjust="spacing" textLength="67.1016" x="3101.7388" y="319.3965">CorsFilter</text><line style="stroke:#00AA00;stroke-width:1.0;" x1="2898" x2="3345.0791" y1="327.3359" y2="327.3359"/><line style="stroke:#00AA00;stroke-width:1.0;" x1="2898" x2="3345.0791" y1="335.3359" y2="335.3359"/><ellipse cx="2908" cy="349.3433" fill="#FFFFFF" rx="3" ry="3" style="stroke:#000000;stroke-width:1.0;"/><text fill="#000000" font-family="Verdana" font-size="14" lengthAdjust="spacing" textLength="425.0791" x="2915" y="353.4111">doFilter(ServletRequest, ServletResponse, FilterChain): void</text></g><!--class CharacterEncodingFilter--><g id="elem_CharacterEncodingFilter"><rect codeLine="105" fill="#E8F8E8" height="74.6133" id="CharacterEncodingFilter" rx="2.5" ry="2.5" style="stroke:#00AA00;stroke-width:1.0;" width="449.0791" x="3381" y="285.7373"/><ellipse cx="3517.9092" cy="306.5366" fill="#FFFFFF" rx="9" ry="9" style="stroke:#000000;stroke-width:1.0;"/><path d="M3520.6748,302.4116 Q3520.8311,302.1929 3521.0186,302.0835 Q3521.2061,301.9741 3521.4248,301.9741 Q3521.7998,301.9741 3522.0342,302.2319 Q3522.2686,302.4897 3522.2686,303.0991 L3522.2686,304.5522 Q3522.2686,305.1616 3522.0342,305.4272 Q3521.7998,305.6929 3521.4248,305.6929 Q3521.0811,305.6929 3520.8779,305.4897 Q3520.6748,305.3022 3520.5654,304.7866 Q3520.5186,304.4272 3520.3311,304.2397 Q3520.0029,303.8647 3519.3936,303.646 Q3518.7842,303.4272 3518.1592,303.4272 Q3517.3936,303.4272 3516.7607,303.7554 Q3516.1279,304.0835 3515.6357,304.8335 Q3515.1436,305.5835 3515.1436,306.6147 L3515.1436,307.7085 Q3515.1436,308.9429 3516.0342,309.7632 Q3516.9248,310.5835 3518.5186,310.5835 Q3519.4561,310.5835 3520.1123,310.3335 Q3520.5029,310.1772 3520.9248,309.7397 Q3521.1904,309.4741 3521.3389,309.396 Q3521.4873,309.3179 3521.6904,309.3179 Q3522.0186,309.3179 3522.2764,309.5757 Q3522.5342,309.8335 3522.5342,310.1772 Q3522.5342,310.521 3522.1904,310.9272 Q3521.6904,311.5054 3520.8936,311.8335 Q3519.8154,312.2866 3518.5186,312.2866 Q3517.0029,312.2866 3515.7998,311.6616 Q3514.8154,311.1616 3514.1279,310.0913 Q3513.4404,309.021 3513.4404,307.7397 L3513.4404,306.5835 Q3513.4404,305.2554 3514.0576,304.1069 Q3514.6748,302.9585 3515.7686,302.3413 Q3516.8623,301.7241 3518.0967,301.7241 Q3518.8311,301.7241 3519.4795,301.8882 Q3520.1279,302.0522 3520.6748,302.4116 Z " fill="#000000"/><text fill="#000000" font-family="Verdana" font-size="12" font-style="italic" lengthAdjust="spacing" textLength="43.2715" x="3597.6538" y="302.8018">&#171;filter&#187;</text><text fill="#000000" font-family="Verdana" font-size="14" lengthAdjust="spacing" textLength="167.7607" x="3535.4092" y="319.3965">CharacterEncodingFilter</text><line style="stroke:#00AA00;stroke-width:1.0;" x1="3382" x2="3829.0791" y1="327.3359" y2="327.3359"/><line style="stroke:#00AA00;stroke-width:1.0;" x1="3382" x2="3829.0791" y1="335.3359" y2="335.3359"/><ellipse cx="3392" cy="349.3433" fill="#FFFFFF" rx="3" ry="3" style="stroke:#000000;stroke-width:1.0;"/><text fill="#000000" font-family="Verdana" font-size="14" lengthAdjust="spacing" textLength="425.0791" x="3399" y="353.4111">doFilter(ServletRequest, ServletResponse, FilterChain): void</text></g><!--class AuthService--><g id="elem_AuthService"><rect codeLine="110" fill="#E8F8E8" height="44" id="AuthService" rx="2.5" ry="2.5" style="stroke:#00AA00;stroke-width:1.0;" width="112.4512" x="167.5" y="680.7373"/><ellipse cx="180.5" cy="694.7373" fill="#FFFFFF" rx="9" ry="9" style="stroke:#000000;stroke-width:1.0;"/><path d="M183.2656,690.6123 Q183.4219,690.3936 183.6094,690.2842 Q183.7969,690.1748 184.0156,690.1748 Q184.3906,690.1748 184.625,690.4326 Q184.8594,690.6904 184.8594,691.2998 L184.8594,692.7529 Q184.8594,693.3623 184.625,693.6279 Q184.3906,693.8936 184.0156,693.8936 Q183.6719,693.8936 183.4688,693.6904 Q183.2656,693.5029 183.1563,692.9873 Q183.1094,692.6279 182.9219,692.4404 Q182.5938,692.0654 181.9844,691.8467 Q181.375,691.6279 180.75,691.6279 Q179.9844,691.6279 179.3516,691.9561 Q178.7188,692.2842 178.2266,693.0342 Q177.7344,693.7842 177.7344,694.8154 L177.7344,695.9092 Q177.7344,697.1436 178.625,697.9639 Q179.5156,698.7842 181.1094,698.7842 Q182.0469,698.7842 182.7031,698.5342 Q183.0938,698.3779 183.5156,697.9404 Q183.7813,697.6748 183.9297,697.5967 Q184.0781,697.5186 184.2813,697.5186 Q184.6094,697.5186 184.8672,697.7764 Q185.125,698.0342 185.125,698.3779 Q185.125,698.7217 184.7813,699.1279 Q184.2813,699.7061 183.4844,700.0342 Q182.4063,700.4873 181.1094,700.4873 Q179.5938,700.4873 178.3906,699.8623 Q177.4063,699.3623 176.7188,698.292 Q176.0313,697.2217 176.0313,695.9404 L176.0313,694.7842 Q176.0313,693.4561 176.6484,692.3076 Q177.2656,691.1592 178.3594,690.542 Q179.4531,689.9248 180.6875,689.9248 Q181.4219,689.9248 182.0703,690.0889 Q182.7188,690.2529 183.2656,690.6123 Z " fill="#000000"/><text fill="#000000" font-family="Verdana" font-size="14" lengthAdjust="spacing" textLength="84.4512" x="192.5" y="700.3052">AuthService</text><line style="stroke:#00AA00;stroke-width:1.0;" x1="168.5" x2="278.9512" y1="708.7373" y2="708.7373"/><line style="stroke:#00AA00;stroke-width:1.0;" x1="168.5" x2="278.9512" y1="716.7373" y2="716.7373"/></g><!--class TestService--><g id="elem_TestService"><rect codeLine="111" fill="#E8F8E8" height="44" id="TestService" rx="2.5" ry="2.5" style="stroke:#00AA00;stroke-width:1.0;" width="109.4229" x="890" y="680.7373"/><ellipse cx="903" cy="694.7373" fill="#FFFFFF" rx="9" ry="9" style="stroke:#000000;stroke-width:1.0;"/><path d="M905.7656,690.6123 Q905.9219,690.3936 906.1094,690.2842 Q906.2969,690.1748 906.5156,690.1748 Q906.8906,690.1748 907.125,690.4326 Q907.3594,690.6904 907.3594,691.2998 L907.3594,692.7529 Q907.3594,693.3623 907.125,693.6279 Q906.8906,693.8936 906.5156,693.8936 Q906.1719,693.8936 905.9688,693.6904 Q905.7656,693.5029 905.6563,692.9873 Q905.6094,692.6279 905.4219,692.4404 Q905.0938,692.0654 904.4844,691.8467 Q903.875,691.6279 903.25,691.6279 Q902.4844,691.6279 901.8516,691.9561 Q901.2188,692.2842 900.7266,693.0342 Q900.2344,693.7842 900.2344,694.8154 L900.2344,695.9092 Q900.2344,697.1436 901.125,697.9639 Q902.0156,698.7842 903.6094,698.7842 Q904.5469,698.7842 905.2031,698.5342 Q905.5938,698.3779 906.0156,697.9404 Q906.2813,697.6748 906.4297,697.5967 Q906.5781,697.5186 906.7813,697.5186 Q907.1094,697.5186 907.3672,697.7764 Q907.625,698.0342 907.625,698.3779 Q907.625,698.7217 907.2813,699.1279 Q906.7813,699.7061 905.9844,700.0342 Q904.9063,700.4873 903.6094,700.4873 Q902.0938,700.4873 900.8906,699.8623 Q899.9063,699.3623 899.2188,698.292 Q898.5313,697.2217 898.5313,695.9404 L898.5313,694.7842 Q898.5313,693.4561 899.1484,692.3076 Q899.7656,691.1592 900.8594,690.542 Q901.9531,689.9248 903.1875,689.9248 Q903.9219,689.9248 904.5703,690.0889 Q905.2188,690.2529 905.7656,690.6123 Z " fill="#000000"/><text fill="#000000" font-family="Verdana" font-size="14" lengthAdjust="spacing" textLength="81.4229" x="915" y="700.3052">TestService</text><line style="stroke:#00AA00;stroke-width:1.0;" x1="891" x2="998.4229" y1="708.7373" y2="708.7373"/><line style="stroke:#00AA00;stroke-width:1.0;" x1="891" x2="998.4229" y1="716.7373" y2="716.7373"/></g><!--class AdminService--><g id="elem_AdminService"><rect codeLine="112" fill="#E8F8E8" height="44" id="AdminService" rx="2.5" ry="2.5" style="stroke:#00AA00;stroke-width:1.0;" width="124.2568" x="2687.5" y="680.7373"/><ellipse cx="2700.5" cy="694.7373" fill="#FFFFFF" rx="9" ry="9" style="stroke:#000000;stroke-width:1.0;"/><path d="M2703.2656,690.6123 Q2703.4219,690.3936 2703.6094,690.2842 Q2703.7969,690.1748 2704.0156,690.1748 Q2704.3906,690.1748 2704.625,690.4326 Q2704.8594,690.6904 2704.8594,691.2998 L2704.8594,692.7529 Q2704.8594,693.3623 2704.625,693.6279 Q2704.3906,693.8936 2704.0156,693.8936 Q2703.6719,693.8936 2703.4688,693.6904 Q2703.2656,693.5029 2703.1563,692.9873 Q2703.1094,692.6279 2702.9219,692.4404 Q2702.5938,692.0654 2701.9844,691.8467 Q2701.375,691.6279 2700.75,691.6279 Q2699.9844,691.6279 2699.3516,691.9561 Q2698.7188,692.2842 2698.2266,693.0342 Q2697.7344,693.7842 2697.7344,694.8154 L2697.7344,695.9092 Q2697.7344,697.1436 2698.625,697.9639 Q2699.5156,698.7842 2701.1094,698.7842 Q2702.0469,698.7842 2702.7031,698.5342 Q2703.0938,698.3779 2703.5156,697.9404 Q2703.7813,697.6748 2703.9297,697.5967 Q2704.0781,697.5186 2704.2813,697.5186 Q2704.6094,697.5186 2704.8672,697.7764 Q2705.125,698.0342 2705.125,698.3779 Q2705.125,698.7217 2704.7813,699.1279 Q2704.2813,699.7061 2703.4844,700.0342 Q2702.4063,700.4873 2701.1094,700.4873 Q2699.5938,700.4873 2698.3906,699.8623 Q2697.4063,699.3623 2696.7188,698.292 Q2696.0313,697.2217 2696.0313,695.9404 L2696.0313,694.7842 Q2696.0313,693.4561 2696.6484,692.3076 Q2697.2656,691.1592 2698.3594,690.542 Q2699.4531,689.9248 2700.6875,689.9248 Q2701.4219,689.9248 2702.0703,690.0889 Q2702.7188,690.2529 2703.2656,690.6123 Z " fill="#000000"/><text fill="#000000" font-family="Verdana" font-size="14" lengthAdjust="spacing" textLength="96.2568" x="2712.5" y="700.3052">AdminService</text><line style="stroke:#00AA00;stroke-width:1.0;" x1="2688.5" x2="2810.7568" y1="708.7373" y2="708.7373"/><line style="stroke:#00AA00;stroke-width:1.0;" x1="2688.5" x2="2810.7568" y1="716.7373" y2="716.7373"/></g><g id="elem_GMN21"><path d="M468.5,262.7373 L468.5,319.7373 L433.04,323.7373 L468.5,327.7373 L468.5,383.3325 A0,0 0 0 0 468.5,383.3325 L694.1738,383.3325 A0,0 0 0 0 694.1738,383.3325 L694.1738,272.7373 L684.1738,262.7373 L468.5,262.7373 A0,0 0 0 0 468.5,262.7373 " fill="#FFFFFF" style="stroke:#000000;stroke-width:1.0;"/><path d="M684.1738,262.7373 L684.1738,272.7373 L694.1738,272.7373 L684.1738,262.7373 " fill="#FFFFFF" style="stroke:#000000;stroke-width:1.0;"/><text fill="#000000" font-family="Verdana" font-size="13" font-weight="bold" lengthAdjust="spacing" textLength="111.5664" x="474.5" y="280.8071">Auth Endpoints</text><text fill="#000000" font-family="Verdana" font-size="13" lengthAdjust="spacing" textLength="166.7275" x="474.5" y="296.6064">- POST /api/auth/register</text><text fill="#000000" font-family="Verdana" font-size="13" lengthAdjust="spacing" textLength="147.9321" x="474.5" y="312.4058">- POST /api/auth/login</text><text fill="#000000" font-family="Verdana" font-size="13" lengthAdjust="spacing" textLength="157.3774" x="474.5" y="328.2051">- POST /api/auth/logout</text><text fill="#000000" font-family="Verdana" font-size="13" lengthAdjust="spacing" textLength="204.6738" x="474.5" y="344.0044">- POST /api/auth/reset-request</text><text fill="#000000" font-family="Verdana" font-size="13" lengthAdjust="spacing" textLength="4.5703" x="474.5" y="359.8037">&#160;</text><text fill="#000000" font-family="Verdana" font-size="13" lengthAdjust="spacing" textLength="174.5225" x="474.5" y="375.603">Setzt Session: userId, role</text></g><g id="elem_GMN24"><path d="M1195,262.7373 L1195,319.7373 L1159.67,323.7373 L1195,327.7373 L1195,383.3325 A0,0 0 0 0 1195,383.3325 L1495.8682,383.3325 A0,0 0 0 0 1495.8682,383.3325 L1495.8682,272.7373 L1485.8682,262.7373 L1195,262.7373 A0,0 0 0 0 1195,262.7373 " fill="#FFFFFF" style="stroke:#000000;stroke-width:1.0;"/><path d="M1485.8682,262.7373 L1485.8682,272.7373 L1495.8682,272.7373 L1485.8682,262.7373 " fill="#FFFFFF" style="stroke:#000000;stroke-width:1.0;"/><text fill="#000000" font-family="Verdana" font-size="13" font-weight="bold" lengthAdjust="spacing" textLength="108.1577" x="1201" y="280.8071">Test Endpoints</text><text fill="#000000" font-family="Verdana" font-size="13" lengthAdjust="spacing" textLength="274.9678" x="1201" y="296.6064">- GET /api/test/recommend (Auto-Modus)</text><text fill="#000000" font-family="Verdana" font-size="13" lengthAdjust="spacing" textLength="279.8682" x="1201" y="312.4058">- POST /api/test/start (mit autoMode Flag)</text><text fill="#000000" font-family="Verdana" font-size="13" lengthAdjust="spacing" textLength="156.3936" x="1201" y="328.2051">- POST /api/test/submit</text><text fill="#000000" font-family="Verdana" font-size="13" lengthAdjust="spacing" textLength="4.5703" x="1201" y="344.0044">&#160;</text><text fill="#000000" font-family="Verdana" font-size="13" font-weight="bold" lengthAdjust="spacing" textLength="172.5483" x="1201" y="359.8037">KEINE QuestionServlet!</text><text fill="#000000" font-family="Verdana" font-size="13" font-weight="bold" lengthAdjust="spacing" textLength="194.4922" x="1201" y="375.603">KEINE ProgressionServlet!</text></g><g id="elem_GMN27"><path d="M2426.5,658.2373 L2426.5,747.2339 A0,0 0 0 0 2426.5,747.2339 L2652.415,747.2339 A0,0 0 0 0 2652.415,747.2339 L2652.415,668.2373 L2642.415,658.2373 L2544,658.2373 L2540,586.8173 L2536,658.2373 L2426.5,658.2373 A0,0 0 0 0 2426.5,658.2373 " fill="#FFFFFF" style="stroke:#000000;stroke-width:1.0;"/><path d="M2642.415,658.2373 L2642.415,668.2373 L2652.415,668.2373 L2642.415,658.2373 " fill="#FFFFFF" style="stroke:#000000;stroke-width:1.0;"/><text fill="#000000" font-family="Verdana" font-size="13" font-weight="bold" lengthAdjust="spacing" textLength="204.915" x="2432.5" y="676.3071">Admin-Only (role="admin")</text><text fill="#000000" font-family="Verdana" font-size="13" lengthAdjust="spacing" textLength="97.5889" x="2432.5" y="692.1064">- Fragen CRUD</text><text fill="#000000" font-family="Verdana" font-size="13" lengthAdjust="spacing" textLength="119.8247" x="2432.5" y="707.9058">- User-Verwaltung</text><text fill="#000000" font-family="Verdana" font-size="13" lengthAdjust="spacing" textLength="188.4429" x="2432.5" y="723.7051">- Password-Reset bearbeiten</text><text fill="#000000" font-family="Verdana" font-size="13" lengthAdjust="spacing" textLength="98.5918" x="2432.5" y="739.5044">- Bilder-Import</text></g><!--link AuthServlet to HttpServlet--><g id="link_AuthServlet_HttpServlet"><path codeLine="115" d="M356.25,419.4473 C356.25,520.1373 356.25,663.7373 356.25,663.7373 C356.25,663.7373 1113.18,663.7373 1502.16,663.7373 " fill="none" id="AuthServlet-to-HttpServlet" style="stroke:#00AA00;stroke-width:1.0;"/><polygon fill="none" points="1520.16,663.7373,1502.16,657.7373,1502.16,669.7373,1520.16,663.7373" style="stroke:#00AA00;stroke-width:1.0;"/></g><!--link TestServlet to HttpServlet--><g id="link_TestServlet_HttpServlet"><path codeLine="116" d="M1159.7,440.7373 C1325.19,440.7373 1525.75,440.7373 1525.75,440.7373 C1525.75,440.7373 1525.75,551.5473 1525.75,628.5273 " fill="none" id="TestServlet-to-HttpServlet" style="stroke:#00AA00;stroke-width:1.0;"/><polygon fill="none" points="1525.75,646.5273,1531.75,628.5273,1519.75,628.5273,1525.75,646.5273" style="stroke:#00AA00;stroke-width:1.0;"/></g><!--link AdminServlet to HttpServlet--><g id="link_AdminServlet_HttpServlet"><path codeLine="117" d="M2427.45,542.7373 C2224.02,542.7373 1951,542.7373 1951,542.7373 C1951,542.7373 1951,582.2673 1951,628.3273 " fill="none" id="AdminServlet-to-HttpServlet" style="stroke:#00AA00;stroke-width:1.0;"/><polygon fill="none" points="1951,646.3273,1957,628.3273,1945,628.3273,1951,646.3273" style="stroke:#00AA00;stroke-width:1.0;"/></g><!--link ImageServlet to HttpServlet--><g id="link_ImageServlet_HttpServlet"><path codeLine="118" d="M1978.61,375.7373 C1959.72,375.7373 1947.5,375.7373 1947.5,375.7373 C1947.5,375.7373 1947.5,535.0273 1947.5,628.5273 " fill="none" id="ImageServlet-to-HttpServlet" style="stroke:#00AA00;stroke-width:1.0;"/><polygon fill="none" points="1947.5,646.5273,1953.5,628.5273,1941.5,628.5273,1947.5,646.5273" style="stroke:#00AA00;stroke-width:1.0;"/></g><!--link HealthServlet to HttpServlet--><g id="link_HealthServlet_HttpServlet"><path codeLine="119" d="M1737.5,369.0173 C1737.5,438.7073 1737.5,553.2473 1737.5,628.6273 " fill="none" id="HealthServlet-to-HttpServlet" style="stroke:#00AA00;stroke-width:1.0;"/><polygon fill="none" points="1737.5,646.6273,1743.5,628.6273,1731.5,628.6273,1737.5,646.6273" style="stroke:#00AA00;stroke-width:1.0;"/></g><!--link AuthServlet to AuthService--><g id="link_AuthServlet_AuthService"><path codeLine="121" d="M223.5,419.4873 C223.5,507.3273 223.5,624.7973 223.5,674.6173 " fill="none" id="AuthServlet-to-AuthService" style="stroke:#00AA00;stroke-width:1.0;"/><polygon fill="#00AA00" points="223.5,680.6173,227.5,671.6173,223.5,675.6173,219.5,671.6173,223.5,680.6173" style="stroke:#00AA00;stroke-width:1.0;"/><text fill="#000000" font-family="Verdana" font-size="13" lengthAdjust="spacing" textLength="29.5166" x="193.5" y="547.1271">uses</text></g><!--link TestServlet to TestService--><g id="link_TestServlet_TestService"><path codeLine="122" d="M944.5,497.9873 C944.5,569.7773 944.5,638.4373 944.5,674.5473 " fill="none" id="TestServlet-to-TestService" style="stroke:#00AA00;stroke-width:1.0;"/><polygon fill="#00AA00" points="944.5,680.5473,948.5,671.5473,944.5,675.5473,940.5,671.5473,944.5,680.5473" style="stroke:#00AA00;stroke-width:1.0;"/><text fill="#000000" font-family="Verdana" font-size="13" lengthAdjust="spacing" textLength="29.5166" x="914.5" y="586.3371">uses</text></g><!--link AdminServlet to AdminService--><g id="link_AdminServlet_AdminService"><path codeLine="123" d="M2749.5,586.8173 C2749.5,625.5173 2749.5,653.3673 2749.5,674.3373 " fill="none" id="AdminServlet-to-AdminService" style="stroke:#00AA00;stroke-width:1.0;"/><polygon fill="#00AA00" points="2749.5,680.3373,2753.5,671.3373,2749.5,675.3373,2745.5,671.3373,2749.5,680.3373" style="stroke:#00AA00;stroke-width:1.0;"/><text fill="#000000" font-family="Verdana" font-size="13" lengthAdjust="spacing" textLength="29.5166" x="2719.5" y="630.6471">uses</text></g><!--SRC=[nLVVKziu47xFNx5j7owXcD2PUs0Oo4qQd99f3cWIk6SbNXmDZkIJv6QWr__zLhATM8v9U_JkoZ23zUskzeU-bPPNPeahX3HXNBJq0nSfKsm5YuHf_Puj7c8bCn4DP28Ll0bFXYVXoOwQL16gGkNukDy_Fgwhz9MIw-SqxgKmK_w4yEvT1KsuGFEO8aXbbhBLCjma27zmhL5eWzf001_jtYWYpc8oMS4CUGA_di8KrUS43OpP8ofe3yY1aac2gjDg_GBd3Jym3ITtut06D_r9U3Lhr6cnkJQABKoU4rmQavQUlhG0taJo0vfs1PxWdnb5UWWUfbCfD7PEuRFaKMvt8_KB3RENsLqWIV2VcdxzPla6u_vq6awRwvUNhP-PPRLi0Ii0li3JZPGMLXRyI7sEZa8HfP8Bew5zSpsTTOwE2Ewob7Ujqwx2c1ENb0ScCgPMg24oCpLBZIPGUHXbe05XKzIQIr44wxuFuLOJzROrpEim8qkl3gO0N1rcsuMhaT1hL1TCKeNAJuil4lc4C_c0mia6rQMLPxgmkjKRc-1dSDKxYmzXzIXitjqb7OHKZnwsO0PZgJXg3rQuaAiLjRs7kY2eshhBaiIJi6Z5HLSRPlGtIE7KIL4P7ydcAxuzvHYDhUOeQgW29KmxMwrvnfFeKn7K7STrUqmfdfL8ZpGzmAhqjkpesw0zUZGTPPcqmykT9fXApOjglfWvp1XSfIOtt7nR2L-n63sFem9nTcNWUJjNLZ-DU__xFRcNxZaTDtJrONl8JL2tk6fgikyXTSqVj1SAgR4wljmTgcx2w4ygNKVuNcxtEidIQDU9IwKgytQy2Ea52P_Vz3SUdJViLy1vRtBj6DVScNCf4sHYssIEjrwJxUVsZx1t3oEAEd_XqTTjR9V84l-X_9SzBvs3FM_wS3IUXPDzJ_b0AZta2RsWS7PsxpvwFHVhsqZcWdOzr5gOXv3h3POqWEwyaOJQWGjLA1OouYB-ZxpjcMf6Wn0cuJ2aiN3mVOEDlUhy9twBUFVXSsuduRW_6rrVJIz7Dyzuh0vHGV1Nhyg0LdMos15w3ykErEk87QdFoHrnBQfUjI9m2jIjkXPRhrgYKgKMOSyhMgdK4j8WA1ul3SZxwb19V3Wui6lOqFxWm7Ols8knUVhRaPL3O9CWdmKRjlD7GlgTedaoK8o1Bd2Q6Ww1_XV15iqlO7EePr8faCl4hdSoeIvk6eYWJNdBu7SPPRfJYt4xsq2RfXcWc2Kf8WmJ5ZShbsEFY-DZEBeADxTY4U4h5qyfl54oLdco5NajqRaqHgxScLNEEJyq2mJN8dc4jgtH-MjtpR_k55aF5P5Jm61oU-7MTX0Axb2jYPMPYFCSgClMz0zfCB770NDaQexSO7wOxsac8vjH_g9j8liR]--></g></svg>