<svg xmlns="http://www.w3.org/2000/svg" xmlns:xlink="http://www.w3.org/1999/xlink" contentStyleType="text/css" height="773px" preserveAspectRatio="none" style="width:744px;height:773px;background:#FFFFFF;" version="1.1" viewBox="0 0 744 773" width="744px" zoomAndPan="magnify"><title>Vereinfachtes Klassendiagramm - Wissenstest</title><defs/><g><text fill="#000000" font-family="sans-serif" font-size="14" font-weight="bold" lengthAdjust="spacing" textLength="310.4541" x="209.7729" y="24.5332">Vereinfachtes Klassendiagramm - Wissenstest</text><!--cluster Model Layer--><g id="cluster_Model Layer"><rect fill="#F8F8F8" height="722" rx="2.5" ry="2.5" style="stroke:#181818;stroke-width:1.0;" width="731" x="7" y="45.6094"/><text fill="#000000" font-family="sans-serif" font-size="14" font-weight="bold" lengthAdjust="spacing" textLength="81.6895" x="331.6553" y="62.1426">Model Layer</text></g><!--class User--><g id="elem_User"><rect codeLine="10" fill="#F1F1F1" height="171.2656" id="User" rx="2.5" ry="2.5" style="stroke:#181818;stroke-width:0.5;" width="173.1094" x="544.5" y="90.6094"/><ellipse cx="611.2393" cy="106.6094" fill="#ADD1B2" rx="11" ry="11" style="stroke:#181818;stroke-width:1.0;"/><path d="M614.0049,102.4844 Q614.1611,102.2656 614.3486,102.1563 Q614.5361,102.0469 614.7549,102.0469 Q615.1299,102.0469 615.3643,102.3047 Q615.5986,102.5625 615.5986,103.1719 L615.5986,104.625 Q615.5986,105.2344 615.3643,105.5 Q615.1299,105.7656 614.7549,105.7656 Q614.4111,105.7656 614.208,105.5625 Q614.0049,105.375 613.8955,104.8594 Q613.8486,104.5 613.6611,104.3125 Q613.333,103.9375 612.7236,103.7188 Q612.1143,103.5 611.4893,103.5 Q610.7236,103.5 610.0908,103.8281 Q609.458,104.1563 608.9658,104.9063 Q608.4736,105.6563 608.4736,106.6875 L608.4736,107.7813 Q608.4736,109.0156 609.3643,109.8359 Q610.2549,110.6563 611.8486,110.6563 Q612.7861,110.6563 613.4424,110.4063 Q613.833,110.25 614.2549,109.8125 Q614.5205,109.5469 614.6689,109.4688 Q614.8174,109.3906 615.0205,109.3906 Q615.3486,109.3906 615.6064,109.6484 Q615.8643,109.9063 615.8643,110.25 Q615.8643,110.5938 615.5205,111 Q615.0205,111.5781 614.2236,111.9063 Q613.1455,112.3594 611.8486,112.3594 Q610.333,112.3594 609.1299,111.7344 Q608.1455,111.2344 607.458,110.1641 Q606.7705,109.0938 606.7705,107.8125 L606.7705,106.6563 Q606.7705,105.3281 607.3877,104.1797 Q608.0049,103.0313 609.0986,102.4141 Q610.1924,101.7969 611.4268,101.7969 Q612.1611,101.7969 612.8096,101.9609 Q613.458,102.125 614.0049,102.4844 Z " fill="#000000"/><text fill="#000000" font-family="sans-serif" font-size="14" font-weight="bold" lengthAdjust="spacing" textLength="31.1309" x="631.7393" y="112.3379">User</text><line style="stroke:#181818;stroke-width:0.5;" x1="545.5" x2="716.6094" y1="122.6094" y2="122.6094"/><text fill="#000000" font-family="sans-serif" font-size="14" lengthAdjust="spacing" textLength="38.124" x="550.5" y="141.1426">-id: int</text><text fill="#000000" font-family="sans-serif" font-size="14" lengthAdjust="spacing" textLength="111.2686" x="550.5" y="158.752">-username: String</text><text fill="#000000" font-family="sans-serif" font-size="14" lengthAdjust="spacing" textLength="82.4688" x="550.5" y="176.3613">-email: String</text><text fill="#000000" font-family="sans-serif" font-size="14" lengthAdjust="spacing" textLength="141.6133" x="550.5" y="193.9707">-passwordHash: String</text><text fill="#000000" font-family="sans-serif" font-size="14" lengthAdjust="spacing" textLength="133.0547" x="550.5" y="211.5801">-passwordSalt: String</text><text fill="#000000" font-family="sans-serif" font-size="14" lengthAdjust="spacing" textLength="72.3584" x="550.5" y="229.1895">-role: String</text><text fill="#000000" font-family="sans-serif" font-size="14" lengthAdjust="spacing" textLength="161.1094" x="550.5" y="246.7988">-resetRequested: boolean</text><line style="stroke:#181818;stroke-width:0.5;" x1="545.5" x2="716.6094" y1="253.875" y2="253.875"/></g><!--class QuestionType--><g id="elem_QuestionType"><rect codeLine="20" fill="#F1F1F1" height="118.4375" id="QuestionType" rx="2.5" ry="2.5" style="stroke:#181818;stroke-width:0.5;" width="125.3447" x="23.5" y="384.1094"/><ellipse cx="38.5" cy="400.1094" fill="#EB937F" rx="11" ry="11" style="stroke:#181818;stroke-width:1.0;"/><path d="M37.3594,400.9063 L37.3594,403.4063 L41.6875,403.4063 L41.6875,402.4844 Q41.6875,401.875 41.9297,401.6094 Q42.1719,401.3438 42.5469,401.3438 Q42.9219,401.3438 43.1563,401.6094 Q43.3906,401.875 43.3906,402.4844 L43.3906,405.1094 L35.3906,405.1094 Q34.7656,405.1094 34.5078,404.875 Q34.25,404.6406 34.25,404.25 Q34.25,403.875 34.5156,403.6406 Q34.7813,403.4063 35.3906,403.4063 L35.6563,403.4063 L35.6563,396.75 L35.3906,396.75 Q34.7656,396.75 34.5078,396.5156 Q34.25,396.2813 34.25,395.8906 Q34.25,395.5156 34.5078,395.2813 Q34.7656,395.0469 35.3906,395.0469 L43.0156,395.0469 L43.0156,397.6406 Q43.0156,398.25 42.7891,398.5078 Q42.5625,398.7656 42.1719,398.7656 Q41.7969,398.7656 41.5625,398.5078 Q41.3281,398.25 41.3281,397.6406 L41.3281,396.75 L37.3594,396.75 L37.3594,399.2031 L38.8438,399.2031 Q38.8438,398.5469 38.9688,398.3594 Q39.2344,397.9531 39.7031,397.9531 Q40.0781,397.9531 40.3125,398.2109 Q40.5469,398.4688 40.5469,399.0781 L40.5469,401.0469 Q40.5469,401.5938 40.4219,401.7813 Q40.1563,402.1719 39.7031,402.1719 Q39.2344,402.1719 38.9688,401.7656 Q38.8438,401.5781 38.8438,400.9063 L37.3594,400.9063 Z " fill="#000000"/><text fill="#000000" font-family="sans-serif" font-size="14" font-weight="bold" lengthAdjust="spacing" textLength="93.3447" x="52.5" y="405.8379">QuestionType</text><line style="stroke:#181818;stroke-width:0.5;" x1="24.5" x2="147.8447" y1="416.1094" y2="416.1094"/><text fill="#000000" font-family="sans-serif" font-size="14" lengthAdjust="spacing" textLength="21.7725" x="29.5" y="434.6426">MC</text><text fill="#000000" font-family="sans-serif" font-size="14" lengthAdjust="spacing" textLength="46.6758" x="29.5" y="452.252">CLOZE</text><text fill="#000000" font-family="sans-serif" font-size="14" lengthAdjust="spacing" textLength="37.3379" x="29.5" y="469.8613">FREE</text><text fill="#000000" font-family="sans-serif" font-size="14" lengthAdjust="spacing" textLength="45.1172" x="29.5" y="487.4707">IMAGE</text><line style="stroke:#181818;stroke-width:0.5;" x1="24.5" x2="147.8447" y1="494.5469" y2="494.5469"/></g><!--class Question--><g id="elem_Question"><rect codeLine="27" fill="#F1F1F1" height="188.875" id="Question" rx="2.5" ry="2.5" style="stroke:#181818;stroke-width:0.5;" width="138.0615" x="185" y="81.6094"/><ellipse cx="220.4267" cy="97.6094" fill="#ADD1B2" rx="11" ry="11" style="stroke:#181818;stroke-width:1.0;"/><path d="M223.1923,93.4844 Q223.3485,93.2656 223.536,93.1563 Q223.7235,93.0469 223.9423,93.0469 Q224.3173,93.0469 224.5517,93.3047 Q224.786,93.5625 224.786,94.1719 L224.786,95.625 Q224.786,96.2344 224.5517,96.5 Q224.3173,96.7656 223.9423,96.7656 Q223.5985,96.7656 223.3954,96.5625 Q223.1923,96.375 223.0829,95.8594 Q223.036,95.5 222.8485,95.3125 Q222.5204,94.9375 221.911,94.7188 Q221.3017,94.5 220.6767,94.5 Q219.911,94.5 219.2782,94.8281 Q218.6454,95.1563 218.1532,95.9063 Q217.661,96.6563 217.661,97.6875 L217.661,98.7813 Q217.661,100.0156 218.5517,100.8359 Q219.4423,101.6563 221.036,101.6563 Q221.9735,101.6563 222.6298,101.4063 Q223.0204,101.25 223.4423,100.8125 Q223.7079,100.5469 223.8563,100.4688 Q224.0048,100.3906 224.2079,100.3906 Q224.536,100.3906 224.7938,100.6484 Q225.0517,100.9063 225.0517,101.25 Q225.0517,101.5938 224.7079,102 Q224.2079,102.5781 223.411,102.9063 Q222.3329,103.3594 221.036,103.3594 Q219.5204,103.3594 218.3173,102.7344 Q217.3329,102.2344 216.6454,101.1641 Q215.9579,100.0938 215.9579,98.8125 L215.9579,97.6563 Q215.9579,96.3281 216.5751,95.1797 Q217.1923,94.0313 218.286,93.4141 Q219.3798,92.7969 220.6142,92.7969 Q221.3485,92.7969 221.997,92.9609 Q222.6454,93.125 223.1923,93.4844 Z " fill="#000000"/><text fill="#000000" font-family="sans-serif" font-size="14" font-weight="bold" lengthAdjust="spacing" textLength="60.6689" x="238.9659" y="103.3379">Question</text><line style="stroke:#181818;stroke-width:0.5;" x1="186" x2="322.0615" y1="113.6094" y2="113.6094"/><text fill="#000000" font-family="sans-serif" font-size="14" lengthAdjust="spacing" textLength="38.124" x="191" y="132.1426">-id: int</text><text fill="#000000" font-family="sans-serif" font-size="14" lengthAdjust="spacing" textLength="126.0615" x="191" y="149.752">-type: QuestionType</text><text fill="#000000" font-family="sans-serif" font-size="14" lengthAdjust="spacing" textLength="92.5859" x="191" y="167.3613">-prompt: String</text><text fill="#000000" font-family="sans-serif" font-size="14" lengthAdjust="spacing" textLength="77.7998" x="191" y="184.9707">-difficulty: int</text><text fill="#000000" font-family="sans-serif" font-size="14" lengthAdjust="spacing" textLength="64.5859" x="191" y="202.5801">-points: int</text><text fill="#000000" font-family="sans-serif" font-size="14" lengthAdjust="spacing" textLength="109.71" x="191" y="220.1895">-metaJson: String</text><text fill="#000000" font-family="sans-serif" font-size="14" lengthAdjust="spacing" textLength="105.0273" x="191" y="237.7988">-imageUrl: String</text><text fill="#000000" font-family="sans-serif" font-size="14" lengthAdjust="spacing" textLength="102.71" x="191" y="255.4082">-category: String</text><line style="stroke:#181818;stroke-width:0.5;" x1="186" x2="322.0615" y1="262.4844" y2="262.4844"/></g><!--class AnswerOption--><g id="elem_AnswerOption"><rect codeLine="38" fill="#F1F1F1" height="136.0469" id="AnswerOption" rx="2.5" ry="2.5" style="stroke:#181818;stroke-width:0.5;" width="140.4199" x="184" y="375.1094"/><ellipse cx="204.7379" cy="391.1094" fill="#ADD1B2" rx="11" ry="11" style="stroke:#181818;stroke-width:1.0;"/><path d="M207.5036,386.9844 Q207.6598,386.7656 207.8473,386.6563 Q208.0348,386.5469 208.2536,386.5469 Q208.6286,386.5469 208.8629,386.8047 Q209.0973,387.0625 209.0973,387.6719 L209.0973,389.125 Q209.0973,389.7344 208.8629,390 Q208.6286,390.2656 208.2536,390.2656 Q207.9098,390.2656 207.7067,390.0625 Q207.5036,389.875 207.3942,389.3594 Q207.3473,389 207.1598,388.8125 Q206.8317,388.4375 206.2223,388.2188 Q205.6129,388 204.9879,388 Q204.2223,388 203.5895,388.3281 Q202.9567,388.6563 202.4645,389.4063 Q201.9723,390.1563 201.9723,391.1875 L201.9723,392.2813 Q201.9723,393.5156 202.8629,394.3359 Q203.7536,395.1563 205.3473,395.1563 Q206.2848,395.1563 206.9411,394.9063 Q207.3317,394.75 207.7536,394.3125 Q208.0192,394.0469 208.1676,393.9688 Q208.3161,393.8906 208.5192,393.8906 Q208.8473,393.8906 209.1051,394.1484 Q209.3629,394.4063 209.3629,394.75 Q209.3629,395.0938 209.0192,395.5 Q208.5192,396.0781 207.7223,396.4063 Q206.6442,396.8594 205.3473,396.8594 Q203.8317,396.8594 202.6286,396.2344 Q201.6442,395.7344 200.9567,394.6641 Q200.2692,393.5938 200.2692,392.3125 L200.2692,391.1563 Q200.2692,389.8281 200.8864,388.6797 Q201.5036,387.5313 202.5973,386.9141 Q203.6911,386.2969 204.9254,386.2969 Q205.6598,386.2969 206.3083,386.4609 Q206.9567,386.625 207.5036,386.9844 Z " fill="#000000"/><text fill="#000000" font-family="sans-serif" font-size="14" font-weight="bold" lengthAdjust="spacing" textLength="95.6689" x="220.013" y="396.8379">AnswerOption</text><line style="stroke:#181818;stroke-width:0.5;" x1="185" x2="323.4199" y1="407.1094" y2="407.1094"/><text fill="#000000" font-family="sans-serif" font-size="14" lengthAdjust="spacing" textLength="38.124" x="190" y="425.6426">-id: int</text><text fill="#000000" font-family="sans-serif" font-size="14" lengthAdjust="spacing" textLength="91.834" x="190" y="443.252">-questionId: int</text><text fill="#000000" font-family="sans-serif" font-size="14" lengthAdjust="spacing" textLength="121.3721" x="190" y="460.8613">-answerText: String</text><text fill="#000000" font-family="sans-serif" font-size="14" lengthAdjust="spacing" textLength="105.0547" x="190" y="478.4707">-correct: boolean</text><text fill="#000000" font-family="sans-serif" font-size="14" lengthAdjust="spacing" textLength="128.4199" x="190" y="496.0801">-partialValue: double</text><line style="stroke:#181818;stroke-width:0.5;" x1="185" x2="323.4199" y1="503.1563" y2="503.1563"/></g><!--class ClozeToken--><g id="elem_ClozeToken"><rect codeLine="46" fill="#F1F1F1" height="136.0469" id="ClozeToken" rx="2.5" ry="2.5" style="stroke:#181818;stroke-width:0.5;" width="145.0615" x="359.5" y="375.1094"/><ellipse cx="390.0232" cy="391.1094" fill="#ADD1B2" rx="11" ry="11" style="stroke:#181818;stroke-width:1.0;"/><path d="M392.7889,386.9844 Q392.9451,386.7656 393.1326,386.6563 Q393.3201,386.5469 393.5389,386.5469 Q393.9139,386.5469 394.1482,386.8047 Q394.3826,387.0625 394.3826,387.6719 L394.3826,389.125 Q394.3826,389.7344 394.1482,390 Q393.9139,390.2656 393.5389,390.2656 Q393.1951,390.2656 392.992,390.0625 Q392.7889,389.875 392.6795,389.3594 Q392.6326,389 392.4451,388.8125 Q392.117,388.4375 391.5076,388.2188 Q390.8982,388 390.2732,388 Q389.5076,388 388.8748,388.3281 Q388.242,388.6563 387.7498,389.4063 Q387.2576,390.1563 387.2576,391.1875 L387.2576,392.2813 Q387.2576,393.5156 388.1482,394.3359 Q389.0389,395.1563 390.6326,395.1563 Q391.5701,395.1563 392.2264,394.9063 Q392.617,394.75 393.0389,394.3125 Q393.3045,394.0469 393.4529,393.9688 Q393.6014,393.8906 393.8045,393.8906 Q394.1326,393.8906 394.3904,394.1484 Q394.6482,394.4063 394.6482,394.75 Q394.6482,395.0938 394.3045,395.5 Q393.8045,396.0781 393.0076,396.4063 Q391.9295,396.8594 390.6326,396.8594 Q389.117,396.8594 387.9139,396.2344 Q386.9295,395.7344 386.242,394.6641 Q385.5545,393.5938 385.5545,392.3125 L385.5545,391.1563 Q385.5545,389.8281 386.1717,388.6797 Q386.7889,387.5313 387.8826,386.9141 Q388.9764,386.2969 390.2107,386.2969 Q390.9451,386.2969 391.5936,386.4609 Q392.242,386.625 392.7889,386.9844 Z " fill="#000000"/><text fill="#000000" font-family="sans-serif" font-size="14" font-weight="bold" lengthAdjust="spacing" textLength="78.5654" x="407.4729" y="396.8379">ClozeToken</text><line style="stroke:#181818;stroke-width:0.5;" x1="360.5" x2="503.5615" y1="407.1094" y2="407.1094"/><text fill="#000000" font-family="sans-serif" font-size="14" lengthAdjust="spacing" textLength="38.124" x="365.5" y="425.6426">-id: int</text><text fill="#000000" font-family="sans-serif" font-size="14" lengthAdjust="spacing" textLength="91.834" x="365.5" y="443.252">-questionId: int</text><text fill="#000000" font-family="sans-serif" font-size="14" lengthAdjust="spacing" textLength="95.7236" x="365.5" y="460.8613">-tokenIndex: int</text><text fill="#000000" font-family="sans-serif" font-size="14" lengthAdjust="spacing" textLength="133.0615" x="365.5" y="478.4707">-expectedText: String</text><text fill="#000000" font-family="sans-serif" font-size="14" lengthAdjust="spacing" textLength="128.4199" x="365.5" y="496.0801">-partialValue: double</text><line style="stroke:#181818;stroke-width:0.5;" x1="360.5" x2="503.5615" y1="503.1563" y2="503.1563"/></g><!--class Attempt--><g id="elem_Attempt"><rect codeLine="54" fill="#F1F1F1" height="188.875" id="Attempt" rx="2.5" ry="2.5" style="stroke:#181818;stroke-width:0.5;" width="182.3926" x="540" y="348.6094"/><ellipse cx="600.5049" cy="364.6094" fill="#ADD1B2" rx="11" ry="11" style="stroke:#181818;stroke-width:1.0;"/><path d="M603.2705,360.4844 Q603.4268,360.2656 603.6143,360.1563 Q603.8018,360.0469 604.0205,360.0469 Q604.3955,360.0469 604.6299,360.3047 Q604.8643,360.5625 604.8643,361.1719 L604.8643,362.625 Q604.8643,363.2344 604.6299,363.5 Q604.3955,363.7656 604.0205,363.7656 Q603.6768,363.7656 603.4736,363.5625 Q603.2705,363.375 603.1611,362.8594 Q603.1143,362.5 602.9268,362.3125 Q602.5986,361.9375 601.9893,361.7188 Q601.3799,361.5 600.7549,361.5 Q599.9893,361.5 599.3564,361.8281 Q598.7236,362.1563 598.2314,362.9063 Q597.7393,363.6563 597.7393,364.6875 L597.7393,365.7813 Q597.7393,367.0156 598.6299,367.8359 Q599.5205,368.6563 601.1143,368.6563 Q602.0518,368.6563 602.708,368.4063 Q603.0986,368.25 603.5205,367.8125 Q603.7861,367.5469 603.9346,367.4688 Q604.083,367.3906 604.2861,367.3906 Q604.6143,367.3906 604.8721,367.6484 Q605.1299,367.9063 605.1299,368.25 Q605.1299,368.5938 604.7861,369 Q604.2861,369.5781 603.4893,369.9063 Q602.4111,370.3594 601.1143,370.3594 Q599.5986,370.3594 598.3955,369.7344 Q597.4111,369.2344 596.7236,368.1641 Q596.0361,367.0938 596.0361,365.8125 L596.0361,364.6563 Q596.0361,363.3281 596.6533,362.1797 Q597.2705,361.0313 598.3643,360.4141 Q599.458,359.7969 600.6924,359.7969 Q601.4268,359.7969 602.0752,359.9609 Q602.7236,360.125 603.2705,360.4844 Z " fill="#000000"/><text fill="#000000" font-family="sans-serif" font-size="14" font-weight="bold" lengthAdjust="spacing" textLength="52.8828" x="621.0049" y="370.3379">Attempt</text><line style="stroke:#181818;stroke-width:0.5;" x1="541" x2="721.3926" y1="380.6094" y2="380.6094"/><text fill="#000000" font-family="sans-serif" font-size="14" lengthAdjust="spacing" textLength="38.124" x="546" y="399.1426">-id: int</text><text fill="#000000" font-family="sans-serif" font-size="14" lengthAdjust="spacing" textLength="66.1377" x="546" y="416.752">-userId: int</text><text fill="#000000" font-family="sans-serif" font-size="14" lengthAdjust="spacing" textLength="119.8545" x="546" y="434.3613">-totalPoints: double</text><text fill="#000000" font-family="sans-serif" font-size="14" lengthAdjust="spacing" textLength="119.8408" x="546" y="451.9707">-maxPoints: double</text><text fill="#000000" font-family="sans-serif" font-size="14" lengthAdjust="spacing" textLength="77.7998" x="546" y="469.5801">-difficulty: int</text><text fill="#000000" font-family="sans-serif" font-size="14" lengthAdjust="spacing" textLength="170.3926" x="546" y="487.1895">-createdAt: OffsetDateTime</text><text fill="#000000" font-family="sans-serif" font-size="14" lengthAdjust="spacing" textLength="84.8203" x="546" y="504.7988">-grade: String</text><text fill="#000000" font-family="sans-serif" font-size="14" lengthAdjust="spacing" textLength="132.3027" x="546" y="522.4082">-durationSeconds: int</text><line style="stroke:#181818;stroke-width:0.5;" x1="541" x2="721.3926" y1="529.4844" y2="529.4844"/></g><!--class AttemptAnswer--><g id="elem_AttemptAnswer"><rect codeLine="65" fill="#F1F1F1" height="136.0469" id="AttemptAnswer" rx="2.5" ry="2.5" style="stroke:#181818;stroke-width:0.5;" width="159.0957" x="551.5" y="615.6094"/><ellipse cx="577.1383" cy="631.6094" fill="#ADD1B2" rx="11" ry="11" style="stroke:#181818;stroke-width:1.0;"/><path d="M579.9039,627.4844 Q580.0602,627.2656 580.2477,627.1563 Q580.4352,627.0469 580.6539,627.0469 Q581.0289,627.0469 581.2633,627.3047 Q581.4977,627.5625 581.4977,628.1719 L581.4977,629.625 Q581.4977,630.2344 581.2633,630.5 Q581.0289,630.7656 580.6539,630.7656 Q580.3102,630.7656 580.107,630.5625 Q579.9039,630.375 579.7945,629.8594 Q579.7477,629.5 579.5602,629.3125 Q579.232,628.9375 578.6227,628.7188 Q578.0133,628.5 577.3883,628.5 Q576.6227,628.5 575.9898,628.8281 Q575.357,629.1563 574.8648,629.9063 Q574.3727,630.6563 574.3727,631.6875 L574.3727,632.7813 Q574.3727,634.0156 575.2633,634.8359 Q576.1539,635.6563 577.7477,635.6563 Q578.6852,635.6563 579.3414,635.4063 Q579.732,635.25 580.1539,634.8125 Q580.4195,634.5469 580.568,634.4688 Q580.7164,634.3906 580.9195,634.3906 Q581.2477,634.3906 581.5055,634.6484 Q581.7633,634.9063 581.7633,635.25 Q581.7633,635.5938 581.4195,636 Q580.9195,636.5781 580.1227,636.9063 Q579.0445,637.3594 577.7477,637.3594 Q576.232,637.3594 575.0289,636.7344 Q574.0445,636.2344 573.357,635.1641 Q572.6695,634.0938 572.6695,632.8125 L572.6695,631.6563 Q572.6695,630.3281 573.2867,629.1797 Q573.9039,628.0313 574.9977,627.4141 Q576.0914,626.7969 577.3258,626.7969 Q578.0602,626.7969 578.7086,626.9609 Q579.357,627.125 579.9039,627.4844 Z " fill="#000000"/><text fill="#000000" font-family="sans-serif" font-size="14" font-weight="bold" lengthAdjust="spacing" textLength="103.4551" x="593.5023" y="637.3379">AttemptAnswer</text><line style="stroke:#181818;stroke-width:0.5;" x1="552.5" x2="709.5957" y1="647.6094" y2="647.6094"/><text fill="#000000" font-family="sans-serif" font-size="14" lengthAdjust="spacing" textLength="38.124" x="557.5" y="666.1426">-id: int</text><text fill="#000000" font-family="sans-serif" font-size="14" lengthAdjust="spacing" textLength="85.5928" x="557.5" y="683.752">-attemptId: int</text><text fill="#000000" font-family="sans-serif" font-size="14" lengthAdjust="spacing" textLength="91.834" x="557.5" y="701.3613">-questionId: int</text><text fill="#000000" font-family="sans-serif" font-size="14" lengthAdjust="spacing" textLength="129.165" x="557.5" y="718.9707">-givenAnswer: String</text><text fill="#000000" font-family="sans-serif" font-size="14" lengthAdjust="spacing" textLength="147.0957" x="557.5" y="736.5801">-pointsAwarded: double</text><line style="stroke:#181818;stroke-width:0.5;" x1="552.5" x2="709.5957" y1="743.6563" y2="743.6563"/></g><!--link Question to QuestionType--><g id="link_Question_QuestionType"><path codeLine="74" d="M194.53,270.9094 C170.65,308.5794 147.0828,345.7621 126.1028,378.8521 " fill="none" id="Question-to-QuestionType" style="stroke:#181818;stroke-width:1.0;"/><polygon fill="#181818" points="122.89,383.9194,131.0875,378.4603,125.5674,379.6966,124.331,374.1765,122.89,383.9194" style="stroke:#181818;stroke-width:1.0;"/></g><!--reverse link Question to AnswerOption--><g id="link_Question_AnswerOption"><path codeLine="75" d="M254,282.9094 C254,317.3094 254,343.5094 254,375.0894 " fill="none" id="Question-backto-AnswerOption" style="stroke:#181818;stroke-width:1.0;"/><polygon fill="#181818" points="254,270.9094,250,276.9094,254,282.9094,258,276.9094,254,270.9094" style="stroke:#181818;stroke-width:1.0;"/><text fill="#000000" font-family="sans-serif" font-size="13" lengthAdjust="spacing" textLength="18.0718" x="255" y="315.1045">hat</text><text fill="#000000" font-family="sans-serif" font-size="13" lengthAdjust="spacing" textLength="7.23" x="246.7492" y="291.9714">1</text><text fill="#000000" font-family="sans-serif" font-size="13" lengthAdjust="spacing" textLength="5.0591" x="248.7068" y="364.2865">*</text></g><!--reverse link Question to ClozeToken--><g id="link_Question_ClozeToken"><path codeLine="76" d="M323.6998,280.8716 C346.7998,315.2716 365.77,343.5094 386.98,375.0894 " fill="none" id="Question-backto-ClozeToken" style="stroke:#181818;stroke-width:1.0;"/><polygon fill="#181818" points="317.01,270.9094,317.0341,278.1204,323.6998,280.8716,323.6756,273.6606,317.01,270.9094" style="stroke:#181818;stroke-width:1.0;"/><text fill="#000000" font-family="sans-serif" font-size="13" lengthAdjust="spacing" textLength="18.0718" x="349" y="315.1045">hat</text><text fill="#000000" font-family="sans-serif" font-size="13" lengthAdjust="spacing" textLength="7.23" x="314.3865" y="291.9714">1</text><text fill="#000000" font-family="sans-serif" font-size="13" lengthAdjust="spacing" textLength="5.0591" x="376.7824" y="364.2865">*</text></g><!--reverse link User to Attempt--><g id="link_User_Attempt"><path codeLine="77" d="M631,273.6894 C631,301.2494 631,320.0194 631,348.2294 " fill="none" id="User-backto-Attempt" style="stroke:#181818;stroke-width:1.0;"/><polygon fill="#181818" points="631,261.6894,627,267.6894,631,273.6894,635,267.6894,631,261.6894" style="stroke:#181818;stroke-width:1.0;"/><text fill="#000000" font-family="sans-serif" font-size="13" lengthAdjust="spacing" textLength="35.4009" x="632" y="315.1045">macht</text><text fill="#000000" font-family="sans-serif" font-size="13" lengthAdjust="spacing" textLength="7.23" x="623.7044" y="283.2302">1</text><text fill="#000000" font-family="sans-serif" font-size="13" lengthAdjust="spacing" textLength="5.0591" x="625.7958" y="337.866">*</text></g><!--reverse link Attempt to AttemptAnswer--><g id="link_Attempt_AttemptAnswer"><path codeLine="78" d="M631,549.6894 C631,575.6594 631,591.3294 631,615.4594 " fill="none" id="Attempt-backto-AttemptAnswer" style="stroke:#181818;stroke-width:1.0;"/><polygon fill="#181818" points="631,537.6894,627,543.6894,631,549.6894,635,543.6894,631,537.6894" style="stroke:#181818;stroke-width:1.0;"/><text fill="#000000" font-family="sans-serif" font-size="13" lengthAdjust="spacing" textLength="39.0317" x="632" y="582.1045">enth&#228;lt</text><text fill="#000000" font-family="sans-serif" font-size="13" lengthAdjust="spacing" textLength="7.23" x="623.7258" y="559.0565">1</text><text fill="#000000" font-family="sans-serif" font-size="13" lengthAdjust="spacing" textLength="5.0591" x="625.7246" y="604.6422">*</text></g><!--SRC=[dLNRRjf047ttLwpeMoHBxLjbHKYKafOsY3QGLEhRu1sR5UjTPpqka2f_qp_fZtLy2TZ6955joMRtZ6Vdp9aPI956SOSEbOaWN1Dcugk6B4CZ5SGEaaJuueSgDZ86oVEoZJ8fC2B2md14vDGg9vo6rYpK0ugtNPChQsX1UpvePRLie2c46uZn0xzYPtCZnrPR9zv4xulRysfS36PMeXRNi4St49UNDnWIc5ZZS2X-UuAlyb4U9cupTFLkSVbA1a8PEcxaR60WmK0iE7GJ7n5CGEdJxPJTRgsJdo5RdqSNeEaKTLRt7EGmGxh1-vmpYXpVoh8PcDBWyKW8JPw8xuMHicQvJx71QpO-_1nVptzE3gkhcybnCPsDFaswRgiyFVbzDbV4XmQj41h4dKtI7ifIHP4ASqtxZhFKyZBhR2P8y2MpvjIFIbZxMzSZI0Y4iNNx5d92S6IoBRfv-YB9-vhUj0j0wM69knwMeNMEox2jNLqGZXJeEz0vvqxQVAMnFyAnjW-uj1lyp_Ye-7Hg9Euw0EvIZWrbV-Yl3v2R6rdZ5zkf9p82_QtMkt529Jdipa5dQoTqoABB4TEPHn5tpqTUBbNI-9QdbUpfDPaxABAtG1vGib5-vzXMTVCiPwWifwzMAbQ_q5IEU_Geap7QWfF5C6W9ykXvXqRr_M6x5G_8uDr0NFY-65mCscKVY3LGlrsZ-2ghSd2sFDNg1o8f_XgyftMFJPspW4SMhV_-qUJz0m00]--></g></svg>