<svg xmlns="http://www.w3.org/2000/svg" xmlns:xlink="http://www.w3.org/1999/xlink" contentStyleType="text/css" height="2069px" preserveAspectRatio="none" style="width:1288px;height:2069px;background:#FFFFFF;" version="1.1" viewBox="0 0 1288 2069" width="1288px" zoomAndPan="magnify"><title>Use-Case Diagramm - Projekt Wissenstest</title><defs/><g><text fill="#000000" font-family="sans-serif" font-size="14" font-weight="bold" lengthAdjust="spacing" textLength="281.6611" x="496.1694" y="24.5332">Use-Case Diagramm - Projekt Wissenstest</text><!--cluster Wissenstest System--><g id="cluster_Wissenstest System"><rect fill="none" height="1518" rx="2.5" ry="2.5" style="stroke:#181818;stroke-width:1.0;" width="1158" x="124" y="387.2294"/><text fill="#000000" font-family="sans-serif" font-size="14" font-weight="bold" lengthAdjust="spacing" textLength="135.3926" x="635.3037" y="403.7626">Wissenstest System</text></g><!--cluster Authentifizierung--><g id="cluster_Authentifizierung"><path d="M155,431.2294 L271.0967,431.2294 A3.75,3.75 0 0 1 273.5967,433.7294 L280.5967,454.8387 L379,454.8387 A2.5,2.5 0 0 1 381.5,457.3387 L381.5,724.7294 A2.5,2.5 0 0 1 379,727.2294 L155,727.2294 A2.5,2.5 0 0 1 152.5,724.7294 L152.5,433.7294 A2.5,2.5 0 0 1 155,431.2294 " fill="none" style="stroke:#000000;stroke-width:1.5;"/><line style="stroke:#000000;stroke-width:1.5;" x1="152.5" x2="280.5967" y1="454.8387" y2="454.8387"/><text fill="#000000" font-family="sans-serif" font-size="14" font-weight="bold" lengthAdjust="spacing" textLength="115.0967" x="156.5" y="447.7626">Authentifizierung</text></g><!--cluster Test-Durchf?hrung--><g id="cluster_Test-Durchf&#252;hrung"><path d="M173,751.2294 L300.7656,751.2294 A3.75,3.75 0 0 1 303.2656,753.7294 L310.2656,774.8387 L1255.5,774.8387 A2.5,2.5 0 0 1 1258,777.3387 L1258,913.7294 A2.5,2.5 0 0 1 1255.5,916.2294 L173,916.2294 A2.5,2.5 0 0 1 170.5,913.7294 L170.5,753.7294 A2.5,2.5 0 0 1 173,751.2294 " fill="none" style="stroke:#000000;stroke-width:1.5;"/><line style="stroke:#000000;stroke-width:1.5;" x1="170.5" x2="310.2656" y1="774.8387" y2="774.8387"/><text fill="#000000" font-family="sans-serif" font-size="14" font-weight="bold" lengthAdjust="spacing" textLength="126.7656" x="174.5" y="767.7626">Test-Durchf&#252;hrung</text></g><!--cluster Lernmodus--><g id="cluster_Lernmodus"><path d="M177,940.2294 L254.2275,940.2294 A3.75,3.75 0 0 1 256.7275,942.7294 L263.7275,963.8387 L357,963.8387 A2.5,2.5 0 0 1 359.5,966.3387 L359.5,1025.7294 A2.5,2.5 0 0 1 357,1028.2294 L177,1028.2294 A2.5,2.5 0 0 1 174.5,1025.7294 L174.5,942.7294 A2.5,2.5 0 0 1 177,940.2294 " fill="none" style="stroke:#000000;stroke-width:1.5;"/><line style="stroke:#000000;stroke-width:1.5;" x1="174.5" x2="263.7275" y1="963.8387" y2="963.8387"/><text fill="#000000" font-family="sans-serif" font-size="14" font-weight="bold" lengthAdjust="spacing" textLength="76.2275" x="178.5" y="956.7626">Lernmodus</text></g><!--cluster Fragenverwaltung--><g id="cluster_Fragenverwaltung"><path d="M175.5,1513.2294 L297.0791,1513.2294 A3.75,3.75 0 0 1 299.5791,1515.7294 L306.5791,1536.8388 L358.5,1536.8388 A2.5,2.5 0 0 1 361,1539.3388 L361,1878.7294 A2.5,2.5 0 0 1 358.5,1881.2294 L175.5,1881.2294 A2.5,2.5 0 0 1 173,1878.7294 L173,1515.7294 A2.5,2.5 0 0 1 175.5,1513.2294 " fill="none" style="stroke:#000000;stroke-width:1.5;"/><line style="stroke:#000000;stroke-width:1.5;" x1="173" x2="306.5791" y1="1536.8388" y2="1536.8388"/><text fill="#000000" font-family="sans-serif" font-size="14" font-weight="bold" lengthAdjust="spacing" textLength="120.5791" x="177" y="1529.7626">Fragenverwaltung</text></g><!--cluster Benutzerverwaltung--><g id="cluster_Benutzerverwaltung"><path d="M150.5,1052.2294 L285.2998,1052.2294 A3.75,3.75 0 0 1 287.7998,1054.7294 L294.7998,1075.8388 L383.5,1075.8388 A2.5,2.5 0 0 1 386,1078.3388 L386,1368.7294 A2.5,2.5 0 0 1 383.5,1371.2294 L150.5,1371.2294 A2.5,2.5 0 0 1 148,1368.7294 L148,1054.7294 A2.5,2.5 0 0 1 150.5,1052.2294 " fill="none" style="stroke:#000000;stroke-width:1.5;"/><line style="stroke:#000000;stroke-width:1.5;" x1="148" x2="294.7998" y1="1075.8388" y2="1075.8388"/><text fill="#000000" font-family="sans-serif" font-size="14" font-weight="bold" lengthAdjust="spacing" textLength="133.7998" x="152" y="1068.7626">Benutzerverwaltung</text></g><!--cluster Statistiken--><g id="cluster_Statistiken"><path d="M161,1395.2294 L232.7998,1395.2294 A3.75,3.75 0 0 1 235.2998,1397.7294 L242.2998,1418.8388 L373,1418.8388 A2.5,2.5 0 0 1 375.5,1421.3388 L375.5,1486.7294 A2.5,2.5 0 0 1 373,1489.2294 L161,1489.2294 A2.5,2.5 0 0 1 158.5,1486.7294 L158.5,1397.7294 A2.5,2.5 0 0 1 161,1395.2294 " fill="none" style="stroke:#000000;stroke-width:1.5;"/><line style="stroke:#000000;stroke-width:1.5;" x1="158.5" x2="242.2998" y1="1418.8388" y2="1418.8388"/><text fill="#000000" font-family="sans-serif" font-size="14" font-weight="bold" lengthAdjust="spacing" textLength="70.7998" x="162.5" y="1411.7626">Statistiken</text></g><g id="elem_UC_Register"><ellipse cx="267.1925" cy="483.3498" fill="#F1F1F1" rx="65.6925" ry="15.6204" style="stroke:#181818;stroke-width:0.5;"/><text fill="#000000" font-family="sans-serif" font-size="14" lengthAdjust="spacing" textLength="75.4756" x="226.4547" y="487.8664">Registrieren</text></g><g id="elem_UC_Login"><ellipse cx="267.2071" cy="629.1811" fill="#F1F1F1" rx="35.7071" ry="15.4517" style="stroke:#181818;stroke-width:0.5;"/><text fill="#000000" font-family="sans-serif" font-size="14" lengthAdjust="spacing" textLength="34.2549" x="250.0797" y="632.9096">Login</text></g><g id="elem_UC_Logout"><ellipse cx="266.7638" cy="695.1811" fill="#F1F1F1" rx="41.7638" ry="15.4517" style="stroke:#181818;stroke-width:0.5;"/><text fill="#000000" font-family="sans-serif" font-size="14" lengthAdjust="spacing" textLength="42.8203" x="245.3468" y="698.9118">Logout</text></g><g id="elem_UC_ResetRequest"><ellipse cx="267.2083" cy="556.371" fill="#F1F1F1" rx="98.7083" ry="22.1417" style="stroke:#181818;stroke-width:0.5;"/><text fill="#000000" font-family="sans-serif" font-size="14" lengthAdjust="spacing" textLength="157.9648" x="188.2259" y="560.0995">Passwort-Reset anfragen</text></g><g id="elem_UC_ChooseDifficulty"><ellipse cx="1154.8514" cy="806.9997" fill="#F1F1F1" rx="86.8514" ry="19.7703" style="stroke:#181818;stroke-width:0.5;"/><text fill="#000000" font-family="sans-serif" font-size="14" lengthAdjust="spacing" textLength="130.7305" x="1089.4862" y="810.7282">Schwierigkeit w&#228;hlen</text></g><g id="elem_UC_AutoMode"><ellipse cx="620.421" cy="806.2136" fill="#F1F1F1" rx="82.921" ry="18.9842" style="stroke:#181818;stroke-width:0.5;"/><text fill="#000000" font-family="sans-serif" font-size="14" lengthAdjust="spacing" textLength="121.4063" x="559.7179" y="809.9421">Auto-Modus nutzen</text></g><g id="elem_UC_StartTest"><ellipse cx="886.5407" cy="807.3426" fill="#F1F1F1" rx="64.5407" ry="15.6133" style="stroke:#181818;stroke-width:0.5;"/><text fill="#000000" font-family="sans-serif" font-size="14" lengthAdjust="spacing" textLength="73.917" x="846.5822" y="811.8592">Test starten</text></g><g id="elem_UC_Answer"><ellipse cx="620.5541" cy="880.0402" fill="#F1F1F1" rx="84.5541" ry="19.3108" style="stroke:#181818;stroke-width:0.5;"/><text fill="#000000" font-family="sans-serif" font-size="14" lengthAdjust="spacing" textLength="125.3027" x="557.9027" y="883.7687">Fragen beantworten</text></g><g id="elem_UC_ViewResult"><ellipse cx="267.1772" cy="806.2648" fill="#F1F1F1" rx="80.6772" ry="18.5354" style="stroke:#181818;stroke-width:0.5;"/><text fill="#000000" font-family="sans-serif" font-size="14" lengthAdjust="spacing" textLength="115.9717" x="208.4992" y="810.1945">Ergebnis anzeigen</text></g><g id="elem_UC_History"><ellipse cx="267.0736" cy="878.1441" fill="#F1F1F1" rx="77.5736" ry="17.9147" style="stroke:#181818;stroke-width:0.5;"/><text fill="#000000" font-family="sans-serif" font-size="14" lengthAdjust="spacing" textLength="108.1719" x="210.8702" y="882.4506">Historie einsehen</text></g><g id="elem_UC_FlipCards"><ellipse cx="267.1702" cy="994.4634" fill="#F1F1F1" rx="76.6702" ry="17.734" style="stroke:#181818;stroke-width:0.5;"/><text fill="#000000" font-family="sans-serif" font-size="14" lengthAdjust="spacing" textLength="105.8271" x="211.6872" y="998.8796">FlipCards nutzen</text></g><g id="elem_UC_ListQuestions"><ellipse cx="266.8835" cy="1567.4061" fill="#F1F1F1" rx="76.3835" ry="17.6767" style="stroke:#181818;stroke-width:0.5;"/><text fill="#000000" font-family="sans-serif" font-size="14" lengthAdjust="spacing" textLength="105.0752" x="211.6291" y="1571.8571">Fragen anzeigen</text></g><g id="elem_UC_CreateQuestion"><ellipse cx="267.0621" cy="1637.0418" fill="#F1F1F1" rx="72.0621" ry="16.8124" style="stroke:#181818;stroke-width:0.5;"/><text fill="#000000" font-family="sans-serif" font-size="14" lengthAdjust="spacing" textLength="93.3789" x="217.3727" y="1641.5584">Frage erstellen</text></g><g id="elem_UC_EditQuestion"><ellipse cx="266.9767" cy="1707.0247" fill="#F1F1F1" rx="76.9767" ry="17.7953" style="stroke:#181818;stroke-width:0.5;"/><text fill="#000000" font-family="sans-serif" font-size="14" lengthAdjust="spacing" textLength="106.627" x="211.2493" y="1711.4037">Frage bearbeiten</text></g><g id="elem_UC_DeleteQuestion"><ellipse cx="266.9044" cy="1777.2103" fill="#F1F1F1" rx="70.4044" ry="16.4809" style="stroke:#181818;stroke-width:0.5;"/><text fill="#000000" font-family="sans-serif" font-size="14" lengthAdjust="spacing" textLength="88.7168" x="219.546" y="1781.7269">Frage l&#246;schen</text></g><g id="elem_UC_ImportImages"><ellipse cx="267.1739" cy="1847.2641" fill="#F1F1F1" rx="78.1739" ry="18.0348" style="stroke:#181818;stroke-width:0.5;"/><text fill="#000000" font-family="sans-serif" font-size="14" lengthAdjust="spacing" textLength="109.71" x="210.4918" y="1851.4978">Bilder importieren</text></g><g id="elem_UC_ListUsers"><ellipse cx="266.9951" cy="1336.3284" fill="#F1F1F1" rx="80.9951" ry="18.599" style="stroke:#181818;stroke-width:0.5;"/><text fill="#000000" font-family="sans-serif" font-size="14" lengthAdjust="spacing" textLength="116.751" x="208.0636" y="1340.2195">Benutzer anzeigen</text></g><g id="elem_UC_ResetPassword"><ellipse cx="267.0417" cy="1109.1377" fill="#F1F1F1" rx="92.5417" ry="20.9083" style="stroke:#181818;stroke-width:0.5;"/><text fill="#000000" font-family="sans-serif" font-size="14" lengthAdjust="spacing" textLength="143.9443" x="195.0696" y="1112.8662">Passwort zur&#252;cksetzen</text></g><g id="elem_UC_DeleteUser"><ellipse cx="267.0762" cy="1183.1446" fill="#F1F1F1" rx="77.5762" ry="17.9152" style="stroke:#181818;stroke-width:0.5;"/><text fill="#000000" font-family="sans-serif" font-size="14" lengthAdjust="spacing" textLength="108.1787" x="210.8707" y="1187.4508">Benutzer l&#246;schen</text></g><g id="elem_UC_HandleResets"><ellipse cx="267.2393" cy="1259.2772" fill="#F1F1F1" rx="103.2393" ry="23.0479" style="stroke:#181818;stroke-width:0.5;"/><text fill="#000000" font-family="sans-serif" font-size="14" lengthAdjust="spacing" textLength="168.1094" x="183.1846" y="1263.0057">Reset-Anfragen bearbeiten</text></g><g id="elem_UC_Stats"><ellipse cx="267.0477" cy="1452.1389" fill="#F1F1F1" rx="92.5477" ry="20.9095" style="stroke:#181818;stroke-width:0.5;"/><text fill="#000000" font-family="sans-serif" font-size="14" lengthAdjust="spacing" textLength="143.958" x="195.0687" y="1455.8674">System-Stats anzeigen</text></g><!--entity Student--><g id="elem_Student"><ellipse cx="30.1309" cy="489.7294" fill="#F1F1F1" rx="8" ry="8" style="stroke:#181818;stroke-width:0.5;"/><path d="M30.1309,497.7294 L30.1309,524.7294 M17.1309,505.7294 L43.1309,505.7294 M30.1309,524.7294 L17.1309,539.7294 M30.1309,524.7294 L43.1309,539.7294 " fill="none" style="stroke:#181818;stroke-width:0.5;"/><text fill="#000000" font-family="sans-serif" font-size="14" lengthAdjust="spacing" textLength="48.2617" x="6" y="555.7626">Student</text></g><!--entity Admin--><g id="elem_Admin"><ellipse cx="29.8413" cy="1421.7294" fill="#F1F1F1" rx="8" ry="8" style="stroke:#181818;stroke-width:0.5;"/><path d="M29.8413,1429.7294 L29.8413,1456.7294 M16.8413,1437.7294 L42.8413,1437.7294 M29.8413,1456.7294 L16.8413,1471.7294 M29.8413,1456.7294 L42.8413,1471.7294 " fill="none" style="stroke:#181818;stroke-width:0.5;"/><text fill="#000000" font-family="sans-serif" font-size="14" lengthAdjust="spacing" textLength="39.6826" x="10" y="1487.7626">Admin</text></g><g id="elem_GMN59"><path d="M184,110.2294 L184,201.9872 L349.5107,201.9872 L349.5107,120.2294 L339.5107,110.2294 L184,110.2294 " fill="#FEFFDD" style="stroke:#181818;stroke-width:0.5;"/><path d="M339.5107,110.2294 L339.5107,120.2294 L349.5107,120.2294 L339.5107,110.2294 " fill="#FEFFDD" style="stroke:#181818;stroke-width:1.0;"/><text fill="#000000" font-family="sans-serif" font-size="13" font-weight="bold" lengthAdjust="spacing" textLength="86.6646" x="190" y="128.7245">Student kann:</text><text fill="#000000" font-family="sans-serif" font-size="13" lengthAdjust="spacing" textLength="121.3608" x="190" y="145.0761">- Tests mit manueller</text><text fill="#000000" font-family="sans-serif" font-size="13" lengthAdjust="spacing" textLength="137.2871" x="197.2236" y="161.4276">oder Auto-Schwierigkeit</text><text fill="#000000" font-family="sans-serif" font-size="13" lengthAdjust="spacing" textLength="140.8735" x="190" y="177.7792">- Lernmodus (FlipCards)</text><text fill="#000000" font-family="sans-serif" font-size="13" lengthAdjust="spacing" textLength="135.1289" x="190" y="194.1307">- Eigene Historie sehen</text></g><g id="elem_GMN62"><path d="M115,1921.7294 L115,2062.5419 L419.1436,2062.5419 L419.1436,1931.7294 L409.1436,1921.7294 L115,1921.7294 " fill="#FEFFDD" style="stroke:#181818;stroke-width:0.5;"/><path d="M409.1436,1921.7294 L409.1436,1931.7294 L419.1436,1931.7294 L409.1436,1921.7294 " fill="#FEFFDD" style="stroke:#181818;stroke-width:1.0;"/><text fill="#000000" font-family="sans-serif" font-size="13" font-weight="bold" lengthAdjust="spacing" textLength="78.7236" x="121" y="1940.2245">Admin kann:</text><text fill="#000000" font-family="sans-serif" font-size="13" lengthAdjust="spacing" textLength="283.1436" x="121" y="1956.5761">- CRUD f&#252;r Fragen (MC, CLOZE, FREE, IMAGE)</text><text fill="#000000" font-family="sans-serif" font-size="13" lengthAdjust="spacing" textLength="119.2217" x="121" y="1972.9276">- Benutzer verwalten</text><text fill="#000000" font-family="sans-serif" font-size="13" lengthAdjust="spacing" textLength="171.2407" x="121" y="1989.2792">- Passwort-Resets bearbeiten</text><text fill="#000000" font-family="sans-serif" font-size="13" lengthAdjust="spacing" textLength="115.5845" x="121" y="2005.6307">- System-Statistiken</text><text fill="#000000" font-family="sans-serif" font-size="13" lengthAdjust="spacing" textLength="3.6118" x="121" y="2021.9823">&#160;</text><text fill="#000000" font-family="sans-serif" font-size="13" font-weight="bold" lengthAdjust="spacing" textLength="114.8418" x="121" y="2038.3339">KEINE Test-Entity!</text><text fill="#000000" font-family="sans-serif" font-size="13" lengthAdjust="spacing" textLength="208.4634" x="121" y="2054.6854">Tests = dynamische Fragenauswahl</text></g><!--link Student to UC_Register--><g id="link_Student_UC_Register"><path d="M54.39,516.5494 C90.85,510.8094 156.2531,500.5129 205.9631,492.6829 " fill="none" id="Student-to-UC_Register" style="stroke:#181818;stroke-width:1.0;"/><polygon fill="#181818" points="211.89,491.7494,202.3772,489.1984,206.9509,492.5274,203.622,497.101,211.89,491.7494" style="stroke:#181818;stroke-width:1.0;"/></g><!--link Student to UC_Login--><g id="link_Student_UC_Login"><path d="M54.18,546.9294 C69.78,563.2594 91.7,583.2494 115,595.2294 C152.28,614.4094 194.2295,622.1523 225.9795,625.8123 " fill="none" id="Student-to-UC_Login" style="stroke:#181818;stroke-width:1.0;"/><polygon fill="#181818" points="231.94,626.4994,223.4573,621.495,226.9729,625.9268,222.5411,629.4424,231.94,626.4994" style="stroke:#181818;stroke-width:1.0;"/></g><!--link Student to UC_Logout--><g id="link_Student_UC_Logout"><path d="M44.11,559.5094 C57.02,592.0394 79.95,636.8894 115,662.2294 C147.08,685.4194 186.3328,692.4481 218.9228,694.5781 " fill="none" id="Student-to-UC_Logout" style="stroke:#181818;stroke-width:1.0;"/><polygon fill="#181818" points="224.91,694.9694,216.19,690.3909,219.9206,694.6433,215.6683,698.3739,224.91,694.9694" style="stroke:#181818;stroke-width:1.0;"/></g><!--link Student to UC_ResetRequest--><g id="link_Student_UC_ResetRequest"><path d="M54.39,523.8094 C84.75,528.4594 133.3691,535.9113 179.4791,542.9713 " fill="none" id="Student-to-UC_ResetRequest" style="stroke:#181818;stroke-width:1.0;"/><polygon fill="#181818" points="185.41,543.8794,177.1191,538.5633,180.4676,543.1226,175.9083,546.4712,185.41,543.8794" style="stroke:#181818;stroke-width:1.0;"/></g><!--link Student to UC_ChooseDifficulty--><g id="link_Student_UC_ChooseDifficulty"><path d="M33.08,481.0294 C38.98,385.6994 59.18,145.6094 115,92.2294 C164.79,44.6094 197.11,57.2294 266,57.2294 C266,57.2294 266,57.2294 887.5,57.2294 C1047.1,57.2294 1134.873,661.9512 1150.653,781.2212 " fill="none" id="Student-to-UC_ChooseDifficulty" style="stroke:#181818;stroke-width:1.0;"/><polygon fill="#181818" points="1151.44,787.1694,1154.225,777.7225,1150.7842,782.2126,1146.2941,778.7718,1151.44,787.1694" style="stroke:#181818;stroke-width:1.0;"/></g><!--link Student to UC_AutoMode--><g id="link_Student_UC_AutoMode"><path d="M32.92,481.0894 C36.98,445.8494 49,395.9294 84,371.2294 C237.24,263.0894 357.58,256.5694 506,371.2294 C574.25,423.9594 608.6093,703.8637 616.8993,781.0537 " fill="none" id="Student-to-UC_AutoMode" style="stroke:#181818;stroke-width:1.0;"/><polygon fill="#181818" points="617.54,787.0194,620.5561,777.6437,617.0061,782.048,612.6018,778.498,617.54,787.0194" style="stroke:#181818;stroke-width:1.0;"/></g><!--link Student to UC_StartTest--><g id="link_Student_UC_StartTest"><path d="M31.45,480.9494 C34.53,426.2994 49.5,329.7994 115,292.2294 C232.2,225.0094 286.35,266.5494 419,292.2294 C688.74,344.4494 845.5512,705.7907 877.3612,786.1307 " fill="none" id="Student-to-UC_StartTest" style="stroke:#181818;stroke-width:1.0;"/><polygon fill="#181818" points="879.57,791.7094,879.9759,781.8689,877.7293,787.0605,872.5377,784.814,879.57,791.7094" style="stroke:#181818;stroke-width:1.0;"/></g><!--link Student to UC_Answer--><g id="link_Student_UC_Answer"><path d="M54.17,493.6094 C69.62,477.9794 91.37,459.6894 115,451.2294 C242.2,405.6794 310.63,370.5394 419,451.2294 C564.49,559.5594 416.77,705.5294 536,842.2294 C544.48,851.9494 550.5247,856.767 562.2547,862.307 " fill="none" id="Student-to-UC_Answer" style="stroke:#181818;stroke-width:1.0;"/><polygon fill="#181818" points="567.68,864.8694,561.2502,857.409,563.1589,862.7341,557.8338,864.6427,567.68,864.8694" style="stroke:#181818;stroke-width:1.0;"/></g><!--link Student to UC_ViewResult--><g id="link_Student_UC_ViewResult"><path d="M38.34,559.2894 C48.58,604.4794 71.07,678.8394 115,727.2294 C142.94,758.0094 180.0908,776.6693 212.9808,789.1593 " fill="none" id="Student-to-UC_ViewResult" style="stroke:#181818;stroke-width:1.0;"/><polygon fill="#181818" points="218.59,791.2894,211.5963,784.3548,213.9157,789.5143,208.7562,791.8337,218.59,791.2894" style="stroke:#181818;stroke-width:1.0;"/></g><!--link Student to UC_History--><g id="link_Student_UC_History"><path d="M36.14,559.3594 C47.01,636.1894 74.7,802.7694 115,842.2294 C134.83,861.6494 157.2352,870.2618 184.0052,874.8218 " fill="none" id="Student-to-UC_History" style="stroke:#181818;stroke-width:1.0;"/><polygon fill="#181818" points="189.92,875.8294,181.7195,870.3749,184.991,874.9898,180.3761,878.2613,189.92,875.8294" style="stroke:#181818;stroke-width:1.0;"/></g><!--link Student to UC_FlipCards--><g id="link_Student_UC_FlipCards"><path d="M34.88,559.5494 C44.34,648.3494 71.06,860.9294 115,916.2294 C140.79,948.6894 178.0873,967.0261 211.6073,978.7661 " fill="none" id="Student-to-UC_FlipCards" style="stroke:#181818;stroke-width:1.0;"/><polygon fill="#181818" points="217.27,980.7494,210.0981,973.9993,212.5511,979.0966,207.4537,981.5496,217.27,980.7494" style="stroke:#181818;stroke-width:1.0;"/></g><!--link Admin to UC_Login--><g id="link_Admin_UC_Login"><path d="M32.35,1413.2294 C37.98,1261.4994 61.81,716.3794 115,662.2294 C145.37,631.3194 191.5206,626.1838 225.8806,626.6738 " fill="none" id="Admin-to-UC_Login" style="stroke:#181818;stroke-width:1.0;"/><polygon fill="#181818" points="231.88,626.7594,222.938,622.6314,226.8805,626.6881,222.8239,630.6306,231.88,626.7594" style="stroke:#181818;stroke-width:1.0;"/></g><!--link Admin to UC_Logout--><g id="link_Admin_UC_Logout"><path d="M31.1,1413.0294 C32.15,1284.1494 41.35,875.8094 115,771.2294 C142.21,732.5994 189.1295,714.071 224.4995,704.471 " fill="none" id="Admin-to-UC_Logout" style="stroke:#181818;stroke-width:1.0;"/><polygon fill="#181818" points="230.29,702.8994,220.5565,701.3965,225.4646,704.2091,222.652,709.1172,230.29,702.8994" style="stroke:#181818;stroke-width:1.0;"/></g><!--link Admin to UC_ListQuestions--><g id="link_Admin_UC_ListQuestions"><path d="M50.23,1461.6394 C90.46,1481.3294 178.4909,1524.4017 228.1809,1548.7217 " fill="none" id="Admin-to-UC_ListQuestions" style="stroke:#181818;stroke-width:1.0;"/><polygon fill="#181818" points="233.57,1551.3594,227.2447,1543.8102,229.079,1549.1613,223.7279,1550.9957,233.57,1551.3594" style="stroke:#181818;stroke-width:1.0;"/></g><!--link Admin to UC_CreateQuestion--><g id="link_Admin_UC_CreateQuestion"><path d="M42.87,1491.5494 C55.31,1525.9594 78.24,1574.6294 115,1602.2294 C138.35,1619.7594 163.1082,1627.7539 190.7082,1632.2539 " fill="none" id="Admin-to-UC_CreateQuestion" style="stroke:#181818;stroke-width:1.0;"/><polygon fill="#181818" points="196.63,1633.2194,188.391,1627.8232,191.6952,1632.4148,187.1036,1635.719,196.63,1633.2194" style="stroke:#181818;stroke-width:1.0;"/></g><!--link Admin to UC_EditQuestion--><g id="link_Admin_UC_EditQuestion"><path d="M34.99,1491.2994 C42.16,1540.6394 61.85,1624.6794 115,1671.2294 C135.98,1689.6094 158.7698,1697.9754 185.5198,1702.6554 " fill="none" id="Admin-to-UC_EditQuestion" style="stroke:#181818;stroke-width:1.0;"/><polygon fill="#181818" points="191.43,1703.6894,183.254,1698.1982,186.5048,1702.8277,181.8753,1706.0785,191.43,1703.6894" style="stroke:#181818;stroke-width:1.0;"/></g><!--link Admin to UC_DeleteQuestion--><g id="link_Admin_UC_DeleteQuestion"><path d="M30.36,1491.3294 C31.6,1553.9394 43.69,1676.3194 115,1742.2294 C136.94,1762.5094 162.2986,1770.9431 190.7186,1774.9431 " fill="none" id="Admin-to-UC_DeleteQuestion" style="stroke:#181818;stroke-width:1.0;"/><polygon fill="#181818" points="196.66,1775.7794,188.3053,1770.5641,191.7088,1775.0825,187.1904,1778.486,196.66,1775.7794" style="stroke:#181818;stroke-width:1.0;"/></g><!--link Admin to UC_ImportImages--><g id="link_Admin_UC_ImportImages"><path d="M34.69,1491.2594 C43.45,1575.0094 68.3,1767.9194 115,1811.2294 C135.25,1830.0094 157.5898,1838.4954 184.1698,1843.1454 " fill="none" id="Admin-to-UC_ImportImages" style="stroke:#181818;stroke-width:1.0;"/><polygon fill="#181818" points="190.08,1844.1794,181.9039,1838.6883,185.1548,1843.3177,180.5253,1846.5686,190.08,1844.1794" style="stroke:#181818;stroke-width:1.0;"/></g><!--link Admin to UC_ListUsers--><g id="link_Admin_UC_ListUsers"><path d="M50.23,1442.7394 C90.02,1423.0994 176.4698,1380.4251 226.5498,1355.7051 " fill="none" id="Admin-to-UC_ListUsers" style="stroke:#181818;stroke-width:1.0;"/><polygon fill="#181818" points="231.93,1353.0494,222.0891,1353.4462,227.4465,1355.2625,225.6301,1360.6198,231.93,1353.0494" style="stroke:#181818;stroke-width:1.0;"/></g><!--link Admin to UC_ResetPassword--><g id="link_Admin_UC_ResetPassword"><path d="M36.43,1413.1594 C47.53,1339.1094 75.21,1182.5494 115,1147.2294 C132.89,1131.3494 150.6255,1123.3089 173.8055,1117.7489 " fill="none" id="Admin-to-UC_ResetPassword" style="stroke:#181818;stroke-width:1.0;"/><polygon fill="#181818" points="179.64,1116.3494,169.9553,1114.5589,174.7779,1117.5156,171.8212,1122.3383,179.64,1116.3494" style="stroke:#181818;stroke-width:1.0;"/></g><!--link Admin to UC_DeleteUser--><g id="link_Admin_UC_DeleteUser"><path d="M33.8,1413.1894 C39.72,1360.9094 58.08,1268.8594 115,1218.2294 C135.61,1199.8994 158.0051,1191.6464 184.5551,1187.1264 " fill="none" id="Admin-to-UC_DeleteUser" style="stroke:#181818;stroke-width:1.0;"/><polygon fill="#181818" points="190.47,1186.1194,180.9263,1183.6866,185.5409,1186.9585,182.269,1191.5731,190.47,1186.1194" style="stroke:#181818;stroke-width:1.0;"/></g><!--link Admin to UC_HandleResets--><g id="link_Admin_UC_HandleResets"><path d="M42.86,1413.0594 C55.35,1378.3994 78.36,1328.9894 115,1300.2294 C132.95,1286.1394 149.5962,1278.4756 171.6262,1272.3956 " fill="none" id="Admin-to-UC_HandleResets" style="stroke:#181818;stroke-width:1.0;"/><polygon fill="#181818" points="177.41,1270.7994,167.6702,1269.3379,172.5902,1272.1296,169.7985,1277.0496,177.41,1270.7994" style="stroke:#181818;stroke-width:1.0;"/></g><!--link Admin to UC_Stats--><g id="link_Admin_UC_Stats"><path d="M50.23,1452.2294 C77.36,1452.2294 122.68,1452.2294 168.47,1452.2294 " fill="none" id="Admin-to-UC_Stats" style="stroke:#181818;stroke-width:1.0;"/><polygon fill="#181818" points="174.47,1452.2294,165.47,1448.2294,169.47,1452.2294,165.47,1456.2294,174.47,1452.2294" style="stroke:#181818;stroke-width:1.0;"/></g><!--link UC_StartTest to UC_ChooseDifficulty--><g id="link_UC_StartTest_UC_ChooseDifficulty"><path d="M951.33,807.2294 C986.21,807.2294 1023.89,807.2294 1061.76,807.2294 " fill="none" id="UC_StartTest-to-UC_ChooseDifficulty" style="stroke:#181818;stroke-width:1.0;stroke-dasharray:7.0,7.0;"/><polygon fill="#181818" points="1067.76,807.2294,1058.76,803.2294,1062.76,807.2294,1058.76,811.2294,1067.76,807.2294" style="stroke:#181818;stroke-width:1.0;"/><text fill="#000000" font-family="sans-serif" font-size="13" lengthAdjust="spacing" textLength="55.6563" x="982" y="803.7245">&#171;include&#187;</text></g><!--link UC_AutoMode to UC_StartTest--><g id="link_UC_AutoMode_UC_StartTest"><path d="M703.58,806.5394 C741.73,806.6894 780.39,806.8257 815.92,806.9657 " fill="none" id="UC_AutoMode-to-UC_StartTest" style="stroke:#181818;stroke-width:1.0;stroke-dasharray:7.0,7.0;"/><polygon fill="#181818" points="821.92,806.9894,812.9358,802.9539,816.92,806.9697,812.9043,810.9539,821.92,806.9894" style="stroke:#181818;stroke-width:1.0;"/><text fill="#000000" font-family="sans-serif" font-size="13" lengthAdjust="spacing" textLength="53.4917" x="737" y="803.7245">&#171;extend&#187;</text></g><!--link UC_Answer to UC_StartTest--><g id="link_UC_Answer_UC_StartTest"><path d="M675.64,865.3394 C709.16,856.1094 753.09,843.9994 792,833.2294 C808.89,828.5494 821.6995,824.9975 837.8395,820.5075 " fill="none" id="UC_Answer-to-UC_StartTest" style="stroke:#181818;stroke-width:1.0;stroke-dasharray:7.0,7.0;"/><polygon fill="#181818" points="843.62,818.8994,833.8772,817.4578,838.8029,820.2394,836.0213,825.1652,843.62,818.8994" style="stroke:#181818;stroke-width:1.0;"/><text fill="#000000" font-family="sans-serif" font-size="13" lengthAdjust="spacing" textLength="55.6563" x="736" y="829.7245">&#171;include&#187;</text></g><!--link UC_ViewResult to UC_Answer--><g id="link_UC_ViewResult_UC_Answer"><path d="M326.83,818.6194 C390.74,832.0694 486.5287,852.2331 551.6387,865.9431 " fill="none" id="UC_ViewResult-to-UC_Answer" style="stroke:#181818;stroke-width:1.0;stroke-dasharray:7.0,7.0;"/><polygon fill="#181818" points="557.51,867.1794,549.5273,861.4108,552.6173,866.1491,547.8789,869.2391,557.51,867.1794" style="stroke:#181818;stroke-width:1.0;"/><text fill="#000000" font-family="sans-serif" font-size="13" lengthAdjust="spacing" textLength="55.6563" x="450" y="842.7245">&#171;include&#187;</text></g><!--link Student to GMN59--><g id="link_Student_GMN59"><path d="M33.5,481.0994 C38.71,410.8794 52.94,267.2694 84,229.2294 C108.76,198.8994 148,181.0894 183.72,170.6694 " fill="none" id="Student-GMN59" style="stroke:#181818;stroke-width:1.0;stroke-dasharray:7.0,7.0;"/></g><!--link Admin to GMN62--><g id="link_Admin_GMN62"><path d="M34.69,1491.2494 C44.13,1584.5594 71.51,1817.5294 115,1881.2294 C125,1895.8694 137.58,1909.3194 151.2,1921.3994 " fill="none" id="Admin-GMN62" style="stroke:#181818;stroke-width:1.0;stroke-dasharray:7.0,7.0;"/></g><!--SRC=[XLRDSjis4BxpARQwnD64wTsJU4QXw4PJIKubkN-N3aok95Gaw09WLAcJj-apv9IRNomBa1G9_jWyIEJ-08jlTp-ivZf1k5Ve1qmXJ3dRIPQcuCCdcVsD1ms_SQLGA8rAUrw2Mmqw0ybtUmqnbnXfdWdFUmNlUnwO19kxrRfNvx58Pn96Qvt7AFG8c8BolL9DufGBgx1lWxki_rXlmaN_BYP29dPqo57Z9B0-qNywWlyyeCV-l0BVzs6Iwps5mBVyp57cOcUaLl_8eWFRqJeTasePy-GA8uFaQ8KxhhGa2opES1_yLSXGTgtdsOvVpEn7hqsMwuOHVNMjFZ6bZfdK_WeLQc1YAodgHWWaNU4_kScdSVpIHc136d-QosY_VVgsjn1SbObvtGMZQzsBnZhQ7maAlZiWrt1y-d-Vr345-onJEENRBO_oH9-wxWHvvY-oE5SWSdskNOs2vDXrCO61qapgsdfjFZVLoHtpMuiIF20Jsi3Ns4AeOr_AGhd31y4LGNn6te3uLuv7WfbEqdNwIFdFg2W0kL2uhvqAnQa_9NEK8hMdx-1_KVN2Vflmnu39k0tRHTw_dsstQoWnwUnPo3-ZFB943sMyT6w3CwTp_cAAZsX33NW1IkgIf5aX4fd6oc_8ZP8d7wY-Qhymvlebh-JfgueQcPXYWi_jzO4dCKhWwIELYTFUCokQfRJgyy1-G9iEsOMsqhm0xcM1FdY9pQKQ9WOuv_BfMtGW7ZYtUA4qYP_Pi1yjisKV1TAQ_gHae9xqV6GYJj2QFGyODQwca_53NpasbFtSOxdUDsRTPhNISkylmpVCvduQBZSGt2sNOR2PtIq7BhMIA2d86uVmM_A2uRj2m-YT9Hg4tLPscBEblz1ZIruJOTkX8BkMjC5eBKr5MsrvJJ23ey5qCLk-3AWj01UsjiY0rX8w9EEeMapYw1osS3GjJd1qJjTtuoYwqH6xlTQpaMqdH-vqYgigAdW8vjaoc5FjhdyCVz-4o-a0oisIWBTlUsiBhk7TEowYX19zS-Crgglog9SmflWlTNfSMjgowhTpbgmhhJ8kNLrBJsGQooaqsrxcHe3nk2h40nFYUZmcMJ7IA4XfyaYPoCtDKh1LPeZSpXREV69zwZltwbBChwqcDFo1SBdAxJtkqLd1HDMEhHXTJMH5rffn1QlxAT3S9AkhzceHl85WVlTd-0PkLo7zpXQJdy9Ytmi7bvS32Yjs1pxLe5chRh1VIPAUPTZn-ETmjWoBSI-aSLQVVh1X5M2zX_WaMCeDsPVHiLmTsJwfJ_eT]--></g></svg>