<svg xmlns="http://www.w3.org/2000/svg" xmlns:xlink="http://www.w3.org/1999/xlink" contentStyleType="text/css" height="726px" preserveAspectRatio="none" style="width:2828px;height:726px;background:#FFFFFF;" version="1.1" viewBox="0 0 2828 726" width="2828px" zoomAndPan="magnify"><title>Entity-Relation-Diagramm - Projekt Wissenstest</title><defs/><g><text fill="#000000" font-family="sans-serif" font-size="14" font-weight="bold" lengthAdjust="spacing" textLength="317.3994" x="1248.3018" y="24.5332">Entity-Relation-Diagramm - Projekt Wissenstest</text><!--class USERS--><g id="elem_USERS"><rect codeLine="8" fill="#F1F1F1" height="188.875" id="USERS" rx="2.5" ry="2.5" style="stroke:#181818;stroke-width:0.5;" width="409.5029" x="1193.5" y="45.6094"/><ellipse cx="1376.8843" cy="61.6094" fill="#ADD1B2" rx="11" ry="11" style="stroke:#181818;stroke-width:1.0;"/><path d="M1375.7437,62.4063 L1375.7437,64.9063 L1380.0718,64.9063 L1380.0718,63.9844 Q1380.0718,63.375 1380.314,63.1094 Q1380.5562,62.8438 1380.9312,62.8438 Q1381.3062,62.8438 1381.5405,63.1094 Q1381.7749,63.375 1381.7749,63.9844 L1381.7749,66.6094 L1373.7749,66.6094 Q1373.1499,66.6094 1372.8921,66.375 Q1372.6343,66.1406 1372.6343,65.75 Q1372.6343,65.375 1372.8999,65.1406 Q1373.1655,64.9063 1373.7749,64.9063 L1374.0405,64.9063 L1374.0405,58.25 L1373.7749,58.25 Q1373.1499,58.25 1372.8921,58.0156 Q1372.6343,57.7813 1372.6343,57.3906 Q1372.6343,57.0156 1372.8921,56.7813 Q1373.1499,56.5469 1373.7749,56.5469 L1381.3999,56.5469 L1381.3999,59.1406 Q1381.3999,59.75 1381.1733,60.0078 Q1380.9468,60.2656 1380.5562,60.2656 Q1380.1812,60.2656 1379.9468,60.0078 Q1379.7124,59.75 1379.7124,59.1406 L1379.7124,58.25 L1375.7437,58.25 L1375.7437,60.7031 L1377.228,60.7031 Q1377.228,60.0469 1377.353,59.8594 Q1377.6187,59.4531 1378.0874,59.4531 Q1378.4624,59.4531 1378.6968,59.7109 Q1378.9312,59.9688 1378.9312,60.5781 L1378.9312,62.5469 Q1378.9312,63.0938 1378.8062,63.2813 Q1378.5405,63.6719 1378.0874,63.6719 Q1377.6187,63.6719 1377.353,63.2656 Q1377.228,63.0781 1377.228,62.4063 L1375.7437,62.4063 Z " fill="#000000"/><text fill="#000000" font-family="sans-serif" font-size="14" lengthAdjust="spacing" textLength="34.2344" x="1397.3843" y="67.3379">users</text><line style="stroke:#181818;stroke-width:0.5;" x1="1194.5" x2="1602.0029" y1="77.6094" y2="77.6094"/><ellipse cx="1204.5" cy="91.9141" fill="#000000" rx="3" ry="3" style="stroke:#000000;stroke-width:1.0;"/><text fill="#000000" font-family="sans-serif" font-size="14" lengthAdjust="spacing" textLength="102.71" x="1213.5" y="96.1426">id : SERIAL [PK]</text><line style="stroke:#181818;stroke-width:1.0;" x1="1194.5" x2="1602.0029" y1="103.2188" y2="103.2188"/><text fill="#000000" font-family="sans-serif" font-size="14" lengthAdjust="spacing" textLength="318.1924" x="1199.5" y="121.752">username : VARCHAR(100) [UNIQUE, NOT NULL]</text><text fill="#000000" font-family="sans-serif" font-size="14" lengthAdjust="spacing" textLength="212.3789" x="1199.5" y="139.3613">email : VARCHAR(255) [UNIQUE]</text><text fill="#000000" font-family="sans-serif" font-size="14" lengthAdjust="spacing" textLength="291.7715" x="1199.5" y="156.9707">password_hash : VARCHAR(256) [NOT NULL]</text><text fill="#000000" font-family="sans-serif" font-size="14" lengthAdjust="spacing" textLength="283.1992" x="1199.5" y="174.5801">password_salt : VARCHAR(128) [NOT NULL]</text><text fill="#000000" font-family="sans-serif" font-size="14" lengthAdjust="spacing" textLength="262.8691" x="1199.5" y="192.1895">role : VARCHAR(32) [DEFAULT: 'student']</text><text fill="#000000" font-family="sans-serif" font-size="14" lengthAdjust="spacing" textLength="308.123" x="1199.5" y="209.7988">reset_requested : BOOLEAN [DEFAULT: FALSE]</text><text fill="#000000" font-family="sans-serif" font-size="14" lengthAdjust="spacing" textLength="397.5029" x="1199.5" y="227.4082">created_at : TIMESTAMP WITH TIME ZONE [DEFAULT: now()]</text></g><!--class QUESTIONS--><g id="elem_QUESTIONS"><rect codeLine="20" fill="#F1F1F1" height="224.0938" id="QUESTIONS" rx="2.5" ry="2.5" style="stroke:#181818;stroke-width:0.5;" width="409.5029" x="867.5" y="294.6094"/><ellipse cx="1038.0361" cy="310.6094" fill="#ADD1B2" rx="11" ry="11" style="stroke:#181818;stroke-width:1.0;"/><path d="M1036.8955,311.4063 L1036.8955,313.9063 L1041.2236,313.9063 L1041.2236,312.9844 Q1041.2236,312.375 1041.4658,312.1094 Q1041.708,311.8438 1042.083,311.8438 Q1042.458,311.8438 1042.6924,312.1094 Q1042.9268,312.375 1042.9268,312.9844 L1042.9268,315.6094 L1034.9268,315.6094 Q1034.3018,315.6094 1034.0439,315.375 Q1033.7861,315.1406 1033.7861,314.75 Q1033.7861,314.375 1034.0518,314.1406 Q1034.3174,313.9063 1034.9268,313.9063 L1035.1924,313.9063 L1035.1924,307.25 L1034.9268,307.25 Q1034.3018,307.25 1034.0439,307.0156 Q1033.7861,306.7813 1033.7861,306.3906 Q1033.7861,306.0156 1034.0439,305.7813 Q1034.3018,305.5469 1034.9268,305.5469 L1042.5518,305.5469 L1042.5518,308.1406 Q1042.5518,308.75 1042.3252,309.0078 Q1042.0986,309.2656 1041.708,309.2656 Q1041.333,309.2656 1041.0986,309.0078 Q1040.8643,308.75 1040.8643,308.1406 L1040.8643,307.25 L1036.8955,307.25 L1036.8955,309.7031 L1038.3799,309.7031 Q1038.3799,309.0469 1038.5049,308.8594 Q1038.7705,308.4531 1039.2393,308.4531 Q1039.6143,308.4531 1039.8486,308.7109 Q1040.083,308.9688 1040.083,309.5781 L1040.083,311.5469 Q1040.083,312.0938 1039.958,312.2813 Q1039.6924,312.6719 1039.2393,312.6719 Q1038.7705,312.6719 1038.5049,312.2656 Q1038.3799,312.0781 1038.3799,311.4063 L1036.8955,311.4063 Z " fill="#000000"/><text fill="#000000" font-family="sans-serif" font-size="14" lengthAdjust="spacing" textLength="59.9307" x="1058.5361" y="316.3379">questions</text><line style="stroke:#181818;stroke-width:0.5;" x1="868.5" x2="1276.0029" y1="326.6094" y2="326.6094"/><ellipse cx="878.5" cy="340.9141" fill="#000000" rx="3" ry="3" style="stroke:#000000;stroke-width:1.0;"/><text fill="#000000" font-family="sans-serif" font-size="14" lengthAdjust="spacing" textLength="102.71" x="887.5" y="345.1426">id : SERIAL [PK]</text><line style="stroke:#181818;stroke-width:1.0;" x1="868.5" x2="1276.0029" y1="352.2188" y2="352.2188"/><text fill="#000000" font-family="sans-serif" font-size="14" lengthAdjust="spacing" textLength="383.8926" x="873.5" y="370.752">type : VARCHAR(16) [CHECK: 'MC','CLOZE','FREE','IMAGE']</text><text fill="#000000" font-family="sans-serif" font-size="14" lengthAdjust="spacing" textLength="171.9238" x="873.5" y="388.3613">prompt : TEXT [NOT NULL]</text><text fill="#000000" font-family="sans-serif" font-size="14" lengthAdjust="spacing" textLength="230.2959" x="873.5" y="405.9707">difficulty : SMALLINT [CHECK: 1,2,3]</text><text fill="#000000" font-family="sans-serif" font-size="14" lengthAdjust="spacing" textLength="202.2754" x="873.5" y="423.5801">points : INTEGER [DEFAULT: 1]</text><text fill="#000000" font-family="sans-serif" font-size="14" lengthAdjust="spacing" textLength="308.7725" x="873.5" y="441.1895">category : VARCHAR(64) [DEFAULT: 'Allgemein']</text><text fill="#000000" font-family="sans-serif" font-size="14" lengthAdjust="spacing" textLength="174.2822" x="873.5" y="458.7988">image_url : VARCHAR(255)</text><text fill="#000000" font-family="sans-serif" font-size="14" lengthAdjust="spacing" textLength="182.0547" x="873.5" y="476.4082">meta : JSONB [DEFAULT: {}]</text><text fill="#000000" font-family="sans-serif" font-size="14" lengthAdjust="spacing" textLength="242.3613" x="873.5" y="494.0176">created_by : INTEGER [FK -&gt; users.id]</text><text fill="#000000" font-family="sans-serif" font-size="14" lengthAdjust="spacing" textLength="397.5029" x="873.5" y="511.627">created_at : TIMESTAMP WITH TIME ZONE [DEFAULT: now()]</text></g><!--class QUESTION_IMAGES--><g id="elem_QUESTION_IMAGES"><rect codeLine="34" fill="#F1F1F1" height="118.4375" id="QUESTION_IMAGES" rx="2.5" ry="2.5" style="stroke:#181818;stroke-width:0.5;" width="409.5029" x="2411.5" y="81.1094"/><ellipse cx="2559.0776" cy="97.1094" fill="#ADD1B2" rx="11" ry="11" style="stroke:#181818;stroke-width:1.0;"/><path d="M2557.937,97.9063 L2557.937,100.4063 L2562.2651,100.4063 L2562.2651,99.4844 Q2562.2651,98.875 2562.5073,98.6094 Q2562.7495,98.3438 2563.1245,98.3438 Q2563.4995,98.3438 2563.7339,98.6094 Q2563.9683,98.875 2563.9683,99.4844 L2563.9683,102.1094 L2555.9683,102.1094 Q2555.3433,102.1094 2555.0854,101.875 Q2554.8276,101.6406 2554.8276,101.25 Q2554.8276,100.875 2555.0933,100.6406 Q2555.3589,100.4063 2555.9683,100.4063 L2556.2339,100.4063 L2556.2339,93.75 L2555.9683,93.75 Q2555.3433,93.75 2555.0854,93.5156 Q2554.8276,93.2813 2554.8276,92.8906 Q2554.8276,92.5156 2555.0854,92.2813 Q2555.3433,92.0469 2555.9683,92.0469 L2563.5933,92.0469 L2563.5933,94.6406 Q2563.5933,95.25 2563.3667,95.5078 Q2563.1401,95.7656 2562.7495,95.7656 Q2562.3745,95.7656 2562.1401,95.5078 Q2561.9058,95.25 2561.9058,94.6406 L2561.9058,93.75 L2557.937,93.75 L2557.937,96.2031 L2559.4214,96.2031 Q2559.4214,95.5469 2559.5464,95.3594 Q2559.812,94.9531 2560.2808,94.9531 Q2560.6558,94.9531 2560.8901,95.2109 Q2561.1245,95.4688 2561.1245,96.0781 L2561.1245,98.0469 Q2561.1245,98.5938 2560.9995,98.7813 Q2560.7339,99.1719 2560.2808,99.1719 Q2559.812,99.1719 2559.5464,98.7656 Q2559.4214,98.5781 2559.4214,97.9063 L2557.937,97.9063 Z " fill="#000000"/><text fill="#000000" font-family="sans-serif" font-size="14" lengthAdjust="spacing" textLength="105.8477" x="2579.5776" y="102.8379">question_images</text><line style="stroke:#181818;stroke-width:0.5;" x1="2412.5" x2="2820.0029" y1="113.1094" y2="113.1094"/><ellipse cx="2422.5" cy="127.4141" fill="#000000" rx="3" ry="3" style="stroke:#000000;stroke-width:1.0;"/><text fill="#000000" font-family="sans-serif" font-size="14" lengthAdjust="spacing" textLength="102.71" x="2431.5" y="131.6426">id : SERIAL [PK]</text><line style="stroke:#181818;stroke-width:1.0;" x1="2412.5" x2="2820.0029" y1="138.7188" y2="138.7188"/><text fill="#000000" font-family="sans-serif" font-size="14" lengthAdjust="spacing" textLength="273.8818" x="2417.5" y="157.252">content_type : VARCHAR(128) [NOT NULL]</text><text fill="#000000" font-family="sans-serif" font-size="14" lengthAdjust="spacing" textLength="165.7236" x="2417.5" y="174.8613">data : BYTEA [NOT NULL]</text><text fill="#000000" font-family="sans-serif" font-size="14" lengthAdjust="spacing" textLength="397.5029" x="2417.5" y="192.4707">created_at : TIMESTAMP WITH TIME ZONE [DEFAULT: now()]</text></g><!--class ANSWERS--><g id="elem_ANSWERS"><rect codeLine="42" fill="#F1F1F1" height="136.0469" id="ANSWERS" rx="2.5" ry="2.5" style="stroke:#181818;stroke-width:0.5;" width="384.668" x="7" y="581.1094"/><ellipse cx="169.0186" cy="597.1094" fill="#ADD1B2" rx="11" ry="11" style="stroke:#181818;stroke-width:1.0;"/><path d="M167.8779,597.9063 L167.8779,600.4063 L172.2061,600.4063 L172.2061,599.4844 Q172.2061,598.875 172.4482,598.6094 Q172.6904,598.3438 173.0654,598.3438 Q173.4404,598.3438 173.6748,598.6094 Q173.9092,598.875 173.9092,599.4844 L173.9092,602.1094 L165.9092,602.1094 Q165.2842,602.1094 165.0264,601.875 Q164.7686,601.6406 164.7686,601.25 Q164.7686,600.875 165.0342,600.6406 Q165.2998,600.4063 165.9092,600.4063 L166.1748,600.4063 L166.1748,593.75 L165.9092,593.75 Q165.2842,593.75 165.0264,593.5156 Q164.7686,593.2813 164.7686,592.8906 Q164.7686,592.5156 165.0264,592.2813 Q165.2842,592.0469 165.9092,592.0469 L173.5342,592.0469 L173.5342,594.6406 Q173.5342,595.25 173.3076,595.5078 Q173.0811,595.7656 172.6904,595.7656 Q172.3154,595.7656 172.0811,595.5078 Q171.8467,595.25 171.8467,594.6406 L171.8467,593.75 L167.8779,593.75 L167.8779,596.2031 L169.3623,596.2031 Q169.3623,595.5469 169.4873,595.3594 Q169.7529,594.9531 170.2217,594.9531 Q170.5967,594.9531 170.8311,595.2109 Q171.0654,595.4688 171.0654,596.0781 L171.0654,598.0469 Q171.0654,598.5938 170.9404,598.7813 Q170.6748,599.1719 170.2217,599.1719 Q169.7529,599.1719 169.4873,598.7656 Q169.3623,598.5781 169.3623,597.9063 L167.8779,597.9063 Z " fill="#000000"/><text fill="#000000" font-family="sans-serif" font-size="14" lengthAdjust="spacing" textLength="52.1309" x="189.5186" y="602.8379">answers</text><line style="stroke:#181818;stroke-width:0.5;" x1="8" x2="390.668" y1="613.1094" y2="613.1094"/><ellipse cx="18" cy="627.4141" fill="#000000" rx="3" ry="3" style="stroke:#000000;stroke-width:1.0;"/><text fill="#000000" font-family="sans-serif" font-size="14" lengthAdjust="spacing" textLength="102.71" x="27" y="631.6426">id : SERIAL [PK]</text><line style="stroke:#181818;stroke-width:1.0;" x1="8" x2="390.668" y1="638.7188" y2="638.7188"/><text fill="#000000" font-family="sans-serif" font-size="14" lengthAdjust="spacing" textLength="270.4023" x="13" y="657.252">question_id : INTEGER [FK -&gt; questions.id]</text><text fill="#000000" font-family="sans-serif" font-size="14" lengthAdjust="spacing" textLength="203.834" x="13" y="674.8613">answer_text : TEXT [NOT NULL]</text><text fill="#000000" font-family="sans-serif" font-size="14" lengthAdjust="spacing" textLength="267.627" x="13" y="692.4707">is_correct : BOOLEAN [DEFAULT: FALSE]</text><text fill="#000000" font-family="sans-serif" font-size="14" lengthAdjust="spacing" textLength="372.668" x="13" y="710.0801">partial_value : NUMERIC(5,4) [DEFAULT: 0.0, CHECK: 0-1]</text></g><!--class CLOZE_ANSWERS--><g id="elem_CLOZE_ANSWERS"><rect codeLine="51" fill="#F1F1F1" height="136.0469" id="CLOZE_ANSWERS" rx="2.5" ry="2.5" style="stroke:#181818;stroke-width:0.5;" width="384.668" x="659" y="581.1094"/><ellipse cx="800.7842" cy="597.1094" fill="#ADD1B2" rx="11" ry="11" style="stroke:#181818;stroke-width:1.0;"/><path d="M799.6436,597.9063 L799.6436,600.4063 L803.9717,600.4063 L803.9717,599.4844 Q803.9717,598.875 804.2139,598.6094 Q804.4561,598.3438 804.8311,598.3438 Q805.2061,598.3438 805.4404,598.6094 Q805.6748,598.875 805.6748,599.4844 L805.6748,602.1094 L797.6748,602.1094 Q797.0498,602.1094 796.792,601.875 Q796.5342,601.6406 796.5342,601.25 Q796.5342,600.875 796.7998,600.6406 Q797.0654,600.4063 797.6748,600.4063 L797.9404,600.4063 L797.9404,593.75 L797.6748,593.75 Q797.0498,593.75 796.792,593.5156 Q796.5342,593.2813 796.5342,592.8906 Q796.5342,592.5156 796.792,592.2813 Q797.0498,592.0469 797.6748,592.0469 L805.2998,592.0469 L805.2998,594.6406 Q805.2998,595.25 805.0732,595.5078 Q804.8467,595.7656 804.4561,595.7656 Q804.0811,595.7656 803.8467,595.5078 Q803.6123,595.25 803.6123,594.6406 L803.6123,593.75 L799.6436,593.75 L799.6436,596.2031 L801.1279,596.2031 Q801.1279,595.5469 801.2529,595.3594 Q801.5186,594.9531 801.9873,594.9531 Q802.3623,594.9531 802.5967,595.2109 Q802.8311,595.4688 802.8311,596.0781 L802.8311,598.0469 Q802.8311,598.5938 802.7061,598.7813 Q802.4404,599.1719 801.9873,599.1719 Q801.5186,599.1719 801.2529,598.7656 Q801.1279,598.5781 801.1279,597.9063 L799.6436,597.9063 Z " fill="#000000"/><text fill="#000000" font-family="sans-serif" font-size="14" lengthAdjust="spacing" textLength="92.5996" x="821.2842" y="602.8379">cloze_answers</text><line style="stroke:#181818;stroke-width:0.5;" x1="660" x2="1042.668" y1="613.1094" y2="613.1094"/><ellipse cx="670" cy="627.4141" fill="#000000" rx="3" ry="3" style="stroke:#000000;stroke-width:1.0;"/><text fill="#000000" font-family="sans-serif" font-size="14" lengthAdjust="spacing" textLength="102.71" x="679" y="631.6426">id : SERIAL [PK]</text><line style="stroke:#181818;stroke-width:1.0;" x1="660" x2="1042.668" y1="638.7188" y2="638.7188"/><text fill="#000000" font-family="sans-serif" font-size="14" lengthAdjust="spacing" textLength="270.4023" x="665" y="657.252">question_id : INTEGER [FK -&gt; questions.id]</text><text fill="#000000" font-family="sans-serif" font-size="14" lengthAdjust="spacing" textLength="236.5371" x="665" y="674.8613">token_index : SMALLINT [NOT NULL]</text><text fill="#000000" font-family="sans-serif" font-size="14" lengthAdjust="spacing" textLength="215.5234" x="665" y="692.4707">expected_text : TEXT [NOT NULL]</text><text fill="#000000" font-family="sans-serif" font-size="14" lengthAdjust="spacing" textLength="372.668" x="665" y="710.0801">partial_value : NUMERIC(5,4) [DEFAULT: 1.0, CHECK: 0-1]</text></g><!--class ATTEMPTS--><g id="elem_ATTEMPTS"><rect codeLine="60" fill="#F1F1F1" height="188.875" id="ATTEMPTS" rx="2.5" ry="2.5" style="stroke:#181818;stroke-width:0.5;" width="409.5029" x="1519.5" y="312.1094"/><ellipse cx="1693.1567" cy="328.1094" fill="#ADD1B2" rx="11" ry="11" style="stroke:#181818;stroke-width:1.0;"/><path d="M1692.0161,328.9063 L1692.0161,331.4063 L1696.3442,331.4063 L1696.3442,330.4844 Q1696.3442,329.875 1696.5864,329.6094 Q1696.8286,329.3438 1697.2036,329.3438 Q1697.5786,329.3438 1697.813,329.6094 Q1698.0474,329.875 1698.0474,330.4844 L1698.0474,333.1094 L1690.0474,333.1094 Q1689.4224,333.1094 1689.1646,332.875 Q1688.9067,332.6406 1688.9067,332.25 Q1688.9067,331.875 1689.1724,331.6406 Q1689.438,331.4063 1690.0474,331.4063 L1690.313,331.4063 L1690.313,324.75 L1690.0474,324.75 Q1689.4224,324.75 1689.1646,324.5156 Q1688.9067,324.2813 1688.9067,323.8906 Q1688.9067,323.5156 1689.1646,323.2813 Q1689.4224,323.0469 1690.0474,323.0469 L1697.6724,323.0469 L1697.6724,325.6406 Q1697.6724,326.25 1697.4458,326.5078 Q1697.2192,326.7656 1696.8286,326.7656 Q1696.4536,326.7656 1696.2192,326.5078 Q1695.9849,326.25 1695.9849,325.6406 L1695.9849,324.75 L1692.0161,324.75 L1692.0161,327.2031 L1693.5005,327.2031 Q1693.5005,326.5469 1693.6255,326.3594 Q1693.8911,325.9531 1694.3599,325.9531 Q1694.7349,325.9531 1694.9692,326.2109 Q1695.2036,326.4688 1695.2036,327.0781 L1695.2036,329.0469 Q1695.2036,329.5938 1695.0786,329.7813 Q1694.813,330.1719 1694.3599,330.1719 Q1693.8911,330.1719 1693.6255,329.7656 Q1693.5005,329.5781 1693.5005,328.9063 L1692.0161,328.9063 Z " fill="#000000"/><text fill="#000000" font-family="sans-serif" font-size="14" lengthAdjust="spacing" textLength="53.6895" x="1713.6567" y="333.8379">attempts</text><line style="stroke:#181818;stroke-width:0.5;" x1="1520.5" x2="1928.0029" y1="344.1094" y2="344.1094"/><ellipse cx="1530.5" cy="358.4141" fill="#000000" rx="3" ry="3" style="stroke:#000000;stroke-width:1.0;"/><text fill="#000000" font-family="sans-serif" font-size="14" lengthAdjust="spacing" textLength="102.71" x="1539.5" y="362.6426">id : SERIAL [PK]</text><line style="stroke:#181818;stroke-width:1.0;" x1="1520.5" x2="1928.0029" y1="369.7188" y2="369.7188"/><text fill="#000000" font-family="sans-serif" font-size="14" lengthAdjust="spacing" textLength="219.0098" x="1525.5" y="388.252">user_id : INTEGER [FK -&gt; users.id]</text><text fill="#000000" font-family="sans-serif" font-size="14" lengthAdjust="spacing" textLength="280.0889" x="1525.5" y="405.8613">total_points : NUMERIC(8,4) [DEFAULT: 0.0]</text><text fill="#000000" font-family="sans-serif" font-size="14" lengthAdjust="spacing" textLength="280.0752" x="1525.5" y="423.4707">max_points : NUMERIC(8,4) [DEFAULT: 0.0]</text><text fill="#000000" font-family="sans-serif" font-size="14" lengthAdjust="spacing" textLength="230.2959" x="1525.5" y="441.0801">difficulty : SMALLINT [CHECK: 1,2,3]</text><text fill="#000000" font-family="sans-serif" font-size="14" lengthAdjust="spacing" textLength="140.8271" x="1525.5" y="458.6895">grade : VARCHAR(10)</text><text fill="#000000" font-family="sans-serif" font-size="14" lengthAdjust="spacing" textLength="275.4404" x="1525.5" y="476.2988">duration_seconds : INTEGER [DEFAULT: 0]</text><text fill="#000000" font-family="sans-serif" font-size="14" lengthAdjust="spacing" textLength="397.5029" x="1525.5" y="493.9082">created_at : TIMESTAMP WITH TIME ZONE [DEFAULT: now()]</text></g><!--class ATTEMPT_ANSWERS--><g id="elem_ATTEMPT_ANSWERS"><rect codeLine="72" fill="#F1F1F1" height="136.0469" id="ATTEMPT_ANSWERS" rx="2.5" ry="2.5" style="stroke:#181818;stroke-width:0.5;" width="319.3301" x="1565" y="581.1094"/><ellipse cx="1667.1118" cy="597.1094" fill="#ADD1B2" rx="11" ry="11" style="stroke:#181818;stroke-width:1.0;"/><path d="M1665.9712,597.9063 L1665.9712,600.4063 L1670.2993,600.4063 L1670.2993,599.4844 Q1670.2993,598.875 1670.5415,598.6094 Q1670.7837,598.3438 1671.1587,598.3438 Q1671.5337,598.3438 1671.7681,598.6094 Q1672.0024,598.875 1672.0024,599.4844 L1672.0024,602.1094 L1664.0024,602.1094 Q1663.3774,602.1094 1663.1196,601.875 Q1662.8618,601.6406 1662.8618,601.25 Q1662.8618,600.875 1663.1274,600.6406 Q1663.3931,600.4063 1664.0024,600.4063 L1664.2681,600.4063 L1664.2681,593.75 L1664.0024,593.75 Q1663.3774,593.75 1663.1196,593.5156 Q1662.8618,593.2813 1662.8618,592.8906 Q1662.8618,592.5156 1663.1196,592.2813 Q1663.3774,592.0469 1664.0024,592.0469 L1671.6274,592.0469 L1671.6274,594.6406 Q1671.6274,595.25 1671.4009,595.5078 Q1671.1743,595.7656 1670.7837,595.7656 Q1670.4087,595.7656 1670.1743,595.5078 Q1669.9399,595.25 1669.9399,594.6406 L1669.9399,593.75 L1665.9712,593.75 L1665.9712,596.2031 L1667.4556,596.2031 Q1667.4556,595.5469 1667.5806,595.3594 Q1667.8462,594.9531 1668.3149,594.9531 Q1668.6899,594.9531 1668.9243,595.2109 Q1669.1587,595.4688 1669.1587,596.0781 L1669.1587,598.0469 Q1669.1587,598.5938 1669.0337,598.7813 Q1668.7681,599.1719 1668.3149,599.1719 Q1667.8462,599.1719 1667.5806,598.7656 Q1667.4556,598.5781 1667.4556,597.9063 L1665.9712,597.9063 Z " fill="#000000"/><text fill="#000000" font-family="sans-serif" font-size="14" lengthAdjust="spacing" textLength="106.6064" x="1687.6118" y="602.8379">attempt_answers</text><line style="stroke:#181818;stroke-width:0.5;" x1="1566" x2="1883.3301" y1="613.1094" y2="613.1094"/><ellipse cx="1576" cy="627.4141" fill="#000000" rx="3" ry="3" style="stroke:#000000;stroke-width:1.0;"/><text fill="#000000" font-family="sans-serif" font-size="14" lengthAdjust="spacing" textLength="102.71" x="1585" y="631.6426">id : SERIAL [PK]</text><line style="stroke:#181818;stroke-width:1.0;" x1="1566" x2="1883.3301" y1="638.7188" y2="638.7188"/><text fill="#000000" font-family="sans-serif" font-size="14" lengthAdjust="spacing" textLength="257.9199" x="1571" y="657.252">attempt_id : INTEGER [FK -&gt; attempts.id]</text><text fill="#000000" font-family="sans-serif" font-size="14" lengthAdjust="spacing" textLength="270.4023" x="1571" y="674.8613">question_id : INTEGER [FK -&gt; questions.id]</text><text fill="#000000" font-family="sans-serif" font-size="14" lengthAdjust="spacing" textLength="133.834" x="1571" y="692.4707">given_answer : TEXT</text><text fill="#000000" font-family="sans-serif" font-size="14" lengthAdjust="spacing" textLength="307.3301" x="1571" y="710.0801">points_awarded : NUMERIC(8,4) [DEFAULT: 0.0]</text></g><!--class CONFIG--><g id="elem_CONFIG"><rect codeLine="81" fill="#F1F1F1" height="100.8281" id="CONFIG" rx="2.5" ry="2.5" style="stroke:#181818;stroke-width:0.5;" width="239.1787" x="1910" y="89.6094"/><ellipse cx="2006.6602" cy="105.6094" fill="#ADD1B2" rx="11" ry="11" style="stroke:#181818;stroke-width:1.0;"/><path d="M2005.5195,106.4063 L2005.5195,108.9063 L2009.8477,108.9063 L2009.8477,107.9844 Q2009.8477,107.375 2010.0898,107.1094 Q2010.332,106.8438 2010.707,106.8438 Q2011.082,106.8438 2011.3164,107.1094 Q2011.5508,107.375 2011.5508,107.9844 L2011.5508,110.6094 L2003.5508,110.6094 Q2002.9258,110.6094 2002.668,110.375 Q2002.4102,110.1406 2002.4102,109.75 Q2002.4102,109.375 2002.6758,109.1406 Q2002.9414,108.9063 2003.5508,108.9063 L2003.8164,108.9063 L2003.8164,102.25 L2003.5508,102.25 Q2002.9258,102.25 2002.668,102.0156 Q2002.4102,101.7813 2002.4102,101.3906 Q2002.4102,101.0156 2002.668,100.7813 Q2002.9258,100.5469 2003.5508,100.5469 L2011.1758,100.5469 L2011.1758,103.1406 Q2011.1758,103.75 2010.9492,104.0078 Q2010.7227,104.2656 2010.332,104.2656 Q2009.957,104.2656 2009.7227,104.0078 Q2009.4883,103.75 2009.4883,103.1406 L2009.4883,102.25 L2005.5195,102.25 L2005.5195,104.7031 L2007.0039,104.7031 Q2007.0039,104.0469 2007.1289,103.8594 Q2007.3945,103.4531 2007.8633,103.4531 Q2008.2383,103.4531 2008.4727,103.7109 Q2008.707,103.9688 2008.707,104.5781 L2008.707,106.5469 Q2008.707,107.0938 2008.582,107.2813 Q2008.3164,107.6719 2007.8633,107.6719 Q2007.3945,107.6719 2007.1289,107.2656 Q2007.0039,107.0781 2007.0039,106.4063 L2005.5195,106.4063 Z " fill="#000000"/><text fill="#000000" font-family="sans-serif" font-size="14" lengthAdjust="spacing" textLength="37.3584" x="2027.1602" y="111.3379">config</text><line style="stroke:#181818;stroke-width:0.5;" x1="1911" x2="2148.1787" y1="121.6094" y2="121.6094"/><ellipse cx="1921" cy="135.9141" fill="#000000" rx="3" ry="3" style="stroke:#000000;stroke-width:1.0;"/><text fill="#000000" font-family="sans-serif" font-size="14" lengthAdjust="spacing" textLength="164.9375" x="1930" y="140.1426">key : VARCHAR(128) [PK]</text><line style="stroke:#181818;stroke-width:1.0;" x1="1911" x2="2148.1787" y1="147.2188" y2="147.2188"/><text fill="#000000" font-family="sans-serif" font-size="14" lengthAdjust="spacing" textLength="227.1787" x="1916" y="165.752">value : VARCHAR(255) [NOT NULL]</text><text fill="#000000" font-family="sans-serif" font-size="14" lengthAdjust="spacing" textLength="115.1514" x="1916" y="183.3613">description : TEXT</text></g><g id="elem_GMN16"><path d="M1638.5,53.1094 L1638.5,136.6094 L1603.64,140.6094 L1638.5,144.6094 L1638.5,226.625 A0,0 0 0 0 1638.5,226.625 L1874.7935,226.625 A0,0 0 0 0 1874.7935,226.625 L1874.7935,63.1094 L1864.7935,53.1094 L1638.5,53.1094 A0,0 0 0 0 1638.5,53.1094 " fill="#FEFFDD" style="stroke:#181818;stroke-width:0.5;"/><path d="M1864.7935,53.1094 L1864.7935,63.1094 L1874.7935,63.1094 L1864.7935,53.1094 " fill="#FEFFDD" style="stroke:#181818;stroke-width:0.5;"/><text fill="#000000" font-family="sans-serif" font-size="13" font-weight="bold" lengthAdjust="spacing" textLength="176.2109" x="1644.5" y="71.6045">Rollen (String, KEIN Enum!):</text><text fill="#000000" font-family="sans-serif" font-size="13" lengthAdjust="spacing" textLength="171.8691" x="1644.5" y="87.9561">- 'student': Normaler Benutzer</text><text fill="#000000" font-family="sans-serif" font-size="13" lengthAdjust="spacing" textLength="132.1138" x="1644.5" y="104.3076">- 'admin': Administrator</text><text fill="#000000" font-family="sans-serif" font-size="13" lengthAdjust="spacing" textLength="3.6118" x="1644.5" y="120.6592">&#160;</text><text fill="#000000" font-family="sans-serif" font-size="13" font-weight="bold" lengthAdjust="spacing" textLength="135.4971" x="1644.5" y="137.0107">KEINE 'teacher' Rolle!</text><text fill="#000000" font-family="sans-serif" font-size="13" lengthAdjust="spacing" textLength="3.6118" x="1644.5" y="153.3623">&#160;</text><text fill="#000000" font-family="sans-serif" font-size="13" font-weight="bold" lengthAdjust="spacing" textLength="62.1309" x="1644.5" y="169.7139">Passwort:</text><text fill="#000000" font-family="sans-serif" font-size="13" lengthAdjust="spacing" textLength="141.6035" x="1644.5" y="186.0654">- SHA-256 Hash mit Salt</text><text fill="#000000" font-family="sans-serif" font-size="13" lengthAdjust="spacing" textLength="170.5234" x="1644.5" y="202.417">- Iteratives Hashing (10.000x)</text><text fill="#000000" font-family="sans-serif" font-size="13" lengthAdjust="spacing" textLength="215.2935" x="1644.5" y="218.7686">- reset_requested f&#252;r PW-Reset-Flow</text></g><g id="elem_GMN19"><path d="M1312.5,319.6094 L1312.5,402.6094 L1277.57,406.6094 L1312.5,410.6094 L1312.5,493.125 A0,0 0 0 0 1312.5,493.125 L1484.4854,493.125 A0,0 0 0 0 1484.4854,493.125 L1484.4854,329.6094 L1474.4854,319.6094 L1312.5,319.6094 A0,0 0 0 0 1312.5,319.6094 " fill="#FEFFDD" style="stroke:#181818;stroke-width:0.5;"/><path d="M1474.4854,319.6094 L1474.4854,329.6094 L1484.4854,329.6094 L1474.4854,319.6094 " fill="#FEFFDD" style="stroke:#181818;stroke-width:0.5;"/><text fill="#000000" font-family="sans-serif" font-size="13" font-weight="bold" lengthAdjust="spacing" textLength="74.4009" x="1318.5" y="338.1045">Fragetypen:</text><text fill="#000000" font-family="sans-serif" font-size="13" lengthAdjust="spacing" textLength="124.2554" x="1318.5" y="354.4561">- MC: Multiple Choice</text><text fill="#000000" font-family="sans-serif" font-size="13" lengthAdjust="spacing" textLength="121.3799" x="1318.5" y="370.8076">- CLOZE: L&#252;ckentext</text><text fill="#000000" font-family="sans-serif" font-size="13" lengthAdjust="spacing" textLength="150.9854" x="1318.5" y="387.1592">- FREE: Freitext (optional)</text><text fill="#000000" font-family="sans-serif" font-size="13" lengthAdjust="spacing" textLength="99.6772" x="1318.5" y="403.5107">- IMAGE: Mit Bild</text><text fill="#000000" font-family="sans-serif" font-size="13" lengthAdjust="spacing" textLength="3.6118" x="1318.5" y="419.8623">&#160;</text><text fill="#000000" font-family="sans-serif" font-size="13" font-weight="bold" lengthAdjust="spacing" textLength="88.1372" x="1318.5" y="436.2139">Schwierigkeit:</text><text fill="#000000" font-family="sans-serif" font-size="13" lengthAdjust="spacing" textLength="18.7891" x="1410.249" y="436.2139">1-3</text><text fill="#000000" font-family="sans-serif" font-size="13" lengthAdjust="spacing" textLength="64.6763" x="1318.5" y="452.5654">- 1 = Leicht</text><text fill="#000000" font-family="sans-serif" font-size="13" lengthAdjust="spacing" textLength="61.0454" x="1318.5" y="468.917">- 2 = Mittel</text><text fill="#000000" font-family="sans-serif" font-size="13" lengthAdjust="spacing" textLength="73.3345" x="1318.5" y="485.2686">- 3 = Schwer</text></g><g id="elem_GMN22"><path d="M427.5,578.6094 L427.5,645.6094 L392.43,649.6094 L427.5,653.6094 L427.5,719.4219 A0,0 0 0 0 427.5,719.4219 L623.7017,719.4219 A0,0 0 0 0 623.7017,719.4219 L623.7017,588.6094 L613.7017,578.6094 L427.5,578.6094 A0,0 0 0 0 427.5,578.6094 " fill="#FEFFDD" style="stroke:#181818;stroke-width:0.5;"/><path d="M613.7017,578.6094 L613.7017,588.6094 L623.7017,588.6094 L613.7017,578.6094 " fill="#FEFFDD" style="stroke:#181818;stroke-width:0.5;"/><text fill="#000000" font-family="sans-serif" font-size="13" font-weight="bold" lengthAdjust="spacing" textLength="169.7046" x="433.5" y="597.1045">Multiple-Choice-Antworten:</text><text fill="#000000" font-family="sans-serif" font-size="13" lengthAdjust="spacing" textLength="155.3145" x="433.5" y="613.4561">- is_correct: Korrekt/Falsch</text><text fill="#000000" font-family="sans-serif" font-size="13" lengthAdjust="spacing" textLength="108.3799" x="433.5" y="629.8076">- partial_value: F&#252;r</text><text fill="#000000" font-family="sans-serif" font-size="13" lengthAdjust="spacing" textLength="112.7217" x="440.7236" y="646.1592">Teilpunkte (0.0-1.0)</text><text fill="#000000" font-family="sans-serif" font-size="13" lengthAdjust="spacing" textLength="3.6118" x="433.5" y="662.5107">&#160;</text><text fill="#000000" font-family="sans-serif" font-size="13" font-weight="bold" lengthAdjust="spacing" textLength="54.1836" x="433.5" y="678.8623">Beispiel:</text><text fill="#000000" font-family="sans-serif" font-size="13" lengthAdjust="spacing" textLength="169.4063" x="433.5" y="695.2139">- Antwort 1: is_correct=TRUE</text><text fill="#000000" font-family="sans-serif" font-size="13" lengthAdjust="spacing" textLength="175.2017" x="433.5" y="711.5654">- Antwort 2: is_correct=FALSE</text></g><g id="elem_GMN25"><path d="M1079,595.1094 L1079,645.6094 L1044.12,649.6094 L1079,653.6094 L1079,703.2188 A0,0 0 0 0 1079,703.2188 L1257.5298,703.2188 A0,0 0 0 0 1257.5298,703.2188 L1257.5298,605.1094 L1247.5298,595.1094 L1079,595.1094 A0,0 0 0 0 1079,595.1094 " fill="#FEFFDD" style="stroke:#181818;stroke-width:0.5;"/><path d="M1247.5298,595.1094 L1247.5298,605.1094 L1257.5298,605.1094 L1247.5298,595.1094 " fill="#FEFFDD" style="stroke:#181818;stroke-width:0.5;"/><text fill="#000000" font-family="sans-serif" font-size="13" font-weight="bold" lengthAdjust="spacing" textLength="122.8018" x="1085" y="613.6045">L&#252;ckentext-Tokens:</text><text fill="#000000" font-family="sans-serif" font-size="13" lengthAdjust="spacing" textLength="131.5234" x="1085" y="629.9561">- token_index: Position</text><text fill="#000000" font-family="sans-serif" font-size="13" lengthAdjust="spacing" textLength="70.8208" x="1092.2236" y="646.3076">in der L&#252;cke</text><text fill="#000000" font-family="sans-serif" font-size="13" lengthAdjust="spacing" textLength="151.7407" x="1085" y="662.6592">- expected_text: Erwartete</text><text fill="#000000" font-family="sans-serif" font-size="13" lengthAdjust="spacing" textLength="44.0718" x="1092.2236" y="679.0107">Antwort</text><text fill="#000000" font-family="sans-serif" font-size="13" lengthAdjust="spacing" textLength="157.5298" x="1085" y="695.3623">- partial_value: Gewichtung</text></g><g id="elem_GMN28"><path d="M1965,336.1094 L1965,402.6094 L1929.63,406.6094 L1965,410.6094 L1965,476.9219 A0,0 0 0 0 1965,476.9219 L2155.7871,476.9219 A0,0 0 0 0 2155.7871,476.9219 L2155.7871,346.1094 L2145.7871,336.1094 L1965,336.1094 A0,0 0 0 0 1965,336.1094 " fill="#FEFFDD" style="stroke:#181818;stroke-width:0.5;"/><path d="M2145.7871,336.1094 L2145.7871,346.1094 L2155.7871,346.1094 L2145.7871,336.1094 " fill="#FEFFDD" style="stroke:#181818;stroke-width:0.5;"/><text fill="#000000" font-family="sans-serif" font-size="13" font-weight="bold" lengthAdjust="spacing" textLength="80.9199" x="1971" y="354.6045">Testversuch:</text><text fill="#000000" font-family="sans-serif" font-size="13" lengthAdjust="spacing" textLength="151.0171" x="1971" y="370.9561">- Speichert Gesamtpunkte</text><text fill="#000000" font-family="sans-serif" font-size="13" lengthAdjust="spacing" textLength="169.7871" x="1971" y="387.3076">- Maximal erreichbare Punkte</text><text fill="#000000" font-family="sans-serif" font-size="13" lengthAdjust="spacing" textLength="136.5635" x="1971" y="403.6592">- Berechnete Note (1-6)</text><text fill="#000000" font-family="sans-serif" font-size="13" lengthAdjust="spacing" textLength="119.2407" x="1971" y="420.0107">- Dauer in Sekunden</text><text fill="#000000" font-family="sans-serif" font-size="13" lengthAdjust="spacing" textLength="3.6118" x="1971" y="436.3623">&#160;</text><text fill="#000000" font-family="sans-serif" font-size="13" font-weight="bold" lengthAdjust="spacing" textLength="88.1372" x="1971" y="452.7139">Schwierigkeit:</text><text fill="#000000" font-family="sans-serif" font-size="13" lengthAdjust="spacing" textLength="114.1563" x="1971" y="469.0654">Startlevel des Tests</text></g><g id="elem_GMN31"><path d="M1919,578.6094 L1919,645.6094 L1884.1,649.6094 L1919,653.6094 L1919,719.4219 A0,0 0 0 0 1919,719.4219 L2075.8271,719.4219 A0,0 0 0 0 2075.8271,719.4219 L2075.8271,588.6094 L2065.8271,578.6094 L1919,578.6094 A0,0 0 0 0 1919,578.6094 " fill="#FEFFDD" style="stroke:#181818;stroke-width:0.5;"/><path d="M2065.8271,578.6094 L2065.8271,588.6094 L2075.8271,588.6094 L2065.8271,578.6094 " fill="#FEFFDD" style="stroke:#181818;stroke-width:0.5;"/><text fill="#000000" font-family="sans-serif" font-size="13" font-weight="bold" lengthAdjust="spacing" textLength="100.3882" x="1925" y="597.1045">Antwort-Details:</text><text fill="#000000" font-family="sans-serif" font-size="13" lengthAdjust="spacing" textLength="135.8271" x="1925" y="613.4561">- Verkn&#252;pft Versuch mit</text><text fill="#000000" font-family="sans-serif" font-size="13" lengthAdjust="spacing" textLength="90.3271" x="1932.2236" y="629.8076">einzelner Frage</text><text fill="#000000" font-family="sans-serif" font-size="13" lengthAdjust="spacing" textLength="132.9453" x="1925" y="646.1592">- Gespeicherte Antwort</text><text fill="#000000" font-family="sans-serif" font-size="13" lengthAdjust="spacing" textLength="104.0444" x="1925" y="662.5107">- Erreichte Punkte</text><text fill="#000000" font-family="sans-serif" font-size="13" lengthAdjust="spacing" textLength="3.6118" x="1925" y="678.8623">&#160;</text><text fill="#000000" font-family="sans-serif" font-size="13" font-weight="bold" lengthAdjust="spacing" textLength="82.3354" x="1925" y="695.2139">Verwendung:</text><text fill="#000000" font-family="sans-serif" font-size="13" lengthAdjust="spacing" textLength="128.6162" x="1925" y="711.5654">Detailliertes Feedback</text></g><g id="elem_GMN34"><path d="M2184.5,69.6094 L2184.5,136.6094 L2149.12,140.6094 L2184.5,144.6094 L2184.5,210.4219 A0,0 0 0 0 2184.5,210.4219 L2376.0298,210.4219 A0,0 0 0 0 2376.0298,210.4219 L2376.0298,79.6094 L2366.0298,69.6094 L2184.5,69.6094 A0,0 0 0 0 2184.5,69.6094 " fill="#FEFFDD" style="stroke:#181818;stroke-width:0.5;"/><path d="M2366.0298,69.6094 L2366.0298,79.6094 L2376.0298,79.6094 L2366.0298,69.6094 " fill="#FEFFDD" style="stroke:#181818;stroke-width:0.5;"/><text fill="#000000" font-family="sans-serif" font-size="13" font-weight="bold" lengthAdjust="spacing" textLength="140.1118" x="2190.5" y="88.1045">System-Konfiguration:</text><text fill="#000000" font-family="sans-serif" font-size="13" lengthAdjust="spacing" textLength="3.6118" x="2190.5" y="104.4561">&#160;</text><text fill="#000000" font-family="sans-serif" font-size="13" lengthAdjust="spacing" textLength="170.5298" x="2190.5" y="120.8076">- progress.promote_threshold</text><text fill="#000000" font-family="sans-serif" font-size="13" lengthAdjust="spacing" textLength="59.9663" x="2197.7236" y="137.1592">(z.B. 0.70)</text><text fill="#000000" font-family="sans-serif" font-size="13" lengthAdjust="spacing" textLength="166.2007" x="2190.5" y="153.5107">- progress.demote_threshold</text><text fill="#000000" font-family="sans-serif" font-size="13" lengthAdjust="spacing" textLength="59.9663" x="2197.7236" y="169.8623">(z.B. 0.40)</text><text fill="#000000" font-family="sans-serif" font-size="13" lengthAdjust="spacing" textLength="135.8335" x="2190.5" y="186.2139">- progress.window_size</text><text fill="#000000" font-family="sans-serif" font-size="13" lengthAdjust="spacing" textLength="41.8945" x="2197.7236" y="202.5654">(z.B. 3)</text></g><g id="elem_GMN37"><path d="M1293.5,587.1094 L1293.5,711.5703 L1529.8125,711.5703 L1529.8125,597.1094 L1519.8125,587.1094 L1293.5,587.1094 " fill="#FEFFDD" style="stroke:#181818;stroke-width:0.5;"/><path d="M1519.8125,587.1094 L1519.8125,597.1094 L1529.8125,597.1094 L1519.8125,587.1094 " fill="#FEFFDD" style="stroke:#181818;stroke-width:1.0;"/><text fill="#000000" font-family="sans-serif" font-size="13" font-weight="bold" lengthAdjust="spacing" textLength="106.1709" x="1299.5" y="605.6045">Wichtige Indizes:</text><text fill="#000000" font-family="sans-serif" font-size="13" lengthAdjust="spacing" textLength="215.3125" x="1299.5" y="621.9561">- idx_questions_difficulty ON difficulty</text><text fill="#000000" font-family="sans-serif" font-size="13" lengthAdjust="spacing" textLength="183.5234" x="1299.5" y="638.3076">- idx_attempts_user ON user_id</text><text fill="#000000" font-family="sans-serif" font-size="13" lengthAdjust="spacing" textLength="3.6118" x="1299.5" y="654.6592">&#160;</text><text fill="#000000" font-family="sans-serif" font-size="13" font-weight="bold" lengthAdjust="spacing" textLength="60.6519" x="1299.5" y="671.0107">WICHTIG:</text><text fill="#000000" font-family="sans-serif" font-size="13" lengthAdjust="spacing" textLength="168.9746" x="1299.5" y="687.3623">Es gibt KEINE 'tests'-Tabelle!</text><text fill="#000000" font-family="sans-serif" font-size="13" lengthAdjust="spacing" textLength="202.3125" x="1299.5" y="703.7139">Tests werden dynamisch generiert.</text></g><!--link USERS to QUESTIONS--><g id="link_USERS_QUESTIONS"><path codeLine="90" d="M1235.5,242.8194 C1235.5,262.1194 1235.5,256.5994 1235.5,276.4394 " fill="none" id="USERS-QUESTIONS" style="stroke:#181818;stroke-width:1.0;"/><line style="stroke:#181818;stroke-width:1.0;" x1="1231.5" x2="1239.5" y1="238.8194" y2="238.8194"/><line style="stroke:#181818;stroke-width:1.0;" x1="1231.5" x2="1239.5" y1="241.8194" y2="241.8194"/><line style="stroke:#181818;stroke-width:1.0;" x1="1235.5" x2="1235.5" y1="242.8194" y2="234.8194"/><line style="stroke:#181818;stroke-width:1.0;" x1="1235.5" x2="1241.5" y1="286.4394" y2="294.4394"/><line style="stroke:#181818;stroke-width:1.0;" x1="1235.5" x2="1229.5" y1="286.4394" y2="294.4394"/><line style="stroke:#181818;stroke-width:1.0;" x1="1235.5" x2="1235.5" y1="286.4394" y2="294.4394"/><ellipse cx="1235.5" cy="280.4394" fill="none" rx="4" ry="4" style="stroke:#181818;stroke-width:1.0;"/><text fill="#000000" font-family="sans-serif" font-size="13" lengthAdjust="spacing" textLength="42.6309" x="1192.5" y="261.1245">creates</text></g><!--link USERS to ATTEMPTS--><g id="link_USERS_ATTEMPTS"><path codeLine="91" d="M1561.5,242.8194 C1561.5,267.7994 1561.5,268.7694 1561.5,293.7594 " fill="none" id="USERS-ATTEMPTS" style="stroke:#181818;stroke-width:1.0;"/><line style="stroke:#181818;stroke-width:1.0;" x1="1557.5" x2="1565.5" y1="238.8194" y2="238.8194"/><line style="stroke:#181818;stroke-width:1.0;" x1="1557.5" x2="1565.5" y1="241.8194" y2="241.8194"/><line style="stroke:#181818;stroke-width:1.0;" x1="1561.5" x2="1561.5" y1="242.8194" y2="234.8194"/><line style="stroke:#181818;stroke-width:1.0;" x1="1561.5" x2="1567.5" y1="303.7594" y2="311.7594"/><line style="stroke:#181818;stroke-width:1.0;" x1="1561.5" x2="1555.5" y1="303.7594" y2="311.7594"/><line style="stroke:#181818;stroke-width:1.0;" x1="1561.5" x2="1561.5" y1="303.7594" y2="311.7594"/><ellipse cx="1561.5" cy="297.7594" fill="none" rx="4" ry="4" style="stroke:#181818;stroke-width:1.0;"/><text fill="#000000" font-family="sans-serif" font-size="13" lengthAdjust="spacing" textLength="51.2891" x="1509.5" y="269.7845">performs</text></g><!--link QUESTIONS to ANSWERS--><g id="link_QUESTIONS_ANSWERS"><path codeLine="92" d="M859.27,406.6094 C601.2,406.6094 199.5,406.6094 199.5,406.6094 C199.5,406.6094 199.5,491.1894 199.5,562.9094 " fill="none" id="QUESTIONS-ANSWERS" style="stroke:#181818;stroke-width:1.0;"/><line style="stroke:#181818;stroke-width:1.0;" x1="863.27" x2="863.27" y1="402.6094" y2="410.6094"/><line style="stroke:#181818;stroke-width:1.0;" x1="860.27" x2="860.27" y1="402.6094" y2="410.6094"/><line style="stroke:#181818;stroke-width:1.0;" x1="859.27" x2="867.27" y1="406.6094" y2="406.6094"/><line style="stroke:#181818;stroke-width:1.0;" x1="199.5" x2="205.5" y1="572.9094" y2="580.9094"/><line style="stroke:#181818;stroke-width:1.0;" x1="199.5" x2="193.5" y1="572.9094" y2="580.9094"/><line style="stroke:#181818;stroke-width:1.0;" x1="199.5" x2="199.5" y1="572.9094" y2="580.9094"/><ellipse cx="199.5" cy="566.9094" fill="none" rx="4" ry="4" style="stroke:#181818;stroke-width:1.0;"/><text fill="#000000" font-family="sans-serif" font-size="13" lengthAdjust="spacing" textLength="20.96" x="425.23" y="403.1045">has</text></g><!--link QUESTIONS to CLOZE_ANSWERS--><g id="link_QUESTIONS_CLOZE_ANSWERS"><path codeLine="93" d="M955.75,526.6294 C955.75,547.8494 955.75,543.4494 955.75,562.8094 " fill="none" id="QUESTIONS-CLOZE_ANSWERS" style="stroke:#181818;stroke-width:1.0;"/><line style="stroke:#181818;stroke-width:1.0;" x1="951.75" x2="959.75" y1="522.6294" y2="522.6294"/><line style="stroke:#181818;stroke-width:1.0;" x1="951.75" x2="959.75" y1="525.6294" y2="525.6294"/><line style="stroke:#181818;stroke-width:1.0;" x1="955.75" x2="955.75" y1="526.6294" y2="518.6294"/><line style="stroke:#181818;stroke-width:1.0;" x1="955.75" x2="961.75" y1="572.8094" y2="580.8094"/><line style="stroke:#181818;stroke-width:1.0;" x1="955.75" x2="949.75" y1="572.8094" y2="580.8094"/><line style="stroke:#181818;stroke-width:1.0;" x1="955.75" x2="955.75" y1="572.8094" y2="580.8094"/><ellipse cx="955.75" cy="566.8094" fill="none" rx="4" ry="4" style="stroke:#181818;stroke-width:1.0;"/><text fill="#000000" font-family="sans-serif" font-size="13" lengthAdjust="spacing" textLength="20.96" x="934.75" y="546.2145">has</text></g><!--link QUESTIONS to ATTEMPT_ANSWERS--><g id="link_QUESTIONS_ATTEMPT_ANSWERS"><path codeLine="94" d="M1285.75,510.6094 C1459.1,510.6094 1671.33,510.6094 1671.33,510.6094 C1671.33,510.6094 1671.33,528.0494 1671.33,563.0794 " fill="none" id="QUESTIONS-ATTEMPT_ANSWERS" style="stroke:#181818;stroke-width:1.0;"/><line style="stroke:#181818;stroke-width:1.0;" x1="1281.75" x2="1281.75" y1="514.6094" y2="506.6094"/><line style="stroke:#181818;stroke-width:1.0;" x1="1284.75" x2="1284.75" y1="514.6094" y2="506.6094"/><line style="stroke:#181818;stroke-width:1.0;" x1="1285.75" x2="1277.75" y1="510.6094" y2="510.6094"/><line style="stroke:#181818;stroke-width:1.0;" x1="1671.33" x2="1677.33" y1="573.0794" y2="581.0794"/><line style="stroke:#181818;stroke-width:1.0;" x1="1671.33" x2="1665.33" y1="573.0794" y2="581.0794"/><line style="stroke:#181818;stroke-width:1.0;" x1="1671.33" x2="1671.33" y1="573.0794" y2="581.0794"/><ellipse cx="1671.33" cy="567.0794" fill="none" rx="4" ry="4" style="stroke:#181818;stroke-width:1.0;"/><text fill="#000000" font-family="sans-serif" font-size="13" lengthAdjust="spacing" textLength="73.7153" x="1435.77" y="525.1045">answered_in</text></g><!--link ATTEMPTS to ATTEMPT_ANSWERS--><g id="link_ATTEMPTS_ATTEMPT_ANSWERS"><path codeLine="95" d="M1777.67,509.4094 C1777.67,535.9794 1777.67,538.3294 1777.67,563.0094 " fill="none" id="ATTEMPTS-ATTEMPT_ANSWERS" style="stroke:#181818;stroke-width:1.0;"/><line style="stroke:#181818;stroke-width:1.0;" x1="1773.67" x2="1781.67" y1="505.4094" y2="505.4094"/><line style="stroke:#181818;stroke-width:1.0;" x1="1773.67" x2="1781.67" y1="508.4094" y2="508.4094"/><line style="stroke:#181818;stroke-width:1.0;" x1="1777.67" x2="1777.67" y1="509.4094" y2="501.4094"/><line style="stroke:#181818;stroke-width:1.0;" x1="1777.67" x2="1783.67" y1="573.0094" y2="581.0094"/><line style="stroke:#181818;stroke-width:1.0;" x1="1777.67" x2="1771.67" y1="573.0094" y2="581.0094"/><line style="stroke:#181818;stroke-width:1.0;" x1="1777.67" x2="1777.67" y1="573.0094" y2="581.0094"/><ellipse cx="1777.67" cy="567.0094" fill="none" rx="4" ry="4" style="stroke:#181818;stroke-width:1.0;"/><text fill="#000000" font-family="sans-serif" font-size="13" lengthAdjust="spacing" textLength="48.4199" x="1728.67" y="537.7045">contains</text></g><!--link QUESTIONS to GMN37--><g id="link_QUESTIONS_GMN37"><path d="M1267.75,518.7594 C1267.75,557.6094 1267.75,591.6094 1267.75,591.6094 C1267.75,591.6094 1278.19,591.6094 1293.45,591.6094 " fill="none" id="QUESTIONS-GMN37" style="stroke:#181818;stroke-width:1.0;stroke-dasharray:7.0,7.0;"/></g><!--SRC=[hLVRKjj847ttLqnuCL28jI79fboLhPAD30w-hIt2Rb8frM2rxLbBCrxD28EJ_Cr-HjxuiUqPNIm11hOsBnXfUhhxdBvACHK0SRXYwjOQGK0L4zmwONGMqJ0a5Xb6uYzOA7B9f0Gk5KXLgSW5uqkA4YHW7DJj4eY8r5nKAbLo0bF6cLP3V8WIrGma2PaYjb8HkueLy4e5Z4so4qk8v0wXaboCdT6OVAqGiizyqY3usB6xvFFm_0k-iopyeuKv3G5FFzgZrfazsgtNQdlayqM_y_k5Sq3w0vVqBxfTVGD2oeA2vD6RDxcaFbzIALSYyhqvbVEIt5kKAshA9IKDLD7sqRjxaf48YiuT7-7vYTEsBxfkWrIbYdt4NJMI845v4VmT8wMWyJO7WwvZzmiNsdPtR5oTH41HoAFQkjlfEMFNxWt9PSSzCu_aqw3l52voiThT-rBvlg7PcC6W95GZ0sEtC-W_GxU9R06kvgLrvhJE4KklLJsejhg3Jmx-jaUE_kdqx5F7e5j68bmQPvq_t395FfjEsIGEq2iqshExtKxVpVNM3uuEZeq6mRYIA8AdpgapAg2h6qgGa9c8RWl-lNrTOjiEWXc4mBZnY8Lq1buStSy8F0f1KNpxOJpeDmiAldulKdzrM_IbVKwitqmwoaFc_zmGUSRLSg0yG-qpuPe8ZgMblFjXUv2bFZM0ct-wZbq- -VyeA9UhhABj_lZosPhUmFOVCfodRSfoejrJSFDuSZ7fJKGKmKGzNL3OlHIZWNTDWrXprR_eeMUjtJS7fHog7TOEI9gPDQjU0Ze9n1gy8bnJ3TxF1wt40b2I-t1JAfbIixjP8cYCt5PgNWYv_WHagXHWMQV1TLsdDtHVqB4V1Lci7IKKEfPNVERPkmV1qC8XlNcfw0jR3SuwlpnIT5VmuyXCGqy25fR_U2kg_QIYIOWjPLFAxyloALFm6DDPr5Ao_rFgpTWrfbxYLffLUM_sw8f6lXbTJuMXM3A2JzaigPL1lzqvJK0juFP1kofWonAsFCTB_Gpa969BitIaJdxNkqWJrWpcCPy19-iLavCvwAs4vrj9fP8i7T- -MPRuMXYB3NJMH5Nkb4Noh4U99KHJ4OKeihcOYQL1GodSBXuHAFUAhMBtaw2HDLXCDyPtAhaxs-NrLA0C1xzcv5Cix_vHwu0X5QGl55lhNOmB1IHYixaYOfhiOJek-oCH1CZMxXZNDZux8ETEfu_SnU6hlSR-lexFPgV1940kQ81vqWGUgpL4YG3rGnp13MBhNoOLLfNGHyQ2rkYGgWAA3aLLOYo-ChhD-J3Pl5HcRdncMxYVaJEzikcLSemRcJdfAD3rUeshfZv4VmaMyc6jLhlPCmBt5wxftO-832znwyNtLZiGAynJdsWkxZEIXyNur8vmFEiPopElUgq6wM6ROKlS_bfpmIPWtfiWDqZtxiS4ExZkpEQrtfPm5aN0JBFU5IPpQP3uQIOzwaDmJHRu6HFZoNp505rQu3KqJEhMiP6la_Ua2nZGHFaHFk9T1O5vFCP7VHMZiGrTcYl6IeR2Ib1ODbUQ_WtKpO1ja7FzpqBzqgO1bfOvBWqPn8WSutj2N631CkOBjBkBGR5moknbo9h0v991a9b8RP9wes3jlJkwS4h7HwLZCzctGYnLcp5QY8dbwlagC_E5QTiWGo7Djum1mP9FckIgaIrDtGPn8ko82XGOyTJHntWvXPKE67QcxL59AzjuwsBANkDWY2Vpl1AMEkQ0H9o2fA5As4tIaTxW2XaGG6fGvef6G8QRuoPsZyaSlzjC1y20rAstIUgTq1Zn8SmnB68aW6zBFdmvLWWfW6i8TFibsaFv79XI159wh1FSlbcGq_yHeWM_-x6SAlslHgpht12Ag_mQ0eukcX8quWW-8m9AZ3i9U5M0RioYqXMwYTGd5XFp0TCA96a3-5TqijYUIMPk9QJSOXy9hNCprD9beP6rBaj_0ismvyX3_Is4EZmrnyUvC2LDoExwi7c84_BNsbvPt8Sdf5_VbrvXeegL9x6H5mIFzme0ggJ3VJoNQSjBfXRbsAGCjYkXb0WVzhbBJH-RGNOzRm7-ZPVl2LvXnnhq2njNBfgj7vxU-BHCkX9c0RdijCxSpccYtP6uSbmfaiy5pAggvT8hq7EXGf8y8zZEz1ZtRpaDzLWdEE4nFJ66XnlW_m80]--></g></svg>