<svg xmlns="http://www.w3.org/2000/svg" xmlns:xlink="http://www.w3.org/1999/xlink" contentStyleType="text/css" height="1136px" preserveAspectRatio="none" style="width:1035px;height:1136px;background:#FFFFFF;" version="1.1" viewBox="0 0 1035 1136" width="1035px" zoomAndPan="magnify"><title>Sequenzdiagramm - Login-Flow</title><defs/><g><text fill="#000000" font-family="sans-serif" font-size="14" font-weight="bold" lengthAdjust="spacing" textLength="211.5586" x="413.1396" y="29.5332">Sequenzdiagramm - Login-Flow</text><rect fill="none" height="615.3516" style="stroke:#000000;stroke-width:1.5;" width="1018.8379" x="10" y="422.0859"/><rect fill="none" height="346.3516" style="stroke:#000000;stroke-width:1.5;" width="614.1104" x="20" y="684.0859"/><line style="stroke:#181818;stroke-width:0.5;stroke-dasharray:5.0,5.0;" x1="61" x2="61" y1="121.2188" y2="1054.4375"/><line style="stroke:#181818;stroke-width:0.5;stroke-dasharray:5.0,5.0;" x1="217.958" x2="217.958" y1="121.2188" y2="1054.4375"/><line style="stroke:#181818;stroke-width:0.5;stroke-dasharray:5.0,5.0;" x1="380.3774" x2="380.3774" y1="121.2188" y2="1054.4375"/><line style="stroke:#181818;stroke-width:0.5;stroke-dasharray:5.0,5.0;" x1="578.6279" x2="578.6279" y1="121.2188" y2="1054.4375"/><line style="stroke:#181818;stroke-width:0.5;stroke-dasharray:5.0,5.0;" x1="775.5103" x2="775.5103" y1="121.2188" y2="1054.4375"/><line style="stroke:#181818;stroke-width:0.5;stroke-dasharray:5.0,5.0;" x1="936.5254" x2="936.5254" y1="121.2188" y2="1054.4375"/><text fill="#000000" font-family="sans-serif" font-size="14" lengthAdjust="spacing" textLength="56.0342" x="30" y="118.1426">Benutzer</text><ellipse cx="61.0171" cy="52.1094" fill="#E2E2F0" rx="8" ry="8" style="stroke:#181818;stroke-width:0.5;"/><path d="M61.0171,60.1094 L61.0171,87.1094 M48.0171,68.1094 L74.0171,68.1094 M61.0171,87.1094 L48.0171,102.1094 M61.0171,87.1094 L74.0171,102.1094 " fill="none" style="stroke:#181818;stroke-width:0.5;"/><text fill="#000000" font-family="sans-serif" font-size="14" lengthAdjust="spacing" textLength="56.0342" x="30" y="1067.9707">Benutzer</text><ellipse cx="61.0171" cy="1079.5469" fill="#E2E2F0" rx="8" ry="8" style="stroke:#181818;stroke-width:0.5;"/><path d="M61.0171,1087.5469 L61.0171,1114.5469 M48.0171,1095.5469 L74.0171,1095.5469 M61.0171,1114.5469 L48.0171,1129.5469 M61.0171,1114.5469 L74.0171,1129.5469 " fill="none" style="stroke:#181818;stroke-width:0.5;"/><rect fill="#E2E2F0" height="49.2188" rx="2.5" ry="2.5" style="stroke:#181818;stroke-width:0.5;" width="70.0342" x="182.958" y="71"/><text fill="#000000" font-family="sans-serif" font-size="14" lengthAdjust="spacing" textLength="56.0342" x="189.958" y="92.5332">Frontend</text><text fill="#000000" font-family="sans-serif" font-size="14" lengthAdjust="spacing" textLength="55.2275" x="190.3613" y="110.1426">(JSP/JS)</text><rect fill="#E2E2F0" height="49.2188" rx="2.5" ry="2.5" style="stroke:#181818;stroke-width:0.5;" width="70.0342" x="182.958" y="1053.4375"/><text fill="#000000" font-family="sans-serif" font-size="14" lengthAdjust="spacing" textLength="56.0342" x="189.958" y="1074.9707">Frontend</text><text fill="#000000" font-family="sans-serif" font-size="14" lengthAdjust="spacing" textLength="55.2275" x="190.3613" y="1092.5801">(JSP/JS)</text><rect fill="#E2E2F0" height="31.6094" rx="2.5" ry="2.5" style="stroke:#181818;stroke-width:0.5;" width="86.3721" x="337.3774" y="88.6094"/><text fill="#000000" font-family="sans-serif" font-size="14" lengthAdjust="spacing" textLength="72.3721" x="344.3774" y="110.1426">AuthServlet</text><rect fill="#E2E2F0" height="31.6094" rx="2.5" ry="2.5" style="stroke:#181818;stroke-width:0.5;" width="86.3721" x="337.3774" y="1053.4375"/><text fill="#000000" font-family="sans-serif" font-size="14" lengthAdjust="spacing" textLength="72.3721" x="344.3774" y="1074.9707">AuthServlet</text><rect fill="#E2E2F0" height="31.6094" rx="2.5" ry="2.5" style="stroke:#181818;stroke-width:0.5;" width="89.4824" x="534.6279" y="88.6094"/><text fill="#000000" font-family="sans-serif" font-size="14" lengthAdjust="spacing" textLength="75.4824" x="541.6279" y="110.1426">AuthService</text><rect fill="#E2E2F0" height="31.6094" rx="2.5" ry="2.5" style="stroke:#181818;stroke-width:0.5;" width="89.4824" x="534.6279" y="1053.4375"/><text fill="#000000" font-family="sans-serif" font-size="14" lengthAdjust="spacing" textLength="75.4824" x="541.6279" y="1074.9707">AuthService</text><rect fill="#E2E2F0" height="31.6094" rx="2.5" ry="2.5" style="stroke:#181818;stroke-width:0.5;" width="69.2412" x="741.5103" y="88.6094"/><text fill="#000000" font-family="sans-serif" font-size="14" lengthAdjust="spacing" textLength="55.2412" x="748.5103" y="110.1426">UserDao</text><rect fill="#E2E2F0" height="31.6094" rx="2.5" ry="2.5" style="stroke:#181818;stroke-width:0.5;" width="69.2412" x="741.5103" y="1053.4375"/><text fill="#000000" font-family="sans-serif" font-size="14" lengthAdjust="spacing" textLength="55.2412" x="748.5103" y="1074.9707">UserDao</text><text fill="#000000" font-family="sans-serif" font-size="14" lengthAdjust="spacing" textLength="76.2617" x="895.5254" y="118.1426">PostgreSQL</text><path d="M918.6563,67.6094 C918.6563,57.6094 936.6563,57.6094 936.6563,57.6094 C936.6563,57.6094 954.6563,57.6094 954.6563,67.6094 L954.6563,93.6094 C954.6563,103.6094 936.6563,103.6094 936.6563,103.6094 C936.6563,103.6094 918.6563,103.6094 918.6563,93.6094 L918.6563,67.6094 " fill="#E2E2F0" style="stroke:#181818;stroke-width:1.5;"/><path d="M918.6563,67.6094 C918.6563,77.6094 936.6563,77.6094 936.6563,77.6094 C936.6563,77.6094 954.6563,77.6094 954.6563,67.6094 " fill="none" style="stroke:#181818;stroke-width:1.5;"/><text fill="#000000" font-family="sans-serif" font-size="14" lengthAdjust="spacing" textLength="76.2617" x="895.5254" y="1067.9707">PostgreSQL</text><path d="M918.6563,1081.0469 C918.6563,1071.0469 936.6563,1071.0469 936.6563,1071.0469 C936.6563,1071.0469 954.6563,1071.0469 954.6563,1081.0469 L954.6563,1107.0469 C954.6563,1117.0469 936.6563,1117.0469 936.6563,1117.0469 C936.6563,1117.0469 918.6563,1117.0469 918.6563,1107.0469 L918.6563,1081.0469 " fill="#E2E2F0" style="stroke:#181818;stroke-width:1.5;"/><path d="M918.6563,1081.0469 C918.6563,1091.0469 936.6563,1091.0469 936.6563,1091.0469 C936.6563,1091.0469 954.6563,1091.0469 954.6563,1081.0469 " fill="none" style="stroke:#181818;stroke-width:1.5;"/><polygon fill="#181818" points="205.9751,149.5703,215.9751,153.5703,205.9751,157.5703,209.9751,153.5703" style="stroke:#181818;stroke-width:1.0;"/><line style="stroke:#181818;stroke-width:1.0;" x1="61.0171" x2="211.9751" y1="153.5703" y2="153.5703"/><text fill="#000000" font-family="sans-serif" font-size="13" lengthAdjust="spacing" textLength="122.8652" x="78.0635" y="148.7139">Credentials eingeben</text><polygon fill="#181818" points="368.5635,196.2734,378.5635,200.2734,368.5635,204.2734,372.5635,200.2734" style="stroke:#181818;stroke-width:1.0;"/><line style="stroke:#181818;stroke-width:1.0;" x1="217.9751" x2="374.5635" y1="200.2734" y2="200.2734"/><text fill="#000000" font-family="sans-serif" font-size="13" lengthAdjust="spacing" textLength="119.958" x="239.2903" y="179.0654">POST /api/auth/login</text><text fill="#000000" font-family="sans-serif" font-size="13" lengthAdjust="spacing" textLength="129.3525" x="234.593" y="195.417">{username, password}</text><polygon fill="#181818" points="567.3691,226.625,577.3691,230.625,567.3691,234.625,571.3691,230.625" style="stroke:#181818;stroke-width:1.0;"/><line style="stroke:#181818;stroke-width:1.0;" x1="380.5635" x2="573.3691" y1="230.625" y2="230.625"/><text fill="#000000" font-family="sans-serif" font-size="13" lengthAdjust="spacing" textLength="156.7935" x="401.5696" y="225.7686">login(username, password)</text><line style="stroke:#181818;stroke-width:1.0;" x1="579.3691" x2="621.3691" y1="273.8281" y2="273.8281"/><line style="stroke:#181818;stroke-width:1.0;" x1="621.3691" x2="621.3691" y1="273.8281" y2="286.8281"/><line style="stroke:#181818;stroke-width:1.0;" x1="580.3691" x2="621.3691" y1="286.8281" y2="286.8281"/><polygon fill="#181818" points="590.3691,282.8281,580.3691,286.8281,590.3691,290.8281,586.3691,286.8281" style="stroke:#181818;stroke-width:1.0;"/><text fill="#000000" font-family="sans-serif" font-size="13" lengthAdjust="spacing" textLength="114.188" x="586.3691" y="268.9717">validateLoginInput()</text><path d="M712.188,243.625 L712.188,302.625 L826.188,302.625 L826.188,253.625 L816.188,243.625 L712.188,243.625 " fill="#FEFFDD" style="stroke:#181818;stroke-width:0.5;"/><path d="M816.188,243.625 L816.188,253.625 L826.188,253.625 L816.188,243.625 " fill="#FEFFDD" style="stroke:#181818;stroke-width:0.5;"/><text fill="#000000" font-family="sans-serif" font-size="13" lengthAdjust="spacing" textLength="81.6499" x="718.188" y="262.1201">Min 3 Zeichen</text><text fill="#000000" font-family="sans-serif" font-size="13" lengthAdjust="spacing" textLength="92.4917" x="718.188" y="278.4717">Max 50 Zeichen</text><text fill="#000000" font-family="sans-serif" font-size="13" lengthAdjust="spacing" textLength="93.2153" x="718.188" y="294.8232">Alphanumerisch</text><polygon fill="#181818" points="764.1309,326.0313,774.1309,330.0313,764.1309,334.0313,768.1309,330.0313" style="stroke:#181818;stroke-width:1.0;"/><line style="stroke:#181818;stroke-width:1.0;" x1="579.3691" x2="770.1309" y1="330.0313" y2="330.0313"/><text fill="#000000" font-family="sans-serif" font-size="13" lengthAdjust="spacing" textLength="162.5635" x="596.4683" y="325.1748">findByUsername(username)</text><polygon fill="#181818" points="924.6563,372.7344,934.6563,376.7344,924.6563,380.7344,928.6563,376.7344" style="stroke:#181818;stroke-width:1.0;"/><line style="stroke:#181818;stroke-width:1.0;" x1="776.1309" x2="930.6563" y1="376.7344" y2="376.7344"/><text fill="#000000" font-family="sans-serif" font-size="13" lengthAdjust="spacing" textLength="136.5254" x="788.1309" y="355.5264">SELECT * FROM users</text><text fill="#000000" font-family="sans-serif" font-size="13" lengthAdjust="spacing" textLength="131.8535" x="790.4668" y="371.8779">WHERE username = ?</text><polygon fill="#181818" points="787.1309,403.0859,777.1309,407.0859,787.1309,411.0859,783.1309,407.0859" style="stroke:#181818;stroke-width:1.0;"/><line style="stroke:#181818;stroke-width:1.0;stroke-dasharray:2.0,2.0;" x1="781.1309" x2="935.6563" y1="407.0859" y2="407.0859"/><text fill="#000000" font-family="sans-serif" font-size="13" lengthAdjust="spacing" textLength="80.9263" x="815.9304" y="402.2295">User oder null</text><path d="M10,422.0859 L70.1709,422.0859 L70.1709,430.4375 L60.1709,440.4375 L10,440.4375 L10,422.0859 " fill="#EEEEEE" style="stroke:#000000;stroke-width:1.5;"/><rect fill="none" height="615.3516" style="stroke:#000000;stroke-width:1.5;" width="1018.8379" x="10" y="422.0859"/><text fill="#000000" font-family="sans-serif" font-size="13" font-weight="bold" lengthAdjust="spacing" textLength="15.1709" x="25" y="436.5811">alt</text><text fill="#000000" font-family="sans-serif" font-size="11" font-weight="bold" lengthAdjust="spacing" textLength="136.27" x="85.1709" y="435.5049">[Benutzer nicht gefunden]</text><polygon fill="#181818" points="590.3691,458.7891,580.3691,462.7891,590.3691,466.7891,586.3691,462.7891" style="stroke:#181818;stroke-width:1.0;"/><line style="stroke:#181818;stroke-width:1.0;stroke-dasharray:2.0,2.0;" x1="584.3691" x2="775.1309" y1="462.7891" y2="462.7891"/><text fill="#000000" font-family="sans-serif" font-size="13" lengthAdjust="spacing" textLength="96.0908" x="629.7046" y="457.9326">Optional.empty()</text><polygon fill="#181818" points="391.5635,489.1406,381.5635,493.1406,391.5635,497.1406,387.5635,493.1406" style="stroke:#181818;stroke-width:1.0;"/><line style="stroke:#181818;stroke-width:1.0;stroke-dasharray:2.0,2.0;" x1="385.5635" x2="578.3691" y1="493.1406" y2="493.1406"/><text fill="#000000" font-family="sans-serif" font-size="13" lengthAdjust="spacing" textLength="147.418" x="406.2573" y="488.2842">IllegalArgumentException</text><polygon fill="#181818" points="228.9751,519.4922,218.9751,523.4922,228.9751,527.4922,224.9751,523.4922" style="stroke:#181818;stroke-width:1.0;"/><line style="stroke:#181818;stroke-width:1.0;stroke-dasharray:2.0,2.0;" x1="222.9751" x2="379.5635" y1="523.4922" y2="523.4922"/><text fill="#000000" font-family="sans-serif" font-size="13" lengthAdjust="spacing" textLength="138.5884" x="229.9751" y="518.6357">400 "Invalid credentials"</text><polygon fill="#181818" points="72.0171,549.8438,62.0171,553.8438,72.0171,557.8438,68.0171,553.8438" style="stroke:#181818;stroke-width:1.0;"/><line style="stroke:#181818;stroke-width:1.0;stroke-dasharray:2.0,2.0;" x1="66.0171" x2="216.9751" y1="553.8438" y2="553.8438"/><text fill="#000000" font-family="sans-serif" font-size="13" lengthAdjust="spacing" textLength="86.7153" x="96.1384" y="548.9873">Fehlermeldung</text><line style="stroke:#000000;stroke-width:1.0;stroke-dasharray:2.0,2.0;" x1="10" x2="1028.8379" y1="562.8438" y2="562.8438"/><text fill="#000000" font-family="sans-serif" font-size="11" font-weight="bold" lengthAdjust="spacing" textLength="106.9385" x="15" y="574.2627">[Benutzer gefunden]</text><polygon fill="#181818" points="590.3691,596.0313,580.3691,600.0313,590.3691,604.0313,586.3691,600.0313" style="stroke:#181818;stroke-width:1.0;"/><line style="stroke:#181818;stroke-width:1.0;stroke-dasharray:2.0,2.0;" x1="584.3691" x2="775.1309" y1="600.0313" y2="600.0313"/><text fill="#000000" font-family="sans-serif" font-size="13" lengthAdjust="spacing" textLength="91.0508" x="632.2246" y="595.1748">Optional&lt;User&gt;</text><line style="stroke:#181818;stroke-width:1.0;" x1="579.3691" x2="621.3691" y1="643.2344" y2="643.2344"/><line style="stroke:#181818;stroke-width:1.0;" x1="621.3691" x2="621.3691" y1="643.2344" y2="656.2344"/><line style="stroke:#181818;stroke-width:1.0;" x1="580.3691" x2="621.3691" y1="656.2344" y2="656.2344"/><polygon fill="#181818" points="590.3691,652.2344,580.3691,656.2344,590.3691,660.2344,586.3691,656.2344" style="stroke:#181818;stroke-width:1.0;"/><text fill="#000000" font-family="sans-serif" font-size="13" lengthAdjust="spacing" textLength="182.7617" x="586.3691" y="638.3779">PasswordUtils.verifyPassword()</text><path d="M780.7617,613.0313 L780.7617,672.0313 L1012.7617,672.0313 L1012.7617,623.0313 L1002.7617,613.0313 L780.7617,613.0313 " fill="#FEFFDD" style="stroke:#181818;stroke-width:0.5;"/><path d="M1002.7617,613.0313 L1002.7617,623.0313 L1012.7617,623.0313 L1002.7617,613.0313 " fill="#FEFFDD" style="stroke:#181818;stroke-width:0.5;"/><text fill="#000000" font-family="sans-serif" font-size="13" lengthAdjust="spacing" textLength="211.707" x="786.7617" y="631.5264">1. Hash = SHA-256(password + salt)</text><text fill="#000000" font-family="sans-serif" font-size="13" lengthAdjust="spacing" textLength="119.2598" x="786.7617" y="647.8779">2. 10.000 Iterationen</text><text fill="#000000" font-family="sans-serif" font-size="13" lengthAdjust="spacing" textLength="145.939" x="786.7617" y="664.2295">3. Vergleich mit DB-Hash</text><path d="M20,684.0859 L80.1709,684.0859 L80.1709,692.4375 L70.1709,702.4375 L20,702.4375 L20,684.0859 " fill="#EEEEEE" style="stroke:#000000;stroke-width:1.5;"/><rect fill="none" height="346.3516" style="stroke:#000000;stroke-width:1.5;" width="614.1104" x="20" y="684.0859"/><text fill="#000000" font-family="sans-serif" font-size="13" font-weight="bold" lengthAdjust="spacing" textLength="15.1709" x="35" y="698.5811">alt</text><text fill="#000000" font-family="sans-serif" font-size="11" font-weight="bold" lengthAdjust="spacing" textLength="91.083" x="95.1709" y="697.5049">[Passwort falsch]</text><polygon fill="#181818" points="391.5635,720.7891,381.5635,724.7891,391.5635,728.7891,387.5635,724.7891" style="stroke:#181818;stroke-width:1.0;"/><line style="stroke:#181818;stroke-width:1.0;stroke-dasharray:2.0,2.0;" x1="385.5635" x2="578.3691" y1="724.7891" y2="724.7891"/><text fill="#000000" font-family="sans-serif" font-size="13" lengthAdjust="spacing" textLength="147.418" x="406.2573" y="719.9326">IllegalArgumentException</text><polygon fill="#181818" points="228.9751,751.1406,218.9751,755.1406,228.9751,759.1406,224.9751,755.1406" style="stroke:#181818;stroke-width:1.0;"/><line style="stroke:#181818;stroke-width:1.0;stroke-dasharray:2.0,2.0;" x1="222.9751" x2="379.5635" y1="755.1406" y2="755.1406"/><text fill="#000000" font-family="sans-serif" font-size="13" lengthAdjust="spacing" textLength="138.5884" x="229.9751" y="750.2842">400 "Invalid credentials"</text><polygon fill="#181818" points="72.0171,781.4922,62.0171,785.4922,72.0171,789.4922,68.0171,785.4922" style="stroke:#181818;stroke-width:1.0;"/><line style="stroke:#181818;stroke-width:1.0;stroke-dasharray:2.0,2.0;" x1="66.0171" x2="216.9751" y1="785.4922" y2="785.4922"/><text fill="#000000" font-family="sans-serif" font-size="13" lengthAdjust="spacing" textLength="86.7153" x="96.1384" y="780.6357">Fehlermeldung</text><line style="stroke:#000000;stroke-width:1.0;stroke-dasharray:2.0,2.0;" x1="20" x2="634.1104" y1="794.4922" y2="794.4922"/><text fill="#000000" font-family="sans-serif" font-size="11" font-weight="bold" lengthAdjust="spacing" textLength="96.5884" x="25" y="805.9111">[Passwort korrekt]</text><polygon fill="#181818" points="391.5635,827.6797,381.5635,831.6797,391.5635,835.6797,387.5635,831.6797" style="stroke:#181818;stroke-width:1.0;"/><line style="stroke:#181818;stroke-width:1.0;stroke-dasharray:2.0,2.0;" x1="385.5635" x2="578.3691" y1="831.6797" y2="831.6797"/><text fill="#000000" font-family="sans-serif" font-size="13" lengthAdjust="spacing" textLength="27.4473" x="466.2427" y="826.8232">User</text><line style="stroke:#181818;stroke-width:1.0;" x1="380.5635" x2="422.5635" y1="862.0313" y2="862.0313"/><line style="stroke:#181818;stroke-width:1.0;" x1="422.5635" x2="422.5635" y1="862.0313" y2="875.0313"/><line style="stroke:#181818;stroke-width:1.0;" x1="381.5635" x2="422.5635" y1="875.0313" y2="875.0313"/><polygon fill="#181818" points="391.5635,871.0313,381.5635,875.0313,391.5635,879.0313,387.5635,875.0313" style="stroke:#181818;stroke-width:1.0;"/><text fill="#000000" font-family="sans-serif" font-size="13" lengthAdjust="spacing" textLength="184.8057" x="387.5635" y="857.1748">session.setAttribute("userId", id)</text><line style="stroke:#181818;stroke-width:1.0;" x1="380.5635" x2="422.5635" y1="905.3828" y2="905.3828"/><line style="stroke:#181818;stroke-width:1.0;" x1="422.5635" x2="422.5635" y1="905.3828" y2="918.3828"/><line style="stroke:#181818;stroke-width:1.0;" x1="381.5635" x2="422.5635" y1="918.3828" y2="918.3828"/><polygon fill="#181818" points="391.5635,914.3828,381.5635,918.3828,391.5635,922.3828,387.5635,918.3828" style="stroke:#181818;stroke-width:1.0;"/><text fill="#000000" font-family="sans-serif" font-size="13" lengthAdjust="spacing" textLength="181.9111" x="387.5635" y="900.5264">session.setAttribute("role", role)</text><polygon fill="#181818" points="228.9751,944.7344,218.9751,948.7344,228.9751,952.7344,224.9751,948.7344" style="stroke:#181818;stroke-width:1.0;"/><line style="stroke:#181818;stroke-width:1.0;stroke-dasharray:2.0,2.0;" x1="222.9751" x2="379.5635" y1="948.7344" y2="948.7344"/><text fill="#000000" font-family="sans-serif" font-size="13" lengthAdjust="spacing" textLength="138.0361" x="230.2512" y="943.8779">200 {id, username, role}</text><line style="stroke:#181818;stroke-width:1.0;" x1="217.9751" x2="259.9751" y1="979.0859" y2="979.0859"/><line style="stroke:#181818;stroke-width:1.0;" x1="259.9751" x2="259.9751" y1="979.0859" y2="992.0859"/><line style="stroke:#181818;stroke-width:1.0;" x1="218.9751" x2="259.9751" y1="992.0859" y2="992.0859"/><polygon fill="#181818" points="228.9751,988.0859,218.9751,992.0859,228.9751,996.0859,224.9751,992.0859" style="stroke:#181818;stroke-width:1.0;"/><text fill="#000000" font-family="sans-serif" font-size="13" lengthAdjust="spacing" textLength="144.5044" x="224.9751" y="974.2295">sessionStorage.setItem()</text><polygon fill="#181818" points="72.0171,1018.4375,62.0171,1022.4375,72.0171,1026.4375,68.0171,1022.4375" style="stroke:#181818;stroke-width:1.0;"/><line style="stroke:#181818;stroke-width:1.0;stroke-dasharray:2.0,2.0;" x1="66.0171" x2="216.9751" y1="1022.4375" y2="1022.4375"/><text fill="#000000" font-family="sans-serif" font-size="13" lengthAdjust="spacing" textLength="132.958" x="73.0171" y="1017.5811">Redirect zu Dashboard</text><!--SRC=[bPHjJzim4CVV-rESyghPw0CmzW9jJ2rjHH4L7Q6RDF76JOx4mh4ps-5HVFUTJTAksX2YKbibzxlp_-vlsmad4HByNQDwp0JF3IzBwCAPpeNgJgM-OypU25Ln2e0DN8fpj9RdE9GYLv2YScZ-eWpQIYlRKYEaAaDZz1quKoDZF7NQG3H2LRj7D15m2qjB9IZTYLHKN3c8faPJNPLTgSvfikYV9d40fvDjR5Yx8a5pAz65k7_-Fo5IV26IxRXVUiprYumnoxZZAsuHeeMsBZUOV3yBiV68CSz2zuXKm24S6yoeTy6b1HGgnnKgHX6A-pM9M9mdbz3dbUXpUj6NVgXNwgccAegNk0CLj_PEc-oPiP3YKnDA36JdNoucBbbJjrmAael1h9cgQjU9cT8EmOYyS4JCXO9z-8KYBP1MdlDxE1XideUoAhYgIpJ2faLRUpccp6kXij73ib6mbX8pYX8p7X6JJCucnvVm0QONvtFmYBrIFqyc5nDeUVWAtnZ1tRPkcA3Ew4VLKj9ca0xQdG2AT3d8yRfMD5a6zF7BjVsULqvenMKFoyezKAyUy9et4vz9YJcNGvDJLyfDxbCCIIze675htwV10AAP2aE4TEDb55ZlezVivHx250k9faIPrIfdA6bxh4M_AVUBBt8Kmcl53R9eV5qw8MtlbdouVcZVDVrj_0oF0BizEE6seCac9yFkti7dJhixu2DOccVSW7izs1tq1jJcZ0uezs8QbG3xFVY19fT-9q0f71dQzLL3c4vTM7OZsRlKw79mJKDAYwRGkmnuhmbl6H74UZFMscwqCNZZNX4NRfbj8UkOfTkATFOikg5pHgngXvt8x-DP5ks0oEBtPHejaVByN_nAytlK_9F8Tc1pq3t-lDLxmpQB97Hrqftgro9JoqxyofmkC1C6KmUFDOp9rvNc9clDPVxx1m00]--></g></svg>