<svg xmlns="http://www.w3.org/2000/svg" xmlns:xlink="http://www.w3.org/1999/xlink" contentStyleType="text/css" height="2139px" preserveAspectRatio="none" style="width:1656px;height:2139px;background:#FFFFFF;" version="1.1" viewBox="0 0 1656 2139" width="1656px" zoomAndPan="magnify"><title>Sequenzdiagramm - Passwort-Reset (Admin-basiert, Ist-Implementierung)</title><defs/><g><text fill="#000000" font-family="sans-serif" font-size="14" font-weight="bold" lengthAdjust="spacing" textLength="490.8682" x="578.7515" y="29.5332">Sequenzdiagramm - Passwort-Reset (Admin-basiert, Ist-Implementierung)</text><rect fill="none" height="449.8125" style="stroke:#000000;stroke-width:1.5;" width="1578.3711" x="61" y="397.3828"/><rect fill="none" height="807.0859" style="stroke:#000000;stroke-width:1.5;" width="1514.1094" x="125.2617" y="1181.0625"/><line style="stroke:#181818;stroke-width:0.5;stroke-dasharray:5.0,5.0;" x1="98" x2="98" y1="121.2188" y2="2057.8516"/><line style="stroke:#181818;stroke-width:0.5;stroke-dasharray:5.0,5.0;" x1="179.2617" x2="179.2617" y1="121.2188" y2="2057.8516"/><line style="stroke:#181818;stroke-width:0.5;stroke-dasharray:5.0,5.0;" x1="355.2388" x2="355.2388" y1="121.2188" y2="2057.8516"/><line style="stroke:#181818;stroke-width:0.5;stroke-dasharray:5.0,5.0;" x1="548.1523" x2="548.1523" y1="121.2188" y2="2057.8516"/><line style="stroke:#181818;stroke-width:0.5;stroke-dasharray:5.0,5.0;" x1="772.4624" x2="772.4624" y1="121.2188" y2="2057.8516"/><line style="stroke:#181818;stroke-width:0.5;stroke-dasharray:5.0,5.0;" x1="1042.2563" x2="1042.2563" y1="121.2188" y2="2057.8516"/><line style="stroke:#181818;stroke-width:0.5;stroke-dasharray:5.0,5.0;" x1="1284.1201" x2="1284.1201" y1="121.2188" y2="2057.8516"/><line style="stroke:#181818;stroke-width:0.5;stroke-dasharray:5.0,5.0;" x1="1485.4199" x2="1485.4199" y1="121.2188" y2="2057.8516"/><line style="stroke:#181818;stroke-width:0.5;stroke-dasharray:5.0,5.0;" x1="1588.1094" x2="1588.1094" y1="121.2188" y2="2057.8516"/><text fill="#000000" font-family="sans-serif" font-size="14" lengthAdjust="spacing" textLength="48.2617" x="71" y="118.1426">Student</text><ellipse cx="98.1309" cy="52.1094" fill="#E2E2F0" rx="8" ry="8" style="stroke:#181818;stroke-width:0.5;"/><path d="M98.1309,60.1094 L98.1309,87.1094 M85.1309,68.1094 L111.1309,68.1094 M98.1309,87.1094 L85.1309,102.1094 M98.1309,87.1094 L111.1309,102.1094 " fill="none" style="stroke:#181818;stroke-width:0.5;"/><text fill="#000000" font-family="sans-serif" font-size="14" lengthAdjust="spacing" textLength="48.2617" x="71" y="2071.3848">Student</text><ellipse cx="98.1309" cy="2082.9609" fill="#E2E2F0" rx="8" ry="8" style="stroke:#181818;stroke-width:0.5;"/><path d="M98.1309,2090.9609 L98.1309,2117.9609 M85.1309,2098.9609 L111.1309,2098.9609 M98.1309,2117.9609 L85.1309,2132.9609 M98.1309,2117.9609 L111.1309,2132.9609 " fill="none" style="stroke:#181818;stroke-width:0.5;"/><text fill="#000000" font-family="sans-serif" font-size="14" lengthAdjust="spacing" textLength="82.4688" x="135.2617" y="118.1426">Administrator</text><ellipse cx="179.4961" cy="52.1094" fill="#E2E2F0" rx="8" ry="8" style="stroke:#181818;stroke-width:0.5;"/><path d="M179.4961,60.1094 L179.4961,87.1094 M166.4961,68.1094 L192.4961,68.1094 M179.4961,87.1094 L166.4961,102.1094 M179.4961,87.1094 L192.4961,102.1094 " fill="none" style="stroke:#181818;stroke-width:0.5;"/><text fill="#000000" font-family="sans-serif" font-size="14" lengthAdjust="spacing" textLength="82.4688" x="135.2617" y="2071.3848">Administrator</text><ellipse cx="179.4961" cy="2082.9609" fill="#E2E2F0" rx="8" ry="8" style="stroke:#181818;stroke-width:0.5;"/><path d="M179.4961,2090.9609 L179.4961,2117.9609 M166.4961,2098.9609 L192.4961,2098.9609 M179.4961,2117.9609 L166.4961,2132.9609 M179.4961,2117.9609 L192.4961,2132.9609 " fill="none" style="stroke:#181818;stroke-width:0.5;"/><rect fill="#E2E2F0" height="31.6094" rx="2.5" ry="2.5" style="stroke:#181818;stroke-width:0.5;" width="70.0342" x="320.2388" y="88.6094"/><text fill="#000000" font-family="sans-serif" font-size="14" lengthAdjust="spacing" textLength="56.0342" x="327.2388" y="110.1426">Frontend</text><rect fill="#E2E2F0" height="31.6094" rx="2.5" ry="2.5" style="stroke:#181818;stroke-width:0.5;" width="70.0342" x="320.2388" y="2056.8516"/><text fill="#000000" font-family="sans-serif" font-size="14" lengthAdjust="spacing" textLength="56.0342" x="327.2388" y="2078.3848">Frontend</text><rect fill="#E2E2F0" height="31.6094" rx="2.5" ry="2.5" style="stroke:#181818;stroke-width:0.5;" width="86.3721" x="505.1523" y="88.6094"/><text fill="#000000" font-family="sans-serif" font-size="14" lengthAdjust="spacing" textLength="72.3721" x="512.1523" y="110.1426">AuthServlet</text><rect fill="#E2E2F0" height="31.6094" rx="2.5" ry="2.5" style="stroke:#181818;stroke-width:0.5;" width="86.3721" x="505.1523" y="2056.8516"/><text fill="#000000" font-family="sans-serif" font-size="14" lengthAdjust="spacing" textLength="72.3721" x="512.1523" y="2078.3848">AuthServlet</text><rect fill="#E2E2F0" height="31.6094" rx="2.5" ry="2.5" style="stroke:#181818;stroke-width:0.5;" width="89.4824" x="728.4624" y="88.6094"/><text fill="#000000" font-family="sans-serif" font-size="14" lengthAdjust="spacing" textLength="75.4824" x="735.4624" y="110.1426">AuthService</text><rect fill="#E2E2F0" height="31.6094" rx="2.5" ry="2.5" style="stroke:#181818;stroke-width:0.5;" width="89.4824" x="728.4624" y="2056.8516"/><text fill="#000000" font-family="sans-serif" font-size="14" lengthAdjust="spacing" textLength="75.4824" x="735.4624" y="2078.3848">AuthService</text><rect fill="#E2E2F0" height="31.6094" rx="2.5" ry="2.5" style="stroke:#181818;stroke-width:0.5;" width="69.2412" x="1008.2563" y="88.6094"/><text fill="#000000" font-family="sans-serif" font-size="14" lengthAdjust="spacing" textLength="55.2412" x="1015.2563" y="110.1426">UserDao</text><rect fill="#E2E2F0" height="31.6094" rx="2.5" ry="2.5" style="stroke:#181818;stroke-width:0.5;" width="69.2412" x="1008.2563" y="2056.8516"/><text fill="#000000" font-family="sans-serif" font-size="14" lengthAdjust="spacing" textLength="55.2412" x="1015.2563" y="2078.3848">UserDao</text><rect fill="#E2E2F0" height="31.6094" rx="2.5" ry="2.5" style="stroke:#181818;stroke-width:0.5;" width="97.2549" x="1236.1201" y="88.6094"/><text fill="#000000" font-family="sans-serif" font-size="14" lengthAdjust="spacing" textLength="83.2549" x="1243.1201" y="110.1426">AdminServlet</text><rect fill="#E2E2F0" height="31.6094" rx="2.5" ry="2.5" style="stroke:#181818;stroke-width:0.5;" width="97.2549" x="1236.1201" y="2056.8516"/><text fill="#000000" font-family="sans-serif" font-size="14" lengthAdjust="spacing" textLength="83.2549" x="1243.1201" y="2078.3848">AdminServlet</text><rect fill="#E2E2F0" height="31.6094" rx="2.5" ry="2.5" style="stroke:#181818;stroke-width:0.5;" width="102.6895" x="1434.4199" y="88.6094"/><text fill="#000000" font-family="sans-serif" font-size="14" lengthAdjust="spacing" textLength="88.6895" x="1441.4199" y="110.1426">PasswordUtils</text><rect fill="#E2E2F0" height="31.6094" rx="2.5" ry="2.5" style="stroke:#181818;stroke-width:0.5;" width="102.6895" x="1434.4199" y="2056.8516"/><text fill="#000000" font-family="sans-serif" font-size="14" lengthAdjust="spacing" textLength="88.6895" x="1441.4199" y="2078.3848">PasswordUtils</text><text fill="#000000" font-family="sans-serif" font-size="14" lengthAdjust="spacing" textLength="76.2617" x="1547.1094" y="118.1426">PostgreSQL</text><path d="M1570.2402,67.6094 C1570.2402,57.6094 1588.2402,57.6094 1588.2402,57.6094 C1588.2402,57.6094 1606.2402,57.6094 1606.2402,67.6094 L1606.2402,93.6094 C1606.2402,103.6094 1588.2402,103.6094 1588.2402,103.6094 C1588.2402,103.6094 1570.2402,103.6094 1570.2402,93.6094 L1570.2402,67.6094 " fill="#E2E2F0" style="stroke:#181818;stroke-width:1.5;"/><path d="M1570.2402,67.6094 C1570.2402,77.6094 1588.2402,77.6094 1588.2402,77.6094 C1588.2402,77.6094 1606.2402,77.6094 1606.2402,67.6094 " fill="none" style="stroke:#181818;stroke-width:1.5;"/><text fill="#000000" font-family="sans-serif" font-size="14" lengthAdjust="spacing" textLength="76.2617" x="1547.1094" y="2071.3848">PostgreSQL</text><path d="M1570.2402,2084.4609 C1570.2402,2074.4609 1588.2402,2074.4609 1588.2402,2074.4609 C1588.2402,2074.4609 1606.2402,2074.4609 1606.2402,2084.4609 L1606.2402,2110.4609 C1606.2402,2120.4609 1588.2402,2120.4609 1588.2402,2120.4609 C1588.2402,2120.4609 1570.2402,2120.4609 1570.2402,2110.4609 L1570.2402,2084.4609 " fill="#E2E2F0" style="stroke:#181818;stroke-width:1.5;"/><path d="M1570.2402,2084.4609 C1570.2402,2094.4609 1588.2402,2094.4609 1588.2402,2094.4609 C1588.2402,2094.4609 1606.2402,2094.4609 1606.2402,2084.4609 " fill="none" style="stroke:#181818;stroke-width:1.5;"/><rect fill="#EEEEEE" height="3" style="stroke:#EEEEEE;stroke-width:1.0;" width="1649.3711" x="0" y="152.3945"/><line style="stroke:#000000;stroke-width:1.0;" x1="0" x2="1649.3711" y1="152.3945" y2="152.3945"/><line style="stroke:#000000;stroke-width:1.0;" x1="0" x2="1649.3711" y1="155.3945" y2="155.3945"/><rect fill="#EEEEEE" height="24.3516" style="stroke:#000000;stroke-width:2.0;" width="252.3672" x="698.502" y="141.2188"/><text fill="#000000" font-family="sans-serif" font-size="13" font-weight="bold" lengthAdjust="spacing" textLength="234.7554" x="704.502" y="158.7139">Schritt 1: Student stellt Reset-Anfrage</text><polygon fill="#181818" points="343.2559,193.9219,353.2559,197.9219,343.2559,201.9219,347.2559,197.9219" style="stroke:#181818;stroke-width:1.0;"/><line style="stroke:#181818;stroke-width:1.0;" x1="98.1309" x2="349.2559" y1="197.9219" y2="197.9219"/><text fill="#000000" font-family="sans-serif" font-size="13" lengthAdjust="spacing" textLength="169.6284" x="141.8792" y="193.0654">"Passwort vergessen" klicken</text><polygon fill="#181818" points="536.3384,240.625,546.3384,244.625,536.3384,248.625,540.3384,244.625" style="stroke:#181818;stroke-width:1.0;"/><line style="stroke:#181818;stroke-width:1.0;" x1="355.2559" x2="542.3384" y1="244.625" y2="244.625"/><text fill="#000000" font-family="sans-serif" font-size="13" lengthAdjust="spacing" textLength="169.0825" x="367.2559" y="223.417">POST /api/auth/reset-request</text><text fill="#000000" font-family="sans-serif" font-size="13" lengthAdjust="spacing" textLength="66.4917" x="418.5513" y="239.7686">{username}</text><polygon fill="#181818" points="761.2036,270.9766,771.2036,274.9766,761.2036,278.9766,765.2036,274.9766" style="stroke:#181818;stroke-width:1.0;"/><line style="stroke:#181818;stroke-width:1.0;" x1="548.3384" x2="767.2036" y1="274.9766" y2="274.9766"/><text fill="#000000" font-family="sans-serif" font-size="13" lengthAdjust="spacing" textLength="200.8652" x="560.3384" y="270.1201">requestPasswordReset(username)</text><polygon fill="#181818" points="1030.877,301.3281,1040.877,305.3281,1030.877,309.3281,1034.877,305.3281" style="stroke:#181818;stroke-width:1.0;"/><line style="stroke:#181818;stroke-width:1.0;" x1="773.2036" x2="1036.877" y1="305.3281" y2="305.3281"/><text fill="#000000" font-family="sans-serif" font-size="13" lengthAdjust="spacing" textLength="162.5635" x="826.7585" y="300.4717">findByUsername(username)</text><polygon fill="#181818" points="1576.2402,348.0313,1586.2402,352.0313,1576.2402,356.0313,1580.2402,352.0313" style="stroke:#181818;stroke-width:1.0;"/><line style="stroke:#181818;stroke-width:1.0;" x1="1042.877" x2="1582.2402" y1="352.0313" y2="352.0313"/><text fill="#000000" font-family="sans-serif" font-size="13" lengthAdjust="spacing" textLength="136.5254" x="1247.2959" y="330.8232">SELECT * FROM users</text><text fill="#000000" font-family="sans-serif" font-size="13" lengthAdjust="spacing" textLength="131.8535" x="1249.6318" y="347.1748">WHERE username = ?</text><polygon fill="#181818" points="1053.877,378.3828,1043.877,382.3828,1053.877,386.3828,1049.877,382.3828" style="stroke:#181818;stroke-width:1.0;"/><line style="stroke:#181818;stroke-width:1.0;stroke-dasharray:2.0,2.0;" x1="1047.877" x2="1587.2402" y1="382.3828" y2="382.3828"/><text fill="#000000" font-family="sans-serif" font-size="13" lengthAdjust="spacing" textLength="89.6099" x="1270.7537" y="377.5264">User oder none</text><path d="M61,397.3828 L121.1709,397.3828 L121.1709,405.7344 L111.1709,415.7344 L61,415.7344 L61,397.3828 " fill="#EEEEEE" style="stroke:#000000;stroke-width:1.5;"/><rect fill="none" height="449.8125" style="stroke:#000000;stroke-width:1.5;" width="1578.3711" x="61" y="397.3828"/><text fill="#000000" font-family="sans-serif" font-size="13" font-weight="bold" lengthAdjust="spacing" textLength="15.1709" x="76" y="411.8779">alt</text><text fill="#000000" font-family="sans-serif" font-size="11" font-weight="bold" lengthAdjust="spacing" textLength="113.6685" x="136.1709" y="410.8018">[User nicht gefunden]</text><polygon fill="#181818" points="784.2036,434.0859,774.2036,438.0859,784.2036,442.0859,780.2036,438.0859" style="stroke:#181818;stroke-width:1.0;"/><line style="stroke:#181818;stroke-width:1.0;stroke-dasharray:2.0,2.0;" x1="778.2036" x2="1041.877" y1="438.0859" y2="438.0859"/><text fill="#000000" font-family="sans-serif" font-size="13" lengthAdjust="spacing" textLength="96.0908" x="859.9949" y="433.2295">Optional.empty()</text><polygon fill="#181818" points="559.3384,480.7891,549.3384,484.7891,559.3384,488.7891,555.3384,484.7891" style="stroke:#181818;stroke-width:1.0;"/><line style="stroke:#181818;stroke-width:1.0;stroke-dasharray:2.0,2.0;" x1="553.3384" x2="772.2036" y1="484.7891" y2="484.7891"/><text fill="#000000" font-family="sans-serif" font-size="13" lengthAdjust="spacing" textLength="147.418" x="587.062" y="463.5811">IllegalArgumentException</text><text fill="#000000" font-family="sans-serif" font-size="13" lengthAdjust="spacing" textLength="94.5039" x="613.519" y="479.9326">"User not found"</text><polygon fill="#181818" points="366.2559,527.4922,356.2559,531.4922,366.2559,535.4922,362.2559,531.4922" style="stroke:#181818;stroke-width:1.0;"/><line style="stroke:#181818;stroke-width:1.0;stroke-dasharray:2.0,2.0;" x1="360.2559" x2="547.3384" y1="531.4922" y2="531.4922"/><text fill="#000000" font-family="sans-serif" font-size="13" lengthAdjust="spacing" textLength="59.2427" x="422.1758" y="510.2842">HTTP 400</text><text fill="#000000" font-family="sans-serif" font-size="13" lengthAdjust="spacing" textLength="137.8584" x="382.8679" y="526.6357">{error: "User not found"}</text><polygon fill="#181818" points="109.1309,557.8438,99.1309,561.8438,109.1309,565.8438,105.1309,561.8438" style="stroke:#181818;stroke-width:1.0;"/><line style="stroke:#181818;stroke-width:1.0;stroke-dasharray:2.0,2.0;" x1="103.1309" x2="354.2559" y1="561.8438" y2="561.8438"/><text fill="#000000" font-family="sans-serif" font-size="13" lengthAdjust="spacing" textLength="86.7153" x="183.3357" y="556.9873">Fehlermeldung</text><line style="stroke:#000000;stroke-width:1.0;stroke-dasharray:2.0,2.0;" x1="61" x2="1639.3711" y1="570.8438" y2="570.8438"/><text fill="#000000" font-family="sans-serif" font-size="11" font-weight="bold" lengthAdjust="spacing" textLength="84.3369" x="66" y="582.2627">[User gefunden]</text><polygon fill="#181818" points="784.2036,604.0313,774.2036,608.0313,784.2036,612.0313,780.2036,608.0313" style="stroke:#181818;stroke-width:1.0;"/><line style="stroke:#181818;stroke-width:1.0;stroke-dasharray:2.0,2.0;" x1="778.2036" x2="1041.877" y1="608.0313" y2="608.0313"/><text fill="#000000" font-family="sans-serif" font-size="13" lengthAdjust="spacing" textLength="91.0508" x="862.5149" y="603.1748">Optional&lt;User&gt;</text><polygon fill="#181818" points="1030.877,634.3828,1040.877,638.3828,1030.877,642.3828,1034.877,638.3828" style="stroke:#181818;stroke-width:1.0;"/><line style="stroke:#181818;stroke-width:1.0;" x1="773.2036" x2="1036.877" y1="638.3828" y2="638.3828"/><text fill="#000000" font-family="sans-serif" font-size="13" lengthAdjust="spacing" textLength="245.6733" x="785.2036" y="633.5264">setPasswordResetRequested(userId, true)</text><polygon fill="#181818" points="1576.2402,697.4375,1586.2402,701.4375,1576.2402,705.4375,1580.2402,701.4375" style="stroke:#181818;stroke-width:1.0;"/><line style="stroke:#181818;stroke-width:1.0;" x1="1042.877" x2="1582.2402" y1="701.4375" y2="701.4375"/><text fill="#000000" font-family="sans-serif" font-size="13" lengthAdjust="spacing" textLength="88.1309" x="1271.4932" y="663.8779">UPDATE users</text><text fill="#000000" font-family="sans-serif" font-size="13" lengthAdjust="spacing" textLength="160.0625" x="1235.5273" y="680.2295">SET reset_requested = true</text><text fill="#000000" font-family="sans-serif" font-size="13" lengthAdjust="spacing" textLength="84.1636" x="1273.4768" y="696.5811">WHERE id = ?</text><polygon fill="#181818" points="1053.877,727.7891,1043.877,731.7891,1053.877,735.7891,1049.877,731.7891" style="stroke:#181818;stroke-width:1.0;"/><line style="stroke:#181818;stroke-width:1.0;stroke-dasharray:2.0,2.0;" x1="1047.877" x2="1587.2402" y1="731.7891" y2="731.7891"/><text fill="#000000" font-family="sans-serif" font-size="13" lengthAdjust="spacing" textLength="18.7827" x="1306.1672" y="726.9326">OK</text><polygon fill="#181818" points="559.3384,758.1406,549.3384,762.1406,559.3384,766.1406,555.3384,762.1406" style="stroke:#181818;stroke-width:1.0;"/><line style="stroke:#181818;stroke-width:1.0;stroke-dasharray:2.0,2.0;" x1="553.3384" x2="772.2036" y1="762.1406" y2="762.1406"/><text fill="#000000" font-family="sans-serif" font-size="13" lengthAdjust="spacing" textLength="13.73" x="653.906" y="757.2842">ok</text><polygon fill="#181818" points="366.2559,804.8438,356.2559,808.8438,366.2559,812.8438,362.2559,808.8438" style="stroke:#181818;stroke-width:1.0;"/><line style="stroke:#181818;stroke-width:1.0;stroke-dasharray:2.0,2.0;" x1="360.2559" x2="547.3384" y1="808.8438" y2="808.8438"/><text fill="#000000" font-family="sans-serif" font-size="13" lengthAdjust="spacing" textLength="59.2427" x="422.1758" y="787.6357">HTTP 200</text><text fill="#000000" font-family="sans-serif" font-size="13" lengthAdjust="spacing" textLength="73.5503" x="415.022" y="803.9873">{status: "ok"}</text><polygon fill="#181818" points="109.1309,835.1953,99.1309,839.1953,109.1309,843.1953,105.1309,839.1953" style="stroke:#181818;stroke-width:1.0;"/><line style="stroke:#181818;stroke-width:1.0;stroke-dasharray:2.0,2.0;" x1="103.1309" x2="354.2559" y1="839.1953" y2="839.1953"/><text fill="#000000" font-family="sans-serif" font-size="13" lengthAdjust="spacing" textLength="68.6626" x="192.3621" y="834.3389">Best&#228;tigung</text><rect fill="#EEEEEE" height="3" style="stroke:#EEEEEE;stroke-width:1.0;" width="1649.3711" x="0" y="875.3711"/><line style="stroke:#000000;stroke-width:1.0;" x1="0" x2="1649.3711" y1="875.3711" y2="875.3711"/><line style="stroke:#000000;stroke-width:1.0;" x1="0" x2="1649.3711" y1="878.3711" y2="878.3711"/><rect fill="#EEEEEE" height="24.3516" style="stroke:#000000;stroke-width:2.0;" width="284.1563" x="682.6074" y="864.1953"/><text fill="#000000" font-family="sans-serif" font-size="13" font-weight="bold" lengthAdjust="spacing" textLength="266.5444" x="688.6074" y="881.6904">Schritt 2: Admin bearbeitet Reset-Anfragen</text><polygon fill="#181818" points="343.2559,916.8984,353.2559,920.8984,343.2559,924.8984,347.2559,920.8984" style="stroke:#181818;stroke-width:1.0;"/><line style="stroke:#181818;stroke-width:1.0;" x1="179.4961" x2="349.2559" y1="920.8984" y2="920.8984"/><text fill="#000000" font-family="sans-serif" font-size="13" lengthAdjust="spacing" textLength="114.1816" x="210.2852" y="916.042">Admin-Panel &#246;ffnen</text><polygon fill="#181818" points="1272.7476,947.25,1282.7476,951.25,1272.7476,955.25,1276.7476,951.25" style="stroke:#181818;stroke-width:1.0;"/><line style="stroke:#181818;stroke-width:1.0;" x1="355.2559" x2="1278.7476" y1="951.25" y2="951.25"/><text fill="#000000" font-family="sans-serif" font-size="13" lengthAdjust="spacing" textLength="179.188" x="730.4077" y="946.3936">GET /api/admin/users/requests</text><polygon fill="#181818" points="1053.877,977.6016,1043.877,981.6016,1053.877,985.6016,1049.877,981.6016" style="stroke:#181818;stroke-width:1.0;"/><line style="stroke:#181818;stroke-width:1.0;" x1="1047.877" x2="1283.7476" y1="981.6016" y2="981.6016"/><text fill="#000000" font-family="sans-serif" font-size="13" lengthAdjust="spacing" textLength="175.5762" x="1076.0242" y="976.7451">findPasswordResetRequests()</text><polygon fill="#181818" points="1576.2402,1024.3047,1586.2402,1028.3047,1576.2402,1032.3047,1580.2402,1028.3047" style="stroke:#181818;stroke-width:1.0;"/><line style="stroke:#181818;stroke-width:1.0;" x1="1042.877" x2="1582.2402" y1="1028.3047" y2="1028.3047"/><text fill="#000000" font-family="sans-serif" font-size="13" lengthAdjust="spacing" textLength="136.5254" x="1247.2959" y="1007.0967">SELECT * FROM users</text><text fill="#000000" font-family="sans-serif" font-size="13" lengthAdjust="spacing" textLength="183.168" x="1223.9746" y="1023.4482">WHERE reset_requested = true</text><polygon fill="#181818" points="1053.877,1054.6563,1043.877,1058.6563,1053.877,1062.6563,1049.877,1058.6563" style="stroke:#181818;stroke-width:1.0;"/><line style="stroke:#181818;stroke-width:1.0;stroke-dasharray:2.0,2.0;" x1="1047.877" x2="1587.2402" y1="1058.6563" y2="1058.6563"/><text fill="#000000" font-family="sans-serif" font-size="13" lengthAdjust="spacing" textLength="62.8608" x="1284.1282" y="1053.7998">List&lt;User&gt;</text><polygon fill="#181818" points="1272.7476,1085.0078,1282.7476,1089.0078,1272.7476,1093.0078,1276.7476,1089.0078" style="stroke:#181818;stroke-width:1.0;"/><line style="stroke:#181818;stroke-width:1.0;stroke-dasharray:2.0,2.0;" x1="1042.877" x2="1278.7476" y1="1089.0078" y2="1089.0078"/><text fill="#000000" font-family="sans-serif" font-size="13" lengthAdjust="spacing" textLength="62.8608" x="1132.3818" y="1084.1514">List&lt;User&gt;</text><polygon fill="#181818" points="366.2559,1131.7109,356.2559,1135.7109,366.2559,1139.7109,362.2559,1135.7109" style="stroke:#181818;stroke-width:1.0;"/><line style="stroke:#181818;stroke-width:1.0;stroke-dasharray:2.0,2.0;" x1="360.2559" x2="1283.7476" y1="1135.7109" y2="1135.7109"/><text fill="#000000" font-family="sans-serif" font-size="13" lengthAdjust="spacing" textLength="59.2427" x="790.3804" y="1114.5029">HTTP 200</text><text fill="#000000" font-family="sans-serif" font-size="13" lengthAdjust="spacing" textLength="246.4033" x="696.8" y="1130.8545">JSON [{id, username, resetRequested, ...}]</text><polygon fill="#181818" points="190.4961,1162.0625,180.4961,1166.0625,190.4961,1170.0625,186.4961,1166.0625" style="stroke:#181818;stroke-width:1.0;"/><line style="stroke:#181818;stroke-width:1.0;stroke-dasharray:2.0,2.0;" x1="184.4961" x2="354.2559" y1="1166.0625" y2="1166.0625"/><text fill="#000000" font-family="sans-serif" font-size="13" lengthAdjust="spacing" textLength="83.8398" x="225.4561" y="1161.2061">Liste anzeigen</text><path d="M125.2617,1181.0625 L185.4326,1181.0625 L185.4326,1189.4141 L175.4326,1199.4141 L125.2617,1199.4141 L125.2617,1181.0625 " fill="#EEEEEE" style="stroke:#000000;stroke-width:1.5;"/><rect fill="none" height="807.0859" style="stroke:#000000;stroke-width:1.5;" width="1514.1094" x="125.2617" y="1181.0625"/><text fill="#000000" font-family="sans-serif" font-size="13" font-weight="bold" lengthAdjust="spacing" textLength="15.1709" x="140.2617" y="1195.5576">alt</text><text fill="#000000" font-family="sans-serif" font-size="11" font-weight="bold" lengthAdjust="spacing" textLength="203.5107" x="200.4326" y="1194.4814">[Admin genehmigt und setzt Passwort]</text><polygon fill="#181818" points="343.2559,1217.7656,353.2559,1221.7656,343.2559,1225.7656,347.2559,1221.7656" style="stroke:#181818;stroke-width:1.0;"/><line style="stroke:#181818;stroke-width:1.0;" x1="179.4961" x2="349.2559" y1="1221.7656" y2="1221.7656"/><text fill="#000000" font-family="sans-serif" font-size="13" lengthAdjust="spacing" textLength="151.7598" x="191.4961" y="1216.9092">Neues Passwort eingeben</text><polygon fill="#181818" points="1272.7476,1264.4688,1282.7476,1268.4688,1272.7476,1272.4688,1276.7476,1268.4688" style="stroke:#181818;stroke-width:1.0;"/><line style="stroke:#181818;stroke-width:1.0;" x1="355.2559" x2="1278.7476" y1="1268.4688" y2="1268.4688"/><text fill="#000000" font-family="sans-serif" font-size="13" lengthAdjust="spacing" textLength="124.9917" x="757.5059" y="1247.2607">PUT /api/admin/users</text><text fill="#000000" font-family="sans-serif" font-size="13" lengthAdjust="spacing" textLength="203.0488" x="718.4773" y="1263.6123">{id, password, resetComplete: true}</text><polygon fill="#181818" points="1053.877,1294.8203,1043.877,1298.8203,1053.877,1302.8203,1049.877,1298.8203" style="stroke:#181818;stroke-width:1.0;"/><line style="stroke:#181818;stroke-width:1.0;" x1="1047.877" x2="1283.7476" y1="1298.8203" y2="1298.8203"/><text fill="#000000" font-family="sans-serif" font-size="13" lengthAdjust="spacing" textLength="65.749" x="1130.9377" y="1293.9639">findById(id)</text><polygon fill="#181818" points="1576.2402,1341.5234,1586.2402,1345.5234,1576.2402,1349.5234,1580.2402,1345.5234" style="stroke:#181818;stroke-width:1.0;"/><line style="stroke:#181818;stroke-width:1.0;" x1="1042.877" x2="1582.2402" y1="1345.5234" y2="1345.5234"/><text fill="#000000" font-family="sans-serif" font-size="13" lengthAdjust="spacing" textLength="136.5254" x="1247.2959" y="1324.3154">SELECT * FROM users</text><text fill="#000000" font-family="sans-serif" font-size="13" lengthAdjust="spacing" textLength="84.1636" x="1273.4768" y="1340.667">WHERE id = ?</text><polygon fill="#181818" points="1053.877,1371.875,1043.877,1375.875,1053.877,1379.875,1049.877,1375.875" style="stroke:#181818;stroke-width:1.0;"/><line style="stroke:#181818;stroke-width:1.0;stroke-dasharray:2.0,2.0;" x1="1047.877" x2="1587.2402" y1="1375.875" y2="1375.875"/><text fill="#000000" font-family="sans-serif" font-size="13" lengthAdjust="spacing" textLength="27.4473" x="1301.835" y="1371.0186">User</text><polygon fill="#181818" points="1272.7476,1402.2266,1282.7476,1406.2266,1272.7476,1410.2266,1276.7476,1406.2266" style="stroke:#181818;stroke-width:1.0;"/><line style="stroke:#181818;stroke-width:1.0;stroke-dasharray:2.0,2.0;" x1="1042.877" x2="1278.7476" y1="1406.2266" y2="1406.2266"/><text fill="#000000" font-family="sans-serif" font-size="13" lengthAdjust="spacing" textLength="27.4473" x="1150.0886" y="1401.3701">User</text><polygon fill="#181818" points="1473.7646,1432.5781,1483.7646,1436.5781,1473.7646,1440.5781,1477.7646,1436.5781" style="stroke:#181818;stroke-width:1.0;"/><line style="stroke:#181818;stroke-width:1.0;" x1="1284.7476" x2="1479.7646" y1="1436.5781" y2="1436.5781"/><text fill="#000000" font-family="sans-serif" font-size="13" lengthAdjust="spacing" textLength="105.498" x="1332.5071" y="1431.7217">generateSaltHex()</text><polygon fill="#181818" points="1295.7476,1462.9297,1285.7476,1466.9297,1295.7476,1470.9297,1291.7476,1466.9297" style="stroke:#181818;stroke-width:1.0;"/><line style="stroke:#181818;stroke-width:1.0;stroke-dasharray:2.0,2.0;" x1="1289.7476" x2="1484.7646" y1="1466.9297" y2="1466.9297"/><text fill="#000000" font-family="sans-serif" font-size="13" lengthAdjust="spacing" textLength="20.23" x="1375.1411" y="1462.0732">salt</text><polygon fill="#181818" points="1473.7646,1493.2813,1483.7646,1497.2813,1473.7646,1501.2813,1477.7646,1497.2813" style="stroke:#181818;stroke-width:1.0;"/><line style="stroke:#181818;stroke-width:1.0;" x1="1284.7476" x2="1479.7646" y1="1497.2813" y2="1497.2813"/><text fill="#000000" font-family="sans-serif" font-size="13" lengthAdjust="spacing" textLength="177.0171" x="1296.7476" y="1492.4248">hashPassword(password, salt)</text><polygon fill="#181818" points="1295.7476,1523.6328,1285.7476,1527.6328,1295.7476,1531.6328,1291.7476,1527.6328" style="stroke:#181818;stroke-width:1.0;"/><line style="stroke:#181818;stroke-width:1.0;stroke-dasharray:2.0,2.0;" x1="1289.7476" x2="1484.7646" y1="1527.6328" y2="1527.6328"/><text fill="#000000" font-family="sans-serif" font-size="13" lengthAdjust="spacing" textLength="28.1899" x="1371.1611" y="1522.7764">hash</text><polygon fill="#181818" points="1053.877,1570.3359,1043.877,1574.3359,1053.877,1578.3359,1049.877,1574.3359" style="stroke:#181818;stroke-width:1.0;"/><line style="stroke:#181818;stroke-width:1.0;" x1="1047.877" x2="1283.7476" y1="1574.3359" y2="1574.3359"/><text fill="#000000" font-family="sans-serif" font-size="13" lengthAdjust="spacing" textLength="73.709" x="1126.9578" y="1553.1279">update(user)</text><text fill="#000000" font-family="sans-serif" font-size="13" lengthAdjust="spacing" textLength="217.8706" x="1054.877" y="1569.4795">(set hash/salt, reset_requested=false)</text><polygon fill="#181818" points="1576.2402,1649.7422,1586.2402,1653.7422,1576.2402,1657.7422,1580.2402,1653.7422" style="stroke:#181818;stroke-width:1.0;"/><line style="stroke:#181818;stroke-width:1.0;" x1="1042.877" x2="1582.2402" y1="1653.7422" y2="1653.7422"/><text fill="#000000" font-family="sans-serif" font-size="13" lengthAdjust="spacing" textLength="88.1309" x="1271.4932" y="1599.8311">UPDATE users</text><text fill="#000000" font-family="sans-serif" font-size="13" lengthAdjust="spacing" textLength="243.5278" x="1193.7947" y="1616.1826">SET password_hash=?, password_salt=?,</text><text fill="#000000" font-family="sans-serif" font-size="13" lengthAdjust="spacing" textLength="129.0034" x="1258.2805" y="1632.5342">reset_requested=false</text><text fill="#000000" font-family="sans-serif" font-size="13" lengthAdjust="spacing" textLength="84.1636" x="1273.4768" y="1648.8857">WHERE id = ?</text><polygon fill="#181818" points="1053.877,1680.0938,1043.877,1684.0938,1053.877,1688.0938,1049.877,1684.0938" style="stroke:#181818;stroke-width:1.0;"/><line style="stroke:#181818;stroke-width:1.0;stroke-dasharray:2.0,2.0;" x1="1047.877" x2="1587.2402" y1="1684.0938" y2="1684.0938"/><text fill="#000000" font-family="sans-serif" font-size="13" lengthAdjust="spacing" textLength="18.7827" x="1306.1672" y="1679.2373">OK</text><polygon fill="#181818" points="366.2559,1726.7969,356.2559,1730.7969,366.2559,1734.7969,362.2559,1730.7969" style="stroke:#181818;stroke-width:1.0;"/><line style="stroke:#181818;stroke-width:1.0;stroke-dasharray:2.0,2.0;" x1="360.2559" x2="1283.7476" y1="1730.7969" y2="1730.7969"/><text fill="#000000" font-family="sans-serif" font-size="13" lengthAdjust="spacing" textLength="59.2427" x="790.3804" y="1709.5889">HTTP 200</text><text fill="#000000" font-family="sans-serif" font-size="13" lengthAdjust="spacing" textLength="73.5503" x="783.2266" y="1725.9404">{status: "ok"}</text><line style="stroke:#000000;stroke-width:1.0;stroke-dasharray:2.0,2.0;" x1="125.2617" x2="1639.3711" y1="1739.7969" y2="1739.7969"/><text fill="#000000" font-family="sans-serif" font-size="11" font-weight="bold" lengthAdjust="spacing" textLength="185.1738" x="130.2617" y="1751.2158">[Admin lehnt ab (schlie&#223;t Request)]</text><polygon fill="#181818" points="1272.7476,1789.3359,1282.7476,1793.3359,1272.7476,1797.3359,1276.7476,1793.3359" style="stroke:#181818;stroke-width:1.0;"/><line style="stroke:#181818;stroke-width:1.0;" x1="355.2559" x2="1278.7476" y1="1793.3359" y2="1793.3359"/><text fill="#000000" font-family="sans-serif" font-size="13" lengthAdjust="spacing" textLength="124.9917" x="757.5059" y="1772.1279">PUT /api/admin/users</text><text fill="#000000" font-family="sans-serif" font-size="13" lengthAdjust="spacing" textLength="140.188" x="749.9077" y="1788.4795">{id, resetComplete: true}</text><polygon fill="#181818" points="1053.877,1836.0391,1043.877,1840.0391,1053.877,1844.0391,1049.877,1840.0391" style="stroke:#181818;stroke-width:1.0;"/><line style="stroke:#181818;stroke-width:1.0;" x1="1047.877" x2="1283.7476" y1="1840.0391" y2="1840.0391"/><text fill="#000000" font-family="sans-serif" font-size="13" lengthAdjust="spacing" textLength="73.709" x="1126.9578" y="1818.8311">update(user)</text><text fill="#000000" font-family="sans-serif" font-size="13" lengthAdjust="spacing" textLength="137.6616" x="1094.9814" y="1835.1826">(reset_requested=false)</text><polygon fill="#181818" points="1576.2402,1899.0938,1586.2402,1903.0938,1576.2402,1907.0938,1580.2402,1903.0938" style="stroke:#181818;stroke-width:1.0;"/><line style="stroke:#181818;stroke-width:1.0;" x1="1042.877" x2="1582.2402" y1="1903.0938" y2="1903.0938"/><text fill="#000000" font-family="sans-serif" font-size="13" lengthAdjust="spacing" textLength="88.1309" x="1271.4932" y="1865.5342">UPDATE users</text><text fill="#000000" font-family="sans-serif" font-size="13" lengthAdjust="spacing" textLength="157.8979" x="1236.6096" y="1881.8857">SET reset_requested=false</text><text fill="#000000" font-family="sans-serif" font-size="13" lengthAdjust="spacing" textLength="84.1636" x="1273.4768" y="1898.2373">WHERE id = ?</text><polygon fill="#181818" points="1053.877,1929.4453,1043.877,1933.4453,1053.877,1937.4453,1049.877,1933.4453" style="stroke:#181818;stroke-width:1.0;"/><line style="stroke:#181818;stroke-width:1.0;stroke-dasharray:2.0,2.0;" x1="1047.877" x2="1587.2402" y1="1933.4453" y2="1933.4453"/><text fill="#000000" font-family="sans-serif" font-size="13" lengthAdjust="spacing" textLength="18.7827" x="1306.1672" y="1928.5889">OK</text><polygon fill="#181818" points="366.2559,1976.1484,356.2559,1980.1484,366.2559,1984.1484,362.2559,1980.1484" style="stroke:#181818;stroke-width:1.0;"/><line style="stroke:#181818;stroke-width:1.0;stroke-dasharray:2.0,2.0;" x1="360.2559" x2="1283.7476" y1="1980.1484" y2="1980.1484"/><text fill="#000000" font-family="sans-serif" font-size="13" lengthAdjust="spacing" textLength="59.2427" x="790.3804" y="1958.9404">HTTP 200</text><text fill="#000000" font-family="sans-serif" font-size="13" lengthAdjust="spacing" textLength="73.5503" x="783.2266" y="1975.292">{status: "ok"}</text><path d="M5,2000.1484 L5,2042.1484 L274,2042.1484 L274,2010.1484 L264,2000.1484 L5,2000.1484 " fill="#FEFFDD" style="stroke:#181818;stroke-width:0.5;"/><path d="M264,2000.1484 L264,2010.1484 L274,2010.1484 L264,2000.1484 " fill="#FEFFDD" style="stroke:#181818;stroke-width:0.5;"/><text fill="#000000" font-family="sans-serif" font-size="13" font-weight="bold" lengthAdjust="spacing" textLength="137.23" x="11" y="2018.6436">Keine Email-Funktion:</text><text fill="#000000" font-family="sans-serif" font-size="13" lengthAdjust="spacing" textLength="248.5552" x="11" y="2034.9951">Admin teilt das neue Passwort manuell mit.</text><!--SRC=[lLRDSjis4BxpANPqaZJwIJCzQQ9af9YgrJYHQahJGzNnmEIAmWW4LG2COsVyBBtq6Ve2Vh4kG58c9IMssvdge271RtU1xziV66u4Ge1_P2Zl8ivYnP84kZ1dMj-aodGlKQE1vYXAkEnUCyrHcGvCjUbEavt01AMXfKp6BS_JMovtZ3o0TWv3_8XQinX7WiSIGiAYgg0KwbqgTOaQeqXlHagbDs1KXfx7GfCgQ0GcYyYq0Kn3yLn-SjlYsYX6hmxWLZpoRtZ8TqmQQ4nKIe5bvBvF_Fh7KMOs0QhF0lC0bVVJG1vY3KZlTU1IepfZgGCLpmUUx1PhCIiBTMWXGxGqN6Y7hQru4JECH452fjh42eDVBXpiREnvmo44uKPnO-27GSaSQ8D2672wTaTohOXv60uzhmHqtn99CDW7D_0PLKmIeMp0Ll1mYz8Z1E4gP971V1OieCzslCzelQzS16KpGPkL_9eH5v8bUEzvLRkA6wAIt1GMvK7THfkbSSkhWicsO9Zirbn6uzjb0QnOb112duq96FWN_li5j65oEVi85gTNyjTp_zA7qWY6yCuZSBSMmJv16j6VJANDJ-BHhKaURWp4kCuaKUW1_VP1ZyutsncUIYPwcEpCRRFbuBLJ7J4x5G9Z9aOgpcp1-Lz2T4vMif77JmsiKmhUg3bpz9PodYyMS_ZnrIjI0gd6r00ERU-TiLMMRCfi6C04Dm9LWYAYAlTGKBOvmnSUzus5l3q-R9LWKhec-sMU2XWvDQTHnpM6LZrYeUfoVZPQ-AMSWRy0bu1NglH1cbhhKceUEP6jgoEXPn-U8KgwVOBiruviRPZ9DB6TRh_5y9Zsz_2NuR4ZM4QrqdqzoFi3N2DJryWD7XIlTDMROyhuURkUCua27lvUh-LZoLPw3G5_yikIjUjznrw_e4mNNYkLMg-sKrhfveiAxhH6nwLtGKs-oA1QgjLFKq7LTtwioy_1x1FyzfLJJfL5tybtiq-w3lHwlVlVlKAldE4y20AJTyY9_BmBvD_e5JS9ZmrGOTXalZFxGPhdIasaJqXnzW10BcEyBkhff5ZpvR5Ob67s3Bj2Yk8CxrCxd0qE79tKSVVHlodc-7OQDNbqkhY-e-3twiW-7RU7-g4SvkJ-QgEEa9PU6lGO4EFd-ANed7NKYG2QuC_ols5wKwur7mcrziyCPJqynNMsew6TZwVMIZRjxSgQzMsOpc4z3DUC-krp6rwvvolhSFZkCIkkh7DQM4dhw6ICbxJ59qhheEMvYP5dli0DDJns3KqTRWJ7XpzjBtFxQFshj3-Px2_Y_pyH_dypQKS3pMk4bAvakNLdVoMs3jlj3zH64Fo4ST6TP79hX- -WtQwq7uESEbP4bqH93UYn_oHCPdGrX8IRdWrbRmRe_GC0]--></g></svg>