<svg xmlns="http://www.w3.org/2000/svg" xmlns:xlink="http://www.w3.org/1999/xlink" contentStyleType="text/css" height="2464px" preserveAspectRatio="none" style="width:703px;height:2464px;background:#FFFFFF;" version="1.1" viewBox="0 0 703 2464" width="703px" zoomAndPan="magnify"><title>Activity-Diagramm - Projekt Wissenstest</title><defs/><g><text fill="#000000" font-family="sans-serif" font-size="14" font-weight="bold" lengthAdjust="spacing" textLength="269.1924" x="215.6748" y="34.5332">Activity-Diagramm - Projekt Wissenstest</text><rect fill="none" height="545.3594" style="stroke:#000000;stroke-width:1.5;" width="346.1289" x="45.0195" y="49.6094"/><path d="M223.8877,49.6094 L223.8877,60.2188 L213.8877,70.2188 L45.0195,70.2188 " fill="none" style="stroke:#000000;stroke-width:1.5;"/><text fill="#000000" font-family="sans-serif" font-size="14" lengthAdjust="spacing" textLength="168.8682" x="48.0195" y="65.1426">Student Test-Durchf&#252;hrung</text><ellipse cx="218.084" cy="90.2188" fill="#222222" rx="10" ry="10" style="stroke:#222222;stroke-width:1.0;"/><rect fill="#F1F1F1" height="35.0938" rx="12.5" ry="12.5" style="stroke:#181818;stroke-width:0.5;" width="107.3867" x="164.3906" y="120.2188"/><text fill="#000000" font-family="sans-serif" font-size="12" lengthAdjust="spacing" textLength="87.3867" x="174.3906" y="142.6758">Startseite &#246;ffnen</text><rect fill="#F1F1F1" height="35.0938" rx="12.5" ry="12.5" style="stroke:#181818;stroke-width:0.5;" width="196.0918" x="120.0381" y="175.3125"/><text fill="#000000" font-family="sans-serif" font-size="12" lengthAdjust="spacing" textLength="176.0918" x="130.0381" y="197.7695">Anmelden (POST /api/auth/login)</text><rect fill="#F1F1F1" height="35.0938" rx="12.5" ry="12.5" style="stroke:#181818;stroke-width:0.5;" width="199.3848" x="118.3916" y="230.4063"/><text fill="#000000" font-family="sans-serif" font-size="12" lengthAdjust="spacing" textLength="179.3848" x="128.3916" y="252.8633">Test starten (POST /api/test/start)</text><rect fill="#F1F1F1" height="35.0938" rx="12.5" ry="12.5" style="stroke:#181818;stroke-width:0.5;" width="158.7324" x="138.7178" y="285.5"/><text fill="#000000" font-family="sans-serif" font-size="12" lengthAdjust="spacing" textLength="138.7324" x="148.7178" y="307.957">Fragen als JSON erhalten</text><rect fill="#F1F1F1" height="35.0938" rx="12.5" ry="12.5" style="stroke:#181818;stroke-width:0.5;" width="326.1289" x="55.0195" y="340.5938"/><text fill="#000000" font-family="sans-serif" font-size="12" lengthAdjust="spacing" textLength="306.1289" x="65.0195" y="363.0508">Antworten client-seitig sammeln (kein Request pro Frage)</text><rect fill="#F1F1F1" height="35.0938" rx="12.5" ry="12.5" style="stroke:#181818;stroke-width:0.5;" width="221.4219" x="107.373" y="395.6875"/><text fill="#000000" font-family="sans-serif" font-size="12" lengthAdjust="spacing" textLength="201.4219" x="117.373" y="418.1445">Test abgeben (POST /api/test/submit)</text><rect fill="#F1F1F1" height="35.0938" rx="12.5" ry="12.5" style="stroke:#181818;stroke-width:0.5;" width="264.7871" x="85.6904" y="450.7813"/><text fill="#000000" font-family="sans-serif" font-size="12" lengthAdjust="spacing" textLength="244.7871" x="95.6904" y="473.2383">AttemptResult (Punkte/Note/Details) anzeigen</text><rect fill="#F1F1F1" height="35.0938" rx="12.5" ry="12.5" style="stroke:#181818;stroke-width:0.5;" width="56.7031" x="189.7324" y="505.875"/><text fill="#000000" font-family="sans-serif" font-size="12" lengthAdjust="spacing" textLength="36.7031" x="199.7324" y="528.332">Logout</text><ellipse cx="218.084" cy="571.9688" fill="none" rx="11" ry="11" style="stroke:#222222;stroke-width:1.0;"/><ellipse cx="218.084" cy="571.9688" fill="#222222" rx="6" ry="6" style="stroke:#222222;stroke-width:1.0;"/><rect fill="none" height="545.3594" style="stroke:#000000;stroke-width:1.5;" width="414.168" x="11" y="604.9688"/><path d="M183.6338,604.9688 L183.6338,615.5781 L173.6338,625.5781 L11,625.5781 " fill="none" style="stroke:#000000;stroke-width:1.5;"/><text fill="#000000" font-family="sans-serif" font-size="14" lengthAdjust="spacing" textLength="162.6338" x="14" y="620.502">Admin Fragen-Verwaltung</text><ellipse cx="218.084" cy="645.5781" fill="#222222" rx="10" ry="10" style="stroke:#222222;stroke-width:1.0;"/><rect fill="#F1F1F1" height="35.0938" rx="12.5" ry="12.5" style="stroke:#181818;stroke-width:0.5;" width="159.4063" x="138.3809" y="675.5781"/><text fill="#000000" font-family="sans-serif" font-size="12" lengthAdjust="spacing" textLength="139.4063" x="148.3809" y="698.0352">Admin &#246;ffnet Admin-Panel</text><rect fill="#F1F1F1" height="35.0938" rx="12.5" ry="12.5" style="stroke:#181818;stroke-width:0.5;" width="196.0918" x="120.0381" y="730.6719"/><text fill="#000000" font-family="sans-serif" font-size="12" lengthAdjust="spacing" textLength="176.0918" x="130.0381" y="753.1289">Anmelden (POST /api/auth/login)</text><rect fill="#F1F1F1" height="35.0938" rx="12.5" ry="12.5" style="stroke:#181818;stroke-width:0.5;" width="201.7578" x="117.2051" y="785.7656"/><text fill="#000000" font-family="sans-serif" font-size="12" lengthAdjust="spacing" textLength="181.7578" x="127.2051" y="808.2227">Rolle pr&#252;fen (Session role=admin)</text><rect fill="#F1F1F1" height="35.0938" rx="12.5" ry="12.5" style="stroke:#181818;stroke-width:0.5;" width="394.168" x="21" y="840.8594"/><text fill="#000000" font-family="sans-serif" font-size="12" lengthAdjust="spacing" textLength="374.168" x="31" y="863.3164">Fragen laden/&#228;ndern (GET/POST/PUT/DELETE /api/admin/questions)</text><rect fill="#F1F1F1" height="35.0938" rx="12.5" ry="12.5" style="stroke:#181818;stroke-width:0.5;" width="363.4473" x="36.3604" y="895.9531"/><text fill="#000000" font-family="sans-serif" font-size="12" lengthAdjust="spacing" textLength="343.4473" x="46.3604" y="918.4102">Benutzer verwalten (GET/POST/PUT/DELETE /api/admin/users)</text><rect fill="#F1F1F1" height="35.0938" rx="12.5" ry="12.5" style="stroke:#181818;stroke-width:0.5;" width="320.1289" x="58.0195" y="951.0469"/><text fill="#000000" font-family="sans-serif" font-size="12" lengthAdjust="spacing" textLength="300.1289" x="68.0195" y="973.5039">Reset-Requests pr&#252;fen (GET /api/admin/users/requests)</text><rect fill="#F1F1F1" height="35.0938" rx="12.5" ry="12.5" style="stroke:#181818;stroke-width:0.5;" width="226.0742" x="105.0469" y="1006.1406"/><text fill="#000000" font-family="sans-serif" font-size="12" lengthAdjust="spacing" textLength="206.0742" x="115.0469" y="1028.5977">Optional - Stats (GET /api/admin/stats)</text><rect fill="#F1F1F1" height="35.0938" rx="12.5" ry="12.5" style="stroke:#181818;stroke-width:0.5;" width="56.7031" x="189.7324" y="1061.2344"/><text fill="#000000" font-family="sans-serif" font-size="12" lengthAdjust="spacing" textLength="36.7031" x="199.7324" y="1083.6914">Logout</text><ellipse cx="218.084" cy="1127.3281" fill="none" rx="11" ry="11" style="stroke:#222222;stroke-width:1.0;"/><ellipse cx="218.084" cy="1127.3281" fill="#222222" rx="6" ry="6" style="stroke:#222222;stroke-width:1.0;"/><rect fill="none" height="214.7969" style="stroke:#000000;stroke-width:1.5;" width="252.7656" x="91.7012" y="1160.3281"/><path d="M247.2109,1160.3281 L247.2109,1170.9375 L237.2109,1180.9375 L91.7012,1180.9375 " fill="none" style="stroke:#000000;stroke-width:1.5;"/><text fill="#000000" font-family="sans-serif" font-size="14" lengthAdjust="spacing" textLength="145.5098" x="94.7012" y="1175.8613">Authentifizierungs-Flow</text><ellipse cx="218.084" cy="1200.9375" fill="#222222" rx="10" ry="10" style="stroke:#222222;stroke-width:1.0;"/><rect fill="#F1F1F1" height="35.0938" rx="12.5" ry="12.5" style="stroke:#181818;stroke-width:0.5;" width="171.418" x="132.375" y="1230.9375"/><text fill="#000000" font-family="sans-serif" font-size="12" lengthAdjust="spacing" textLength="151.418" x="142.375" y="1253.3945">Login (POST /api/auth/login)</text><rect fill="#F1F1F1" height="35.0938" rx="12.5" ry="12.5" style="stroke:#181818;stroke-width:0.5;" width="232.7656" x="101.7012" y="1286.0313"/><text fill="#000000" font-family="sans-serif" font-size="12" lengthAdjust="spacing" textLength="212.7656" x="111.7012" y="1308.4883">Session setzen (userId, username, role)</text><ellipse cx="218.084" cy="1352.125" fill="none" rx="11" ry="11" style="stroke:#222222;stroke-width:1.0;"/><ellipse cx="218.084" cy="1352.125" fill="#222222" rx="6" ry="6" style="stroke:#222222;stroke-width:1.0;"/><rect fill="none" height="324.9844" style="stroke:#000000;stroke-width:1.5;" width="344.1191" x="46.0244" y="1385.125"/><path d="M189.0518,1385.125 L189.0518,1395.7344 L179.0518,1405.7344 L46.0244,1405.7344 " fill="none" style="stroke:#000000;stroke-width:1.5;"/><text fill="#000000" font-family="sans-serif" font-size="14" lengthAdjust="spacing" textLength="133.0273" x="49.0244" y="1400.6582">Passwort-Reset-Flow</text><ellipse cx="218.084" cy="1425.7344" fill="#222222" rx="10" ry="10" style="stroke:#222222;stroke-width:1.0;"/><rect fill="#F1F1F1" height="35.0938" rx="12.5" ry="12.5" style="stroke:#181818;stroke-width:0.5;" width="324.1191" x="56.0244" y="1455.7344"/><text fill="#000000" font-family="sans-serif" font-size="12" lengthAdjust="spacing" textLength="304.1191" x="66.0244" y="1478.1914">User stellt Reset-Request (POST /api/auth/reset-request)</text><rect fill="#F1F1F1" height="35.0938" rx="12.5" ry="12.5" style="stroke:#181818;stroke-width:0.5;" width="313.4551" x="61.3564" y="1510.8281"/><text fill="#000000" font-family="sans-serif" font-size="12" lengthAdjust="spacing" textLength="293.4551" x="71.3564" y="1533.2852">Admin sieht Requests (GET /api/admin/users/requests)</text><rect fill="#F1F1F1" height="35.0938" rx="12.5" ry="12.5" style="stroke:#181818;stroke-width:0.5;" width="298.1035" x="69.0322" y="1565.9219"/><text fill="#000000" font-family="sans-serif" font-size="12" lengthAdjust="spacing" textLength="278.1035" x="79.0322" y="1588.3789">Admin setzt neues Passwort (PUT /api/admin/users)</text><rect fill="#F1F1F1" height="35.0938" rx="12.5" ry="12.5" style="stroke:#181818;stroke-width:0.5;" width="207.4238" x="114.3721" y="1621.0156"/><text fill="#000000" font-family="sans-serif" font-size="12" lengthAdjust="spacing" textLength="187.4238" x="124.3721" y="1643.4727">resetRequested wird zur&#252;ckgesetzt</text><ellipse cx="218.084" cy="1687.1094" fill="none" rx="11" ry="11" style="stroke:#222222;stroke-width:1.0;"/><ellipse cx="218.084" cy="1687.1094" fill="#222222" rx="6" ry="6" style="stroke:#222222;stroke-width:1.0;"/><rect fill="none" height="733.3203" style="stroke:#000000;stroke-width:1.5;" width="611.8623" x="80.6797" y="1720.1094"/><path d="M194.9414,1720.1094 L194.9414,1730.7188 L184.9414,1740.7188 L80.6797,1740.7188 " fill="none" style="stroke:#000000;stroke-width:1.5;"/><text fill="#000000" font-family="sans-serif" font-size="14" lengthAdjust="spacing" textLength="104.2617" x="83.6797" y="1735.6426">Lernmodus-Flow</text><ellipse cx="218.084" cy="1760.7188" fill="#222222" rx="10" ry="10" style="stroke:#222222;stroke-width:1.0;"/><rect fill="#F1F1F1" height="35.0938" rx="12.5" ry="12.5" style="stroke:#181818;stroke-width:0.5;" width="154.7363" x="140.7158" y="1790.7188"/><text fill="#000000" font-family="sans-serif" font-size="12" lengthAdjust="spacing" textLength="134.7363" x="150.7158" y="1813.1758">Student klickt Lernmodus</text><rect fill="#F1F1F1" height="35.0938" rx="12.5" ry="12.5" style="stroke:#181818;stroke-width:0.5;" width="160.0684" x="138.0498" y="1845.8125"/><text fill="#000000" font-family="sans-serif" font-size="12" lengthAdjust="spacing" textLength="140.0684" x="148.0498" y="1868.2695">GET /api/test/questions/all</text><rect fill="#F1F1F1" height="35.0938" rx="12.5" ry="12.5" style="stroke:#181818;stroke-width:0.5;" width="254.8086" x="90.6797" y="1900.9063"/><text fill="#000000" font-family="sans-serif" font-size="12" lengthAdjust="spacing" textLength="234.8086" x="100.6797" y="1923.3633">Backend filtert questions.meta.learnEnabled</text><rect fill="#F1F1F1" height="35.0938" rx="12.5" ry="12.5" style="stroke:#181818;stroke-width:0.5;" width="204.4473" x="115.8604" y="1956"/><text fill="#000000" font-family="sans-serif" font-size="12" lengthAdjust="spacing" textLength="184.4473" x="125.8604" y="1978.457">LearnCards (Frage+L&#246;sung) laden</text><rect fill="#F1F1F1" height="35.0938" rx="12.5" ry="12.5" style="stroke:#181818;stroke-width:0.5;" width="208.7598" x="113.7041" y="2055.0938"/><text fill="#000000" font-family="sans-serif" font-size="12" lengthAdjust="spacing" textLength="188.7598" x="123.7041" y="2077.5508">Frage/Antwort anzeigen (read-only)</text><rect fill="#F1F1F1" height="35.0938" rx="12.5" ry="12.5" style="stroke:#181818;stroke-width:0.5;" width="186.0371" x="125.0654" y="2117.6875"/><text fill="#000000" font-family="sans-serif" font-size="12" lengthAdjust="spacing" textLength="166.0371" x="135.0654" y="2140.1445">Client-seitiger Fortschritt (lokal)</text><polygon fill="#F1F1F1" points="218.084,2011.0938,230.084,2023.0938,218.084,2035.0938,206.084,2023.0938,218.084,2011.0938" style="stroke:#181818;stroke-width:0.5;"/><polygon fill="#F1F1F1" points="184.7617,2172.7813,251.4063,2172.7813,263.4063,2184.7813,251.4063,2196.7813,184.7617,2196.7813,172.7617,2184.7813,184.7617,2172.7813" style="stroke:#181818;stroke-width:0.5;"/><text fill="#000000" font-family="sans-serif" font-size="11" lengthAdjust="spacing" textLength="66.6445" x="184.7617" y="2189.2822">Mehr Karten?</text><text fill="#000000" font-family="sans-serif" font-size="11" lengthAdjust="spacing" textLength="11.6177" x="263.4063" y="2182.3643">Ja</text><rect fill="#F1F1F1" height="35.0938" rx="12.5" ry="12.5" style="stroke:#181818;stroke-width:0.5;" width="130.0859" x="153.041" y="2216.7813"/><text fill="#000000" font-family="sans-serif" font-size="12" lengthAdjust="spacing" textLength="110.0859" x="163.041" y="2239.2383">Lernmodus beenden</text><rect fill="#F1F1F1" height="35.0938" rx="12.5" ry="12.5" style="stroke:#181818;stroke-width:0.5;" width="144.7168" x="145.7256" y="2271.875"/><text fill="#000000" font-family="sans-serif" font-size="12" lengthAdjust="spacing" textLength="124.7168" x="155.7256" y="2294.332">Zur&#252;ck zum Dashboard</text><path d="M249.084,2316.9688 L249.084,2375.1992 L229.084,2379.1992 L249.084,2383.1992 L249.084,2441.4297 A0,0 0 0 0 249.084,2441.4297 L682.542,2441.4297 A0,0 0 0 0 682.542,2441.4297 L682.542,2326.9688 L672.542,2316.9688 L249.084,2316.9688 A0,0 0 0 0 249.084,2316.9688 " fill="#FEFFDD" style="stroke:#181818;stroke-width:0.5;"/><path d="M672.542,2316.9688 L672.542,2326.9688 L682.542,2326.9688 L672.542,2316.9688 " fill="#FEFFDD" style="stroke:#181818;stroke-width:0.5;"/><text fill="#000000" font-family="sans-serif" font-size="13" font-weight="bold" lengthAdjust="spacing" textLength="412.458" x="255.084" y="2335.4639">Details zu den einzelnen Flows sind ausgelagert (druckfreundlich):</text><text fill="#000000" font-family="sans-serif" font-size="13" lengthAdjust="spacing" textLength="244.2261" x="255.084" y="2351.8154">- PlantUML_Activity_01_StudentTest.puml</text><text fill="#000000" font-family="sans-serif" font-size="13" lengthAdjust="spacing" textLength="269.5088" x="255.084" y="2368.167">- PlantUML_Activity_02_AdminQuestions.puml</text><text fill="#000000" font-family="sans-serif" font-size="13" lengthAdjust="spacing" textLength="256.5215" x="255.084" y="2384.5186">- PlantUML_Activity_03_Authentication.puml</text><text fill="#000000" font-family="sans-serif" font-size="13" lengthAdjust="spacing" textLength="265.167" x="255.084" y="2400.8701">- PlantUML_Activity_04_PasswordReset.puml</text><text fill="#000000" font-family="sans-serif" font-size="13" lengthAdjust="spacing" textLength="239.897" x="255.084" y="2417.2217">- PlantUML_Activity_05_LearnMode.puml</text><text fill="#000000" font-family="sans-serif" font-size="13" lengthAdjust="spacing" textLength="298.4478" x="255.084" y="2433.5732">- Sequenzdiagramme: PlantUML_Sequence_*.puml</text><ellipse cx="218.084" cy="2379.1992" fill="none" rx="11" ry="11" style="stroke:#222222;stroke-width:1.0;"/><ellipse cx="218.084" cy="2379.1992" fill="#222222" rx="6" ry="6" style="stroke:#222222;stroke-width:1.0;"/><line style="stroke:#181818;stroke-width:1.0;" x1="218.084" x2="218.084" y1="100.2188" y2="120.2188"/><polygon fill="#181818" points="214.084,110.2188,218.084,120.2188,222.084,110.2188,218.084,114.2188" style="stroke:#181818;stroke-width:1.0;"/><line style="stroke:#181818;stroke-width:1.0;" x1="218.084" x2="218.084" y1="155.3125" y2="175.3125"/><polygon fill="#181818" points="214.084,165.3125,218.084,175.3125,222.084,165.3125,218.084,169.3125" style="stroke:#181818;stroke-width:1.0;"/><line style="stroke:#181818;stroke-width:1.0;" x1="218.084" x2="218.084" y1="210.4063" y2="230.4063"/><polygon fill="#181818" points="214.084,220.4063,218.084,230.4063,222.084,220.4063,218.084,224.4063" style="stroke:#181818;stroke-width:1.0;"/><line style="stroke:#181818;stroke-width:1.0;" x1="218.084" x2="218.084" y1="265.5" y2="285.5"/><polygon fill="#181818" points="214.084,275.5,218.084,285.5,222.084,275.5,218.084,279.5" style="stroke:#181818;stroke-width:1.0;"/><line style="stroke:#181818;stroke-width:1.0;" x1="218.084" x2="218.084" y1="320.5938" y2="340.5938"/><polygon fill="#181818" points="214.084,330.5938,218.084,340.5938,222.084,330.5938,218.084,334.5938" style="stroke:#181818;stroke-width:1.0;"/><line style="stroke:#181818;stroke-width:1.0;" x1="218.084" x2="218.084" y1="375.6875" y2="395.6875"/><polygon fill="#181818" points="214.084,385.6875,218.084,395.6875,222.084,385.6875,218.084,389.6875" style="stroke:#181818;stroke-width:1.0;"/><line style="stroke:#181818;stroke-width:1.0;" x1="218.084" x2="218.084" y1="430.7813" y2="450.7813"/><polygon fill="#181818" points="214.084,440.7813,218.084,450.7813,222.084,440.7813,218.084,444.7813" style="stroke:#181818;stroke-width:1.0;"/><line style="stroke:#181818;stroke-width:1.0;" x1="218.084" x2="218.084" y1="485.875" y2="505.875"/><polygon fill="#181818" points="214.084,495.875,218.084,505.875,222.084,495.875,218.084,499.875" style="stroke:#181818;stroke-width:1.0;"/><line style="stroke:#181818;stroke-width:1.0;" x1="218.084" x2="218.084" y1="540.9688" y2="560.9688"/><polygon fill="#181818" points="214.084,550.9688,218.084,560.9688,222.084,550.9688,218.084,554.9688" style="stroke:#181818;stroke-width:1.0;"/><line style="stroke:#181818;stroke-width:1.0;" x1="218.084" x2="218.084" y1="655.5781" y2="675.5781"/><polygon fill="#181818" points="214.084,665.5781,218.084,675.5781,222.084,665.5781,218.084,669.5781" style="stroke:#181818;stroke-width:1.0;"/><line style="stroke:#181818;stroke-width:1.0;" x1="218.084" x2="218.084" y1="710.6719" y2="730.6719"/><polygon fill="#181818" points="214.084,720.6719,218.084,730.6719,222.084,720.6719,218.084,724.6719" style="stroke:#181818;stroke-width:1.0;"/><line style="stroke:#181818;stroke-width:1.0;" x1="218.084" x2="218.084" y1="765.7656" y2="785.7656"/><polygon fill="#181818" points="214.084,775.7656,218.084,785.7656,222.084,775.7656,218.084,779.7656" style="stroke:#181818;stroke-width:1.0;"/><line style="stroke:#181818;stroke-width:1.0;" x1="218.084" x2="218.084" y1="820.8594" y2="840.8594"/><polygon fill="#181818" points="214.084,830.8594,218.084,840.8594,222.084,830.8594,218.084,834.8594" style="stroke:#181818;stroke-width:1.0;"/><line style="stroke:#181818;stroke-width:1.0;" x1="218.084" x2="218.084" y1="875.9531" y2="895.9531"/><polygon fill="#181818" points="214.084,885.9531,218.084,895.9531,222.084,885.9531,218.084,889.9531" style="stroke:#181818;stroke-width:1.0;"/><line style="stroke:#181818;stroke-width:1.0;" x1="218.084" x2="218.084" y1="931.0469" y2="951.0469"/><polygon fill="#181818" points="214.084,941.0469,218.084,951.0469,222.084,941.0469,218.084,945.0469" style="stroke:#181818;stroke-width:1.0;"/><line style="stroke:#181818;stroke-width:1.0;" x1="218.084" x2="218.084" y1="986.1406" y2="1006.1406"/><polygon fill="#181818" points="214.084,996.1406,218.084,1006.1406,222.084,996.1406,218.084,1000.1406" style="stroke:#181818;stroke-width:1.0;"/><line style="stroke:#181818;stroke-width:1.0;" x1="218.084" x2="218.084" y1="1041.2344" y2="1061.2344"/><polygon fill="#181818" points="214.084,1051.2344,218.084,1061.2344,222.084,1051.2344,218.084,1055.2344" style="stroke:#181818;stroke-width:1.0;"/><line style="stroke:#181818;stroke-width:1.0;" x1="218.084" x2="218.084" y1="1096.3281" y2="1116.3281"/><polygon fill="#181818" points="214.084,1106.3281,218.084,1116.3281,222.084,1106.3281,218.084,1110.3281" style="stroke:#181818;stroke-width:1.0;"/><line style="stroke:#181818;stroke-width:1.0;" x1="218.084" x2="218.084" y1="1210.9375" y2="1230.9375"/><polygon fill="#181818" points="214.084,1220.9375,218.084,1230.9375,222.084,1220.9375,218.084,1224.9375" style="stroke:#181818;stroke-width:1.0;"/><line style="stroke:#181818;stroke-width:1.0;" x1="218.084" x2="218.084" y1="1266.0313" y2="1286.0313"/><polygon fill="#181818" points="214.084,1276.0313,218.084,1286.0313,222.084,1276.0313,218.084,1280.0313" style="stroke:#181818;stroke-width:1.0;"/><line style="stroke:#181818;stroke-width:1.0;" x1="218.084" x2="218.084" y1="1321.125" y2="1341.125"/><polygon fill="#181818" points="214.084,1331.125,218.084,1341.125,222.084,1331.125,218.084,1335.125" style="stroke:#181818;stroke-width:1.0;"/><line style="stroke:#181818;stroke-width:1.0;" x1="218.084" x2="218.084" y1="1435.7344" y2="1455.7344"/><polygon fill="#181818" points="214.084,1445.7344,218.084,1455.7344,222.084,1445.7344,218.084,1449.7344" style="stroke:#181818;stroke-width:1.0;"/><line style="stroke:#181818;stroke-width:1.0;" x1="218.084" x2="218.084" y1="1490.8281" y2="1510.8281"/><polygon fill="#181818" points="214.084,1500.8281,218.084,1510.8281,222.084,1500.8281,218.084,1504.8281" style="stroke:#181818;stroke-width:1.0;"/><line style="stroke:#181818;stroke-width:1.0;" x1="218.084" x2="218.084" y1="1545.9219" y2="1565.9219"/><polygon fill="#181818" points="214.084,1555.9219,218.084,1565.9219,222.084,1555.9219,218.084,1559.9219" style="stroke:#181818;stroke-width:1.0;"/><line style="stroke:#181818;stroke-width:1.0;" x1="218.084" x2="218.084" y1="1601.0156" y2="1621.0156"/><polygon fill="#181818" points="214.084,1611.0156,218.084,1621.0156,222.084,1611.0156,218.084,1615.0156" style="stroke:#181818;stroke-width:1.0;"/><line style="stroke:#181818;stroke-width:1.0;" x1="218.084" x2="218.084" y1="1656.1094" y2="1676.1094"/><polygon fill="#181818" points="214.084,1666.1094,218.084,1676.1094,222.084,1666.1094,218.084,1670.1094" style="stroke:#181818;stroke-width:1.0;"/><line style="stroke:#181818;stroke-width:1.0;" x1="218.084" x2="218.084" y1="1770.7188" y2="1790.7188"/><polygon fill="#181818" points="214.084,1780.7188,218.084,1790.7188,222.084,1780.7188,218.084,1784.7188" style="stroke:#181818;stroke-width:1.0;"/><line style="stroke:#181818;stroke-width:1.0;" x1="218.084" x2="218.084" y1="1825.8125" y2="1845.8125"/><polygon fill="#181818" points="214.084,1835.8125,218.084,1845.8125,222.084,1835.8125,218.084,1839.8125" style="stroke:#181818;stroke-width:1.0;"/><line style="stroke:#181818;stroke-width:1.0;" x1="218.084" x2="218.084" y1="1880.9063" y2="1900.9063"/><polygon fill="#181818" points="214.084,1890.9063,218.084,1900.9063,222.084,1890.9063,218.084,1894.9063" style="stroke:#181818;stroke-width:1.0;"/><line style="stroke:#181818;stroke-width:1.0;" x1="218.084" x2="218.084" y1="1936" y2="1956"/><polygon fill="#181818" points="214.084,1946,218.084,1956,222.084,1946,218.084,1950" style="stroke:#181818;stroke-width:1.0;"/><line style="stroke:#181818;stroke-width:1.0;" x1="218.084" x2="218.084" y1="2090.1875" y2="2117.6875"/><polygon fill="#181818" points="214.084,2107.6875,218.084,2117.6875,222.084,2107.6875,218.084,2111.6875" style="stroke:#181818;stroke-width:1.0;"/><line style="stroke:#181818;stroke-width:1.0;" x1="218.084" x2="218.084" y1="2035.0938" y2="2055.0938"/><polygon fill="#181818" points="214.084,2045.0938,218.084,2055.0938,222.084,2045.0938,218.084,2049.0938" style="stroke:#181818;stroke-width:1.0;"/><line style="stroke:#181818;stroke-width:1.0;" x1="263.4063" x2="334.4639" y1="2184.7813" y2="2184.7813"/><polygon fill="#181818" points="330.4639,2110.1875,334.4639,2100.1875,338.4639,2110.1875,334.4639,2106.1875" style="stroke:#181818;stroke-width:1.0;"/><line style="stroke:#181818;stroke-width:1.0;" x1="334.4639" x2="334.4639" y1="2023.0938" y2="2184.7813"/><line style="stroke:#181818;stroke-width:1.0;" x1="334.4639" x2="230.084" y1="2023.0938" y2="2023.0938"/><polygon fill="#181818" points="240.084,2019.0938,230.084,2023.0938,240.084,2027.0938,236.084,2023.0938" style="stroke:#181818;stroke-width:1.0;"/><line style="stroke:#181818;stroke-width:1.0;" x1="218.084" x2="218.084" y1="2152.7813" y2="2172.7813"/><polygon fill="#181818" points="214.084,2162.7813,218.084,2172.7813,222.084,2162.7813,218.084,2166.7813" style="stroke:#181818;stroke-width:1.0;"/><line style="stroke:#181818;stroke-width:1.0;" x1="218.084" x2="218.084" y1="1991.0938" y2="2011.0938"/><polygon fill="#181818" points="214.084,2001.0938,218.084,2011.0938,222.084,2001.0938,218.084,2005.0938" style="stroke:#181818;stroke-width:1.0;"/><line style="stroke:#181818;stroke-width:1.0;" x1="218.084" x2="218.084" y1="2196.7813" y2="2216.7813"/><polygon fill="#181818" points="214.084,2206.7813,218.084,2216.7813,222.084,2206.7813,218.084,2210.7813" style="stroke:#181818;stroke-width:1.0;"/><line style="stroke:#181818;stroke-width:1.0;" x1="218.084" x2="218.084" y1="2251.875" y2="2271.875"/><polygon fill="#181818" points="214.084,2261.875,218.084,2271.875,222.084,2261.875,218.084,2265.875" style="stroke:#181818;stroke-width:1.0;"/><line style="stroke:#181818;stroke-width:1.0;" x1="218.084" x2="218.084" y1="2306.9688" y2="2368.1992"/><polygon fill="#181818" points="214.084,2358.1992,218.084,2368.1992,222.084,2358.1992,218.084,2362.1992" style="stroke:#181818;stroke-width:1.0;"/><!--SRC=[bLNDSjD84BxxAReunLuKBRjm2KLj1UnG2mxnnWvRnSKrrhIbMOrcnFp45LFxDliCdBZvnRPdz9COOW8-o9Bcw-wll_wH4quYd6PEN0jtaum5omshAaXWPlG_M3huMrYBoZgqRZ2mfL0r8mH8eT3Tr0ZQk4BVER05uteZL0vh9YqE1lJQ2IUqWaTpvpag1mjobeozoOhrxajXlCeVmQS1qCywGiUxatcujIWSmkxpUgrGFMyEJbM5alp0qUnYle2KrI9btXMfrBbGmnOLOZJkzf4XaJI-xv1dXkM48RRmPdxn3j0KJBexuTn6Ho-P5CG-2Pn43fPqGac-InGABl6Z3n5heo4wtEF1LZckxkFXLvNeYPmwXrNjBj5wwGZhLUamVQVfCaR7XBH3O6gB8k_9JNMklNlUQgVhmRzxWf_oYhWr2IRlqMmeiVlLRf2Dq0xYKp9Z2kLFYNwf9RLJRNPVrW4wHsi33wCblc31vrUQIqOkqzr_YgCX_El98WtkqzdL8XrFffF5f8qKRDEeCFcpdPUNgBpRee7h9ZLys8UtQ7fxKXfTqfREtl8c7z_OfAQ5TSONTU329CqAjIgPVsrcmzlX3nQAfAJU4ckn5HW6mYPdKc_kATGqwFtzAdIoKtBRa4xW_oT_3E5ViGeVnu8C3vAPCMj3ooUDFWU8N94tUaP9lRedv3VaJ3njzUkRFJQS5LWuw2lmOygtffIT0uLq11rZ2dsrE5ZkoAEDXHmsmd3OUYfwLkOOtHsKP4hALPhxWsNfLbifHKPRiyUteVkyujZtZPmosGtOIvQLg3Yi1VKnPT9ZZYkQ_ME9pAY9OYk9l6kfyEeLCvnqY_FqotJtsLBl39kvQc3nOh16rZ2z7R-qtMpzJe4ZWumdMicRLh88VdLtxL7DpyZ6PeKHZlIMkcIoHJTHO5C8MW97vrWOU1ltxnz344Jo3HlUKZhf9O8LKkBzIllGL8GgKy6OsMAbASNzmYXQYM14NZGfZKRjUYGR23kA5lAMLZFTXMfPwZ8IbdcRewIyGvjmuxDoRT0hJWKhXYUZKNH5tpt9bBiwdowxZ-BoroVBjhfXbn_NlfA7iRyjOtV-rLVl-_3VbztaPopW7u0_NRQTpkF4FO1-jemjSguvtaNEmmIeBM-_zNXoQziSPRWSDGQX8OFOW_y1]--></g></svg>