<svg xmlns="http://www.w3.org/2000/svg" xmlns:xlink="http://www.w3.org/1999/xlink" contentStyleType="text/css" height="1426px" preserveAspectRatio="none" style="width:1055px;height:1426px;background:#FFFFFF;" version="1.1" viewBox="0 0 1055 1426" width="1055px" zoomAndPan="magnify"><title>Activity-Diagramm - LearnMode (API + UI)</title><defs/><g><text fill="#000000" font-family="sans-serif" font-size="14" font-weight="bold" lengthAdjust="spacing" textLength="277.3271" x="387.4778" y="34.5332">Activity-Diagramm - LearnMode (API + UI)</text><rect fill="none" height="22.6406" style="stroke:none;stroke-width:1.0;" width="1022.2827" x="15" y="51.0645"/><ellipse cx="178.752" cy="88.7051" fill="#222222" rx="10" ry="10" style="stroke:#222222;stroke-width:1.0;"/><rect fill="#F1F1F1" height="35.0938" rx="12.5" ry="12.5" style="stroke:#181818;stroke-width:0.5;" width="173.2754" x="92.1143" y="118.7051"/><text fill="#000000" font-family="sans-serif" font-size="12" lengthAdjust="spacing" textLength="153.2754" x="102.1143" y="141.1621">Benutzer &#246;ffnet "Lernmodus"</text><rect fill="#F1F1F1" height="35.0938" rx="12.5" ry="12.5" style="stroke:#181818;stroke-width:0.5;" width="183.4297" x="87.0371" y="173.7988"/><text fill="#000000" font-family="sans-serif" font-size="12" lengthAdjust="spacing" textLength="163.4297" x="97.0371" y="196.2559">Frontend fordert Lernkarten an</text><rect fill="#F1F1F1" height="35.0938" rx="12.5" ry="12.5" style="stroke:#181818;stroke-width:0.5;" width="160.0684" x="98.7178" y="228.8926"/><text fill="#000000" font-family="sans-serif" font-size="12" lengthAdjust="spacing" textLength="140.0684" x="108.7178" y="251.3496">GET /api/test/questions/all</text><polygon fill="#F1F1F1" points="128.0005,775.2988,229.5034,775.2988,241.5034,787.2988,229.5034,799.2988,128.0005,799.2988,116.0005,787.2988,128.0005,775.2988" style="stroke:#181818;stroke-width:0.5;"/><text fill="#000000" font-family="sans-serif" font-size="11" lengthAdjust="spacing" textLength="101.5029" x="128.0005" y="791.7998">Request erfolgreich?</text><text fill="#000000" font-family="sans-serif" font-size="11" lengthAdjust="spacing" textLength="22.623" x="93.3774" y="784.8818">Nein</text><text fill="#000000" font-family="sans-serif" font-size="11" lengthAdjust="spacing" textLength="11.6177" x="241.5034" y="784.8818">Ja</text><rect fill="#F1F1F1" height="35.0938" rx="12.5" ry="12.5" style="stroke:#181818;stroke-width:0.5;" width="152.0879" x="21" y="809.2988"/><text fill="#000000" font-family="sans-serif" font-size="12" lengthAdjust="spacing" textLength="132.0879" x="31" y="831.7559">Fehlermeldung anzeigen</text><ellipse cx="97.0439" cy="875.3926" fill="none" rx="11" ry="11" style="stroke:#222222;stroke-width:1.0;"/><ellipse cx="97.0439" cy="875.3926" fill="#222222" rx="6" ry="6" style="stroke:#222222;stroke-width:1.0;"/><rect fill="#F1F1F1" height="35.0938" rx="12.5" ry="12.5" style="stroke:#181818;stroke-width:0.5;" width="134.7441" x="193.0879" y="809.2988"/><text fill="#000000" font-family="sans-serif" font-size="12" lengthAdjust="spacing" textLength="114.7441" x="203.0879" y="831.7559">LearnCards anzeigen</text><rect fill="#F1F1F1" height="35.0938" rx="12.5" ry="12.5" style="stroke:#181818;stroke-width:0.5;" width="103.3906" x="127.0566" y="950.3926"/><text fill="#000000" font-family="sans-serif" font-size="12" lengthAdjust="spacing" textLength="83.3906" x="137.0566" y="972.8496">Frage anzeigen</text><rect fill="#F1F1F1" height="35.0938" rx="12.5" ry="12.5" style="stroke:#181818;stroke-width:0.5;" width="216.4473" x="70.5283" y="1005.4863"/><text fill="#000000" font-family="sans-serif" font-size="12" lengthAdjust="spacing" textLength="196.4473" x="80.5283" y="1027.9434">Karte umdrehen -&gt; Antwort anzeigen</text><rect fill="#F1F1F1" height="50.1875" rx="12.5" ry="12.5" style="stroke:#181818;stroke-width:0.5;" width="149.1055" x="104.1992" y="1060.5801"/><text fill="#000000" font-family="sans-serif" font-size="12" lengthAdjust="spacing" textLength="94.6992" x="114.1992" y="1083.0371">Benutzer markiert</text><text fill="#000000" font-family="sans-serif" font-size="12" lengthAdjust="spacing" textLength="129.1055" x="114.1992" y="1098.1309">"gelernt" / "nicht gelernt"</text><rect fill="#F1F1F1" height="50.1875" rx="12.5" ry="12.5" style="stroke:#181818;stroke-width:0.5;" width="184.7188" x="86.3926" y="1130.7676"/><text fill="#000000" font-family="sans-serif" font-size="12" lengthAdjust="spacing" textLength="117.3984" x="96.3926" y="1153.2246">Status lokal speichern</text><text fill="#000000" font-family="sans-serif" font-size="12" lengthAdjust="spacing" textLength="164.7188" x="96.3926" y="1168.3184">(Client-State, z.B. im Speicher)</text><polygon fill="#F1F1F1" points="178.752,906.3926,190.752,918.3926,178.752,930.3926,166.752,918.3926,178.752,906.3926" style="stroke:#181818;stroke-width:0.5;"/><polygon fill="#F1F1F1" points="139.0112,1200.9551,218.4927,1200.9551,230.4927,1212.9551,218.4927,1224.9551,139.0112,1224.9551,127.0112,1212.9551,139.0112,1200.9551" style="stroke:#181818;stroke-width:0.5;"/><text fill="#000000" font-family="sans-serif" font-size="11" lengthAdjust="spacing" textLength="79.4814" x="139.0112" y="1217.4561">Weitere Karten?</text><text fill="#000000" font-family="sans-serif" font-size="11" lengthAdjust="spacing" textLength="11.6177" x="230.4927" y="1210.5381">Ja</text><rect fill="#F1F1F1" height="35.0938" rx="12.5" ry="12.5" style="stroke:#181818;stroke-width:0.5;" width="220.8125" x="68.3457" y="1244.9551"/><text fill="#000000" font-family="sans-serif" font-size="12" lengthAdjust="spacing" textLength="200.8125" x="78.3457" y="1267.4121">Lernmodus beenden oder neu starten</text><path d="M209.752,1290.0488 L209.752,1348.2793 L189.752,1352.2793 L209.752,1356.2793 L209.752,1414.5098 A0,0 0 0 0 209.752,1414.5098 L512.5498,1414.5098 A0,0 0 0 0 512.5498,1414.5098 L512.5498,1300.0488 L502.5498,1290.0488 L209.752,1290.0488 A0,0 0 0 0 209.752,1290.0488 " fill="#FEFFDD" style="stroke:#181818;stroke-width:0.5;"/><path d="M502.5498,1290.0488 L502.5498,1300.0488 L512.5498,1300.0488 L502.5498,1290.0488 " fill="#FEFFDD" style="stroke:#181818;stroke-width:0.5;"/><text fill="#000000" font-family="sans-serif" font-size="13" font-weight="bold" lengthAdjust="spacing" textLength="187.77" x="215.752" y="1308.5439">Wichtig (Ist-Implementierung):</text><text fill="#000000" font-family="sans-serif" font-size="13" lengthAdjust="spacing" textLength="218.2261" x="215.752" y="1324.8955">- Endpoint: GET /api/test/questions/all</text><text fill="#000000" font-family="sans-serif" font-size="13" lengthAdjust="spacing" textLength="228.3062" x="215.752" y="1341.2471">- Kein Attempt/Ergebnis wird persistiert.</text><text fill="#000000" font-family="sans-serif" font-size="13" lengthAdjust="spacing" textLength="205.2261" x="215.752" y="1357.5986">- Der Endpoint pr&#252;ft in der aktuellen</text><text fill="#000000" font-family="sans-serif" font-size="13" lengthAdjust="spacing" textLength="184.9897" x="230.1992" y="1373.9502">Implementierung keine Session.</text><text fill="#000000" font-family="sans-serif" font-size="13" lengthAdjust="spacing" textLength="281.7979" x="215.752" y="1390.3018">- learnEnabled kommt aus questions.meta JSON</text><text fill="#000000" font-family="sans-serif" font-size="13" lengthAdjust="spacing" textLength="106.9517" x="230.1992" y="1406.6533">(Default: enabled).</text><ellipse cx="178.752" cy="1352.2793" fill="none" rx="11" ry="11" style="stroke:#222222;stroke-width:1.0;"/><ellipse cx="178.752" cy="1352.2793" fill="#222222" rx="6" ry="6" style="stroke:#222222;stroke-width:1.0;"/><line style="stroke:#000000;stroke-width:1.5;" x1="15" x2="15" y1="51.0645" y2="1414.5098"/><rect fill="#F1F1F1" height="35.0938" rx="12.5" ry="12.5" style="stroke:#181818;stroke-width:0.5;" width="161.4453" x="589.9072" y="283.9863"/><text fill="#000000" font-family="sans-serif" font-size="12" lengthAdjust="spacing" textLength="141.4453" x="599.9072" y="306.4434">Request entgegennehmen</text><rect fill="#F1F1F1" height="35.0938" rx="12.5" ry="12.5" style="stroke:#181818;stroke-width:0.5;" width="178.7246" x="581.2676" y="339.0801"/><text fill="#000000" font-family="sans-serif" font-size="12" lengthAdjust="spacing" textLength="158.7246" x="591.2676" y="361.5371">TestService.getAllQuestions()</text><rect fill="#F1F1F1" height="35.0938" rx="12.5" ry="12.5" style="stroke:#181818;stroke-width:0.5;" width="294.1602" x="523.5498" y="394.1738"/><text fill="#000000" font-family="sans-serif" font-size="12" lengthAdjust="spacing" textLength="274.1602" x="533.5498" y="416.6309">Filter: isLearnEnabled(question.meta.learnEnabled)</text><rect fill="#F1F1F1" height="125.6563" rx="12.5" ry="12.5" style="stroke:#181818;stroke-width:0.5;" width="289.4492" x="525.9053" y="449.2676"/><text fill="#000000" font-family="sans-serif" font-size="12" lengthAdjust="spacing" textLength="98.7188" x="535.9053" y="471.7246">F&#252;r jede Question:</text><text fill="#000000" font-family="sans-serif" font-size="12" lengthAdjust="spacing" textLength="44.6777" x="549.2412" y="486.8184">- prompt</text><text fill="#000000" font-family="sans-serif" font-size="12" lengthAdjust="spacing" textLength="30.0117" x="549.2412" y="501.9121">- type</text><text fill="#000000" font-family="sans-serif" font-size="12" lengthAdjust="spacing" textLength="55.3418" x="549.2412" y="517.0059">- imageUrl</text><text fill="#000000" font-family="sans-serif" font-size="12" lengthAdjust="spacing" textLength="53.3555" x="549.2412" y="532.0996">- category</text><text fill="#000000" font-family="sans-serif" font-size="12" lengthAdjust="spacing" textLength="50.6777" x="549.2412" y="547.1934">- difficulty</text><text fill="#000000" font-family="sans-serif" font-size="12" lengthAdjust="spacing" textLength="256.1133" x="549.2412" y="562.2871">- korrekte L&#246;sung (AnswerDao/ClozeTokenDao)</text><rect fill="#F1F1F1" height="35.0938" rx="12.5" ry="12.5" style="stroke:#181818;stroke-width:0.5;" width="249.7813" x="545.7393" y="720.2051"/><text fill="#000000" font-family="sans-serif" font-size="12" lengthAdjust="spacing" textLength="229.7813" x="555.7393" y="742.6621">Antwort: 200 OK + JSON[List&lt;LearnCard&gt;]</text><line style="stroke:#000000;stroke-width:1.5;" x1="517.5498" x2="517.5498" y1="51.0645" y2="1414.5098"/><rect fill="#F1F1F1" height="35.0938" rx="12.5" ry="12.5" style="stroke:#181818;stroke-width:0.5;" width="121.3848" x="869.0537" y="594.9238"/><text fill="#000000" font-family="sans-serif" font-size="12" lengthAdjust="spacing" textLength="101.3848" x="879.0537" y="617.3809">SELECT questions</text><rect fill="#F1F1F1" height="50.1875" rx="12.5" ry="12.5" style="stroke:#181818;stroke-width:0.5;" width="204.0723" x="827.71" y="650.0176"/><text fill="#000000" font-family="sans-serif" font-size="12" lengthAdjust="spacing" textLength="184.0723" x="837.71" y="672.4746">SELECT answers / cloze_answers</text><text fill="#000000" font-family="sans-serif" font-size="12" lengthAdjust="spacing" textLength="134.0684" x="837.71" y="687.5684">(abh&#228;ngig vom Fragetyp)</text><line style="stroke:#000000;stroke-width:1.5;" x1="821.71" x2="821.71" y1="51.0645" y2="1414.5098"/><line style="stroke:#000000;stroke-width:1.5;" x1="1035.7822" x2="1035.7822" y1="51.0645" y2="1414.5098"/><line style="stroke:#181818;stroke-width:1.0;" x1="178.752" x2="178.752" y1="98.7051" y2="118.7051"/><polygon fill="#181818" points="174.752,108.7051,178.752,118.7051,182.752,108.7051,178.752,112.7051" style="stroke:#181818;stroke-width:1.0;"/><line style="stroke:#181818;stroke-width:1.0;" x1="178.752" x2="178.752" y1="153.7988" y2="173.7988"/><polygon fill="#181818" points="174.752,163.7988,178.752,173.7988,182.752,163.7988,178.752,167.7988" style="stroke:#181818;stroke-width:1.0;"/><line style="stroke:#181818;stroke-width:1.0;" x1="178.752" x2="178.752" y1="208.8926" y2="228.8926"/><polygon fill="#181818" points="174.752,218.8926,178.752,228.8926,182.752,218.8926,178.752,222.8926" style="stroke:#181818;stroke-width:1.0;"/><line style="stroke:#181818;stroke-width:1.0;" x1="97.0439" x2="97.0439" y1="844.3926" y2="864.3926"/><polygon fill="#181818" points="93.0439,854.3926,97.0439,864.3926,101.0439,854.3926,97.0439,858.3926" style="stroke:#181818;stroke-width:1.0;"/><line style="stroke:#181818;stroke-width:1.0;" x1="116.0005" x2="97.0439" y1="787.2988" y2="787.2988"/><line style="stroke:#181818;stroke-width:1.0;" x1="97.0439" x2="97.0439" y1="787.2988" y2="809.2988"/><polygon fill="#181818" points="93.0439,799.2988,97.0439,809.2988,101.0439,799.2988,97.0439,803.2988" style="stroke:#181818;stroke-width:1.0;"/><line style="stroke:#181818;stroke-width:1.0;" x1="241.5034" x2="260.46" y1="787.2988" y2="787.2988"/><line style="stroke:#181818;stroke-width:1.0;" x1="260.46" x2="260.46" y1="787.2988" y2="809.2988"/><polygon fill="#181818" points="256.46,799.2988,260.46,809.2988,264.46,799.2988,260.46,803.2988" style="stroke:#181818;stroke-width:1.0;"/><line style="stroke:#181818;stroke-width:1.0;" x1="260.46" x2="260.46" y1="844.3926" y2="891.3926"/><line style="stroke:#181818;stroke-width:1.0;" x1="260.46" x2="178.752" y1="891.3926" y2="891.3926"/><line style="stroke:#181818;stroke-width:1.0;" x1="178.752" x2="178.752" y1="891.3926" y2="906.3926"/><polygon fill="#181818" points="174.752,896.3926,178.752,906.3926,182.752,896.3926,178.752,900.3926" style="stroke:#181818;stroke-width:1.0;"/><line style="stroke:#181818;stroke-width:1.0;" x1="178.752" x2="178.752" y1="985.4863" y2="1005.4863"/><polygon fill="#181818" points="174.752,995.4863,178.752,1005.4863,182.752,995.4863,178.752,999.4863" style="stroke:#181818;stroke-width:1.0;"/><line style="stroke:#181818;stroke-width:1.0;" x1="178.752" x2="178.752" y1="1040.5801" y2="1060.5801"/><polygon fill="#181818" points="174.752,1050.5801,178.752,1060.5801,182.752,1050.5801,178.752,1054.5801" style="stroke:#181818;stroke-width:1.0;"/><line style="stroke:#181818;stroke-width:1.0;" x1="178.752" x2="178.752" y1="1110.7676" y2="1130.7676"/><polygon fill="#181818" points="174.752,1120.7676,178.752,1130.7676,182.752,1120.7676,178.752,1124.7676" style="stroke:#181818;stroke-width:1.0;"/><line style="stroke:#181818;stroke-width:1.0;" x1="178.752" x2="178.752" y1="930.3926" y2="950.3926"/><polygon fill="#181818" points="174.752,940.3926,178.752,950.3926,182.752,940.3926,178.752,944.3926" style="stroke:#181818;stroke-width:1.0;"/><line style="stroke:#181818;stroke-width:1.0;" x1="230.4927" x2="298.9756" y1="1212.9551" y2="1212.9551"/><polygon fill="#181818" points="294.9756,1068.1738,298.9756,1058.1738,302.9756,1068.1738,298.9756,1064.1738" style="stroke:#181818;stroke-width:1.0;"/><line style="stroke:#181818;stroke-width:1.0;" x1="298.9756" x2="298.9756" y1="918.3926" y2="1212.9551"/><line style="stroke:#181818;stroke-width:1.0;" x1="298.9756" x2="190.752" y1="918.3926" y2="918.3926"/><polygon fill="#181818" points="200.752,914.3926,190.752,918.3926,200.752,922.3926,196.752,918.3926" style="stroke:#181818;stroke-width:1.0;"/><line style="stroke:#181818;stroke-width:1.0;" x1="178.752" x2="178.752" y1="1180.9551" y2="1200.9551"/><polygon fill="#181818" points="174.752,1190.9551,178.752,1200.9551,182.752,1190.9551,178.752,1194.9551" style="stroke:#181818;stroke-width:1.0;"/><line style="stroke:#181818;stroke-width:1.0;" x1="178.752" x2="178.752" y1="1224.9551" y2="1244.9551"/><polygon fill="#181818" points="174.752,1234.9551,178.752,1244.9551,182.752,1234.9551,178.752,1238.9551" style="stroke:#181818;stroke-width:1.0;"/><line style="stroke:#181818;stroke-width:1.0;" x1="178.752" x2="178.752" y1="1280.0488" y2="1341.2793"/><polygon fill="#181818" points="174.752,1331.2793,178.752,1341.2793,182.752,1331.2793,178.752,1335.2793" style="stroke:#181818;stroke-width:1.0;"/><line style="stroke:#181818;stroke-width:1.0;" x1="670.6299" x2="670.6299" y1="319.0801" y2="339.0801"/><polygon fill="#181818" points="666.6299,329.0801,670.6299,339.0801,674.6299,329.0801,670.6299,333.0801" style="stroke:#181818;stroke-width:1.0;"/><line style="stroke:#181818;stroke-width:1.0;" x1="670.6299" x2="670.6299" y1="374.1738" y2="394.1738"/><polygon fill="#181818" points="666.6299,384.1738,670.6299,394.1738,674.6299,384.1738,670.6299,388.1738" style="stroke:#181818;stroke-width:1.0;"/><line style="stroke:#181818;stroke-width:1.0;" x1="670.6299" x2="670.6299" y1="429.2676" y2="449.2676"/><polygon fill="#181818" points="666.6299,439.2676,670.6299,449.2676,674.6299,439.2676,670.6299,443.2676" style="stroke:#181818;stroke-width:1.0;"/><line style="stroke:#181818;stroke-width:1.0;" x1="929.7461" x2="929.7461" y1="630.0176" y2="650.0176"/><polygon fill="#181818" points="925.7461,640.0176,929.7461,650.0176,933.7461,640.0176,929.7461,644.0176" style="stroke:#181818;stroke-width:1.0;"/><line style="stroke:#181818;stroke-width:1.0;" x1="178.752" x2="178.752" y1="263.9863" y2="268.9863"/><line style="stroke:#181818;stroke-width:1.0;" x1="178.752" x2="670.6299" y1="268.9863" y2="268.9863"/><line style="stroke:#181818;stroke-width:1.0;" x1="670.6299" x2="670.6299" y1="268.9863" y2="283.9863"/><polygon fill="#181818" points="666.6299,273.9863,670.6299,283.9863,674.6299,273.9863,670.6299,277.9863" style="stroke:#181818;stroke-width:1.0;"/><line style="stroke:#181818;stroke-width:1.0;" x1="670.6299" x2="670.6299" y1="574.9238" y2="579.9238"/><line style="stroke:#181818;stroke-width:1.0;" x1="670.6299" x2="929.7461" y1="579.9238" y2="579.9238"/><line style="stroke:#181818;stroke-width:1.0;" x1="929.7461" x2="929.7461" y1="579.9238" y2="594.9238"/><polygon fill="#181818" points="925.7461,584.9238,929.7461,594.9238,933.7461,584.9238,929.7461,588.9238" style="stroke:#181818;stroke-width:1.0;"/><line style="stroke:#181818;stroke-width:1.0;" x1="929.7461" x2="929.7461" y1="700.2051" y2="705.2051"/><line style="stroke:#181818;stroke-width:1.0;" x1="929.7461" x2="670.6299" y1="705.2051" y2="705.2051"/><line style="stroke:#181818;stroke-width:1.0;" x1="670.6299" x2="670.6299" y1="705.2051" y2="720.2051"/><polygon fill="#181818" points="666.6299,710.2051,670.6299,720.2051,674.6299,710.2051,670.6299,714.2051" style="stroke:#181818;stroke-width:1.0;"/><line style="stroke:#181818;stroke-width:1.0;" x1="670.6299" x2="670.6299" y1="755.2988" y2="760.2988"/><line style="stroke:#181818;stroke-width:1.0;" x1="670.6299" x2="178.752" y1="760.2988" y2="760.2988"/><line style="stroke:#181818;stroke-width:1.0;" x1="178.752" x2="178.752" y1="760.2988" y2="775.2988"/><polygon fill="#181818" points="174.752,765.2988,178.752,775.2988,182.752,765.2988,178.752,769.2988" style="stroke:#181818;stroke-width:1.0;"/><text fill="#000000" font-family="sans-serif" font-size="18" lengthAdjust="spacing" textLength="129.0234" x="201.7632" y="69.75">Client (Browser)</text><text fill="#000000" font-family="sans-serif" font-size="18" lengthAdjust="spacing" textLength="91.0283" x="624.1157" y="69.75">TestServlet</text><text fill="#000000" font-family="sans-serif" font-size="18" lengthAdjust="spacing" textLength="25.0049" x="916.2437" y="69.75">DB</text><!--SRC=[VLJBRjim4BphAnO-IMvj1ptAHGg_KZXnaxPsa4DH5BIrabbHf4gkOiJ8v_GRSihDFzQbB0j1MjG7moINovdP6PCaXJ3QaBoNzD2RIf5PKHJGWmKAgp-P124SVPx36xYTHq7mE54IDK4ujcRdq4QFWIDXAOZ7g2lQeuN3Kvfg9EWiqEh299Nh38FumXfDg1D8ZKtG4lZJd6-Y1g6vuEDi1GDHoW6Xey6lYh-bqMuWb1hokojUBz7UAwJ78FwATG4mb0mpr1gt1VekfpAvmNw6D5BgowbJ67aOKX7Q6AIh-SsqM2jCmjDp_G99zDMBe_hIuTd2JsGfJitY0FZJWzAQegHcGGybDZzb8JAyjQfPRWHXPkn3iqnacifDfUYqaHjhCIU4nU79LJfZoRNRePqACvWeiyULoL7pAl9IJCUim7Asc4rMqEeqRBT4VTN103R-wezc7OHYlJtyrfdCuDuKS64P8aEE_bPtf6bdBCNmxkmCRgvuzfVBc-jl2-deVItRHDZa_FlmdtQGAOJjU6ngL6PHRhOV8g0jppgyHgcZcdTyWLk5ja2LUCv2xr5cVeh-q94f0rIExNSfclhsRVUYc3qbqo2mMAAWfg-dzgfVVEMz1bMHMFGuUkVGq7nTs1gv43QNRDLwkvCXOzNKOLqxcWaHd7QQUqiIL3bG9XSANEb9yt5z5XvbwlaIV0lx_hZF5e5bKyGZECA7tLPo7CCxbEnIX1gpPkcaEyeGn6seO8rCdPbmH2rehA0EegTHQnTemtojpBP70jtkdKVDqm_dZdhpebJ8cI5coEf7SRVRc76caz98pUF_JoIRsYiU9eo8a5CmcDaCrvgXxgHDe6JFiM6yWFscUif0JzqvEeVdb83lU_mYfmgLmgDU_lCA8EJy5C8IdVCvRJg-J2gdg2XucYnD2xNES-tUjcyunLHmzcB-ypWclEyz15wku0y0]--></g></svg>