<svg xmlns="http://www.w3.org/2000/svg" xmlns:xlink="http://www.w3.org/1999/xlink" contentStyleType="text/css" height="2380px" preserveAspectRatio="none" style="width:1680px;height:2380px;background:#FFFFFF;" version="1.1" viewBox="0 0 1680 2380" width="1680px" zoomAndPan="magnify"><title>Aktivit&#228;tsdiagramm - Pr&#252;fungs-Flow (Exam-Modus)</title><defs/><g><text fill="#000000" font-family="sans-serif" font-size="14" font-weight="bold" lengthAdjust="spacing" textLength="340.6963" x="668.5901" y="34.5332">Aktivit&#228;tsdiagramm - Pr&#252;fungs-Flow (Exam-Modus)</text><rect fill="none" height="22.6406" style="stroke:none;stroke-width:1.0;" width="1647.8765" x="15" y="51.0645"/><ellipse cx="303.4727" cy="88.7051" fill="#222222" rx="10" ry="10" style="stroke:#222222;stroke-width:1.0;"/><rect fill="#F0F0F0" height="35.0938" rx="12.5" ry="12.5" style="stroke:#333333;stroke-width:0.5;" width="151.3965" x="227.7744" y="118.7051"/><text fill="#000000" font-family="sans-serif" font-size="12" lengthAdjust="spacing" textLength="131.3965" x="237.7744" y="141.1621">Exam-Modus ausw&#228;hlen</text><rect fill="#F0F0F0" height="35.0938" rx="12.5" ry="12.5" style="stroke:#333333;stroke-width:0.5;" width="160.7246" x="223.1104" y="173.7988"/><text fill="#000000" font-family="sans-serif" font-size="12" lengthAdjust="spacing" textLength="140.7246" x="233.1104" y="196.2559">Schwierigkeit w&#228;hlen (1-3)</text><rect fill="#F0F0F0" height="35.0938" rx="12.5" ry="12.5" style="stroke:#333333;stroke-width:0.5;" width="139.4082" x="233.7686" y="228.8926"/><text fill="#000000" font-family="sans-serif" font-size="12" lengthAdjust="spacing" textLength="119.4082" x="243.7686" y="251.3496">Anzahl Fragen w&#228;hlen</text><path d="M401.8457,579.7676 L401.8457,621.6465 L381.8457,625.6465 L401.8457,629.6465 L401.8457,671.5254 A0,0 0 0 0 401.8457,671.5254 L597.6538,671.5254 A0,0 0 0 0 597.6538,671.5254 L597.6538,589.7676 L587.6538,579.7676 L401.8457,579.7676 A0,0 0 0 0 401.8457,579.7676 " fill="#FEFFDD" style="stroke:#181818;stroke-width:0.5;"/><path d="M587.6538,579.7676 L587.6538,589.7676 L597.6538,589.7676 L587.6538,579.7676 " fill="#FEFFDD" style="stroke:#181818;stroke-width:0.5;"/><text fill="#000000" font-family="sans-serif" font-size="13" font-weight="bold" lengthAdjust="spacing" textLength="143.0317" x="407.8457" y="598.2627">Exam-Modus Features:</text><text fill="#000000" font-family="sans-serif" font-size="13" lengthAdjust="spacing" textLength="174.8081" x="407.8457" y="614.6143">- Timer aktiv (falls konfiguriert)</text><text fill="#000000" font-family="sans-serif" font-size="13" lengthAdjust="spacing" textLength="163.3062" x="407.8457" y="630.9658">- Keine Zwischenergebnisse</text><text fill="#000000" font-family="sans-serif" font-size="13" lengthAdjust="spacing" textLength="138.0107" x="407.8457" y="647.3174">- Alle Fragen auf einmal</text><text fill="#000000" font-family="sans-serif" font-size="13" lengthAdjust="spacing" textLength="171.2471" x="407.8457" y="663.6689">- Navigation zwischen Fragen</text><rect fill="#F0F0F0" height="35.0938" rx="12.5" ry="12.5" style="stroke:#333333;stroke-width:0.5;" width="156.7461" x="225.0996" y="608.0996"/><text fill="#000000" font-family="sans-serif" font-size="12" lengthAdjust="spacing" textLength="136.7461" x="235.0996" y="630.5566">TestRunner.jsp angezeigt</text><rect fill="#F0F0F0" height="35.0938" rx="12.5" ry="12.5" style="stroke:#333333;stroke-width:0.5;" width="111.3945" x="247.7754" y="735.5254"/><text fill="#000000" font-family="sans-serif" font-size="12" lengthAdjust="spacing" textLength="91.3945" x="257.7754" y="757.9824">Frage bearbeiten</text><polygon fill="#F0F0F0" points="86.043,834.6191,110.043,834.6191,122.043,846.6191,110.043,858.6191,86.043,858.6191,74.043,846.6191,86.043,834.6191" style="stroke:#333333;stroke-width:0.5;"/><text fill="#000000" font-family="sans-serif" font-size="11" lengthAdjust="spacing" textLength="17.1069" x="89.4895" y="851.1201">MC</text><rect fill="#F0F0F0" height="35.0938" rx="12.5" ry="12.5" style="stroke:#333333;stroke-width:0.5;" width="154.0859" x="21" y="878.6191"/><text fill="#000000" font-family="sans-serif" font-size="12" lengthAdjust="spacing" textLength="134.0859" x="31" y="901.0762">Antwortoption ausw&#228;hlen</text><polygon fill="#F0F0F0" points="231.7813,834.6191,268.4551,834.6191,280.4551,846.6191,268.4551,858.6191,231.7813,858.6191,219.7813,846.6191,231.7813,834.6191" style="stroke:#333333;stroke-width:0.5;"/><text fill="#000000" font-family="sans-serif" font-size="11" lengthAdjust="spacing" textLength="36.6738" x="231.7813" y="851.1201">CLOZE</text><rect fill="#F0F0F0" height="35.0938" rx="12.5" ry="12.5" style="stroke:#333333;stroke-width:0.5;" width="110.0645" x="195.0859" y="878.6191"/><text fill="#000000" font-family="sans-serif" font-size="12" lengthAdjust="spacing" textLength="90.0645" x="205.0859" y="901.0762">L&#252;cken ausf&#252;llen</text><polygon fill="#F0F0F0" points="366.8442,834.6191,396.1812,834.6191,408.1812,846.6191,396.1812,858.6191,366.8442,858.6191,354.8442,846.6191,366.8442,834.6191" style="stroke:#333333;stroke-width:0.5;"/><text fill="#000000" font-family="sans-serif" font-size="11" lengthAdjust="spacing" textLength="29.3369" x="366.8442" y="851.1201">FREE</text><text fill="#000000" font-family="sans-serif" font-size="11" lengthAdjust="spacing" textLength="35.4492" x="408.1812" y="844.2021">IMAGE</text><rect fill="#F0F0F0" height="35.0938" rx="12.5" ry="12.5" style="stroke:#333333;stroke-width:0.5;" width="112.7246" x="325.1504" y="878.6191"/><text fill="#000000" font-family="sans-serif" font-size="12" lengthAdjust="spacing" textLength="92.7246" x="335.1504" y="901.0762">Freitext eingeben</text><rect fill="#F0F0F0" height="50.1875" rx="12.5" ry="12.5" style="stroke:#333333;stroke-width:0.5;" width="128.0703" x="457.875" y="874.0723"/><text fill="#000000" font-family="sans-serif" font-size="12" lengthAdjust="spacing" textLength="108.0703" x="467.875" y="896.5293">Bild analysieren und</text><text fill="#000000" font-family="sans-serif" font-size="12" lengthAdjust="spacing" textLength="52.6992" x="467.875" y="911.623">antworten</text><polygon fill="#F0F0F0" points="278.7092,790.6191,328.2361,790.6191,340.2361,802.6191,328.2361,814.6191,278.7092,814.6191,266.7092,802.6191,278.7092,790.6191" style="stroke:#333333;stroke-width:0.5;"/><text fill="#000000" font-family="sans-serif" font-size="11" lengthAdjust="spacing" textLength="49.5269" x="278.7092" y="807.1201">Fragetyp?</text><polygon fill="#F0F0F0" points="303.4727,964.2598,315.4727,976.2598,303.4727,988.2598,291.4727,976.2598,303.4727,964.2598" style="stroke:#333333;stroke-width:0.5;"/><rect fill="#F0F0F0" height="35.0938" rx="12.5" ry="12.5" style="stroke:#333333;stroke-width:0.5;" width="124.7188" x="241.1133" y="1008.2598"/><text fill="#000000" font-family="sans-serif" font-size="12" lengthAdjust="spacing" textLength="104.7188" x="251.1133" y="1030.7168">Zur n&#228;chsten Frage</text><polygon fill="#F0F0F0" points="303.4727,691.5254,315.4727,703.5254,303.4727,715.5254,291.4727,703.5254,303.4727,691.5254" style="stroke:#333333;stroke-width:0.5;"/><polygon fill="#F0F0F0" points="229.1743,1063.3535,377.771,1063.3535,389.771,1075.3535,377.771,1087.3535,229.1743,1087.3535,217.1743,1075.3535,229.1743,1063.3535" style="stroke:#333333;stroke-width:0.5;"/><text fill="#000000" font-family="sans-serif" font-size="11" lengthAdjust="spacing" textLength="148.5967" x="229.1743" y="1079.8545">Noch unbeantwortete Fragen?</text><text fill="#000000" font-family="sans-serif" font-size="11" lengthAdjust="spacing" textLength="8.5615" x="389.771" y="1072.9365">ja</text><rect fill="#F0F0F0" height="35.0938" rx="12.5" ry="12.5" style="stroke:#333333;stroke-width:0.5;" width="93.3887" x="256.7783" y="1129.6064"/><text fill="#000000" font-family="sans-serif" font-size="12" lengthAdjust="spacing" textLength="73.3887" x="266.7783" y="1152.0635">Test abgeben</text><path d="M387.5049,2084.9033 L387.5049,2126.7822 L367.5049,2130.7822 L387.5049,2134.7822 L387.5049,2176.6611 A0,0 0 0 0 387.5049,2176.6611 L550.8447,2176.6611 A0,0 0 0 0 550.8447,2176.6611 L550.8447,2094.9033 L540.8447,2084.9033 L387.5049,2084.9033 A0,0 0 0 0 387.5049,2084.9033 " fill="#FEFFDD" style="stroke:#181818;stroke-width:0.5;"/><path d="M540.8447,2084.9033 L540.8447,2094.9033 L550.8447,2094.9033 L540.8447,2084.9033 " fill="#FEFFDD" style="stroke:#181818;stroke-width:0.5;"/><text fill="#000000" font-family="sans-serif" font-size="13" font-weight="bold" lengthAdjust="spacing" textLength="107.6372" x="393.5049" y="2103.3984">Ergebnisanzeige:</text><text fill="#000000" font-family="sans-serif" font-size="13" lengthAdjust="spacing" textLength="109.1035" x="393.5049" y="2119.75">- Gesamtpunktzahl</text><text fill="#000000" font-family="sans-serif" font-size="13" lengthAdjust="spacing" textLength="35.4009" x="393.5049" y="2136.1016">- Note</text><text fill="#000000" font-family="sans-serif" font-size="13" lengthAdjust="spacing" textLength="142.3398" x="393.5049" y="2152.4531">- Detailansicht pro Frage</text><text fill="#000000" font-family="sans-serif" font-size="13" lengthAdjust="spacing" textLength="117.0508" x="393.5049" y="2168.8047">- Richtige Antworten</text><rect fill="#F0F0F0" height="35.0938" rx="12.5" ry="12.5" style="stroke:#333333;stroke-width:0.5;" width="128.0645" x="239.4404" y="2113.2354"/><text fill="#000000" font-family="sans-serif" font-size="12" lengthAdjust="spacing" textLength="108.0645" x="249.4404" y="2135.6924">Result.jsp angezeigt</text><rect fill="#F0F0F0" height="35.0938" rx="12.5" ry="12.5" style="stroke:#333333;stroke-width:0.5;" width="118.7188" x="244.1133" y="2196.6611"/><text fill="#000000" font-family="sans-serif" font-size="12" lengthAdjust="spacing" textLength="98.7188" x="254.1133" y="2219.1182">Ergebnis reviewen</text><polygon fill="#F0F0F0" points="273.2092,2251.7549,333.7361,2251.7549,345.7361,2263.7549,333.7361,2275.7549,273.2092,2275.7549,261.2092,2263.7549,273.2092,2251.7549" style="stroke:#333333;stroke-width:0.5;"/><text fill="#000000" font-family="sans-serif" font-size="11" lengthAdjust="spacing" textLength="60.5269" x="273.2092" y="2268.2559">Neuer Test?</text><text fill="#000000" font-family="sans-serif" font-size="11" lengthAdjust="spacing" textLength="8.5615" x="252.6477" y="2261.3379">ja</text><text fill="#000000" font-family="sans-serif" font-size="11" lengthAdjust="spacing" textLength="20.7969" x="345.7361" y="2261.3379">nein</text><rect fill="#F0F0F0" height="35.0938" rx="12.5" ry="12.5" style="stroke:#333333;stroke-width:0.5;" width="117.3828" x="164.5791" y="2285.7549"/><text fill="#000000" font-family="sans-serif" font-size="12" lengthAdjust="spacing" textLength="97.3828" x="174.5791" y="2308.2119">TestList.jsp &#246;ffnen</text><ellipse cx="223.2705" cy="2351.8486" fill="none" rx="11" ry="11" style="stroke:#222222;stroke-width:1.0;"/><ellipse cx="223.2705" cy="2351.8486" fill="#222222" rx="6" ry="6" style="stroke:#222222;stroke-width:1.0;"/><rect fill="#F0F0F0" height="35.0938" rx="12.5" ry="12.5" style="stroke:#333333;stroke-width:0.5;" width="163.4258" x="301.9619" y="2285.7549"/><text fill="#000000" font-family="sans-serif" font-size="12" lengthAdjust="spacing" textLength="143.4258" x="311.9619" y="2308.2119">Abmelden oder Dashboard</text><ellipse cx="383.6748" cy="2351.8486" fill="none" rx="11" ry="11" style="stroke:#222222;stroke-width:1.0;"/><ellipse cx="383.6748" cy="2351.8486" fill="#222222" rx="6" ry="6" style="stroke:#222222;stroke-width:1.0;"/><line style="stroke:#000000;stroke-width:1.5;" x1="15" x2="15" y1="51.0645" y2="2368.8486"/><rect fill="#ADD8E6" height="2317.7842" style="stroke:#ADD8E6;stroke-width:1.0;" width="228.7383" x="632.9453" y="51.0645"/><rect fill="#F0F0F0" height="35.0938" rx="12.5" ry="12.5" style="stroke:#333333;stroke-width:0.5;" width="188.082" x="654.2734" y="283.9863"/><text fill="#000000" font-family="sans-serif" font-size="12" lengthAdjust="spacing" textLength="168.082" x="664.2734" y="306.4434">POST /api/test/start empfangen</text><rect fill="#F0F0F0" height="35.0938" rx="12.5" ry="12.5" style="stroke:#333333;stroke-width:0.5;" width="188.7207" x="653.9541" y="339.0801"/><text fill="#000000" font-family="sans-serif" font-size="12" lengthAdjust="spacing" textLength="168.7207" x="663.9541" y="361.5371">TestService.startTest() aufrufen</text><rect fill="#F0F0F0" height="35.0938" rx="12.5" ry="12.5" style="stroke:#333333;stroke-width:0.5;" width="200.0879" x="648.2705" y="1184.7002"/><text fill="#000000" font-family="sans-serif" font-size="12" lengthAdjust="spacing" textLength="180.0879" x="658.2705" y="1207.1572">POST /api/test/submit empfangen</text><rect fill="#F0F0F0" height="35.0938" rx="12.5" ry="12.5" style="stroke:#333333;stroke-width:0.5;" width="218.7383" x="638.9453" y="1239.7939"/><text fill="#000000" font-family="sans-serif" font-size="12" lengthAdjust="spacing" textLength="198.7383" x="648.9453" y="1262.251">TestService.submitAttempt() aufrufen</text><rect fill="#F0F0F0" height="35.0938" rx="12.5" ry="12.5" style="stroke:#333333;stroke-width:0.5;" width="163.4082" x="666.6104" y="2039.8096"/><text fill="#000000" font-family="sans-serif" font-size="12" lengthAdjust="spacing" textLength="143.4082" x="676.6104" y="2062.2666">AttemptResult an Frontend</text><line style="stroke:#000000;stroke-width:1.5;" x1="632.9453" x2="632.9453" y1="51.0645" y2="2368.8486"/><rect fill="#90EE90" height="2317.7842" style="stroke:#90EE90;stroke-width:1.0;" width="799.6924" x="861.6836" y="51.0645"/><path d="M1322.8633,384.1738 L1322.8633,417.877 L1302.8633,421.877 L1322.8633,425.877 L1322.8633,459.5801 A0,0 0 0 0 1322.8633,459.5801 L1504.2495,459.5801 A0,0 0 0 0 1504.2495,459.5801 L1504.2495,394.1738 L1494.2495,384.1738 L1322.8633,384.1738 A0,0 0 0 0 1322.8633,384.1738 " fill="#FEFFDD" style="stroke:#181818;stroke-width:0.5;"/><path d="M1494.2495,384.1738 L1494.2495,394.1738 L1504.2495,394.1738 L1494.2495,384.1738 " fill="#FEFFDD" style="stroke:#181818;stroke-width:0.5;"/><text fill="#000000" font-family="sans-serif" font-size="13" lengthAdjust="spacing" textLength="160.3862" x="1328.8633" y="402.6689">SELECT * FROM questions</text><text fill="#000000" font-family="sans-serif" font-size="13" lengthAdjust="spacing" textLength="121.0054" x="1328.8633" y="419.0205">WHERE difficulty = ?</text><text fill="#000000" font-family="sans-serif" font-size="13" lengthAdjust="spacing" textLength="137.9473" x="1328.8633" y="435.3721">ORDER BY RANDOM()</text><text fill="#000000" font-family="sans-serif" font-size="13" lengthAdjust="spacing" textLength="44.0654" x="1328.8633" y="451.7236">LIMIT ?</text><rect fill="#F0F0F0" height="35.0938" rx="12.5" ry="12.5" style="stroke:#333333;stroke-width:0.5;" width="194.0996" x="1108.7637" y="404.3301"/><text fill="#000000" font-family="sans-serif" font-size="12" lengthAdjust="spacing" textLength="174.0996" x="1118.7637" y="426.7871">Fragen nach Schwierigkeit laden</text><rect fill="#F0F0F0" height="35.0938" rx="12.5" ry="12.5" style="stroke:#333333;stroke-width:0.5;" width="139.4199" x="1136.1035" y="479.5801"/><text fill="#000000" font-family="sans-serif" font-size="12" lengthAdjust="spacing" textLength="119.4199" x="1146.1035" y="502.0371">Antwortoptionen laden</text><rect fill="#F0F0F0" height="35.0938" rx="12.5" ry="12.5" style="stroke:#333333;stroke-width:0.5;" width="168.7695" x="1121.4287" y="534.6738"/><text fill="#000000" font-family="sans-serif" font-size="12" lengthAdjust="spacing" textLength="148.7695" x="1131.4287" y="557.1309">Fragen an Frontend senden</text><path d="M1307.8486,1299.2588 L1307.8486,1308.4346 L1287.8486,1312.4346 L1307.8486,1316.4346 L1307.8486,1325.6104 A0,0 0 0 0 1307.8486,1325.6104 L1501.5557,1325.6104 A0,0 0 0 0 1501.5557,1325.6104 L1501.5557,1309.2588 L1491.5557,1299.2588 L1307.8486,1299.2588 A0,0 0 0 0 1307.8486,1299.2588 " fill="#FEFFDD" style="stroke:#181818;stroke-width:0.5;"/><path d="M1491.5557,1299.2588 L1491.5557,1309.2588 L1501.5557,1309.2588 L1491.5557,1299.2588 " fill="#FEFFDD" style="stroke:#181818;stroke-width:0.5;"/><text fill="#000000" font-family="sans-serif" font-size="13" lengthAdjust="spacing" textLength="172.707" x="1313.8486" y="1317.7539">totalPoints = 0, maxPoints = 0</text><rect fill="#F0F0F0" height="35.0938" rx="12.5" ry="12.5" style="stroke:#333333;stroke-width:0.5;" width="164.0703" x="1123.7783" y="1294.8877"/><text fill="#000000" font-family="sans-serif" font-size="12" lengthAdjust="spacing" textLength="144.0703" x="1133.7783" y="1317.3447">Gesamtpunkte initialisieren</text><rect fill="#F0F0F0" height="35.0938" rx="12.5" ry="12.5" style="stroke:#333333;stroke-width:0.5;" width="104.0469" x="1153.79" y="1393.9814"/><text fill="#000000" font-family="sans-serif" font-size="12" lengthAdjust="spacing" textLength="84.0469" x="1163.79" y="1416.4385">Frage bewerten</text><polygon fill="#F0F0F0" points="1184.1089,1449.0752,1227.5181,1449.0752,1239.5181,1461.0752,1227.5181,1473.0752,1184.1089,1473.0752,1172.1089,1461.0752,1184.1089,1449.0752" style="stroke:#333333;stroke-width:0.5;"/><text fill="#000000" font-family="sans-serif" font-size="11" lengthAdjust="spacing" textLength="43.4092" x="1184.1089" y="1465.5762">Fragetyp</text><rect fill="#F0F0F0" height="50.1875" rx="12.5" ry="12.5" style="stroke:#333333;stroke-width:0.5;" width="162.0957" x="867.6836" y="1510.7471"/><text fill="#000000" font-family="sans-serif" font-size="12" lengthAdjust="spacing" textLength="142.0957" x="877.6836" y="1533.2041">partialValue der gew&#228;hlten</text><text fill="#000000" font-family="sans-serif" font-size="12" lengthAdjust="spacing" textLength="85.3945" x="877.6836" y="1548.2979">Option addieren</text><rect fill="#F0F0F0" height="50.1875" rx="12.5" ry="12.5" style="stroke:#333333;stroke-width:0.5;" width="150.7285" x="1039.7793" y="1510.7471"/><text fill="#000000" font-family="sans-serif" font-size="12" lengthAdjust="spacing" textLength="106.7402" x="1049.7793" y="1533.2041">Jeden Token pr&#252;fen</text><text fill="#000000" font-family="sans-serif" font-size="12" lengthAdjust="spacing" textLength="130.7285" x="1049.7793" y="1548.2979">(exakt oder Alternativen)</text><rect fill="#F0F0F0" height="35.0938" rx="12.5" ry="12.5" style="stroke:#333333;stroke-width:0.5;" width="135.377" x="1210.5078" y="1510.7471"/><text fill="#000000" font-family="sans-serif" font-size="12" lengthAdjust="spacing" textLength="115.377" x="1220.5078" y="1533.2041">Exakter Textvergleich</text><rect fill="#F0F0F0" height="35.0938" rx="12.5" ry="12.5" style="stroke:#333333;stroke-width:0.5;" width="188.0586" x="1365.8848" y="1510.7471"/><text fill="#000000" font-family="sans-serif" font-size="12" lengthAdjust="spacing" textLength="168.0586" x="1375.8848" y="1533.2041">wie MC (AnswerOption w&#228;hlen)</text><polygon fill="#F0F0F0" points="1205.8135,1590.9346,1205.8135,1590.9346,1217.8135,1602.9346,1205.8135,1614.9346,1205.8135,1614.9346,1193.8135,1602.9346,1205.8135,1590.9346" style="stroke:#333333;stroke-width:0.5;"/><rect fill="#F0F0F0" height="35.0938" rx="12.5" ry="12.5" style="stroke:#333333;stroke-width:0.5;" width="149.4219" x="1131.1025" y="1634.9346"/><text fill="#000000" font-family="sans-serif" font-size="12" lengthAdjust="spacing" textLength="129.4219" x="1141.1025" y="1657.3916">Punkte zu total addieren</text><rect fill="#F0F0F0" height="35.0938" rx="12.5" ry="12.5" style="stroke:#333333;stroke-width:0.5;" width="134.0645" x="1138.7813" y="1690.0283"/><text fill="#000000" font-family="sans-serif" font-size="12" lengthAdjust="spacing" textLength="114.0645" x="1148.7813" y="1712.4854">Max-Punkte addieren</text><polygon fill="#F0F0F0" points="1205.8135,1349.9814,1217.8135,1361.9814,1205.8135,1373.9814,1193.8135,1361.9814,1205.8135,1349.9814" style="stroke:#333333;stroke-width:0.5;"/><polygon fill="#F0F0F0" points="1164.8508,1745.1221,1246.7761,1745.1221,1258.7761,1757.1221,1246.7761,1769.1221,1164.8508,1769.1221,1152.8508,1757.1221,1164.8508,1745.1221" style="stroke:#333333;stroke-width:0.5;"/><text fill="#000000" font-family="sans-serif" font-size="11" lengthAdjust="spacing" textLength="81.9253" x="1164.8508" y="1761.623">Weitere Fragen?</text><path d="M1282.1816,1793.4932 L1282.1816,1802.6689 L1262.1816,1806.6689 L1282.1816,1810.6689 L1282.1816,1819.8447 A0,0 0 0 0 1282.1816,1819.8447 L1475.5142,1819.8447 A0,0 0 0 0 1475.5142,1819.8447 L1475.5142,1803.4932 L1465.5142,1793.4932 L1282.1816,1793.4932 A0,0 0 0 0 1282.1816,1793.4932 " fill="#FEFFDD" style="stroke:#181818;stroke-width:0.5;"/><path d="M1465.5142,1793.4932 L1465.5142,1803.4932 L1475.5142,1803.4932 L1465.5142,1793.4932 " fill="#FEFFDD" style="stroke:#181818;stroke-width:0.5;"/><text fill="#000000" font-family="sans-serif" font-size="13" lengthAdjust="spacing" textLength="172.3325" x="1288.1816" y="1811.9883">ratio = totalPoints / maxPoints</text><rect fill="#F0F0F0" height="35.0938" rx="12.5" ry="12.5" style="stroke:#333333;stroke-width:0.5;" width="112.7363" x="1149.4453" y="1789.1221"/><text fill="#000000" font-family="sans-serif" font-size="12" lengthAdjust="spacing" textLength="92.7363" x="1159.4453" y="1811.5791">Quote berechnen</text><path d="M1278.5107,1834.2158 L1278.5107,1867.9189 L1258.5107,1871.9189 L1278.5107,1875.9189 L1278.5107,1909.6221 A0,0 0 0 0 1278.5107,1909.6221 L1656.376,1909.6221 A0,0 0 0 0 1656.376,1909.6221 L1656.376,1844.2158 L1646.376,1834.2158 L1278.5107,1834.2158 A0,0 0 0 0 1278.5107,1834.2158 " fill="#FEFFDD" style="stroke:#181818;stroke-width:0.5;"/><path d="M1646.376,1834.2158 L1646.376,1844.2158 L1656.376,1844.2158 L1646.376,1834.2158 " fill="#FEFFDD" style="stroke:#181818;stroke-width:0.5;"/><text fill="#000000" font-family="sans-serif" font-size="13" font-weight="bold" lengthAdjust="spacing" textLength="356.8652" x="1284.5107" y="1852.7109">Notenberechnung (Ist-Code, TestService.calculateGrade):</text><text fill="#000000" font-family="sans-serif" font-size="13" lengthAdjust="spacing" textLength="319.8013" x="1284.5107" y="1869.0625">Diff 1: 90%=1, 70%=2, 50%=3, 30%=4, 10%=5, sonst 6</text><text fill="#000000" font-family="sans-serif" font-size="13" lengthAdjust="spacing" textLength="319.8013" x="1284.5107" y="1885.4141">Diff 2: 93%=1, 73%=2, 53%=3, 33%=4, 13%=5, sonst 6</text><text fill="#000000" font-family="sans-serif" font-size="13" lengthAdjust="spacing" textLength="319.8013" x="1284.5107" y="1901.7656">Diff 3: 90%=1, 70%=2, 50%=3, 30%=4, 15%=5, sonst 6</text><rect fill="#F0F0F0" height="35.0938" rx="12.5" ry="12.5" style="stroke:#333333;stroke-width:0.5;" width="105.3945" x="1153.1162" y="1854.3721"/><text fill="#000000" font-family="sans-serif" font-size="12" lengthAdjust="spacing" textLength="85.3945" x="1163.1162" y="1876.8291">Note berechnen</text><rect fill="#F0F0F0" height="35.0938" rx="12.5" ry="12.5" style="stroke:#333333;stroke-width:0.5;" width="149.3926" x="1131.1172" y="1929.6221"/><text fill="#000000" font-family="sans-serif" font-size="12" lengthAdjust="spacing" textLength="129.3926" x="1141.1172" y="1952.0791">Attempt in DB speichern</text><rect fill="#F0F0F0" height="35.0938" rx="12.5" ry="12.5" style="stroke:#333333;stroke-width:0.5;" width="162.7285" x="1124.4492" y="1984.7158"/><text fill="#000000" font-family="sans-serif" font-size="12" lengthAdjust="spacing" textLength="142.7285" x="1134.4492" y="2007.1729">AttemptAnswers speichern</text><line style="stroke:#000000;stroke-width:1.5;" x1="861.6836" x2="861.6836" y1="51.0645" y2="2368.8486"/><line style="stroke:#000000;stroke-width:1.5;" x1="1661.376" x2="1661.376" y1="51.0645" y2="2368.8486"/><line style="stroke:#181818;stroke-width:1.0;" x1="303.4727" x2="303.4727" y1="98.7051" y2="118.7051"/><polygon fill="#181818" points="299.4727,108.7051,303.4727,118.7051,307.4727,108.7051,303.4727,112.7051" style="stroke:#181818;stroke-width:1.0;"/><line style="stroke:#181818;stroke-width:1.0;" x1="303.4727" x2="303.4727" y1="153.7988" y2="173.7988"/><polygon fill="#181818" points="299.4727,163.7988,303.4727,173.7988,307.4727,163.7988,303.4727,167.7988" style="stroke:#181818;stroke-width:1.0;"/><line style="stroke:#181818;stroke-width:1.0;" x1="303.4727" x2="303.4727" y1="208.8926" y2="228.8926"/><polygon fill="#181818" points="299.4727,218.8926,303.4727,228.8926,307.4727,218.8926,303.4727,222.8926" style="stroke:#181818;stroke-width:1.0;"/><line style="stroke:#181818;stroke-width:1.0;" x1="98.043" x2="98.043" y1="858.6191" y2="878.6191"/><polygon fill="#181818" points="94.043,868.6191,98.043,878.6191,102.043,868.6191,98.043,872.6191" style="stroke:#181818;stroke-width:1.0;"/><line style="stroke:#181818;stroke-width:1.0;" x1="98.043" x2="98.043" y1="913.7129" y2="944.2598"/><polygon fill="#181818" points="94.043,934.2598,98.043,944.2598,102.043,934.2598,98.043,938.2598" style="stroke:#181818;stroke-width:1.0;"/><line style="stroke:#181818;stroke-width:1.0;" x1="250.1182" x2="250.1182" y1="858.6191" y2="878.6191"/><polygon fill="#181818" points="246.1182,868.6191,250.1182,878.6191,254.1182,868.6191,250.1182,872.6191" style="stroke:#181818;stroke-width:1.0;"/><line style="stroke:#181818;stroke-width:1.0;" x1="250.1182" x2="250.1182" y1="913.7129" y2="944.2598"/><polygon fill="#181818" points="246.1182,934.2598,250.1182,944.2598,254.1182,934.2598,250.1182,938.2598" style="stroke:#181818;stroke-width:1.0;"/><line style="stroke:#181818;stroke-width:1.0;" x1="381.5127" x2="381.5127" y1="858.6191" y2="878.6191"/><polygon fill="#181818" points="377.5127,868.6191,381.5127,878.6191,385.5127,868.6191,381.5127,872.6191" style="stroke:#181818;stroke-width:1.0;"/><line style="stroke:#181818;stroke-width:1.0;" x1="381.5127" x2="381.5127" y1="913.7129" y2="944.2598"/><polygon fill="#181818" points="377.5127,934.2598,381.5127,944.2598,385.5127,934.2598,381.5127,938.2598" style="stroke:#181818;stroke-width:1.0;"/><line style="stroke:#181818;stroke-width:1.0;" x1="122.043" x2="219.7813" y1="846.6191" y2="846.6191"/><polygon fill="#181818" points="209.7813,842.6191,219.7813,846.6191,209.7813,850.6191,213.7813,846.6191" style="stroke:#181818;stroke-width:1.0;"/><line style="stroke:#181818;stroke-width:1.0;" x1="280.4551" x2="354.8442" y1="846.6191" y2="846.6191"/><polygon fill="#181818" points="344.8442,842.6191,354.8442,846.6191,344.8442,850.6191,348.8442,846.6191" style="stroke:#181818;stroke-width:1.0;"/><line style="stroke:#181818;stroke-width:1.0;" x1="303.4727" x2="303.4727" y1="814.6191" y2="819.6191"/><line style="stroke:#181818;stroke-width:1.0;" x1="303.4727" x2="98.043" y1="819.6191" y2="819.6191"/><line style="stroke:#181818;stroke-width:1.0;" x1="98.043" x2="98.043" y1="819.6191" y2="834.6191"/><polygon fill="#181818" points="94.043,824.6191,98.043,834.6191,102.043,824.6191,98.043,828.6191" style="stroke:#181818;stroke-width:1.0;"/><line style="stroke:#181818;stroke-width:1.0;" x1="408.1812" x2="521.9102" y1="846.6191" y2="846.6191"/><line style="stroke:#181818;stroke-width:1.0;" x1="521.9102" x2="521.9102" y1="846.6191" y2="874.0723"/><polygon fill="#181818" points="517.9102,864.0723,521.9102,874.0723,525.9102,864.0723,521.9102,868.0723" style="stroke:#181818;stroke-width:1.0;"/><line style="stroke:#181818;stroke-width:1.0;" x1="521.9102" x2="521.9102" y1="924.2598" y2="944.2598"/><polygon fill="#181818" points="517.9102,934.2598,521.9102,944.2598,525.9102,934.2598,521.9102,938.2598" style="stroke:#181818;stroke-width:1.0;"/><line style="stroke:#181818;stroke-width:1.0;" x1="98.043" x2="521.9102" y1="944.2598" y2="944.2598"/><line style="stroke:#181818;stroke-width:1.0;" x1="340.2361" x2="595.9453" y1="802.6191" y2="802.6191"/><polygon fill="#181818" points="591.9453,889.166,595.9453,899.166,599.9453,889.166,595.9453,893.166" style="stroke:#181818;stroke-width:1.0;"/><line style="stroke:#181818;stroke-width:1.0;" x1="595.9453" x2="595.9453" y1="802.6191" y2="976.2598"/><line style="stroke:#181818;stroke-width:1.0;" x1="595.9453" x2="315.4727" y1="976.2598" y2="976.2598"/><polygon fill="#181818" points="325.4727,972.2598,315.4727,976.2598,325.4727,980.2598,321.4727,976.2598" style="stroke:#181818;stroke-width:1.0;"/><line style="stroke:#181818;stroke-width:1.0;" x1="303.4727" x2="303.4727" y1="944.2598" y2="964.2598"/><polygon fill="#181818" points="299.4727,954.2598,303.4727,964.2598,307.4727,954.2598,303.4727,958.2598" style="stroke:#181818;stroke-width:1.0;"/><line style="stroke:#181818;stroke-width:1.0;" x1="303.4727" x2="303.4727" y1="770.6191" y2="790.6191"/><polygon fill="#181818" points="299.4727,780.6191,303.4727,790.6191,307.4727,780.6191,303.4727,784.6191" style="stroke:#181818;stroke-width:1.0;"/><line style="stroke:#181818;stroke-width:1.0;" x1="303.4727" x2="303.4727" y1="988.2598" y2="1008.2598"/><polygon fill="#181818" points="299.4727,998.2598,303.4727,1008.2598,307.4727,998.2598,303.4727,1002.2598" style="stroke:#181818;stroke-width:1.0;"/><line style="stroke:#181818;stroke-width:1.0;" x1="303.4727" x2="303.4727" y1="715.5254" y2="735.5254"/><polygon fill="#181818" points="299.4727,725.5254,303.4727,735.5254,307.4727,725.5254,303.4727,729.5254" style="stroke:#181818;stroke-width:1.0;"/><line style="stroke:#181818;stroke-width:1.0;" x1="389.771" x2="613.9453" y1="1075.3535" y2="1075.3535"/><polygon fill="#181818" points="609.9453,909.166,613.9453,899.166,617.9453,909.166,613.9453,905.166" style="stroke:#181818;stroke-width:1.0;"/><line style="stroke:#181818;stroke-width:1.0;" x1="613.9453" x2="613.9453" y1="703.5254" y2="1075.3535"/><line style="stroke:#181818;stroke-width:1.0;" x1="613.9453" x2="315.4727" y1="703.5254" y2="703.5254"/><polygon fill="#181818" points="325.4727,699.5254,315.4727,703.5254,325.4727,707.5254,321.4727,703.5254" style="stroke:#181818;stroke-width:1.0;"/><line style="stroke:#181818;stroke-width:1.0;" x1="303.4727" x2="303.4727" y1="1043.3535" y2="1063.3535"/><polygon fill="#181818" points="299.4727,1053.3535,303.4727,1063.3535,307.4727,1053.3535,303.4727,1057.3535" style="stroke:#181818;stroke-width:1.0;"/><line style="stroke:#181818;stroke-width:1.0;" x1="303.4727" x2="303.4727" y1="643.1934" y2="691.5254"/><polygon fill="#181818" points="299.4727,681.5254,303.4727,691.5254,307.4727,681.5254,303.4727,685.5254" style="stroke:#181818;stroke-width:1.0;"/><line style="stroke:#181818;stroke-width:1.0;" x1="303.4727" x2="303.4727" y1="1087.3535" y2="1129.6064"/><polygon fill="#181818" points="299.4727,1119.6064,303.4727,1129.6064,307.4727,1119.6064,303.4727,1123.6064" style="stroke:#181818;stroke-width:1.0;"/><text fill="#000000" font-family="sans-serif" font-size="11" lengthAdjust="spacing" textLength="20.7969" x="307.4727" y="1109.6895">nein</text><line style="stroke:#181818;stroke-width:1.0;" x1="303.4727" x2="303.4727" y1="2148.3291" y2="2196.6611"/><polygon fill="#181818" points="299.4727,2186.6611,303.4727,2196.6611,307.4727,2186.6611,303.4727,2190.6611" style="stroke:#181818;stroke-width:1.0;"/><line style="stroke:#181818;stroke-width:1.0;" x1="223.2705" x2="223.2705" y1="2320.8486" y2="2340.8486"/><polygon fill="#181818" points="219.2705,2330.8486,223.2705,2340.8486,227.2705,2330.8486,223.2705,2334.8486" style="stroke:#181818;stroke-width:1.0;"/><line style="stroke:#181818;stroke-width:1.0;" x1="383.6748" x2="383.6748" y1="2320.8486" y2="2340.8486"/><polygon fill="#181818" points="379.6748,2330.8486,383.6748,2340.8486,387.6748,2330.8486,383.6748,2334.8486" style="stroke:#181818;stroke-width:1.0;"/><line style="stroke:#181818;stroke-width:1.0;" x1="261.2092" x2="223.2705" y1="2263.7549" y2="2263.7549"/><line style="stroke:#181818;stroke-width:1.0;" x1="223.2705" x2="223.2705" y1="2263.7549" y2="2285.7549"/><polygon fill="#181818" points="219.2705,2275.7549,223.2705,2285.7549,227.2705,2275.7549,223.2705,2279.7549" style="stroke:#181818;stroke-width:1.0;"/><line style="stroke:#181818;stroke-width:1.0;" x1="345.7361" x2="383.6748" y1="2263.7549" y2="2263.7549"/><line style="stroke:#181818;stroke-width:1.0;" x1="383.6748" x2="383.6748" y1="2263.7549" y2="2285.7549"/><polygon fill="#181818" points="379.6748,2275.7549,383.6748,2285.7549,387.6748,2275.7549,383.6748,2279.7549" style="stroke:#181818;stroke-width:1.0;"/><line style="stroke:#181818;stroke-width:1.0;" x1="303.4727" x2="303.4727" y1="2231.7549" y2="2251.7549"/><polygon fill="#181818" points="299.4727,2241.7549,303.4727,2251.7549,307.4727,2241.7549,303.4727,2245.7549" style="stroke:#181818;stroke-width:1.0;"/><line style="stroke:#181818;stroke-width:1.0;" x1="748.3145" x2="748.3145" y1="319.0801" y2="339.0801"/><polygon fill="#181818" points="744.3145,329.0801,748.3145,339.0801,752.3145,329.0801,748.3145,333.0801" style="stroke:#181818;stroke-width:1.0;"/><line style="stroke:#181818;stroke-width:1.0;" x1="748.3145" x2="748.3145" y1="1219.7939" y2="1239.7939"/><polygon fill="#181818" points="744.3145,1229.7939,748.3145,1239.7939,752.3145,1229.7939,748.3145,1233.7939" style="stroke:#181818;stroke-width:1.0;"/><line style="stroke:#181818;stroke-width:1.0;" x1="1205.8135" x2="1205.8135" y1="439.4238" y2="479.5801"/><polygon fill="#181818" points="1201.8135,469.5801,1205.8135,479.5801,1209.8135,469.5801,1205.8135,473.5801" style="stroke:#181818;stroke-width:1.0;"/><line style="stroke:#181818;stroke-width:1.0;" x1="1205.8135" x2="1205.8135" y1="514.6738" y2="534.6738"/><polygon fill="#181818" points="1201.8135,524.6738,1205.8135,534.6738,1209.8135,524.6738,1205.8135,528.6738" style="stroke:#181818;stroke-width:1.0;"/><line style="stroke:#181818;stroke-width:1.0;" x1="1172.1089" x2="948.7314" y1="1461.0752" y2="1461.0752"/><line style="stroke:#181818;stroke-width:1.0;" x1="948.7314" x2="948.7314" y1="1461.0752" y2="1510.7471"/><polygon fill="#181818" points="944.7314,1500.7471,948.7314,1510.7471,952.7314,1500.7471,948.7314,1504.7471" style="stroke:#181818;stroke-width:1.0;"/><text fill="#000000" font-family="sans-serif" font-size="11" lengthAdjust="spacing" textLength="17.1069" x="948.7314" y="1490.4121">MC</text><line style="stroke:#181818;stroke-width:1.0;" x1="1239.5181" x2="1459.9141" y1="1461.0752" y2="1461.0752"/><line style="stroke:#181818;stroke-width:1.0;" x1="1459.9141" x2="1459.9141" y1="1461.0752" y2="1510.7471"/><polygon fill="#181818" points="1455.9141,1500.7471,1459.9141,1510.7471,1463.9141,1500.7471,1459.9141,1504.7471" style="stroke:#181818;stroke-width:1.0;"/><text fill="#000000" font-family="sans-serif" font-size="11" lengthAdjust="spacing" textLength="35.4492" x="1459.9141" y="1490.4121">IMAGE</text><line style="stroke:#181818;stroke-width:1.0;" x1="1115.1436" x2="1115.1436" y1="1461.0752" y2="1510.7471"/><polygon fill="#181818" points="1111.1436,1500.7471,1115.1436,1510.7471,1119.1436,1500.7471,1115.1436,1504.7471" style="stroke:#181818;stroke-width:1.0;"/><text fill="#000000" font-family="sans-serif" font-size="11" lengthAdjust="spacing" textLength="36.6738" x="1115.1436" y="1485.4121">CLOZE</text><line style="stroke:#181818;stroke-width:1.0;" x1="1278.1963" x2="1278.1963" y1="1461.0752" y2="1510.7471"/><polygon fill="#181818" points="1274.1963,1500.7471,1278.1963,1510.7471,1282.1963,1500.7471,1278.1963,1504.7471" style="stroke:#181818;stroke-width:1.0;"/><text fill="#000000" font-family="sans-serif" font-size="11" lengthAdjust="spacing" textLength="29.3369" x="1278.1963" y="1485.4121">FREE</text><line style="stroke:#181818;stroke-width:1.0;" x1="948.7314" x2="948.7314" y1="1560.9346" y2="1602.9346"/><line style="stroke:#181818;stroke-width:1.0;" x1="948.7314" x2="1193.8135" y1="1602.9346" y2="1602.9346"/><polygon fill="#181818" points="1183.8135,1598.9346,1193.8135,1602.9346,1183.8135,1606.9346,1187.8135,1602.9346" style="stroke:#181818;stroke-width:1.0;"/><line style="stroke:#181818;stroke-width:1.0;" x1="1459.9141" x2="1459.9141" y1="1545.8408" y2="1602.9346"/><line style="stroke:#181818;stroke-width:1.0;" x1="1459.9141" x2="1217.8135" y1="1602.9346" y2="1602.9346"/><polygon fill="#181818" points="1227.8135,1598.9346,1217.8135,1602.9346,1227.8135,1606.9346,1223.8135,1602.9346" style="stroke:#181818;stroke-width:1.0;"/><line style="stroke:#181818;stroke-width:1.0;" x1="1115.1436" x2="1115.1436" y1="1560.9346" y2="1602.9346"/><polygon fill="#181818" points="1111.1436,1592.9346,1115.1436,1602.9346,1119.1436,1592.9346,1115.1436,1596.9346" style="stroke:#181818;stroke-width:1.0;"/><line style="stroke:#181818;stroke-width:1.0;" x1="1278.1963" x2="1278.1963" y1="1545.8408" y2="1602.9346"/><polygon fill="#181818" points="1274.1963,1592.9346,1278.1963,1602.9346,1282.1963,1592.9346,1278.1963,1596.9346" style="stroke:#181818;stroke-width:1.0;"/><line style="stroke:#181818;stroke-width:1.0;" x1="1205.8135" x2="1205.8135" y1="1429.0752" y2="1449.0752"/><polygon fill="#181818" points="1201.8135,1439.0752,1205.8135,1449.0752,1209.8135,1439.0752,1205.8135,1443.0752" style="stroke:#181818;stroke-width:1.0;"/><line style="stroke:#181818;stroke-width:1.0;" x1="1205.8135" x2="1205.8135" y1="1614.9346" y2="1634.9346"/><polygon fill="#181818" points="1201.8135,1624.9346,1205.8135,1634.9346,1209.8135,1624.9346,1205.8135,1628.9346" style="stroke:#181818;stroke-width:1.0;"/><line style="stroke:#181818;stroke-width:1.0;" x1="1205.8135" x2="1205.8135" y1="1670.0283" y2="1690.0283"/><polygon fill="#181818" points="1201.8135,1680.0283,1205.8135,1690.0283,1209.8135,1680.0283,1205.8135,1684.0283" style="stroke:#181818;stroke-width:1.0;"/><line style="stroke:#181818;stroke-width:1.0;" x1="1205.8135" x2="1205.8135" y1="1373.9814" y2="1393.9814"/><polygon fill="#181818" points="1201.8135,1383.9814,1205.8135,1393.9814,1209.8135,1383.9814,1205.8135,1387.9814" style="stroke:#181818;stroke-width:1.0;"/><line style="stroke:#181818;stroke-width:1.0;" x1="1258.7761" x2="1565.9434" y1="1757.1221" y2="1757.1221"/><polygon fill="#181818" points="1561.9434,1580.9346,1565.9434,1570.9346,1569.9434,1580.9346,1565.9434,1576.9346" style="stroke:#181818;stroke-width:1.0;"/><line style="stroke:#181818;stroke-width:1.0;" x1="1565.9434" x2="1565.9434" y1="1361.9814" y2="1757.1221"/><line style="stroke:#181818;stroke-width:1.0;" x1="1565.9434" x2="1217.8135" y1="1361.9814" y2="1361.9814"/><polygon fill="#181818" points="1227.8135,1357.9814,1217.8135,1361.9814,1227.8135,1365.9814,1223.8135,1361.9814" style="stroke:#181818;stroke-width:1.0;"/><line style="stroke:#181818;stroke-width:1.0;" x1="1205.8135" x2="1205.8135" y1="1725.1221" y2="1745.1221"/><polygon fill="#181818" points="1201.8135,1735.1221,1205.8135,1745.1221,1209.8135,1735.1221,1205.8135,1739.1221" style="stroke:#181818;stroke-width:1.0;"/><line style="stroke:#181818;stroke-width:1.0;" x1="1205.8135" x2="1205.8135" y1="1329.9814" y2="1349.9814"/><polygon fill="#181818" points="1201.8135,1339.9814,1205.8135,1349.9814,1209.8135,1339.9814,1205.8135,1343.9814" style="stroke:#181818;stroke-width:1.0;"/><line style="stroke:#181818;stroke-width:1.0;" x1="1205.8135" x2="1205.8135" y1="1769.1221" y2="1789.1221"/><polygon fill="#181818" points="1201.8135,1779.1221,1205.8135,1789.1221,1209.8135,1779.1221,1205.8135,1783.1221" style="stroke:#181818;stroke-width:1.0;"/><line style="stroke:#181818;stroke-width:1.0;" x1="1205.8135" x2="1205.8135" y1="1824.2158" y2="1854.3721"/><polygon fill="#181818" points="1201.8135,1844.3721,1205.8135,1854.3721,1209.8135,1844.3721,1205.8135,1848.3721" style="stroke:#181818;stroke-width:1.0;"/><line style="stroke:#181818;stroke-width:1.0;" x1="1205.8135" x2="1205.8135" y1="1889.4658" y2="1929.6221"/><polygon fill="#181818" points="1201.8135,1919.6221,1205.8135,1929.6221,1209.8135,1919.6221,1205.8135,1923.6221" style="stroke:#181818;stroke-width:1.0;"/><line style="stroke:#181818;stroke-width:1.0;" x1="1205.8135" x2="1205.8135" y1="1964.7158" y2="1984.7158"/><polygon fill="#181818" points="1201.8135,1974.7158,1205.8135,1984.7158,1209.8135,1974.7158,1205.8135,1978.7158" style="stroke:#181818;stroke-width:1.0;"/><line style="stroke:#181818;stroke-width:1.0;" x1="303.4727" x2="303.4727" y1="263.9863" y2="268.9863"/><line style="stroke:#181818;stroke-width:1.0;" x1="303.4727" x2="748.3145" y1="268.9863" y2="268.9863"/><line style="stroke:#181818;stroke-width:1.0;" x1="748.3145" x2="748.3145" y1="268.9863" y2="283.9863"/><polygon fill="#181818" points="744.3145,273.9863,748.3145,283.9863,752.3145,273.9863,748.3145,277.9863" style="stroke:#181818;stroke-width:1.0;"/><line style="stroke:#181818;stroke-width:1.0;" x1="748.3145" x2="748.3145" y1="374.1738" y2="379.1738"/><line style="stroke:#181818;stroke-width:1.0;" x1="748.3145" x2="1205.8135" y1="379.1738" y2="379.1738"/><line style="stroke:#181818;stroke-width:1.0;" x1="1205.8135" x2="1205.8135" y1="379.1738" y2="404.3301"/><polygon fill="#181818" points="1201.8135,394.3301,1205.8135,404.3301,1209.8135,394.3301,1205.8135,398.3301" style="stroke:#181818;stroke-width:1.0;"/><line style="stroke:#181818;stroke-width:1.0;" x1="1205.8135" x2="1205.8135" y1="569.7676" y2="576.4336"/><line style="stroke:#181818;stroke-width:1.0;" x1="1205.8135" x2="303.4727" y1="576.4336" y2="576.4336"/><line style="stroke:#181818;stroke-width:1.0;" x1="303.4727" x2="303.4727" y1="576.4336" y2="608.0996"/><polygon fill="#181818" points="299.4727,598.0996,303.4727,608.0996,307.4727,598.0996,303.4727,602.0996" style="stroke:#181818;stroke-width:1.0;"/><line style="stroke:#181818;stroke-width:1.0;" x1="303.4727" x2="303.4727" y1="1164.7002" y2="1169.7002"/><line style="stroke:#181818;stroke-width:1.0;" x1="303.4727" x2="748.3145" y1="1169.7002" y2="1169.7002"/><line style="stroke:#181818;stroke-width:1.0;" x1="748.3145" x2="748.3145" y1="1169.7002" y2="1184.7002"/><polygon fill="#181818" points="744.3145,1174.7002,748.3145,1184.7002,752.3145,1174.7002,748.3145,1178.7002" style="stroke:#181818;stroke-width:1.0;"/><line style="stroke:#181818;stroke-width:1.0;" x1="748.3145" x2="748.3145" y1="1274.8877" y2="1279.8877"/><line style="stroke:#181818;stroke-width:1.0;" x1="748.3145" x2="1205.8135" y1="1279.8877" y2="1279.8877"/><line style="stroke:#181818;stroke-width:1.0;" x1="1205.8135" x2="1205.8135" y1="1279.8877" y2="1294.8877"/><polygon fill="#181818" points="1201.8135,1284.8877,1205.8135,1294.8877,1209.8135,1284.8877,1205.8135,1288.8877" style="stroke:#181818;stroke-width:1.0;"/><line style="stroke:#181818;stroke-width:1.0;" x1="1205.8135" x2="1205.8135" y1="2019.8096" y2="2024.8096"/><line style="stroke:#181818;stroke-width:1.0;" x1="1205.8135" x2="748.3145" y1="2024.8096" y2="2024.8096"/><line style="stroke:#181818;stroke-width:1.0;" x1="748.3145" x2="748.3145" y1="2024.8096" y2="2039.8096"/><polygon fill="#181818" points="744.3145,2029.8096,748.3145,2039.8096,752.3145,2029.8096,748.3145,2033.8096" style="stroke:#181818;stroke-width:1.0;"/><line style="stroke:#181818;stroke-width:1.0;" x1="748.3145" x2="748.3145" y1="2074.9033" y2="2081.5693"/><line style="stroke:#181818;stroke-width:1.0;" x1="748.3145" x2="303.4727" y1="2081.5693" y2="2081.5693"/><line style="stroke:#181818;stroke-width:1.0;" x1="303.4727" x2="303.4727" y1="2081.5693" y2="2113.2354"/><polygon fill="#181818" points="299.4727,2103.2354,303.4727,2113.2354,307.4727,2103.2354,303.4727,2107.2354" style="stroke:#181818;stroke-width:1.0;"/><text fill="#000000" font-family="sans-serif" font-size="18" lengthAdjust="spacing" textLength="62.0508" x="292.9473" y="69.75">Student</text><text fill="#000000" font-family="sans-serif" font-size="18" lengthAdjust="spacing" textLength="91.0283" x="701.8003" y="69.75">TestServlet</text><text fill="#000000" font-family="sans-serif" font-size="18" lengthAdjust="spacing" textLength="95.0273" x="1214.0161" y="69.75">TestService</text><!--SRC=[bLLjRzis4FwkNt50CK0Ex2QfbmvpqHMENx9iTfmvnee5_K9B9uarJRaaPIT1Vav-Gp_bc__OZgGKordMRcrH9NVt78_FFNSqt0Y4xiBmDJVR1wDZpbB5bajemQNQFYQ5J7LhAF8DX8CRjcoDyxZGZI3G2ovNZ2A1HGvyUygYHQhoGiQzNEGANYL7zkzBaRcAKPLHRVSd2EwlJ16ZDFU1DaoP8EZipWDMwCts8HCetmMTgoZRS5GyNI0tKDeXF6wr6-JjoZkM2HWgbfBr2HNSlnhnD3Edei3x6MfpXMeja8xhN4wkPd38LlpGaFtG7G-uN2LCfkx0Afn7-DfvhI5iK5M9Af9wzZE5AEzhyPI-h4IoA8FzqWMBBLZc1a5PU01mDHWDUZCuWE5qCeOl1QNYkTJa-VZhO3g0c2S9ZmfXRk4zV23pPDeVJE7qBvXsB_gJSTWWs-XyV3uZByeORFR0qc8skJBvogQZSigpg-gO9CPoQIn2qt_-KayjSHHC2obHlVwiLs2PkKEU6ehQA__WeDQr8J9JADITWmDojM36bwY0MR51c30XD2nocV2qK4IAQRYWtv5BXEiDrr66T5wASycrHkVi2b9hLNAH0CKkcN2k2xRcAREtWxiIN4RMQ52uefeetjyRviZKd5fXhmj0_tW2eNEPszM71XZAGbPl7_Tg1agnH-cUHAqRXKQBweqcruDzu6Zx62tS3NIoVHJ_W0odWsU8eR95tXXxOIAa3e3mVDmz6pIgq5CkOkeF4xUQIALJQ20_IUPhVG9Aqb6m-rf6hWi5SliGPTfKr3bIF6UmoJXn7rxa9ED24d5bHbCrXEZY6iBFh16qVW59bP8ud720pSkY_ySK5lCb_yOOEdVN60hupwCOTCvGiwLP5N91PNF93MU2UvxgSzW1anicBdCkZQOvEsh2ajtiVdr9I1jKEndf3JV4qvEKR7SYPfj58d8TwD1AjAV_oOWAe7K8AJhzK99FSb9gAexBsYguLvFFy1lISC8ijr9QsLrjaI7Uq811RZDsAPcID1Dhb8rT3YSlds9WWoboHjfQqwm9v56sYwmfgqDx2yOz2BjIqrNB0al5k-Ia9N_jKa-NdkMxmfEvTvdEcDsqoe2w_PdOFbhLgvt0g8D_5BPBSx96cNpUDMNddnfKxzxXhdK4l_XNj5jUrYrBDxryn80shHwHsOIw-Y8cQ0KpWsUArcZ3xxS-RMOuxi3FHp-yFsx2J_HvquGJ-hIRqARFZqqufiz94pHjT0DlAz0R0hKzgEr1RGzgUr3x9L3xEoUTx87gBu4V6f8_z4z1hspBIIRldZo-mxhk-iRSbg0fQdgKwk_8_WFY_TzzFCfrpwGDmEhXg8sjVTpzlhUtiJ_qqJ0kcDHKhA51oBrSd6zgRPG8kjN-gpDHdGOArvm6s5xKxjyBBDnCQ5C-0NwhaMojRSIrlyVsQv98hrjDhq3Wjx5TV2wsEr-Yi1FgPh7FT3RFcOftuMxt_Wq0]--></g></svg>