<svg xmlns="http://www.w3.org/2000/svg" xmlns:xlink="http://www.w3.org/1999/xlink" contentStyleType="text/css" height="1951px" preserveAspectRatio="none" style="width:710px;height:1951px;background:#FFFFFF;" version="1.1" viewBox="0 0 710 1951" width="710px" zoomAndPan="magnify"><title>Activity-Diagramm - Login-Flow</title><defs/><g><text fill="#000000" font-family="sans-serif" font-size="14" font-weight="bold" lengthAdjust="spacing" textLength="210.7861" x="248.2466" y="34.5332">Activity-Diagramm - Login-Flow</text><rect fill="none" height="22.6406" style="stroke:none;stroke-width:1.0;" width="677.2793" x="15" y="51.0645"/><ellipse cx="180.5859" cy="88.7051" fill="#222222" rx="10" ry="10" style="stroke:#222222;stroke-width:1.0;"/><rect fill="#F1F1F1" height="35.0938" rx="12.5" ry="12.5" style="stroke:#181818;stroke-width:0.5;" width="165.4297" x="97.8711" y="118.7051"/><text fill="#000000" font-family="sans-serif" font-size="12" lengthAdjust="spacing" textLength="145.4297" x="107.8711" y="141.1621">Benutzer &#246;ffnet Login-Seite</text><rect fill="#F1F1F1" height="35.0938" rx="12.5" ry="12.5" style="stroke:#181818;stroke-width:0.5;" width="153.4063" x="103.8828" y="173.7988"/><text fill="#000000" font-family="sans-serif" font-size="12" lengthAdjust="spacing" textLength="133.4063" x="113.8828" y="196.2559">Login-Formular anzeigen</text><rect fill="#F1F1F1" height="35.0938" rx="12.5" ry="12.5" style="stroke:#181818;stroke-width:0.5;" width="213.7871" x="73.6924" y="228.8926"/><text fill="#000000" font-family="sans-serif" font-size="12" lengthAdjust="spacing" textLength="193.7871" x="83.6924" y="251.3496">Benutzername + Passwort eingeben</text><rect fill="#F1F1F1" height="35.0938" rx="12.5" ry="12.5" style="stroke:#181818;stroke-width:0.5;" width="128.0645" x="116.5537" y="283.9863"/><text fill="#000000" font-family="sans-serif" font-size="12" lengthAdjust="spacing" textLength="108.0645" x="126.5537" y="306.4434">Login-Button klicken</text><rect fill="#F1F1F1" height="35.0938" rx="12.5" ry="12.5" style="stroke:#181818;stroke-width:0.5;" width="211.2852" x="74.9434" y="608.373"/><text fill="#000000" font-family="sans-serif" font-size="12" lengthAdjust="spacing" textLength="191.2852" x="84.9434" y="630.8301">Fehlermeldung: "Invalid credentials"</text><ellipse cx="180.5859" cy="674.4668" fill="none" rx="11" ry="11" style="stroke:#222222;stroke-width:1.0;"/><ellipse cx="180.5859" cy="674.4668" fill="#222222" rx="6" ry="6" style="stroke:#222222;stroke-width:1.0;"/><rect fill="#F1F1F1" height="35.0938" rx="12.5" ry="12.5" style="stroke:#181818;stroke-width:0.5;" width="218.75" x="71.2109" y="727.4668"/><text fill="#000000" font-family="sans-serif" font-size="12" lengthAdjust="spacing" textLength="198.75" x="81.2109" y="749.9238">userDao.findByUsername(username)</text><rect fill="#F1F1F1" height="35.0938" rx="12.5" ry="12.5" style="stroke:#181818;stroke-width:0.5;" width="156.0781" x="102.5469" y="831.4785"/><text fill="#000000" font-family="sans-serif" font-size="12" lengthAdjust="spacing" textLength="136.0781" x="112.5469" y="853.9355">IllegalArgumentException</text><rect fill="#F1F1F1" height="35.0938" rx="12.5" ry="12.5" style="stroke:#181818;stroke-width:0.5;" width="211.2852" x="74.9434" y="886.5723"/><text fill="#000000" font-family="sans-serif" font-size="12" lengthAdjust="spacing" textLength="191.2852" x="84.9434" y="909.0293">Fehlermeldung: "Invalid credentials"</text><ellipse cx="180.5859" cy="952.666" fill="none" rx="11" ry="11" style="stroke:#222222;stroke-width:1.0;"/><ellipse cx="180.5859" cy="952.666" fill="#222222" rx="6" ry="6" style="stroke:#222222;stroke-width:1.0;"/><polygon fill="#F1F1F1" points="131.0457,782.5605,230.1262,782.5605,242.1262,794.5605,230.1262,806.5605,131.0457,806.5605,119.0457,794.5605,131.0457,782.5605" style="stroke:#181818;stroke-width:0.5;"/><text fill="#000000" font-family="sans-serif" font-size="11" lengthAdjust="spacing" textLength="22.623" x="184.5859" y="817.9795">Nein</text><text fill="#000000" font-family="sans-serif" font-size="11" lengthAdjust="spacing" textLength="99.0806" x="131.0457" y="799.0615">Benutzer gefunden?</text><text fill="#000000" font-family="sans-serif" font-size="11" lengthAdjust="spacing" textLength="11.6177" x="242.1262" y="792.1436">Ja</text><path d="M294.9375,995.666 L294.9375,1021.1934 L274.9375,1025.1934 L294.9375,1029.1934 L294.9375,1054.7207 A0,0 0 0 0 294.9375,1054.7207 L420.7437,1054.7207 A0,0 0 0 0 420.7437,1054.7207 L420.7437,1005.666 L410.7437,995.666 L294.9375,995.666 A0,0 0 0 0 294.9375,995.666 " fill="#FEFFDD" style="stroke:#181818;stroke-width:0.5;"/><path d="M410.7437,995.666 L410.7437,1005.666 L420.7437,1005.666 L410.7437,995.666 " fill="#FEFFDD" style="stroke:#181818;stroke-width:0.5;"/><text fill="#000000" font-family="sans-serif" font-size="13" lengthAdjust="spacing" textLength="99.7026" x="300.9375" y="1014.1611">SHA-256 mit Salt</text><text fill="#000000" font-family="sans-serif" font-size="13" lengthAdjust="spacing" textLength="104.8062" x="300.9375" y="1030.5127">10.000 Iterationen</text><text fill="#000000" font-family="sans-serif" font-size="13" lengthAdjust="spacing" textLength="88.8735" x="300.9375" y="1046.8643">Hash-Vergleich</text><rect fill="#F1F1F1" height="35.0938" rx="12.5" ry="12.5" style="stroke:#181818;stroke-width:0.5;" width="188.7031" x="86.2344" y="1007.6465"/><text fill="#000000" font-family="sans-serif" font-size="12" lengthAdjust="spacing" textLength="168.7031" x="96.2344" y="1030.1035">PasswordUtils.verifyPassword()</text><rect fill="#F1F1F1" height="35.0938" rx="12.5" ry="12.5" style="stroke:#181818;stroke-width:0.5;" width="156.0781" x="102.5469" y="1123.6387"/><text fill="#000000" font-family="sans-serif" font-size="12" lengthAdjust="spacing" textLength="136.0781" x="112.5469" y="1146.0957">IllegalArgumentException</text><rect fill="#F1F1F1" height="35.0938" rx="12.5" ry="12.5" style="stroke:#181818;stroke-width:0.5;" width="211.2852" x="74.9434" y="1178.7324"/><text fill="#000000" font-family="sans-serif" font-size="12" lengthAdjust="spacing" textLength="191.2852" x="84.9434" y="1201.1895">Fehlermeldung: "Invalid credentials"</text><ellipse cx="180.5859" cy="1244.8262" fill="none" rx="11" ry="11" style="stroke:#222222;stroke-width:1.0;"/><ellipse cx="180.5859" cy="1244.8262" fill="#222222" rx="6" ry="6" style="stroke:#222222;stroke-width:1.0;"/><polygon fill="#F1F1F1" points="136.5725,1074.7207,224.5994,1074.7207,236.5994,1086.7207,224.5994,1098.7207,136.5725,1098.7207,124.5725,1086.7207,136.5725,1074.7207" style="stroke:#181818;stroke-width:0.5;"/><text fill="#000000" font-family="sans-serif" font-size="11" lengthAdjust="spacing" textLength="22.623" x="184.5859" y="1110.1396">Nein</text><text fill="#000000" font-family="sans-serif" font-size="11" lengthAdjust="spacing" textLength="88.0269" x="136.5725" y="1091.2217">Passwort korrekt?</text><text fill="#000000" font-family="sans-serif" font-size="11" lengthAdjust="spacing" textLength="11.6177" x="236.5994" y="1084.3037">Ja</text><rect fill="#F1F1F1" height="35.0938" rx="12.5" ry="12.5" style="stroke:#181818;stroke-width:0.5;" width="133.3906" x="113.8906" y="1297.8262"/><text fill="#000000" font-family="sans-serif" font-size="12" lengthAdjust="spacing" textLength="113.3906" x="123.8906" y="1320.2832">HttpSession erstellen</text><rect fill="#F1F1F1" height="35.0938" rx="12.5" ry="12.5" style="stroke:#181818;stroke-width:0.5;" width="242.6094" x="59.2813" y="1352.9199"/><text fill="#000000" font-family="sans-serif" font-size="12" lengthAdjust="spacing" textLength="222.6094" x="69.2813" y="1375.377">session.setAttribute("userId", user.getId())</text><rect fill="#F1F1F1" height="35.0938" rx="12.5" ry="12.5" style="stroke:#181818;stroke-width:0.5;" width="243.9395" x="58.6162" y="1408.0137"/><text fill="#000000" font-family="sans-serif" font-size="12" lengthAdjust="spacing" textLength="223.9395" x="68.6162" y="1430.4707">session.setAttribute("role", user.getRole())</text><rect fill="#F1F1F1" height="35.0938" rx="12.5" ry="12.5" style="stroke:#181818;stroke-width:0.5;" width="152.0762" x="104.5479" y="1463.1074"/><text fill="#000000" font-family="sans-serif" font-size="12" lengthAdjust="spacing" textLength="132.0762" x="114.5479" y="1485.5645">JSON Response senden</text><rect fill="#F1F1F1" height="35.0938" rx="12.5" ry="12.5" style="stroke:#181818;stroke-width:0.5;" width="130.7305" x="115.2207" y="1518.2012"/><text fill="#000000" font-family="sans-serif" font-size="12" lengthAdjust="spacing" textLength="110.7305" x="125.2207" y="1540.6582">{ id, username, role }</text><rect fill="#F1F1F1" height="35.0938" rx="12.5" ry="12.5" style="stroke:#181818;stroke-width:0.5;" width="137.4043" x="111.8838" y="1573.2949"/><text fill="#000000" font-family="sans-serif" font-size="12" lengthAdjust="spacing" textLength="117.4043" x="121.8838" y="1595.752">Response verarbeiten</text><rect fill="#F1F1F1" height="35.0938" rx="12.5" ry="12.5" style="stroke:#181818;stroke-width:0.5;" width="158.082" x="101.5449" y="1628.3887"/><text fill="#000000" font-family="sans-serif" font-size="12" lengthAdjust="spacing" textLength="138.082" x="111.5449" y="1650.8457">sessionStorage speichern</text><rect fill="#F1F1F1" height="35.0938" rx="12.5" ry="12.5" style="stroke:#181818;stroke-width:0.5;" width="142.7305" x="109.2207" y="1683.4824"/><text fill="#000000" font-family="sans-serif" font-size="12" lengthAdjust="spacing" textLength="122.7305" x="119.2207" y="1705.9395">Redirect zu Dashboard</text><polygon fill="#F1F1F1" points="143.2031,1738.5762,217.9688,1738.5762,229.9688,1750.5762,217.9688,1762.5762,143.2031,1762.5762,131.2031,1750.5762,143.2031,1738.5762" style="stroke:#181818;stroke-width:0.5;"/><text fill="#000000" font-family="sans-serif" font-size="11" lengthAdjust="spacing" textLength="74.7656" x="143.2031" y="1755.0771">role = "admin"?</text><text fill="#000000" font-family="sans-serif" font-size="11" lengthAdjust="spacing" textLength="11.6177" x="119.5854" y="1748.1592">Ja</text><text fill="#000000" font-family="sans-serif" font-size="11" lengthAdjust="spacing" textLength="22.623" x="229.9688" y="1748.1592">Nein</text><rect fill="#F1F1F1" height="35.0938" rx="12.5" ry="12.5" style="stroke:#181818;stroke-width:0.5;" width="140.7441" x="21" y="1772.5762"/><text fill="#000000" font-family="sans-serif" font-size="12" lengthAdjust="spacing" textLength="120.7441" x="31" y="1795.0332">Admin-Panel anzeigen</text><rect fill="#F1F1F1" height="35.0938" rx="12.5" ry="12.5" style="stroke:#181818;stroke-width:0.5;" width="176.1113" x="181.7441" y="1772.5762"/><text fill="#000000" font-family="sans-serif" font-size="12" lengthAdjust="spacing" textLength="156.1113" x="191.7441" y="1795.0332">Student-Dashboard anzeigen</text><polygon fill="#F1F1F1" points="180.5859,1813.6699,192.5859,1825.6699,180.5859,1837.6699,168.5859,1825.6699,180.5859,1813.6699" style="stroke:#181818;stroke-width:0.5;"/><path d="M211.5859,1847.6699 L211.5859,1889.5488 L191.5859,1893.5488 L211.5859,1897.5488 L211.5859,1939.4277 A0,0 0 0 0 211.5859,1939.4277 L414.6812,1939.4277 A0,0 0 0 0 414.6812,1939.4277 L414.6812,1857.6699 L404.6812,1847.6699 L211.5859,1847.6699 A0,0 0 0 0 211.5859,1847.6699 " fill="#FEFFDD" style="stroke:#181818;stroke-width:0.5;"/><path d="M404.6812,1847.6699 L404.6812,1857.6699 L414.6812,1857.6699 L404.6812,1847.6699 " fill="#FEFFDD" style="stroke:#181818;stroke-width:0.5;"/><text fill="#000000" font-family="sans-serif" font-size="13" font-weight="bold" lengthAdjust="spacing" textLength="67.1836" x="217.5859" y="1866.165">Sicherheit:</text><text fill="#000000" font-family="sans-serif" font-size="13" lengthAdjust="spacing" textLength="179.207" x="217.5859" y="1882.5166">- Generische Fehlermeldungen</text><text fill="#000000" font-family="sans-serif" font-size="13" lengthAdjust="spacing" textLength="149.2144" x="217.5859" y="1898.8682">- SHA-256 + Salt Hashing</text><text fill="#000000" font-family="sans-serif" font-size="13" lengthAdjust="spacing" textLength="134.4053" x="217.5859" y="1915.2197">- Standard HttpSession</text><text fill="#000000" font-family="sans-serif" font-size="13" lengthAdjust="spacing" textLength="182.0952" x="217.5859" y="1931.5713">- Keine Email-Benachrichtigung</text><ellipse cx="180.5859" cy="1893.5488" fill="none" rx="11" ry="11" style="stroke:#222222;stroke-width:1.0;"/><ellipse cx="180.5859" cy="1893.5488" fill="#222222" rx="6" ry="6" style="stroke:#222222;stroke-width:1.0;"/><line style="stroke:#000000;stroke-width:1.5;" x1="15" x2="15" y1="51.0645" y2="1939.4277"/><rect fill="#F1F1F1" height="35.0938" rx="12.5" ry="12.5" style="stroke:#181818;stroke-width:0.5;" width="194.1113" x="459.0806" y="339.0801"/><text fill="#000000" font-family="sans-serif" font-size="12" lengthAdjust="spacing" textLength="174.1113" x="469.0806" y="361.5371">POST /api/auth/login empfangen</text><rect fill="#F1F1F1" height="35.0938" rx="12.5" ry="12.5" style="stroke:#181818;stroke-width:0.5;" width="248.7852" x="431.7437" y="394.1738"/><text fill="#000000" font-family="sans-serif" font-size="12" lengthAdjust="spacing" textLength="228.7852" x="441.7437" y="416.6309">JSON Body parsen: {username, password}</text><rect fill="#F1F1F1" height="35.0938" rx="12.5" ry="12.5" style="stroke:#181818;stroke-width:0.5;" width="172.7715" x="469.7505" y="449.2676"/><text fill="#000000" font-family="sans-serif" font-size="12" lengthAdjust="spacing" textLength="152.7715" x="479.7505" y="471.7246">validateLoginInput() aufrufen</text><rect fill="#F1F1F1" height="35.0938" rx="12.5" ry="12.5" style="stroke:#181818;stroke-width:0.5;" width="156.0781" x="478.0972" y="553.2793"/><text fill="#000000" font-family="sans-serif" font-size="12" lengthAdjust="spacing" textLength="136.0781" x="488.0972" y="575.7363">IllegalArgumentException</text><polygon fill="#F1F1F1" points="526.1682,504.3613,586.1042,504.3613,598.1042,516.3613,586.1042,528.3613,526.1682,528.3613,514.1682,516.3613,526.1682,504.3613" style="stroke:#181818;stroke-width:0.5;"/><text fill="#000000" font-family="sans-serif" font-size="11" lengthAdjust="spacing" textLength="22.623" x="560.1362" y="539.7803">Nein</text><text fill="#000000" font-family="sans-serif" font-size="11" lengthAdjust="spacing" textLength="59.936" x="526.1682" y="520.8623">Input g&#252;ltig?</text><text fill="#000000" font-family="sans-serif" font-size="11" lengthAdjust="spacing" textLength="11.6177" x="598.1042" y="513.9443">Ja</text><line style="stroke:#000000;stroke-width:1.5;" x1="425.7437" x2="425.7437" y1="51.0645" y2="1939.4277"/><line style="stroke:#000000;stroke-width:1.5;" x1="690.7788" x2="690.7788" y1="51.0645" y2="1939.4277"/><line style="stroke:#181818;stroke-width:1.0;" x1="180.5859" x2="180.5859" y1="98.7051" y2="118.7051"/><polygon fill="#181818" points="176.5859,108.7051,180.5859,118.7051,184.5859,108.7051,180.5859,112.7051" style="stroke:#181818;stroke-width:1.0;"/><line style="stroke:#181818;stroke-width:1.0;" x1="180.5859" x2="180.5859" y1="153.7988" y2="173.7988"/><polygon fill="#181818" points="176.5859,163.7988,180.5859,173.7988,184.5859,163.7988,180.5859,167.7988" style="stroke:#181818;stroke-width:1.0;"/><line style="stroke:#181818;stroke-width:1.0;" x1="180.5859" x2="180.5859" y1="208.8926" y2="228.8926"/><polygon fill="#181818" points="176.5859,218.8926,180.5859,228.8926,184.5859,218.8926,180.5859,222.8926" style="stroke:#181818;stroke-width:1.0;"/><line style="stroke:#181818;stroke-width:1.0;" x1="180.5859" x2="180.5859" y1="263.9863" y2="283.9863"/><polygon fill="#181818" points="176.5859,273.9863,180.5859,283.9863,184.5859,273.9863,180.5859,277.9863" style="stroke:#181818;stroke-width:1.0;"/><line style="stroke:#181818;stroke-width:1.0;" x1="180.5859" x2="180.5859" y1="643.4668" y2="663.4668"/><polygon fill="#181818" points="176.5859,653.4668,180.5859,663.4668,184.5859,653.4668,180.5859,657.4668" style="stroke:#181818;stroke-width:1.0;"/><line style="stroke:#181818;stroke-width:1.0;" x1="180.5859" x2="180.5859" y1="866.5723" y2="886.5723"/><polygon fill="#181818" points="176.5859,876.5723,180.5859,886.5723,184.5859,876.5723,180.5859,880.5723" style="stroke:#181818;stroke-width:1.0;"/><line style="stroke:#181818;stroke-width:1.0;" x1="180.5859" x2="180.5859" y1="921.666" y2="941.666"/><polygon fill="#181818" points="176.5859,931.666,180.5859,941.666,184.5859,931.666,180.5859,935.666" style="stroke:#181818;stroke-width:1.0;"/><line style="stroke:#181818;stroke-width:1.0;" x1="180.5859" x2="180.5859" y1="806.5605" y2="831.4785"/><polygon fill="#181818" points="176.5859,821.4785,180.5859,831.4785,184.5859,821.4785,180.5859,825.4785" style="stroke:#181818;stroke-width:1.0;"/><line style="stroke:#181818;stroke-width:1.0;" x1="242.1262" x2="296.2285" y1="794.5605" y2="794.5605"/><polygon fill="#181818" points="292.2285,884.5723,296.2285,894.5723,300.2285,884.5723,296.2285,888.5723" style="stroke:#181818;stroke-width:1.0;"/><line style="stroke:#181818;stroke-width:1.0;" x1="296.2285" x2="296.2285" y1="794.5605" y2="985.666"/><line style="stroke:#181818;stroke-width:1.0;" x1="296.2285" x2="180.5859" y1="985.666" y2="985.666"/><line style="stroke:#181818;stroke-width:1.0;" x1="180.5859" x2="180.5859" y1="985.666" y2="1007.6465"/><polygon fill="#181818" points="176.5859,997.6465,180.5859,1007.6465,184.5859,997.6465,180.5859,1001.6465" style="stroke:#181818;stroke-width:1.0;"/><line style="stroke:#181818;stroke-width:1.0;" x1="180.5859" x2="180.5859" y1="762.5605" y2="782.5605"/><polygon fill="#181818" points="176.5859,772.5605,180.5859,782.5605,184.5859,772.5605,180.5859,776.5605" style="stroke:#181818;stroke-width:1.0;"/><line style="stroke:#181818;stroke-width:1.0;" x1="180.5859" x2="180.5859" y1="1158.7324" y2="1178.7324"/><polygon fill="#181818" points="176.5859,1168.7324,180.5859,1178.7324,184.5859,1168.7324,180.5859,1172.7324" style="stroke:#181818;stroke-width:1.0;"/><line style="stroke:#181818;stroke-width:1.0;" x1="180.5859" x2="180.5859" y1="1213.8262" y2="1233.8262"/><polygon fill="#181818" points="176.5859,1223.8262,180.5859,1233.8262,184.5859,1223.8262,180.5859,1227.8262" style="stroke:#181818;stroke-width:1.0;"/><line style="stroke:#181818;stroke-width:1.0;" x1="180.5859" x2="180.5859" y1="1098.7207" y2="1123.6387"/><polygon fill="#181818" points="176.5859,1113.6387,180.5859,1123.6387,184.5859,1113.6387,180.5859,1117.6387" style="stroke:#181818;stroke-width:1.0;"/><line style="stroke:#181818;stroke-width:1.0;" x1="236.5994" x2="296.2285" y1="1086.7207" y2="1086.7207"/><polygon fill="#181818" points="292.2285,1176.7324,296.2285,1186.7324,300.2285,1176.7324,296.2285,1180.7324" style="stroke:#181818;stroke-width:1.0;"/><line style="stroke:#181818;stroke-width:1.0;" x1="296.2285" x2="296.2285" y1="1086.7207" y2="1277.8262"/><line style="stroke:#181818;stroke-width:1.0;" x1="296.2285" x2="180.5859" y1="1277.8262" y2="1277.8262"/><line style="stroke:#181818;stroke-width:1.0;" x1="180.5859" x2="180.5859" y1="1277.8262" y2="1297.8262"/><polygon fill="#181818" points="176.5859,1287.8262,180.5859,1297.8262,184.5859,1287.8262,180.5859,1291.8262" style="stroke:#181818;stroke-width:1.0;"/><line style="stroke:#181818;stroke-width:1.0;" x1="180.5859" x2="180.5859" y1="1042.7402" y2="1074.7207"/><polygon fill="#181818" points="176.5859,1064.7207,180.5859,1074.7207,184.5859,1064.7207,180.5859,1068.7207" style="stroke:#181818;stroke-width:1.0;"/><line style="stroke:#181818;stroke-width:1.0;" x1="180.5859" x2="180.5859" y1="1332.9199" y2="1352.9199"/><polygon fill="#181818" points="176.5859,1342.9199,180.5859,1352.9199,184.5859,1342.9199,180.5859,1346.9199" style="stroke:#181818;stroke-width:1.0;"/><line style="stroke:#181818;stroke-width:1.0;" x1="180.5859" x2="180.5859" y1="1388.0137" y2="1408.0137"/><polygon fill="#181818" points="176.5859,1398.0137,180.5859,1408.0137,184.5859,1398.0137,180.5859,1402.0137" style="stroke:#181818;stroke-width:1.0;"/><line style="stroke:#181818;stroke-width:1.0;" x1="180.5859" x2="180.5859" y1="1443.1074" y2="1463.1074"/><polygon fill="#181818" points="176.5859,1453.1074,180.5859,1463.1074,184.5859,1453.1074,180.5859,1457.1074" style="stroke:#181818;stroke-width:1.0;"/><line style="stroke:#181818;stroke-width:1.0;" x1="180.5859" x2="180.5859" y1="1498.2012" y2="1518.2012"/><polygon fill="#181818" points="176.5859,1508.2012,180.5859,1518.2012,184.5859,1508.2012,180.5859,1512.2012" style="stroke:#181818;stroke-width:1.0;"/><line style="stroke:#181818;stroke-width:1.0;" x1="180.5859" x2="180.5859" y1="1553.2949" y2="1573.2949"/><polygon fill="#181818" points="176.5859,1563.2949,180.5859,1573.2949,184.5859,1563.2949,180.5859,1567.2949" style="stroke:#181818;stroke-width:1.0;"/><line style="stroke:#181818;stroke-width:1.0;" x1="180.5859" x2="180.5859" y1="1608.3887" y2="1628.3887"/><polygon fill="#181818" points="176.5859,1618.3887,180.5859,1628.3887,184.5859,1618.3887,180.5859,1622.3887" style="stroke:#181818;stroke-width:1.0;"/><line style="stroke:#181818;stroke-width:1.0;" x1="180.5859" x2="180.5859" y1="1663.4824" y2="1683.4824"/><polygon fill="#181818" points="176.5859,1673.4824,180.5859,1683.4824,184.5859,1673.4824,180.5859,1677.4824" style="stroke:#181818;stroke-width:1.0;"/><line style="stroke:#181818;stroke-width:1.0;" x1="131.2031" x2="91.3721" y1="1750.5762" y2="1750.5762"/><line style="stroke:#181818;stroke-width:1.0;" x1="91.3721" x2="91.3721" y1="1750.5762" y2="1772.5762"/><polygon fill="#181818" points="87.3721,1762.5762,91.3721,1772.5762,95.3721,1762.5762,91.3721,1766.5762" style="stroke:#181818;stroke-width:1.0;"/><line style="stroke:#181818;stroke-width:1.0;" x1="229.9688" x2="269.7998" y1="1750.5762" y2="1750.5762"/><line style="stroke:#181818;stroke-width:1.0;" x1="269.7998" x2="269.7998" y1="1750.5762" y2="1772.5762"/><polygon fill="#181818" points="265.7998,1762.5762,269.7998,1772.5762,273.7998,1762.5762,269.7998,1766.5762" style="stroke:#181818;stroke-width:1.0;"/><line style="stroke:#181818;stroke-width:1.0;" x1="91.3721" x2="91.3721" y1="1807.6699" y2="1825.6699"/><line style="stroke:#181818;stroke-width:1.0;" x1="91.3721" x2="168.5859" y1="1825.6699" y2="1825.6699"/><polygon fill="#181818" points="158.5859,1821.6699,168.5859,1825.6699,158.5859,1829.6699,162.5859,1825.6699" style="stroke:#181818;stroke-width:1.0;"/><line style="stroke:#181818;stroke-width:1.0;" x1="269.7998" x2="269.7998" y1="1807.6699" y2="1825.6699"/><line style="stroke:#181818;stroke-width:1.0;" x1="269.7998" x2="192.5859" y1="1825.6699" y2="1825.6699"/><polygon fill="#181818" points="202.5859,1821.6699,192.5859,1825.6699,202.5859,1829.6699,198.5859,1825.6699" style="stroke:#181818;stroke-width:1.0;"/><line style="stroke:#181818;stroke-width:1.0;" x1="180.5859" x2="180.5859" y1="1718.5762" y2="1738.5762"/><polygon fill="#181818" points="176.5859,1728.5762,180.5859,1738.5762,184.5859,1728.5762,180.5859,1732.5762" style="stroke:#181818;stroke-width:1.0;"/><line style="stroke:#181818;stroke-width:1.0;" x1="180.5859" x2="180.5859" y1="1837.6699" y2="1882.5488"/><polygon fill="#181818" points="176.5859,1872.5488,180.5859,1882.5488,184.5859,1872.5488,180.5859,1876.5488" style="stroke:#181818;stroke-width:1.0;"/><line style="stroke:#181818;stroke-width:1.0;" x1="556.1362" x2="556.1362" y1="374.1738" y2="394.1738"/><polygon fill="#181818" points="552.1362,384.1738,556.1362,394.1738,560.1362,384.1738,556.1362,388.1738" style="stroke:#181818;stroke-width:1.0;"/><line style="stroke:#181818;stroke-width:1.0;" x1="556.1362" x2="556.1362" y1="429.2676" y2="449.2676"/><polygon fill="#181818" points="552.1362,439.2676,556.1362,449.2676,560.1362,439.2676,556.1362,443.2676" style="stroke:#181818;stroke-width:1.0;"/><line style="stroke:#181818;stroke-width:1.0;" x1="556.1362" x2="556.1362" y1="528.3613" y2="553.2793"/><polygon fill="#181818" points="552.1362,543.2793,556.1362,553.2793,560.1362,543.2793,556.1362,547.2793" style="stroke:#181818;stroke-width:1.0;"/><line style="stroke:#181818;stroke-width:1.0;" x1="598.1042" x2="671.7788" y1="516.3613" y2="516.3613"/><polygon fill="#181818" points="667.7788,615.123,671.7788,625.123,675.7788,615.123,671.7788,619.123" style="stroke:#181818;stroke-width:1.0;"/><line style="stroke:#181818;stroke-width:1.0;" x1="671.7788" x2="671.7788" y1="516.3613" y2="712.4668"/><line style="stroke:#181818;stroke-width:1.0;" x1="671.7788" x2="180.5859" y1="712.4668" y2="712.4668"/><line style="stroke:#181818;stroke-width:1.0;" x1="180.5859" x2="180.5859" y1="712.4668" y2="727.4668"/><polygon fill="#181818" points="176.5859,717.4668,180.5859,727.4668,184.5859,717.4668,180.5859,721.4668" style="stroke:#181818;stroke-width:1.0;"/><line style="stroke:#181818;stroke-width:1.0;" x1="556.1362" x2="556.1362" y1="484.3613" y2="504.3613"/><polygon fill="#181818" points="552.1362,494.3613,556.1362,504.3613,560.1362,494.3613,556.1362,498.3613" style="stroke:#181818;stroke-width:1.0;"/><line style="stroke:#181818;stroke-width:1.0;" x1="180.5859" x2="180.5859" y1="319.0801" y2="324.0801"/><line style="stroke:#181818;stroke-width:1.0;" x1="180.5859" x2="556.1362" y1="324.0801" y2="324.0801"/><line style="stroke:#181818;stroke-width:1.0;" x1="556.1362" x2="556.1362" y1="324.0801" y2="339.0801"/><polygon fill="#181818" points="552.1362,329.0801,556.1362,339.0801,560.1362,329.0801,556.1362,333.0801" style="stroke:#181818;stroke-width:1.0;"/><line style="stroke:#181818;stroke-width:1.0;" x1="556.1362" x2="556.1362" y1="588.373" y2="593.373"/><line style="stroke:#181818;stroke-width:1.0;" x1="556.1362" x2="180.5859" y1="593.373" y2="593.373"/><line style="stroke:#181818;stroke-width:1.0;" x1="180.5859" x2="180.5859" y1="593.373" y2="608.373"/><polygon fill="#181818" points="176.5859,598.373,180.5859,608.373,184.5859,598.373,180.5859,602.373" style="stroke:#181818;stroke-width:1.0;"/><text fill="#000000" font-family="sans-serif" font-size="18" lengthAdjust="spacing" textLength="72.0439" x="184.3499" y="69.75">Frontend</text><text fill="#000000" font-family="sans-serif" font-size="18" lengthAdjust="spacing" textLength="70.0488" x="523.2368" y="69.75">Backend</text><!--SRC=[pLHDRzim3BtxLn0v9McTPWEsWuDXID1sJJUqHRtkhaIqBKIM38bkbtxyhPrswnyR9QUfUzYzEJaK-TuJ7obIf17cQrAtYhRfiHAb4tKDAVomfJBfgRPtIV9uwgmXDF8nyIGS9Ta2JKltwE3vJr4Of5rwZefmbcIxOklgLWi7mjoZAj7CNWkDg14Eu4fuVsST0IfJuYgcTCMBbiWQs6YrteHmyhWGuOirP5UN-Kyu4eqw4YrLHpeK0DPD8Kp7SfvVNi32oYqqmdaq6JoqlYCzv53ab4yCcjqAhQGWZAHBqxGq785e2zSM0KaLC8nHA9__QbBbrn5GXGQ65wnub03_igNMM0ezTsLRew6JtsjiI5ak3yUzviNiKwmqkXgrR4sPmM1feWPOEvHShOJsWwxIasqIr1vXU2v62KEeWYM7cnmBEocKaOljpUvUmvSBZZhLUuTAB5h3oEz0-SvjUKDA-yajEbLiNs93rcqi8JXLLiGe-Tay_VZfCzIA81SwX3vC9zFf59Q4JWIPQ3Xu9doL_a9NQbJhAd11m4bY5_RpjR7EuORUGHFEY9eSlMS6GES9cJxChEzY4uyq9t9grH8E1y7LfHmSGlYOb4XBxjJel-dEQkmbN_FVcBvRYMlqZJMiY7T2HjO7KBBBxvOZ043OZDwzitqPMoRSAYnvJt5ErecICPjW00FDGeLK3jS4zoqSiq4hAvoSTPv4YYym4B9MPh1t9FGeTdWUukcLCAXxBqVNo9vjERMXuUaUlf_SzJewy7QgnkCyYgpu4jbup94Klg7XKVGSXZVknl5AzuDu4CSmpXi_LjqH2IC3TS_KUF2TTIASr4Bfb3THh2l7jFn-CEphYFu3]--></g></svg>