<svg xmlns="http://www.w3.org/2000/svg" xmlns:xlink="http://www.w3.org/1999/xlink" contentStyleType="text/css" height="1888px" preserveAspectRatio="none" style="width:1095px;height:1888px;background:#FFFFFF;" version="1.1" viewBox="0 0 1095 1888" width="1095px" zoomAndPan="magnify"><title>Sequenzdiagramm - Test-Flow (Auto-Modus)</title><defs/><g><text fill="#000000" font-family="sans-serif" font-size="14" font-weight="bold" lengthAdjust="spacing" textLength="297.1035" x="394.9541" y="29.5332">Sequenzdiagramm - Test-Flow (Auto-Modus)</text><rect fill="none" height="452.8906" style="stroke:#000000;stroke-width:1.5;" width="382.2832" x="618.1533" y="399.7344"/><rect fill="none" height="213.9453" style="stroke:#000000;stroke-width:1.5;" width="362.2832" x="628.1533" y="588.3281"/><rect fill="none" height="61.7031" style="stroke:#000000;stroke-width:1.5;" width="138.6978" x="638.1533" y="733.5703"/><rect fill="none" height="92.0547" style="stroke:#000000;stroke-width:1.5;" width="346.415" x="10" y="1249.5469"/><rect fill="none" height="87.4063" style="stroke:#000000;stroke-width:1.5;" width="439.8584" x="638.1533" y="1507.3594"/><line style="stroke:#181818;stroke-width:0.5;stroke-dasharray:5.0,5.0;" x1="47" x2="47" y1="121.2188" y2="1806.875"/><line style="stroke:#181818;stroke-width:0.5;stroke-dasharray:5.0,5.0;" x1="206.9727" x2="206.9727" y1="121.2188" y2="1806.875"/><line style="stroke:#181818;stroke-width:0.5;stroke-dasharray:5.0,5.0;" x1="505.1514" x2="505.1514" y1="121.2188" y2="1806.875"/><line style="stroke:#181818;stroke-width:0.5;stroke-dasharray:5.0,5.0;" x1="691.1533" x2="691.1533" y1="121.2188" y2="1806.875"/><line style="stroke:#181818;stroke-width:0.5;stroke-dasharray:5.0,5.0;" x1="912.0508" x2="912.0508" y1="121.2188" y2="1806.875"/><line style="stroke:#181818;stroke-width:0.5;stroke-dasharray:5.0,5.0;" x1="1031.4365" x2="1031.4365" y1="121.2188" y2="1806.875"/><text fill="#000000" font-family="sans-serif" font-size="14" lengthAdjust="spacing" textLength="48.2617" x="20" y="118.1426">Student</text><ellipse cx="47.1309" cy="52.1094" fill="#E2E2F0" rx="8" ry="8" style="stroke:#181818;stroke-width:0.5;"/><path d="M47.1309,60.1094 L47.1309,87.1094 M34.1309,68.1094 L60.1309,68.1094 M47.1309,87.1094 L34.1309,102.1094 M47.1309,87.1094 L60.1309,102.1094 " fill="none" style="stroke:#181818;stroke-width:0.5;"/><text fill="#000000" font-family="sans-serif" font-size="14" lengthAdjust="spacing" textLength="48.2617" x="20" y="1820.4082">Student</text><ellipse cx="47.1309" cy="1831.9844" fill="#E2E2F0" rx="8" ry="8" style="stroke:#181818;stroke-width:0.5;"/><path d="M47.1309,1839.9844 L47.1309,1866.9844 M34.1309,1847.9844 L60.1309,1847.9844 M47.1309,1866.9844 L34.1309,1881.9844 M47.1309,1866.9844 L60.1309,1881.9844 " fill="none" style="stroke:#181818;stroke-width:0.5;"/><rect fill="#E2E2F0" height="31.6094" rx="2.5" ry="2.5" style="stroke:#181818;stroke-width:0.5;" width="70.0342" x="171.9727" y="88.6094"/><text fill="#000000" font-family="sans-serif" font-size="14" lengthAdjust="spacing" textLength="56.0342" x="178.9727" y="110.1426">Frontend</text><rect fill="#E2E2F0" height="31.6094" rx="2.5" ry="2.5" style="stroke:#181818;stroke-width:0.5;" width="70.0342" x="171.9727" y="1805.875"/><text fill="#000000" font-family="sans-serif" font-size="14" lengthAdjust="spacing" textLength="56.0342" x="178.9727" y="1827.4082">Frontend</text><rect fill="#E2E2F0" height="31.6094" rx="2.5" ry="2.5" style="stroke:#181818;stroke-width:0.5;" width="84.7998" x="463.1514" y="88.6094"/><text fill="#000000" font-family="sans-serif" font-size="14" lengthAdjust="spacing" textLength="70.7998" x="470.1514" y="110.1426">TestServlet</text><rect fill="#E2E2F0" height="31.6094" rx="2.5" ry="2.5" style="stroke:#181818;stroke-width:0.5;" width="84.7998" x="463.1514" y="1805.875"/><text fill="#000000" font-family="sans-serif" font-size="14" lengthAdjust="spacing" textLength="70.7998" x="470.1514" y="1827.4082">TestServlet</text><rect fill="#E2E2F0" height="31.6094" rx="2.5" ry="2.5" style="stroke:#181818;stroke-width:0.5;" width="87.9102" x="648.1533" y="88.6094"/><text fill="#000000" font-family="sans-serif" font-size="14" lengthAdjust="spacing" textLength="73.9102" x="655.1533" y="110.1426">TestService</text><rect fill="#E2E2F0" height="31.6094" rx="2.5" ry="2.5" style="stroke:#181818;stroke-width:0.5;" width="87.9102" x="648.1533" y="1805.875"/><text fill="#000000" font-family="sans-serif" font-size="14" lengthAdjust="spacing" textLength="73.9102" x="655.1533" y="1827.4082">TestService</text><rect fill="#E2E2F0" height="31.6094" rx="2.5" ry="2.5" style="stroke:#181818;stroke-width:0.5;" width="135.3857" x="845.0508" y="88.6094"/><text fill="#000000" font-family="sans-serif" font-size="14" lengthAdjust="spacing" textLength="121.3857" x="852.0508" y="110.1426">ProgressionService</text><rect fill="#E2E2F0" height="31.6094" rx="2.5" ry="2.5" style="stroke:#181818;stroke-width:0.5;" width="135.3857" x="845.0508" y="1805.875"/><text fill="#000000" font-family="sans-serif" font-size="14" lengthAdjust="spacing" textLength="121.3857" x="852.0508" y="1827.4082">ProgressionService</text><text fill="#000000" font-family="sans-serif" font-size="14" lengthAdjust="spacing" textLength="76.2617" x="990.4365" y="118.1426">PostgreSQL</text><path d="M1013.5674,67.6094 C1013.5674,57.6094 1031.5674,57.6094 1031.5674,57.6094 C1031.5674,57.6094 1049.5674,57.6094 1049.5674,67.6094 L1049.5674,93.6094 C1049.5674,103.6094 1031.5674,103.6094 1031.5674,103.6094 C1031.5674,103.6094 1013.5674,103.6094 1013.5674,93.6094 L1013.5674,67.6094 " fill="#E2E2F0" style="stroke:#181818;stroke-width:1.5;"/><path d="M1013.5674,67.6094 C1013.5674,77.6094 1031.5674,77.6094 1031.5674,77.6094 C1031.5674,77.6094 1049.5674,77.6094 1049.5674,67.6094 " fill="none" style="stroke:#181818;stroke-width:1.5;"/><text fill="#000000" font-family="sans-serif" font-size="14" lengthAdjust="spacing" textLength="76.2617" x="990.4365" y="1820.4082">PostgreSQL</text><path d="M1013.5674,1833.4844 C1013.5674,1823.4844 1031.5674,1823.4844 1031.5674,1823.4844 C1031.5674,1823.4844 1049.5674,1823.4844 1049.5674,1833.4844 L1049.5674,1859.4844 C1049.5674,1869.4844 1031.5674,1869.4844 1031.5674,1869.4844 C1031.5674,1869.4844 1013.5674,1869.4844 1013.5674,1859.4844 L1013.5674,1833.4844 " fill="#E2E2F0" style="stroke:#181818;stroke-width:1.5;"/><path d="M1013.5674,1833.4844 C1013.5674,1843.4844 1031.5674,1843.4844 1031.5674,1843.4844 C1031.5674,1843.4844 1049.5674,1843.4844 1049.5674,1833.4844 " fill="none" style="stroke:#181818;stroke-width:1.5;"/><rect fill="#EEEEEE" height="3" style="stroke:#EEEEEE;stroke-width:1.0;" width="1088.0117" x="0" y="152.3945"/><line style="stroke:#000000;stroke-width:1.0;" x1="0" x2="1088.0117" y1="152.3945" y2="152.3945"/><line style="stroke:#000000;stroke-width:1.0;" x1="0" x2="1088.0117" y1="155.3945" y2="155.3945"/><rect fill="#EEEEEE" height="24.3516" style="stroke:#000000;stroke-width:2.0;" width="179.3818" x="454.3149" y="141.2188"/><text fill="#000000" font-family="sans-serif" font-size="13" font-weight="bold" lengthAdjust="spacing" textLength="161.77" x="460.3149" y="158.7139">Test starten (Auto-Modus)</text><polygon fill="#181818" points="194.9897,193.9219,204.9897,197.9219,194.9897,201.9219,198.9897,197.9219" style="stroke:#181818;stroke-width:1.0;"/><line style="stroke:#181818;stroke-width:1.0;" x1="47.1309" x2="200.9897" y1="197.9219" y2="197.9219"/><text fill="#000000" font-family="sans-serif" font-size="13" lengthAdjust="spacing" textLength="135.8589" x="59.1309" y="193.0654">Auto-Modus ausw&#228;hlen</text><polygon fill="#181818" points="493.5513,240.625,503.5513,244.625,493.5513,248.625,497.5513,244.625" style="stroke:#181818;stroke-width:1.0;"/><line style="stroke:#181818;stroke-width:1.0;" x1="206.9897" x2="499.5513" y1="244.625" y2="244.625"/><text fill="#000000" font-family="sans-serif" font-size="13" lengthAdjust="spacing" textLength="113.4263" x="299.5574" y="223.417">POST /api/test/start</text><text fill="#000000" font-family="sans-serif" font-size="13" lengthAdjust="spacing" textLength="148.1416" x="282.1997" y="239.7686">{autoMode: true, limit: 10}</text><polygon fill="#181818" points="680.1084,270.9766,690.1084,274.9766,680.1084,278.9766,684.1084,274.9766" style="stroke:#181818;stroke-width:1.0;"/><line style="stroke:#181818;stroke-width:1.0;" x1="505.5513" x2="686.1084" y1="274.9766" y2="274.9766"/><text fill="#000000" font-family="sans-serif" font-size="13" lengthAdjust="spacing" textLength="162.5571" x="517.5513" y="270.1201">resolveAutoDifficulty(userId)</text><polygon fill="#181818" points="1019.5674,350.3828,1029.5674,354.3828,1019.5674,358.3828,1023.5674,354.3828" style="stroke:#181818;stroke-width:1.0;"/><line style="stroke:#181818;stroke-width:1.0;" x1="692.1084" x2="1025.5674" y1="354.3828" y2="354.3828"/><text fill="#000000" font-family="sans-serif" font-size="13" lengthAdjust="spacing" textLength="154.5908" x="784.5425" y="300.4717">SELECT * FROM attempts</text><text fill="#000000" font-family="sans-serif" font-size="13" lengthAdjust="spacing" textLength="116.6826" x="803.4966" y="316.8232">WHERE user_id = ?</text><text fill="#000000" font-family="sans-serif" font-size="13" lengthAdjust="spacing" textLength="172.6753" x="775.5002" y="333.1748">ORDER BY created_at DESC</text><text fill="#000000" font-family="sans-serif" font-size="13" lengthAdjust="spacing" textLength="44.0654" x="839.8052" y="349.5264">LIMIT 3</text><polygon fill="#181818" points="703.1084,380.7344,693.1084,384.7344,703.1084,388.7344,699.1084,384.7344" style="stroke:#181818;stroke-width:1.0;"/><line style="stroke:#181818;stroke-width:1.0;stroke-dasharray:2.0,2.0;" x1="697.1084" x2="1030.5674" y1="384.7344" y2="384.7344"/><text fill="#000000" font-family="sans-serif" font-size="13" lengthAdjust="spacing" textLength="80.209" x="821.7334" y="379.8779">List&lt;Attempt&gt;</text><path d="M618.1533,399.7344 L678.3242,399.7344 L678.3242,408.0859 L668.3242,418.0859 L618.1533,418.0859 L618.1533,399.7344 " fill="#EEEEEE" style="stroke:#000000;stroke-width:1.5;"/><rect fill="none" height="452.8906" style="stroke:#000000;stroke-width:1.5;" width="382.2832" x="618.1533" y="399.7344"/><text fill="#000000" font-family="sans-serif" font-size="13" font-weight="bold" lengthAdjust="spacing" textLength="15.1709" x="633.1533" y="414.2295">alt</text><text fill="#000000" font-family="sans-serif" font-size="11" font-weight="bold" lengthAdjust="spacing" textLength="81.2915" x="693.3242" y="413.1533">[Keine Historie]</text><line style="stroke:#181818;stroke-width:1.0;" x1="692.1084" x2="734.1084" y1="440.4375" y2="440.4375"/><line style="stroke:#181818;stroke-width:1.0;" x1="734.1084" x2="734.1084" y1="440.4375" y2="453.4375"/><line style="stroke:#181818;stroke-width:1.0;" x1="693.1084" x2="734.1084" y1="453.4375" y2="453.4375"/><polygon fill="#181818" points="703.1084,449.4375,693.1084,453.4375,703.1084,457.4375,699.1084,453.4375" style="stroke:#181818;stroke-width:1.0;"/><text fill="#000000" font-family="sans-serif" font-size="13" lengthAdjust="spacing" textLength="120.6436" x="699.1084" y="435.5811">randomDifficulty(1-3)</text><line style="stroke:#000000;stroke-width:1.0;stroke-dasharray:2.0,2.0;" x1="618.1533" x2="1000.4365" y1="462.4375" y2="462.4375"/><text fill="#000000" font-family="sans-serif" font-size="11" font-weight="bold" lengthAdjust="spacing" textLength="107.5669" x="623.1533" y="473.8564">[Historie vorhanden]</text><line style="stroke:#181818;stroke-width:1.0;" x1="692.1084" x2="734.1084" y1="499.625" y2="499.625"/><line style="stroke:#181818;stroke-width:1.0;" x1="734.1084" x2="734.1084" y1="499.625" y2="512.625"/><line style="stroke:#181818;stroke-width:1.0;" x1="693.1084" x2="734.1084" y1="512.625" y2="512.625"/><polygon fill="#181818" points="703.1084,508.625,693.1084,512.625,703.1084,516.625,699.1084,512.625" style="stroke:#181818;stroke-width:1.0;"/><text fill="#000000" font-family="sans-serif" font-size="13" lengthAdjust="spacing" textLength="118.1362" x="699.1084" y="494.7686">lastRatio = total/max</text><polygon fill="#181818" points="900.7437,538.9766,910.7437,542.9766,900.7437,546.9766,904.7437,542.9766" style="stroke:#181818;stroke-width:1.0;"/><line style="stroke:#181818;stroke-width:1.0;" x1="692.1084" x2="906.7437" y1="542.9766" y2="542.9766"/><text fill="#000000" font-family="sans-serif" font-size="13" lengthAdjust="spacing" textLength="146.6753" x="729.0884" y="538.1201">shouldPromote(lastRatio)</text><polygon fill="#181818" points="703.1084,569.3281,693.1084,573.3281,703.1084,577.3281,699.1084,573.3281" style="stroke:#181818;stroke-width:1.0;"/><line style="stroke:#181818;stroke-width:1.0;stroke-dasharray:2.0,2.0;" x1="697.1084" x2="911.7437" y1="573.3281" y2="573.3281"/><text fill="#000000" font-family="sans-serif" font-size="13" lengthAdjust="spacing" textLength="109.8398" x="747.5061" y="568.4717">true/false (&gt;= 0.70)</text><path d="M628.1533,588.3281 L688.3242,588.3281 L688.3242,596.6797 L678.3242,606.6797 L628.1533,606.6797 L628.1533,588.3281 " fill="#EEEEEE" style="stroke:#000000;stroke-width:1.5;"/><rect fill="none" height="213.9453" style="stroke:#000000;stroke-width:1.5;" width="362.2832" x="628.1533" y="588.3281"/><text fill="#000000" font-family="sans-serif" font-size="13" font-weight="bold" lengthAdjust="spacing" textLength="15.1709" x="643.1533" y="602.8232">alt</text><text fill="#000000" font-family="sans-serif" font-size="11" font-weight="bold" lengthAdjust="spacing" textLength="51.3262" x="703.3242" y="601.7471">[Aufstieg]</text><line style="stroke:#181818;stroke-width:1.0;" x1="692.1084" x2="734.1084" y1="629.0313" y2="629.0313"/><line style="stroke:#181818;stroke-width:1.0;" x1="734.1084" x2="734.1084" y1="629.0313" y2="642.0313"/><line style="stroke:#181818;stroke-width:1.0;" x1="693.1084" x2="734.1084" y1="642.0313" y2="642.0313"/><polygon fill="#181818" points="703.1084,638.0313,693.1084,642.0313,703.1084,646.0313,699.1084,642.0313" style="stroke:#181818;stroke-width:1.0;"/><text fill="#000000" font-family="sans-serif" font-size="13" lengthAdjust="spacing" textLength="69.0054" x="699.1084" y="624.1748">difficulty + 1</text><line style="stroke:#000000;stroke-width:1.0;stroke-dasharray:2.0,2.0;" x1="628.1533" x2="990.4365" y1="651.0313" y2="651.0313"/><text fill="#000000" font-family="sans-serif" font-size="11" font-weight="bold" lengthAdjust="spacing" textLength="76.3931" x="633.1533" y="662.4502">[kein Aufstieg]</text><polygon fill="#181818" points="900.7437,684.2188,910.7437,688.2188,900.7437,692.2188,904.7437,688.2188" style="stroke:#181818;stroke-width:1.0;"/><line style="stroke:#181818;stroke-width:1.0;" x1="692.1084" x2="906.7437" y1="688.2188" y2="688.2188"/><text fill="#000000" font-family="sans-serif" font-size="13" lengthAdjust="spacing" textLength="143.7935" x="730.5293" y="683.3623">shouldDemote(avgRatio)</text><polygon fill="#181818" points="703.1084,714.5703,693.1084,718.5703,703.1084,722.5703,699.1084,718.5703" style="stroke:#181818;stroke-width:1.0;"/><line style="stroke:#181818;stroke-width:1.0;stroke-dasharray:2.0,2.0;" x1="697.1084" x2="911.7437" y1="718.5703" y2="718.5703"/><text fill="#000000" font-family="sans-serif" font-size="13" lengthAdjust="spacing" textLength="109.8398" x="747.5061" y="713.7139">true/false (&lt;= 0.40)</text><path d="M638.1533,733.5703 L698.3242,733.5703 L698.3242,741.9219 L688.3242,751.9219 L638.1533,751.9219 L638.1533,733.5703 " fill="#EEEEEE" style="stroke:#000000;stroke-width:1.5;"/><rect fill="none" height="61.7031" style="stroke:#000000;stroke-width:1.5;" width="138.6978" x="638.1533" y="733.5703"/><text fill="#000000" font-family="sans-serif" font-size="13" font-weight="bold" lengthAdjust="spacing" textLength="15.1709" x="653.1533" y="748.0654">alt</text><text fill="#000000" font-family="sans-serif" font-size="11" font-weight="bold" lengthAdjust="spacing" textLength="47.6631" x="713.3242" y="746.9893">[Abstieg]</text><line style="stroke:#181818;stroke-width:1.0;" x1="692.1084" x2="734.1084" y1="774.2734" y2="774.2734"/><line style="stroke:#181818;stroke-width:1.0;" x1="734.1084" x2="734.1084" y1="774.2734" y2="787.2734"/><line style="stroke:#181818;stroke-width:1.0;" x1="693.1084" x2="734.1084" y1="787.2734" y2="787.2734"/><polygon fill="#181818" points="703.1084,783.2734,693.1084,787.2734,703.1084,791.2734,699.1084,787.2734" style="stroke:#181818;stroke-width:1.0;"/><text fill="#000000" font-family="sans-serif" font-size="13" lengthAdjust="spacing" textLength="65.7427" x="699.1084" y="769.417">difficulty - 1</text><line style="stroke:#181818;stroke-width:1.0;" x1="692.1084" x2="734.1084" y1="831.625" y2="831.625"/><line style="stroke:#181818;stroke-width:1.0;" x1="734.1084" x2="734.1084" y1="831.625" y2="844.625"/><line style="stroke:#181818;stroke-width:1.0;" x1="693.1084" x2="734.1084" y1="844.625" y2="844.625"/><polygon fill="#181818" points="703.1084,840.625,693.1084,844.625,703.1084,848.625,699.1084,844.625" style="stroke:#181818;stroke-width:1.0;"/><text fill="#000000" font-family="sans-serif" font-size="13" lengthAdjust="spacing" textLength="65.019" x="699.1084" y="826.7686">clamp(1, 3)</text><polygon fill="#181818" points="516.5513,877.9766,506.5513,881.9766,516.5513,885.9766,512.5513,881.9766" style="stroke:#181818;stroke-width:1.0;"/><line style="stroke:#181818;stroke-width:1.0;stroke-dasharray:2.0,2.0;" x1="510.5513" x2="691.1084" y1="881.9766" y2="881.9766"/><text fill="#000000" font-family="sans-serif" font-size="13" lengthAdjust="spacing" textLength="46.96" x="575.3499" y="877.1201">difficulty</text><polygon fill="#181818" points="680.1084,908.3281,690.1084,912.3281,680.1084,916.3281,684.1084,912.3281" style="stroke:#181818;stroke-width:1.0;"/><line style="stroke:#181818;stroke-width:1.0;" x1="505.5513" x2="686.1084" y1="912.3281" y2="912.3281"/><text fill="#000000" font-family="sans-serif" font-size="13" lengthAdjust="spacing" textLength="127.8672" x="534.8962" y="907.4717">startTest(difficulty, 10)</text><polygon fill="#181818" points="1019.5674,987.7344,1029.5674,991.7344,1019.5674,995.7344,1023.5674,991.7344" style="stroke:#181818;stroke-width:1.0;"/><line style="stroke:#181818;stroke-width:1.0;" x1="692.1084" x2="1025.5674" y1="991.7344" y2="991.7344"/><text fill="#000000" font-family="sans-serif" font-size="13" lengthAdjust="spacing" textLength="160.3862" x="781.6448" y="937.8232">SELECT * FROM questions</text><text fill="#000000" font-family="sans-serif" font-size="13" lengthAdjust="spacing" textLength="121.0054" x="801.3352" y="954.1748">WHERE difficulty = ?</text><text fill="#000000" font-family="sans-serif" font-size="13" lengthAdjust="spacing" textLength="137.9473" x="792.8643" y="970.5264">ORDER BY RANDOM()</text><text fill="#000000" font-family="sans-serif" font-size="13" lengthAdjust="spacing" textLength="51.2954" x="836.1902" y="986.8779">LIMIT 10</text><polygon fill="#181818" points="703.1084,1018.0859,693.1084,1022.0859,703.1084,1026.0859,699.1084,1022.0859" style="stroke:#181818;stroke-width:1.0;"/><line style="stroke:#181818;stroke-width:1.0;stroke-dasharray:2.0,2.0;" x1="697.1084" x2="1030.5674" y1="1022.0859" y2="1022.0859"/><text fill="#000000" font-family="sans-serif" font-size="13" lengthAdjust="spacing" textLength="87.4453" x="818.1152" y="1017.2295">List&lt;Question&gt;</text><polygon fill="#181818" points="1019.5674,1064.7891,1029.5674,1068.7891,1019.5674,1072.7891,1023.5674,1068.7891" style="stroke:#181818;stroke-width:1.0;"/><line style="stroke:#181818;stroke-width:1.0;" x1="692.1084" x2="1025.5674" y1="1068.7891" y2="1068.7891"/><text fill="#000000" font-family="sans-serif" font-size="13" lengthAdjust="spacing" textLength="153.1436" x="785.2661" y="1047.5811">SELECT * FROM answers</text><text fill="#000000" font-family="sans-serif" font-size="13" lengthAdjust="spacing" textLength="158.2153" x="782.7302" y="1063.9326">WHERE question_id IN (...)</text><polygon fill="#181818" points="703.1084,1095.1406,693.1084,1099.1406,703.1084,1103.1406,699.1084,1099.1406" style="stroke:#181818;stroke-width:1.0;"/><line style="stroke:#181818;stroke-width:1.0;stroke-dasharray:2.0,2.0;" x1="697.1084" x2="1030.5674" y1="1099.1406" y2="1099.1406"/><text fill="#000000" font-family="sans-serif" font-size="13" lengthAdjust="spacing" textLength="117.0635" x="803.3062" y="1094.2842">List&lt;AnswerOption&gt;</text><polygon fill="#181818" points="516.5513,1125.4922,506.5513,1129.4922,516.5513,1133.4922,512.5513,1129.4922" style="stroke:#181818;stroke-width:1.0;"/><line style="stroke:#181818;stroke-width:1.0;stroke-dasharray:2.0,2.0;" x1="510.5513" x2="691.1084" y1="1129.4922" y2="1129.4922"/><text fill="#000000" font-family="sans-serif" font-size="13" lengthAdjust="spacing" textLength="87.4453" x="555.1072" y="1124.6357">List&lt;Question&gt;</text><polygon fill="#181818" points="217.9897,1155.8438,207.9897,1159.8438,217.9897,1163.8438,213.9897,1159.8438" style="stroke:#181818;stroke-width:1.0;"/><line style="stroke:#181818;stroke-width:1.0;stroke-dasharray:2.0,2.0;" x1="211.9897" x2="504.5513" y1="1159.8438" y2="1159.8438"/><text fill="#000000" font-family="sans-serif" font-size="13" lengthAdjust="spacing" textLength="192.9307" x="259.8052" y="1154.9873">JSON [{id, prompt, type, options}]</text><polygon fill="#181818" points="58.1309,1186.1953,48.1309,1190.1953,58.1309,1194.1953,54.1309,1190.1953" style="stroke:#181818;stroke-width:1.0;"/><line style="stroke:#181818;stroke-width:1.0;stroke-dasharray:2.0,2.0;" x1="52.1309" x2="205.9897" y1="1190.1953" y2="1190.1953"/><text fill="#000000" font-family="sans-serif" font-size="13" lengthAdjust="spacing" textLength="124.2998" x="64.9104" y="1185.3389">TestRunner anzeigen</text><rect fill="#EEEEEE" height="3" style="stroke:#EEEEEE;stroke-width:1.0;" width="1088.0117" x="0" y="1219.3711"/><line style="stroke:#000000;stroke-width:1.0;" x1="0" x2="1088.0117" y1="1219.3711" y2="1219.3711"/><line style="stroke:#000000;stroke-width:1.0;" x1="0" x2="1088.0117" y1="1222.3711" y2="1222.3711"/><rect fill="#EEEEEE" height="24.3516" style="stroke:#000000;stroke-width:2.0;" width="141.8481" x="473.0818" y="1208.1953"/><text fill="#000000" font-family="sans-serif" font-size="13" font-weight="bold" lengthAdjust="spacing" textLength="124.2363" x="479.0818" y="1225.6904">Fragen beantworten</text><path d="M10,1249.5469 L82.4346,1249.5469 L82.4346,1257.8984 L72.4346,1267.8984 L10,1267.8984 L10,1249.5469 " fill="#EEEEEE" style="stroke:#000000;stroke-width:1.5;"/><rect fill="none" height="92.0547" style="stroke:#000000;stroke-width:1.5;" width="346.415" x="10" y="1249.5469"/><text fill="#000000" font-family="sans-serif" font-size="13" font-weight="bold" lengthAdjust="spacing" textLength="27.4346" x="25" y="1264.042">loop</text><text fill="#000000" font-family="sans-serif" font-size="11" font-weight="bold" lengthAdjust="spacing" textLength="83.123" x="97.4346" y="1262.9658">[F&#252;r jede Frage]</text><polygon fill="#181818" points="194.9897,1286.25,204.9897,1290.25,194.9897,1294.25,198.9897,1290.25" style="stroke:#181818;stroke-width:1.0;"/><line style="stroke:#181818;stroke-width:1.0;" x1="47.1309" x2="200.9897" y1="1290.25" y2="1290.25"/><text fill="#000000" font-family="sans-serif" font-size="13" lengthAdjust="spacing" textLength="109.8398" x="72.1404" y="1285.3936">Antwort ausw&#228;hlen</text><line style="stroke:#181818;stroke-width:1.0;" x1="206.9897" x2="248.9897" y1="1320.6016" y2="1320.6016"/><line style="stroke:#181818;stroke-width:1.0;" x1="248.9897" x2="248.9897" y1="1320.6016" y2="1333.6016"/><line style="stroke:#181818;stroke-width:1.0;" x1="207.9897" x2="248.9897" y1="1333.6016" y2="1333.6016"/><polygon fill="#181818" points="217.9897,1329.6016,207.9897,1333.6016,217.9897,1337.6016,213.9897,1333.6016" style="stroke:#181818;stroke-width:1.0;"/><text fill="#000000" font-family="sans-serif" font-size="13" lengthAdjust="spacing" textLength="130.4253" x="213.9897" y="1315.7451">answers[qId] = answer</text><rect fill="#EEEEEE" height="3" style="stroke:#EEEEEE;stroke-width:1.0;" width="1088.0117" x="0" y="1369.7773"/><line style="stroke:#000000;stroke-width:1.0;" x1="0" x2="1088.0117" y1="1369.7773" y2="1369.7773"/><line style="stroke:#000000;stroke-width:1.0;" x1="0" x2="1088.0117" y1="1372.7773" y2="1372.7773"/><rect fill="#EEEEEE" height="24.3516" style="stroke:#000000;stroke-width:2.0;" width="101.4072" x="493.3022" y="1358.6016"/><text fill="#000000" font-family="sans-serif" font-size="13" font-weight="bold" lengthAdjust="spacing" textLength="83.7954" x="499.3022" y="1376.0967">Test abgeben</text><polygon fill="#181818" points="194.9897,1411.3047,204.9897,1415.3047,194.9897,1419.3047,198.9897,1415.3047" style="stroke:#181818;stroke-width:1.0;"/><line style="stroke:#181818;stroke-width:1.0;" x1="47.1309" x2="200.9897" y1="1415.3047" y2="1415.3047"/><text fill="#000000" font-family="sans-serif" font-size="13" lengthAdjust="spacing" textLength="79.5044" x="87.3081" y="1410.4482">Test beenden</text><polygon fill="#181818" points="493.5513,1458.0078,503.5513,1462.0078,493.5513,1466.0078,497.5513,1462.0078" style="stroke:#181818;stroke-width:1.0;"/><line style="stroke:#181818;stroke-width:1.0;" x1="206.9897" x2="499.5513" y1="1462.0078" y2="1462.0078"/><text fill="#000000" font-family="sans-serif" font-size="13" lengthAdjust="spacing" textLength="126.4326" x="293.0542" y="1440.7998">POST /api/test/submit</text><text fill="#000000" font-family="sans-serif" font-size="13" lengthAdjust="spacing" textLength="239.1924" x="236.6743" y="1457.1514">{difficulty, questionIds, answers, duration}</text><polygon fill="#181818" points="680.1084,1488.3594,690.1084,1492.3594,680.1084,1496.3594,684.1084,1492.3594" style="stroke:#181818;stroke-width:1.0;"/><line style="stroke:#181818;stroke-width:1.0;" x1="505.5513" x2="686.1084" y1="1492.3594" y2="1492.3594"/><text fill="#000000" font-family="sans-serif" font-size="13" lengthAdjust="spacing" textLength="102.5781" x="547.5408" y="1487.5029">submitAttempt(...)</text><path d="M638.1533,1507.3594 L710.5879,1507.3594 L710.5879,1515.7109 L700.5879,1525.7109 L638.1533,1525.7109 L638.1533,1507.3594 " fill="#EEEEEE" style="stroke:#000000;stroke-width:1.5;"/><rect fill="none" height="87.4063" style="stroke:#000000;stroke-width:1.5;" width="439.8584" x="638.1533" y="1507.3594"/><text fill="#000000" font-family="sans-serif" font-size="13" font-weight="bold" lengthAdjust="spacing" textLength="27.4346" x="653.1533" y="1521.8545">loop</text><text fill="#000000" font-family="sans-serif" font-size="11" font-weight="bold" lengthAdjust="spacing" textLength="83.123" x="725.5879" y="1520.7783">[F&#252;r jede Frage]</text><line style="stroke:#181818;stroke-width:1.0;" x1="692.1084" x2="734.1084" y1="1560.9141" y2="1560.9141"/><line style="stroke:#181818;stroke-width:1.0;" x1="734.1084" x2="734.1084" y1="1560.9141" y2="1573.9141"/><line style="stroke:#181818;stroke-width:1.0;" x1="693.1084" x2="734.1084" y1="1573.9141" y2="1573.9141"/><polygon fill="#181818" points="703.1084,1569.9141,693.1084,1573.9141,703.1084,1577.9141,699.1084,1573.9141" style="stroke:#181818;stroke-width:1.0;"/><text fill="#000000" font-family="sans-serif" font-size="13" lengthAdjust="spacing" textLength="92.479" x="699.1084" y="1556.0576">scoreQuestion()</text><path d="M803.479,1530.7109 L803.479,1589.7109 L1062.479,1589.7109 L1062.479,1540.7109 L1052.479,1530.7109 L803.479,1530.7109 " fill="#FEFFDD" style="stroke:#181818;stroke-width:0.5;"/><path d="M1052.479,1530.7109 L1052.479,1540.7109 L1062.479,1540.7109 L1052.479,1530.7109 " fill="#FEFFDD" style="stroke:#181818;stroke-width:0.5;"/><text fill="#000000" font-family="sans-serif" font-size="13" lengthAdjust="spacing" textLength="223.2915" x="809.479" y="1549.2061">MC: partialValue der gew&#228;hlten Option</text><text fill="#000000" font-family="sans-serif" font-size="13" lengthAdjust="spacing" textLength="238.4243" x="809.479" y="1565.5576">CLOZE: Token-Vergleich mit Alternativen</text><text fill="#000000" font-family="sans-serif" font-size="13" lengthAdjust="spacing" textLength="166.8862" x="809.479" y="1581.9092">FREE: Exakter Textvergleich</text><line style="stroke:#181818;stroke-width:1.0;" x1="692.1084" x2="734.1084" y1="1624.1172" y2="1624.1172"/><line style="stroke:#181818;stroke-width:1.0;" x1="734.1084" x2="734.1084" y1="1624.1172" y2="1637.1172"/><line style="stroke:#181818;stroke-width:1.0;" x1="693.1084" x2="734.1084" y1="1637.1172" y2="1637.1172"/><polygon fill="#181818" points="703.1084,1633.1172,693.1084,1637.1172,703.1084,1641.1172,699.1084,1637.1172" style="stroke:#181818;stroke-width:1.0;"/><text fill="#000000" font-family="sans-serif" font-size="13" lengthAdjust="spacing" textLength="206.6353" x="699.1084" y="1619.2607">calculateGrade(total, max, difficulty)</text><polygon fill="#181818" points="1019.5674,1663.4688,1029.5674,1667.4688,1019.5674,1671.4688,1023.5674,1667.4688" style="stroke:#181818;stroke-width:1.0;"/><line style="stroke:#181818;stroke-width:1.0;" x1="692.1084" x2="1025.5674" y1="1667.4688" y2="1667.4688"/><text fill="#000000" font-family="sans-serif" font-size="13" lengthAdjust="spacing" textLength="135.8018" x="793.937" y="1662.6123">INSERT INTO attempts</text><polygon fill="#181818" points="1019.5674,1693.8203,1029.5674,1697.8203,1019.5674,1701.8203,1023.5674,1697.8203" style="stroke:#181818;stroke-width:1.0;"/><line style="stroke:#181818;stroke-width:1.0;" x1="692.1084" x2="1025.5674" y1="1697.8203" y2="1697.8203"/><text fill="#000000" font-family="sans-serif" font-size="13" lengthAdjust="spacing" textLength="184.939" x="769.3684" y="1692.9639">INSERT INTO attempt_answers</text><polygon fill="#181818" points="516.5513,1724.1719,506.5513,1728.1719,516.5513,1732.1719,512.5513,1728.1719" style="stroke:#181818;stroke-width:1.0;"/><line style="stroke:#181818;stroke-width:1.0;stroke-dasharray:2.0,2.0;" x1="510.5513" x2="691.1084" y1="1728.1719" y2="1728.1719"/><text fill="#000000" font-family="sans-serif" font-size="13" lengthAdjust="spacing" textLength="81.6436" x="558.0081" y="1723.3154">AttemptResult</text><polygon fill="#181818" points="217.9897,1754.5234,207.9897,1758.5234,217.9897,1762.5234,213.9897,1758.5234" style="stroke:#181818;stroke-width:1.0;"/><line style="stroke:#181818;stroke-width:1.0;stroke-dasharray:2.0,2.0;" x1="211.9897" x2="504.5513" y1="1758.5234" y2="1758.5234"/><text fill="#000000" font-family="sans-serif" font-size="13" lengthAdjust="spacing" textLength="274.5615" x="218.9897" y="1753.667">JSON {attempt, details, recommendedDifficulty}</text><polygon fill="#181818" points="58.1309,1784.875,48.1309,1788.875,58.1309,1792.875,54.1309,1788.875" style="stroke:#181818;stroke-width:1.0;"/><line style="stroke:#181818;stroke-width:1.0;stroke-dasharray:2.0,2.0;" x1="52.1309" x2="205.9897" y1="1788.875" y2="1788.875"/><text fill="#000000" font-family="sans-serif" font-size="13" lengthAdjust="spacing" textLength="78.7681" x="87.6763" y="1784.0186">Ergebnisseite</text><!--SRC=[ZLNTSjf65BxNKvpnbMZ1mAGpdM62EzY8XXQC8v5qsZZZMQHZiRNOLNPNs8d7RzF7w5rUB4ShoKZOnE428Svtpdxdxrl3JO8GuASCnPU8irYnpGOwi4HjEfD4te8xoepip6MKwPRZw1ikKaOWqDOdn3bgpM8S9JmM4A8mg6eeXJgLGbUeKwIG8wKehb4PEWuBZLHm59Wi8jSZO1hUQOf0teQ7F6N2mD54IGeh8ckUU4rZpZH0jKsmS5y6pzjvYDPU_cw2BfICYQhcKjIn5u4JCSDMJ2DXf3O42jxEh6rywZZ3eIqKQ4F1K3Hg1SEXu-IvGEU4ICC0TaPWcRxz-jywGU6GYG3BW00NYs09NPRohg6eNHlrKjmpyYCt7DYQjI7X6su6qEyzE0xvaNV9cK9G4ZBPOdxKc5zVyp1Bp6St8nhJgELKE78Pdn8wy6RUsH9-Wec_c0Cp1ZUfqPVYhpUUxq7kTSKZ6C9lbsBXZpqVJl-6K24p65qn0sClEBiKi-bykeHN3aNiDBZCk3QlHqNG4sfrOk1Fv0BX3HcaukW0VMgSQcam4SbDBOD-vrNBmKJld64hrPfWLCA3OHAcZSyCbvI3aOObtGsxsuTVvANNQvab4Ot1HXfq7_rQ5ao8PcPv7xhNBAVZdWoXT_nhhq3QhppHKNQj3SVO_d6GN_IO8FmCVOkrETvGcRuReiPvZ9OosyOrnY-oVfsp_gMtGrlIg-Q1FyAxK_Ast4Nar9-76nCcR9Ew_JRaNINqRZAhNTWTyNJ8xMBaY-VkK6tQXvS6d0IB4YGvgYQybaTpoFtH-NWnTrlLTFTx1yRxRHdon7bfkOI-HVLuSaKbtw_fERZ7nyUjGnjaFHVf_Z5LfVPuB8ksMyNv8rYSmuTx7hKXfT5EJHlCvvGaHDfe-k6ZbH-2Mw4QM3NpCo7eXOalo6FQhbpb9eh4My0AIIrlfTMwNDuIALEOVFrVmRyOOO6oJM_gNk5J5xqSKmYVHPJ5-V1f6dsaJXIlnM1K4ijMCQxAOnlHhNM5Q9NWEsAQhKWrIKth8rDrOHhfTaMY3L6cyaqIpyXh4QNKjA9fXulmxEJhK2gikkKM-oTeWK7nU6tALPgV3S3UJonvpv8C8QA4OxJLosjV34C9Ffij_l6e3l86HUSzgZX17gw1UCA8q4fGCbkiq1FV8x1tnsx8HCMxCzlAfTfTosTlBHlBonAg7rq2loiMeMk5jGsahEtQGZtTnUbvuFbBUYmNZrVDZu2koiOyC_fb8tpKTEJJoRyl8n0lD8mdr5k5eTniyc69ThVBmzuMU8fcJN2jaLCXlW40]--></g></svg>