<svg xmlns="http://www.w3.org/2000/svg" xmlns:xlink="http://www.w3.org/1999/xlink" contentStyleType="text/css" height="2180px" preserveAspectRatio="none" style="width:1850px;height:2180px;background:#FFFFFF;" version="1.1" viewBox="0 0 1850 2180" width="1850px" zoomAndPan="magnify"><title>Activity-Diagramm - Passwort-Reset-Flow</title><defs/><g><text fill="#000000" font-family="sans-serif" font-size="14" font-weight="bold" lengthAdjust="spacing" textLength="277.7305" x="785.1272" y="34.5332">Activity-Diagramm - Passwort-Reset-Flow</text><rect fill="none" height="22.6406" style="stroke:none;stroke-width:1.0;" width="1817.9849" x="15" y="51.0645"/><ellipse cx="168.7334" cy="88.7051" fill="#222222" rx="10" ry="10" style="stroke:#222222;stroke-width:1.0;"/><rect fill="#F1F1F1" height="35.0938" rx="12.5" ry="12.5" style="stroke:#181818;stroke-width:0.5;" width="208.6016" x="64.4326" y="118.7051"/><text fill="#000000" font-family="sans-serif" font-size="12" lengthAdjust="spacing" textLength="188.6016" x="74.4326" y="141.1621">Link "Passwort vergessen?" klicken</text><rect fill="#F1F1F1" height="35.0938" rx="12.5" ry="12.5" style="stroke:#181818;stroke-width:0.5;" width="155.3926" x="91.0371" y="173.7988"/><text fill="#000000" font-family="sans-serif" font-size="12" lengthAdjust="spacing" textLength="135.3926" x="101.0371" y="196.2559">Reset-Formular anzeigen</text><rect fill="#F1F1F1" height="35.0938" rx="12.5" ry="12.5" style="stroke:#181818;stroke-width:0.5;" width="150.7637" x="93.3516" y="228.8926"/><text fill="#000000" font-family="sans-serif" font-size="12" lengthAdjust="spacing" textLength="130.7637" x="103.3516" y="251.3496">Benutzername eingeben</text><rect fill="#F1F1F1" height="35.0938" rx="12.5" ry="12.5" style="stroke:#181818;stroke-width:0.5;" width="188.6152" x="74.4258" y="283.9863"/><text fill="#000000" font-family="sans-serif" font-size="12" lengthAdjust="spacing" textLength="168.6152" x="84.4258" y="306.4434">Button "Reset anfragen" klicken</text><rect fill="#F1F1F1" height="35.0938" rx="12.5" ry="12.5" style="stroke:#181818;stroke-width:0.5;" width="152.0879" x="92.6895" y="663.4668"/><text fill="#000000" font-family="sans-serif" font-size="12" lengthAdjust="spacing" textLength="132.0879" x="102.6895" y="685.9238">Fehlermeldung anzeigen</text><ellipse cx="168.7334" cy="729.5605" fill="none" rx="11" ry="11" style="stroke:#222222;stroke-width:1.0;"/><ellipse cx="168.7334" cy="729.5605" fill="#222222" rx="6" ry="6" style="stroke:#222222;stroke-width:1.0;"/><rect fill="#F1F1F1" height="35.0938" rx="12.5" ry="12.5" style="stroke:#181818;stroke-width:0.5;" width="295.4668" x="21" y="782.5605"/><text fill="#000000" font-family="sans-serif" font-size="12" lengthAdjust="spacing" textLength="275.4668" x="31" y="805.0176">userDao.setPasswordResetRequested(userId, true)</text><rect fill="#F1F1F1" height="35.0938" rx="12.5" ry="12.5" style="stroke:#181818;stroke-width:0.5;" width="264.4238" x="36.5215" y="837.6543"/><text fill="#000000" font-family="sans-serif" font-size="12" lengthAdjust="spacing" textLength="244.4238" x="46.5215" y="860.1113">UPDATE users SET reset_requested = TRUE</text><rect fill="#F1F1F1" height="35.0938" rx="12.5" ry="12.5" style="stroke:#181818;stroke-width:0.5;" width="213.3359" x="62.0654" y="892.748"/><text fill="#000000" font-family="sans-serif" font-size="12" lengthAdjust="spacing" textLength="193.3359" x="72.0654" y="915.2051">Best&#228;tigung: "Anfrage eingegangen"</text><rect fill="#F1F1F1" height="35.0938" rx="12.5" ry="12.5" style="stroke:#181818;stroke-width:0.5;" width="195.9219" x="70.7725" y="947.8418"/><text fill="#000000" font-family="sans-serif" font-size="12" lengthAdjust="spacing" textLength="175.9219" x="80.7725" y="970.2988">Text: "Admin wird benachrichtigt"</text><path d="M283.7793,1980.7676 L283.7793,1989.9434 L263.7793,1993.9434 L283.7793,1997.9434 L283.7793,2007.1191 A0,0 0 0 0 283.7793,2007.1191 L474.5664,2007.1191 A0,0 0 0 0 474.5664,2007.1191 L474.5664,1990.7676 L464.5664,1980.7676 L283.7793,1980.7676 A0,0 0 0 0 283.7793,1980.7676 " fill="#FEFFDD" style="stroke:#181818;stroke-width:0.5;"/><path d="M464.5664,1980.7676 L464.5664,1990.7676 L474.5664,1990.7676 L464.5664,1980.7676 " fill="#FEFFDD" style="stroke:#181818;stroke-width:0.5;"/><text fill="#000000" font-family="sans-serif" font-size="13" lengthAdjust="spacing" textLength="169.7871" x="289.7793" y="1999.2627">Manuell vom Admin mitgeteilt</text><rect fill="#F1F1F1" height="35.0938" rx="12.5" ry="12.5" style="stroke:#181818;stroke-width:0.5;" width="190.0918" x="73.6875" y="1976.3965"/><text fill="#000000" font-family="sans-serif" font-size="12" lengthAdjust="spacing" textLength="170.0918" x="83.6875" y="1998.8535">Benutzer erh&#228;lt neues Passwort</text><rect fill="#F1F1F1" height="35.0938" rx="12.5" ry="12.5" style="stroke:#181818;stroke-width:0.5;" width="161.3984" x="88.0342" y="2031.4902"/><text fill="#000000" font-family="sans-serif" font-size="12" lengthAdjust="spacing" textLength="141.3984" x="98.0342" y="2053.9473">Login mit neuem Passwort</text><path d="M199.7334,2076.584 L199.7334,2118.4629 L179.7334,2122.4629 L199.7334,2126.4629 L199.7334,2168.3418 A0,0 0 0 0 199.7334,2168.3418 L446.9258,2168.3418 A0,0 0 0 0 446.9258,2168.3418 L446.9258,2086.584 L436.9258,2076.584 L199.7334,2076.584 A0,0 0 0 0 199.7334,2076.584 " fill="#FEFFDD" style="stroke:#181818;stroke-width:0.5;"/><path d="M436.9258,2076.584 L436.9258,2086.584 L446.9258,2086.584 L436.9258,2076.584 " fill="#FEFFDD" style="stroke:#181818;stroke-width:0.5;"/><text fill="#000000" font-family="sans-serif" font-size="13" font-weight="bold" lengthAdjust="spacing" textLength="51.2637" x="205.7334" y="2095.0791">Wichtig:</text><text fill="#000000" font-family="sans-serif" font-size="13" lengthAdjust="spacing" textLength="164.7217" x="205.7334" y="2111.4307">- KEINE Email-Funktionalit&#228;t</text><text fill="#000000" font-family="sans-serif" font-size="13" lengthAdjust="spacing" textLength="182.0635" x="205.7334" y="2127.7822">- Admin setzt Passwort manuell</text><text fill="#000000" font-family="sans-serif" font-size="13" lengthAdjust="spacing" textLength="226.1924" x="205.7334" y="2144.1338">- Keine automatische Benachrichtigung</text><text fill="#000000" font-family="sans-serif" font-size="13" lengthAdjust="spacing" textLength="208.0635" x="205.7334" y="2160.4854">- Kein tempor&#228;res Passwort-System</text><ellipse cx="168.7334" cy="2122.4629" fill="none" rx="11" ry="11" style="stroke:#222222;stroke-width:1.0;"/><ellipse cx="168.7334" cy="2122.4629" fill="#222222" rx="6" ry="6" style="stroke:#222222;stroke-width:1.0;"/><line style="stroke:#000000;stroke-width:1.5;" x1="15" x2="15" y1="51.0645" y2="2168.3418"/><rect fill="#F1F1F1" height="35.0938" rx="12.5" ry="12.5" style="stroke:#181818;stroke-width:0.5;" width="239.457" x="501.8965" y="339.0801"/><text fill="#000000" font-family="sans-serif" font-size="12" lengthAdjust="spacing" textLength="219.457" x="511.8965" y="361.5371">POST /api/auth/reset-request empfangen</text><rect fill="#F1F1F1" height="35.0938" rx="12.5" ry="12.5" style="stroke:#181818;stroke-width:0.5;" width="190.7598" x="526.2451" y="394.1738"/><text fill="#000000" font-family="sans-serif" font-size="12" lengthAdjust="spacing" textLength="170.7598" x="536.2451" y="416.6309">JSON Body parsen: {username}</text><rect fill="#F1F1F1" height="35.0938" rx="12.5" ry="12.5" style="stroke:#181818;stroke-width:0.5;" width="272.1172" x="485.5664" y="449.2676"/><text fill="#000000" font-family="sans-serif" font-size="12" lengthAdjust="spacing" textLength="252.1172" x="495.5664" y="471.7246">authService.requestPasswordReset(username)</text><rect fill="#F1F1F1" height="35.0938" rx="12.5" ry="12.5" style="stroke:#181818;stroke-width:0.5;" width="218.75" x="512.25" y="504.3613"/><text fill="#000000" font-family="sans-serif" font-size="12" lengthAdjust="spacing" textLength="198.75" x="522.25" y="526.8184">userDao.findByUsername(username)</text><rect fill="#F1F1F1" height="35.0938" rx="12.5" ry="12.5" style="stroke:#181818;stroke-width:0.5;" width="249.9805" x="496.6348" y="608.373"/><text fill="#000000" font-family="sans-serif" font-size="12" lengthAdjust="spacing" textLength="229.9805" x="506.6348" y="630.8301">IllegalArgumentException: "User not found"</text><polygon fill="#F1F1F1" points="572.0847,559.4551,671.1653,559.4551,683.1653,571.4551,671.1653,583.4551,572.0847,583.4551,560.0847,571.4551,572.0847,559.4551" style="stroke:#181818;stroke-width:0.5;"/><text fill="#000000" font-family="sans-serif" font-size="11" lengthAdjust="spacing" textLength="22.623" x="625.625" y="594.874">Nein</text><text fill="#000000" font-family="sans-serif" font-size="11" lengthAdjust="spacing" textLength="99.0806" x="572.0847" y="575.9561">Benutzer gefunden?</text><text fill="#000000" font-family="sans-serif" font-size="11" lengthAdjust="spacing" textLength="11.6177" x="683.1653" y="569.0381">Ja</text><line style="stroke:#000000;stroke-width:1.5;" x1="479.5664" x2="479.5664" y1="51.0645" y2="2168.3418"/><rect fill="#F1F1F1" height="35.0938" rx="12.5" ry="12.5" style="stroke:#181818;stroke-width:0.5;" width="159.4063" x="999.7661" y="1002.9355"/><text fill="#000000" font-family="sans-serif" font-size="12" lengthAdjust="spacing" textLength="139.4063" x="1009.7661" y="1025.3926">Admin &#246;ffnet Admin-Panel</text><rect fill="#F1F1F1" height="35.0938" rx="12.5" ry="12.5" style="stroke:#181818;stroke-width:0.5;" width="185.4043" x="986.7671" y="1058.0293"/><text fill="#000000" font-family="sans-serif" font-size="12" lengthAdjust="spacing" textLength="165.4043" x="996.7671" y="1080.4863">GET /api/admin/users/requests</text><rect fill="#F1F1F1" height="35.0938" rx="12.5" ry="12.5" style="stroke:#181818;stroke-width:0.5;" width="230.7617" x="964.0884" y="1113.123"/><text fill="#000000" font-family="sans-serif" font-size="12" lengthAdjust="spacing" textLength="210.7617" x="974.0884" y="1135.5801">userDao.findPasswordResetRequests()</text><rect fill="#F1F1F1" height="35.0938" rx="12.5" ry="12.5" style="stroke:#181818;stroke-width:0.5;" width="246.4531" x="956.2427" y="1168.2168"/><text fill="#000000" font-family="sans-serif" font-size="12" lengthAdjust="spacing" textLength="226.4531" x="966.2427" y="1190.6738">Liste mit reset_requested=TRUE anzeigen</text><rect fill="#F1F1F1" height="35.0938" rx="12.5" ry="12.5" style="stroke:#181818;stroke-width:0.5;" width="159.4063" x="999.7661" y="1223.3105"/><text fill="#000000" font-family="sans-serif" font-size="12" lengthAdjust="spacing" textLength="139.4063" x="1009.7661" y="1245.7676">Admin w&#228;hlt Benutzer aus</text><polygon fill="#F1F1F1" points="1061.1243,1278.4043,1097.8142,1278.4043,1109.8142,1290.4043,1097.8142,1302.4043,1061.1243,1302.4043,1049.1243,1290.4043,1061.1243,1278.4043" style="stroke:#181818;stroke-width:0.5;"/><text fill="#000000" font-family="sans-serif" font-size="11" lengthAdjust="spacing" textLength="36.6899" x="1061.1243" y="1294.9053">Aktion?</text><text fill="#000000" font-family="sans-serif" font-size="11" lengthAdjust="spacing" textLength="62.9868" x="986.1375" y="1287.9873">Genehmigen</text><text fill="#000000" font-family="sans-serif" font-size="11" lengthAdjust="spacing" textLength="46.4868" x="1109.8142" y="1287.9873">Ablehnen</text><rect fill="#F1F1F1" height="35.0938" rx="12.5" ry="12.5" style="stroke:#181818;stroke-width:0.5;" width="160.0859" x="808.6211" y="1322.4043"/><text fill="#000000" font-family="sans-serif" font-size="12" lengthAdjust="spacing" textLength="140.0859" x="818.6211" y="1344.8613">Neues Passwort eingeben</text><rect fill="#F1F1F1" height="35.0938" rx="12.5" ry="12.5" style="stroke:#181818;stroke-width:0.5;" width="178.0801" x="799.624" y="1377.498"/><text fill="#000000" font-family="sans-serif" font-size="12" lengthAdjust="spacing" textLength="158.0801" x="809.624" y="1399.9551">PUT /api/admin/users senden</text><rect fill="#F1F1F1" height="35.0938" rx="12.5" ry="12.5" style="stroke:#181818;stroke-width:0.5;" width="214.0977" x="781.6152" y="1432.5918"/><text fill="#000000" font-family="sans-serif" font-size="12" lengthAdjust="spacing" textLength="194.0977" x="791.6152" y="1455.0488">{ id, password, resetComplete: true }</text><path d="M1007.9756,1863.3418 L1007.9756,1888.8691 L987.9756,1892.8691 L1007.9756,1896.8691 L1007.9756,1922.3965 A0,0 0 0 0 1007.9756,1922.3965 L1157.5664,1922.3965 A0,0 0 0 0 1157.5664,1922.3965 L1157.5664,1873.3418 L1147.5664,1863.3418 L1007.9756,1863.3418 A0,0 0 0 0 1007.9756,1863.3418 " fill="#FEFFDD" style="stroke:#181818;stroke-width:0.5;"/><path d="M1147.5664,1863.3418 L1147.5664,1873.3418 L1157.5664,1873.3418 L1147.5664,1863.3418 " fill="#FEFFDD" style="stroke:#181818;stroke-width:0.5;"/><text fill="#000000" font-family="sans-serif" font-size="13" font-weight="bold" lengthAdjust="spacing" textLength="82.3545" x="1013.9756" y="1881.8369">KEINE Email!</text><text fill="#000000" font-family="sans-serif" font-size="13" lengthAdjust="spacing" textLength="128.5908" x="1013.9756" y="1898.1885">Admin muss Passwort</text><text fill="#000000" font-family="sans-serif" font-size="13" lengthAdjust="spacing" textLength="97.5444" x="1013.9756" y="1914.54">manuell mitteilen</text><rect fill="#F1F1F1" height="35.0938" rx="12.5" ry="12.5" style="stroke:#181818;stroke-width:0.5;" width="198.623" x="789.3525" y="1875.3223"/><text fill="#000000" font-family="sans-serif" font-size="12" lengthAdjust="spacing" textLength="178.623" x="799.3525" y="1897.7793">Best&#228;tigung: "Passwort ge&#228;ndert"</text><rect fill="#F1F1F1" height="35.0938" rx="12.5" ry="12.5" style="stroke:#181818;stroke-width:0.5;" width="178.0801" x="1181.2344" y="1322.4043"/><text fill="#000000" font-family="sans-serif" font-size="12" lengthAdjust="spacing" textLength="158.0801" x="1191.2344" y="1344.8613">PUT /api/admin/users senden</text><rect fill="#F1F1F1" height="35.0938" rx="12.5" ry="12.5" style="stroke:#181818;stroke-width:0.5;" width="156.0723" x="1192.2383" y="1377.498"/><text fill="#000000" font-family="sans-serif" font-size="12" lengthAdjust="spacing" textLength="136.0723" x="1202.2383" y="1399.9551">{ id, resetComplete: true }</text><rect fill="#F1F1F1" height="35.0938" rx="12.5" ry="12.5" style="stroke:#181818;stroke-width:0.5;" width="132.0723" x="1204.2383" y="1542.7793"/><text fill="#000000" font-family="sans-serif" font-size="12" lengthAdjust="spacing" textLength="112.0723" x="1214.2383" y="1565.2363">Anfrage geschlossen</text><polygon fill="#F1F1F1" points="1079.4692,1932.3965,1091.4692,1944.3965,1079.4692,1956.3965,1067.4692,1944.3965,1079.4692,1932.3965" style="stroke:#181818;stroke-width:0.5;"/><line style="stroke:#000000;stroke-width:1.5;" x1="775.6152" x2="775.6152" y1="51.0645" y2="2168.3418"/><rect fill="#F1F1F1" height="35.0938" rx="12.5" ry="12.5" style="stroke:#181818;stroke-width:0.5;" width="129.3828" x="1436" y="1487.6855"/><text fill="#000000" font-family="sans-serif" font-size="12" lengthAdjust="spacing" textLength="109.3828" x="1446" y="1510.1426">userDao.findById(id)</text><rect fill="#F1F1F1" height="35.0938" rx="12.5" ry="12.5" style="stroke:#181818;stroke-width:0.5;" width="196.7363" x="1402.3232" y="1542.7793"/><text fill="#000000" font-family="sans-serif" font-size="12" lengthAdjust="spacing" textLength="176.7363" x="1412.3232" y="1565.2363">PasswordUtils.generateSaltHex()</text><rect fill="#F1F1F1" height="35.0938" rx="12.5" ry="12.5" style="stroke:#181818;stroke-width:0.5;" width="262.7539" x="1369.3145" y="1597.873"/><text fill="#000000" font-family="sans-serif" font-size="12" lengthAdjust="spacing" textLength="242.7539" x="1379.3145" y="1620.3301">PasswordUtils.hashPassword(password, salt)</text><rect fill="#F1F1F1" height="35.0938" rx="12.5" ry="12.5" style="stroke:#181818;stroke-width:0.5;" width="177.4004" x="1411.9912" y="1652.9668"/><text fill="#000000" font-family="sans-serif" font-size="12" lengthAdjust="spacing" textLength="157.4004" x="1421.9912" y="1675.4238">user.setPasswordHash(hash)</text><rect fill="#F1F1F1" height="35.0938" rx="12.5" ry="12.5" style="stroke:#181818;stroke-width:0.5;" width="162.7168" x="1419.333" y="1708.0605"/><text fill="#000000" font-family="sans-serif" font-size="12" lengthAdjust="spacing" textLength="142.7168" x="1429.333" y="1730.5176">user.setPasswordSalt(salt)</text><rect fill="#F1F1F1" height="35.0938" rx="12.5" ry="12.5" style="stroke:#181818;stroke-width:0.5;" width="185.416" x="1407.9834" y="1763.1543"/><text fill="#000000" font-family="sans-serif" font-size="12" lengthAdjust="spacing" textLength="165.416" x="1417.9834" y="1785.6113">user.setResetRequested(false)</text><rect fill="#F1F1F1" height="35.0938" rx="12.5" ry="12.5" style="stroke:#181818;stroke-width:0.5;" width="136.7305" x="1432.3262" y="1818.248"/><text fill="#000000" font-family="sans-serif" font-size="12" lengthAdjust="spacing" textLength="116.7305" x="1442.3262" y="1840.7051">userDao.update(user)</text><rect fill="#F1F1F1" height="35.0938" rx="12.5" ry="12.5" style="stroke:#181818;stroke-width:0.5;" width="185.416" x="1642.0684" y="1432.5918"/><text fill="#000000" font-family="sans-serif" font-size="12" lengthAdjust="spacing" textLength="165.416" x="1652.0684" y="1455.0488">user.setResetRequested(false)</text><rect fill="#F1F1F1" height="35.0938" rx="12.5" ry="12.5" style="stroke:#181818;stroke-width:0.5;" width="136.7305" x="1666.4111" y="1487.6855"/><text fill="#000000" font-family="sans-serif" font-size="12" lengthAdjust="spacing" textLength="116.7305" x="1676.4111" y="1510.1426">userDao.update(user)</text><line style="stroke:#000000;stroke-width:1.5;" x1="1363.3145" x2="1363.3145" y1="51.0645" y2="2168.3418"/><line style="stroke:#000000;stroke-width:1.5;" x1="1831.4844" x2="1831.4844" y1="51.0645" y2="2168.3418"/><line style="stroke:#181818;stroke-width:1.0;" x1="168.7334" x2="168.7334" y1="98.7051" y2="118.7051"/><polygon fill="#181818" points="164.7334,108.7051,168.7334,118.7051,172.7334,108.7051,168.7334,112.7051" style="stroke:#181818;stroke-width:1.0;"/><line style="stroke:#181818;stroke-width:1.0;" x1="168.7334" x2="168.7334" y1="153.7988" y2="173.7988"/><polygon fill="#181818" points="164.7334,163.7988,168.7334,173.7988,172.7334,163.7988,168.7334,167.7988" style="stroke:#181818;stroke-width:1.0;"/><line style="stroke:#181818;stroke-width:1.0;" x1="168.7334" x2="168.7334" y1="208.8926" y2="228.8926"/><polygon fill="#181818" points="164.7334,218.8926,168.7334,228.8926,172.7334,218.8926,168.7334,222.8926" style="stroke:#181818;stroke-width:1.0;"/><line style="stroke:#181818;stroke-width:1.0;" x1="168.7334" x2="168.7334" y1="263.9863" y2="283.9863"/><polygon fill="#181818" points="164.7334,273.9863,168.7334,283.9863,172.7334,273.9863,168.7334,277.9863" style="stroke:#181818;stroke-width:1.0;"/><line style="stroke:#181818;stroke-width:1.0;" x1="168.7334" x2="168.7334" y1="698.5605" y2="718.5605"/><polygon fill="#181818" points="164.7334,708.5605,168.7334,718.5605,172.7334,708.5605,168.7334,712.5605" style="stroke:#181818;stroke-width:1.0;"/><line style="stroke:#181818;stroke-width:1.0;" x1="168.7334" x2="168.7334" y1="817.6543" y2="837.6543"/><polygon fill="#181818" points="164.7334,827.6543,168.7334,837.6543,172.7334,827.6543,168.7334,831.6543" style="stroke:#181818;stroke-width:1.0;"/><line style="stroke:#181818;stroke-width:1.0;" x1="168.7334" x2="168.7334" y1="872.748" y2="892.748"/><polygon fill="#181818" points="164.7334,882.748,168.7334,892.748,172.7334,882.748,168.7334,886.748" style="stroke:#181818;stroke-width:1.0;"/><line style="stroke:#181818;stroke-width:1.0;" x1="168.7334" x2="168.7334" y1="927.8418" y2="947.8418"/><polygon fill="#181818" points="164.7334,937.8418,168.7334,947.8418,172.7334,937.8418,168.7334,941.8418" style="stroke:#181818;stroke-width:1.0;"/><line style="stroke:#181818;stroke-width:1.0;" x1="168.7334" x2="168.7334" y1="2011.4902" y2="2031.4902"/><polygon fill="#181818" points="164.7334,2021.4902,168.7334,2031.4902,172.7334,2021.4902,168.7334,2025.4902" style="stroke:#181818;stroke-width:1.0;"/><line style="stroke:#181818;stroke-width:1.0;" x1="168.7334" x2="168.7334" y1="2066.584" y2="2111.4629"/><polygon fill="#181818" points="164.7334,2101.4629,168.7334,2111.4629,172.7334,2101.4629,168.7334,2105.4629" style="stroke:#181818;stroke-width:1.0;"/><line style="stroke:#181818;stroke-width:1.0;" x1="621.625" x2="621.625" y1="374.1738" y2="394.1738"/><polygon fill="#181818" points="617.625,384.1738,621.625,394.1738,625.625,384.1738,621.625,388.1738" style="stroke:#181818;stroke-width:1.0;"/><line style="stroke:#181818;stroke-width:1.0;" x1="621.625" x2="621.625" y1="429.2676" y2="449.2676"/><polygon fill="#181818" points="617.625,439.2676,621.625,449.2676,625.625,439.2676,621.625,443.2676" style="stroke:#181818;stroke-width:1.0;"/><line style="stroke:#181818;stroke-width:1.0;" x1="621.625" x2="621.625" y1="484.3613" y2="504.3613"/><polygon fill="#181818" points="617.625,494.3613,621.625,504.3613,625.625,494.3613,621.625,498.3613" style="stroke:#181818;stroke-width:1.0;"/><line style="stroke:#181818;stroke-width:1.0;" x1="621.625" x2="621.625" y1="583.4551" y2="608.373"/><polygon fill="#181818" points="617.625,598.373,621.625,608.373,625.625,598.373,621.625,602.373" style="stroke:#181818;stroke-width:1.0;"/><line style="stroke:#181818;stroke-width:1.0;" x1="683.1653" x2="756.6152" y1="571.4551" y2="571.4551"/><polygon fill="#181818" points="752.6152,670.2168,756.6152,680.2168,760.6152,670.2168,756.6152,674.2168" style="stroke:#181818;stroke-width:1.0;"/><line style="stroke:#181818;stroke-width:1.0;" x1="756.6152" x2="756.6152" y1="571.4551" y2="767.5605"/><line style="stroke:#181818;stroke-width:1.0;" x1="756.6152" x2="168.7334" y1="767.5605" y2="767.5605"/><line style="stroke:#181818;stroke-width:1.0;" x1="168.7334" x2="168.7334" y1="767.5605" y2="782.5605"/><polygon fill="#181818" points="164.7334,772.5605,168.7334,782.5605,172.7334,772.5605,168.7334,776.5605" style="stroke:#181818;stroke-width:1.0;"/><line style="stroke:#181818;stroke-width:1.0;" x1="621.625" x2="621.625" y1="539.4551" y2="559.4551"/><polygon fill="#181818" points="617.625,549.4551,621.625,559.4551,625.625,549.4551,621.625,553.4551" style="stroke:#181818;stroke-width:1.0;"/><line style="stroke:#181818;stroke-width:1.0;" x1="1079.4692" x2="1079.4692" y1="1038.0293" y2="1058.0293"/><polygon fill="#181818" points="1075.4692,1048.0293,1079.4692,1058.0293,1083.4692,1048.0293,1079.4692,1052.0293" style="stroke:#181818;stroke-width:1.0;"/><line style="stroke:#181818;stroke-width:1.0;" x1="1079.4692" x2="1079.4692" y1="1093.123" y2="1113.123"/><polygon fill="#181818" points="1075.4692,1103.123,1079.4692,1113.123,1083.4692,1103.123,1079.4692,1107.123" style="stroke:#181818;stroke-width:1.0;"/><line style="stroke:#181818;stroke-width:1.0;" x1="1079.4692" x2="1079.4692" y1="1148.2168" y2="1168.2168"/><polygon fill="#181818" points="1075.4692,1158.2168,1079.4692,1168.2168,1083.4692,1158.2168,1079.4692,1162.2168" style="stroke:#181818;stroke-width:1.0;"/><line style="stroke:#181818;stroke-width:1.0;" x1="1079.4692" x2="1079.4692" y1="1203.3105" y2="1223.3105"/><polygon fill="#181818" points="1075.4692,1213.3105,1079.4692,1223.3105,1083.4692,1213.3105,1079.4692,1217.3105" style="stroke:#181818;stroke-width:1.0;"/><line style="stroke:#181818;stroke-width:1.0;" x1="888.6641" x2="888.6641" y1="1357.498" y2="1377.498"/><polygon fill="#181818" points="884.6641,1367.498,888.6641,1377.498,892.6641,1367.498,888.6641,1371.498" style="stroke:#181818;stroke-width:1.0;"/><line style="stroke:#181818;stroke-width:1.0;" x1="888.6641" x2="888.6641" y1="1412.5918" y2="1432.5918"/><polygon fill="#181818" points="884.6641,1422.5918,888.6641,1432.5918,892.6641,1422.5918,888.6641,1426.5918" style="stroke:#181818;stroke-width:1.0;"/><line style="stroke:#181818;stroke-width:1.0;" x1="1270.2744" x2="1270.2744" y1="1357.498" y2="1377.498"/><polygon fill="#181818" points="1266.2744,1367.498,1270.2744,1377.498,1274.2744,1367.498,1270.2744,1371.498" style="stroke:#181818;stroke-width:1.0;"/><line style="stroke:#181818;stroke-width:1.0;" x1="1049.1243" x2="888.6641" y1="1290.4043" y2="1290.4043"/><line style="stroke:#181818;stroke-width:1.0;" x1="888.6641" x2="888.6641" y1="1290.4043" y2="1322.4043"/><polygon fill="#181818" points="884.6641,1312.4043,888.6641,1322.4043,892.6641,1312.4043,888.6641,1316.4043" style="stroke:#181818;stroke-width:1.0;"/><line style="stroke:#181818;stroke-width:1.0;" x1="1109.8142" x2="1270.2744" y1="1290.4043" y2="1290.4043"/><line style="stroke:#181818;stroke-width:1.0;" x1="1270.2744" x2="1270.2744" y1="1290.4043" y2="1322.4043"/><polygon fill="#181818" points="1266.2744,1312.4043,1270.2744,1322.4043,1274.2744,1312.4043,1270.2744,1316.4043" style="stroke:#181818;stroke-width:1.0;"/><line style="stroke:#181818;stroke-width:1.0;" x1="888.6641" x2="888.6641" y1="1910.416" y2="1944.3965"/><line style="stroke:#181818;stroke-width:1.0;" x1="888.6641" x2="1067.4692" y1="1944.3965" y2="1944.3965"/><polygon fill="#181818" points="1057.4692,1940.3965,1067.4692,1944.3965,1057.4692,1948.3965,1061.4692,1944.3965" style="stroke:#181818;stroke-width:1.0;"/><line style="stroke:#181818;stroke-width:1.0;" x1="1270.2744" x2="1270.2744" y1="1577.873" y2="1944.3965"/><line style="stroke:#181818;stroke-width:1.0;" x1="1270.2744" x2="1091.4692" y1="1944.3965" y2="1944.3965"/><polygon fill="#181818" points="1101.4692,1940.3965,1091.4692,1944.3965,1101.4692,1948.3965,1097.4692,1944.3965" style="stroke:#181818;stroke-width:1.0;"/><line style="stroke:#181818;stroke-width:1.0;" x1="1079.4692" x2="1079.4692" y1="1258.4043" y2="1278.4043"/><polygon fill="#181818" points="1075.4692,1268.4043,1079.4692,1278.4043,1083.4692,1268.4043,1079.4692,1272.4043" style="stroke:#181818;stroke-width:1.0;"/><line style="stroke:#181818;stroke-width:1.0;" x1="1500.6914" x2="1500.6914" y1="1522.7793" y2="1542.7793"/><polygon fill="#181818" points="1496.6914,1532.7793,1500.6914,1542.7793,1504.6914,1532.7793,1500.6914,1536.7793" style="stroke:#181818;stroke-width:1.0;"/><line style="stroke:#181818;stroke-width:1.0;" x1="1500.6914" x2="1500.6914" y1="1577.873" y2="1597.873"/><polygon fill="#181818" points="1496.6914,1587.873,1500.6914,1597.873,1504.6914,1587.873,1500.6914,1591.873" style="stroke:#181818;stroke-width:1.0;"/><line style="stroke:#181818;stroke-width:1.0;" x1="1500.6914" x2="1500.6914" y1="1632.9668" y2="1652.9668"/><polygon fill="#181818" points="1496.6914,1642.9668,1500.6914,1652.9668,1504.6914,1642.9668,1500.6914,1646.9668" style="stroke:#181818;stroke-width:1.0;"/><line style="stroke:#181818;stroke-width:1.0;" x1="1500.6914" x2="1500.6914" y1="1688.0605" y2="1708.0605"/><polygon fill="#181818" points="1496.6914,1698.0605,1500.6914,1708.0605,1504.6914,1698.0605,1500.6914,1702.0605" style="stroke:#181818;stroke-width:1.0;"/><line style="stroke:#181818;stroke-width:1.0;" x1="1500.6914" x2="1500.6914" y1="1743.1543" y2="1763.1543"/><polygon fill="#181818" points="1496.6914,1753.1543,1500.6914,1763.1543,1504.6914,1753.1543,1500.6914,1757.1543" style="stroke:#181818;stroke-width:1.0;"/><line style="stroke:#181818;stroke-width:1.0;" x1="1500.6914" x2="1500.6914" y1="1798.248" y2="1818.248"/><polygon fill="#181818" points="1496.6914,1808.248,1500.6914,1818.248,1504.6914,1808.248,1500.6914,1812.248" style="stroke:#181818;stroke-width:1.0;"/><line style="stroke:#181818;stroke-width:1.0;" x1="1734.7764" x2="1734.7764" y1="1467.6855" y2="1487.6855"/><polygon fill="#181818" points="1730.7764,1477.6855,1734.7764,1487.6855,1738.7764,1477.6855,1734.7764,1481.6855" style="stroke:#181818;stroke-width:1.0;"/><line style="stroke:#181818;stroke-width:1.0;" x1="168.7334" x2="168.7334" y1="319.0801" y2="324.0801"/><line style="stroke:#181818;stroke-width:1.0;" x1="168.7334" x2="621.625" y1="324.0801" y2="324.0801"/><line style="stroke:#181818;stroke-width:1.0;" x1="621.625" x2="621.625" y1="324.0801" y2="339.0801"/><polygon fill="#181818" points="617.625,329.0801,621.625,339.0801,625.625,329.0801,621.625,333.0801" style="stroke:#181818;stroke-width:1.0;"/><line style="stroke:#181818;stroke-width:1.0;" x1="621.625" x2="621.625" y1="643.4668" y2="648.4668"/><line style="stroke:#181818;stroke-width:1.0;" x1="621.625" x2="168.7334" y1="648.4668" y2="648.4668"/><line style="stroke:#181818;stroke-width:1.0;" x1="168.7334" x2="168.7334" y1="648.4668" y2="663.4668"/><polygon fill="#181818" points="164.7334,653.4668,168.7334,663.4668,172.7334,653.4668,168.7334,657.4668" style="stroke:#181818;stroke-width:1.0;"/><line style="stroke:#181818;stroke-width:1.0;" x1="168.7334" x2="168.7334" y1="982.9355" y2="987.9355"/><line style="stroke:#181818;stroke-width:1.0;" x1="168.7334" x2="1079.4692" y1="987.9355" y2="987.9355"/><line style="stroke:#181818;stroke-width:1.0;" x1="1079.4692" x2="1079.4692" y1="987.9355" y2="1002.9355"/><polygon fill="#181818" points="1075.4692,992.9355,1079.4692,1002.9355,1083.4692,992.9355,1079.4692,996.9355" style="stroke:#181818;stroke-width:1.0;"/><line style="stroke:#181818;stroke-width:1.0;" x1="888.6641" x2="888.6641" y1="1467.6855" y2="1472.6855"/><line style="stroke:#181818;stroke-width:1.0;" x1="888.6641" x2="1500.6914" y1="1472.6855" y2="1472.6855"/><line style="stroke:#181818;stroke-width:1.0;" x1="1500.6914" x2="1500.6914" y1="1472.6855" y2="1487.6855"/><polygon fill="#181818" points="1496.6914,1477.6855,1500.6914,1487.6855,1504.6914,1477.6855,1500.6914,1481.6855" style="stroke:#181818;stroke-width:1.0;"/><line style="stroke:#181818;stroke-width:1.0;" x1="1500.6914" x2="1500.6914" y1="1853.3418" y2="1858.3418"/><line style="stroke:#181818;stroke-width:1.0;" x1="1500.6914" x2="888.6641" y1="1858.3418" y2="1858.3418"/><line style="stroke:#181818;stroke-width:1.0;" x1="888.6641" x2="888.6641" y1="1858.3418" y2="1875.3223"/><polygon fill="#181818" points="884.6641,1865.3223,888.6641,1875.3223,892.6641,1865.3223,888.6641,1869.3223" style="stroke:#181818;stroke-width:1.0;"/><line style="stroke:#181818;stroke-width:1.0;" x1="1270.2744" x2="1270.2744" y1="1412.5918" y2="1417.5918"/><line style="stroke:#181818;stroke-width:1.0;" x1="1270.2744" x2="1734.7764" y1="1417.5918" y2="1417.5918"/><line style="stroke:#181818;stroke-width:1.0;" x1="1734.7764" x2="1734.7764" y1="1417.5918" y2="1432.5918"/><polygon fill="#181818" points="1730.7764,1422.5918,1734.7764,1432.5918,1738.7764,1422.5918,1734.7764,1426.5918" style="stroke:#181818;stroke-width:1.0;"/><line style="stroke:#181818;stroke-width:1.0;" x1="1734.7764" x2="1734.7764" y1="1522.7793" y2="1527.7793"/><line style="stroke:#181818;stroke-width:1.0;" x1="1734.7764" x2="1270.2744" y1="1527.7793" y2="1527.7793"/><line style="stroke:#181818;stroke-width:1.0;" x1="1270.2744" x2="1270.2744" y1="1527.7793" y2="1542.7793"/><polygon fill="#181818" points="1266.2744,1532.7793,1270.2744,1542.7793,1274.2744,1532.7793,1270.2744,1536.7793" style="stroke:#181818;stroke-width:1.0;"/><line style="stroke:#181818;stroke-width:1.0;" x1="1079.4692" x2="1079.4692" y1="1956.3965" y2="1961.3965"/><line style="stroke:#181818;stroke-width:1.0;" x1="1079.4692" x2="168.7334" y1="1961.3965" y2="1961.3965"/><line style="stroke:#181818;stroke-width:1.0;" x1="168.7334" x2="168.7334" y1="1961.3965" y2="1976.3965"/><polygon fill="#181818" points="164.7334,1966.3965,168.7334,1976.3965,172.7334,1966.3965,168.7334,1970.3965" style="stroke:#181818;stroke-width:1.0;"/><text fill="#000000" font-family="sans-serif" font-size="18" lengthAdjust="spacing" textLength="62.0508" x="216.2578" y="69.75">Student</text><text fill="#000000" font-family="sans-serif" font-size="18" lengthAdjust="spacing" textLength="168.0996" x="543.541" y="69.75">Backend AuthServlet</text><text fill="#000000" font-family="sans-serif" font-size="18" lengthAdjust="spacing" textLength="51.0205" x="1043.9546" y="69.75">Admin</text><text fill="#000000" font-family="sans-serif" font-size="18" lengthAdjust="spacing" textLength="182.0918" x="1506.3535" y="69.75">Backend AdminServlet</text><!--SRC=[hLNRRjiu47tNLypwIJRg-5r6KJWRfqrtDpLY6_kuOAsHH8IaN7AKMzE_yJVq1_nZEwGeMyvcWGAjdsHovd3Ed3CaIL88imt9EqcFumifIYkqXZ4iX7FtjQNn3JgayQMgxvFaUKbDZeQU4qV2KfBzASqj3BfOk4DRedDetWtWLidDBPffaaM4skf62Gl2FA4imyuvceQUq1gX4L2Q4Z-twmrHRM0GCZcXi88JUfZ9yxdmNpdC6ggMQEyKSbNPujDo1HEnbHF1wnCRJhRufK57W7fR2DEU_77vwHhEw_mHji9omHbyRLnRo3U6pqI4bHiyY_cHPHwAIhle8OFvxmjHdnNIvEUFwxZJ3qba0Md75aei6iDzV3S4gj10UitSXmdmBxjI2akXPhPiD7Tw_h31BScQ2nnuO30rGL5p-c0Q4ewIXFHBh1HQZIflJDbhjTzqL6yJL0uX_IY62NTF5icnUcPrGl6cfOrv87ALlm6oJU2xNbpCLdFmomwMynM4FlzZkmHu2wkRzNpQDmnhxMY_8rboOKncrehQgbu6MPXHji87yhkvbWRkfSs17I4sbPMRYdDfu473BaEsKVllHM7O9k7VU24CAWPwF- -Cu9SdeTP9hD2zqEmrsYxrih71cH1eIIyvllKC-rwE9UztbI8uI2qQ5zMVtNeP3vA_HuELzhbH-6jauCFOzQQ1znRh_v81TctUIPjz1Sa2RIEHDssrlzTwotE1ML0ElhMnhMqEy-CH3mCKi4xjV9MdCX_6OxfEhKagTyR5enM4Iw7e0pwahqTLmbNTIdgiq75Ib-1FxFll0wUaFk__0lo9wMi8BvnR2BPxFyRpQhOv5nrSFUot9DegnBvmwq6M4lSxRhkbE7uyZWXMbXM5lm2ZqH_pg-ivpBMGwhVHA2wtxj2DEqeSTxGm3IhbFKOe5PgmxgNns6rvxT3EFYkiJ6kO7xR4pnhXLpQrctb-8pQLglr3CUskePER8WuFscg_usao9wCnJOvDp-2lsBwxMdTDbbIYRwL_d-goNGaOkeUHXDimET5lDFgxlMQoeDiOUbAEBniJ9bWewPqHzji3kJbFT9pSA6WBm6ECV0bGhGL9Pet-QZZUP-okGnmGFr2rtUziZ-nu-SWzryd13_y2]--></g></svg>