<svg xmlns="http://www.w3.org/2000/svg" xmlns:xlink="http://www.w3.org/1999/xlink" contentStyleType="text/css" height="1370px" preserveAspectRatio="none" style="width:1253px;height:1370px;background:#FFFFFF;" version="1.1" viewBox="0 0 1253 1370" width="1253px" zoomAndPan="magnify"><title>Sequenzdiagramm - Benutzer-Registrierung</title><defs/><g><text fill="#000000" font-family="sans-serif" font-size="14" font-weight="bold" lengthAdjust="spacing" textLength="292.4893" x="476.5691" y="29.5332">Sequenzdiagramm - Benutzer-Registrierung</text><rect fill="none" height="737.6797" style="stroke:#000000;stroke-width:1.5;" width="1226.6274" x="10" y="534.1406"/><line style="stroke:#181818;stroke-width:0.5;stroke-dasharray:5.0,5.0;" x1="72" x2="72" y1="121.2188" y2="1288.8203"/><line style="stroke:#181818;stroke-width:0.5;stroke-dasharray:5.0,5.0;" x1="322.1387" x2="322.1387" y1="121.2188" y2="1288.8203"/><line style="stroke:#181818;stroke-width:0.5;stroke-dasharray:5.0,5.0;" x1="514.2148" x2="514.2148" y1="121.2188" y2="1288.8203"/><line style="stroke:#181818;stroke-width:0.5;stroke-dasharray:5.0,5.0;" x1="748.624" x2="748.624" y1="121.2188" y2="1288.8203"/><line style="stroke:#181818;stroke-width:0.5;stroke-dasharray:5.0,5.0;" x1="939.7617" x2="939.7617" y1="121.2188" y2="1288.8203"/><line style="stroke:#181818;stroke-width:0.5;stroke-dasharray:5.0,5.0;" x1="1185.3657" x2="1185.3657" y1="121.2188" y2="1288.8203"/><text fill="#000000" font-family="sans-serif" font-size="14" lengthAdjust="spacing" textLength="98.0547" x="20" y="118.1426">Neuer Benutzer</text><ellipse cx="72.0273" cy="52.1094" fill="#E2E2F0" rx="8" ry="8" style="stroke:#181818;stroke-width:0.5;"/><path d="M72.0273,60.1094 L72.0273,87.1094 M59.0273,68.1094 L85.0273,68.1094 M72.0273,87.1094 L59.0273,102.1094 M72.0273,87.1094 L85.0273,102.1094 " fill="none" style="stroke:#181818;stroke-width:0.5;"/><text fill="#000000" font-family="sans-serif" font-size="14" lengthAdjust="spacing" textLength="98.0547" x="20" y="1302.3535">Neuer Benutzer</text><ellipse cx="72.0273" cy="1313.9297" fill="#E2E2F0" rx="8" ry="8" style="stroke:#181818;stroke-width:0.5;"/><path d="M72.0273,1321.9297 L72.0273,1348.9297 M59.0273,1329.9297 L85.0273,1329.9297 M72.0273,1348.9297 L59.0273,1363.9297 M72.0273,1348.9297 L85.0273,1363.9297 " fill="none" style="stroke:#181818;stroke-width:0.5;"/><rect fill="#E2E2F0" height="49.2188" rx="2.5" ry="2.5" style="stroke:#181818;stroke-width:0.5;" width="97.2412" x="274.1387" y="71"/><text fill="#000000" font-family="sans-serif" font-size="14" lengthAdjust="spacing" textLength="56.0342" x="294.7422" y="92.5332">Frontend</text><text fill="#000000" font-family="sans-serif" font-size="14" lengthAdjust="spacing" textLength="83.2412" x="281.1387" y="110.1426">(Register.jsp)</text><rect fill="#E2E2F0" height="49.2188" rx="2.5" ry="2.5" style="stroke:#181818;stroke-width:0.5;" width="97.2412" x="274.1387" y="1287.8203"/><text fill="#000000" font-family="sans-serif" font-size="14" lengthAdjust="spacing" textLength="56.0342" x="294.7422" y="1309.3535">Frontend</text><text fill="#000000" font-family="sans-serif" font-size="14" lengthAdjust="spacing" textLength="83.2412" x="281.1387" y="1326.9629">(Register.jsp)</text><rect fill="#E2E2F0" height="31.6094" rx="2.5" ry="2.5" style="stroke:#181818;stroke-width:0.5;" width="86.3721" x="471.2148" y="88.6094"/><text fill="#000000" font-family="sans-serif" font-size="14" lengthAdjust="spacing" textLength="72.3721" x="478.2148" y="110.1426">AuthServlet</text><rect fill="#E2E2F0" height="31.6094" rx="2.5" ry="2.5" style="stroke:#181818;stroke-width:0.5;" width="86.3721" x="471.2148" y="1287.8203"/><text fill="#000000" font-family="sans-serif" font-size="14" lengthAdjust="spacing" textLength="72.3721" x="478.2148" y="1309.3535">AuthServlet</text><rect fill="#E2E2F0" height="31.6094" rx="2.5" ry="2.5" style="stroke:#181818;stroke-width:0.5;" width="89.4824" x="704.624" y="88.6094"/><text fill="#000000" font-family="sans-serif" font-size="14" lengthAdjust="spacing" textLength="75.4824" x="711.624" y="110.1426">AuthService</text><rect fill="#E2E2F0" height="31.6094" rx="2.5" ry="2.5" style="stroke:#181818;stroke-width:0.5;" width="89.4824" x="704.624" y="1287.8203"/><text fill="#000000" font-family="sans-serif" font-size="14" lengthAdjust="spacing" textLength="75.4824" x="711.624" y="1309.3535">AuthService</text><rect fill="#E2E2F0" height="31.6094" rx="2.5" ry="2.5" style="stroke:#181818;stroke-width:0.5;" width="69.2412" x="905.7617" y="88.6094"/><text fill="#000000" font-family="sans-serif" font-size="14" lengthAdjust="spacing" textLength="55.2412" x="912.7617" y="110.1426">UserDao</text><rect fill="#E2E2F0" height="31.6094" rx="2.5" ry="2.5" style="stroke:#181818;stroke-width:0.5;" width="69.2412" x="905.7617" y="1287.8203"/><text fill="#000000" font-family="sans-serif" font-size="14" lengthAdjust="spacing" textLength="55.2412" x="912.7617" y="1309.3535">UserDao</text><text fill="#000000" font-family="sans-serif" font-size="14" lengthAdjust="spacing" textLength="76.2617" x="1144.3657" y="118.1426">PostgreSQL</text><path d="M1167.4966,67.6094 C1167.4966,57.6094 1185.4966,57.6094 1185.4966,57.6094 C1185.4966,57.6094 1203.4966,57.6094 1203.4966,67.6094 L1203.4966,93.6094 C1203.4966,103.6094 1185.4966,103.6094 1185.4966,103.6094 C1185.4966,103.6094 1167.4966,103.6094 1167.4966,93.6094 L1167.4966,67.6094 " fill="#E2E2F0" style="stroke:#181818;stroke-width:1.5;"/><path d="M1167.4966,67.6094 C1167.4966,77.6094 1185.4966,77.6094 1185.4966,77.6094 C1185.4966,77.6094 1203.4966,77.6094 1203.4966,67.6094 " fill="none" style="stroke:#181818;stroke-width:1.5;"/><text fill="#000000" font-family="sans-serif" font-size="14" lengthAdjust="spacing" textLength="76.2617" x="1144.3657" y="1302.3535">PostgreSQL</text><path d="M1167.4966,1315.4297 C1167.4966,1305.4297 1185.4966,1305.4297 1185.4966,1305.4297 C1185.4966,1305.4297 1203.4966,1305.4297 1203.4966,1315.4297 L1203.4966,1341.4297 C1203.4966,1351.4297 1185.4966,1351.4297 1185.4966,1351.4297 C1185.4966,1351.4297 1167.4966,1351.4297 1167.4966,1341.4297 L1167.4966,1315.4297 " fill="#E2E2F0" style="stroke:#181818;stroke-width:1.5;"/><path d="M1167.4966,1315.4297 C1167.4966,1325.4297 1185.4966,1325.4297 1185.4966,1325.4297 C1185.4966,1325.4297 1203.4966,1325.4297 1203.4966,1315.4297 " fill="none" style="stroke:#181818;stroke-width:1.5;"/><rect fill="#EEEEEE" height="3" style="stroke:#EEEEEE;stroke-width:1.0;" width="1246.6274" x="0" y="152.3945"/><line style="stroke:#000000;stroke-width:1.0;" x1="0" x2="1246.6274" y1="152.3945" y2="152.3945"/><line style="stroke:#000000;stroke-width:1.0;" x1="0" x2="1246.6274" y1="155.3945" y2="155.3945"/><rect fill="#EEEEEE" height="24.3516" style="stroke:#000000;stroke-width:2.0;" width="102.1245" x="572.2515" y="141.2188"/><text fill="#000000" font-family="sans-serif" font-size="13" font-weight="bold" lengthAdjust="spacing" textLength="84.5127" x="578.2515" y="158.7139">Registrierung</text><polygon fill="#181818" points="310.7593,193.9219,320.7593,197.9219,310.7593,201.9219,314.7593,197.9219" style="stroke:#181818;stroke-width:1.0;"/><line style="stroke:#181818;stroke-width:1.0;" x1="72.0273" x2="316.7593" y1="197.9219" y2="197.9219"/><text fill="#000000" font-family="sans-serif" font-size="13" lengthAdjust="spacing" textLength="171.2471" x="111.7698" y="193.0654">Registrierungsformular &#246;ffnen</text><polygon fill="#181818" points="83.0273,224.2734,73.0273,228.2734,83.0273,232.2734,79.0273,228.2734" style="stroke:#181818;stroke-width:1.0;"/><line style="stroke:#181818;stroke-width:1.0;stroke-dasharray:2.0,2.0;" x1="77.0273" x2="321.7593" y1="228.2734" y2="228.2734"/><text fill="#000000" font-family="sans-serif" font-size="13" lengthAdjust="spacing" textLength="125.0171" x="134.8848" y="223.417">Register.jsp anzeigen</text><polygon fill="#181818" points="310.7593,270.9766,320.7593,274.9766,310.7593,278.9766,314.7593,274.9766" style="stroke:#181818;stroke-width:1.0;"/><line style="stroke:#181818;stroke-width:1.0;" x1="72.0273" x2="316.7593" y1="274.9766" y2="274.9766"/><text fill="#000000" font-family="sans-serif" font-size="13" lengthAdjust="spacing" textLength="145.2598" x="124.7634" y="253.7686">Formulardaten eingeben:</text><text fill="#000000" font-family="sans-serif" font-size="13" lengthAdjust="spacing" textLength="158.958" x="117.9143" y="270.1201">username, email, password</text><line style="stroke:#181818;stroke-width:1.0;" x1="322.7593" x2="364.7593" y1="321.6797" y2="321.6797"/><line style="stroke:#181818;stroke-width:1.0;" x1="364.7593" x2="364.7593" y1="321.6797" y2="334.6797"/><line style="stroke:#181818;stroke-width:1.0;" x1="323.7593" x2="364.7593" y1="334.6797" y2="334.6797"/><polygon fill="#181818" points="333.7593,330.6797,323.7593,334.6797,333.7593,338.6797,329.7593,334.6797" style="stroke:#181818;stroke-width:1.0;"/><text fill="#000000" font-family="sans-serif" font-size="13" lengthAdjust="spacing" textLength="102.6099" x="336.9797" y="300.4717">Client-Validierung</text><text fill="#000000" font-family="sans-serif" font-size="13" lengthAdjust="spacing" textLength="117.0508" x="329.7593" y="316.8232">(Pflichtfelder pr&#252;fen)</text><polygon fill="#181818" points="502.4009,377.3828,512.4009,381.3828,502.4009,385.3828,506.4009,381.3828" style="stroke:#181818;stroke-width:1.0;"/><line style="stroke:#181818;stroke-width:1.0;" x1="322.7593" x2="508.4009" y1="381.3828" y2="381.3828"/><text fill="#000000" font-family="sans-serif" font-size="13" lengthAdjust="spacing" textLength="135.8398" x="350.6602" y="360.1748">POST /api/auth/register</text><text fill="#000000" font-family="sans-serif" font-size="13" lengthAdjust="spacing" textLength="167.6416" x="334.7593" y="376.5264">{username, email, password}</text><polygon fill="#181818" points="737.3652,407.7344,747.3652,411.7344,737.3652,415.7344,741.3652,411.7344" style="stroke:#181818;stroke-width:1.0;"/><line style="stroke:#181818;stroke-width:1.0;" x1="514.4009" x2="743.3652" y1="411.7344" y2="411.7344"/><text fill="#000000" font-family="sans-serif" font-size="13" lengthAdjust="spacing" textLength="210.9644" x="526.4009" y="406.8779">register(username, email, password)</text><polygon fill="#181818" points="928.3823,438.0859,938.3823,442.0859,928.3823,446.0859,932.3823,442.0859" style="stroke:#181818;stroke-width:1.0;"/><line style="stroke:#181818;stroke-width:1.0;" x1="749.3652" x2="934.3823" y1="442.0859" y2="442.0859"/><text fill="#000000" font-family="sans-serif" font-size="13" lengthAdjust="spacing" textLength="162.5635" x="763.592" y="437.2295">findByUsername(username)</text><polygon fill="#181818" points="1173.4966,484.7891,1183.4966,488.7891,1173.4966,492.7891,1177.4966,488.7891" style="stroke:#181818;stroke-width:1.0;"/><line style="stroke:#181818;stroke-width:1.0;" x1="940.3823" x2="1179.4966" y1="488.7891" y2="488.7891"/><text fill="#000000" font-family="sans-serif" font-size="13" lengthAdjust="spacing" textLength="136.5254" x="994.6768" y="467.5811">SELECT * FROM users</text><text fill="#000000" font-family="sans-serif" font-size="13" lengthAdjust="spacing" textLength="131.8535" x="997.0127" y="483.9326">WHERE username = ?</text><polygon fill="#181818" points="951.3823,515.1406,941.3823,519.1406,951.3823,523.1406,947.3823,519.1406" style="stroke:#181818;stroke-width:1.0;"/><line style="stroke:#181818;stroke-width:1.0;stroke-dasharray:2.0,2.0;" x1="945.3823" x2="1184.4966" y1="519.1406" y2="519.1406"/><text fill="#000000" font-family="sans-serif" font-size="13" lengthAdjust="spacing" textLength="80.9263" x="1022.4763" y="514.2842">null oder User</text><path d="M10,534.1406 L70.1709,534.1406 L70.1709,542.4922 L60.1709,552.4922 L10,552.4922 L10,534.1406 " fill="#EEEEEE" style="stroke:#000000;stroke-width:1.5;"/><rect fill="none" height="737.6797" style="stroke:#000000;stroke-width:1.5;" width="1226.6274" x="10" y="534.1406"/><text fill="#000000" font-family="sans-serif" font-size="13" font-weight="bold" lengthAdjust="spacing" textLength="15.1709" x="25" y="548.6357">alt</text><text fill="#000000" font-family="sans-serif" font-size="11" font-weight="bold" lengthAdjust="spacing" textLength="144.896" x="85.1709" y="547.5596">[Username existiert bereits]</text><polygon fill="#181818" points="760.3652,570.8438,750.3652,574.8438,760.3652,578.8438,756.3652,574.8438" style="stroke:#181818;stroke-width:1.0;"/><line style="stroke:#181818;stroke-width:1.0;stroke-dasharray:2.0,2.0;" x1="754.3652" x2="939.3823" y1="574.8438" y2="574.8438"/><text fill="#000000" font-family="sans-serif" font-size="13" lengthAdjust="spacing" textLength="91.0254" x="799.3611" y="569.9873">User (nicht null)</text><polygon fill="#181818" points="525.4009,617.5469,515.4009,621.5469,525.4009,625.5469,521.4009,621.5469" style="stroke:#181818;stroke-width:1.0;"/><line style="stroke:#181818;stroke-width:1.0;stroke-dasharray:2.0,2.0;" x1="519.4009" x2="748.3652" y1="621.5469" y2="621.5469"/><text fill="#000000" font-family="sans-serif" font-size="13" lengthAdjust="spacing" textLength="92.4917" x="585.6372" y="600.3389">throw Exception</text><text fill="#000000" font-family="sans-serif" font-size="13" lengthAdjust="spacing" textLength="169.6475" x="547.0593" y="616.6904">"Username bereits vergeben"</text><polygon fill="#181818" points="333.7593,664.25,323.7593,668.25,333.7593,672.25,329.7593,668.25" style="stroke:#181818;stroke-width:1.0;"/><line style="stroke:#181818;stroke-width:1.0;stroke-dasharray:2.0,2.0;" x1="327.7593" x2="513.4009" y1="668.25" y2="668.25"/><text fill="#000000" font-family="sans-serif" font-size="13" lengthAdjust="spacing" textLength="59.2427" x="388.9587" y="647.042">HTTP 400</text><text fill="#000000" font-family="sans-serif" font-size="13" lengthAdjust="spacing" textLength="160.9512" x="338.1045" y="663.3936">{error: "Username existiert"}</text><polygon fill="#181818" points="83.0273,694.6016,73.0273,698.6016,83.0273,702.6016,79.0273,698.6016" style="stroke:#181818;stroke-width:1.0;"/><line style="stroke:#181818;stroke-width:1.0;stroke-dasharray:2.0,2.0;" x1="77.0273" x2="321.7593" y1="698.6016" y2="698.6016"/><text fill="#000000" font-family="sans-serif" font-size="13" lengthAdjust="spacing" textLength="143.0952" x="125.8457" y="693.7451">Fehlermeldung anzeigen</text><line style="stroke:#000000;stroke-width:1.0;stroke-dasharray:2.0,2.0;" x1="10" x2="1236.6274" y1="707.6016" y2="707.6016"/><text fill="#000000" font-family="sans-serif" font-size="11" font-weight="bold" lengthAdjust="spacing" textLength="114.313" x="15" y="719.0205">[Username verf&#252;gbar]</text><polygon fill="#181818" points="760.3652,740.7891,750.3652,744.7891,760.3652,748.7891,756.3652,744.7891" style="stroke:#181818;stroke-width:1.0;"/><line style="stroke:#181818;stroke-width:1.0;stroke-dasharray:2.0,2.0;" x1="754.3652" x2="939.3823" y1="744.7891" y2="744.7891"/><text fill="#000000" font-family="sans-serif" font-size="13" lengthAdjust="spacing" textLength="20.2363" x="834.7556" y="739.9326">null</text><line style="stroke:#181818;stroke-width:1.0;" x1="749.3652" x2="791.3652" y1="779.8164" y2="779.8164"/><line style="stroke:#181818;stroke-width:1.0;" x1="791.3652" x2="791.3652" y1="779.8164" y2="792.8164"/><line style="stroke:#181818;stroke-width:1.0;" x1="750.3652" x2="791.3652" y1="792.8164" y2="792.8164"/><polygon fill="#181818" points="760.3652,788.8164,750.3652,792.8164,760.3652,796.8164,756.3652,792.8164" style="stroke:#181818;stroke-width:1.0;"/><text fill="#000000" font-family="sans-serif" font-size="13" lengthAdjust="spacing" textLength="82.3799" x="756.3652" y="774.96">generateSalt()</text><path d="M850.3799,757.7891 L850.3799,799.7891 L961.3799,799.7891 L961.3799,767.7891 L951.3799,757.7891 L850.3799,757.7891 " fill="#FEFFDD" style="stroke:#181818;stroke-width:0.5;"/><path d="M951.3799,757.7891 L951.3799,767.7891 L961.3799,767.7891 L951.3799,757.7891 " fill="#FEFFDD" style="stroke:#181818;stroke-width:0.5;"/><text fill="#000000" font-family="sans-serif" font-size="13" lengthAdjust="spacing" textLength="90.3271" x="856.3799" y="776.2842">SecureRandom</text><text fill="#000000" font-family="sans-serif" font-size="13" lengthAdjust="spacing" textLength="50.5845" x="856.3799" y="792.6357">32 Bytes</text><line style="stroke:#181818;stroke-width:1.0;" x1="749.3652" x2="791.3652" y1="832.5195" y2="832.5195"/><line style="stroke:#181818;stroke-width:1.0;" x1="791.3652" x2="791.3652" y1="832.5195" y2="845.5195"/><line style="stroke:#181818;stroke-width:1.0;" x1="750.3652" x2="791.3652" y1="845.5195" y2="845.5195"/><polygon fill="#181818" points="760.3652,841.5195,750.3652,845.5195,760.3652,849.5195,756.3652,845.5195" style="stroke:#181818;stroke-width:1.0;"/><text fill="#000000" font-family="sans-serif" font-size="13" lengthAdjust="spacing" textLength="177.0171" x="756.3652" y="827.6631">hashPassword(password, salt)</text><path d="M945.0171,810.4922 L945.0171,852.4922 L1056.0171,852.4922 L1056.0171,820.4922 L1046.0171,810.4922 L945.0171,810.4922 " fill="#FEFFDD" style="stroke:#181818;stroke-width:0.5;"/><path d="M1046.0171,810.4922 L1046.0171,820.4922 L1056.0171,820.4922 L1046.0171,810.4922 " fill="#FEFFDD" style="stroke:#181818;stroke-width:0.5;"/><text fill="#000000" font-family="sans-serif" font-size="13" lengthAdjust="spacing" textLength="52.749" x="951.0171" y="828.9873">SHA-256</text><text fill="#000000" font-family="sans-serif" font-size="13" lengthAdjust="spacing" textLength="90.6826" x="951.0171" y="845.3389">password + salt</text><line style="stroke:#181818;stroke-width:1.0;" x1="749.3652" x2="791.3652" y1="913.25" y2="913.25"/><line style="stroke:#181818;stroke-width:1.0;" x1="791.3652" x2="791.3652" y1="913.25" y2="926.25"/><line style="stroke:#181818;stroke-width:1.0;" x1="750.3652" x2="791.3652" y1="926.25" y2="926.25"/><polygon fill="#181818" points="760.3652,922.25,750.3652,926.25,760.3652,930.25,756.3652,926.25" style="stroke:#181818;stroke-width:1.0;"/><text fill="#000000" font-family="sans-serif" font-size="13" lengthAdjust="spacing" textLength="83.8081" x="781.4893" y="875.6904">User erstellen:</text><text fill="#000000" font-family="sans-serif" font-size="13" lengthAdjust="spacing" textLength="88.3657" x="779.2104" y="892.042">role = "student"</text><text fill="#000000" font-family="sans-serif" font-size="13" lengthAdjust="spacing" textLength="134.0562" x="756.3652" y="908.3936">resetRequested = false</text><polygon fill="#181818" points="928.3823,952.6016,938.3823,956.6016,928.3823,960.6016,932.3823,956.6016" style="stroke:#181818;stroke-width:1.0;"/><line style="stroke:#181818;stroke-width:1.0;" x1="749.3652" x2="934.3823" y1="956.6016" y2="956.6016"/><text fill="#000000" font-family="sans-serif" font-size="13" lengthAdjust="spacing" textLength="70.0781" x="809.8347" y="951.7451">create(user)</text><polygon fill="#181818" points="1173.4966,1032.0078,1183.4966,1036.0078,1173.4966,1040.0078,1177.4966,1036.0078" style="stroke:#181818;stroke-width:1.0;"/><line style="stroke:#181818;stroke-width:1.0;" x1="940.3823" x2="1179.4966" y1="1036.0078" y2="1036.0078"/><text fill="#000000" font-family="sans-serif" font-size="13" lengthAdjust="spacing" textLength="117.7363" x="1004.0713" y="982.0967">INSERT INTO users</text><text fill="#000000" font-family="sans-serif" font-size="13" lengthAdjust="spacing" textLength="202.3188" x="961.78" y="998.4482">(username, email, password_hash,</text><text fill="#000000" font-family="sans-serif" font-size="13" lengthAdjust="spacing" textLength="217.5024" x="955.9941" y="1014.7998">password_salt, role, reset_requested)</text><text fill="#000000" font-family="sans-serif" font-size="13" lengthAdjust="spacing" textLength="203.6772" x="961.1008" y="1031.1514">VALUES (?, ?, ?, ?, 'student', false)</text><polygon fill="#181818" points="951.3823,1062.3594,941.3823,1066.3594,951.3823,1070.3594,947.3823,1066.3594" style="stroke:#181818;stroke-width:1.0;"/><line style="stroke:#181818;stroke-width:1.0;stroke-dasharray:2.0,2.0;" x1="945.3823" x2="1184.4966" y1="1066.3594" y2="1066.3594"/><text fill="#000000" font-family="sans-serif" font-size="13" lengthAdjust="spacing" textLength="69.3926" x="1028.2432" y="1061.5029">generatedId</text><polygon fill="#181818" points="760.3652,1092.7109,750.3652,1096.7109,760.3652,1100.7109,756.3652,1096.7109" style="stroke:#181818;stroke-width:1.0;"/><line style="stroke:#181818;stroke-width:1.0;stroke-dasharray:2.0,2.0;" x1="754.3652" x2="939.3823" y1="1096.7109" y2="1096.7109"/><text fill="#000000" font-family="sans-serif" font-size="13" lengthAdjust="spacing" textLength="73.6582" x="808.0447" y="1091.8545">User (mit ID)</text><polygon fill="#181818" points="525.4009,1123.0625,515.4009,1127.0625,525.4009,1131.0625,521.4009,1127.0625" style="stroke:#181818;stroke-width:1.0;"/><line style="stroke:#181818;stroke-width:1.0;stroke-dasharray:2.0,2.0;" x1="519.4009" x2="748.3652" y1="1127.0625" y2="1127.0625"/><text fill="#000000" font-family="sans-serif" font-size="13" lengthAdjust="spacing" textLength="27.4473" x="618.1594" y="1122.2061">User</text><line style="stroke:#181818;stroke-width:1.0;" x1="514.4009" x2="556.4009" y1="1173.7656" y2="1173.7656"/><line style="stroke:#181818;stroke-width:1.0;" x1="556.4009" x2="556.4009" y1="1173.7656" y2="1186.7656"/><line style="stroke:#181818;stroke-width:1.0;" x1="515.4009" x2="556.4009" y1="1186.7656" y2="1186.7656"/><polygon fill="#181818" points="525.4009,1182.7656,515.4009,1186.7656,525.4009,1190.7656,521.4009,1186.7656" style="stroke:#181818;stroke-width:1.0;"/><text fill="#000000" font-family="sans-serif" font-size="13" lengthAdjust="spacing" textLength="184.8057" x="521.4009" y="1152.5576">session.setAttribute("userId", id)</text><text fill="#000000" font-family="sans-serif" font-size="13" lengthAdjust="spacing" textLength="181.9111" x="522.8481" y="1168.9092">session.setAttribute("role", role)</text><polygon fill="#181818" points="333.7593,1229.4688,323.7593,1233.4688,333.7593,1237.4688,329.7593,1233.4688" style="stroke:#181818;stroke-width:1.0;"/><line style="stroke:#181818;stroke-width:1.0;stroke-dasharray:2.0,2.0;" x1="327.7593" x2="513.4009" y1="1233.4688" y2="1233.4688"/><text fill="#000000" font-family="sans-serif" font-size="13" lengthAdjust="spacing" textLength="59.2427" x="388.9587" y="1212.2607">HTTP 200</text><text fill="#000000" font-family="sans-serif" font-size="13" lengthAdjust="spacing" textLength="112.7344" x="362.2129" y="1228.6123">{id, username, role}</text><polygon fill="#181818" points="83.0273,1259.8203,73.0273,1263.8203,83.0273,1267.8203,79.0273,1263.8203" style="stroke:#181818;stroke-width:1.0;"/><line style="stroke:#181818;stroke-width:1.0;stroke-dasharray:2.0,2.0;" x1="77.0273" x2="321.7593" y1="1263.8203" y2="1263.8203"/><text fill="#000000" font-family="sans-serif" font-size="13" lengthAdjust="spacing" textLength="226.7319" x="84.0273" y="1258.9639">"Registrierung erfolgreich (eingeloggt)."</text><!--SRC=[TLNBRjf05DtFLrnv4sXDKgMFHIHQcGOKfAHGJDgDfMgmhysqmvZEZ9j7bT_gghlyME-CRGYgWv0GlkUS-pepji9AX1X_LgZkCy4BpJSR6C08LMNlKGyMM0XZjK1TgO8nyqEeBISG6Cz9yGgDuGL6KXGAKbGMzHEKHhCjbMbH8vJbJQHrUGDMLyWOJssf8VY45UfTqW2uWMj3GYHYHIgsN5a89heaTPKbgbTNXVhukzdsFNmoFWH7bLt7g7z9j3uUnTrnaM8Tf_-725V0EIzzz3oQiOnRlk868PYNnXOQuy-NTN34s7081vE2uP0nfm23zrGRd1s6JLxgJIMvXiS_UQvGCS8C2EefBRZk3xYwHr4Gvb1mqaXGNQW0XIfmXUeiKHMX5DzW2BZXGeQmvSRSb3hpIHhsHobeLuClN8gihed6Ei-bIDSsHvbHegr-_9kZwhE65yN4cy_Y9PpmhJZXDB4JtHIQgD_FfdrWZAXEW1WaqN9wpp8efSSIXoPFb5oeR7HttU1tn3vpOOSQ4IWUNuu_Bk45J1QpAt0OawYl5-F565e23E438_1WfwmgAQ5qxNh3CIujj7a0RwbGcew55MeKrZ2WZy-vRySlfQVSuBnQtuFg-jkfsRMp_FWsnQqLfKfKiClHACClr7w1GKsFFTclwcAvdCERLwzenaX7Hvz1y7-5mOFd7TfeWck9UaFhT9RS-GWbkNWdGOdpnx_5Ykkkxbn7x4b7km09eIRhnJInNjspAYs25iNQqZ8mhJGkkChAJQ9UdyBepc8zlowrDJVhURFzNck340o9TsXVH8FJj-yIrGBXfKS-g-x7GNQmAAK_8hgKpWk1iLL6no2W9sZGBjoTHgYCOZcdAVslMBicrKYjUn_szrDhV3Zz58yNI_fPpbeNFc_rRwxpC57x1wwJ45o58VYglkcsh7wYlaINr-COUXz2s7sFcZQEmhhgfgIdDc-tbKspVK-THju82zFpBXFx0zAQitbcw5udGnzJcP6bssrLqLW2r-qq2q8GhkHkZ6imgFliTrl-r5jUa0tsqtFmBgS7XxSlMRgKT4NJeOIUlnfbMHIsVnmmUe6mVm00]--></g></svg>