<svg xmlns="http://www.w3.org/2000/svg" xmlns:xlink="http://www.w3.org/1999/xlink" contentStyleType="text/css" height="1993px" preserveAspectRatio="none" style="width:1442px;height:1993px;background:#FFFFFF;" version="1.1" viewBox="0 0 1442 1993" width="1442px" zoomAndPan="magnify"><title>Aktivit&#228;tsdiagramm - Login-Prozess</title><defs/><g><text fill="#000000" font-family="sans-serif" font-size="14" font-weight="bold" lengthAdjust="spacing" textLength="238.8271" x="600.1416" y="34.5332">Aktivit&#228;tsdiagramm - Login-Prozess</text><rect fill="none" height="22.6406" style="stroke:none;stroke-width:1.0;" width="1409.1104" x="15" y="51.0645"/><ellipse cx="192.731" cy="88.7051" fill="#222222" rx="10" ry="10" style="stroke:#222222;stroke-width:1.0;"/><rect fill="#F0F0F0" height="35.0938" rx="12.5" ry="12.5" style="stroke:#333333;stroke-width:0.5;" width="104.7324" x="140.3647" y="118.7051"/><text fill="#000000" font-family="sans-serif" font-size="12" lengthAdjust="spacing" textLength="84.7324" x="150.3647" y="141.1621">Login.jsp &#246;ffnen</text><rect fill="#F0F0F0" height="35.0938" rx="12.5" ry="12.5" style="stroke:#333333;stroke-width:0.5;" width="128.0703" x="128.6958" y="173.7988"/><text fill="#000000" font-family="sans-serif" font-size="12" lengthAdjust="spacing" textLength="108.0703" x="138.6958" y="196.2559">Username eingeben</text><rect fill="#F0F0F0" height="35.0938" rx="12.5" ry="12.5" style="stroke:#333333;stroke-width:0.5;" width="122.0645" x="131.6987" y="228.8926"/><text fill="#000000" font-family="sans-serif" font-size="12" lengthAdjust="spacing" textLength="102.0645" x="141.6987" y="251.3496">Passwort eingeben</text><rect fill="#F0F0F0" height="35.0938" rx="12.5" ry="12.5" style="stroke:#333333;stroke-width:0.5;" width="128.0645" x="128.6987" y="283.9863"/><text fill="#000000" font-family="sans-serif" font-size="12" lengthAdjust="spacing" textLength="108.0645" x="138.6987" y="306.4434">Login-Button klicken</text><rect fill="#F0F0F0" height="50.1875" rx="12.5" ry="12.5" style="stroke:#333333;stroke-width:0.5;" width="124.5723" x="130.4448" y="729.3105"/><text fill="#000000" font-family="sans-serif" font-size="12" lengthAdjust="spacing" textLength="80.0449" x="140.4448" y="751.7676">Fehlermeldung</text><text fill="#000000" font-family="sans-serif" font-size="12" lengthAdjust="spacing" textLength="104.5723" x="140.4448" y="766.8613">"Invalid credentials"</text><ellipse cx="192.731" cy="810.498" fill="none" rx="11" ry="11" style="stroke:#222222;stroke-width:1.0;"/><ellipse cx="192.731" cy="810.498" fill="#222222" rx="6" ry="6" style="stroke:#222222;stroke-width:1.0;"/><rect fill="#F0F0F0" height="35.0938" rx="12.5" ry="12.5" style="stroke:#333333;stroke-width:0.5;" width="214.748" x="85.3569" y="863.498"/><text fill="#000000" font-family="sans-serif" font-size="12" lengthAdjust="spacing" textLength="194.748" x="95.3569" y="885.9551">UserDao.findByUsername() aufrufen</text><rect fill="#F0F0F0" height="50.1875" rx="12.5" ry="12.5" style="stroke:#333333;stroke-width:0.5;" width="124.5723" x="42.4102" y="1131.6777"/><text fill="#000000" font-family="sans-serif" font-size="12" lengthAdjust="spacing" textLength="80.0449" x="52.4102" y="1154.1348">Fehlermeldung</text><text fill="#000000" font-family="sans-serif" font-size="12" lengthAdjust="spacing" textLength="104.5723" x="52.4102" y="1169.2285">"Invalid credentials"</text><ellipse cx="104.6963" cy="1212.8652" fill="none" rx="11" ry="11" style="stroke:#222222;stroke-width:1.0;"/><ellipse cx="104.6963" cy="1212.8652" fill="#222222" rx="6" ry="6" style="stroke:#222222;stroke-width:1.0;"/><rect fill="#F0F0F0" height="35.0938" rx="12.5" ry="12.5" style="stroke:#333333;stroke-width:0.5;" width="156.0605" x="202.7354" y="1021.4902"/><text fill="#000000" font-family="sans-serif" font-size="12" lengthAdjust="spacing" textLength="136.0605" x="212.7354" y="1043.9473">User-Objekt zur&#252;ckgeben</text><rect fill="#F0F0F0" height="50.1875" rx="12.5" ry="12.5" style="stroke:#333333;stroke-width:0.5;" width="124.5723" x="42.4102" y="1508.2402"/><text fill="#000000" font-family="sans-serif" font-size="12" lengthAdjust="spacing" textLength="80.0449" x="52.4102" y="1530.6973">Fehlermeldung</text><text fill="#000000" font-family="sans-serif" font-size="12" lengthAdjust="spacing" textLength="104.5723" x="52.4102" y="1545.791">"Invalid credentials"</text><ellipse cx="104.6963" cy="1589.4277" fill="none" rx="11" ry="11" style="stroke:#222222;stroke-width:1.0;"/><ellipse cx="104.6963" cy="1589.4277" fill="#222222" rx="6" ry="6" style="stroke:#222222;stroke-width:1.0;"/><rect fill="#F0F0F0" height="35.0938" rx="12.5" ry="12.5" style="stroke:#333333;stroke-width:0.5;" width="156.0605" x="202.7354" y="1398.0527"/><text fill="#000000" font-family="sans-serif" font-size="12" lengthAdjust="spacing" textLength="136.0605" x="212.7354" y="1420.5098">User-Objekt zur&#252;ckgeben</text><rect fill="#F0F0F0" height="35.0938" rx="12.5" ry="12.5" style="stroke:#333333;stroke-width:0.5;" width="108.7227" x="138.3696" y="1785.709"/><text fill="#000000" font-family="sans-serif" font-size="12" lengthAdjust="spacing" textLength="88.7227" x="148.3696" y="1808.166">Login erfolgreich</text><polygon fill="#F0F0F0" points="138.9958,1840.8027,246.4661,1840.8027,258.4661,1852.8027,246.4661,1864.8027,138.9958,1864.8027,126.9958,1852.8027,138.9958,1840.8027" style="stroke:#333333;stroke-width:0.5;"/><text fill="#000000" font-family="sans-serif" font-size="11" lengthAdjust="spacing" textLength="107.4702" x="138.9958" y="1857.3037">User.role == "admin"?</text><text fill="#000000" font-family="sans-serif" font-size="11" lengthAdjust="spacing" textLength="8.5615" x="118.4343" y="1850.3857">ja</text><text fill="#000000" font-family="sans-serif" font-size="11" lengthAdjust="spacing" textLength="20.7969" x="258.4661" y="1850.3857">nein</text><rect fill="#F0F0F0" height="35.0938" rx="12.5" ry="12.5" style="stroke:#333333;stroke-width:0.5;" width="167.4043" x="21" y="1874.8027"/><text fill="#000000" font-family="sans-serif" font-size="12" lengthAdjust="spacing" textLength="147.4043" x="31" y="1897.2598">Redirect zu AdminPanel.jsp</text><rect fill="#F0F0F0" height="35.0938" rx="12.5" ry="12.5" style="stroke:#333333;stroke-width:0.5;" width="144.7109" x="208.4043" y="1874.8027"/><text fill="#000000" font-family="sans-serif" font-size="12" lengthAdjust="spacing" textLength="124.7109" x="218.4043" y="1897.2598">Redirect zu TestList.jsp</text><polygon fill="#F0F0F0" points="192.731,1915.8965,204.731,1927.8965,192.731,1939.8965,180.731,1927.8965,192.731,1915.8965" style="stroke:#333333;stroke-width:0.5;"/><ellipse cx="192.731" cy="1970.8965" fill="none" rx="11" ry="11" style="stroke:#222222;stroke-width:1.0;"/><ellipse cx="192.731" cy="1970.8965" fill="#222222" rx="6" ry="6" style="stroke:#222222;stroke-width:1.0;"/><line style="stroke:#000000;stroke-width:1.5;" x1="15" x2="15" y1="51.0645" y2="1981.8965"/><rect fill="#ADD8E6" height="1930.832" style="stroke:#ADD8E6;stroke-width:1.0;" width="281.1216" x="362.7959" y="51.0645"/><rect fill="#F0F0F0" height="35.0938" rx="12.5" ry="12.5" style="stroke:#333333;stroke-width:0.5;" width="194.1113" x="418.4692" y="339.0801"/><text fill="#000000" font-family="sans-serif" font-size="12" lengthAdjust="spacing" textLength="174.1113" x="428.4692" y="361.5371">POST /api/auth/login empfangen</text><rect fill="#F0F0F0" height="35.0938" rx="12.5" ry="12.5" style="stroke:#333333;stroke-width:0.5;" width="248.7852" x="391.1323" y="394.1738"/><text fill="#000000" font-family="sans-serif" font-size="12" lengthAdjust="spacing" textLength="228.7852" x="401.1323" y="416.6309">JSON Body parsen: {username, password}</text><rect fill="#F0F0F0" height="35.0938" rx="12.5" ry="12.5" style="stroke:#333333;stroke-width:0.5;" width="168.7461" x="431.1519" y="449.2676"/><text fill="#000000" font-family="sans-serif" font-size="12" lengthAdjust="spacing" textLength="148.7461" x="441.1519" y="471.7246">AuthService.login() aufrufen</text><rect fill="#F0F0F0" height="35.0938" rx="12.5" ry="12.5" style="stroke:#333333;stroke-width:0.5;" width="117.3887" x="456.8306" y="663.4668"/><text fill="#000000" font-family="sans-serif" font-size="12" lengthAdjust="spacing" textLength="97.3887" x="466.8306" y="685.9238">HTTP 400 senden</text><rect fill="#F0F0F0" height="35.0938" rx="12.5" ry="12.5" style="stroke:#333333;stroke-width:0.5;" width="117.3887" x="368.7959" y="1076.584"/><text fill="#000000" font-family="sans-serif" font-size="12" lengthAdjust="spacing" textLength="97.3887" x="378.7959" y="1099.041">HTTP 400 senden</text><rect fill="#F0F0F0" height="35.0938" rx="12.5" ry="12.5" style="stroke:#333333;stroke-width:0.5;" width="117.3887" x="368.7959" y="1453.1465"/><text fill="#000000" font-family="sans-serif" font-size="12" lengthAdjust="spacing" textLength="97.3887" x="378.7959" y="1475.6035">HTTP 400 senden</text><rect fill="#F0F0F0" height="35.0938" rx="12.5" ry="12.5" style="stroke:#333333;stroke-width:0.5;" width="111.3828" x="459.8335" y="1620.4277"/><text fill="#000000" font-family="sans-serif" font-size="12" lengthAdjust="spacing" textLength="91.3828" x="469.8335" y="1642.8848">Session erstellen</text><rect fill="#F0F0F0" height="35.0938" rx="12.5" ry="12.5" style="stroke:#333333;stroke-width:0.5;" width="159.4004" x="435.8247" y="1675.5215"/><text fill="#000000" font-family="sans-serif" font-size="12" lengthAdjust="spacing" textLength="139.4004" x="445.8247" y="1697.9785">User in Session speichern</text><rect fill="#F0F0F0" height="35.0938" rx="12.5" ry="12.5" style="stroke:#333333;stroke-width:0.5;" width="158.082" x="436.4839" y="1730.6152"/><text fill="#000000" font-family="sans-serif" font-size="12" lengthAdjust="spacing" textLength="138.082" x="446.4839" y="1753.0723">Erfolgs-Response senden</text><line style="stroke:#000000;stroke-width:1.5;" x1="362.7959" x2="362.7959" y1="51.0645" y2="1981.8965"/><rect fill="#90EE90" height="1930.832" style="stroke:#90EE90;stroke-width:1.0;" width="450.8657" x="643.9175" y="51.0645"/><rect fill="#F0F0F0" height="35.0938" rx="12.5" ry="12.5" style="stroke:#333333;stroke-width:0.5;" width="140.0762" x="745.9531" y="504.3613"/><text fill="#000000" font-family="sans-serif" font-size="12" lengthAdjust="spacing" textLength="120.0762" x="755.9531" y="526.8184">Login-Daten validieren</text><rect fill="#F0F0F0" height="35.0938" rx="12.5" ry="12.5" style="stroke:#333333;stroke-width:0.5;" width="156.0781" x="737.9521" y="608.373"/><text fill="#000000" font-family="sans-serif" font-size="12" lengthAdjust="spacing" textLength="136.0781" x="747.9521" y="630.8301">IllegalArgumentException</text><polygon fill="#F0F0F0" points="776.8628,559.4551,855.1196,559.4551,867.1196,571.4551,855.1196,583.4551,776.8628,583.4551,764.8628,571.4551,776.8628,559.4551" style="stroke:#333333;stroke-width:0.5;"/><text fill="#000000" font-family="sans-serif" font-size="11" lengthAdjust="spacing" textLength="8.5615" x="819.9912" y="594.874">ja</text><text fill="#000000" font-family="sans-serif" font-size="11" lengthAdjust="spacing" textLength="78.2568" x="776.8628" y="575.9561">Username leer?</text><text fill="#000000" font-family="sans-serif" font-size="11" lengthAdjust="spacing" textLength="20.7969" x="867.1196" y="569.0381">nein</text><rect fill="#F0F0F0" height="35.0938" rx="12.5" ry="12.5" style="stroke:#333333;stroke-width:0.5;" width="156.0781" x="649.9175" y="1021.4902"/><text fill="#000000" font-family="sans-serif" font-size="12" lengthAdjust="spacing" textLength="136.0781" x="659.9175" y="1043.9473">IllegalArgumentException</text><path d="M916.6934,1248.2363 L916.6934,1257.4121 L896.6934,1261.4121 L916.6934,1265.4121 L916.6934,1274.5879 A0,0 0 0 0 916.6934,1274.5879 L1089.7832,1274.5879 A0,0 0 0 0 1089.7832,1274.5879 L1089.7832,1258.2363 L1079.7832,1248.2363 L916.6934,1248.2363 A0,0 0 0 0 916.6934,1248.2363 " fill="#FEFFDD" style="stroke:#181818;stroke-width:0.5;"/><path d="M1079.7832,1248.2363 L1079.7832,1258.2363 L1089.7832,1258.2363 L1079.7832,1248.2363 " fill="#FEFFDD" style="stroke:#181818;stroke-width:0.5;"/><text fill="#000000" font-family="sans-serif" font-size="13" lengthAdjust="spacing" textLength="152.0898" x="922.6934" y="1266.7314">SHA-256(password + salt)</text><rect fill="#F0F0F0" height="35.0938" rx="12.5" ry="12.5" style="stroke:#333333;stroke-width:0.5;" width="161.4043" x="735.2891" y="1243.8652"/><text fill="#000000" font-family="sans-serif" font-size="12" lengthAdjust="spacing" textLength="141.4043" x="745.2891" y="1266.3223">Passwort-Hash berechnen</text><rect fill="#F0F0F0" height="35.0938" rx="12.5" ry="12.5" style="stroke:#333333;stroke-width:0.5;" width="112.7188" x="759.6318" y="1298.959"/><text fill="#000000" font-family="sans-serif" font-size="12" lengthAdjust="spacing" textLength="92.7188" x="769.6318" y="1321.416">Hash vergleichen</text><polygon fill="#F0F0F0" points="752.0994,1354.0527,879.8831,1354.0527,891.8831,1366.0527,879.8831,1378.0527,752.0994,1378.0527,740.0994,1366.0527,752.0994,1354.0527" style="stroke:#333333;stroke-width:0.5;"/><text fill="#000000" font-family="sans-serif" font-size="11" lengthAdjust="spacing" textLength="127.7837" x="752.0994" y="1370.5537">Hashes stimmen &#252;berein?</text><text fill="#000000" font-family="sans-serif" font-size="11" lengthAdjust="spacing" textLength="20.7969" x="719.3025" y="1363.6357">nein</text><text fill="#000000" font-family="sans-serif" font-size="11" lengthAdjust="spacing" textLength="8.5615" x="891.8831" y="1363.6357">ja</text><rect fill="#F0F0F0" height="35.0938" rx="12.5" ry="12.5" style="stroke:#333333;stroke-width:0.5;" width="156.0781" x="649.9175" y="1398.0527"/><text fill="#000000" font-family="sans-serif" font-size="12" lengthAdjust="spacing" textLength="136.0781" x="659.9175" y="1420.5098">IllegalArgumentException</text><line style="stroke:#000000;stroke-width:1.5;" x1="643.9175" x2="643.9175" y1="51.0645" y2="1981.8965"/><rect fill="#FFFFE0" height="1930.832" style="stroke:#FFFFE0;stroke-width:1.0;" width="327.8267" x="1094.7832" y="51.0645"/><path d="M1260.0845,914.7871 L1260.0845,932.1387 L1240.0845,936.1387 L1260.0845,940.1387 L1260.0845,957.4902 A0,0 0 0 0 1260.0845,957.4902 L1417.6099,957.4902 A0,0 0 0 0 1417.6099,957.4902 L1417.6099,924.7871 L1407.6099,914.7871 L1260.0845,914.7871 A0,0 0 0 0 1260.0845,914.7871 " fill="#FEFFDD" style="stroke:#181818;stroke-width:0.5;"/><path d="M1407.6099,914.7871 L1407.6099,924.7871 L1417.6099,924.7871 L1407.6099,914.7871 " fill="#FEFFDD" style="stroke:#181818;stroke-width:0.5;"/><text fill="#000000" font-family="sans-serif" font-size="13" lengthAdjust="spacing" textLength="136.5254" x="1266.0845" y="933.2822">SELECT * FROM users</text><text fill="#000000" font-family="sans-serif" font-size="13" lengthAdjust="spacing" textLength="131.8535" x="1266.0845" y="949.6338">WHERE username = ?</text><rect fill="#F0F0F0" height="35.0938" rx="12.5" ry="12.5" style="stroke:#333333;stroke-width:0.5;" width="136.7305" x="1103.354" y="918.5918"/><text fill="#000000" font-family="sans-serif" font-size="12" lengthAdjust="spacing" textLength="116.7305" x="1113.354" y="941.0488">SQL Query ausf&#252;hren</text><polygon fill="#F0F0F0" points="1132.5801,977.4902,1210.8584,977.4902,1222.8584,989.4902,1210.8584,1001.4902,1132.5801,1001.4902,1120.5801,989.4902,1132.5801,977.4902" style="stroke:#333333;stroke-width:0.5;"/><text fill="#000000" font-family="sans-serif" font-size="11" lengthAdjust="spacing" textLength="78.2783" x="1132.5801" y="993.9912">User gefunden?</text><text fill="#000000" font-family="sans-serif" font-size="11" lengthAdjust="spacing" textLength="20.7969" x="1099.7832" y="987.0732">nein</text><text fill="#000000" font-family="sans-serif" font-size="11" lengthAdjust="spacing" textLength="8.5615" x="1222.8584" y="987.0732">ja</text><line style="stroke:#000000;stroke-width:1.5;" x1="1094.7832" x2="1094.7832" y1="51.0645" y2="1981.8965"/><line style="stroke:#000000;stroke-width:1.5;" x1="1422.6099" x2="1422.6099" y1="51.0645" y2="1981.8965"/><line style="stroke:#181818;stroke-width:1.0;" x1="192.731" x2="192.731" y1="98.7051" y2="118.7051"/><polygon fill="#181818" points="188.731,108.7051,192.731,118.7051,196.731,108.7051,192.731,112.7051" style="stroke:#181818;stroke-width:1.0;"/><line style="stroke:#181818;stroke-width:1.0;" x1="192.731" x2="192.731" y1="153.7988" y2="173.7988"/><polygon fill="#181818" points="188.731,163.7988,192.731,173.7988,196.731,163.7988,192.731,167.7988" style="stroke:#181818;stroke-width:1.0;"/><line style="stroke:#181818;stroke-width:1.0;" x1="192.731" x2="192.731" y1="208.8926" y2="228.8926"/><polygon fill="#181818" points="188.731,218.8926,192.731,228.8926,196.731,218.8926,192.731,222.8926" style="stroke:#181818;stroke-width:1.0;"/><line style="stroke:#181818;stroke-width:1.0;" x1="192.731" x2="192.731" y1="263.9863" y2="283.9863"/><polygon fill="#181818" points="188.731,273.9863,192.731,283.9863,196.731,273.9863,192.731,277.9863" style="stroke:#181818;stroke-width:1.0;"/><line style="stroke:#181818;stroke-width:1.0;" x1="192.731" x2="192.731" y1="779.498" y2="799.498"/><polygon fill="#181818" points="188.731,789.498,192.731,799.498,196.731,789.498,192.731,793.498" style="stroke:#181818;stroke-width:1.0;"/><line style="stroke:#181818;stroke-width:1.0;" x1="104.6963" x2="104.6963" y1="1181.8652" y2="1201.8652"/><polygon fill="#181818" points="100.6963,1191.8652,104.6963,1201.8652,108.6963,1191.8652,104.6963,1195.8652" style="stroke:#181818;stroke-width:1.0;"/><line style="stroke:#181818;stroke-width:1.0;" x1="104.6963" x2="104.6963" y1="1558.4277" y2="1578.4277"/><polygon fill="#181818" points="100.6963,1568.4277,104.6963,1578.4277,108.6963,1568.4277,104.6963,1572.4277" style="stroke:#181818;stroke-width:1.0;"/><line style="stroke:#181818;stroke-width:1.0;" x1="126.9958" x2="104.7021" y1="1852.8027" y2="1852.8027"/><line style="stroke:#181818;stroke-width:1.0;" x1="104.7021" x2="104.7021" y1="1852.8027" y2="1874.8027"/><polygon fill="#181818" points="100.7021,1864.8027,104.7021,1874.8027,108.7021,1864.8027,104.7021,1868.8027" style="stroke:#181818;stroke-width:1.0;"/><line style="stroke:#181818;stroke-width:1.0;" x1="258.4661" x2="280.7598" y1="1852.8027" y2="1852.8027"/><line style="stroke:#181818;stroke-width:1.0;" x1="280.7598" x2="280.7598" y1="1852.8027" y2="1874.8027"/><polygon fill="#181818" points="276.7598,1864.8027,280.7598,1874.8027,284.7598,1864.8027,280.7598,1868.8027" style="stroke:#181818;stroke-width:1.0;"/><line style="stroke:#181818;stroke-width:1.0;" x1="104.7021" x2="104.7021" y1="1909.8965" y2="1927.8965"/><line style="stroke:#181818;stroke-width:1.0;" x1="104.7021" x2="180.731" y1="1927.8965" y2="1927.8965"/><polygon fill="#181818" points="170.731,1923.8965,180.731,1927.8965,170.731,1931.8965,174.731,1927.8965" style="stroke:#181818;stroke-width:1.0;"/><line style="stroke:#181818;stroke-width:1.0;" x1="280.7598" x2="280.7598" y1="1909.8965" y2="1927.8965"/><line style="stroke:#181818;stroke-width:1.0;" x1="280.7598" x2="204.731" y1="1927.8965" y2="1927.8965"/><polygon fill="#181818" points="214.731,1923.8965,204.731,1927.8965,214.731,1931.8965,210.731,1927.8965" style="stroke:#181818;stroke-width:1.0;"/><line style="stroke:#181818;stroke-width:1.0;" x1="192.731" x2="192.731" y1="1820.8027" y2="1840.8027"/><polygon fill="#181818" points="188.731,1830.8027,192.731,1840.8027,196.731,1830.8027,192.731,1834.8027" style="stroke:#181818;stroke-width:1.0;"/><line style="stroke:#181818;stroke-width:1.0;" x1="192.731" x2="192.731" y1="1939.8965" y2="1959.8965"/><polygon fill="#181818" points="188.731,1949.8965,192.731,1959.8965,196.731,1949.8965,192.731,1953.8965" style="stroke:#181818;stroke-width:1.0;"/><line style="stroke:#181818;stroke-width:1.0;" x1="515.5249" x2="515.5249" y1="374.1738" y2="394.1738"/><polygon fill="#181818" points="511.5249,384.1738,515.5249,394.1738,519.5249,384.1738,515.5249,388.1738" style="stroke:#181818;stroke-width:1.0;"/><line style="stroke:#181818;stroke-width:1.0;" x1="515.5249" x2="515.5249" y1="429.2676" y2="449.2676"/><polygon fill="#181818" points="511.5249,439.2676,515.5249,449.2676,519.5249,439.2676,515.5249,443.2676" style="stroke:#181818;stroke-width:1.0;"/><line style="stroke:#181818;stroke-width:1.0;" x1="515.5249" x2="515.5249" y1="1655.5215" y2="1675.5215"/><polygon fill="#181818" points="511.5249,1665.5215,515.5249,1675.5215,519.5249,1665.5215,515.5249,1669.5215" style="stroke:#181818;stroke-width:1.0;"/><line style="stroke:#181818;stroke-width:1.0;" x1="515.5249" x2="515.5249" y1="1710.6152" y2="1730.6152"/><polygon fill="#181818" points="511.5249,1720.6152,515.5249,1730.6152,519.5249,1720.6152,515.5249,1724.6152" style="stroke:#181818;stroke-width:1.0;"/><line style="stroke:#181818;stroke-width:1.0;" x1="815.9912" x2="815.9912" y1="583.4551" y2="608.373"/><polygon fill="#181818" points="811.9912,598.373,815.9912,608.373,819.9912,598.373,815.9912,602.373" style="stroke:#181818;stroke-width:1.0;"/><line style="stroke:#181818;stroke-width:1.0;" x1="867.1196" x2="904.0303" y1="571.4551" y2="571.4551"/><polygon fill="#181818" points="900.0303,708.5605,904.0303,718.5605,908.0303,708.5605,904.0303,712.5605" style="stroke:#181818;stroke-width:1.0;"/><line style="stroke:#181818;stroke-width:1.0;" x1="904.0303" x2="904.0303" y1="571.4551" y2="848.498"/><line style="stroke:#181818;stroke-width:1.0;" x1="904.0303" x2="192.731" y1="848.498" y2="848.498"/><line style="stroke:#181818;stroke-width:1.0;" x1="192.731" x2="192.731" y1="848.498" y2="863.498"/><polygon fill="#181818" points="188.731,853.498,192.731,863.498,196.731,853.498,192.731,857.498" style="stroke:#181818;stroke-width:1.0;"/><line style="stroke:#181818;stroke-width:1.0;" x1="815.9912" x2="815.9912" y1="539.4551" y2="559.4551"/><polygon fill="#181818" points="811.9912,549.4551,815.9912,559.4551,819.9912,549.4551,815.9912,553.4551" style="stroke:#181818;stroke-width:1.0;"/><line style="stroke:#181818;stroke-width:1.0;" x1="815.9912" x2="815.9912" y1="1278.959" y2="1298.959"/><polygon fill="#181818" points="811.9912,1288.959,815.9912,1298.959,819.9912,1288.959,815.9912,1292.959" style="stroke:#181818;stroke-width:1.0;"/><line style="stroke:#181818;stroke-width:1.0;" x1="740.0994" x2="727.9565" y1="1366.0527" y2="1366.0527"/><line style="stroke:#181818;stroke-width:1.0;" x1="727.9565" x2="727.9565" y1="1366.0527" y2="1398.0527"/><polygon fill="#181818" points="723.9565,1388.0527,727.9565,1398.0527,731.9565,1388.0527,727.9565,1392.0527" style="stroke:#181818;stroke-width:1.0;"/><line style="stroke:#181818;stroke-width:1.0;" x1="815.9912" x2="815.9912" y1="1334.0527" y2="1354.0527"/><polygon fill="#181818" points="811.9912,1344.0527,815.9912,1354.0527,819.9912,1344.0527,815.9912,1348.0527" style="stroke:#181818;stroke-width:1.0;"/><line style="stroke:#181818;stroke-width:1.0;" x1="1171.7192" x2="1171.7192" y1="953.6855" y2="977.4902"/><polygon fill="#181818" points="1167.7192,967.4902,1171.7192,977.4902,1175.7192,967.4902,1171.7192,971.4902" style="stroke:#181818;stroke-width:1.0;"/><line style="stroke:#181818;stroke-width:1.0;" x1="192.731" x2="192.731" y1="319.0801" y2="324.0801"/><line style="stroke:#181818;stroke-width:1.0;" x1="192.731" x2="515.5249" y1="324.0801" y2="324.0801"/><line style="stroke:#181818;stroke-width:1.0;" x1="515.5249" x2="515.5249" y1="324.0801" y2="339.0801"/><polygon fill="#181818" points="511.5249,329.0801,515.5249,339.0801,519.5249,329.0801,515.5249,333.0801" style="stroke:#181818;stroke-width:1.0;"/><line style="stroke:#181818;stroke-width:1.0;" x1="515.5249" x2="515.5249" y1="484.3613" y2="489.3613"/><line style="stroke:#181818;stroke-width:1.0;" x1="515.5249" x2="815.9912" y1="489.3613" y2="489.3613"/><line style="stroke:#181818;stroke-width:1.0;" x1="815.9912" x2="815.9912" y1="489.3613" y2="504.3613"/><polygon fill="#181818" points="811.9912,494.3613,815.9912,504.3613,819.9912,494.3613,815.9912,498.3613" style="stroke:#181818;stroke-width:1.0;"/><line style="stroke:#181818;stroke-width:1.0;" x1="815.9912" x2="815.9912" y1="643.4668" y2="648.4668"/><line style="stroke:#181818;stroke-width:1.0;" x1="815.9912" x2="515.5249" y1="648.4668" y2="648.4668"/><line style="stroke:#181818;stroke-width:1.0;" x1="515.5249" x2="515.5249" y1="648.4668" y2="663.4668"/><polygon fill="#181818" points="511.5249,653.4668,515.5249,663.4668,519.5249,653.4668,515.5249,657.4668" style="stroke:#181818;stroke-width:1.0;"/><line style="stroke:#181818;stroke-width:1.0;" x1="515.5249" x2="515.5249" y1="698.5605" y2="711.8105"/><line style="stroke:#181818;stroke-width:1.0;" x1="515.5249" x2="192.731" y1="711.8105" y2="711.8105"/><line style="stroke:#181818;stroke-width:1.0;" x1="192.731" x2="192.731" y1="711.8105" y2="729.3105"/><polygon fill="#181818" points="188.731,719.3105,192.731,729.3105,196.731,719.3105,192.731,723.3105" style="stroke:#181818;stroke-width:1.0;"/><line style="stroke:#181818;stroke-width:1.0;" x1="192.731" x2="192.731" y1="898.5918" y2="903.5918"/><line style="stroke:#181818;stroke-width:1.0;" x1="192.731" x2="1171.7192" y1="903.5918" y2="903.5918"/><line style="stroke:#181818;stroke-width:1.0;" x1="1171.7192" x2="1171.7192" y1="903.5918" y2="918.5918"/><polygon fill="#181818" points="1167.7192,908.5918,1171.7192,918.5918,1175.7192,908.5918,1171.7192,912.5918" style="stroke:#181818;stroke-width:1.0;"/><line style="stroke:#181818;stroke-width:1.0;" x1="727.9565" x2="727.9565" y1="1056.584" y2="1061.584"/><line style="stroke:#181818;stroke-width:1.0;" x1="727.9565" x2="427.4902" y1="1061.584" y2="1061.584"/><line style="stroke:#181818;stroke-width:1.0;" x1="427.4902" x2="427.4902" y1="1061.584" y2="1076.584"/><polygon fill="#181818" points="423.4902,1066.584,427.4902,1076.584,431.4902,1066.584,427.4902,1070.584" style="stroke:#181818;stroke-width:1.0;"/><line style="stroke:#181818;stroke-width:1.0;" x1="427.4902" x2="427.4902" y1="1111.6777" y2="1116.6777"/><line style="stroke:#181818;stroke-width:1.0;" x1="427.4902" x2="104.6963" y1="1116.6777" y2="1116.6777"/><line style="stroke:#181818;stroke-width:1.0;" x1="104.6963" x2="104.6963" y1="1116.6777" y2="1131.6777"/><polygon fill="#181818" points="100.6963,1121.6777,104.6963,1131.6777,108.6963,1121.6777,104.6963,1125.6777" style="stroke:#181818;stroke-width:1.0;"/><line style="stroke:#181818;stroke-width:1.0;" x1="1120.5801" x2="727.9565" y1="989.4902" y2="989.4902"/><line style="stroke:#181818;stroke-width:1.0;" x1="727.9565" x2="727.9565" y1="989.4902" y2="1021.4902"/><polygon fill="#181818" points="723.9565,1011.4902,727.9565,1021.4902,731.9565,1011.4902,727.9565,1015.4902" style="stroke:#181818;stroke-width:1.0;"/><line style="stroke:#181818;stroke-width:1.0;" x1="1222.8584" x2="1234.8584" y1="989.4902" y2="989.4902"/><line style="stroke:#181818;stroke-width:1.0;" x1="1234.8584" x2="1234.8584" y1="989.4902" y2="1007.4902"/><line style="stroke:#181818;stroke-width:1.0;" x1="1234.8584" x2="280.7656" y1="1007.4902" y2="1007.4902"/><line style="stroke:#181818;stroke-width:1.0;" x1="280.7656" x2="280.7656" y1="1007.4902" y2="1021.4902"/><polygon fill="#181818" points="276.7656,1011.4902,280.7656,1021.4902,284.7656,1011.4902,280.7656,1015.4902" style="stroke:#181818;stroke-width:1.0;"/><line style="stroke:#181818;stroke-width:1.0;" x1="280.7656" x2="280.7656" y1="1056.584" y2="1228.8652"/><line style="stroke:#181818;stroke-width:1.0;" x1="280.7656" x2="815.9912" y1="1228.8652" y2="1228.8652"/><line style="stroke:#181818;stroke-width:1.0;" x1="815.9912" x2="815.9912" y1="1228.8652" y2="1243.8652"/><polygon fill="#181818" points="811.9912,1233.8652,815.9912,1243.8652,819.9912,1233.8652,815.9912,1237.8652" style="stroke:#181818;stroke-width:1.0;"/><line style="stroke:#181818;stroke-width:1.0;" x1="727.9565" x2="727.9565" y1="1433.1465" y2="1438.1465"/><line style="stroke:#181818;stroke-width:1.0;" x1="727.9565" x2="427.4902" y1="1438.1465" y2="1438.1465"/><line style="stroke:#181818;stroke-width:1.0;" x1="427.4902" x2="427.4902" y1="1438.1465" y2="1453.1465"/><polygon fill="#181818" points="423.4902,1443.1465,427.4902,1453.1465,431.4902,1443.1465,427.4902,1447.1465" style="stroke:#181818;stroke-width:1.0;"/><line style="stroke:#181818;stroke-width:1.0;" x1="427.4902" x2="427.4902" y1="1488.2402" y2="1493.2402"/><line style="stroke:#181818;stroke-width:1.0;" x1="427.4902" x2="104.6963" y1="1493.2402" y2="1493.2402"/><line style="stroke:#181818;stroke-width:1.0;" x1="104.6963" x2="104.6963" y1="1493.2402" y2="1508.2402"/><polygon fill="#181818" points="100.6963,1498.2402,104.6963,1508.2402,108.6963,1498.2402,104.6963,1502.2402" style="stroke:#181818;stroke-width:1.0;"/><line style="stroke:#181818;stroke-width:1.0;" x1="891.8831" x2="903.8831" y1="1366.0527" y2="1366.0527"/><line style="stroke:#181818;stroke-width:1.0;" x1="903.8831" x2="903.8831" y1="1366.0527" y2="1384.0527"/><line style="stroke:#181818;stroke-width:1.0;" x1="903.8831" x2="280.7656" y1="1384.0527" y2="1384.0527"/><line style="stroke:#181818;stroke-width:1.0;" x1="280.7656" x2="280.7656" y1="1384.0527" y2="1398.0527"/><polygon fill="#181818" points="276.7656,1388.0527,280.7656,1398.0527,284.7656,1388.0527,280.7656,1392.0527" style="stroke:#181818;stroke-width:1.0;"/><line style="stroke:#181818;stroke-width:1.0;" x1="280.7656" x2="280.7656" y1="1433.1465" y2="1605.4277"/><line style="stroke:#181818;stroke-width:1.0;" x1="280.7656" x2="515.5249" y1="1605.4277" y2="1605.4277"/><line style="stroke:#181818;stroke-width:1.0;" x1="515.5249" x2="515.5249" y1="1605.4277" y2="1620.4277"/><polygon fill="#181818" points="511.5249,1610.4277,515.5249,1620.4277,519.5249,1610.4277,515.5249,1614.4277" style="stroke:#181818;stroke-width:1.0;"/><line style="stroke:#181818;stroke-width:1.0;" x1="515.5249" x2="515.5249" y1="1765.709" y2="1770.709"/><line style="stroke:#181818;stroke-width:1.0;" x1="515.5249" x2="192.731" y1="1770.709" y2="1770.709"/><line style="stroke:#181818;stroke-width:1.0;" x1="192.731" x2="192.731" y1="1770.709" y2="1785.709"/><polygon fill="#181818" points="188.731,1775.709,192.731,1785.709,196.731,1775.709,192.731,1779.709" style="stroke:#181818;stroke-width:1.0;"/><text fill="#000000" font-family="sans-serif" font-size="18" lengthAdjust="spacing" textLength="62.0508" x="157.8726" y="69.75">Student</text><text fill="#000000" font-family="sans-serif" font-size="18" lengthAdjust="spacing" textLength="93.0498" x="456.8318" y="69.75">AuthServlet</text><text fill="#000000" font-family="sans-serif" font-size="18" lengthAdjust="spacing" textLength="97.0488" x="820.8259" y="69.75">AuthService</text><text fill="#000000" font-family="sans-serif" font-size="18" lengthAdjust="spacing" textLength="71.0244" x="1223.1843" y="69.75">UserDao</text><!--SRC=[rLHDSzem4BtxL-oG2xG5ClqwaCba824b7Le8fjFfJ2_2NjiAikIHP59Izz_qD_IK6t-iAnjJcj2UM_ksUhjw-tRrBBS2eR-qVCNjvhir8MUnPcaARHYhcClsLAixDCRpp9BBZD4PiA24hmSiMCPQvJ8yLq9fE8gEtNy8gNI8UejwKNwUL_Ws3r7QmZEMQUjvlVB6pet9OFCZYYJA4w_tmQ2MB4L0BcDSbB4fC-PMQRiVgzWESckLXANWmTA5lU9epEF43aIEHJ-tYOzw9P3kx4qd_XowBEDTHl6kSFc0QHOngkagllKdxs6WmZLGCmPb3xxcMpBFA5HI2ByHiAxB0-oKPPejO7caysYVmXkDA8izR56Jlc0M9QoOu257NURm29gxpWMYFck1JGZLl64j3w1t9GJ6JFHrdAUauV1BW9dbYd81_jWpvOtcyocyF3u6QYZ42hwR0vrVOY9GfoZ2NCQVPUDAbhmWqEWmd0dJS4d6gin3OH2QagRGygWSZxngNXTCTI8kmy6wxk6W8fzG27LRR3D83lzw3DSvwZM1JRIvJqenfB88sYNGlVvmF3oVmnEud4tUWPk7eUZ7qN0sX7ewS0fdZW-up5zQGenHxfhUQLantmbsO4B_bjBRsRjcsfF53IujtELwSq_Fi7e5so7yPUFgfzCUCPF0WjOjIEHZbKVzzlDNhvlrbiDJC4pOrfwglRB02dKia0V9RcjT60snvYd91PjxTmT_hFb_hEi1C_798eaxq3fQskgTSm5vIdrcib8exSw6Eb8YDkqPcan9ub0ti-UAbJjGIGVLBdVF63fQaN6VdaA3XIcNZOV-CCEGqsnT8z1tY2cJA9otdlpsR1z0vsZic1kx1LPjbqhz1000]--></g></svg>